<svg id="Camada_1" data-name="Camada 1" xmlns="http://www.w3.org/2000/svg" viewBox="0 0 219.1 219"><defs><style>.cls-1{fill:#be1b2e;}.cls-2{fill:#fff;}</style></defs><title>moldura_sinfonia</title><path class="cls-1" d="M208.9,0H10.1A10.07,10.07,0,0,0,0,10.1V209a10.05,10.05,0,0,0,10.1,10H209a10.07,10.07,0,0,0,10.1-10.1V10.1A10.22,10.22,0,0,0,208.9,0ZM215,208.9a6,6,0,0,1-6,6H67L54,194.7a11.53,11.53,0,0,0-7-5l-43-10V10.1a6,6,0,0,1,6-6H124.3L143.5,34a16.49,16.49,0,0,0,9.9,7L215,55.3V208.9Z"/><path class="cls-2" d="M204,14.7a4.14,4.14,0,0,1,1.2.7l.5.4h0q1.05-1.2,1.5-1.2a.46.46,0,0,1,.5.4v.1c0,.2-.2.4-.7.8l-.6.7h0a2.14,2.14,0,0,1,.6,1,7.69,7.69,0,0,1,1,1.5,6.73,6.73,0,0,1,.6,1.7q.15,0,.3,1.2a1.09,1.09,0,0,1,.2.4v.2c0,.1.1.4.2,1l.1.5v.3a1.27,1.27,0,0,0,.1.6.75.75,0,0,0-.1.5v.2a1.34,1.34,0,0,1,.1.5v.9h0c-.1.4-.3.5-.5.5h-.2a.54.54,0,0,1-.3-.4v-1h-2.4c-.4,0-.6,0-.6-.1H204a.77.77,0,0,1-.3.1h-.3v.1c-.1.8-.2,1.2-.4,1.2h-.2c-.4-.1-.5-.3-.5-.5a9.72,9.72,0,0,0,.1-1.8v-.1a15.94,15.94,0,0,0,.2-1.7v-.5c.2-1.1.3-1.8.3-1.9a7.17,7.17,0,0,1,.5-1.4,1.33,1.33,0,0,1,.3-.7,4.82,4.82,0,0,1,.7-1.5,1.79,1.79,0,0,1,.5-.7c0-.1.1-.2.2-.4a7.46,7.46,0,0,0-1.4-1,.76.76,0,0,1-.2-.4v-.2C203.5,14.8,203.7,14.7,204,14.7Zm.7,10h-1.1v.5h0a6.62,6.62,0,0,1,1.5.1,1,1,0,0,1,.4-.1h.9a.76.76,0,0,0,.4.1,1.75,1.75,0,0,0,.5-.1h.2a.77.77,0,0,0,.3.1h.4a.75.75,0,0,0,.1-.5v-.1h-2.7a.75.75,0,0,1-.5.1,1.58,1.58,0,0,0-.4-.1Zm1-7.2a12.6,12.6,0,0,0-1.3,2.6,13.77,13.77,0,0,0-.7,2.8c-.1,0-.1.1-.1.2v.5a.1.1,0,0,0,.1.1,4.89,4.89,0,0,1,1.3.1,2.25,2.25,0,0,1,.7-.1l.4.1a.37.37,0,0,1,.3-.1.76.76,0,0,1,.4.1h1.3v-.3a16.12,16.12,0,0,0-1.6-4.8,12.49,12.49,0,0,0-.8-1.2Zm.1,2.2c.3.1.4.2.4.4h0a.46.46,0,0,1-.5.4c-.1,0-.2-.1-.4-.3V20A.46.46,0,0,1,205.8,19.7Zm0,2.1h0a.47.47,0,0,1,.5.5c-.1.2-.2.4-.4.4h0c-.3-.1-.4-.2-.4-.4C205.4,21.9,205.6,21.8,205.8,21.8Z"/><path class="cls-2" d="M170.9,16.7h6.2q.9,0,.9.6c0,.3-.2.4-.7.4h-1.7l-.3-.1h-1.1c-.2,0-.3.1-.4.1a1.09,1.09,0,0,0-.5-.1v1.3c0,.2.1.2.1.2a3.14,3.14,0,0,1-.1.9v2.7h1.8c.5,0,.7.2.7.5v.1c0,.2-.2.4-.5.5h-.8a1,1,0,0,0-.4-.1h-.3l-.5.1v.4h.1l.2-.1h1.7c.3.1.5.2.5.5s-.3.5-1,.5h-1.3v.3a2.77,2.77,0,0,0-.1.9,4.12,4.12,0,0,0,.1,1.2c-.1.3-.2.5-.4.5h-.2a.43.43,0,0,1-.4-.4v-3a.37.37,0,0,1-.1-.3V18.1h-.5c0,.2,0,.3.1.3v.9c0,.7,0,1.6.1,2.7v1.2a1.45,1.45,0,0,0-.1.6,2.25,2.25,0,0,0,.1.7v.4h0v2h0l.1.3v.6c-.1.2-.2.3-.4.3h-.1c-.4,0-.5-.4-.5-1.2V25.8a.76.76,0,0,0-.1-.4c.1-.1.1-.2.1-.4s0-.2-.1-.2V22.1a4.12,4.12,0,0,0-.1-1.2V18.1c-.7,0-1-.2-1-.5v-.1C169.9,16.9,170.2,16.7,170.9,16.7Zm3.2,1.4a.43.43,0,0,1,.4.4v.1c-.1.3-.2.4-.4.4s-.3-.1-.4-.3v-.2C173.7,18.3,173.8,18.2,174.1,18.1Zm1.4,0a.43.43,0,0,1,.4.4v.1c0,.2-.1.3-.3.4h-.1c-.3-.1-.4-.2-.4-.4S175.2,18.2,175.5,18.1Zm1.1.1h.1a.46.46,0,0,1,.4.5c0,.2-.2.3-.5.4a.43.43,0,0,1-.4-.4A.7.7,0,0,1,176.6,18.2Z"/><path class="cls-2" d="M157.5,15.2a.37.37,0,0,0,.3.1c.2,0,.3,0,.3-.1h1.1c.2,0,.4.2.5.5s-.3.6-1,.6a2.25,2.25,0,0,0-.7-.1l-.4.1c-.6-.1-.9-.3-.9-.5v-.3C156.7,15.3,157,15.2,157.5,15.2Zm.3,1.6a.37.37,0,0,0,.3.1h1.1c.3.1.5.3.5.5v.1c0,.3-.3.5-.8.5h0v.4a8.87,8.87,0,0,1-.1,1.3,2,2,0,0,1,.1.5v.5c0,.1,0,.1-.1.3v1.3a.31.31,0,0,1,.1.2,1.09,1.09,0,0,1-.1.5.37.37,0,0,1,.1.3,1.09,1.09,0,0,0-.1.5v3.1h.3a.67.67,0,0,1,.7.5h0c0,.3-.2.4-.6.5h-1.6q-.6-.15-.6-.6c0-.3.3-.5.8-.5h.1V25.5a7.9,7.9,0,0,1,.1-1.4,5.85,5.85,0,0,1-.1-1h0V21.2a.44.44,0,0,1,.1-.3v-.3a1.27,1.27,0,0,1,.1-.6,1.21,1.21,0,0,0-.1-.5v-.3h0V17.9c-.6,0-.9-.2-.9-.5v-.1c-.3-.4,0-.5.7-.5Z"/><path class="cls-2" d="M198.8,15.2a.37.37,0,0,0,.3.1c.2,0,.3,0,.3-.1h1.1c.2,0,.4.2.5.5s-.3.6-1,.6a2.25,2.25,0,0,0-.7-.1l-.4.1c-.6-.1-.9-.3-.9-.5v-.3C198,15.3,198.3,15.2,198.8,15.2Zm.3,1.6a.37.37,0,0,0,.3.1h1.1c.3.1.5.3.5.5v.1c0,.3-.3.5-.8.5h0v.4a8.87,8.87,0,0,1-.1,1.3,2,2,0,0,1,.1.5v.5c0,.1,0,.1-.1.3v1.3a.31.31,0,0,1,.1.2,1.09,1.09,0,0,1-.1.5.37.37,0,0,1,.1.3,1.09,1.09,0,0,0-.1.5v3.1h.3a.67.67,0,0,1,.7.5h0c0,.3-.2.4-.6.5h-1.6q-.6-.15-.6-.6c0-.3.3-.5.8-.5h.1V25.5a7.9,7.9,0,0,1,.1-1.4,5.85,5.85,0,0,1-.1-1h0V21.2a.44.44,0,0,1,.1-.3v-.3a1.27,1.27,0,0,1,.1-.6,1.21,1.21,0,0,0-.1-.5v-.3h0V17.9c-.6,0-.9-.2-.9-.5v-.1c-.3-.4,0-.5.7-.5Z"/><path class="cls-2" d="M168.4,16.6c.3,0,.5.3.5,1v.3h0V18a1.45,1.45,0,0,1-.1.6c0,.3.1.8.1,1.6v.3a2.77,2.77,0,0,1-.1.9v2.3h0v1.4a.58.58,0,0,0,.1.4v.7a.37.37,0,0,0-.1.3l.1.2c0,.7-.2,1.1-.6,1.1h0c-.2,0-.3-.1-.5-.4q-.3,0-1.2-1.2c-.1,0-.3-.3-.9-1a14.72,14.72,0,0,1-1.7-2q-1.2-1.35-2.1-2.4v.6l-.1.5a6.25,6.25,0,0,1,.1,1.2h0v.6a9.51,9.51,0,0,0,.1,1.4V26h-.1a5.74,5.74,0,0,1,.1,1.2c-.2.2-.3.3-.5.3s-.5-.3-.6-.8v-.3h0a1,1,0,0,1-.1-.4.5.5,0,0,0,0-.6l.1-.7a5.38,5.38,0,0,1-.1-1.1.77.77,0,0,1,.1-.3v-.5a1.27,1.27,0,0,1-.1-.6V17.3q.3-.6.6-.6h0c.2,0,.5.2.8.7.1,0,.3.3.7.8a3.13,3.13,0,0,1,.9,1.1c.1,0,.3.2.6.5a9.56,9.56,0,0,1,1.1,1.3c.6.6.9.9,1,.9a8.7,8.7,0,0,0,1.2,1.4h0V22.1l.1-.5V21c0-.3,0-.4.1-.4v-.2h0V17.2c0-.3.1-.5.5-.6Zm-6.5,1.9v.2a1.87,1.87,0,0,0,.8,1.4c0,.2.3.5.9,1a10,10,0,0,0,1.3,1.5,4.33,4.33,0,0,0,1,1.2,5.84,5.84,0,0,0,.8,1,7.45,7.45,0,0,1,1.1,1.4h.1v-.7a.77.77,0,0,1-.1-.3V25a11.29,11.29,0,0,1-1.4-1.5c-.1,0-.4-.4-1.1-1.2a6.47,6.47,0,0,1-.8-.9l-1-1.1a3.7,3.7,0,0,1-1-1.1C162.6,19.2,162.3,18.9,161.9,18.5Zm.9,4.7c.3,0,.4.2.5.6a.37.37,0,0,1-.4.4h-.1c-.4-.1-.6-.2-.6-.5h0A1,1,0,0,1,162.8,23.2Zm.2,2c.2.1.3.2.3.4a.47.47,0,0,1-.5.5h-.3l-.3-.3v-.2A1.51,1.51,0,0,1,163,25.2Zm3.5-5.9h.2c.3,0,.5.2.5.6a.55.55,0,0,1-.5.3c-.4-.1-.5-.2-.5-.5S166.2,19.3,166.5,19.3Zm0-1.8h.2a.55.55,0,0,1,.3.5h0a.46.46,0,0,1-.5.4c-.3,0-.4-.2-.4-.5v-.1C166.1,17.6,166.3,17.5,166.5,17.5Z"/><path class="cls-2" d="M195.8,16.6c.3,0,.5.3.5,1v.3h0V18a1.45,1.45,0,0,1-.1.6c0,.3.1.8.1,1.6v.3a2.77,2.77,0,0,1-.1.9v2.3h0v1.4a.58.58,0,0,0,.1.4v.7a.37.37,0,0,0-.1.3l.1.2c0,.7-.2,1.1-.6,1.1h0c-.2,0-.3-.1-.5-.4q-.3,0-1.2-1.2c-.1,0-.3-.3-.9-1a14.72,14.72,0,0,1-1.7-2q-1.2-1.35-2.1-2.4v.6l-.1.5a6.25,6.25,0,0,1,.1,1.2h0v.6a9.51,9.51,0,0,0,.1,1.4V26h-.1a5.74,5.74,0,0,1,.1,1.2c-.2.2-.3.3-.5.3s-.5-.3-.6-.8v-.3h0a1,1,0,0,1-.1-.4.5.5,0,0,0,0-.6l.1-.7a5.38,5.38,0,0,1-.1-1.1.77.77,0,0,1,.1-.3v-.5a1.27,1.27,0,0,1-.1-.6V17.3q.3-.6.6-.6h0c.2,0,.5.2.8.7.1,0,.3.3.7.8a3.13,3.13,0,0,1,.9,1.1c.1,0,.3.2.6.5a9.56,9.56,0,0,1,1.1,1.3c.6.6.9.9,1,.9a8.7,8.7,0,0,0,1.2,1.4h0V22.1l.1-.5V21c0-.3,0-.4.1-.4v-.2h0V17.2c0-.3.1-.5.5-.6Zm-6.5,1.9v.2a1.87,1.87,0,0,0,.8,1.4c0,.2.3.5.9,1a10,10,0,0,0,1.3,1.5,4.33,4.33,0,0,0,1,1.2,5.84,5.84,0,0,0,.8,1,7.45,7.45,0,0,1,1.1,1.4h.1v-.7a.77.77,0,0,1-.1-.3V25a11.29,11.29,0,0,1-1.4-1.5c-.1,0-.4-.4-1.1-1.2a6.47,6.47,0,0,1-.8-.9l-1-1.1a3.7,3.7,0,0,1-1-1.1C190,19.2,189.7,18.9,189.3,18.5Zm.9,4.7c.3,0,.4.2.5.6a.37.37,0,0,1-.4.4h-.1c-.4-.1-.6-.2-.6-.5h0A1,1,0,0,1,190.2,23.2Zm.2,2c.2.1.3.2.3.4a.47.47,0,0,1-.5.5H190l-.3-.3v-.2C189.8,25.4,190,25.3,190.4,25.2Zm3.5-5.9h.2c.3,0,.5.2.5.6a.55.55,0,0,1-.5.3c-.4-.1-.5-.2-.5-.5S193.6,19.3,193.9,19.3Zm0-1.8h.2a.55.55,0,0,1,.3.5h0a.46.46,0,0,1-.5.4c-.3,0-.4-.2-.4-.5v-.1C193.5,17.6,193.7,17.5,193.9,17.5Z"/><path class="cls-2" d="M182.5,16.8a5.84,5.84,0,0,1,2,.4,3.78,3.78,0,0,0,.8.5,5.47,5.47,0,0,1,1,1.1c.1,0,.3.5.8,1.5a8.21,8.21,0,0,1,.3,1.8v.3a5.58,5.58,0,0,1-1,3.3c0,.1-.4.6-1.3,1.3a4,4,0,0,1-1.9.7.58.58,0,0,1-.4.1.37.37,0,0,0-.3-.1h-.3a5.18,5.18,0,0,1-1.8-.7,5.74,5.74,0,0,1-1.7-2.1c-.1,0-.3-.4-.5-1.3a3.75,3.75,0,0,1-.1-.8v-.1a2.8,2.8,0,0,1-.1-.6,5.9,5.9,0,0,1,.7-2.5,7.68,7.68,0,0,1,.9-1.3l.5-.5A4.5,4.5,0,0,1,182,17C181.9,16.8,182.1,16.8,182.5,16.8Zm-3.6,5.1a4.72,4.72,0,0,0,1.9,4.2,5.71,5.71,0,0,0,1.5.6h.5a3.49,3.49,0,0,0,1.3-.5,5.78,5.78,0,0,0,1.9-2.5,7.38,7.38,0,0,0,.2-1.2v-.7a5.61,5.61,0,0,0-.5-1.9,3.62,3.62,0,0,0-2.9-2.1h-.6a4,4,0,0,0-1.5.6,5.4,5.4,0,0,0-1.4,1.9,3.26,3.26,0,0,0-.3,1A2.8,2.8,0,0,1,178.9,21.9Zm3.7-2.8c.1,0,.2.1.4.3v.2a.37.37,0,0,1-.4.4h-.1a.43.43,0,0,1-.4-.4v-.2C182.3,19.2,182.4,19.1,182.6,19.1Zm-.1,2.6h0c.3,0,.4.2.5.5s-.2.3-.5.4q-.3-.15-.3-.3v-.2C182.2,21.8,182.3,21.7,182.5,21.7Zm0,2.8h.2a.27.27,0,0,1,.3.3V25c-.1.2-.2.3-.4.3h0a.37.37,0,0,1-.4-.4v-.2A1.24,1.24,0,0,1,182.5,24.5Z"/><path class="cls-2" d="M153,16.8h1.1a2.18,2.18,0,0,1,.5.8v.7c0,.4-.2.7-.5.7s-.6-.3-.6-.6a.76.76,0,0,0,.1-.4v-.2h0c-.1,0-.2-.1-.4-.1-1,.3-1.7.5-1.9.8a.76.76,0,0,0-.1.4,1,1,0,0,0,.6.9,4.19,4.19,0,0,0,1.6.4,2.23,2.23,0,0,1,1.2.7,3.07,3.07,0,0,1,1,1.5c0,.1.1.2.2.4a5.21,5.21,0,0,1,.2,1.4v.5a4,4,0,0,1-.8,2.1,4.8,4.8,0,0,1-2,.8h-.6a1.75,1.75,0,0,1-.5.1l-1.2-.3a2.52,2.52,0,0,1-1.2-.7c-.2-.1-.3-.2-.3-.4s.1-.3.3-.5h.1a2.15,2.15,0,0,1,1.3.6l.3.1h.2a3.22,3.22,0,0,0,.8.1c1.4,0,2.2-.3,2.5-.9a1.42,1.42,0,0,1,.2-.6v-.2a.37.37,0,0,0,.1-.3v-.8c-.4-1.7-1.2-2.6-2.4-2.6-1.6-.3-2.4-1.1-2.4-2.6.4-.8.8-1.2,1.1-1.2C151.5,17.2,152.1,17,153,16.8Zm-2.4,7h.2a.54.54,0,0,1,.3.4c-.1.2-.2.4-.4.4h-.1a.43.43,0,0,1-.4-.4h0C150.3,24,150.4,23.8,150.6,23.8Zm1.3,0h.2a.37.37,0,0,1,.4.4h0c0,.2-.1.3-.3.4H152a.43.43,0,0,1-.4-.4A.54.54,0,0,1,151.9,23.8Zm1.3,0h.2a.37.37,0,0,1,.4.4h0c0,.2-.1.3-.3.4h-.2a.43.43,0,0,1-.4-.4A.54.54,0,0,1,153.2,23.8Z"/><path class="cls-1" d="M189.45,174.5a15,15,0,1,0,15,15A15,15,0,0,0,189.45,174.5Z"/><path class="cls-2" d="M196.45,191l-10.6,6.1a1.51,1.51,0,0,1-2.2-1.3V183.2a1.51,1.51,0,0,1,2.2-1.3l10.6,6.5A1.5,1.5,0,0,1,196.45,191Z"/></svg>