<svg id="Camada_1" data-name="Camada 1" xmlns="http://www.w3.org/2000/svg" viewBox="0 0 219.1 219"><defs><style>.cls-1{fill:#be1b2e;}.cls-2{fill:#fff;}</style></defs><title>moldura_tamoresdaliberdade</title><path class="cls-1" d="M208.9,0H10.1A10.07,10.07,0,0,0,0,10.1V209a10.05,10.05,0,0,0,10.1,10H209a10.07,10.07,0,0,0,10.1-10.1V10.1A10.22,10.22,0,0,0,208.9,0ZM215,208.9a6,6,0,0,1-6,6H67L54,194.7a11.53,11.53,0,0,0-7-5l-43-10V10.1a6,6,0,0,1,6-6H124.3L143.5,34a16.49,16.49,0,0,0,9.9,7L215,55.3V208.9Z"/><path class="cls-2" d="M197.5,11.2c-.1,0-.1.1-.1.2s.1.1.2.1.1-.1,0-.2C197.7,11.2,197.6,11.2,197.5,11.2Zm13.1,6.1-.5-.2.1.5C210.3,17.7,210.6,17.4,210.6,17.3Zm-10.4-6.1.4-.4c-.1,0-.4-.1-.5-.1S200.1,11.1,200.2,11.2Zm-2,.5h.5c0-.1-.2-.4-.3-.4A.76.76,0,0,1,198.2,11.7Zm1.2-.5c-.1,0-.1.1-.1.2s.1.1.2.1.1-.1,0-.2S199.5,11.2,199.4,11.2Zm9.5,6,.4-.3-.5-.2Zm-7-3.8c.1,0,.1-.1,0-.2s-.1-.1-.2,0-.1.1,0,.2A.14.14,0,0,0,201.9,13.4Zm-3.3-.9h.3a3.2,3.2,0,0,0,3-3.3,3.16,3.16,0,0,0-3.1-3.3,3.44,3.44,0,0,0-3.5,3.3A3.33,3.33,0,0,0,198.6,12.5Zm-.1-6.1h.1a2.69,2.69,0,0,1,2.6,2.8,2.61,2.61,0,0,1-2.5,2.8h-.2a2.86,2.86,0,0,1-2.8-2.8A2.93,2.93,0,0,1,198.5,6.4Zm3.1,7.9c0,.1.1.1.2,0s.1-.1,0-.2-.1-.1-.2,0Zm.1-.5c0,.1.1.1.2,0s.1-.1,0-.2-.1-.1-.2,0S201.6,13.8,201.7,13.8Zm-.6-4.4V8.9c-.1,0-.4.2-.4.3S201,9.4,201.1,9.4Zm-.3-1.1c.1,0,.1-.1,0-.2s-.1-.1-.2-.1-.1.1-.1.2A.77.77,0,0,0,200.8,8.3Zm-.6-1.2c0,.1-.1.4-.1.5s.4-.1.5-.1Zm.6,3.1c.1,0,.1-.1,0-.2s-.1-.1-.2-.1-.1.1-.1.2A.77.77,0,0,0,200.8,10.2Zm-3.2-2.9a2.1,2.1,0,0,0-1,2.7,2.16,2.16,0,0,0,2.9,1,2.23,2.23,0,0,0,.8-3A2,2,0,0,0,197.6,7.3Zm2.3,1a1.64,1.64,0,0,1-.6,2.3,1.68,1.68,0,0,1-2.2-.8,1.57,1.57,0,0,1,.8-2.1A1.43,1.43,0,0,1,199.9,8.3Zm-3.5,0c.1,0,.1-.1,0-.2s-.1-.1-.2-.1-.1.1-.1.2A.37.37,0,0,0,196.4,8.3Zm.4-1.2-.4.4c.1,0,.4.1.5.1S196.9,7.2,196.8,7.1Zm.8-.1c.1,0,.1-.1,0-.2s-.1-.1-.2,0-.1.1-.1.2Zm13.3,14a.1.1,0,0,0-.1.1v.1c0,.1.1.1.2.1a2.16,2.16,0,0,1,2.1.1.14.14,0,0,0,.2-.2A2,2,0,0,0,210.9,21Zm-1.6-3.7.5.2-.1-.5Zm-13-7.3c-.1,0-.1.1-.1.2s.1.1.2,0,.1-.1,0-.2S196.3,9.9,196.3,10Zm-.4-1.1v.5c.1,0,.4-.2.4-.3S196,8.9,195.9,8.9Zm11.4,6c-.1.1-.2.2-.1.4a1.24,1.24,0,0,1,.2.3,11.16,11.16,0,0,0-1.6,1c-.4.3-.9.7-.7,1.2a17,17,0,0,0,2,3.3.28.28,0,1,0,.4-.4,29.24,29.24,0,0,1-1.8-3,8,8,0,0,1,1.7-1.2c.1-.1.2-.1.3-.2l.8,1.6-.4,1.4.8-.4c.1.1.2.2.4.1s.2-.2.1-.4l.9-.4-1.3-.5-.8-1.6a6.84,6.84,0,0,1,2.4-.8,27,27,0,0,1,1.3,3.3.3.3,0,1,0,.6,0,13.88,13.88,0,0,0-1.4-3.6c-.2-.4-.8-.3-1.4-.1s-1.1.4-1.7.7a1.24,1.24,0,0,0-.2-.3C207.6,14.9,207.4,14.9,207.3,14.9Zm2.9,1.3a.38.38,0,1,0-.5-.2A.37.37,0,0,0,210.2,16.2Zm-.3-.3a.22.22,0,1,1,.3.1C210,16.1,209.9,16,209.9,15.9Zm-13.1-4.7c0-.1.1-.4.1-.5s-.4.1-.5.1Zm1.3-2.9a.93.93,0,0,0-.4,1.2.8.8,0,0,0,1.2.4,1.09,1.09,0,0,0,.4-1.3A1,1,0,0,0,198.1,8.3Zm.6.7c.1.1,0,.2-.1.3s-.2,0-.3-.1a.37.37,0,0,1,.1-.3A.37.37,0,0,1,198.7,9Zm.8-2c.1,0,.1-.1,0-.2s-.1-.1-.2,0-.1.1-.1.2Zm-.7-.5h-.5c0,.1.2.4.3.4A1.42,1.42,0,0,1,198.8,6.5Zm1.2,9.7a.28.28,0,1,0-.4-.4,5.08,5.08,0,0,0-1.8,2.5h0a2.25,2.25,0,0,1,1.9.6,1.87,1.87,0,0,1,.5,1,.35.35,0,0,0,.1.2,2.14,2.14,0,0,1,.1.6c0,.1.1.3.2.3h0c.1,0,.3-.1.3-.2a5.1,5.1,0,0,0-.1-.9.35.35,0,0,0-.1-.2,4,4,0,0,1,.6,1.1c0,.1.1.2.3.2h.1c.1,0,.2-.2.2-.3a5.66,5.66,0,0,0-.6-1.2,4.62,4.62,0,0,0-.7-.7,3.44,3.44,0,0,1,1.6,1.1c.1.1.1.1.2.1s.1,0,.2-.1a.3.3,0,0,0,0-.4,4.19,4.19,0,0,0-1.1-.9,2.11,2.11,0,0,0-1-.4,4.15,4.15,0,0,1,2.5.8c.1,0,.1.1.2.1s.2,0,.2-.1a.3.3,0,0,0,0-.4,4.05,4.05,0,0,0-3.4-.9,5.42,5.42,0,0,1,2.9-.1c.1,0,.3,0,.3-.2s0-.3-.2-.3a6.13,6.13,0,0,0-1.5-.2,4.55,4.55,0,0,0-2.1.5,5.1,5.1,0,0,1,2.3-.6h0a.3.3,0,1,0,0-.6,5.13,5.13,0,0,0-1.6.3c-.2.1-.5.2-.7.3A2.76,2.76,0,0,1,200,16.2Zm2.2,17.5,1.2-1.4-2.8-2.9V29a24.28,24.28,0,0,0-.1-3.7c.1.1,1.3.9,1.3.9-.4.7-.7,1.4-1.1,2.1l.1.1,2.5-2.4-2.6-2.5a.76.76,0,0,0-.8-.3.31.31,0,0,0-.2.1v.4a.7.7,0,1,1-1.3-.5.89.89,0,0,1,.8-.5c0,.1,0,.1-.2.1a.66.66,0,0,0-.5.4.68.68,0,0,0,.4.8.61.61,0,0,0,.7-.3c.1-.1.1-.2.1-.4-.2,0-.4.1-.6.1l-.2-.5a.55.55,0,0,0,.5-.2h0a1.43,1.43,0,0,0,.4-1,2.44,2.44,0,0,0,.2-2.2c-.6-1.3-2.8-1.5-3.8-.8a2.65,2.65,0,0,0-.5.6c-.1.1-.2.3-.1.4a2.4,2.4,0,0,0,0,1.2,1.56,1.56,0,0,0-.3,1.2.78.78,0,0,0-.4.4.75.75,0,0,0,.4.9.88.88,0,0,0,.7-.1.1.1,0,0,1,.1.1,2.07,2.07,0,0,0,1.4.1l.1.1c-.6.1-1,.2-1,.2-.2.1-.3.1-.4.5a11.31,11.31,0,0,1-.4,1.5c0,.1-1.4-1.5-1.4-1.5l-.1.1,1.6,3.4,1.6-2.4c1.1.1,2.1,2.2,2.3,2.8l-1.9-1.9-2.2,2.5.6.5c-.9.3-1.7.7-2.6,1.1,0,0,2.2,1.1,3.4,1.6l.1-.1a22.05,22.05,0,0,0-1.6-1.7l2.1.1h0l.4.3a16.94,16.94,0,0,0-1.3,2.7c1.5.2,2.9.3,4.3.5h0a16.68,16.68,0,0,0-2.5-1.3l-1.2.4,1.6-1.6Zm-3.7-4.9a.2.2,0,1,1-.2.2A.22.22,0,0,1,198.5,28.8Zm-.9,1.4-.3-1.2c.1,0,.2-.1.3-.1l.3,1.1C197.8,30.1,197.7,30.1,197.6,30.2Zm.8-.4,1.2-.5h.2l.1.1.1.7-.3.3-.1-.7-1.5.6C198.1,30.2,198.3,30,198.4,29.8Zm8.2-14c0-.1,0-.1-.1-.1s-.1,0-.1.1,0,.1.1.1S206.5,15.8,206.6,15.8Zm-2.7-3.7h0a1.47,1.47,0,0,0,.4-.2l.1-.1v-.1a2.57,2.57,0,0,0-.5-.2v.6Zm.4-.2c-.1.1-.2.2-.3.2v-.4A1.44,1.44,0,0,1,204.3,11.9Zm.2-.6c.1-.1-.1-.5-.2-.5h0c-.1,0-.3.3-.3.3v.1h0C204.1,11.3,204.5,11.4,204.5,11.3Zm-.2-.4c0,.1.1.2.1.3s-.3,0-.3-.1A.22.22,0,0,0,204.3,10.9Zm1.2,1.2a.5.5,0,1,0-.7.1A.62.62,0,0,0,205.5,12.1Zm.7,3.9c0-.1,0-.1-.1-.1s-.1,0-.1.1,0,.1.1.1Zm1.5,1.3-.2.5.5-.1C208.1,17.7,207.7,17.3,207.7,17.3ZM201,13.9h0c.2.1.4,0,.4-.1a9.14,9.14,0,0,1,.7-1.4,3.84,3.84,0,0,0,1.1,3.4,1,1,0,0,0,1.1.3,1.16,1.16,0,0,0,.7-.5v-.2a.91.91,0,0,0-.3-1,.93.93,0,0,0-1.3.1c-.1.1-.1.2-.2.3a4,4,0,0,1-.5-2.4,2.1,2.1,0,0,0,.8,1.1,2.52,2.52,0,1,0-.3-3.6h0a14.21,14.21,0,0,0-2.2,3.5C200.8,13.7,200.9,13.8,201,13.9Zm2.6.9a.62.62,0,0,1,.8-.1c.2.1.2.3.2.5-.1,0-.1.1-.2.1s-.1.2-.3.2a.73.73,0,0,1-.6-.2l-.1-.1C203.5,15.1,203.5,14.9,203.6,14.8Zm0-4.3h0a2,2,0,0,1,2.7-.3,2,2,0,0,1,.3,2.8,2,2,0,0,1-2.8.2A1.91,1.91,0,0,1,203.6,10.5Zm2.6,6.8a.38.38,0,1,0,.5.2A.37.37,0,0,0,206.2,17.3Zm.2.6a.37.37,0,0,1-.3-.1.22.22,0,1,1,.3.1Zm-1.2-5.4c-.1,0-.2.4-.2.4V13h.5a.1.1,0,0,0,.1-.1c-.1-.1-.3-.4-.4-.4Zm-.2.4c0-.1.1-.2.1-.3.1.1.2.2.2.3Zm-8.9,3.6s.1-.1.1-.6-.1-.7-.2-.8h-.1c-.2-.1-.9.5-.9.5-.2.2-.2.2-.2.3a.1.1,0,0,0,.1.1C194.9,16.1,195.9,16.7,196.1,16.5Zm-1-.6a2.31,2.31,0,0,1,.7-.5,2.77,2.77,0,0,1,.1.9A2,2,0,0,1,195.1,15.9Zm9.9-4.8c.1,0,.2-.4.2-.4v-.1h-.5a.1.1,0,0,0-.1.1c.1,0,.3.3.4.4Zm.2-.5c0,.1-.1.2-.1.3-.1-.1-.2-.2-.2-.3C204.9,10.7,205.1,10.6,205.2,10.6Zm.6,1.1h0c.1.1.4.3.5.2v-.2a.44.44,0,0,0-.1-.3h0c-.1,0-.3.2-.4.2Zm.4-.2v.4c-.1,0-.2-.1-.3-.1Q206.05,11.5,206.2,11.5Zm-2,.9h0c-.1.1-.1.2.1.3l.2.1c.1,0,.1-.4.1-.4v-.1Zm.3.4a.1.1,0,0,1-.1-.1l-.1-.1c.1,0,.2-.1.3-.1A1,1,0,0,0,204.5,12.8Zm-.3,2.5a.21.21,0,1,0-.3,0C204,15.4,204.2,15.4,204.2,15.3Zm1.8-4.2h0c.1-.1.1-.2-.1-.3l-.2-.1c-.1,0-.1.4-.1.4v.1C205.6,11.3,206,11.1,206,11.1Zm-.3-.3a.1.1,0,0,1,.1.1l.1.1c-.1,0-.2.1-.3.1A.49.49,0,0,1,205.7,10.8Zm-.1,1.4c-.1.1.1.5.2.5h0c.1,0,.3-.3.3-.3v-.1h0A4.33,4.33,0,0,0,205.6,12.2Zm.2.4c0-.1-.1-.2-.1-.3s.3,0,.3.1S205.9,12.6,205.8,12.6Zm-13.1,1.6.1.1c.2,0,.6-.9.6-1s.1-.3,0-.4a4.82,4.82,0,0,0-1.2,0,.31.31,0,0,0-.2.1A1.47,1.47,0,0,0,192.7,14.2Zm.5-1c0,.2-.3.6-.4.8a2.31,2.31,0,0,1-.5-.7A2.48,2.48,0,0,1,193.2,13.2Zm15.4,8.1c0,.1,0,.1.1.2s.1,0,.2-.1,0-.1-.1-.2A.35.35,0,0,0,208.6,21.3Zm.9-1.9c.1,0,.1-.2.1-.3s-.2-.1-.3-.1-.1.2-.1.3A.19.19,0,0,0,209.5,19.4Zm-1.6,3.9a.9.9,0,1,0,.9-.9A1.06,1.06,0,0,0,207.9,23.3Zm1.2,0a.3.3,0,1,1-.3-.3A.45.45,0,0,1,209.1,23.3Zm-1.2-1.6c0-.1,0-.1-.1-.2s-.1,0-.2.1,0,.1.1.2S207.9,21.7,207.9,21.7Zm-13.8-4.8a1.38,1.38,0,0,0-.2-1.8,1.28,1.28,0,1,0,.2,1.8Zm-1.5,2.4a4.82,4.82,0,0,0,1.2,0,.31.31,0,0,0,.2-.1c.1-.2-.6-1-.7-1.1l-.1-.1c-.2,0-.6.9-.6,1a.19.19,0,0,0,0,.3Zm.6-1a2.31,2.31,0,0,1,.5.7,2.77,2.77,0,0,1-.9.1A5.94,5.94,0,0,1,193.2,18.3Zm1.2-1a2.84,2.84,0,0,0,.4,1.3h.2c.2,0,.7-.7.8-.9s.1-.2,0-.2h0C195.6,17.4,194.5,17.1,194.4,17.3Zm.5,1a2.61,2.61,0,0,1-.3-.8c.2,0,.7.1.9.1A2,2,0,0,1,194.9,18.3ZM191.6,15a2.84,2.84,0,0,0-.4-1.3H191c-.2,0-.7.7-.8.9s-.1.2,0,.2v.1A6.15,6.15,0,0,0,191.6,15Zm-.6-1.1a2.61,2.61,0,0,1,.3.8,2.92,2.92,0,0,1-.9-.2A3.39,3.39,0,0,0,191,13.9Zm16.2,4.7-.2.5.5-.1C207.6,19,207.3,18.6,207.2,18.6Zm-17.3-2.9s-.1.1-.1.6.1.7.2.8h.1c.2.1.9-.5.9-.5.2-.2.2-.2.2-.3a.1.1,0,0,0-.1-.1C191,16.1,190,15.5,189.9,15.7Zm1,.6a2.31,2.31,0,0,1-.7.5,2.77,2.77,0,0,1-.1-.9A2.93,2.93,0,0,0,190.9,16.3Zm16.8,2.3.2-.5-.5.1C207.3,18.3,207.6,18.6,207.7,18.6Zm.4,2.8c0,.1,0,.1.1.2s.1,0,.2-.1,0-.1-.1-.2S208.2,21.3,208.1,21.4ZM191,18.6c.5.4.5.3.6.3s.3-1,.3-1c0-.2,0-.3-.1-.4s-1.1.3-1.1.3c-.2.1-.3.1-.2.3C190.5,18.1,190.5,18.2,191,18.6Zm.6-.8c0,.2-.1.7-.1.9-.1,0-.2-.1-.3-.2s-.3-.3-.4-.3A1.23,1.23,0,0,1,191.6,17.8ZM207,15.6c0-.1,0-.1-.1-.1s-.1,0-.1.1,0,.1.1.1A.1.1,0,0,1,207,15.6ZM194.2,40.9v-.2l-.1-.5V40l-3.2-.2-.2,3.1-.1.2.1.1v.4h0l.1.1-.1,1.1-.1.1.1.1v.7h0v.1l.1.1h.8l.1-.7V42.1h.6l.1.7.2,1.7.1.4L193,46l.8.1v-.5l-.1-.1v-.4l-.1-.1h0l-.1-.4-.3-1.4-.1-1,.1-.1h.2l.5.1h.1l.2-1.3Zm-.9.5-1.5-.1.1-.1v-.5l1.5.1v.3Zm-2.7,4.3Zm2.5-7.7.3-.3v-2h.1l-.1-.2v-.4l.1-.2v-.1h0v-.4l-.1-1-.5-.5-.5.1h-1.9v.3l-.1.1v.5h.5v.6l-.1.3.1.2v1.4l.1.1-.1.1v.1l.1.1v.9h-.5v.9H193Zm-.6-.8h0l-.8.1v-2h0V34l-.1-.4h.7v1.8h0l.1.2h0v.2l.1.4v1Zm-6.1,2.2h0l-.1.3-.8,1.9-.9,2.6,2.7,1.1.1-.3.4-.7-.6-.1H187l-1.3-.5-.1-.1.3-.7v-.1l.1-.2.1-.3.1-.1,1.3.5.1-.2v-.1l.1-.2.1-.3-.5-.3-.3-.1-.5-.2.3-1h.1l.1-.1h.1l1.4.5.5.2.1-.4.1-.1.1-.4v-.1l-2.7-1.1Zm-2.7.5,1.6-2.1-1.6-1.2-.5-.4-.1.1-.4.6-.5.5-.3.4-.1.1v.2l-2.3,3L182,43l2.1-2.7v-.1Zm-1.4,1.2-.4.6-.4-.2-.6-.4-.1-.1.9-1.2.1-.1.4.3.6.4Zm.1-2.2h0v-.1h.1v-.1h.1v-.1l.1-.1h0l.7-.9.6.4v.1l-1,1.4Zm6.1-8.6h0l2.1-.1c-.3.3-1.5,1.6-1.6,1.7l.1.1c1.1-.5,3.4-1.5,3.4-1.6a12,12,0,0,0-2.6-1.1l.6-.5-2.2-2.5-1.9,1.9c.2-.6,1.2-2.7,2.3-2.8l1.6,2.4,1.6-3.4-.1-.1-1.4,1.5a11.31,11.31,0,0,1-.4-1.5c-.1-.4-.2-.4-.4-.5l-1-.2.1-.1a2.14,2.14,0,0,0,1.4-.1.1.1,0,0,0,.1-.1.88.88,0,0,0,.7.1.63.63,0,0,0,.4-.9.78.78,0,0,0-.4-.4,1.25,1.25,0,0,0-.3-1.2,4.74,4.74,0,0,0,0-1.2.6.6,0,0,0-.1-.4,2.65,2.65,0,0,0-.5-.6c-1-.7-3.2-.5-3.8.8a2.44,2.44,0,0,0,.2,2.2,1.28,1.28,0,0,0,.4,1h0a.76.76,0,0,0,.5.2l-.2.5c-.2,0-.4-.1-.6-.1a.76.76,0,0,0,.1.4.52.52,0,0,0,.7.3.54.54,0,0,0,.4-.8.66.66,0,0,0-.5-.4.35.35,0,0,1-.2-.1.73.73,0,1,1-.5,1c0-.1-.1-.2,0-.4-.1,0-.2,0-.2-.1a.76.76,0,0,0-.8.3L182.9,26l2.5,2.4.1-.1c-.4-.7-.7-1.4-1.1-2.1l1.3-.9a24.52,24.52,0,0,0-.1,3.7c0,.1-.1.2,0,.4l-2.8,2.9,1.2,1.4,3.4-2.4,1.6,1.6-1.2-.4a11,11,0,0,0-2.5,1.3h0c1.4-.2,2.8-.3,4.3-.5a8.45,8.45,0,0,0-1.3-2.7Zm-1-1.4a.2.2,0,1,1-.2.2C187.3,29,187.3,28.9,187.5,28.9Zm-.6,1.8a.2.2,0,1,1,.2-.2A.22.22,0,0,1,186.9,30.7Zm-.5-.9-.1.7-.3-.3.1-.7c0-.1,0-.1.1-.1h.2l1.2.5c.1.2.3.3.4.5Zm2-.9a.37.37,0,0,1,.3.1l-.3,1.2c-.1-.1-.2-.1-.3-.2ZM210,35.2l-.3-.1-.2-.1-.6-.3-.5-.2.7-1.3-.5-.2h0l-.3-.2-.2.5-.4.7h-.1l-.5-.3-.3-.1-.5-.3v-.1l.1-.3.7-1.4.1-.1-.8-.4-.1.1L205,33.6l.1-.1,4.8,2.5.3.1.3.2,1-1.8.1-.3h.1v-.1l.2-.3-.8-.4Zm.1-6.3a.56.56,0,0,0-.5-1,.52.52,0,0,0-.3.7A.67.67,0,0,0,210.1,28.9Zm-.3-.7h.2c0,.1,0,.1-.1.2s-.1,0-.2-.1Zm-14,8.9v.1l.1.2h0v.1h.1V38h.1l.4.1h.2V37h0l-.1-.1v-.6l-.1-.5v-.1l-.1-.3-.1-.6-.1-.1L196,34h-.1v-.2l-.1-.1v-.3h0l-.1-.1-.1-.2v-.3h-1v.3l-.1.1v.2l-.1.1v.3l-.1.2-.3,1.7-.3,2.3.7.1v-.3l.1-.5.1-.2.1.1h.7Zm-.8-.8h-.2l.1-.2.1-.3h0l.2-1.7h.1l.3,2.2Zm9.5,5h0l-.1-.1h0l-.2-.1-.2-.2-.2-.2-.5-.4v-.1l-.3-.3-.4-.5h-.1l-.6-.6h0l-.1-.2-.2-.1-.2-.3h-.1l-.2-.1-.2-.1-.2-.2-1,.6.2.4V39l.1.2v.1l.2.3.1.3.7,1.8,1.1,2.4.7-.4-.1-.3-.2-.5-.1-.3h.1l.5-.3.2-.1.2-.2v.1l.3.1v.2h.1l.2.3.2.1.1-.1.4-.2.2-.1h0l-.3-.4Zm-2.1.1-.1.1-.1-.3v-.3h-.1l-.9-1.8.1-.1,1.7,2Zm-2.3,2.7-.1-.3v-.2l-.1-.1v-.2l-.3-1.2h0l-.1-.2-.1-.5v-.2l-.1-.1h0l-.2-.4-.4-1.2L198,39l-.6.2-2.2.5.1.2h0V40l.1.2.1.3v.1l.6-.1v.2l.1.4v.4l.1.2.4,1.6.1.1-.1.2v.1h.1v.2l.1.3v.2l.1.2v.1l-.5.1h0v.1l.1.4.2.4v.1l2.8-.7.3-.3.2-.4v-.3Zm-1.8.3-.4-1.7-.2-.6V42l-.3-1.3-.2-.4.8-.2.4,1.6.2.5h0l.1.2h0v.2l.2.5v.2l.2.7v.2Zm10.1-6.5h0l-.3-.3-.1-.2h-.1l-.1-.1-.8-.8v-.1h0l-.2-.1-.3-.3-.1-.2h-.1v-.1l-.4-.3-.9-.8h-.9l-.4.5-1.6,1.6.2.2h.1V37l.1.1.2.2.1.1.4-.4.1.2.3.3.2.3.2.1,1.2,1.2h.1v.2l.1.1h.1l.1.2.2.2h.1l.1.1.2.1v.1l-.4.4h0v.1l.3.3.4.3h.1l2-2,.1-.4v-.5ZM207,39.2l-1.3-1.3-.4-.4v-.1l-1-1-.4-.2.6-.6,1.2,1.1.4.3v.1l.2.1h0v.1l.1.1.4.3.1.1.6.5.1.1v.1ZM175.5,26.9h0c-.1,0-.2,0-.1.1s.1.1.1,0S175.6,26.9,175.5,26.9Zm.7-.2h-.3c0,.1.1.2.2.3C176.1,26.9,176.2,26.8,176.2,26.7Zm5.5,7.7-.2-.1v.1l-4.6,3.9.5.9.7-.5,4.1-3.4Zm-7-5.4h0c0-.1,0-.2-.1-.1s-.1.1,0,.1Zm0-1.3h0c-.1,0-.2,0-.1.1a.1.1,0,0,0,.1-.1Zm.3-.6c-.1,0-.2.2-.2.2s.2.1.3.1A1,1,0,0,0,175,27.1Zm-2.1-3.4a.2.2,0,1,0,.2.2C173.1,23.8,173.1,23.7,172.9,23.7Zm3.2,11.5h0l-.6-1.1h0V34h.2l.5-.2,1.4-.7V33l1.8-.8v-.1l.2-.1.4-.1-.4-.9-.2.1-.8.4L174,33.6l1.4,3,.9-.4-.2-1Zm.6-8.3h0c-.1,0-.2,0-.1.1s.1.1.1,0S176.8,26.9,176.7,26.9Zm.4.2c0,.1-.1.2-.1.3a1,1,0,0,0,.3-.1A.22.22,0,0,0,177.1,27.1Zm36-3.9a1.1,1.1,0,1,0-1.1,1.1A1.11,1.11,0,0,0,213.1,23.2Zm-1.4,0a.4.4,0,1,1,.4.4A.37.37,0,0,1,211.7,23.2Zm-2.9,6.5c0-.1.1-.2.1-.3a1,1,0,0,0-.3.1Zm1.6.1s.1.1.1,0,.1-.1,0-.1l-.1.1Zm-2.2-1.3c.1,0,.2-.1.3-.2-.1,0-.2-.1-.3-.2Zm1,1.3s.1.1.1,0,.1-.1,0-.1l-.1.1Zm.5.2h.3c0-.1-.1-.2-.2-.3A1,1,0,0,1,209.7,30Zm-1.2-2.3h0c-.1,0-.2,0-.1.1a.1.1,0,0,0,.1-.1C208.5,27.8,208.6,27.8,208.5,27.7ZM194.4,13.3c-.2.1-.3,1-.3,1,0,.3,0,.3.1.4s1.1-.3,1.1-.3c.2-.1.3-.1.2-.3,0,0,0-.2-.5-.6S194.4,13.3,194.4,13.3Zm.4.5c.2.2.3.3.4.3a2.61,2.61,0,0,1-.8.3c0-.2.1-.7.1-.9Q194.5,13.65,194.8,13.8ZM212,21.2a2,2,0,0,0-2,2,1.28,1.28,0,0,1-1.3,1.4,1.24,1.24,0,0,1-1.2-1.3,1.16,1.16,0,0,1,1.2-1.2.2.2,0,1,0,0-.4,1.69,1.69,0,0,0-1.7,1.7,1.75,1.75,0,0,0,1.7,1.7,1.69,1.69,0,0,0,1.7-1.9,1.5,1.5,0,1,1,3,0,1.56,1.56,0,0,1-1.5,1.6.2.2,0,0,0,0,.4,2,2,0,0,0,2-2A1.86,1.86,0,0,0,212,21.2Zm-3.2,5.9c-.1,0-.2.2-.2.2s.2.1.3.1A1,1,0,0,0,208.8,27.1Zm-.3,1.9h0c0-.1,0-.2-.1-.1s-.1.1,0,.1Zm2.8-1.2h0c0-.1,0-.2-.1-.1s-.1.1,0,.1Zm-.1,1.6c-.1,0-.2-.1-.3-.1a1,1,0,0,0,.1.3Zm.2-4.3a.2.2,0,1,0-.2.2A.22.22,0,0,0,211.4,25.1Zm-2.7,3.8a1.27,1.27,0,0,0,1.8.6,1.34,1.34,0,0,0,.5-1.9,1.31,1.31,0,0,0-1.7-.5A1.41,1.41,0,0,0,208.7,28.9Zm.7-1.4a.9.9,0,0,1,1.3.4,1,1,0,0,1-.4,1.4,1.11,1.11,0,0,1-1.4-.5A1,1,0,0,1,209.4,27.5Zm0-.6h0c-.1,0-.2,0-.1.1s.1.1.1,0Zm.6-.2h-.3c0,.1.1.2.2.3C209.9,26.9,210,26.8,210,26.7Zm.5.2h0c-.1,0-.2,0-.1.1s.1.1.1,0S210.6,26.9,210.5,26.9Zm.3.5a1,1,0,0,0,.3-.1c0-.1-.2-.2-.2-.2A1,1,0,0,0,210.8,27.4Zm.5,1.6h0c0-.1,0-.2-.1-.1s-.1.1,0,.1Zm-36.9-.5c.1,0,.2-.1.3-.2-.1,0-.2-.1-.3-.2Zm37.1-.3c-.1,0-.2.1-.3.2.1,0,.2.1.3.2ZM209,25.3a1.41,1.41,0,0,1-1.3-.3c-.1-.1-.2-.1-.2,0v.2a1.83,1.83,0,0,0,1.6.4c.1,0,.1-.1.1-.2A.35.35,0,0,0,209,25.3ZM184,13.1h.1a.1.1,0,0,0,.1-.1c0-.1,0-.2-.1-.2a9.29,9.29,0,0,1-1-.5c-.1,0-.2,0-.2.1s0,.2.1.2A4.67,4.67,0,0,1,184,13.1Zm-9,16.6c0-.1.1-.2.1-.3a1,1,0,0,0-.3.1ZM186.1,13a.37.37,0,0,0-.1.3.37.37,0,0,0,.3.1c.1,0,.1-.2.1-.3A.37.37,0,0,0,186.1,13Zm-.3,6.9a1.59,1.59,0,0,1,.5-1,1.77,1.77,0,0,1,1.9-.6h0a6.66,6.66,0,0,0-1.8-2.5.28.28,0,1,0-.4.4,2.76,2.76,0,0,1,.6.6,4.88,4.88,0,0,0-.7-.3,5.13,5.13,0,0,0-1.6-.3.3.3,0,0,0,0,.6h0a5.1,5.1,0,0,1,2.3.6,12.27,12.27,0,0,0-2.1-.5,5.2,5.2,0,0,0-1.5.2c-.1,0-.2.2-.2.3s.2.2.3.2a5.42,5.42,0,0,1,2.9.1,4.42,4.42,0,0,0-3.4.9.3.3,0,0,0,0,.4c.1.1.1.1.2.1s.1,0,.2-.1a3.17,3.17,0,0,1,2.5-.8,4.11,4.11,0,0,0-2.1,1.3.3.3,0,0,0,0,.4.35.35,0,0,0,.2.1c.1,0,.2,0,.2-.1a4.25,4.25,0,0,1,1.6-1.1,2.34,2.34,0,0,0-.7.7,5.66,5.66,0,0,0-.6,1.2c0,.1,0,.3.2.3h.1c.1,0,.2-.1.3-.2a4,4,0,0,1,.6-1.1.35.35,0,0,1-.1.2,1.57,1.57,0,0,0-.1.9c0,.1.1.2.3.2h0c.1,0,.3-.1.2-.3a2.14,2.14,0,0,1,.1-.6A.31.31,0,0,1,185.8,19.9Zm-2.5-5c.1.1.2.2.4.1h0c.1-.1.2-.3.1-.4-.7-1.1-1.7-2.9-2.4-4.2.5.3,1.1.7,1.6,1,2.2,1.2,2.6,1.1,2.7,1s.5-.3.7-2.7a13.4,13.4,0,0,0,.1-2c.9,1.5,1.9,3.4,2.4,4.4.1.1.2.2.4.1h0c.1-.1.2-.2.1-.4-.6-1.2-2.1-4-3-5.5-.1-.1-.3-.2-.4-.1a.1.1,0,0,1-.1.1.37.37,0,0,0-.1.3,17.46,17.46,0,0,1-.4,5.2,15.9,15.9,0,0,1-4.5-2.6c-.1-.2-.2-.2-.4-.2h-.1c-.1.1-.2.2-.1.4C180.9,10.6,182.4,13.4,183.3,14.9Zm-5.9,0c.1-.1,0-.2-.1-.3s-.2,0-.3.1,0,.2.1.3A.37.37,0,0,0,177.4,14.9Zm9.8-3.4.1-.1c.1-.3.1-.7.2-1.2,0-.1,0-.2-.1-.2s-.2,0-.2.1c-.1.5-.1.8-.2,1.1s0,.3.2.3Zm-2.7-.7a.42.42,0,0,0,.6-.3c.1-.9.2-2.1.2-3,0-.3-.2-.4-.5-.3s-.9.4-1.5.7a9.88,9.88,0,0,0-1.5.9.37.37,0,0,0,0,.6C182.6,9.8,183.7,10.5,184.5,10.8Zm-1.3-2c.2-.1.3-.2.5-.3s.3-.2.5-.2.4,0,.4.3a2.77,2.77,0,0,1-.1.9.34.34,0,0,1-.5.3c-.3-.1-.5-.3-.8-.4S183,8.9,183.2,8.8Zm-5,9.2.4-.6h0v-.2h-.2l-.4.6V18Zm1.4-2.7c.1-.1,0-.2-.1-.3s-.2,0-.3.1,0,.2.1.3S179.6,15.4,179.6,15.3Zm-1.2.5c.1-.1,0-.2-.1-.3s-.2,0-.3.1,0,.2.1.3A.37.37,0,0,0,178.4,15.8Zm13.8-9.2a.2.2,0,1,0-.2-.2C191.9,6.5,192,6.6,192.2,6.6Zm-.1,1a.2.2,0,1,0,.2-.2A.22.22,0,0,0,192.1,7.6Zm.1,1.2a.2.2,0,1,0,.2-.2A.22.22,0,0,0,192.2,8.8Zm-1.5,1a.2.2,0,1,0,.2-.2A.22.22,0,0,0,190.7,9.8Zm1.7.2a.2.2,0,1,0,.2-.2C192.4,9.8,192.4,9.9,192.4,10Zm-2-2.6a.2.2,0,1,0,.2-.2A.22.22,0,0,0,190.4,7.4Zm.2,1.2a.2.2,0,1,0,.2-.2C190.6,8.4,190.5,8.5,190.6,8.6Zm.1-2.5a.2.2,0,1,0-.2.2C190.6,6.4,190.7,6.3,190.7,6.1Zm-.5,4.5c.2.5.4,1.1.8,1.1,2.7-.3,3.3-1.2,3.4-2a2,2,0,0,0-1-1.8,1.74,1.74,0,0,0,.4-1.8c-.3-.7-1.1-1.4-3.7-1.1-.4.1-.5.7-.5,1.3a17.73,17.73,0,0,0,.1,2.2C189.9,9.3,190,10.1,190.2,10.6Zm3.2-4.3a1.2,1.2,0,0,1-.6,1.4.37.37,0,0,0-.1.3.22.22,0,0,0,.2.2,1.38,1.38,0,0,1,1,1.4q-.15.75-1.5,1.2l-.7-.5.4-.5V9.7a.1.1,0,0,0-.1-.1l-.5-.4.4-.5V8.6a.1.1,0,0,0-.1-.1l-.5-.4.4-.5V7.5a.1.1,0,0,0-.1-.1l-.5-.4.4-.5a.14.14,0,0,0,0-.2l-.5-.4C192.4,5.5,193.2,5.7,193.4,6.3Zm-3.1-.8h.4l.7.5-.4.5v.1a.1.1,0,0,0,.1.1l.5.4-.4.5v.1a.1.1,0,0,0,.1.1l.5.4-.6.8v.1a.1.1,0,0,0,.1.1l.5.4-.4.5v.1a.1.1,0,0,0,.1.1l.6.5a2,2,0,0,1-.8.1v-.1a.22.22,0,0,0-.2-.2c-.1,0-.1.1-.2.2a8.62,8.62,0,0,1-.5-1.9A9.85,9.85,0,0,1,190.3,5.5Zm-6.2,3.8c.1-.1.2-.2.1-.4s-.2-.2-.4-.1-.2.2-.1.4A.25.25,0,0,0,184.1,9.3Zm2.7-.2a.35.35,0,0,0-.2.1c-.1,1-.2,3-.8,3.3s-1.9-.4-3.2-1.2c-.1,0-.2,0-.2.1s0,.2.1.2c1.5.9,2.8,1.6,3.5,1.2s.8-1.6,1-3.6A.35.35,0,0,0,186.8,9.1Zm-9.3,18.7h0c0-.1,0-.2-.1-.1s-.1.1,0,.1Zm-1.7,0a.52.52,0,0,0-.3.7.63.63,0,0,0,.8.3.52.52,0,0,0,.2-.8A.57.57,0,0,0,175.8,27.8Zm.3.7c-.1,0-.1,0-.2-.1s0-.1.1-.2h.2A.37.37,0,0,1,176.1,28.5Zm1.1-.9a1.31,1.31,0,0,0-1.7-.5,1.29,1.29,0,0,0-.6,1.7,1.27,1.27,0,0,0,1.8.6A1.31,1.31,0,0,0,177.2,27.6Zm-.7,1.7a1,1,0,0,1-1.4-.5,1,1,0,0,1,.5-1.3.9.9,0,0,1,1.3.4A1,1,0,0,1,176.5,29.3Zm1-.3h0c0-.1,0-.2-.1-.1s-.1.1,0,.1Zm.2-.8c-.1,0-.2.1-.3.2.1,0,.2.1.3.2Zm-1.1,1.6s.1.1.1,0,.1-.1,0-.1l-.1.1Zm.7-.4c-.1,0-.2-.1-.3-.1a1,1,0,0,0,.1.3A.22.22,0,0,0,177.3,29.4Zm-1.9.4s.1.1.1,0,.1-.1,0-.1l-.1.1Zm.5.2h.3c0-.1-.1-.2-.2-.3A1,1,0,0,1,175.9,30Zm-1.7-7.9a4.48,4.48,0,0,0,1.6.3,4.93,4.93,0,0,0,1.6.1,4.48,4.48,0,0,0-1.6-.3C174.9,22,174.2,22,174.2,22.1Zm4-2.3a.1.1,0,0,0,.1-.1l-.1-.1a.1.1,0,0,0,0,.2Zm.9,1.9v-.2h-.2v.2C178.9,21.8,179.1,21.8,179.1,21.7Zm-.1-1.5a.1.1,0,0,0-.1-.1l-.1.1.1.1A.1.1,0,0,0,179,20.2Zm-.5-.4a.1.1,0,0,0-.1.1l.1.1.1-.1Zm3.1-3.9c-.1.1,0,.2.1.3s.2,0,.3-.1,0-.2-.1-.3S181.7,15.8,181.6,15.9Zm-2.3,1.9-.6.8v.2h.2l.6-.8h0v-.2Zm-2,.8c-.1-.1-.2,0-.3.1s0,.2.1.3.2,0,.3-.1A.37.37,0,0,0,177.3,18.6Zm1.1,2.8v.2h.2c.1,0,0-.1,0-.2A.14.14,0,0,0,178.4,21.4Zm.5,2.5h0a.27.27,0,0,0-.3-.3,20.25,20.25,0,0,1-5.9-.7c0-.3.1-.6.1-.8v.1c0,.2.1.5.6.6a16.66,16.66,0,0,0,4.4.6.58.58,0,0,0,.6-.6h0a.67.67,0,0,0-.4-.7,19.39,19.39,0,0,0-4.3-.6.54.54,0,0,0-.5.5.62.62,0,0,0,.4.6,28.32,28.32,0,0,0,4.2.6.37.37,0,0,0,.4-.4c0-.2-.1-.5-.3-.5a19.83,19.83,0,0,0-3.9-.5c-.2,0-.3.1-.4.3s.1.3.3.4a16.52,16.52,0,0,0,3.8.5h.1v-.1a16.52,16.52,0,0,1-3.8-.5.2.2,0,0,1,0-.4,34.74,34.74,0,0,1,3.9.5c.2,0,.2.2.2.4a.32.32,0,0,1-.3.3,14,14,0,0,1-4.1-.6.55.55,0,0,1-.3-.5.43.43,0,0,1,.4-.4,20.26,20.26,0,0,1,4.3.6.45.45,0,0,1,.3.6h0a.47.47,0,0,1-.5.5,16.66,16.66,0,0,1-4.4-.6c-.4-.1-.5-.3-.5-.5a.85.85,0,0,1,.2-.6v-.1h-.1a1.38,1.38,0,0,0-.3.4c.1-.5.2-1.1.3-1.6h0c0-.1-.1-.3-.2-.3s-.3,0-.4.2a30.05,30.05,0,0,0-.7,4.7.3.3,0,0,0,.6,0,12.53,12.53,0,0,1,.1-1.4,20.91,20.91,0,0,0,6,.7Zm-1.1-2.6v.2c0,.1.1,0,.2,0v-.2C177.9,21.2,177.9,21.2,177.8,21.3Zm-.5-1.9a.29.29,0,0,0,.5.3,2.22,2.22,0,0,1,.4-.5,5.3,5.3,0,0,0,1.2,1,.29.29,0,1,0,.3-.5,10.59,10.59,0,0,1-1.2-1c.5-.6,1.1-1.5,1.7-2.3,0,.1,0,.1.1.2s.2,0,.3-.1,0-.2-.1-.3h-.2a2.18,2.18,0,0,1,.4-.5l.5,1.4c0,.1.1.1.2.1a.1.1,0,0,0,.1-.1V17l-.6-1.6.1-.1a5.39,5.39,0,0,1,1.3.7.29.29,0,1,0,.3-.5,6,6,0,0,0-1.6-.8h0c-2.1-.9-4.7-1.4-5.3-.5s.6,3,2.1,4.6C177.5,19.1,177.3,19.3,177.3,19.4Zm1.2-4.9a7,7,0,0,1,1.9.6,2.19,2.19,0,0,0-.3.5l-.9.5-.7-1.4v-.2c-.1,0-.2,0-.2.1l-1.2,1-.8-1.1-.1-.1A4.58,4.58,0,0,1,178.5,14.5Zm-2.4.1h0l.8,1.3.1.1h.1l1.2-1,.6,1.3.1.1h.1l.4-.3a21,21,0,0,1-1.6,2.2C176.9,16.9,176,15.2,176.1,14.6Z"/><path class="cls-1" d="M189.45,174.5a15,15,0,1,0,15,15A15,15,0,0,0,189.45,174.5Z"/><path class="cls-2" d="M196.45,191l-10.6,6.1a1.51,1.51,0,0,1-2.2-1.3V183.2a1.51,1.51,0,0,1,2.2-1.3l10.6,6.5A1.5,1.5,0,0,1,196.45,191Z"/></svg>