<svg xmlns="http://www.w3.org/2000/svg" viewBox="0 0 219.1 219"><defs><style>.cls-1{fill:#be1b2e;}.cls-2{fill:#fff;}</style></defs><title>moldura_forroparatodos</title><g id="Camada_1" data-name="Camada 1"><path class="cls-1" d="M208.9,0H10.1A10.05,10.05,0,0,0,0,10V209a10,10,0,0,0,10.1,10H209a10.05,10.05,0,0,0,10.1-10V10.1A10.22,10.22,0,0,0,208.9,0ZM215,208.9a6,6,0,0,1-6,6H67L54,194.7a11.53,11.53,0,0,0-7-5l-43-10V10.1a6,6,0,0,1,6-6H124.3L143.5,34a16.49,16.49,0,0,0,9.9,7L215,55.3Z" transform="translate(0 0)"/><path class="cls-1" d="M189.4,174.5a15,15,0,1,0,15,15,15,15,0,0,0-15-15Z" transform="translate(0 0)"/></g><g id="play"><path class="cls-2" d="M196.4,191l-10.6,6.1a1.62,1.62,0,0,1-2.2-1.3V183.2a1.56,1.56,0,0,1,1.6-1.5,1.42,1.42,0,0,1,.6.2l10.6,6.5a1.49,1.49,0,0,1,.6,2A.9.9,0,0,1,196.4,191Z" transform="translate(0 0)"/></g><g id="Camada_5" data-name="Camada 5"><path class="cls-2" d="M190.34,21.66c-.67-.81-1.36-1.62-2.14-2.54l.65-.08c.76-.09,1.53-.15,2.28-.25.5-.07.65-.36.5-.82-.09-.31-.17-.63-.28-.94-.44-1.3-.9-2.59-1.36-3.88,0-.1-.2-.24-.29-.23l-3.66.21a.46.46,0,0,0-.48.48c-.12.86-.24,1.71-.35,2.57-.18,1.42-.37,2.83-.51,4.26-.1.87,0,1,.74,1.18.88.22.93.18,1.06-.75.06-.42.16-.84.27-1.36.77.94,1.43,1.78,2.12,2.59s1.42,1.61,2.23,2.52a2.52,2.52,0,0,1,.39-.48c.4-.26.33-.54.09-.85C191.18,22.74,190.77,22.19,190.34,21.66Zm-3.19-7.34,2.4-.17c0,1.06,0,2.1.07,3.17L187,17.2C187.06,16.26,187.1,15.33,187.15,14.32ZM211.88,13l-4.7-.12a.79.79,0,0,0-.8.76l-.48,18.59a.77.77,0,0,0,.75.8l4.65.12a.79.79,0,0,0,.8-.75l.53-18.61A.76.76,0,0,0,211.88,13ZM209.1,28.44a.78.78,0,1,1,0-1.55.78.78,0,0,1,0,1.55Zm.08-3.1a.78.78,0,1,1,0-1.55.78.78,0,0,1,0,1.55Zm.08-3.1a.76.76,0,0,1-.75-.79.77.77,0,0,1,.79-.76.78.78,0,1,1,0,1.55Zm.08-3.1a.78.78,0,0,1,0-1.55.78.78,0,1,1,0,1.55Zm-41.53,8.17a.26.26,0,0,0-.15-.2,2.5,2.5,0,0,0-.4,0h-.07l-.23.05a4.28,4.28,0,0,0-.33.81c0,.14-.19.6-.45,1.37s-.35,1.06-.35,1.08a.25.25,0,0,1,0,.07v.07a.12.12,0,0,0,0,.11.44.44,0,0,0,.25.06h.36s.06-.05.08-.15l.35-1.09a.12.12,0,0,1,.1-.08h.62a1,1,0,0,1,.34,0c.05,0,.07.21.07.59v0l0,.1,0,.07a1.28,1.28,0,0,1,.07.4s.07,0,.14,0l.31,0,.35,0,.05,0a.4.4,0,0,0,0-.24C168.22,28.38,167.84,27.38,167.81,27.31Zm-.42,1.74c-.3,0-.46,0-.47-.05s.05-.19.08-.3.11-.4.2-.66.18-.5.2-.45,0,.14.07.28a1.82,1.82,0,0,0,.06.24s.06.13.14.34l.13.35.09.18Zm-15.5-1.45-4.86.63.15,1.21a.82.82,0,0,0,.92.71l4.05-.52ZM151.43,24l-4.87.62.27,2,4.86-.63ZM151,20.31l-4.87.63.26,2,4.87-.63Zm-.48-3.65-4.11.52a.82.82,0,0,0-.7.92l.21,1.21,4.86-.62Zm1.91-4.36-4.92.62a.81.81,0,0,0-.7.91l.21,1.63,4.1-.52a.81.81,0,0,1,.92.7l1.88,14.59a.81.81,0,0,1-.71.91l-4,.53.21,1.62a.82.82,0,0,0,.91.7l4.87-.62a.82.82,0,0,0,.7-.92L153.3,13A.8.8,0,0,0,152.39,12.3Zm14.62,9c.61,0,.83-.3.82-.91s-.06-1.13-.12-1.69c0-.08-.16-.2-.25-.21a11.23,11.23,0,0,0-1.42.05c-1.25.17-2.48.38-3.73.55-.11,0-.35-.16-.35-.24,0-1.09.09-2.18.14-3.35l3.25-.2,3.82-.25c.55-.05.73-.27.7-.83s-.06-1-.09-1.52-.17-.63-.71-.55l-9.95,1.45a1.79,1.79,0,0,0-.59.2c-.49.29-.21.73-.15,1.09.46,2.46,1.06,4.9,1.39,7.37.35,2.64.46,5.63.66,8.28,0,.32.09.52.46.56.72.08.84,0,.89-.71.11-1.53.18-3.38.23-4.92.05-1.32,0-2.64,0-4l1.57-.07C164.75,21.38,165.88,21.37,167,21.31Zm-11.95-7.46,2.25,17.43c.33,0,.65,0,1-.06l-1.06-17.81A21.17,21.17,0,0,0,155.06,13.85Zm10.47,13.43A4.58,4.58,0,0,0,164,27.2l-.26,0c-.14,0-.21.07-.22.13s0,.7,0,1.54c0,.18,0,.44.07.78s.06.54.07.61,0,.14-.05.32a.14.14,0,0,0,0,.09s0,.05.09.05h.56c.05,0,.06-.05,0-.15s0-.27-.06-.37,0-.13,0-.23a.86.86,0,0,0,0-.19v-.42a3.53,3.53,0,0,0,1-.29,1.38,1.38,0,0,0,1-1.34C166.13,27.55,165.92,27.39,165.53,27.28Zm-.18,1.25a1.11,1.11,0,0,1-.38.24l-.42.17c-.28.1-.42.13-.42.08,0-.52-.07-.82-.07-.92s0-.29,0-.59c0,0,.06,0,.21,0a4.57,4.57,0,0,1,.5,0q.74.09.81.3A.63.63,0,0,1,165.35,28.53Zm35.83-13.46c-.05-.48-.25-.74-.74-.79s-1.29-.09-1.93-.2c-1.47-.27-2.94-.59-4.41-.88-.37-.07-.59,0-.62.47-.07,1-.22,2-.23,3,0,3.1,0,6.2,0,9.3,0,.78,0,2.77.07,3.62.37-.08,8.08-1.15,8.08-1.15,1.17-.16.45-3.69.32-5C201.48,21.35,201.37,17.17,201.18,15.07Zm-5.1,11.38c-.19-3.26-.33-7.59-.52-10.85,1,.05,2,.07,3,.17a.8.8,0,0,1,.51.56c.3,2.4.55,4.81.82,7.21.06.54.1,2.17.2,2.82Zm-10.42-3.94a7.24,7.24,0,0,0-1-.49c-1.37-.56-2.75-1.11-4.15-1.66a3.37,3.37,0,0,1,.37-.29L184.28,18a.62.62,0,0,0,.35-.72c-.09-.61-.12-1.23-.2-1.84-.12-1-.26-2-.38-3-1.86.42-3.63.85-5.41,1.19-.49.1-.68.3-.73.73,0,.15,0,.3,0,.44,0,2.12,0,4.24,0,6.36,0,1.33.06,2.65.1,4,0,.4.18.51.57.37a1.31,1.31,0,0,1,.62-.06c.52.1.68-.2.73-.62s.11-.65.13-1,0-.77.07-1.26c.66.31,1.21.58,1.77.81,1,.42,2.08.83,3.13,1.21a1,1,0,0,0,.74,0A1.34,1.34,0,0,0,185.66,22.51Zm-5.63-4c-.12-1.35-.22-2.58-.33-3.85.48,0,1,0,1.44,0,.09,0,.2.14.25.24.25.49.49,1,.7,1.48a.53.53,0,0,1,0,.48C181.42,17.44,180.76,18,180,18.54ZM201.94,9c-1.26,1-2.48,2-3.67,3-.1.08-.06.44,0,.61s.36.75.81.49A13.74,13.74,0,0,0,203,10ZM187.85,26.48a1.32,1.32,0,0,0-.83-.19h-.12a1.35,1.35,0,0,0-.77.27,1.53,1.53,0,0,0-.43.57,3,3,0,0,0-.06,1.71,1.42,1.42,0,0,0,.26.5,1.47,1.47,0,0,0,1.17.52h.12a1.43,1.43,0,0,0,1.12-.61,1.22,1.22,0,0,0,.22-.52,3,3,0,0,0-.2-1.7A1.6,1.6,0,0,0,187.85,26.48Zm-.08,2.41a.93.93,0,0,1-.65.78.94.94,0,0,1-.71-.73,3.36,3.36,0,0,1-.11-1,2.39,2.39,0,0,1,.22-1,1,1,0,0,1,.39-.43.12.12,0,0,1,.14,0,1.07,1.07,0,0,1,.44.41,2.18,2.18,0,0,1,.31,1A3.32,3.32,0,0,1,187.77,28.89Zm-3-1.9a1.43,1.43,0,0,0-.83-.5,5.55,5.55,0,0,0-1.08,0l-.26,0c-.13,0-.2.07-.21.13a12.76,12.76,0,0,0,0,1.54c0,.18,0,.44.07.77s.06.55.06.61a1.63,1.63,0,0,1-.05.32.17.17,0,0,0,0,.1.19.19,0,0,0,.1.05,6.23,6.23,0,0,0,.73,0,5.86,5.86,0,0,0,.8-.08,1.8,1.8,0,0,0,.71-.29,1,1,0,0,0,.43-.56,2.72,2.72,0,0,0-.09-1.15A2.45,2.45,0,0,0,184.82,27Zm-.47,2.33a1.57,1.57,0,0,1-.45.25,1,1,0,0,1-.43.1c-.17,0-.26-.19-.27-.53,0-.1,0-.22,0-.38s-.05-.31-.06-.37,0-.31,0-1l0-.51s0-.06.14-.08h.22l.39,0a.85.85,0,0,1,.56.42,3.46,3.46,0,0,1,.28.54l0,0a2.17,2.17,0,0,1,.11.78A1.12,1.12,0,0,1,184.35,29.32Zm5.83-1.5a1.12,1.12,0,0,1-.53-.12.5.5,0,0,1-.19-.55,1.45,1.45,0,0,1,.12-.35,1,1,0,0,1,.3-.34,1.2,1.2,0,0,1,.57-.15.9.9,0,0,1,.66.2.25.25,0,0,0-.12,0,.24.24,0,0,0-.22.12.18.18,0,0,0,0,.23A.42.42,0,0,0,191,27a.4.4,0,0,0,.19,0,.56.56,0,0,0,.19-.09.23.23,0,0,0,0-.37,1.18,1.18,0,0,0-.31-.21,1.65,1.65,0,0,0-.91-.16,1.62,1.62,0,0,0-1.42.86.5.5,0,0,0,0,.3.87.87,0,0,0,.5.58,2.67,2.67,0,0,0,.58.18l.56.1a.79.79,0,0,1,.4.21.57.57,0,0,1,.07.48c-.08.42-.41.66-1,.72a1,1,0,0,1-.51-.07.55.55,0,0,1-.17-.1.43.43,0,0,0,.34-.19.36.36,0,0,0,0-.25.31.31,0,0,0-.17-.2.63.63,0,0,0-.28-.08.77.77,0,0,0-.27.07.41.41,0,0,0-.21.2.29.29,0,0,0,0,.2.72.72,0,0,0,.21.29,1.7,1.7,0,0,0,1.26.27,1.64,1.64,0,0,0,1.22-.58,1.2,1.2,0,0,0,.24-.5.39.39,0,0,0,0-.4C191.4,28,190.93,27.83,190.18,27.82Zm13.52,3.42.67,0,.44-16.77a17.79,17.79,0,0,0-2.19-.14Zm-26.32-16a.64.64,0,0,0-.5-.77l-5.38-1.63c-.2.55-.41,1-.58,1.57-.8,2.46-1.6,4.92-2.38,7.39a.64.64,0,0,0,.05.49c.32.46.65.9,1,1.33a.69.69,0,0,0,.44.22l4.59-.06c1.26,0,1.94,0,2.07-1.67C176.89,19.8,177.14,17.51,177.38,15.22ZM173.89,22c0,.16-.2.43-.32.44-.91,0-1.83,0-2.74,0a.85.85,0,0,1-.25-.09c.24-1,.47-2,.71-3,.3-1.23.62-2.47.92-3.71.06-.27.17-.39.46-.35s.79,0,1.27.06c0,1.35,0,2.65,0,3.95C174,20.24,173.94,21.13,173.89,22Zm-2.18,8.29a3.5,3.5,0,0,0-.33-.48,3.11,3.11,0,0,1-.2-.3l-.15-.26-.22-.34c.68-.32,1-.76,1-1.34,0-.21-.21-.37-.61-.48A4.75,4.75,0,0,0,169.6,27l-.26,0c-.14,0-.21.07-.22.13s0,.7,0,1.54c0,.18,0,.44.07.78s.06.54.07.61,0,.12,0,.34,0,.14.07.14h.56s.06-.05,0-.15a2.78,2.78,0,0,0-.05-.37q0-.08,0-.24a.83.83,0,0,0,0-.18s0-.18,0-.42a2.45,2.45,0,0,0,.46-.09l.11,0a2.36,2.36,0,0,1,.13.32s.07.12.16.25a1.87,1.87,0,0,0,.14.21l.11.19a1.32,1.32,0,0,1,.18.41.12.12,0,0,0,0,0h.74s0,0,0,0A.88.88,0,0,1,171.71,30.29Zm-1-1.84-.45.17c-.3.1-.44.13-.44.08-.05-.5-.07-.79-.08-.88v-.57s.06,0,.22,0l.53,0c.52.06.81.15.86.29a.58.58,0,0,1-.24.69A1.44,1.44,0,0,1,170.67,28.45Zm3.42-1.39a.22.22,0,0,0-.15-.2,1.38,1.38,0,0,0-.4,0h-.07l-.23.05a4.28,4.28,0,0,0-.33.81c0,.14-.19.59-.45,1.36s-.35,1.07-.35,1.09a.35.35,0,0,0,0,.06l0,.07a.12.12,0,0,0,0,.12.33.33,0,0,0,.24.05h.36s.06-.05.08-.15l.35-1.09a.13.13,0,0,1,.1-.07h.3a1.58,1.58,0,0,0,.33,0,.92.92,0,0,1,.33,0c.05,0,.07.21.07.59v0l0,.1,0,.07a1.13,1.13,0,0,1,.07.39.18.18,0,0,0,.14,0l.31,0,.35,0,.05,0a.43.43,0,0,0,0-.25C174.5,28.12,174.13,27.12,174.09,27.06Zm-.41,1.73c-.31,0-.47,0-.48-.05s.05-.19.08-.3.11-.4.2-.66.18-.49.2-.44,0,.13.07.28a1.32,1.32,0,0,0,.07.23l.13.35c.08.21.13.32.14.34a1.12,1.12,0,0,0,.08.18A3.93,3.93,0,0,1,173.68,28.79Zm7.69-2.05a1.37,1.37,0,0,0-.83-.19h-.11a1.54,1.54,0,0,0-.78.27,1.63,1.63,0,0,0-.42.57,2.91,2.91,0,0,0-.06,1.71,1.15,1.15,0,0,0,.26.5,1.41,1.41,0,0,0,1.16.52h.13a1.38,1.38,0,0,0,1.11-.6,1.14,1.14,0,0,0,.22-.53,2.85,2.85,0,0,0-.2-1.69A1.55,1.55,0,0,0,181.37,26.74Zm-.08,2.41a.68.68,0,1,1-1.35.05,2.79,2.79,0,0,1-.11-1,2.28,2.28,0,0,1,.22-1,1.09,1.09,0,0,1,.38-.43.13.13,0,0,1,.15,0,1,1,0,0,1,.44.4,2.22,2.22,0,0,1,.3,1A2.79,2.79,0,0,1,181.29,29.15Zm-3.09-.44c0-.36,0-.65,0-.84a4.74,4.74,0,0,1,0-.55c0-.14,0-.26,0-.37a7.37,7.37,0,0,0,1.07,0h0s.05,0,.06-.1a.16.16,0,0,0,0-.17h-.2c-.32,0-.87,0-1.09,0a2.17,2.17,0,0,0-.54.05l-1,0a.07.07,0,0,0-.06.07.26.26,0,0,0,0,.12.19.19,0,0,0,0,.09s.56,0,1.07,0c0,.61,0,1,0,1.21a7.85,7.85,0,0,0,0,1.09,5,5,0,0,1,0,.73.67.67,0,0,1-.05.12s0,.06.07.06H178c.14,0,.23,0,.25-.07a.51.51,0,0,0,0-.29,2.36,2.36,0,0,0,0-.31C178.2,29.14,178.2,28.86,178.2,28.71Z" transform="translate(0 0)"/></g></svg>