<svg xmlns="http://www.w3.org/2000/svg" viewBox="0 0 219.1 219"><defs><style>.cls-1{fill:#be1b2e;}.cls-2{fill:#fff;}</style></defs><title>moldura_samba</title><g id="Camada_1" data-name="Camada 1"><path class="cls-1" d="M208.9,0H10.1A10.051,10.051,0,0,0,0,10V209a9.9875,9.9875,0,0,0,10.1,10H209a10.051,10.051,0,0,0,10.1-10V10.1A10.2221,10.2221,0,0,0,208.9,0ZM215,208.9a6.0176,6.0176,0,0,1-6,6H67L54,194.7a11.5258,11.5258,0,0,0-7-5l-43-10V10.1a6.0176,6.0176,0,0,1,6-6H124.3L143.5,34a16.4853,16.4853,0,0,0,9.9,7L215,55.3Z" transform="translate(0 0)"/><path class="cls-1" d="M189.4,174.5a15,15,0,1,0,15,15,14.98,14.98,0,0,0-15-15Z" transform="translate(0 0)"/></g><g id="play"><path class="cls-2" d="M196.4,191l-10.6,6.1a1.6154,1.6154,0,0,1-2.2-1.3V183.2a1.5605,1.5605,0,0,1,1.6-1.5,1.4213,1.4213,0,0,1,.6.2l10.6,6.5a1.4887,1.4887,0,0,1,.6,2A.9016.9016,0,0,1,196.4,191Z" transform="translate(0 0)"/></g><g id="Camada_8" data-name="Camada 8"><path class="cls-2" d="M159.62,34.6537a5.0885,5.0885,0,0,0-.4181-1.6523c-.1808-.4755-.3534-.9646-.52-1.4378-.3357-.9506-.6827-1.9336-1.1184-2.8718q-.1866-.4021-.37-.8059a26.9552,26.9552,0,0,0-1.9892-3.8076c-.0792-.1445-.1571-.29-.2351-.4348a10.8134,10.8134,0,0,0-1.4468-2.23,2.3764,2.3764,0,0,0-.77-1.2751.6792.6792,0,0,1-.3158-.4111.766.766,0,0,1,.2139-.5176c.1779-.0673.3513-.1452.5195-.2207a3.355,3.355,0,0,1,1.3043-.3867.5523.5523,0,0,0,.3722-.2262l.0349-.0371.0393-.0061a.5357.5357,0,0,0,.135.0175.7478.7478,0,0,0,.4227-.1641c.0249-.0168.05-.0338.0758-.0494a1.0236,1.0236,0,0,1,.5561-.1541,1.8722,1.8722,0,0,1,.4138.0524c-.0495.0443-.0979.0881-.1459.1314a5.6432,5.6432,0,0,1-.9275.7312c-1.2817.7458-1.6305,1.4642-1.244,2.5623.1485.4221.3358.8127.6972.8127.2254,0,.4518-.1592.7567-.5322a8.6032,8.6032,0,0,1,2.8524-2.3638c.6619-.3314.9766-.5359,1.0913-.8714.117-.3419-.0163-.7262-.2619-1.376a1.0081,1.0081,0,0,1-.0427-.2314l-.0083-.0713a1.0751,1.0751,0,0,0-.7818-.93,3.9519,3.9519,0,0,0-1.34-.2391,4.5678,4.5678,0,0,0-2.1364.573l-.2373.021q-.0694-.0045-.1378-.0045a3.8128,3.8128,0,0,0-1.2786.2886,4.3838,4.3838,0,0,1-.8652.2421,4.1152,4.1152,0,0,0-2.4572,1.4126,1.0684,1.0684,0,0,0-.0911,1.5414,2.2769,2.2769,0,0,0,.7591.9934l2.7432,4.5813.0627.1372q.2.4152.3959.8321c.305.6445.62,1.3109.9529,1.9568a5.038,5.038,0,0,1,.26.6481,3.2247,3.2247,0,0,0,.612,1.1824c.009.0383.0176.0766.0262.115a3.6118,3.6118,0,0,0,.1043.3949c.1464.4238.3144.8457.477,1.2536a12.9423,12.9423,0,0,1,.8611,2.7362.719.719,0,0,0,.0236.2961.7465.7465,0,0,1,.0194.1038l-.0067.0035a.06.06,0,0,1-.0269.0076.4753.4753,0,0,1-.1759-.1063,1.506,1.506,0,0,0-.1622-.1147,10.38,10.38,0,0,1-3.0736-3.2292c-.2176-.3062-.4427-.6227-.6726-.9282a7.1945,7.1945,0,0,1-.5735-.9546,5.1436,5.1436,0,0,0-1.0306-1.4756,9.3261,9.3261,0,0,0-.5332-1.9069,10.725,10.725,0,0,1-.464-1.5287c-.04-.2028-.184-.4445-.6444-.4445-.0323,0-.0645.001-.0966.0028a.587.587,0,0,0-.5876.5432c-.0121.1344-.0282.2694-.0444.4045a3.1859,3.1859,0,0,0,.2051,2.0182,10.0247,10.0247,0,0,1,.47,1.0454,7.1071,7.1071,0,0,0,.788,1.5615,9.7721,9.7721,0,0,1,.7088,1.2018,6.4723,6.4723,0,0,0,1.3239,1.9056,5.48,5.48,0,0,0,.5916.8779,6.5306,6.5306,0,0,0,2.9951,2.4917,3.6,3.6,0,0,0,1.1452.1573c.22,0,.4421-.0111.6571-.0217.21-.0105.4264-.0212.6356-.0212q.0588,0,.1176.0012c.0436.0009.0939.0042.1473.0077.0784.0049.1673.0107.2532.0107a.6362.6362,0,0,0,.4755-.1464.3449.3449,0,0,0,.09-.2667,1.2674,1.2674,0,0,1,.0561-.3619A.9186.9186,0,0,0,159.62,34.6537Zm-7.8436-15.7195v0l.0526-.0362Zm.0528-.0367.011-.0074Z" transform="translate(0 0)"/><path class="cls-2" d="M179.9477,18.1337c.0492-.0232.133-.0626.2882-.13a.4439.4439,0,0,1,.1735-.0441.0932.0932,0,0,1,.079.0279c.016.0177.0665.0912.0458.2922-.0066.0644-.0155.13-.0251.195l-.0675-.0345-.0255.3337c-.0016.0184-.0032.0369-.0036.0557l-.0953,4.0731c-.0037.1152-.0158.2329-.0287.3574a1.3684,1.3684,0,0,0,.6208,1.5886.7106.7106,0,0,0-.103.1029c-.2757.36-.4359.6527-.3223.9124.1195.2733.4843.3433.8607.3782.3293.0306.6632.0488.9861.0663a11.9469,11.9469,0,0,1,2.0447.23l.0164.0031a.7847.7847,0,0,0,.1165.0088,1.2146,1.2146,0,0,0,.5162-.1453,1.0144,1.0144,0,0,1,.3548-.1149c.18-.01.3745-.0153.5952-.0153.2483,0,.5031.0063.7494.0124.2492.0062.5069.0128.761.0128a5.5789,5.5789,0,0,0,2.794-.5836.1819.1819,0,0,1,.079-.0112,1.1244,1.1244,0,0,1,.2038.0254,2.96,2.96,0,0,0,.5794.0527,7.5206,7.5206,0,0,0,.7676-.0519c.085-.0088.17-.0174.2551-.0251a2.4364,2.4364,0,0,0,.4345.0393,3.8223,3.8223,0,0,0,1.8357-.592,2.3657,2.3657,0,0,0,.696-2.2983,2.4255,2.4255,0,0,0-1.5916-1.36c-.5849-.1392-1.1679-.3214-1.7348-.5024a2.67,2.67,0,0,0,.3032-.0839,1.33,1.33,0,0,1,.379-.0847.4225.4225,0,0,1,.0585.0039,1.6148,1.6148,0,0,0,.4662.0688,2.97,2.97,0,0,0,1.2224-.3486c.0987-.0444.1963-.0884.2935-.1283.3835-.1573.3266-.5674.2889-.8388a1.2227,1.2227,0,0,1-.018-.3569l.002-.01.0214-.2129a.6734.6734,0,0,0,.2441-.4531.8463.8463,0,0,0-.3048-.6378l-.0223-.0227-.2954-.16c-.0417-.0324-.0846-.0713-.13-.1123a1.0606,1.0606,0,0,0-.4459-.284c-.37-.0893-.7489-.1584-1.115-.2252a12.82,12.82,0,0,1-1.6868-.3873.2948.2948,0,0,0-.0911-.0143.3978.3978,0,0,0-.1574.0363.654.654,0,0,0-.501-.2958.4827.4827,0,0,0-.2343.0618.2632.2632,0,0,1-.1328.0368.704.704,0,0,1-.1815-.0353,1.023,1.023,0,0,0-.2795-.0486l-.0482,0a3.6316,3.6316,0,0,1-.9333-.1655,3.9885,3.9885,0,0,0-1.0348-.1787l-.06.0009c-.1631.0045-.3372.0067-.5325.0067-.2482,0-.4965-.0035-.745-.0071-.162-.0023-.3241-.0046-.4862-.0059a1.3751,1.3751,0,0,0-.9752-.2714,2.2332,2.2332,0,0,1-.3944-.0252,1.3406,1.3406,0,0,0-.255-.0231,2.9848,2.9848,0,0,0-.5343.0633,2.61,2.61,0,0,1-.455.0563.8365.8365,0,0,1-.2633-.0388,17.2119,17.2119,0,0,0,.282-3.6822.68.68,0,0,0,.2812-.5527c.0079-.1543.0139-.309.02-.4639a10.4889,10.4889,0,0,1,.13-1.5042,9.0337,9.0337,0,0,0,.1066-1.63,7.2688,7.2688,0,0,1,.1625-1.84c.1586-.605-.3578-.7985-.6663-.9142a1.8053,1.8053,0,0,1-.2656-.1145.6219.6219,0,0,0-.3164-.0995c-.35,0-.45.3643-.51.5819a11.7082,11.7082,0,0,0-.4882,3.4369,7.9429,7.9429,0,0,1-.0965,1.232,10.2711,10.2711,0,0,0-.1,1.0655,26.1116,26.1116,0,0,1-.2625,2.7232c-.05.3794-.1017.7717-.1455,1.1586l-.0007.0061-.0185.3332a1.2571,1.2571,0,0,0-.1763.2644c-.085.1554-.125.2106-.18.2106a.3271.3271,0,0,1-.1256-.0339c-.0273-.012-.0495-.0223-.0678-.0313l-.0067-.1435h-.2022l-.0331.0011-.006.0015-.036.0006c-.0323,0-.0782-.0009-.1425-.0035q-.14-.0056-.262-.0057a1.2863,1.2863,0,0,0-1.0025.2981.7293.7293,0,0,0-.1409.2536l0-.2334.0049-.0412a6.0222,6.0222,0,0,0-.0089-1.1645c-.0152-.2082-.0309-.4228-.033-.6329a.41.41,0,0,0,.0179-.418l.0038-.0357a1.2182,1.2182,0,0,0-.3844-.8268,2.3321,2.3321,0,0,0-1.3653-.8351.5617.5617,0,0,0-.0735.0047.67.67,0,0,0-.4631.2541.6324.6324,0,0,0-.103.4952.9631.9631,0,0,1-.2459.7392,1.887,1.887,0,0,0-.35,1.1938.8626.8626,0,0,0-.2655.3633.8313.8313,0,0,0-.1537.3016,1.9283,1.9283,0,0,1-.41.8014,2.2349,2.2349,0,0,0-.4881,1.0074l-.32.5393a1.5465,1.5465,0,0,0-.2841.4784l-.3138.5282a1.44,1.44,0,0,1-.1362.091,1.4656,1.4656,0,0,1-.1362-.091l-.3138-.5282a1.5407,1.5407,0,0,0-.2841-.4784l-.32-.5392a2.2346,2.2346,0,0,0-.4883-1.0075,1.9292,1.9292,0,0,1-.41-.8014.8313.8313,0,0,0-.1537-.3016.8634.8634,0,0,0-.2655-.3633,1.8865,1.8865,0,0,0-.35-1.1938.9638.9638,0,0,1-.2459-.7392.632.632,0,0,0-.1029-.4952.67.67,0,0,0-.4631-.2541.5655.5655,0,0,0-.0736-.0047,2.3316,2.3316,0,0,0-1.3652.8352,1.218,1.218,0,0,0-.3845.8268l.0038.0357a.41.41,0,0,0,.0179.4179c-.002.21-.0178.4247-.0329.633a6.0131,6.0131,0,0,0-.0089,1.1644l.0048.0412-.0015,1.0951a7.0676,7.0676,0,0,0,.1519,2.0343l-.0211.2087a1.1131,1.1131,0,0,0,.0889.9747c.0139.0317.028.0633.0414.095a2.869,2.869,0,0,0-.0907,1.8426,5.3736,5.3736,0,0,1,.1.7914,1.4475,1.4475,0,0,0-.2278,1.3245,2.9851,2.9851,0,0,1,.05.39c.03.997-.007,2.0092-.0428,2.9881-.011.2983-.0219.5966-.0311.895-.0131.4244-.0149.8549-.0167,1.2711-.0009.2432-.0019.4864-.0051.73a.6963.6963,0,0,0,.1487.5031.4289.4289,0,0,0,.3156.1234.8917.8917,0,0,0,.294-.0582c.3952-.1386.8131-.2632,1.2776-.3811a.55.55,0,0,0,.4074-.6518c-.0076-.31-.0174-.6207-.0273-.9309l-.0108-.3418a11.4412,11.4412,0,0,0,.0426-2.4564c-.0286-.5188-.0583-1.0552-.0375-1.5857l.0019-1.1433,0-.583c-.0066-.281,0-.57.0059-.8488a8.5384,8.5384,0,0,0-.1139-1.9922l-.0109-.0511-.11-.132a2.7627,2.7627,0,0,0,.1276-1.18c-.0055-.1395-.0107-.2712-.008-.4033.0014-.0759,0-.1529-.0019-.2308a2.2038,2.2038,0,0,1,.027-.5044,19.91,19.91,0,0,1,.8648,2.28c.0858.2579.1715.5152.2607.7713.05.1422.0956.2914.14.4358a3.2123,3.2123,0,0,0,1.0882,1.8467,1.05,1.05,0,0,0,.6237.1837q.0362,0,.0724-.002.0363.002.0725.002a1.05,1.05,0,0,0,.6237-.1837,3.2128,3.2128,0,0,0,1.0882-1.8467c.0445-.1444.09-.2936.14-.4358.089-.2556.1745-.5124.26-.77.0782-.2347.1574-.4731.24-.7121a3.8512,3.8512,0,0,0,.1605.85c.0266.099.0533.1982.0768.2983a.6491.6491,0,0,0,.3153.4574,12.7508,12.7508,0,0,0-.0174,1.3193c.0061.2791.0123.5676.0055.8535l0,.5784.0022,1.1509c.0206.5225-.0091,1.0589-.0377,1.5777a11.4347,11.4347,0,0,0,.0426,2.4564l-.0106.3354c-.01.3125-.02.6249-.0278.9472a.5454.5454,0,0,0,.4076.6419c.4646.1179.8824.2425,1.2776.3811a.8923.8923,0,0,0,.2941.0582.4291.4291,0,0,0,.3156-.1234.6968.6968,0,0,0,.1487-.5031c-.0032-.2431-.0042-.4863-.0052-.73-.0017-.4162-.0036-.8467-.0166-1.2711-.0092-.2984-.02-.5967-.0311-.895-.0359-.9789-.0731-1.9911-.0428-2.9881a2.9512,2.9512,0,0,1,.05-.39,1.4475,1.4475,0,0,0-.2279-1.3245,5.3742,5.3742,0,0,1,.1-.7914,2.8683,2.8683,0,0,0-.0908-1.8426c.0135-.0317.0275-.0633.0415-.095a1.1131,1.1131,0,0,0,.0889-.9747l-.0211-.2087a7.5836,7.5836,0,0,0,.17-1.6834.7037.7037,0,0,0,.7194.6159,1.1389,1.1389,0,0,0,.1988-.0187,2.0711,2.0711,0,0,1,.3179-.042A.396.396,0,0,0,179.9477,18.1337Zm2.1977,5.11a7.1126,7.1126,0,0,0,.0466-.8637c.0014-.11.0029-.22.0064-.33a1.0181,1.0181,0,0,0,.0394-.8227l.0166-.6038.0208-.27-.0011-.3128.0455-.07a.9031.9031,0,0,0,.1065-.66l.0186-.26c.003-.04.0048-.08.0067-.1195a1.473,1.473,0,0,1,.0191-.2109c.1454-.7434.2559-.7976.8777-.7976.0458,0,.0937.0006.144.0017.1462.003.2971.011.443.0187.193.01.3926.0207.5911.0207a2.9366,2.9366,0,0,0,1.3493-.2773.1938.1938,0,0,1,.09-.0212.8956.8956,0,0,1,.3242.1071,1.84,1.84,0,0,0,.3108.1206,2.9014,2.9014,0,0,0,.7294.0662h.1169c.067,0,.1341,0,.2008.0023a.5353.5353,0,0,0,.2683.07,1.0085,1.0085,0,0,0,.27-.0465,1.1547,1.1547,0,0,1,.1173-.0279.9881.9881,0,0,0,.7823.3026c.071,0,.1428-.0033.2145-.0067.0651-.0031.13-.0063.1945-.0063q.0332,0,.0658.0013l.1341.0232a.6308.6308,0,0,0,.56.2854,1.9288,1.9288,0,0,0,.2565-.0223c.0478-.0063.095-.0127.14-.0157.0516-.0034.1025-.0051.153-.0051a2.6636,2.6636,0,0,1,.9481.1888.64.64,0,0,0-.3492.2244c-.5647-.0467-1.1539-.07-1.7532-.07-.7108,0-1.4387.0316-2.2251.0967l-3.9377.0188-.0749,0a.4549.4549,0,0,0-.51.3875c-.0315.1846-.0769.3735-.1206.5562a4.0928,4.0928,0,0,0-.165,1.4015.9327.9327,0,0,0,.9749.9208c.0545.0046.1087.0067.1623.0067a3.7041,3.7041,0,0,0,.84-.1255,3.3857,3.3857,0,0,1,.76-.1163h.0165a7.7355,7.7355,0,0,1,1.1682.1322,7.747,7.747,0,0,0,1.2607.1369c.0537,0,.1073-.001.1626-.0034a2.2272,2.2272,0,0,0,.91.1566c.0895,0,.1792-.0023.2689-.0044.0862-.0022.1724-.0044.2584-.0044a2.4639,2.4639,0,0,1,.4508.0342l-.0235.0459.2816.0275.1508.0568.02-.04.219.0212a1.0738,1.0738,0,0,0,.6817.2679c.0248,0,.05-.001.0748-.0031q.0681-.0056.1335-.0056a2.6419,2.6419,0,0,1,1.5157.6707l.0781.0559a49.1432,49.1432,0,0,1-8.8114.6464c-.4427,0-.9177-.0025-1.4511-.0079A.7525.7525,0,0,1,182.1454,23.2441Z" transform="translate(0 0)"/><path class="cls-2" d="M202.06,28.6828c.0034-.4755.0071-.9672-.037-1.4534.0148-.1622.0308-.3252.047-.4885a15.5416,15.5416,0,0,0,.1126-2.186q-.0238-.5262-.0443-1.0538c-.0368-.9126-.075-1.8563-.1441-2.7834a4.3488,4.3488,0,0,1,0-.4723,2.25,2.25,0,0,0-.1915-1.21c-.0033-.105-.0055-.21-.0077-.316-.0222-1.0889-.0473-2.3222-1.4773-2.8948a.585.585,0,0,0-.4659-.2793.5161.5161,0,0,0-.2957.0991.5581.5581,0,0,0-.2412.3723.5726.5726,0,0,0,.1178.4394c.2016.2634.1168.4519-.0783.82l-.0487.0908a1.7392,1.7392,0,0,0-.2864.9268c-.0326.1074-.059.2172-.0847.3237a1.9366,1.9366,0,0,1-.2328.6449,9.0116,9.0116,0,0,0-1.0657,2.3771c-.1112.3318-.2263.675-.3557,1.0035a17.2737,17.2737,0,0,0-.6556,2.2292,17.8371,17.8371,0,0,1-.5982,2.0711.9566.9566,0,0,1-.9432.7169q-.0416,0-.0839-.0025c-.44-.026-.8955-.0391-1.354-.0391-.87,0-1.7767.0459-2.77.14-.154.0147-.3111.039-.463.0623a4.8473,4.8473,0,0,1-.7258.0756,1.4039,1.4039,0,0,1-.8351-.24.4972.4972,0,0,0-.286-.0767.8353.8353,0,0,0-.34.0728,2.9362,2.9362,0,0,1-1.2675.237c-.2,0-.4054-.01-.6046-.0192-.2029-.01-.4127-.02-.62-.02-.1085,0-.2076.0027-.3028.0081-.1419.0081-.2911.0123-.4437.0123a18.1459,18.1459,0,0,1-2.0449-.1576c-.353-.0407-.7177-.0825-1.0779-.113l-.3665-.1073a.577.577,0,0,0-.4278-.158c-.036,0-.0724.0018-.1087.0036-.0293.0015-.0585.003-.0874.003-.0145,0-.029,0-.0434-.0016l-.0088-.0009h-.0089a1.3593,1.3593,0,0,1-.2039-.0251,1.6859,1.6859,0,0,0-.2827-.0315.5566.5566,0,0,0-.5628.4256,4.3349,4.3349,0,0,0-.2288,1.3882c.0092.62.3939.7129.6223.7129a1.0984,1.0984,0,0,0,.1272-.0079,8.9475,8.9475,0,0,1,1.0289-.0471c.1072,0,.2147.0007.3222.0014s.2169.0015.3252.0015a4.7275,4.7275,0,0,0,2.8384-.6761,3.1931,3.1931,0,0,1,1.2777-.2278c.331,0,.6721.0309,1.0021.0608.2347.0213.4774.0432.7153.054.1128.0052.2238.02.3414.0359a3.3833,3.3833,0,0,0,.4543.04,1.378,1.378,0,0,0,.6122-.1342.2578.2578,0,0,1,.108-.0175.6086.6086,0,0,1,.2551.0576,1.5307,1.5307,0,0,0,.7028.1653,2.0264,2.0264,0,0,0,.4132-.0447,9.5329,9.5329,0,0,1,1.91-.1539c.1926,0,.3852.0021.5779.0043.1943.0022.3885.0043.5826.0043.3385,0,.7781-.0058,1.2288-.0492a.2612.2612,0,0,0,.1946.0356.458.458,0,0,0-.0619.2742,2.4238,2.4238,0,0,1-.254,1.0319c-.03.074-.06.1482-.0889.2231-.427,1.1114-.2285,1.5421.9234,2.0036a1.1216,1.1216,0,0,0,.4158.0924.64.64,0,0,0,.6349-.57c.0552-.225.1319-.4434.2133-.6747a3.8821,3.8821,0,0,0,.3107-1.5306.2274.2274,0,0,1,.2785-.2951l.0208,0q.0924.0021.1848.002c.2923,0,.5868-.0144.8717-.0285.28-.0137.5689-.028.8507-.028a6.0028,6.0028,0,0,1,.6731.0339l-.0041.0667c-.0482.7847-.1082,1.7613,1.0681,2.169a.829.829,0,0,1,.1155.0571.745.745,0,0,0,.3627.12h0a.5.5,0,0,0,.3054-.108.7385.7385,0,0,0,.2386-.8084A8.89,8.89,0,0,1,202.06,28.6828Zm-2.0511-2.1963c.007.1452.0137.2824.0071.4172-.0032.0669-.0033.1344-.0034.2018a1.144,1.144,0,0,1-.0634.4764l-2.1863.0269a.2077.2077,0,0,1-.139-.0333c-.0177-.0184-.0462-.075-.0392-.2481.0076-.1858.0027-.3714-.0022-.551-.0017-.0674-.0035-.1348-.0047-.202l.02-.0691a1.8525,1.8525,0,0,1,.7393-1.231c.2294-.1522.2867-.4832.353-.8666a3.2386,3.2386,0,0,1,.1421-.6026c.0555-.1406.1136-.2818.1719-.4236.09-.22.1834-.446.2684-.6742a.4844.4844,0,0,0,.3112-.1777.6073.6073,0,0,0,.0381-.5317c-.0086-.0353-.0167-.0692-.0226-.1l.0212-.13a1.1837,1.1837,0,0,0,.31-.4881c.0239-.0575.0464-.1116.0708-.1618L200.13,23.64l.0086,1.7792A2.1894,2.1894,0,0,0,200.0087,26.4865Z" transform="translate(0 0)"/><path class="cls-2" d="M166.4593,26.7293c.0037-.5126.0076-1.0425-.04-1.5663.0159-.1752.0333-.3513.0507-.5279a16.7191,16.7191,0,0,0,.1214-2.3539c-.0173-.3793-.0326-.7592-.048-1.1394-.04-.9822-.0807-1.998-.155-2.9958a4.7287,4.7287,0,0,1,0-.5109,2.3705,2.3705,0,0,0-.2063-1.3c-.0037-.1145-.006-.2295-.0083-.3447-.0239-1.17-.051-2.4947-1.5863-3.1065a.6172.6172,0,0,0-.4917-.2983.5405.5405,0,0,0-.3093.1039.5857.5857,0,0,0-.2531.39.6013.6013,0,0,0,.1238.4612c.2234.2919.1307.4984-.0827.9011l-.0527.0981a1.8565,1.8565,0,0,0-.3066.9929c-.0354.1163-.0641.2353-.0919.3508a2.0962,2.0962,0,0,1-.2534.7006,9.7033,9.7033,0,0,0-1.1465,2.5576c-.12.3579-.244.728-.3837,1.0827a18.6033,18.6033,0,0,0-.7059,2.4,19.22,19.22,0,0,1-.6454,2.2345l-.0043.0115-.4861,1.9358-.0282,0a.4766.4766,0,0,0-.3582.1236.4417.4417,0,0,0-.1068.34,2.6222,2.6222,0,0,1-.2747,1.1187c-.0323.08-.0648.16-.0959.2406-.4557,1.186-.2437,1.6457.9861,2.1384a1.1935,1.1935,0,0,0,.4419.0984.6741.6741,0,0,0,.6682-.6021c.06-.2432.1427-.479.23-.7286a4.1673,4.1673,0,0,0,.3341-1.6433.26.26,0,0,1,.3166-.3355l.0228,0q.1.0024.199.0023c.3146,0,.6319-.0156.9386-.0307.3017-.0149.6137-.03.9178-.03a6.4555,6.4555,0,0,1,.7426.0382l-.0054.0877c-.0542.8839-.1158,1.8859,1.14,2.321a.9151.9151,0,0,1,.127.0627.7888.7888,0,0,0,.3831.1274.5232.5232,0,0,0,.3194-.1132.78.78,0,0,0,.251-.8541A9.7285,9.7285,0,0,1,166.4593,26.7293Zm-2.1779-2.368c.0077.157.0149.3052.0078.4514-.0034.072-.0036.1445-.0037.2171a1.2155,1.2155,0,0,1-.0742.53l-2.367.0289a.2465.2465,0,0,1-.1617-.0409c-.0254-.0265-.0541-.0966-.0467-.2795.0082-.1989.0029-.3981-.0023-.5907-.002-.0742-.004-.1483-.0052-.2224l.0219-.0766a2.0351,2.0351,0,0,1,.8034-1.3361c.2415-.16.3026-.5137.3734-.923a3.4978,3.4978,0,0,1,.1541-.6528c.06-.1517.1225-.304.1854-.457.0985-.2395.2-.486.2923-.7345a.5116.5116,0,0,0,.3344-.1871.6421.6421,0,0,0,.0383-.5593c-.01-.0394-.0188-.0771-.0252-.1114l.0243-.1487a1.254,1.254,0,0,0,.3339-.5236,2.25,2.25,0,0,1,.1051-.2288l.1424,2.7781.0093,1.9216A2.3437,2.3437,0,0,0,164.2814,24.3613Z" transform="translate(0 0)"/><path class="cls-2" d="M206.7512,13.8592a.3182.3182,0,0,0,.2836-.1695l.0839-.1318c.0451-.0708.0964-.1509.1422-.2344.03-.0522.0585-.1079.0869-.1645l.0079-.0157c.0169-.0333.034-.0677.0456-.0942l.0284-.06a4.4873,4.4873,0,0,0,.1922-.4849,3.4621,3.4621,0,0,0,.1653-.9407,3.2121,3.2121,0,0,0-.1222-.99,1.5264,1.5264,0,0,0-.052-.1607l-.046-.1265-.0407.0139a3.5358,3.5358,0,0,0-.2473-.3812l-.0517-.07-.0438.0206c-.0248-.0266-.0567-.0632-.0757-.085-.0325-.0372-.0641-.0733-.0945-.1056a.7236.7236,0,0,0-.1234-.1609l-.0691-.0578a3.4785,3.4785,0,0,0-.5694-.4518l-.0316-.0452-.0671-.036c-.0476-.0253-.0958-.0492-.1439-.0729l0,0a.549.549,0,0,0-.0751-.0562l.0092-.03-.1181-.036c-.0307-.01-.06-.0211-.0926-.0336-.0424-.0162-.0848-.0323-.1234-.0443a1.2724,1.2724,0,0,0-.29-.0735,2.4542,2.4542,0,0,0-.6252-.0813,2.2952,2.2952,0,0,0-.3633.0283,2.6445,2.6445,0,0,0-.9477.3391l-.8723.5063.2158.0182a1.4131,1.4131,0,0,0-.2531.3292l-.0371.0425-.0971-.0375-.0287.061-.165.0006-.0037.016-.0623.0011v.26l-.0011.0063a.324.324,0,0,0-.0364.15.3319.3319,0,0,0,.0146.099c-.1852-.0871-.3679-.1678-.5452-.2408a5.62,5.62,0,0,1-.5382-.2541l-.26-.1478c-.0958-.052-.19-.0986-.2787-.1413l-.02-.01-.0211-.0067a30.8886,30.8886,0,0,0-5.5568-.5761,6.6733,6.6733,0,0,0-.6725.0276.3076.3076,0,0,0-.0333-.1961l-.0632-.1463c-.0346-.08-.0705-.1634-.1132-.2465-.0264-.055-.0571-.11-.0883-.1663l-.0076-.0132c-.0178-.0328-.0368-.0663-.0523-.091l-.0338-.0569a4.4609,4.4609,0,0,0-.2935-.4313,3.4464,3.4464,0,0,0-.6857-.6646,3.21,3.21,0,0,0-.8882-.4547,1.53,1.53,0,0,0-.1621-.0471l-.131-.0329-.0111.0414c-.0942-.0085-.19-.0126-.2909-.0126-.0554,0-.11.0013-.1635.0034l-.087.0034-.0074.048c-.0353.0054-.0826.0112-.1143.0151-.0493.006-.0972.0119-.1411.0191a.4323.4323,0,0,0-.0495-.0027.98.98,0,0,0-.1509.0142l-.085.0243a3.4641,3.4641,0,0,0-.694.2179l-.0556.0006-.068.0358c-.0462.0244-.0918.05-.14.0777a.5423.5423,0,0,0-.09.0313l-.02-.0247-.0956.0774c-.0254.02-.0516.0383-.08.0581-.0373.026-.0744.0521-.1061.0773a1.2774,1.2774,0,0,0-.2236.1988,2.4086,2.4086,0,0,0-.5985.7884,2.6442,2.6442,0,0,0-.2514.9749l-.07,1.0065.136-.1685a1.4167,1.4167,0,0,0,.13.3937l.0145.0552-.0864.06.0425.0708a.2862.2862,0,0,0-.0116.1321l-.0115.0613.042.0513.0082.047.0249.0161.0437.1015h.0554a.33.33,0,0,0,.1373.0849l.0376.0847a30.4363,30.4363,0,0,0-2.5328,2.0384c-.0428.0458-.0847.09-.1277.1352-.0657.0691-.1281.1348-.1881.2013l-.2388.2717c-.1968.2185-.2411.2614-.25.27l-.022.02-.0177.0231a.4481.4481,0,0,0-.0677.3991l-.0041.0164a1.4157,1.4157,0,0,0,.5583,1.36l.2431.1823.1928-.2348a9.0019,9.0019,0,0,1,2.8654-2.08,4.8717,4.8717,0,0,0,1.2057-.6492,3.81,3.81,0,0,1,.4634-.2883c.09-.0369.179-.0755.2687-.1145.16-.0695.3111-.135.4672-.19l.0988-.0349L191.45,12.28a10.2425,10.2425,0,0,1,2.0161-.7894l.0872-.0235-.0174-.1649c.0672-.0273.1452-.0557.2309-.0841.18-.05.3853-.097.5387-.1315l.56-.0941c.1118-.0134.2262-.0276.3311-.0428a.8363.8363,0,0,0,.2322.0406c.1429.0125.3379.0154.5255.0174l.091.0009.0066-.0409a14.0682,14.0682,0,0,1,1.8291.1609,9.7,9.7,0,0,1,1.877.477l.0139.0048a.6618.6618,0,0,1,.2213.1255l.0436.0348.0528.0179c.1773.06.35.12.5211.1934l.0442.0178c.1219.0489.2375.0953.35.1464a1.4465,1.4465,0,0,0,.3356.2653l-.0284.0663.0942.0429c.0589.0268.1.0438.1242.0524a19.423,19.423,0,0,1,2.52,1.482,11.74,11.74,0,0,1,2.5563,3.5635,7.6927,7.6927,0,0,1,.6535,3.1247c.0206.3078.0419.626.0733.9621l.008.0839.04.0053a13.4664,13.4664,0,0,1,.0969,1.447,6.26,6.26,0,0,1-.2191,1.7536l-.0077.0286-.0024.03a11.37,11.37,0,0,1-.2819,1.5574c-.0414.15-.0749.2919-.11.4389-.023.0975-.0448.19-.0686.28a2.6388,2.6388,0,0,0-.0844.4938l-.2892.646c-.0508.1044-.097.205-.1445.3088-.0436.095-.086.1873-.1279.2732l-.0879.1723c-.0651.1285-.1316.26-.2.3864-.0271.0452-.0543.0916-.0873.1478-.0932.1588-.19.3229-.3115.5012l-.05.0738.0457.0442c-.0188.0366-.0556.0994-.09.1562a.357.357,0,0,0-.1688-.0421.4038.4038,0,0,0-.1742.0409l-.46.2182.4708.3746.6557.5228.1827-.3261a.4491.4491,0,0,0,.0807-.2837,3.86,3.86,0,0,0,.43-.5214,4.24,4.24,0,0,1,.37-.4619l.4923-.536-.164.0008a14.1416,14.1416,0,0,0,1.7514-3.9324,13.7123,13.7123,0,0,0,.3732-1.8608l.0456-.0082a.3326.3326,0,0,0,.0752.27l.0988.1108h.1472l.0784-.0035.0236-.0109.1269-.0225c.0875-.0153.1781-.0311.27-.0537.06-.0131.1216-.03.1832-.0479l.0136-.0038c.0358-.01.0726-.02.1006-.03l.0635-.02a4.5454,4.5454,0,0,0,.4875-.1858,3.4813,3.4813,0,0,0,.805-.5134,3.2148,3.2148,0,0,0,.6477-.7589,1.5117,1.5117,0,0,0,.0833-.1466l.0622-.12-.0375-.02a3.5284,3.5284,0,0,0,.1141-.44l.0168-.0855-.045-.0183c.0029-.0349.0081-.0814.0117-.1128.0058-.0521.0114-.1024.0146-.149a.7423.7423,0,0,0,.0347-.1921l-.0039-.09a3.4812,3.4812,0,0,0-.0515-.7248l.0121-.0539-.0189-.0741c-.0132-.0507-.0277-.1011-.0433-.1549a.5706.5706,0,0,0-.01-.0942l.0287-.0137-.0536-.1112c-.0132-.0281-.0243-.0567-.0379-.0912-.0166-.0422-.0334-.0842-.05-.1206a1.2781,1.2781,0,0,0-.1417-.2637,2.4092,2.4092,0,0,0-.6287-.7645,2.6393,2.6393,0,0,0-.89-.47l-.9559-.2994.13.1694-.0532,0a1.275,1.275,0,0,0-.3641.0362l-.0565.0012-.0375-.0964-.0789.0245a.301.301,0,0,0-.1616-.0434l-.1593,0-.0481.0644a.3328.3328,0,0,0-.2227.2554l-.1764-.0179a22.2,22.2,0,0,0-1.6247-3.8348c-.1065-.1542-.2206-.3087-.3464-.4685Z" transform="translate(0 0)"/></g></svg>