<svg id="Camada_1" data-name="Camada 1" xmlns="http://www.w3.org/2000/svg" viewBox="0 0 219.1 219"><defs><style>.cls-1{fill:#be1b2e;}.cls-2{fill:#fff;}.cls-3{fill:none;}</style></defs><title>moldura_radioafrica</title><path class="cls-1" d="M208.9,0H10.1A10.07,10.07,0,0,0,0,10.1V209a10.05,10.05,0,0,0,10.1,10H209a10.07,10.07,0,0,0,10.1-10.1V10.1A10.22,10.22,0,0,0,208.9,0ZM215,208.9a6,6,0,0,1-6,6H67L54,194.7a11.53,11.53,0,0,0-7-5l-43-10V10.1a6,6,0,0,1,6-6H124.3L143.5,34a16.49,16.49,0,0,0,9.9,7L215,55.3V208.9Z"/><path class="cls-2" d="M163.5,36.8a3.29,3.29,0,0,1-1.9-.6c-1.2-.9-1.9-2.6-1.9-5.2,0-4-1.2-4.5-3.4-5.5a14.52,14.52,0,0,1-3.6-2.2,7.79,7.79,0,0,1-3-5.9,8.86,8.86,0,0,1,3.3-6.7c4.5-3.9,10.7-2.1,13.8.4a3.5,3.5,0,0,1,1.6,1.9l-1.2.4q-.15-.6-1.2-1.2c-2.7-2.2-8.3-3.8-12.2-.4a7,7,0,0,0-2.8,5.7,6.26,6.26,0,0,0,2.5,4.9,15.28,15.28,0,0,0,3.3,2c2.3,1.1,4.1,2,4.1,6.7.1,2.1.5,3.6,1.4,4.2a2.79,2.79,0,0,0,2.4.1,3.09,3.09,0,0,0,2.4-2.6l1.3.2a4.13,4.13,0,0,1-3.3,3.6A8.75,8.75,0,0,1,163.5,36.8Z"/><path class="cls-2" d="M173.3,20.9h-1c-.3-1-.6-1.6-.7-1.9a2.76,2.76,0,0,0-.6-.8,2.51,2.51,0,0,0-1-.1h-.8a23.52,23.52,0,0,0,.1,2.8h-.9c.1-1,.1-2.2.1-3.5a29.12,29.12,0,0,0-.1-3.1h2.1c1.5,0,2.2.5,2.2,1.5a1.92,1.92,0,0,1-1.2,1.8v.1a1.42,1.42,0,0,1,.9.8C172.4,18.7,172.8,19.5,173.3,20.9Zm-1.6-4.8c0-.8-.5-1.2-1.6-1.2a3.08,3.08,0,0,0-1,.1v2.4h.6C171,17.4,171.7,17,171.7,16.1Z"/><path class="cls-2" d="M180.2,20.9h-1.1a12.54,12.54,0,0,0-.6-2.1h-2.9a12.54,12.54,0,0,0-.6,2.1h-1a26.58,26.58,0,0,1,1.3-3.2,18.58,18.58,0,0,0,1.3-3.4h1.2a24.81,24.81,0,0,0,1.2,3.3A24.81,24.81,0,0,1,180.2,20.9Zm-1.9-2.8a27.1,27.1,0,0,1-1.2-3.2H177c0,.1-.4,1.2-1.2,3.2Z"/><path class="cls-2" d="M186.1,17.3a3.66,3.66,0,0,1-.9,2.5,3.25,3.25,0,0,1-2.5,1.1,14.38,14.38,0,0,1-1.8-.1c.1-1,.1-2.2.1-3.5a29.12,29.12,0,0,0-.1-3.1h1.7a3.27,3.27,0,0,1,2.6.9A2.62,2.62,0,0,1,186.1,17.3Zm-.8.2a2.64,2.64,0,0,0-.7-1.9,3,3,0,0,0-2.2-.8,1.76,1.76,0,0,0-.6.1v2.4a27.15,27.15,0,0,0,.1,2.8,2.2,2.2,0,0,0,.8.1,2.48,2.48,0,0,0,2-.8A2.88,2.88,0,0,0,185.3,17.5Z"/><path class="cls-2" d="M188.3,20.9h-1c.1-1.1.1-2.2.1-3.5a29.12,29.12,0,0,0-.1-3.1h1c0,.9-.1,2-.1,3.1S188.3,19.8,188.3,20.9Z"/><path class="cls-2" d="M195.7,17.5a3.25,3.25,0,0,1-1,2.6,2.84,2.84,0,0,1-2.2,1,2.88,2.88,0,0,1-2.1-.9,3.24,3.24,0,0,1-.9-2.4,3.25,3.25,0,0,1,1-2.6,3.21,3.21,0,0,1,2.2-1,2.88,2.88,0,0,1,2.1.9A3,3,0,0,1,195.7,17.5Zm-.9.1a2.58,2.58,0,0,0-.7-2,2.13,2.13,0,0,0-1.6-.7,2.06,2.06,0,0,0-1.5.8,3.17,3.17,0,0,0-.6,2,2.44,2.44,0,0,0,.7,2,2.13,2.13,0,0,0,1.6.7,2.06,2.06,0,0,0,1.5-.8A3.17,3.17,0,0,0,194.8,17.6Z"/><line class="cls-3" x1="176.6" y1="13.6" x2="177.6" y2="13.6"/><polygon class="cls-2" points="176.6 13.7 176.6 13.4 177.6 13.4 177.6 13.7 176.6 13.7"/><path class="cls-2" d="M175.9,32h-1.4a14.4,14.4,0,0,0-.9-2.9h-3.9a11.41,11.41,0,0,0-.8,2.9h-1.4c0-.2.6-1.6,1.8-4.4a34.49,34.49,0,0,0,1.8-4.5h1.6a35.5,35.5,0,0,0,1.7,4.5C175.3,30.3,175.9,31.8,175.9,32Zm-2.6-3.8a35.38,35.38,0,0,1-1.6-4.3h-.1c0,.1-.6,1.6-1.7,4.3Z"/><path class="cls-2" d="M181.9,23.1l-.1,1c-1.2-.1-2.6-.1-4.1-.1a27.25,27.25,0,0,1,.1,3.1c1.1,0,2.1,0,3.1-.1v1c-1,0-2-.1-3.1-.1,0,1.8,0,3.1.1,4h-1.2c.1-1.4.1-3,.1-4.7s0-3-.1-4.2h5.2Z"/><path class="cls-2" d="M189.7,32h-1.3a17.85,17.85,0,0,0-1-2.6c-.3-.5-.5-.9-.9-1a4.14,4.14,0,0,0-1.4-.2h-1c0,1.5,0,2.7.1,3.8H183c.1-1.4.1-3,.1-4.7s0-3-.1-4.2h2.9q3,0,3,2.1a2.55,2.55,0,0,1-1.7,2.4v.1a2.34,2.34,0,0,1,1.2,1C188.6,29.1,189,30.2,189.7,32Zm-2.1-6.4c0-1.1-.7-1.6-2.2-1.6a4.89,4.89,0,0,0-1.3.1v3.2h.8C186.7,27.3,187.6,26.7,187.6,25.6Z"/><path class="cls-2" d="M192.2,32h-1.3c.1-1.5.1-3,.1-4.7s0-3-.1-4.2h1.3c-.1,1.2-.1,2.7-.1,4.2C192.1,29,192.1,30.5,192.2,32Z"/><path class="cls-2" d="M200.2,30.9l-.1,1a5.66,5.66,0,0,1-1.8.3,4.32,4.32,0,0,1-3.5-1.3,4.47,4.47,0,0,1-1.2-3.1,4.62,4.62,0,0,1,4.8-4.8,6.88,6.88,0,0,1,1.3.2l-.2,1.1a3.64,3.64,0,0,0-1.4-.2,3,3,0,0,0-2.5,1,3.66,3.66,0,0,0-.9,2.5,3.54,3.54,0,0,0,1,2.6,3.69,3.69,0,0,0,2.7,1.1C198.9,31.2,199.5,31.1,200.2,30.9Z"/><path class="cls-2" d="M209.7,32h-1.4a14.4,14.4,0,0,0-.9-2.9h-3.9a11.41,11.41,0,0,0-.8,2.9h-1.4c0-.2.6-1.6,1.8-4.4a34.49,34.49,0,0,0,1.8-4.5h1.6a35.5,35.5,0,0,0,1.7,4.5A41.86,41.86,0,0,1,209.7,32Zm-2.6-3.8a35.38,35.38,0,0,1-1.6-4.3h-.1c0,.1-.6,1.6-1.7,4.3Z"/><line class="cls-3" x1="170.9" y1="22.2" x2="172.4" y2="22.2"/><polygon class="cls-2" points="170.9 22.3 170.9 22 172.4 22 172.4 22.3 170.9 22.3"/><path class="cls-1" d="M189.45,174.5a15,15,0,1,0,15,15A15,15,0,0,0,189.45,174.5Z"/><path class="cls-2" d="M196.45,191l-10.6,6.1a1.51,1.51,0,0,1-2.2-1.3V183.2a1.51,1.51,0,0,1,2.2-1.3l10.6,6.5A1.5,1.5,0,0,1,196.45,191Z"/></svg>