<svg id="Camada_1" data-name="Camada 1" xmlns="http://www.w3.org/2000/svg" viewBox="0 0 219.1 219"><defs><style>.cls-1{fill:#be1b2e;}.cls-2{fill:#fff;}</style></defs><title>moldura_especialdasseis</title><path class="cls-1" d="M208.9,0H10.1A10.07,10.07,0,0,0,0,10.1V209a10.05,10.05,0,0,0,10.1,10H209a10.07,10.07,0,0,0,10.1-10.1V10.1A10.22,10.22,0,0,0,208.9,0ZM215,208.9a6,6,0,0,1-6,6H67L54,194.7a11.53,11.53,0,0,0-7-5l-43-10V10.1a6,6,0,0,1,6-6H124.3L143.5,34a16.49,16.49,0,0,0,9.9,7L215,55.3V208.9Z"/><path class="cls-2" d="M153.3,21h0a2,2,0,0,0,.7.1c1.3,0,2.4-.8,3.3-2.3v1.7a4.45,4.45,0,0,1-3.5,1.6,4.16,4.16,0,0,1-3.3-1.3,5,5,0,0,1-1.1-3.4,5.27,5.27,0,0,1,.9-3.2,3.78,3.78,0,0,1,2.9-1.5V21Zm4.1-3.7h-3.2V12.9a3,3,0,0,1,2.6,1.4A6.79,6.79,0,0,1,157.4,17.3Z"/><path class="cls-2" d="M160.6,13a.55.55,0,0,0-.3.5,1.33,1.33,0,0,0,.3.7l.1.1,3.6,3.7a2.83,2.83,0,0,1,.9,2c0,1.4-.9,2-2.6,2h-.4a.55.55,0,0,0,.3-.5,1.33,1.33,0,0,0-.3-.7l-.1-.1L158.7,17a2.11,2.11,0,0,1-.6-1.6,2.52,2.52,0,0,1,.6-1.7,2.06,2.06,0,0,1,1.7-.7Zm1.3,9h-3.7V18Zm2.6-5.2L160.9,13h3.6Z"/><path class="cls-2" d="M169.6,37.1h-3.5V13h3.5Zm1-15.1V13a3.85,3.85,0,0,1,2.9,1.4,4.45,4.45,0,0,1,1,3.1,4.45,4.45,0,0,1-1,3.1A4.45,4.45,0,0,1,170.6,22Z"/><path class="cls-2" d="M178.9,21h0a2,2,0,0,0,.7.1c1.3,0,2.4-.8,3.3-2.3v1.7a4.45,4.45,0,0,1-3.5,1.6,4.16,4.16,0,0,1-3.3-1.3,5,5,0,0,1-1.1-3.4,5.27,5.27,0,0,1,.9-3.2,3.78,3.78,0,0,1,2.9-1.5V21Zm4-3.7h-3.2V12.9a3,3,0,0,1,2.6,1.4A5.62,5.62,0,0,1,182.9,17.3Z"/><path class="cls-2" d="M187.6,21h.5a3.84,3.84,0,0,0,3.4-2.2v1.7a5.29,5.29,0,0,1-3.8,1.6,3.94,3.94,0,0,1-3.2-1.3,4.86,4.86,0,0,1-1.1-3.3,4.55,4.55,0,0,1,1-3.2,4.06,4.06,0,0,1,3.1-1.3v8Zm4-4.4L188,13h3.6Z"/><path class="cls-2" d="M196,10.8a1.43,1.43,0,0,1-.6,1.2,2.31,2.31,0,0,1-2.6,0,1.5,1.5,0,0,1,0-2.4,2.31,2.31,0,0,1,2.6,0A1.43,1.43,0,0,1,196,10.8ZM195.9,22h-3.5V13h3.5Z"/><path class="cls-2" d="M200.1,21.9h-.5c-2.1,0-3.1-.8-3.1-2.5s1-2.5,3.1-2.5h.5ZM197,14.8a2.11,2.11,0,0,1,.5-1.3,1.9,1.9,0,0,1,1.3-.5,2.11,2.11,0,0,1,1.3.5,1.9,1.9,0,0,1,.5,1.3,2.11,2.11,0,0,1-.5,1.3,1.54,1.54,0,0,1-1.3.5,2.11,2.11,0,0,1-1.3-.5A2.11,2.11,0,0,1,197,14.8Zm4.2,7.2V15.6a4.64,4.64,0,0,0-.2-1.4,3.13,3.13,0,0,0-.9-1.1c.7-.1,1.2-.2,1.5-.2,2,0,2.9,1.1,2.9,3.3V22Z"/><path class="cls-2" d="M209.3,22h-3.5V9.4h3.5Z"/><path class="cls-2" d="M151.8,25.9v5.5a2.61,2.61,0,0,1-1.8-.9,3.31,3.31,0,0,1,0-3.8A3,3,0,0,1,151.8,25.9Zm.6-2.2h2.1v7.7h-2.1Z"/><path class="cls-2" d="M157.2,31.4h-.3c-1.3,0-1.9-.5-1.9-1.5s.6-1.6,1.9-1.6h.3Zm-2-4.4a1,1,0,1,1,.3.8A1.14,1.14,0,0,1,155.2,27Zm2.6,4.4v-4a2.22,2.22,0,0,0-.1-.9,1.34,1.34,0,0,0-.6-.7,3.44,3.44,0,0,1,.9-.1q1.8,0,1.8,2.1v3.6Z"/><path class="cls-2" d="M162.1,25.9c-.1.1-.2.2-.2.3a.76.76,0,0,0,.2.4l.1.1,2.2,2.3a1.73,1.73,0,0,1,.6,1.2c0,.8-.5,1.3-1.6,1.3h-.2c.1-.1.2-.2.2-.3a.76.76,0,0,0-.2-.4l-.1-.1L161,28.4a1.69,1.69,0,0,1-.3-1,1.5,1.5,0,0,1,.4-1.1,1.28,1.28,0,0,1,1-.4Zm.9,5.6h-2.3V29Zm1.6-3.2-2.2-2.4h2.2Z"/><path class="cls-2" d="M174.3,23.9a.75.75,0,0,0-.4.7,1.87,1.87,0,0,0,.5,1c.1.1.1.1.1.2l4.9,5.5a4.74,4.74,0,0,1,1.3,3q0,3-3.6,3h-.6a1,1,0,0,0,.4-.7,1.87,1.87,0,0,0-.5-1l-.1-.1L171.6,30a4,4,0,0,1,.1-4.9,2.76,2.76,0,0,1,2.3-1h.3Zm1.8,13.2h-5V31.3Zm3.6-7.6-4.9-5.6h4.9Z"/><path class="cls-2" d="M186.1,35.7h0a4.14,4.14,0,0,0,1,.1c1.9,0,3.4-1.2,4.7-3.5v2.6a6.29,6.29,0,0,1-4.9,2.4,5.83,5.83,0,0,1-4.7-1.9,7.77,7.77,0,0,1-1.6-5.1,8.33,8.33,0,0,1,1.3-4.9,5,5,0,0,1,4.1-2.2V35.7Zm5.8-5.7h-4.5V23.3a4.2,4.2,0,0,1,3.7,2.1A10.53,10.53,0,0,1,191.9,30Z"/><path class="cls-2" d="M202.8,23.4a.75.75,0,0,0-.4.7,1.87,1.87,0,0,0,.5,1c.1.1.1.1.1.2l5.1,5.7a4.44,4.44,0,0,1,1.3,3c0,2.1-1.2,3.1-3.7,3.1h-.6a.75.75,0,0,0,.4-.7,1.87,1.87,0,0,0-.5-1l-.1-.1L200,29.6a3.74,3.74,0,0,1-.8-2.5,3.92,3.92,0,0,1,.9-2.6,3,3,0,0,1,2.3-1.1Zm1.8,13.7h-5.2v-6Zm3.8-7.8-5.1-5.8h5.1Z"/><rect class="cls-2" x="193" y="28.8" width="4.9" height="8.3"/><path class="cls-2" d="M198.1,25.4a2.27,2.27,0,0,1-.9,1.8,2.66,2.66,0,0,1-3.6,0,2.17,2.17,0,0,1-.8-1.8,2.27,2.27,0,0,1,.9-1.8,3,3,0,0,1,3.6,0A2.5,2.5,0,0,1,198.1,25.4Z"/><path class="cls-1" d="M189.45,174.5a15,15,0,1,0,15,15A15,15,0,0,0,189.45,174.5Z"/><path class="cls-2" d="M196.45,191l-10.6,6.1a1.51,1.51,0,0,1-2.2-1.3V183.2a1.51,1.51,0,0,1,2.2-1.3l10.6,6.5A1.5,1.5,0,0,1,196.45,191Z"/></svg>