<svg id="Camada_1" data-name="Camada 1" xmlns="http://www.w3.org/2000/svg" viewBox="0 0 219.1 219"><defs><style>.cls-1{fill:#be1b2e;}.cls-2{fill:#fff;}</style></defs><title>moldura_baiaodedois</title><path class="cls-1" d="M208.9,0H10.1A10.07,10.07,0,0,0,0,10.1V209a10.05,10.05,0,0,0,10.1,10H209a10.07,10.07,0,0,0,10.1-10.1V10.1A10.22,10.22,0,0,0,208.9,0ZM215,208.9a6,6,0,0,1-6,6H67L54,194.7a11.53,11.53,0,0,0-7-5l-43-10V10.1a6,6,0,0,1,6-6H124.3L143.5,34a16.49,16.49,0,0,0,9.9,7L215,55.3V208.9Z"/><path class="cls-2" d="M168.9,9.9V24.7h3.2V20.5h4.3v4.2h3.2V9.9Zm7.5,7.4h-4.3V13.1h4.3Z"/><rect class="cls-2" x="180.7" y="9.9" width="3.1" height="3.2"/><rect class="cls-2" x="180.7" y="14.2" width="3.1" height="10.5"/><rect class="cls-2" x="197" y="25.5" width="2.1" height="2.2"/><rect class="cls-2" x="197" y="28.4" width="2.1" height="7.1"/><rect class="cls-2" x="184.9" y="9.9" width="10.5" height="3"/><path class="cls-2" d="M184.9,14.2V24.7H188V22.9h4.4v1.8h3.1V14.2Zm7.4,5.5h-4.2V17.3h4.2Z"/><path class="cls-2" d="M188.7,25.5v10h7.2v-10Zm5.1,7.8h-3V27.7h3Z"/><path class="cls-2" d="M165.8,15.2V9.9h-8.6V24.7h10.6V15.2Zm-5.5-2.1h2.2v2.1h-2.2Zm4.3,8.5h-4.3V18.3h4.3Z"/><path class="cls-2" d="M162.3,25.5h-5.1v10h7.1V27.6Zm0,8h-3V27.7h2.3l.7.7Z"/><path class="cls-2" d="M170.5,29h-3.2V27.6h5V25.5h-7.2v10h7.2V33.4h-5V31.2h5v-.1l-1.7-1.6A.9.9,0,0,1,170.5,29Z"/><path class="cls-2" d="M185.7,25.5h-5.1v2.8l1.4.2a.43.43,0,0,1,.4.4.66.66,0,0,1-.1.6l-1.7,1.7v4.4h7.1V27.7Zm0,8h-3V27.7H185l.7.7Z"/><polygon class="cls-2" points="176.5 25.1 178.2 28.5 182 29.1 179.2 31.7 179.9 35.5 176.5 33.7 173.1 35.5 173.8 31.7 171 29.1 174.8 28.5 176.5 25.1"/><polygon class="cls-2" points="207.2 25.5 207.2 27.6 202.1 27.6 202.1 29 207.2 29 207.2 35.5 200 35.5 200 33.4 204.8 33.4 204.8 31.2 200 31.2 200 25.5 207.2 25.5"/><path class="cls-2" d="M196.6,9.9V22.6h0v2h10.6V9.9Zm2.3,9a1,1,0,0,1-1-1V15.7a1,1,0,0,1,1-1,.94.94,0,0,1,1,1V17h.5V13.7a1.4,1.4,0,0,1,2.8,0v1.8h.6V14.1a1,1,0,0,1,1-1,1.08,1.08,0,0,1,1,1v2.4a1,1,0,0,1-1,1h-1.7v5h-2.9V18.9Z"/><path class="cls-1" d="M189.45,174.5a15,15,0,1,0,15,15A15,15,0,0,0,189.45,174.5Z"/><path class="cls-2" d="M196.45,191l-10.6,6.1a1.51,1.51,0,0,1-2.2-1.3V183.2a1.51,1.51,0,0,1,2.2-1.3l10.6,6.5A1.5,1.5,0,0,1,196.45,191Z"/></svg>