<svg xmlns="http://www.w3.org/2000/svg" viewBox="0 0 219.1 219"><defs><style>.cls-1{fill:#be1b2e;}.cls-2{fill:#fff;}</style></defs><title>moldura_soylocoporti</title><g id="Camada_1" data-name="Camada 1"><path class="cls-1" d="M208.9,0H10.1A10.051,10.051,0,0,0,0,10V209a9.9875,9.9875,0,0,0,10.1,10H209a10.051,10.051,0,0,0,10.1-10V10.1A10.2221,10.2221,0,0,0,208.9,0ZM215,208.9a6.0176,6.0176,0,0,1-6,6H67L54,194.7a11.5258,11.5258,0,0,0-7-5l-43-10V10.1a6.0176,6.0176,0,0,1,6-6H124.3L143.5,34a16.4853,16.4853,0,0,0,9.9,7L215,55.3Z" transform="translate(0 0)"/><path class="cls-1" d="M189.4,174.5a15,15,0,1,0,15,15,14.98,14.98,0,0,0-15-15Z" transform="translate(0 0)"/></g><g id="play"><path class="cls-2" d="M196.4,191l-10.6,6.1a1.6154,1.6154,0,0,1-2.2-1.3V183.2a1.5605,1.5605,0,0,1,1.6-1.5,1.4213,1.4213,0,0,1,.6.2l10.6,6.5a1.4887,1.4887,0,0,1,.6,2A.9016.9016,0,0,1,196.4,191Z" transform="translate(0 0)"/></g><g id="Camada_7" data-name="Camada 7"><path class="cls-2" d="M160.4282,26.2806a9.4577,9.4577,0,0,1,.465-1.418c.0055-.0121.0115-.024.0179-.0357a2.5436,2.5436,0,0,1,.266-.4092.9949.9949,0,0,1,.39-.2738l.015-.0058a1.225,1.225,0,0,1,.4129-.0882.6134.6134,0,0,1,.2208.04h.0119a.7465.7465,0,0,1,.3856.1129,1.4366,1.4366,0,0,0,.2754.1758l.16.16c.01.01.0192.02.028.0308l.0771.0924V15.55a2.3594,2.3594,0,0,0-2.6354-2.6356h-2.05a2.3594,2.3594,0,0,0-2.6354,2.6356v9.37a2.3594,2.3594,0,0,0,2.6354,2.6354h1.678C160.239,27.0713,160.3329,26.6445,160.4282,26.2806Zm6.8079-.4845a2.1523,2.1523,0,0,0-.507-.6672,1.9062,1.9062,0,0,0-.6673-.4269,1.0072,1.0072,0,0,0-.32-.0534.5024.5024,0,0,0-.1869-.0135.9089.9089,0,0,0-.16.0669,1.4563,1.4563,0,0,0-.6405.3735,6.7891,6.7891,0,0,0-1.0275,1.7348,26.7858,26.7858,0,0,0-1.1075,2.9089q-.16.5343-.24.5338v-.0267a.0751.0751,0,0,1-.0266-.0533.6356.6356,0,0,0-.0132-.12.7007.7007,0,0,1,.0132-.2268c.0175-.1069.0354-.2578.0534-.4537s.0533-.4626.1068-.8007q.0531-.3465.0933-.7605t.0667-.6807q.0262-.24.0667-.56t.0668-.5071q.0264-.2133.04-.427t.0132-.347v-.2669l-.1333-.16-.16-.16a.6341.6341,0,0,1-.1869-.1068,1.0747,1.0747,0,0,0-.64-.0267.5389.5389,0,0,0-.2135.1468,2.2009,2.2009,0,0,0-.2135.3336,9.1315,9.1315,0,0,0-.44,1.3476q-.2272.8678-.44,2.2019-.107.5073-.2,1.3611t-.1468,1.5212q0,.2139-.0134.5471t-.0135.6939v1.2944q.1071,1.7881.28,3.1892a12.33,12.33,0,0,0,.3869,2.0684.5964.5964,0,0,1,.08.2.345.345,0,0,0,.08.1735c.0176.0534.0354.1155.0533.1868a.7973.7973,0,0,1,.0266.1868,3.5728,3.5728,0,0,0,.08.3736.1228.1228,0,0,0,.1333.08h.7474c.0889.0174.1421.0087.16-.0267a.2212.2212,0,0,0,.0268-.24.5547.5547,0,0,1-.0534-.32q0-.24-.0132-.7338t-.0669-.9742q-.0537-.6666-.0533-1.0007a1.9765,1.9765,0,0,1,.0533-.52q.08-.56.24-1.281l.32-1.4412q.08-.3733.1068-.467c.0174-.0621.0441-.0934.08-.0934l.2135.2134a2.5351,2.5351,0,0,0,1.4144.8274c.0354,0,.0933.0046.1735.0133a.6805.6805,0,0,1,.2268.0668,2.6784,2.6784,0,0,0,.267.0667,1.7946,1.7946,0,0,0,.2667.0133,1.5524,1.5524,0,0,0,.24-.0133q.08-.0132.1868-.04a1.9127,1.9127,0,0,0,1.0408-.8807,4.9926,4.9926,0,0,0,.36-.9474,11.57,11.57,0,0,0,.2935-1.3345q.12-.7337.1735-1.5612t.0535-1.628a12.4222,12.4222,0,0,0-.1068-1.3878A3.552,3.552,0,0,0,167.2361,25.7961Zm-1.3878,1.7881q-.0268.5874-.0667,1.2544t-.12,1.3477q-.08.6807-.16,1.2677a5.2918,5.2918,0,0,1-.7738,2.402.294.294,0,0,1-.267.1068,1.8693,1.8693,0,0,1-.4936-.307,3.9292,3.9292,0,0,1-.5471-.5471,1.9928,1.9928,0,0,1-.28-.3737q-.147-.24-.1734-.2935,0-.0264.0667-.2936t.1736-.64q.1062-.3735.24-.7739t.24-.7207q.4535-1.281.814-2.1483a12.5476,12.5476,0,0,1,.734-1.5079q.1332-.1865.2667-.387a.81.81,0,0,1,.1868-.2269q.0534-.0531.08.1335t.08.6939A9.74,9.74,0,0,1,165.8483,27.5842Zm22.3585-9.7317a.5607.5607,0,0,1,.2911.0754.7023.7023,0,0,1,.4113.213l.0287.013.0534.0267a.4564.4564,0,0,1,.12.0861l.08.08a.4505.4505,0,0,1,.0307.034,2.1361,2.1361,0,0,1,.4022.6985,3.5456,3.5456,0,0,1,.1014,1.0054l-.0009.0291c-.0175.2748-.0307.6185-.0392,1.0216a9.0987,9.0987,0,0,1-.0869,1.102c.0323-.0018.0658-.004.1-.0068.0509-.0038.1012-.0057.1519-.0057a2.224,2.224,0,0,1,.2755.0177,2.2674,2.2674,0,0,1,.6865.09c.0312.01.0606.0231.09.0353a.58.58,0,0,1,.3209-.7436l.016-.0077a1.3384,1.3384,0,0,1,.5562-.1244,1.2984,1.2984,0,0,1,.3281.0427,2.2512,2.2512,0,0,1,.9656.5258.4413.4413,0,0,1,.038.0369,1.8379,1.8379,0,0,1,.468.8036,1.707,1.707,0,0,1-.0776.9312c-.2183.6306-.5507.9745-.99,1.0277.0034.0033.0954.0956.13.13a2.08,2.08,0,0,1,.3308.448,2.143,2.143,0,0,1,.2213.5781c.038.1722.0618.2918.0729.3671.0109.0781.02.1864.0306.3444.0093.1517.01.3785.0019.6916a2.3039,2.3039,0,0,0,1.6126-2.4988V15.55a2.3594,2.3594,0,0,0-2.6353-2.6356h-2.05a2.3594,2.3594,0,0,0-2.6354,2.6356v2.4492a1.7012,1.7012,0,0,1,.2526-.0888A1.3315,1.3315,0,0,1,188.2068,17.8525Zm-8.6156,4.3768a1.1628,1.1628,0,0,1,.5083-.1468,1.9966,1.9966,0,0,1,.314.0326c.022.0037.0433.0078.0642.0121a1.6425,1.6425,0,0,1,.4436-.3359.4627.4627,0,0,1,.0873-.0364,1.2862,1.2862,0,0,1,.3654-.0673.5827.5827,0,0,1,.1581.0213h.0085a.7149.7149,0,0,1,.137.0138V13.2073a.2613.2613,0,0,0-.2928-.293h-1.9034a.2694.2694,0,0,0-.2927.293v9.2805q.059-.0547.1031-.09A1.2025,1.2025,0,0,1,179.5912,22.2293Zm-28.2238-9.315h-2.05a2.3672,2.3672,0,0,0-2.6354,2.6356V19.869a.6526.6526,0,0,0,.4941.6771l4.3375,1.4275v2.4341a.65.65,0,0,1-.7321.7322h-.8783a.6571.6571,0,0,1-.7322-.7322V22.9985a.254.254,0,0,0-.2927-.2927h-1.9035a.2612.2612,0,0,0-.2928.2927V24.92a2.3671,2.3671,0,0,0,2.6354,2.6354h2.05a2.3593,2.3593,0,0,0,2.6353-2.6354V20.6926a.6712.6712,0,0,0-.4757-.6773l-4.3559-1.4275V16.0622a.6652.6652,0,0,1,.7322-.7321h.8783a.65.65,0,0,1,.7321.7321V17.49a.2694.2694,0,0,0,.2928.2928H153.71a.2611.2611,0,0,0,.2927-.2928V15.55A2.3594,2.3594,0,0,0,151.3674,12.9143Zm59.8741.0427a4.1038,4.1038,0,0,0-.6072-.0427h-2.05a2.3594,2.3594,0,0,0-2.6353,2.6356v9.37a2.2955,2.2955,0,0,0,2.0282,2.5927,4.1034,4.1034,0,0,0,.6071.0427h2.05A2.3594,2.3594,0,0,0,213.27,24.92V15.55A2.2954,2.2954,0,0,0,211.2415,12.957Zm-13.8606,14.04c-.0361.0359-.0535.04-.0535.0134v-.44l-.0533.08a1.6116,1.6116,0,0,0-.12.2269q-.0671.147-.2535.6271-.16.4542-.32.854t-.3337.8007q-.1737.4005-.3869.8407t-.48.9741q-.6142,1.2279-1.0409,1.9082a6.0717,6.0717,0,0,1-.8007,1.0542q-.374.3472-.5071.2669a.86.86,0,0,1-.1333-.2536,2.66,2.66,0,0,1-.1335-.467,1.76,1.76,0,0,0-.0133-.2134,2.4265,2.4265,0,0,1-.0135-.2937V31.0537q0-.3735.0135-.7472t.0266-.7339q.0131-.36.0134-.6273.053-1.0138.0667-1.4946t0-.6937c-.0092-.1423-.0179-.2444-.0267-.3071s-.0313-.1734-.0667-.3335a1.671,1.671,0,0,0-.1734-.4537,1.6138,1.6138,0,0,0-.2535-.347q-.054-.0531-.12-.12a.5107.5107,0,0,0-.12-.0934.2564.2564,0,0,0-.1869-.08.18.18,0,0,1-.1334-.0533.4145.4145,0,0,0-.2135,0,.4309.4309,0,0,0-.2935.2,2.3174,2.3174,0,0,0-.16.6005q-.08.56-.16.9207t-.1336.7473q-.0531.3873-.08.8941t-.0535,1.3611l-.0035.106q-.52,1.0029-1.0505,1.9223a16.5211,16.5211,0,0,1-1.0009,1.5746q-.1339.16-.3469.4c-.1427.16-.2313.24-.2669.24-.0179,0-.0313-.0175-.04-.0534s-.0223-.1422-.04-.32a3.0294,3.0294,0,0,1-.0266-.427v-.774q0-.3734.0134-.734t.0132-.4936q.0534-.4266.0935-.9341t.1067-.9875q.0663-.48.12-.9074t.1068-.7206q.0261-.2133.0532-.4537c.0175-.16.0356-.2935.0535-.4q.053-.32.12-.7873t.1737-1.0008q.0261-.1865.0533-.4a2.8193,2.8193,0,0,1,.0534-.32,1.1662,1.1662,0,0,1,.08-.32,1.9159,1.9159,0,0,1,.48-.1868q.1865-.0533.4405-.1334t.4669-.16q.7207-.2934.7741-.1867a.0875.0875,0,0,0,.0371.024,1.2507,1.2507,0,0,0,.0428.3763.801.801,0,0,0,.1734.3736,2.7072,2.7072,0,0,0,.574.2668.7224.7224,0,0,1,.2934.1068.4383.4383,0,0,0,.2136.0267q.4-.0261.6405-.7205a1.26,1.26,0,0,0,.0666-.6806,1.4168,1.4168,0,0,0-.36-.6005,1.7889,1.7889,0,0,0-.774-.427.8444.8444,0,0,0-.587.0534c-.0714.0359-.107.08-.107.1334a.1573.1573,0,0,0,.08.1335q.16.08,0,.24a.9326.9326,0,0,0-.2268.48,1.4477,1.4477,0,0,0-.0241.1577l-.0158-.0375a.396.396,0,0,0-.1334-.1736.8444.8444,0,0,0-.3336-.2,1.915,1.915,0,0,0-.5738-.0667,1.6808,1.6808,0,0,0-.36-.0134c-.1159.0092-.2181.0134-.307.0134a.7975.7975,0,0,1-.32,0,.13.13,0,0,1-.0266-.0934,3.007,3.007,0,0,1,.0533-.36,8.41,8.41,0,0,0,.0935-1.1209q.0132-.6136.04-1.0409a3.2437,3.2437,0,0,0-.08-.8673,1.7114,1.7114,0,0,0-.32-.5472l-.08-.08-.0535-.0266a.2183.2183,0,0,1-.1333-.08.2546.2546,0,0,0-.2135-.1067c-.0714,0-.1068-.0088-.1068-.0266q0-.08-.2936,0a.7421.7421,0,0,0-.2134.08,3.33,3.33,0,0,0-.1334.56q-.0272.2139-.107.6138t-.1333.7473c-.0179.1067-.04.2628-.0667.4671s-.0535.4136-.08.6271-.0492.4182-.0667.6138-.0358.3382-.0535.4271q-.0537.294-.0933.4937c-.0266.1334-.0492.2-.0667.2,0,.0358-.1067.08-.32.1334a3.1553,3.1553,0,0,0-.44.12q-.28.0938-.5337.1734t-.4538.1467a.9327.9327,0,0,0-.2269.0935c-.0533.0359-.0707.0759-.0533.12a1.1,1.1,0,0,0,.16.2269l.16.2134c0,.0359.0266.0667.08.0935a1.195,1.195,0,0,0,.16.0667,1.0826,1.0826,0,0,0,.3871.0533,2.621,2.621,0,0,0,.52-.0533.83.83,0,0,1,.28-.04c.0442.0093.0576.04.04.0934a3.514,3.514,0,0,0-.08.4q-.054.32-.1068.7073t-.12.7606q-.0671.3741-.0933.5871-.0272.16-.0535.4405t-.0535.587q-.0262.3072-.0532.6005t-.0535.48q0,.187-.0132.5738t-.0135.8006q0,.4143.0135.774c.0091.24.0132.4137.0132.52a6.8739,6.8739,0,0,0,.48,1.9483,1.5188,1.5188,0,0,0,.3471.48,1.2264,1.2264,0,0,0,.4536.24,1.4354,1.4354,0,0,0,.1734.0667c.08.0267.1468.0492.2.0666a.65.65,0,0,0,.16.08,1.1454,1.1454,0,0,1,.1336.0533.5821.5821,0,0,0,.5337-.0533,3.1374,3.1374,0,0,0,.8807-.9876,12.6076,12.6076,0,0,0,1.182-2.2426c.0045.1432.0107.2772.0188.4013a5.8174,5.8174,0,0,0,.08.68q.0537.28.1334.5738a1.9361,1.9361,0,0,0,1.6013,1.5479,1.4811,1.4811,0,0,1,.2536.0267c.0975.0179.1821.0359.2534.0533a1.0443,1.0443,0,0,0,.3472.08,1.0658,1.0658,0,0,0,.4-.0267,1.15,1.15,0,0,0,.4269-.1869,2.5041,2.5041,0,0,0,.7072-.7471,17.3015,17.3015,0,0,0,.8941-1.6281q.4534-.9339.7607-1.7347a15.38,15.38,0,0,0,.5471-1.7614q.1332-.5067.24-1.0542a4.9752,4.9752,0,0,0,.1067-.7072C197.4341,26.97,197.4162,26.9617,197.3809,26.9971Zm-6.6333-3.2422-.0007-.0031c-.0655.024-.1443.0543-.2392.0929-.1615.0607-.3262.1173-.5015.1727s-.3252.1007-.4529.1371c-.0974.0306-.1693.0548-.2216.0733l-.014.0752-.0064.03a2.343,2.343,0,0,0-.0431.2648c-.0184.1464-.0366.2821-.0544.4084l-.0044.0262c-.0694.3465-.1264.6746-.1692.9753q-.0678.4737-.1216.7976c-.0172.1031-.0341.2291-.05.3753l-.0119.1037a3.2249,3.2249,0,0,0,1.3864.2717h.0965c.0071-.0619.0144-.1227.0223-.1805.0386-.2758.0858-.5393.14-.7845.0508-.2293.1026-.5275.1536-.8859l.0024-.0151a2.5642,2.5642,0,0,1,.2091-.74.8591.8591,0,0,1,.52-.407,1.3246,1.3246,0,0,1-.323-.1873A1.1491,1.1491,0,0,1,190.7476,23.7549Zm-22.419,4.411a1.98,1.98,0,0,1,.5254-.61c.01-.0083.02-.0174.03-.0255l.01-.01.0185-.4262a6.6253,6.6253,0,0,1,.03-.7241,4.4041,4.4041,0,0,1,.1482-.6727l.009-.028a4.2867,4.2867,0,0,1,.3881-.8067,2.7287,2.7287,0,0,1,.4568-.565V21.48l3.3492-8.1442c.11-.2564-.0183-.4211-.2928-.4211h-1.83a.3987.3987,0,0,0-.4209.293l-2.05,5.2525-2.05-5.2525a.3991.3991,0,0,0-.4211-.293H164.4c-.2747,0-.4028.1647-.293.4211l3.3492,8.1442v3.7911a2.2528,2.2528,0,0,1,.1955.3334,4.0237,4.0237,0,0,1,.3307,1.1114c.0358.239.0635.517.0838.84.0116.1851.0209.3848.0278.6012,0,.1837-.005.369-.009.5541A4.4434,4.4434,0,0,1,168.3286,28.1659ZM204.0828,15.49l-.0088-.006a2.28,2.28,0,0,0-2.0272-2.5269,4.1038,4.1038,0,0,0-.6072-.0427h-2.05a4.3064,4.3064,0,0,0-.44.022l.0014.0019a2.3149,2.3149,0,0,0-2.1918,2.6117v9.37a3.242,3.242,0,0,0,.249,1.3244.4559.4559,0,0,1,.7766.3254v.1268a.5157.5157,0,0,1,.1068.3269,1.5973,1.5973,0,0,1-.0131.1841,3.1012,3.1012,0,0,0,1.5343.3478h2.05a2.3671,2.3671,0,0,0,2.6354-2.6354V22.9437a.2694.2694,0,0,0-.2928-.2928h-1.83a.2612.2612,0,0,0-.2928.2928v1.4641a.65.65,0,0,1-.7321.7321h-.9515a.65.65,0,0,1-.7321-.7321V16.0622a.65.65,0,0,1,.7321-.7321h.9515a.6571.6571,0,0,1,.7321.7321v1.4641a.2612.2612,0,0,0,.2928.2928h1.83a.2694.2694,0,0,0,.2928-.2928V15.55c0-.0167-.0016-.0321-.0017-.0487Zm-17.9165,9.671a.3857.3857,0,0,0-.1329-.021h-3.7905a1.501,1.501,0,0,0,.0471.3122.8875.8875,0,0,0,.0491.149.5716.5716,0,0,1,.1746.47.5036.5036,0,0,1-.2425.37.6057.6057,0,0,1-.3165.0832,1.0876,1.0876,0,0,1-.3008-.0485.4646.4646,0,0,1-.0741-.0285c-.0237-.0116-.05-.0234-.0783-.0352a.45.45,0,0,1-.07-.0117,1.526,1.526,0,0,1-.3638-.1495,1.43,1.43,0,0,1-.3305-.2378,2.4959,2.4959,0,0,1-.4673-.6926l-.0954.2262c-.137.325-.2726.68-.4032,1.0538-.1113.3192-.2188.6381-.3225.9528.011.0007.0213.0022.0329.0022h6.334l.0075-.0809c.0182-.1936.0365-.3455.0562-.4637.0189-.1512.05-.3483.0959-.602.0428-.242.0824-.4922.1173-.7429C186.1175,25.4823,186.142,25.3157,186.1663,25.1609Zm-6.04-.6724.1734-.347c.0268-.0534.0487-.0709.0667-.0534l.0534.2135a2.7432,2.7432,0,0,0,.24.7739,2.1416,2.1416,0,0,0,.4.6138.9941.9941,0,0,0,.2268.16,1.0983,1.0983,0,0,0,.2536.1068.3363.3363,0,0,1,.12.0266c.0441.018.0841.0359.12.0534a.36.36,0,0,0,.2537.0134c.0442-.0268.0307-.0755-.04-.1468a.7774.7774,0,0,1-.1468-.3336,1.9264,1.9264,0,0,1-.0669-.4938q0-.16.0669-.7606t.1735-1.2143q.0261-.1863.04-.32c.0087-.0889.0132-.1422.0132-.16a.2939.2939,0,0,0-.1068-.1868l-.1333-.1334c-.0358,0-.1869-.1335-.2936-.1335h-.1068c-.0178-.0354-.1159-.0267-.2935.0267a.9881.9881,0,0,0-.4.347q-.0536.1338-.16.1067a.6344.6344,0,0,0-.24-.08,1.6439,1.6439,0,0,0-.24-.0266,1.68,1.68,0,0,0-.52.2135q-.0668.0537-.2.1868a1.5143,1.5143,0,0,0-.32.3869q-.1335.2271-.4.7607-.2937.5873-.5337,1.1876t-.5071,1.4011a2.3311,2.3311,0,0,0-.08.2268c-.0179.0626-.0358.12-.0533.1735a1.3889,1.3889,0,0,0-.08.1869h-.0266c-.0179,0-.0268-.0575-.0268-.1735V25.1556a.7854.7854,0,0,0-.1867-.24q-.24-.24-.2669-.1868a1.859,1.859,0,0,0-.24-.16.9458.9458,0,0,0-.56.0533.6908.6908,0,0,0-.2936.24,3.6579,3.6579,0,0,0-.24.974q-.1063.7076-.16,1.5613-.0262.4272-.0266,1.0809c0,.2058.0047.3894.0126.5575-.1431.041-.2927.0821-.4528.123a2.0226,2.0226,0,0,1-.6273.1068.053.053,0,0,1-.04-.0133.3185.3185,0,0,1-.0132-.1335V28.0379q-.0272-.7206-.0269-1.0141a3.5683,3.5683,0,0,0-.0266-.48,4.276,4.276,0,0,0-.4-1.201,2.6239,2.6239,0,0,0-1.0809-.9741,2.371,2.371,0,0,0-1.3744-.28,3.3346,3.3346,0,0,0-.507.16,1.6617,1.6617,0,0,0-.48.2936,2.153,2.153,0,0,0-.4805.5605,3.8185,3.8185,0,0,0-.3469.7205,4.009,4.009,0,0,0-.1335.6005,6.32,6.32,0,0,0-.0267.68l-.0266.6139-.16.16a1.5327,1.5327,0,0,0-.4536.5071,4.8812,4.8812,0,0,0-.32.7739,5.5989,5.5989,0,0,0-.1068,3.2293,3.2449,3.2449,0,0,0,.64,1.1876,2.4883,2.4883,0,0,0,.9607.7073.6016.6016,0,0,0,.2268.08q.1464.0268.28.0533c.0888.0179.1869.0359.2936.0534a.6363.6363,0,0,1,.24.08c.0533.018.1068.0359.16.0534a.4266.4266,0,0,0,.1066.0267.7549.7549,0,0,0,.267.0133,2.55,2.55,0,0,0,.32-.04,2.0115,2.0115,0,0,0,1.0675-.9874,7.0237,7.0237,0,0,0,.6673-1.4011,14.4086,14.4086,0,0,0,.48-1.7748,3.4436,3.4436,0,0,0,.1337-.5872q.0261-.0531.24-.1067a9.2054,9.2054,0,0,0,1.0275-.32l.0037-.0017c.0037.0335.0052.0772.0094.1084q.027.4.0935.8939t.1333.9743q.0664.48.1468.894t.1334.6272A3.43,3.43,0,0,0,176.39,34.03a1.4174,1.4174,0,0,0,.64.5737,1.0758,1.0758,0,0,0,.1869.0533c.0356,0,.0443-.0266.0266-.08v-.16a.0747.0747,0,0,1,.1068-.0533.2107.2107,0,0,0,.1335-.0267.0853.0853,0,0,0,.0533-.08v-.3469q.0263-.2934.08-.8007t.1334-.9074q.1333-.7737.3605-1.7214t.4936-1.8014q.16-.5067.3469-1.081t.3871-1.1476q.2-.5735.4135-1.0808T180.1262,24.4885ZM173.214,30.213q-.0537.174-.1468.4t-.1866.467c-.0627.16-.12.3029-.1737.4271a10.9723,10.9723,0,0,1-.7471,1.2677,4.6682,4.6682,0,0,1-.7741.9207.6552.6552,0,0,1-.24.1335q-.08,0-.2936-.5338a4.66,4.66,0,0,1-.16-.52,6.6078,6.6078,0,0,1-.1067-.6539,3.325,3.325,0,0,1-.0533-.5337q0-.2133.0267-.8006.0261-.774.04-.9608t.0667-.2136a1.64,1.64,0,0,1,.2669.0534.64.64,0,0,0,.2536.08c.1154.0178.2175.0359.3068.0534q.16.0269.3336.04a2.74,2.74,0,0,1,.307.04,2.5416,2.5416,0,0,0,.32.04c.1242.0092.2757.0135.4535.0135h.5071a.0472.0472,0,0,1,.0535.0533A1.025,1.025,0,0,1,173.214,30.213Zm.44-2.3352a4.1741,4.1741,0,0,1-.04.4537q-.0536.3741-.1067.6939a1.3371,1.3371,0,0,1-.08.347.5115.5115,0,0,1-.2667.08,2.6289,2.6289,0,0,1-.3471.04c-.1426.0092-.2893.0133-.44.0133s-.2893-.0041-.4135-.0133-.2135-.0133-.267-.0133a1.1152,1.1152,0,0,1-.8006-.56,1.7012,1.7012,0,0,1-.24-.7473,1.0959,1.0959,0,0,0-.0134-.2136.548.548,0,0,0-.0933-.16l-.08-.1067v-.5337a5.821,5.821,0,0,1,.0535-.9074,3.2312,3.2312,0,0,1,.24-.7473,2.8671,2.8671,0,0,1,.5871-.774.8468.8468,0,0,1,.9875-.2135,1.7568,1.7568,0,0,1,.3469.24q.1863.16.32.2936a2.44,2.44,0,0,1,.5606,1.201q.0262.1336.0532.4136t.04.6005Q173.6674,27.5843,173.6544,27.8778Z" transform="translate(0 0)"/></g></svg>