<svg id="Camada_1" data-name="Camada 1" xmlns="http://www.w3.org/2000/svg" viewBox="0 0 219.1 219"><defs><style>.cls-1{fill:#be1b2e;}.cls-2{fill:#fff;}</style></defs><title>moldura_radioca</title><path class="cls-1" d="M208.9,0H10.1A10.07,10.07,0,0,0,0,10.1V209a10.05,10.05,0,0,0,10.1,10H209a10.07,10.07,0,0,0,10.1-10.1V10.1A10.22,10.22,0,0,0,208.9,0ZM215,208.9a6,6,0,0,1-6,6H67L54,194.7a11.53,11.53,0,0,0-7-5l-43-10V10.1a6,6,0,0,1,6-6H124.3L143.5,34a16.49,16.49,0,0,0,9.9,7L215,55.3V208.9Z"/><path class="cls-2" d="M192.5,20.2c.5,0,.6,0,.6.6,0,3.9-.1,7.7-.1,11.6,0,.7,0,.7-.7.7-4,0-8-.1-12.1-.1-.5,0-.6-.1-.5-.6.1-2.9.1-5.7.2-8.6,0-1.1.1-2.2.1-3.2,0-.4.2-.4.5-.4h6.1C186.5,20.1,190.5,20.2,192.5,20.2Zm-.8,6.4a5.34,5.34,0,0,0-5.3-5.3,5.45,5.45,0,0,0-5.2,5.3,5.25,5.25,0,1,0,10.5,0Z"/><path class="cls-2" d="M167.6,28.6V23.8c0-.5,0-.5.5-.5h3a1.14,1.14,0,0,1,.8.3c.7.7,1.3,1.4,2,2.1a.91.91,0,0,1,.3.7V31a.91.91,0,0,1-.3.7c-.7.6-1.4,1.3-2.1,1.9a1.49,1.49,0,0,1-.7.3H168c-.4,0-.4-.1-.4-.5Zm1.4.1v3.5c0,.4,0,.5.5.5h1a1.07,1.07,0,0,0,.6-.2c.5-.4.9-.8,1.4-1.2a.91.91,0,0,0,.4-.8c0-1.1.1-2.1.1-3.2a1.08,1.08,0,0,0-.3-.7c-.4-.5-.8-.9-1.2-1.4a1.61,1.61,0,0,0-1.1-.5h-.9c-.5,0-.5,0-.5.5Z"/><path class="cls-2" d="M154,28.7V23.8c0-.5,0-.5.5-.5h4.2c.5,0,.5,0,.5.5V27a.67.67,0,0,1-.4.7,4.05,4.05,0,0,1-.9.5c-.3.2-.4.4-.3.7.3,1,.6,2,.8,3,.1.5.3,1.1.4,1.6s0,.4-.3.4c-.8,0-.8,0-1-.7-.4-1.4-.8-2.8-1.1-4.2a.84.84,0,0,0-1.1-.4.6.6,0,0,0-.1.4v4.1c0,.7,0,.7-.8.7-.4,0-.4,0-.4-.4V28.7Zm1.3-2.9h0v1c0,.3.1.4.4.4h.9a1.16,1.16,0,0,0,1-.4.85.85,0,0,0,.3-.5V24.8c0-.3-.1-.3-.4-.3h-1.9a.37.37,0,0,0-.4.4A2.22,2.22,0,0,1,155.3,25.8Z"/><path class="cls-2" d="M163.3,20.5h1c.3,0,.4.1.5.4.1.8.2,1.7.3,2.5.2,1.7.4,3.4.6,5l.3,2.4c0,.3-.1.4-.3.4-.9,0-.9.2-1-.7-.2-1.3-.4-2.6-.7-4a.37.37,0,0,0-.1-.3v-.1c-.3-.5-.7-.2-1.1-.2-.2,0-.3.2-.3.4-.2,1.5-.4,2.9-.6,4.4-.1.4-.1.5-.5.5-1,0-.8,0-.8-.8.2-1.8.4-3.7.6-5.5.1-1.3.3-2.6.4-3.9,0-.4.1-.4.5-.4A5.28,5.28,0,0,1,163.3,20.5Zm.4,2.6v-.9c0-.3-.2-.3-.4-.3s-.4.1-.4.3c0,.6-.1,1.2-.1,1.8,0,.3.1.4.4.4s.5-.1.5-.3Z"/><path class="cls-2" d="M206.3,23.5h.9c.5,0,.5,0,.6.5.1.9.2,1.8.3,2.6.2,1.7.4,3.4.6,5,.1.7.2,1.5.3,2.2,0,.2-.1.3-.3.4-.9.2-.9.2-1-.7-.2-1.4-.5-2.8-.7-4.2,0-.3-.2-.4-.5-.4-.9-.1-.9-.1-1,.8-.2,1.3-.3,2.5-.5,3.8-.1.7-.1.7-.8.7h-.3a.27.27,0,0,1-.3-.3c.2-1.6.4-3.3.5-4.9s.4-3.3.6-5c0-.4.1-.4.5-.5Zm-.4,3h0v.4c0,.2,0,.3.3.4s.6,0,.6-.3c.1-.6.1-1.2.2-1.7,0-.2-.1-.4-.3-.4-.5,0-.6,0-.6.3A3,3,0,0,0,205.9,26.5Z"/><path class="cls-2" d="M200,31.9l-2.7-.3a1.77,1.77,0,0,1-1.4-1.1,5.33,5.33,0,0,1-.6-2.4,10.84,10.84,0,0,1,.4-4.4c.1-.4.3-.7.4-1.1a2,2,0,0,1,1.7-1.1,14.47,14.47,0,0,1,3.6-.1.37.37,0,0,1,.4.4v.7c0,.2-.1.4-.4.3H200a8.75,8.75,0,0,0-1.6.2,1.44,1.44,0,0,0-1.2.9,6.1,6.1,0,0,0-.6,3.3,5.85,5.85,0,0,0,.4,1.9,1.77,1.77,0,0,0,1.4,1.1,24.37,24.37,0,0,0,2.7.1c.6,0,.6,0,.6.6v.6a.37.37,0,0,1-.4.4h-1.4C200,31.8,200,31.9,200,31.9Z"/><path class="cls-2" d="M186.9,12c0,1.6.1,3.1.1,4.7v.6a1,1,0,0,1-.1.3H186c-.1,0-.1-.1-.1-.2v-.3c-.1-2.7-.1-5.3-.2-8,0-.7-.1-1.5-.1-2.2,0-.4,0-.4.4-.5.7,0,.7,0,.8.7.1,1.6.1,3.3.1,4.9Z"/><path class="cls-2" d="M177.5,27.2v3.7c0,.5,0,.5-.5.5-1,0-.9.1-.9-.9V23.2a.27.27,0,0,1,.3-.3c1.3,0,1-.1,1,1S177.5,26.2,177.5,27.2Z"/><path class="cls-2" d="M181.5,9.6a.52.52,0,0,1,.2.4,17.23,17.23,0,0,1,.7,2.1c.7,2.1,1.5,4.2,2.2,6.3.1.4.1.4-.3.6-.7.3-.7.3-.9-.4-1-2.7-1.9-5.4-2.9-8.1-.2-.4-.1-.5.3-.6A3.63,3.63,0,0,1,181.5,9.6Z"/><path class="cls-2" d="M189.2,18.9a1.42,1.42,0,0,1-.6-.2c-.2-.1-.2-.2-.2-.4.2-.9.5-1.7.7-2.6.5-2,1-3.9,1.5-5.9.1-.4.1-.4.5-.3.7.2.7.1.5.9-.7,2.7-1.4,5.4-2.2,8.1C189.6,18.7,189.5,18.9,189.2,18.9Z"/><path class="cls-2" d="M192.3,19a5.55,5.55,0,0,1-.8-.6,2.27,2.27,0,0,0,.1-.4c1.1-1.7,2.3-3.5,3.4-5.2.3-.4.5-.8.8-1.2.1-.2.3-.2.5-.1.8.5.7.4.3,1.1-1.3,2-2.6,4-4,6.1Z"/><path class="cls-2" d="M176.8,11.3c.1.1.1.3.2.4l2.7,3.3c.5.7,1.1,1.3,1.6,2,.3.3.3.3-.1.6-.6.5-.5.6-1.1-.1l-4.1-5c-.4-.4-.4-.4.1-.8C176.4,11.7,176.5,11.5,176.8,11.3Z"/><path class="cls-2" d="M175.4,16.3c.1.1.2.1.3.2l3.3,1.8c.3.1.3.3.2.5-.4.7-.3.8-1.1.3-1-.5-2-1.1-3-1.6-.4-.2-.4-.3-.2-.6.1-.1.1-.3.2-.4S175.3,16.4,175.4,16.3Z"/><path class="cls-2" d="M197,16c.1,0,.1.1.2.1.7.6.7.7,0,1.2s-1.2,1.1-1.8,1.6c-.3.3-.4.3-.6,0-.5-.6-.5-.5.1-1s1.2-1.1,1.9-1.7C196.8,16.1,196.9,16.1,197,16Z"/><path class="cls-2" d="M176.8,20.7c.7,0,.7,0,.7.7v.3a.27.27,0,0,1-.3.3H177c-.9,0-.9,0-.9-.9,0-.4,0-.4.4-.4Z"/><path class="cls-2" d="M190.5,26.6a4,4,0,0,1-4.2,4,4.08,4.08,0,0,1-4-4,4,4,0,0,1,3.9-4.1A4,4,0,0,1,190.5,26.6Zm-4.4,0v.1h1.5c.7.1,1.2-.4,1.8-.7.1,0,.1-.2.1-.3s-.2-.2-.2-.2c-.8,0-1.7-.2-2.4.5A2.41,2.41,0,0,1,186.1,26.6Zm.6-1a3.32,3.32,0,0,0-3.1,1A3.23,3.23,0,0,0,186.7,25.6Zm.8,1.6v-.1h-1.3a2.11,2.11,0,0,0-1.7.6.35.35,0,0,0-.1.2c.1,0,.1.1.2.1a10.82,10.82,0,0,0,1.8,0A5.94,5.94,0,0,0,187.5,27.2Zm-2.3,2a3.2,3.2,0,0,0,3-.8A3.15,3.15,0,0,0,185.2,29.2Zm4.9-2.1a2.73,2.73,0,0,0-2.7.8C188.5,28.2,189.8,27.8,190.1,27.1Zm-1.5-2.7a2.35,2.35,0,0,0-2.5.7A2.25,2.25,0,0,0,188.6,24.4Zm-3.1,4.1h0c-.1-.1-.1-.1-.2-.1H184a1.85,1.85,0,0,0-.7.2c.1.2.3.4.4.6s.3.2.4.1C184.7,29,185.1,28.7,185.5,28.5Zm-1.8-3.4a2.33,2.33,0,0,0,2.3-.7A2.57,2.57,0,0,0,183.7,25.1Zm2.2-1.3a2,2,0,0,0,2.1-.5.88.88,0,0,0-.8-.2A3.29,3.29,0,0,0,185.9,23.8Zm-1.7,0a2.56,2.56,0,0,0,2.2-.9A2.94,2.94,0,0,0,184.2,23.8Zm3.7,5.5c.9.2,1.5-.1,1.7-.8C189.3,28.3,188.3,28.8,187.9,29.3Zm-3.7-2.1v-.1a4.82,4.82,0,0,0-1.2,0,.22.22,0,0,0-.2.2.76.76,0,0,0,.2.5c0,.1.2.1.3,0Zm-1.5-.7a3.81,3.81,0,0,0,1.3-.9C182.8,25.5,182.8,25.5,182.7,26.5Zm3.7,3.7a2,2,0,0,0,1.6-.4A1.28,1.28,0,0,0,186.4,30.2Zm2.2-5.1h0a5.7,5.7,0,0,0,1.3.1,2.19,2.19,0,0,0-.3-.5.37.37,0,0,0-.3-.1A1.79,1.79,0,0,0,188.6,25.1Zm-4,4.6c.7.5,1,.5,1.4,0Zm4.3-5.8c-.3-.4-.6-.4-.8,0Zm1.3,2.4a.1.1,0,0,1-.1-.1c-.2.1-.3.2-.5.3v.1h.5C190.2,26.6,190.2,26.4,190.2,26.3Zm-6.3-1.9c-.4-.2-.6,0-.5.3A2.19,2.19,0,0,0,183.9,24.4Z"/><path class="cls-1" d="M189.45,174.5a15,15,0,1,0,15,15A15,15,0,0,0,189.45,174.5Z"/><path class="cls-2" d="M196.45,191l-10.6,6.1a1.51,1.51,0,0,1-2.2-1.3V183.2a1.51,1.51,0,0,1,2.2-1.3l10.6,6.5A1.5,1.5,0,0,1,196.45,191Z"/></svg>