<svg id="Camada_1" data-name="Camada 1" xmlns="http://www.w3.org/2000/svg" viewBox="0 0 219.1 219"><defs><style>.cls-1{fill:#be1b2e;}.cls-2{fill:#fff;}</style></defs><title>moldura_nobalancodoreggae</title><path class="cls-1" d="M208.9,0H10.1A10.07,10.07,0,0,0,0,10.1V209a10.05,10.05,0,0,0,10.1,10H209a10.07,10.07,0,0,0,10.1-10.1V10.1A10.22,10.22,0,0,0,208.9,0ZM215,208.9a6,6,0,0,1-6,6H67L54,194.7a11.53,11.53,0,0,0-7-5l-43-10V10.1a6,6,0,0,1,6-6H124.3L143.5,34a16.49,16.49,0,0,0,9.9,7L215,55.3V208.9Z"/><rect class="cls-2" x="208.46" y="25.53" width="1.1" height="4.8" transform="translate(114.48 216.43) rotate(-70.98)"/><rect class="cls-2" x="207.77" y="27.54" width="1.1" height="4.8" transform="translate(112.12 217.12) rotate(-70.98)"/><rect class="cls-2" x="171.59" y="27.63" width="4.8" height="1.1" transform="translate(1.84 65.99) rotate(-21.59)"/><rect class="cls-2" x="172.39" y="29.63" width="4.8" height="1.1" transform="translate(1.16 66.42) rotate(-21.59)"/><path class="cls-2" d="M191.6,38.7a13.8,13.8,0,1,1,13.8-13.8A13.83,13.83,0,0,1,191.6,38.7Zm0-27.4a13.5,13.5,0,1,0,13.5,13.5A13.51,13.51,0,0,0,191.6,11.3Z"/><path class="cls-2" d="M194.5,12.4l.2.3L192.8,14l-.8,3h.1a.73.73,0,0,1,.6-.2l1-2.5,2.4-1.3.3.5-2.2,1.2-.9,2.3.4.2,2.1-2.5,2.4-.7A11,11,0,0,0,194.5,12.4Z"/><path class="cls-2" d="M189.6,14.2l1,2.5a.73.73,0,0,1,.6.2l-.7-2.8-1.9-1.3.2-.3c-.5.1-1,.3-1.5.4Z"/><path class="cls-2" d="M187.6,14.4l2.1,2.6.4-.2-.9-2.3L187,13.3l.2-.4a11.08,11.08,0,0,0-1.9.9Z"/><path class="cls-2" d="M186,24.1l-.6,1.2-1.9,9.3a12,12,0,0,0,3.4,2.1Z"/><path class="cls-2" d="M183.6,24.4l2.5-2.5-3.5,1-2.9,6.4a15.93,15.93,0,0,0,1.5,2.9Z"/><path class="cls-2" d="M180.8,20.9l3.8-.8a1.39,1.39,0,0,1-.2-1.1,1.83,1.83,0,0,1,.8-1.3,2.6,2.6,0,0,1,1.5-.4,1.14,1.14,0,0,1,.8.3L186,16.4l-2.6.3-2.7,2.2-.2-.2a12,12,0,0,0-1.3,3.3Z"/><polygon class="cls-2" points="191.7 24.8 191.7 24.8 191.7 24.8 191.7 24.8 191.7 24.8"/><path class="cls-2" d="M199.1,24.7l-1.9-1.9v.4l1,2h0l1.9,9.2a18.48,18.48,0,0,0,1.4-1.4Z"/><path class="cls-2" d="M198,20a1.93,1.93,0,0,0,.3-1,1,1,0,0,0-.6-.9,2,2,0,0,0-1.1-.3,1.05,1.05,0,0,0-.9.5l1.2,2.3h.2A1.8,1.8,0,0,0,198,20Z"/><path class="cls-2" d="M193.2,32.1a9.22,9.22,0,0,1-.8.5c-.1,0-.2.1-.4.1h-.7a.76.76,0,0,1-.4-.1,4.05,4.05,0,0,1-.9-.5l1.6,3.3Z"/><path class="cls-2" d="M186.6,17.8a1.13,1.13,0,0,0-1.1.3,1.8,1.8,0,0,0-.6.9,1.46,1.46,0,0,0,1.3,1.6h.2l1.1-2.3A1.05,1.05,0,0,0,186.6,17.8Z"/><path class="cls-2" d="M196.6,22.1h0l-.1-.4h0l-.1-.7v-.1l-1.3-2.7c0-.1-.1-.1-.2-.2l-2.1-.9c-.1-.1-.3,0-.4.1l-.7.6h-.2l-.1-.1h0l-.5-.5a.31.31,0,0,0-.2-.1h-.1l-2.1.9c-.1,0-.1.1-.2.2L187,20.9V21l-.3,2h0l-.1.5v.2h0l1.4,3c0,.1.1.1.1.2l.5,2.8c0,.1,0,.1.1.2h0a11.38,11.38,0,0,0,2.5,2.1h.9a7.64,7.64,0,0,0,1.6-1.1h0a6.53,6.53,0,0,0,.9-1,.35.35,0,0,0,.1-.2l.5-2.8c0-.1,0-.1.1-.2l1.4-3.1v-.2Zm-8.5-.2a1.69,1.69,0,0,0-.7-.4l-.3-.1.3-.1a.76.76,0,0,0,.4-.2,1.9,1.9,0,0,1,.9-.3,1.87,1.87,0,0,1,.9.4h.1l.4,1.1-.5,2.3h-.2l.1-.4.1-2.2a2,2,0,0,1-.8.1A1.85,1.85,0,0,1,188.1,21.9Zm6.3,7.2h0l-.3.3h0c-.1,0-.2-.1-.3-.2a2.63,2.63,0,0,0-2.9-.7,3.75,3.75,0,0,0-1.2.7c-.1.1-.3.2-.4.1s-.2-.1-.3-.2a.76.76,0,0,1-.2-.5.75.75,0,0,1,.1-.5c.1-.1.3,0,.5,0h0c.2.1.7.2,1.5-.3h.1c.5-.2.6-.6.5-1.2l-.7-.7-.1-.1-.6-.3c-.1-.1-.2-.2-.2-.3l-.1-.2a.38.38,0,0,1,.3-.5h.4l1.2.3,1.2-.3h.4c.2.1.4.3.3.5l-.1.2c0,.1-.1.2-.2.3l-.6.3a.1.1,0,0,0-.1.1l-.5.6c.1.5.2,1,.5,1.2h0c.5.3.9.6,1.5.4h.1c.1,0,.2-.1.4,0a1,1,0,0,1,.2.7A1.38,1.38,0,0,0,194.4,29.1Zm1.4-7.7a2.77,2.77,0,0,0-.7.4.84.84,0,0,1-.7.2c-.3,0-.6-.1-.8-.1l.1,2.2.1.4h-.2l-.5-2.3.4-1.1h.1a1.87,1.87,0,0,1,.9-.4,1.22,1.22,0,0,1,.9.3.76.76,0,0,0,.4.2l.3.1Z"/><path class="cls-2" d="M183.1,16.2l3-.4,2.2,1.7.8-.3-1.9-2.3-2.3-.6.1-.3a11.51,11.51,0,0,0-4.1,4.1Z"/><path class="cls-2" d="M182.3,22.5l4-1.2v-.2h-.1a2.28,2.28,0,0,1-1.2-.6l-3.9.9-1.9,1.3a14.92,14.92,0,0,0-.2,2.1,11,11,0,0,0,.6,3.7Z"/><path class="cls-2" d="M194.5,31a1.38,1.38,0,0,1-.4.3l-2.5,5.4L189,31.3l-.2-.2,1.2,6.5a9.15,9.15,0,0,0,1.7.1,8.6,8.6,0,0,0,1.6-.1Z"/><path class="cls-2" d="M184.9,25.1l1.2-2.2v-.2l-1.9,2-2.5,8c.4.5.9,1,1.3,1.5Z"/><path class="cls-2" d="M190.9,13.7l.7,2.7.7-2.7,2-1.4a10.9,10.9,0,0,0-2.6-.3,11.76,11.76,0,0,0-2.7.3Z"/><path class="cls-2" d="M204.2,22.3l-.2.3-1.8-1.3-3.9-.8a2.28,2.28,0,0,1-1.2.6H197v.2l3.9,1.1,2.9,6.3a13.36,13.36,0,0,0,.6-4A6.87,6.87,0,0,0,204.2,22.3Z"/><path class="cls-2" d="M199.8,34.7l-2-9.4-.6-1.2v.1h0l-.8,12.5A9.84,9.84,0,0,0,199.8,34.7Z"/><path class="cls-2" d="M198.3,14.3l-2.3.6-1.9,2.3.9.3,2.1-1.7,3,.4,2.6,2.1-.3.4-2.4-2-2.6-.3-1.8,1.4h0a1.61,1.61,0,0,1,1.1-.5,2,2,0,0,1,1.5.4A2.22,2.22,0,0,1,199,19a1.39,1.39,0,0,1-.2,1.1l3.7.8,1.8,1.2a12.9,12.9,0,0,0-6.1-8.3Z"/><path class="cls-2" d="M196.6,25.5l-.7,1.6v.1l-.5,2.8c0,.1,0,.2-.1.2l-1.4,7.3a14.62,14.62,0,0,0,2-.5Z"/><path class="cls-2" d="M188.2,30.3c-.1-.1-.1-.2-.2-.3l-.5-2.8v-.1l-.8-1.8.8,11.6,2.1.6Z"/><path class="cls-2" d="M203.4,29.2,200.5,23l-3.4-1,2.4,2.5h0l2.4,7.9a12.89,12.89,0,0,0,1.7-3.3Z"/><path class="cls-2" d="M175.8,38.3l.1-.1.2-.2.3-.3a3.81,3.81,0,0,1,.6-.5l.2-.2c.1-.1.1-.1.1-.2v-.2l-.1-.2-1.8,1.2-.8-1.2,4.6-3,1.1,1.7a1.33,1.33,0,0,1,.3.7.45.45,0,0,1,0,.5c0,.2-.1.3-.3.5a2.18,2.18,0,0,1-.5.4.86.86,0,0,1-.6.3.76.76,0,0,1-.4.1h-.3c-.1,0-.2-.1-.3-.1h0v.1a.31.31,0,0,1-.1.2q0,.15-.3.3l-.5.5-.4.4-.2.2-.1.1-.1.1h0Zm2.4-2.2c.1.1.2.2.3.2a1.69,1.69,0,0,0,.5-.2q.3-.15.3-.3a.37.37,0,0,0-.1-.3l-.2-.3-1,.7Z"/><path class="cls-2" d="M179.9,42.3l2.7-4.8,2.7,1.5-.6,1-1.4-.8-.5.8,1.4.8-.6,1-1.4-.8-.5.9,1.4.8-.6,1.1Z"/><path class="cls-2" d="M189,43.4l-.7-.1.2-1.1,1.9.3a.76.76,0,0,1-.1.4c0,.2-.1.4-.1.7s-.1.5-.1.7a4.33,4.33,0,0,1-.1.5c0,.1-.1.2-.1.3l-.2.2c-.1.1-.2.1-.2.2s-.2.1-.3.1h-.4a1.27,1.27,0,0,1-.6-.1,6.21,6.21,0,0,1-1-.3,1,1,0,0,1-.5-.4c0-.1-.1-.2-.1-.3V43.4a6.53,6.53,0,0,1,.2-1.1,8.66,8.66,0,0,1,.2-1c.1-.3.1-.5.2-.6s.1-.3.2-.4.1-.2.2-.2a1.63,1.63,0,0,1,.6-.3,4.14,4.14,0,0,1,1,.1,5.31,5.31,0,0,1,1.1.3.68.68,0,0,1,.4.6v1.1l-1.3-.2h0v-.5c0-.1-.1-.2-.4-.2h-.3c-.1,0-.1,0-.1.1a.1.1,0,0,1-.1.1.31.31,0,0,1-.1.2c0,.1-.1.2-.1.4s-.1.4-.1.7a2.25,2.25,0,0,0-.1.7c0,.2,0,.3-.1.4v.3c0,.1.2.2.4.2h.3c.1,0,.1,0,.2-.1l.1-.1v-.5Z"/><path class="cls-2" d="M195.7,43.2l-.7.1-.2-1.1,1.9-.3c0,.1.1.2.1.4s.1.4.1.7a2,2,0,0,1,.1.7v.8c0,.1-.1.2-.1.3a.22.22,0,0,1-.2.2c-.1.1-.2.1-.3.2s-.2.1-.4.1-.3.1-.6.1a4.14,4.14,0,0,1-1,.1.86.86,0,0,1-.6-.3c-.1-.1-.1-.2-.2-.2s-.1-.2-.2-.4a6.37,6.37,0,0,1-.2-.7c-.1-.3-.1-.6-.2-1.1a8.66,8.66,0,0,0-.2-1c0-.3-.1-.5-.1-.7v-.4c0-.1.1-.2.1-.3a.7.7,0,0,1,.5-.4,4.05,4.05,0,0,1,1-.3,2,2,0,0,1,1.1,0,.92.92,0,0,1,.6.4,3.39,3.39,0,0,1,.3.8v.3l-1.3.2h0a.37.37,0,0,0-.1-.3c0-.1,0-.1-.1-.1s-.2-.1-.4-.1a.37.37,0,0,0-.3.1.1.1,0,0,0-.1.1v.3a.76.76,0,0,0,.1.4c0,.2.1.4.1.7a2.25,2.25,0,0,1,.1.7c0,.2.1.3.1.4s0,.2.1.2a.1.1,0,0,0,.1.1c.1.1.2.1.5.1a.37.37,0,0,0,.3-.1.1.1,0,0,0,.1-.1v-.7Z"/><path class="cls-2" d="M202.9,42.6l-.8-1-.6.4.6,1.2-1.2.7-2.2-5.1,2.1-1.2,3.4,4.4ZM200.2,39h0l.7,1.9.5-.3Z"/><path class="cls-2" d="M207.2,38.8l-4.7-2.9,1.6-2.6,1,.6-.8,1.4.8.5.8-1.4,1,.6-.8,1.4.9.5.8-1.4,1,.6Z"/><path class="cls-2" d="M177,21.6l-2.9.9h0l2.8.3-.1,1-5.2-.6.1-1.1,1.9-.5h0l-1.8-.2.1-1,5.2.6Z"/><path class="cls-2" d="M178,17.4c.1.1.1.1.1.2v.3a.37.37,0,0,1-.1.3c0,.1-.1.3-.1.4a4.35,4.35,0,0,1-.4.7.76.76,0,0,1-.5.2h-.3a.76.76,0,0,1-.4-.1,1.42,1.42,0,0,1-.6-.2,6.31,6.31,0,0,1-.9-.4c-.4-.2-.7-.3-.9-.4l-.6-.3c-.1-.1-.2-.2-.3-.2l-.2-.2c-.1-.1-.1-.1-.1-.2v-.3a.37.37,0,0,1,.1-.3c0-.1.1-.3.1-.4a4.35,4.35,0,0,1,.4-.7.76.76,0,0,1,.5-.2h.3a.76.76,0,0,1,.4.1,1.42,1.42,0,0,1,.6.2,6.31,6.31,0,0,1,.9.4c.4.2.7.3.9.4l.6.3c.1.1.2.2.3.2Zm-1.1.5a.1.1,0,0,1-.1-.1.35.35,0,0,0-.2-.1c-.1,0-.2-.1-.4-.2l-.6-.3a1.63,1.63,0,0,1-.6-.3.76.76,0,0,0-.4-.1.35.35,0,0,1-.2-.1h-.2a.35.35,0,0,0-.1.2v.2a.1.1,0,0,0,.1.1l.1.1a.35.35,0,0,0,.2.1c.1,0,.2.1.4.2l.6.3a1.63,1.63,0,0,1,.6.3.76.76,0,0,0,.4.1.35.35,0,0,1,.2.1h.2a.35.35,0,0,0,.1-.2V18C176.9,18,176.9,18,176.9,17.9Z"/><path class="cls-2" d="M180.3,14.6l-3.6-3.8,1.1-1.1c.2-.2.3-.3.5-.3a.6.6,0,0,1,.4-.1.76.76,0,0,1,.4.2,1.76,1.76,0,0,1,.5.4c.1.1.2.3.3.3s.1.2.2.3.1.1.1.2v.2h.4c.1,0,.2.1.3.2s.3.2.5.4a1.76,1.76,0,0,1,.4.5c.1.2.2.3.2.4a.6.6,0,0,1-.1.4c-.1.1-.2.3-.4.5Zm-1.1-3.2a.31.31,0,0,0,.1-.2c0-.1-.1-.2-.3-.4a1.44,1.44,0,0,0-.3-.2c-.1,0-.2,0-.2.1l-.2.2.8.8Zm1.4,1.4a.31.31,0,0,0,.1-.2c0-.1-.1-.2-.2-.3s-.3-.3-.4-.3h-.3l-.3.3.8.8Z"/><path class="cls-2" d="M184.6,11.2l-.7-1-.5.3.5,1.1-1,.5L181,7.2l1.6-.9,3,4.3Zm-2.3-3.5h0l.7,1.8.4-.2Z"/><path class="cls-2" d="M186.6,10.2l-1.4-5,1-.3,1.1,3.9,1.1-.3.3,1.1Z"/><path class="cls-2" d="M191.4,9.4l-.1-1.2h-.5V9.4h-1.1l.4-5.2,1.8-.1.7,5.2ZM191,5.3h0l-.2,1.9h.4Z"/><path class="cls-2" d="M195.8,10l-.6-3h0l-.6,2.7-1-.2,1.2-5.1,1,.2.3,1.9h0l.4-1.8,1,.2L196.3,10Z"/><polygon class="cls-2" points="197.3 11.7 197.8 11.2 198.8 11.8 198.3 12.2 197.3 11.7"/><path class="cls-2" d="M200.8,10.1c-.1.2-.1.3-.2.4s-.3.4-.4.6-.3.3-.4.4a.75.75,0,0,1-.5.1,1.33,1.33,0,0,1-.7-.3,4.23,4.23,0,0,1-.7-.5.76.76,0,0,1-.2-.5V10c0-.1.1-.2.1-.4l.3-.6c.1-.2.3-.5.5-.9a9,9,0,0,0,.5-.9,2.19,2.19,0,0,1,.3-.5l.3-.3.2-.2a.9.9,0,0,1,.5-.1,1.33,1.33,0,0,1,.7.3,1.54,1.54,0,0,1,.6.4.76.76,0,0,1,.2.4.9.9,0,0,1-.1.5l-.3.6c0,.1-.1.1-.1.2s-.1.1-.1.2l-.9-.5c.1-.1.1-.2.2-.3a.35.35,0,0,1,.1-.2c0-.1,0-.1.1-.1V7.5c0-.1,0-.2-.2-.3s-.1-.1-.2-.1a.1.1,0,0,0-.1.1l-.1.1a.35.35,0,0,0-.1.2c-.1.1-.1.2-.2.4l-.3.6a1.63,1.63,0,0,1-.3.6c-.1.2-.1.3-.2.4a.35.35,0,0,1-.1.2v.2a.35.35,0,0,0,.2.1.19.19,0,0,0,.3,0l.1-.1.1-.1c0-.1.1-.1.1-.2a.35.35,0,0,1,.1-.2Z"/><path class="cls-2" d="M202.8,14h-.3a.37.37,0,0,1-.3-.1c-.1,0-.2-.1-.3-.2l-.3-.3a2.65,2.65,0,0,1-.5-.6.9.9,0,0,1-.1-.5c0-.1.1-.2.1-.3s.1-.2.2-.3.2-.3.4-.5l.7-.7.7-.7a1.76,1.76,0,0,1,.5-.4c.1-.1.2-.2.3-.2s.2-.1.3-.1h.3a.37.37,0,0,1,.3.1c.1,0,.2.1.3.2l.3.3a2.65,2.65,0,0,1,.5.6.9.9,0,0,1,.1.5c0,.1-.1.2-.1.3s-.1.2-.2.3-.2.3-.4.5l-.7.7-.7.7a1.76,1.76,0,0,1-.5.4c-.1.1-.2.2-.3.2A.37.37,0,0,1,202.8,14Zm-.1-1.2a.1.1,0,0,0,.1-.1l.2-.2.3-.3.5-.5.5-.5.3-.3c.1-.1.1-.1.1-.2a.1.1,0,0,1,.1-.1v-.1a.35.35,0,0,1-.1-.2c-.1-.1-.1-.1-.2-.1h-.1a.1.1,0,0,0-.1.1l-.2.2-.3.3-.5.5c-.2.2-.3.4-.5.5l-.3.3c-.1.1-.1.1-.1.2l-.1.1v.1a.35.35,0,0,1,.1.2c.1.1.1.1.2.1Z"/><path class="cls-2" d="M204.7,17.2l4.8-2,.6,1.3a4.08,4.08,0,0,1,.2.7.75.75,0,0,1-.1.5l-.2.2c-.1.1-.2.1-.3.2a2.19,2.19,0,0,1-.5.3c-.2.1-.5.2-.9.4s-.7.3-.9.4a1.42,1.42,0,0,1-.6.2c-.2,0-.3.1-.4.1h-.3c-.1,0-.2,0-.2-.1s-.1-.1-.2-.2-.1-.2-.2-.3-.1-.2-.2-.4Zm1.6.9c0,.1.1.1.1.2h.2a.31.31,0,0,0,.2-.1c.1,0,.2-.1.4-.1s.4-.1.6-.2l.6-.3c.2-.1.3-.1.4-.2a.35.35,0,0,0,.2-.1l.1-.1v-.3l-.1-.3-2.7,1.2Z"/><path class="cls-2" d="M206.7,23.3a.35.35,0,0,1-.2-.1l-.2-.2c0-.1-.1-.2-.1-.3s-.1-.3-.1-.4v-.8c0-.2.1-.3.3-.4s.2-.1.2-.2.2-.1.4-.1.4-.1.6-.1.6-.1,1-.1a3.75,3.75,0,0,1,1-.1h1a.37.37,0,0,1,.3.1.35.35,0,0,1,.2.1l.2.2c0,.1.1.2.1.3s.1.3.1.4v.8c0,.2-.1.3-.3.4s-.2.1-.2.2-.2.1-.4.1-.4.1-.6.1-.6.1-1,.1a3.75,3.75,0,0,1-1,.1h-1A.37.37,0,0,1,206.7,23.3Zm.8-1h.7a2,2,0,0,0,.7-.1c.3,0,.5-.1.7-.1s.3,0,.4-.1.2,0,.2-.1h.1l.1-.1v-.2c0-.1,0-.1-.1-.2l-.1-.1h-.7c-.2,0-.4.1-.7.1s-.5.1-.7.1-.3,0-.4.1-.2,0-.2.1h-.1l-.1.1V22c0,.1,0,.1.1.2S207.4,22.3,207.5,22.3Z"/><path class="cls-1" d="M189.45,174.5a15,15,0,1,0,15,15A15,15,0,0,0,189.45,174.5Z"/><path class="cls-2" d="M196.45,191l-10.6,6.1a1.51,1.51,0,0,1-2.2-1.3V183.2a1.51,1.51,0,0,1,2.2-1.3l10.6,6.5A1.5,1.5,0,0,1,196.45,191Z"/></svg>