<svg xmlns="http://www.w3.org/2000/svg" viewBox="0 0 219.1 219"><defs><style>.cls-1{fill:#be1b2e;}.cls-2{fill:#fff;}.cls-3{fill:none;}</style></defs><title>moldura_encontrocomochorinho</title><g id="Camada_1" data-name="Camada 1"><path class="cls-1" d="M208.9,0H10.1A10.05,10.05,0,0,0,0,10V209a10,10,0,0,0,10.1,10H209a10.05,10.05,0,0,0,10.1-10V10.1A10.22,10.22,0,0,0,208.9,0ZM215,208.9a6,6,0,0,1-6,6H67L54,194.7a11.53,11.53,0,0,0-7-5l-43-10V10.1a6,6,0,0,1,6-6H124.3L143.5,34a16.49,16.49,0,0,0,9.9,7L215,55.3Z" transform="translate(0 0)"/><path class="cls-1" d="M189.4,174.5a15,15,0,1,0,15,15,15,15,0,0,0-15-15Z" transform="translate(0 0)"/></g><g id="Camada_4" data-name="Camada 4"><path class="cls-2" d="M196.4,191l-10.6,6.1a1.62,1.62,0,0,1-2.2-1.3V183.2a1.56,1.56,0,0,1,1.6-1.5,1.42,1.42,0,0,1,.6.2l10.6,6.5a1.49,1.49,0,0,1,.6,2A.9.9,0,0,1,196.4,191Z" transform="translate(0 0)"/></g><g id="Camada_2" data-name="Camada 2"><path class="cls-3" d="M177.72,15.92a.41.41,0,0,0,.27.1.45.45,0,0,0,.27-.1.41.41,0,0,0,.11-.3V13.53a.41.41,0,0,0-.11-.3.44.44,0,0,0-.27-.09.4.4,0,0,0-.27.09.37.37,0,0,0-.11.3v2.09A.37.37,0,0,0,177.72,15.92Z" transform="translate(0 0)"/><path class="cls-3" d="M176,13.29a.45.45,0,0,0-.4-.15h-.29v1.22h.32a.55.55,0,0,0,.24,0,.27.27,0,0,0,.14-.12A.47.47,0,0,0,176,14a3.38,3.38,0,0,0,0-.52A.59.59,0,0,0,176,13.29Z" transform="translate(0 0)"/><path class="cls-3" d="M180.53,20.86l-.06-.25c0-.08,0-.16-.06-.25a2.17,2.17,0,0,0-.15-.35,1.15,1.15,0,0,0-.21-.33,2.5,2.5,0,0,0-.39-.34,1.1,1.1,0,0,0-.49-.17.31.31,0,0,0-.21,0,.22.22,0,0,0-.08.14.65.65,0,0,0,0,.2,1.48,1.48,0,0,1,0,.21v3.53c0,.25.06.37.17.38a1,1,0,0,0,.44-.13,1,1,0,0,0,.31-.19,3.18,3.18,0,0,0,.26-.26,1.16,1.16,0,0,0,.26-.39,1.85,1.85,0,0,0,.22-.65,1.53,1.53,0,0,0,0-.3c0-.1,0-.2,0-.32a2.28,2.28,0,0,1,0-.27A1.5,1.5,0,0,0,180.53,20.86Z" transform="translate(0 0)"/><path class="cls-3" d="M174.9,21.19h0l-.05-.62V20.4a.76.76,0,0,1,0-.15l-.1-.5a2.85,2.85,0,0,0-.09-.44,1.65,1.65,0,0,0-.18-.41,1.74,1.74,0,0,0-.2-.3.72.72,0,0,0-.59-.2.92.92,0,0,0-.55.32l0,0A1.64,1.64,0,0,0,173,19c0,.08-.07.16-.1.25l-.1.33,0,.2-.06.46-.05.42,0,.6v.36l-.05.6c0,.15,0,.3,0,.43s0,.27,0,.41,0,.24,0,.34,0,.21,0,.33v1c0,.17,0,.37,0,.59s0,.43.06.6a.43.43,0,0,0,0,.12,5.42,5.42,0,0,0,.13.74,2.25,2.25,0,0,0,.3.7.87.87,0,0,0,.12.14l.14.13.24.15a.58.58,0,0,0,.41,0,1.27,1.27,0,0,0,.33-.24l0,0a1.05,1.05,0,0,0,.15-.21c0-.06.05-.14.08-.24s.09-.21.11-.28,0-.16.06-.3l0-.26a2.32,2.32,0,0,0,.05-.38c0-.14,0-.26,0-.39l0-.43,0-.7,0-.54c0-.12,0-.25,0-.38v-.37c0-.13,0-.27,0-.4v-.4c0-.18,0-.38,0-.58S174.9,21.38,174.9,21.19Z" transform="translate(0 0)"/><path class="cls-3" d="M168.7,15.92a.41.41,0,0,0,.54,0,.41.41,0,0,0,.11-.3V13.53a.41.41,0,0,0-.11-.3.45.45,0,0,0-.54,0,.37.37,0,0,0-.11.3v2.09A.37.37,0,0,0,168.7,15.92Z" transform="translate(0 0)"/><path class="cls-3" d="M183.36,15.92a.45.45,0,0,0,.27.1.41.41,0,0,0,.27-.1.37.37,0,0,0,.11-.3V13.53a.37.37,0,0,0-.11-.3.4.4,0,0,0-.27-.09.44.44,0,0,0-.27.09.41.41,0,0,0-.11.3v2.09A.41.41,0,0,0,183.36,15.92Z" transform="translate(0 0)"/><path class="cls-3" d="M202.13,21.19h0l0-.62V20.4a.76.76,0,0,1,0-.15l-.1-.5a2.85,2.85,0,0,0-.09-.44,1.65,1.65,0,0,0-.18-.41,1.74,1.74,0,0,0-.2-.3.72.72,0,0,0-.59-.2.92.92,0,0,0-.55.32l0,0a1.07,1.07,0,0,0-.15.22c0,.08-.07.16-.1.25l-.1.33,0,.2-.06.46,0,.42-.05.6v.36l-.05.6c0,.15,0,.3,0,.43s0,.27,0,.41,0,.24,0,.34,0,.21,0,.33v1c0,.17,0,.37,0,.59s0,.43.06.6a.43.43,0,0,0,0,.12,5.42,5.42,0,0,0,.13.74,2.51,2.51,0,0,0,.3.7.87.87,0,0,0,.12.14l.14.13.24.15a.58.58,0,0,0,.41,0,1.27,1.27,0,0,0,.33-.24l0,0a1.05,1.05,0,0,0,.15-.21c0-.06.05-.14.08-.24s.09-.21.11-.28,0-.16.06-.3l0-.26a2.32,2.32,0,0,0,0-.38c0-.14,0-.26,0-.39l0-.43,0-.7,0-.54c0-.12,0-.25,0-.38v-.37c0-.13,0-.27,0-.4v-.4c0-.18,0-.38,0-.58S202.13,21.38,202.13,21.19Z" transform="translate(0 0)"/><polygon class="cls-2" points="163.88 14.18 163.9 14.18 164.76 16.55 165.29 16.55 165.29 12.6 164.73 12.6 164.73 14.98 164.72 14.98 163.86 12.6 163.32 12.6 163.32 16.55 163.88 16.55 163.88 14.18"/><path class="cls-2" d="M177.35,16.34a.75.75,0,0,0,.3.18,1,1,0,0,0,.34.06,1,1,0,0,0,.34-.06,1.09,1.09,0,0,0,.31-.18,1,1,0,0,0,.21-.3.9.9,0,0,0,.08-.42V13.53a.95.95,0,0,0-.29-.72,1.09,1.09,0,0,0-.31-.18,1,1,0,0,0-.34-.06,1,1,0,0,0-.34.06.75.75,0,0,0-.3.18.86.86,0,0,0-.23.3,1.12,1.12,0,0,0-.08.42v2.09a1,1,0,0,0,.08.42A.86.86,0,0,0,177.35,16.34Zm.26-2.81a.37.37,0,0,1,.11-.3.4.4,0,0,1,.27-.09.44.44,0,0,1,.27.09.41.41,0,0,1,.11.3v2.09a.41.41,0,0,1-.11.3.45.45,0,0,1-.27.1.41.41,0,0,1-.27-.1.37.37,0,0,1-.11-.3Z" transform="translate(0 0)"/><path class="cls-2" d="M166.07,16.38a.73.73,0,0,0,.3.16,1.24,1.24,0,0,0,.33,0,.84.84,0,0,0,.35-.07.83.83,0,0,0,.28-.21.84.84,0,0,0,.2-.29,1,1,0,0,0,.07-.34v-.25H167v.2a.54.54,0,0,1,0,.19.38.38,0,0,1-.09.12.35.35,0,0,1-.12.07l-.11,0a.29.29,0,0,1-.27-.12.52.52,0,0,1-.08-.29v-2a.72.72,0,0,1,.07-.32.29.29,0,0,1,.28-.13.32.32,0,0,1,.26.12.45.45,0,0,1,.09.28v.19h.57v-.22a1.22,1.22,0,0,0-.07-.38,1,1,0,0,0-.2-.3.85.85,0,0,0-.64-.26,1,1,0,0,0-.38.07.85.85,0,0,0-.48.48,1,1,0,0,0-.06.36v2.17a1.17,1.17,0,0,0,.08.45A.88.88,0,0,0,166.07,16.38Z" transform="translate(0 0)"/><path class="cls-2" d="M180.74,16.38a.64.64,0,0,0,.29.16,1.29,1.29,0,0,0,.33,0,.81.81,0,0,0,.35-.07.86.86,0,0,0,.29-.21,1,1,0,0,0,.19-.29.8.8,0,0,0,.07-.34v-.25h-.57v.2a.54.54,0,0,1,0,.19.36.36,0,0,1-.08.12l-.12.07-.12,0a.29.29,0,0,1-.27-.12.52.52,0,0,1-.07-.29v-2a.73.73,0,0,1,.06-.32.29.29,0,0,1,.28-.13.31.31,0,0,1,.26.12.45.45,0,0,1,.09.28v.19h.57v-.22a1,1,0,0,0-.07-.38,1.17,1.17,0,0,0-.19-.3,1,1,0,0,0-1-.19.86.86,0,0,0-.29.19.7.7,0,0,0-.19.29.86.86,0,0,0-.07.36v2.17a1,1,0,0,0,.09.45A.76.76,0,0,0,180.74,16.38Z" transform="translate(0 0)"/><path class="cls-2" d="M183,16.34a.92.92,0,0,0,.3.18,1,1,0,0,0,.34.06,1,1,0,0,0,.34-.06.87.87,0,0,0,.31-.18,1,1,0,0,0,.22-.3,1,1,0,0,0,.08-.42V13.53a1.12,1.12,0,0,0-.08-.42,1,1,0,0,0-.22-.3.87.87,0,0,0-.31-.18,1,1,0,0,0-.34-.06,1,1,0,0,0-.34.06.92.92,0,0,0-.3.18.84.84,0,0,0-.22.3,1,1,0,0,0-.08.42v2.09a.9.9,0,0,0,.08.42A.84.84,0,0,0,183,16.34Zm.26-2.81a.41.41,0,0,1,.11-.3.44.44,0,0,1,.27-.09.4.4,0,0,1,.27.09.37.37,0,0,1,.11.3v2.09a.37.37,0,0,1-.11.3.41.41,0,0,1-.27.1.45.45,0,0,1-.27-.1.41.41,0,0,1-.11-.3Z" transform="translate(0 0)"/><path class="cls-2" d="M168.33,16.34a.92.92,0,0,0,.3.18,1,1,0,0,0,.34.06,1,1,0,0,0,.34-.06,1.09,1.09,0,0,0,.31-.18.81.81,0,0,0,.21-.3.9.9,0,0,0,.09-.42V13.53a1,1,0,0,0-.09-.42.81.81,0,0,0-.21-.3,1.09,1.09,0,0,0-.31-.18,1,1,0,0,0-.34-.06,1,1,0,0,0-.34.06.92.92,0,0,0-.3.18.86.86,0,0,0-.23.3,1.12,1.12,0,0,0-.08.42v2.09a1,1,0,0,0,.08.42A.86.86,0,0,0,168.33,16.34Zm.26-2.81a.37.37,0,0,1,.11-.3.45.45,0,0,1,.54,0,.41.41,0,0,1,.11.3v2.09a.41.41,0,0,1-.11.3.41.41,0,0,1-.54,0,.37.37,0,0,1-.11-.3Z" transform="translate(0 0)"/><polygon class="cls-2" points="173.25 16.55 173.81 16.55 173.81 13.13 174.46 13.13 174.46 12.6 172.59 12.6 172.59 13.13 173.25 13.13 173.25 16.55"/><polygon class="cls-2" points="162.97 15.98 161.86 15.98 161.86 14.82 162.83 14.82 162.83 14.29 161.86 14.29 161.86 13.13 162.97 13.13 162.97 12.6 161.29 12.6 161.29 16.55 162.97 16.55 162.97 15.98"/><polygon class="cls-2" points="185.64 14.15 185.65 14.15 186.21 15.84 186.49 15.84 187.05 14.15 187.06 14.15 187.06 16.55 187.63 16.55 187.63 12.6 187.08 12.6 186.36 14.69 186.35 14.69 185.62 12.6 185.08 12.6 185.08 16.55 185.64 16.55 185.64 14.15"/><path class="cls-2" d="M184.6,24.74a.66.66,0,0,0,0-.15V18.9a.77.77,0,0,1,.08-.31,1.15,1.15,0,0,1,.15-.2l.14-.18a.52.52,0,0,0,.08-.24c0-.17,0-.28-.1-.33a.83.83,0,0,0-.35-.07H183a.65.65,0,0,0-.25,0,.42.42,0,0,0-.18.11.29.29,0,0,0-.06.24.58.58,0,0,0,.07.26,1.07,1.07,0,0,0,.14.16l.14.17a.94.94,0,0,1,.1.26V20.3c0,.12,0,.24,0,.36s0,0,0,0v2.23c0,.25,0,.5,0,.75v.5c0,.12,0,.25,0,.38v.38c0,.25,0,.48,0,.72s0,.46,0,.69,0,.44,0,.68a1.46,1.46,0,0,1-.12.67,1,1,0,0,1-.13.21l-.15.2a.45.45,0,0,0-.08.35.29.29,0,0,0,.26.23H183a1.09,1.09,0,0,0,.29,0,2,2,0,0,1,.35,0h.66l.31,0a.41.41,0,0,0,.36-.15.45.45,0,0,0,0-.4.55.55,0,0,0-.14-.21l-.15-.16a.52.52,0,0,1-.1-.18.57.57,0,0,1,0-.28c0-.15,0-.31,0-.48V24.74Z" transform="translate(0 0)"/><path class="cls-2" d="M176.51,14.35a1.48,1.48,0,0,0,.11-.59c0-.77-.33-1.16-1-1.16h-.91v4h.57V14.86h.34l.52,1.69h.6l-.61-1.8A.82.82,0,0,0,176.51,14.35ZM176,14a.47.47,0,0,1-.06.19.27.27,0,0,1-.14.12.55.55,0,0,1-.24,0h-.32V13.14h.29a.45.45,0,0,1,.4.15.59.59,0,0,1,.07.2,3.38,3.38,0,0,1,0,.52Z" transform="translate(0 0)"/><path class="cls-2" d="M182.55,29.51a1.19,1.19,0,0,0-.15-.18,1.33,1.33,0,0,1-.14-.19.37.37,0,0,1-.07-.14,1.21,1.21,0,0,0-.05-.14l-.17-.71-.3-1.41c0-.14,0-.25-.06-.34l-.1-.44,0-.2a1.77,1.77,0,0,1,0-.2,1.17,1.17,0,0,0-.05-.2q0-.18-.06-.33c0-.09-.06-.19-.1-.3a1.67,1.67,0,0,0-.11-.23.51.51,0,0,1-.08-.17.25.25,0,0,1,0-.17.59.59,0,0,1,.12-.21,3.38,3.38,0,0,0,.46-.7,1.77,1.77,0,0,0,.15-.31c0-.1.08-.21.12-.32l.1-.37.08-.44a4.53,4.53,0,0,0,.05-.9c0-.1,0-.2,0-.3s0-.19,0-.28l-.06-.27c0-.08,0-.17,0-.26l-.17-.45a.9.9,0,0,0-.12-.24l-.14-.24a4.29,4.29,0,0,0-.4-.43,2.51,2.51,0,0,0-.6-.4,5.67,5.67,0,0,0-.72-.25,4.18,4.18,0,0,0-.68-.11c-.23,0-.46,0-.7,0h-1.07a1.49,1.49,0,0,0-.3,0,.41.41,0,0,0-.22.1.4.4,0,0,0-.09.2.67.67,0,0,0,0,.24.47.47,0,0,0,.12.19c.11.13.19.21.23.27a.62.62,0,0,1,.09.35v5.64c0,.08,0,.16,0,.23a1.07,1.07,0,0,0,0,.25v2.11a1.12,1.12,0,0,1,0,.29.48.48,0,0,1-.07.18l-.12.16c0,.06-.1.12-.16.2a.54.54,0,0,0-.08.35.25.25,0,0,0,.19.26.61.61,0,0,0,.19,0h.28a1.77,1.77,0,0,1,.46,0h1.18c.14,0,.23-.1.25-.27a.51.51,0,0,0,0-.29,1,1,0,0,0-.15-.2,1.63,1.63,0,0,1-.17-.2.63.63,0,0,1-.09-.31c0-.22,0-.44,0-.66s0-.44,0-.67v-.94a1.21,1.21,0,0,0,0-.18,1.55,1.55,0,0,1,0-.22.26.26,0,0,1,.07-.15s.1,0,.18,0a1.38,1.38,0,0,1,.49.38,2.51,2.51,0,0,1,.34.53l0,0a3.45,3.45,0,0,1,.24.79c.06.28.1.55.14.81l.06.76c0,.25.06.5.1.75s.05.3.07.45,0,.3.07.46a1.8,1.8,0,0,0,.1.39c0,.09.16.15.34.17a5,5,0,0,0,.55,0h.81c.08,0,.13-.05.15-.16a.47.47,0,0,0,0-.28A1.31,1.31,0,0,0,182.55,29.51Zm-2-7.77a1.53,1.53,0,0,1,0,.3,1.85,1.85,0,0,1-.22.65,1.16,1.16,0,0,1-.26.39,3.18,3.18,0,0,1-.26.26,1,1,0,0,1-.31.19,1,1,0,0,1-.44.13c-.11,0-.17-.13-.17-.38V19.75a1.48,1.48,0,0,0,0-.21.65.65,0,0,1,0-.2.22.22,0,0,1,.08-.14.31.31,0,0,1,.21,0,1.1,1.1,0,0,1,.49.17,2.5,2.5,0,0,1,.39.34,1.15,1.15,0,0,1,.21.33,2.17,2.17,0,0,1,.15.35c0,.09,0,.17.06.25l.06.25a1.5,1.5,0,0,1,0,.29,2.28,2.28,0,0,0,0,.27C180.57,21.54,180.56,21.64,180.56,21.74Z" transform="translate(0 0)"/><path class="cls-2" d="M190.88,16.11l.25-.31a.72.72,0,0,0,.1-.35.27.27,0,0,0-.18-.28l-.22,0h-1.32a2.09,2.09,0,0,0-.42,0c-.12,0-.18.11-.18.32a.55.55,0,0,0,.12.4.77.77,0,0,1,.21.31.51.51,0,0,0,0,.1,1.15,1.15,0,0,1,0,.19v4a2.72,2.72,0,0,0,0,.28c0,.09,0,.18,0,.27s0,0,0,.09l0,.11a.13.13,0,0,1-.05.07.06.06,0,0,1-.08,0,1.65,1.65,0,0,1-.11-.19c-.05-.1-.1-.2-.15-.32s-.1-.23-.14-.34a2.09,2.09,0,0,0-.1-.23l-.36-.78-.32-.72-.25-.51a1,1,0,0,1-.08-.18,1.3,1.3,0,0,0-.08-.17.36.36,0,0,0-.3-.17h-1.36c-.19,0-.3.1-.32.24a.6.6,0,0,0,.1.42.46.46,0,0,0,.13.18l.09.1a.47.47,0,0,1,.08.14A1,1,0,0,1,186,19v4.5c0,.14,0,.28,0,.42s0,.28,0,.43,0,.37,0,.54l0,.55c0,.1,0,.2,0,.3s0,.2,0,.3v1.43a.52.52,0,0,1-.16.34.76.76,0,0,0-.22.27.61.61,0,0,0-.08.26.77.77,0,0,0,0,.27.26.26,0,0,0,.25.11l.3,0a3.69,3.69,0,0,1,.47,0h.48a1.25,1.25,0,0,0,.26,0c.06,0,.1-.08.12-.22a.75.75,0,0,0,0-.32.49.49,0,0,0-.11-.2l-.15-.15a.69.69,0,0,1-.13-.21.62.62,0,0,1,0-.13v-.15c0-.25,0-.49,0-.74s0-.5,0-.74,0-.35,0-.53,0-.36,0-.55,0-.66,0-1,0-.65,0-1a.76.76,0,0,0,0-.15.92.92,0,0,1,0-.27.53.53,0,0,0,0-.13c0-.11,0-.21,0-.32s0-.21,0-.32v-.43s0-.06,0-.07l.07,0s.05,0,.08.05a1.71,1.71,0,0,1,.12.23,1.42,1.42,0,0,0,.12.25l.2.4.13.27.25.51.25.5.23.48.1.2a1,1,0,0,1,.11.23l.17.35a.47.47,0,0,0,.07.12l.06.11.1.2c0,.07.06.14.09.2a1.93,1.93,0,0,1,.09.62c0,.23,0,.44,0,.63s0,.34,0,.55a4.32,4.32,0,0,1,0,.56.35.35,0,0,1-.1.22L189,28a1.05,1.05,0,0,0-.14.2.35.35,0,0,0,0,.25.34.34,0,0,0,.33.3h.38l.37,0h.33a1.22,1.22,0,0,0,.27,0,2.08,2.08,0,0,1,.34,0,.32.32,0,0,0,.32-.11.23.23,0,0,0,0-.12,1.15,1.15,0,0,0,0-.14,1,1,0,0,0-.11-.28,1.56,1.56,0,0,0-.16-.2,1.64,1.64,0,0,1-.14-.22.68.68,0,0,1-.06-.31V24.1a1.69,1.69,0,0,0,0-.23,1.7,1.7,0,0,1,0-.22c0-.26,0-.51,0-.77s0-.5,0-.76V18.89c0-.12,0-.22,0-.33s0-.22,0-.34,0-.33,0-.5,0-.35,0-.53v-.25a1.62,1.62,0,0,0,0-.21,1.55,1.55,0,0,1,0-.22A.59.59,0,0,1,190.88,16.11Z" transform="translate(0 0)"/><path class="cls-2" d="M211.57,22.73s0-1.13-.79-1.09A1.4,1.4,0,0,0,210,22l-.44-.09v-.35h.2a.19.19,0,0,0,.18-.2.19.19,0,0,0-.2-.19l-.5,0a.2.2,0,1,0,0,.39h.16v.32l-.81-.17,0-.47h.18a.2.2,0,0,0,.18-.2.19.19,0,0,0-.2-.19l-.5,0a.2.2,0,0,0-.19.2.19.19,0,0,0,.2.18h.18v.43l-.91-.18,0-.39h.2a.2.2,0,0,0,.19-.2.21.21,0,0,0-.2-.19l-.51,0a.2.2,0,0,0-.18.2.19.19,0,0,0,.2.19h.15l0,.37-.82-.14v-.46h.17a.21.21,0,0,0,.19-.2.19.19,0,0,0-.2-.19l-.5,0a.19.19,0,0,0-.19.2.18.18,0,0,0,.2.18h.18v.43a1.93,1.93,0,0,0-.43,0c-.27.05-.37.38-.41.58l-1.71-.2a6.77,6.77,0,0,0-.18-1.23,5.58,5.58,0,0,0-.43-1.27c-.05-.1-.11-.19-.17-.29l-.18-.27a1.07,1.07,0,0,0-.15-.22l-.18-.18a2.92,2.92,0,0,0-.48-.35,2.42,2.42,0,0,0-.56-.19,1.29,1.29,0,0,0-.58,0,3,3,0,0,0-.73.21,1.8,1.8,0,0,0-.59.43,3,3,0,0,0-.34.45,4.84,4.84,0,0,0-.35.67l-.13.35a3.3,3.3,0,0,0-.15.47,4.75,4.75,0,0,0-.1.49l-.1.63a5.49,5.49,0,0,0-.08.75c0,.22,0,.47,0,.74a5,5,0,0,0,0,.67c0,.21,0,.43,0,.66s0,.41,0,.62a5.58,5.58,0,0,0,.07.62l.1.52a.59.59,0,0,1,0,.13.29.29,0,0,0,.05.13l.16.55c.05.11.08.21.11.28s.07.18.12.29a3.76,3.76,0,0,0,.26.42,3.41,3.41,0,0,0,.32.37,2.23,2.23,0,0,0,.88.53,2.65,2.65,0,0,0,.9.1,2.12,2.12,0,0,0,.85-.3l.15-.1.15-.13.24-.26a2.9,2.9,0,0,0,.19-.29,1.64,1.64,0,0,0,.13-.19l.12-.2.15-.32v0a2.64,2.64,0,0,0,.13-.4c0-.12.08-.26.12-.41l0-.2a3.06,3.06,0,0,0,.1-.47c0-.15,0-.31.07-.48a5.09,5.09,0,0,0,0-.54c0-.07,0-.14,0-.22l1.72-.2c0,.2.17.55.45.59a2.05,2.05,0,0,0,.34,0l0,.59h-.18a.19.19,0,0,0-.19.2.21.21,0,0,0,.2.19l.5,0a.19.19,0,0,0,.19-.2.18.18,0,0,0-.2-.18h-.17l0-.61.8-.17,0,.5h-.16A.19.19,0,0,0,207,25a.2.2,0,0,0,.2.19h.51a.2.2,0,0,0,.18-.2.19.19,0,0,0-.19-.19h-.2l0-.54.91-.22v.56h-.18a.18.18,0,0,0-.18.2.18.18,0,0,0,.19.18h.51a.19.19,0,0,0,.19-.2.19.19,0,0,0-.2-.18h-.18V24l.8-.21v.43h-.16a.18.18,0,0,0-.18.19.19.19,0,0,0,.19.19h.51a.2.2,0,1,0,0-.39h-.2v-.47l.52-.14a1.43,1.43,0,0,0,.85.27C211.6,23.86,211.57,22.73,211.57,22.73Zm-9.42,0c0,.13,0,.27,0,.4v.37c0,.13,0,.26,0,.38l0,.54,0,.7,0,.43c0,.13,0,.25,0,.39a2.32,2.32,0,0,1,0,.38l0,.26c0,.14,0,.23-.06.3s-.06.16-.11.28-.06.18-.08.24a1.05,1.05,0,0,1-.15.21l0,0a1.27,1.27,0,0,1-.33.24.58.58,0,0,1-.41,0l-.24-.15-.14-.13a.87.87,0,0,1-.12-.14,2.51,2.51,0,0,1-.3-.7,5.42,5.42,0,0,1-.13-.74.43.43,0,0,1,0-.12q0-.26-.06-.6c0-.22,0-.42,0-.59v-1c0-.12,0-.23,0-.33s0-.21,0-.34,0-.28,0-.41,0-.28,0-.43l.05-.6v-.36l.05-.6,0-.42.06-.46,0-.2.1-.33c0-.09.07-.17.1-.25a1.07,1.07,0,0,1,.15-.22l0,0a.92.92,0,0,1,.55-.32.72.72,0,0,1,.59.2,1.74,1.74,0,0,1,.2.3,1.65,1.65,0,0,1,.18.41,2.85,2.85,0,0,1,.09.44l.1.5a.76.76,0,0,0,0,.15v.16l0,.62h0c0,.19,0,.38,0,.58s0,.4,0,.58Z" transform="translate(0 0)"/><path class="cls-2" d="M197.62,21a.31.31,0,0,0-.19-.06h-.21a.14.14,0,0,1-.15-.09,1.5,1.5,0,0,1,0-.3V18.9a.67.67,0,0,1,.2-.46,1.14,1.14,0,0,0,.11-.11l.1-.12a.66.66,0,0,0,0-.42.17.17,0,0,0-.08-.14.25.25,0,0,0-.16-.06H196c-.27,0-.54,0-.8,0a.2.2,0,0,0-.17.09.29.29,0,0,0-.08.18v.2a.38.38,0,0,0,.06.16.45.45,0,0,0,.11.13l.12.13a.34.34,0,0,1,.09.14c0,.06,0,.11,0,.15a.61.61,0,0,1,0,.15v1.32c0,.44,0,.87,0,1.32a.41.41,0,0,1-.08.27,1,1,0,0,1-.21.18l-.59.34-.47.24-.1.05a.16.16,0,0,1-.15,0,.17.17,0,0,1-.06-.14V18.92a.66.66,0,0,1,.19-.47l.11-.13a.51.51,0,0,0,.09-.13.13.13,0,0,0,0-.09.2.2,0,0,1,0-.09v-.15c0-.18-.09-.27-.28-.27h-1c-.33,0-.67,0-1,0h0a.27.27,0,0,0-.17.08.22.22,0,0,0-.08.15.4.4,0,0,0,0,.15c0,.05,0,.1,0,.15a.32.32,0,0,0,.06.13l.09.1.15.16a.44.44,0,0,1,.1.19,1.2,1.2,0,0,1,0,.24v4c0,.12,0,.2-.15.22h-.4a.21.21,0,0,0-.16.13.48.48,0,0,0,0,.2c0,.24,0,.47,0,.7s0,.23,0,.31.07.14.23.18a.78.78,0,0,0,.27.05.48.48,0,0,1,.18,0,.17.17,0,0,1,.09.11,2.27,2.27,0,0,1,0,.33.76.76,0,0,1,0,.15v1.28c0,.11,0,.22,0,.34v.34a1,1,0,0,1,0,.2c0,.09,0,.17-.07.22a.36.36,0,0,1-.08.12l-.11.1-.13.15a.67.67,0,0,0-.06.35.32.32,0,0,0,.2.28l.17,0h2c.13,0,.2-.1.22-.29a.8.8,0,0,0,0-.22.63.63,0,0,0-.13-.21,2.21,2.21,0,0,1-.24-.3.7.7,0,0,1-.07-.36,3.25,3.25,0,0,1,0-.54c0-.17,0-.35,0-.53v-.39s0-.05,0-.09a.31.31,0,0,1,0-.1.13.13,0,0,1,0-.06s0-.05,0-.07V24.46a.34.34,0,0,1,.06-.2.44.44,0,0,1,.17-.11l.35-.16.34-.16.14-.07.13-.08.25-.11a.14.14,0,0,1,.14,0,.17.17,0,0,1,.06.14v6.05a.45.45,0,0,1,0,.21,1.26,1.26,0,0,1-.1.18l-.1.13-.1.11a.55.55,0,0,0-.13.31.36.36,0,0,0,.11.32l.1.05a1.24,1.24,0,0,0,.41,0l.45,0h.78l.23,0a.59.59,0,0,0,.23,0,.51.51,0,0,0,.18-.09.32.32,0,0,0,.09-.22.48.48,0,0,0-.13-.4,1.76,1.76,0,0,1-.27-.33.52.52,0,0,1-.06-.3v-7a.25.25,0,0,1,.06-.16.26.26,0,0,1,.14-.11l.25-.13a.47.47,0,0,0,.2-.22s0-.09,0-.16a2,2,0,0,0,0-.25v-.43A.39.39,0,0,0,197.62,21Z" transform="translate(0 0)"/><path class="cls-2" d="M176.66,22.82a3.49,3.49,0,0,0,0-.56c0-.18,0-.37-.05-.55a9,9,0,0,0-.19-1.31,5.58,5.58,0,0,0-.43-1.27c0-.1-.11-.19-.17-.29l-.18-.27a1.07,1.07,0,0,0-.15-.22l-.18-.18a2.92,2.92,0,0,0-.48-.35,2.42,2.42,0,0,0-.56-.19,1.29,1.29,0,0,0-.58,0,3,3,0,0,0-.73.21,1.8,1.8,0,0,0-.59.43,3,3,0,0,0-.34.45,4.84,4.84,0,0,0-.35.67l-.13.35a3.3,3.3,0,0,0-.15.47,4.75,4.75,0,0,0-.1.49l-.1.63a5.49,5.49,0,0,0-.08.75c0,.22,0,.47,0,.74a5,5,0,0,0,0,.67c0,.21,0,.43,0,.66s0,.41.05.62a5.58,5.58,0,0,0,.07.62l.1.52a.59.59,0,0,1,0,.13.29.29,0,0,0,0,.13l.16.55c0,.11.08.21.11.28s.07.18.12.29a3.76,3.76,0,0,0,.26.42,3.41,3.41,0,0,0,.32.37,2.23,2.23,0,0,0,.88.53,2.65,2.65,0,0,0,.9.1,2.12,2.12,0,0,0,.85-.3l.15-.1.15-.13.24-.26a2.9,2.9,0,0,0,.19-.29,1.64,1.64,0,0,0,.13-.19l.12-.2.15-.32v0a2.64,2.64,0,0,0,.13-.4c0-.12.08-.26.12-.41l0-.2a3.06,3.06,0,0,0,.1-.47c0-.15.05-.31.07-.48a5.09,5.09,0,0,0,0-.54l0-.54a2.83,2.83,0,0,0,0-.5C176.67,23.15,176.66,23,176.66,22.82Zm-1.74-.07c0,.13,0,.27,0,.4v.37c0,.13,0,.26,0,.38l0,.54,0,.7,0,.43c0,.13,0,.25,0,.39a2.32,2.32,0,0,1-.05.38l0,.26c0,.14,0,.23-.06.3s-.06.16-.11.28-.06.18-.08.24a1.05,1.05,0,0,1-.15.21l0,0a1.27,1.27,0,0,1-.33.24.58.58,0,0,1-.41,0l-.24-.15-.14-.13a.87.87,0,0,1-.12-.14,2.25,2.25,0,0,1-.3-.7,5.42,5.42,0,0,1-.13-.74.43.43,0,0,1,0-.12q0-.26-.06-.6c0-.22,0-.42,0-.59v-1c0-.12,0-.23,0-.33s0-.21,0-.34,0-.28,0-.41,0-.28,0-.43l.05-.6v-.36l0-.6.05-.42.06-.46,0-.2.1-.33c0-.09.07-.17.1-.25a1.64,1.64,0,0,1,.14-.22l0,0a.92.92,0,0,1,.55-.32.72.72,0,0,1,.59.2,1.74,1.74,0,0,1,.2.3,1.65,1.65,0,0,1,.18.41,2.85,2.85,0,0,1,.09.44l.1.5a.76.76,0,0,0,0,.15v.16l.05.62h0c0,.19,0,.38,0,.58s0,.4,0,.58Z" transform="translate(0 0)"/><polygon class="cls-2" points="172.37 16.55 172.37 12.6 171.8 12.6 171.8 14.98 171.79 14.98 170.94 12.6 170.39 12.6 170.39 16.55 170.96 16.55 170.96 14.18 170.97 14.18 171.83 16.55 172.37 16.55"/><path class="cls-2" d="M170.64,21a.33.33,0,0,0-.19-.06h-.21a.13.13,0,0,1-.15-.09,1.5,1.5,0,0,1,0-.3V18.9a.71.71,0,0,1,.19-.46.65.65,0,0,0,.12-.11l.1-.12a.6.6,0,0,0,0-.42.16.16,0,0,0-.07-.14.25.25,0,0,0-.16-.06H169c-.26,0-.53,0-.79,0a.23.23,0,0,0-.18.09.27.27,0,0,0-.07.18v.2a.38.38,0,0,0,.06.16.41.41,0,0,0,.1.13l.13.13a.34.34,0,0,1,.09.14l.05.15a.61.61,0,0,1,0,.15v1.32c0,.44,0,.87,0,1.32a.41.41,0,0,1-.07.27,1,1,0,0,1-.21.18l-.6.34-.46.24-.1.05a.16.16,0,0,1-.15,0,.15.15,0,0,1-.07-.14V18.92a.67.67,0,0,1,.2-.47l.11-.13a.51.51,0,0,0,.09-.13.13.13,0,0,0,0-.09.46.46,0,0,1,0-.09v-.15a.25.25,0,0,0-.28-.27h-1c-.34,0-.68,0-1,0h0a.24.24,0,0,0-.16.08.2.2,0,0,0-.09.15.38.38,0,0,0,0,.15.77.77,0,0,0,0,.15.23.23,0,0,0,.06.13l.09.1.15.16a.57.57,0,0,1,.1.19,1.12,1.12,0,0,1,0,.24v4c0,.12-.05.2-.15.22h-.39a.21.21,0,0,0-.16.13.48.48,0,0,0,0,.2c0,.24,0,.47,0,.7s0,.23,0,.31.07.14.23.18a.78.78,0,0,0,.27.05.4.4,0,0,1,.17,0,.13.13,0,0,1,.09.11,1.26,1.26,0,0,1,0,.33.76.76,0,0,1,0,.15s0,.09,0,.15v.89c0,.06,0,.14,0,.24s0,.22,0,.34v.34a.81.81,0,0,1,0,.2,1.62,1.62,0,0,1-.06.22.38.38,0,0,1-.09.12l-.1.1-.13.15a.67.67,0,0,0-.07.35.33.33,0,0,0,.2.28l.18,0h2c.12,0,.2-.1.22-.29a.52.52,0,0,0,0-.22.58.58,0,0,0-.12-.21,2.21,2.21,0,0,1-.24-.3.69.69,0,0,1-.08-.36c0-.18,0-.36,0-.54s0-.35,0-.53v-.39a.31.31,0,0,0,0-.09v-.16a.2.2,0,0,0,0-.07V24.46a.29.29,0,0,1,.07-.2.47.47,0,0,1,.16-.11l.35-.16.35-.16.13-.07.14-.08.25-.11a.14.14,0,0,1,.14,0,.17.17,0,0,1,.06.14v6.05a.45.45,0,0,1,0,.21,1.75,1.75,0,0,1-.11.18.48.48,0,0,1-.09.13l-.11.11a.63.63,0,0,0-.12.31.34.34,0,0,0,.11.32l.1.05a1.22,1.22,0,0,0,.41,0l.45,0h.78l.22,0a.64.64,0,0,0,.24,0,.51.51,0,0,0,.18-.09.32.32,0,0,0,.09-.22.48.48,0,0,0-.13-.4,1.76,1.76,0,0,1-.27-.33.52.52,0,0,1-.06-.3v-7a.24.24,0,0,1,0-.16.36.36,0,0,1,.14-.11l.26-.13a.4.4,0,0,0,.19-.22,1.16,1.16,0,0,0,0-.16c0-.08,0-.16,0-.25v-.43A.49.49,0,0,0,170.64,21Z" transform="translate(0 0)"/><path class="cls-2" d="M164.81,29.74a1.05,1.05,0,0,0-.28-.28l-.13-.07a.25.25,0,0,0-.15,0l-.13,0-.14,0-.14,0-.15,0h-.32l-.08,0a.14.14,0,0,1-.09,0,.41.41,0,0,1-.11-.07l-.12-.06-.12-.08a.26.26,0,0,1-.09-.09,1.31,1.31,0,0,1-.25-.31l-.23-.35,0-.07-.05-.06a1.16,1.16,0,0,0-.06-.15.88.88,0,0,0,0-.15l-.17-.42c-.06-.14-.11-.3-.17-.48l0-.05a.08.08,0,0,1,0-.05.27.27,0,0,1,0-.12.35.35,0,0,0,0-.13,1.17,1.17,0,0,1,0-.2,1.77,1.77,0,0,0,0-.2c0-.09,0-.17,0-.25a1.57,1.57,0,0,1,0-.23,1.18,1.18,0,0,1,0-.2c0-.06,0-.12,0-.18l0-.36,0-.27-.08-3.46c0-.08,0-.15,0-.22a1.77,1.77,0,0,0,0-.24,4.88,4.88,0,0,0,0-.44l0-.3a1.35,1.35,0,0,1,0-.29c0-.08,0-.18.06-.27a1.31,1.31,0,0,1,.06-.27,1.82,1.82,0,0,1,.07-.25l.09-.23a1.28,1.28,0,0,1,.28-.47.6.6,0,0,1,.42-.15.57.57,0,0,1,.41.18,1.41,1.41,0,0,1,.32.47c0,.09.08.17.11.26a1.86,1.86,0,0,1,.1.25l.15.53a.34.34,0,0,0,.24.25.16.16,0,0,0,.1,0h.08a.18.18,0,0,0,.18-.08.25.25,0,0,0,.08-.19v-.15a.86.86,0,0,1,0-.16.07.07,0,0,1,0,0v-.17a.31.31,0,0,1,0-.1V19a.28.28,0,0,1,0-.09v-.17a.31.31,0,0,1,0-.09.2.2,0,0,1,0-.07v-.19a.38.38,0,0,1,0-.1.34.34,0,0,1,0-.1V17.9a.53.53,0,0,1,0-.13v-.23c0-.08-.05-.11-.14-.11l-.1,0-.16.16-.17.14a.26.26,0,0,1-.33,0,1.84,1.84,0,0,0-.46-.2,1.42,1.42,0,0,0-.67-.09,1.71,1.71,0,0,0-.58.17,1.65,1.65,0,0,0-.36.22,2.91,2.91,0,0,0-.3.31,4.26,4.26,0,0,0-.47.7c0,.09-.07.17-.1.26a2.54,2.54,0,0,0-.2.54c0,.1-.06.19-.08.29l-.06.28a2.56,2.56,0,0,1-.05.27.61.61,0,0,0,0,.18,1.11,1.11,0,0,1,0,.19l0,.3v0L158.19,21a5.67,5.67,0,0,0-10.78.86h0c0,.13,0,.27-.08.41h-.22l0,1.94.25,0a5.44,5.44,0,0,0,.92,2.15v0l.05.07,0,0,.05.05,0,.05,0,0,0,.05v0a5.67,5.67,0,0,0,9.68-1.54l1.7-.23.06.35c0,.17.08.34.13.51.09.39.19.77.3,1.12s.18.53.3.82a5.39,5.39,0,0,0,.36.76l.29.49a4.22,4.22,0,0,0,.34.46l.2.21.22.18a2,2,0,0,0,.33.25,1.07,1.07,0,0,0,.38.15,2.76,2.76,0,0,0,1.06.09,1.22,1.22,0,0,0,.27-.09l.2-.06a1.05,1.05,0,0,0,.43-.27.66.66,0,0,0,0-.13C164.83,29.79,164.83,29.76,164.81,29.74Zm-11.28-4.83a1.65,1.65,0,1,1,1.64-1.64A1.65,1.65,0,0,1,153.53,24.91Z" transform="translate(0 0)"/></g></svg>