<svg id="Camada_1" data-name="Camada 1" xmlns="http://www.w3.org/2000/svg" viewBox="0 0 219.1 219"><defs><style>.cls-1{fill:#be1b2e;}.cls-2,.cls-3{fill:#fff;}.cls-3{fill-rule:evenodd;}</style></defs><title>moldura_educadorablues</title><path class="cls-1" d="M208.9,0H10.1A10.07,10.07,0,0,0,0,10.1V209a10.05,10.05,0,0,0,10.1,10H209a10.07,10.07,0,0,0,10.1-10.1V10.1A10.22,10.22,0,0,0,208.9,0ZM215,208.9a6,6,0,0,1-6,6H67L54,194.7a11.53,11.53,0,0,0-7-5l-43-10V10.1a6,6,0,0,1,6-6H124.3L143.5,34a16.49,16.49,0,0,0,9.9,7L215,55.3V208.9Z"/><path class="cls-2" d="M180.8,11.4a.9.9,0,0,1-.5.1.75.75,0,0,1-.5-.1l-.3-.3,2.1-1.2V9.8a1.21,1.21,0,0,0-.5-.5,1.45,1.45,0,0,0-.7-.2,1.5,1.5,0,0,0-1.1.4,1.37,1.37,0,0,0-.4,1.1,1.38,1.38,0,0,0,1.5,1.5,1.27,1.27,0,0,0,.6-.1l.6-.3h0V11l-.2.1C181.1,11.2,180.9,11.4,180.8,11.4Zm-.5-1.8a.37.37,0,0,1,.3.1.1.1,0,0,1,.1.1l-1.5.9h0a.91.91,0,0,1,.3-.7A1,1,0,0,1,180.3,9.6Z"/><path class="cls-2" d="M184,9.4c-.1-.1-.2-.2-.3-.2A1.45,1.45,0,0,0,183,9a1.5,1.5,0,0,0-1.1.4,1.37,1.37,0,0,0-.4,1.1A1.38,1.38,0,0,0,183,12a1.85,1.85,0,0,0,.7-.2c.1-.1.2-.1.3-.2V12l.5-.1V8H184Zm-.2.4a1,1,0,0,1,0,1.4,1,1,0,0,1-1.7-.7,1,1,0,0,1,1-1C183.3,9.6,183.6,9.6,183.8,9.8Z"/><path class="cls-2" d="M186.7,10.9a.68.68,0,0,1-.7.7.52.52,0,0,1-.4-.2.85.85,0,0,1-.2-.6V9.1l-.5.1V11a1,1,0,0,0,1.1,1.1.75.75,0,0,0,.5-.1.22.22,0,0,0,.2-.2V12l.5-.1V9.1l-.5.1v1.7Z"/><path class="cls-2" d="M189.6,11.3c-.1.1-.2.1-.4.2s-.2.1-.4.1a1,1,0,0,1-1-1,1,1,0,0,1,1-1,.76.76,0,0,1,.4.1c.1,0,.2.1.4.2l.1.1.3-.4-.1-.1c-.2-.1-.3-.2-.5-.2a1.27,1.27,0,0,0-.6-.1,1.5,1.5,0,0,0-1.1.4,1.37,1.37,0,0,0-.4,1.1,1.38,1.38,0,0,0,1.5,1.5.75.75,0,0,0,.5-.1c.2-.1.4-.1.5-.3l.1-.1-.3-.4Z"/><path class="cls-2" d="M191.3,9h-.4c-.1,0-.3.1-.4.1h-.1l-.2.6.2-.1c.2-.1.3-.1.4-.2h.3c.2,0,.3,0,.4.1a.37.37,0,0,1,.1.3v.1c-.1,0-.1-.1-.2-.1a.6.6,0,0,0-.4-.1,1.1,1.1,0,1,0,0,2.2c.2,0,.3,0,.4-.1s.1-.1.2-.1v.2l.5-.1v-2a1.17,1.17,0,0,0-.2-.7A2.18,2.18,0,0,0,191.3,9Zm.4,2a.52.52,0,0,1-.2.4h0a.57.57,0,1,1-.8-.8.76.76,0,0,1,.4-.2.52.52,0,0,1,.4.2C191.7,10.6,191.7,10.8,191.7,11Z"/><path class="cls-2" d="M195,9.4c-.1-.1-.2-.2-.3-.2A2.54,2.54,0,0,0,194,9a1.5,1.5,0,0,0-1.1.4,1.37,1.37,0,0,0-.4,1.1,1.37,1.37,0,0,0,.4,1.1,1.5,1.5,0,0,0,1.1.4,1.85,1.85,0,0,0,.7-.2c.1-.1.2-.1.3-.2V12l.5-.1V8H195Zm-.3.4a1,1,0,0,1,0,1.4,1,1,0,0,1-1.7-.7,1,1,0,0,1,1-1C194.2,9.6,194.5,9.6,194.7,9.8Z"/><path class="cls-2" d="M197.2,9a1.5,1.5,0,0,0-1.1.4,1.37,1.37,0,0,0-.4,1.1,1.56,1.56,0,0,0,2.6,1.1,1.37,1.37,0,0,0,.4-1.1,1.5,1.5,0,0,0-.4-1.1A2.1,2.1,0,0,0,197.2,9Zm1,1.5a1,1,0,1,1-1.7-.7,1,1,0,0,1,1.4,0A1.08,1.08,0,0,1,198.2,10.5Z"/><path class="cls-2" d="M200.3,9.5l.2-.5h-.2a1.42,1.42,0,0,0-.6.2c-.1.1-.2.1-.2.2V9.1l-.5.1V12l.5-.1V10.8a2.51,2.51,0,0,1,.2-1,1,1,0,0,1,.6-.3Z"/><path class="cls-2" d="M202.2,9.3h0a.91.91,0,0,0-.7-.3h-.4c-.1,0-.3.1-.4.1h-.1l-.2.6.2-.1c.2-.1.3-.1.4-.2h.3c.2,0,.3,0,.4.1a.37.37,0,0,1,.1.3v.1c-.1,0-.1-.1-.2-.1a.6.6,0,0,0-.4-.1,1.1,1.1,0,1,0,0,2.2c.2,0,.3,0,.4-.1s.1-.1.2-.1v.2l.5-.1v-2C202.4,9.7,202.3,9.4,202.2,9.3Zm-.3,1.7a.6.6,0,1,1-1-.4.76.76,0,0,1,.4-.2.52.52,0,0,1,.4.2C201.8,10.6,201.9,10.8,201.9,11Z"/><path class="cls-2" d="M176.9,28.8h.4V7.8h-3V29.6h.4c.1,0,.3-.1.3-.2A10.56,10.56,0,0,1,176.9,28.8Z"/><path class="cls-2" d="M178.8,30.5a8.08,8.08,0,0,0,.1,1.6l6.9.1V31.1h0V13.4h-3V29.7c0,.6-.1.9-.5.9a.46.46,0,0,1-.5-.4V13.4h-3V30.5Z"/><path class="cls-2" d="M194.1,31.6h0V26.5h-3v3.2c0,.5,0,.9-.4.9s-.5-.3-.5-.9V24.4h3.9V18.2h0V16.1c0-2.2-.9-2.9-3.5-2.9s-3.5.7-3.5,2.9V29.5s0,1.6.1,2.6l6.8.1C194.1,32.1,194.1,31.9,194.1,31.6Zm-3.9-15.1c0-.6.1-.9.5-.9a.37.37,0,0,1,.4.4v6.1h-.9Z"/><path class="cls-2" d="M197.4,32.1h.2c.1-.1.2-.2.3-.2a1.23,1.23,0,0,1,1-.5h.2a.9.9,0,0,1,.5.1.6.6,0,0,1,.4-.1h.2a.9.9,0,0,1,.5.1.6.6,0,0,1,.4-.1h.2a1.23,1.23,0,0,1,1,.5h.1v-6c0-1.3-.1-2.1-1.4-2.9l-1.8-1.1c-.7-.4-.7-.7-.7-1.1V16.6c0-.5.2-.8.5-.8s.5.3.5.8v3.9h3V17.7c0-3.4-.3-4.2-3.5-4.2s-3.5.9-3.5,4.2v3.2c0,1.3.1,2.2,1.4,3l1.8,1.1c.4.3.7.6.7.9v4.2c0,.5-.1.8-.5.8s-.5-.3-.5-.8V26.8h-3v2.3h0v1.4a11.52,11.52,0,0,0,.1,2h1.1A1,1,0,0,1,197.4,32.1Z"/><path class="cls-2" d="M168.9,24.4c0-.6.1-.9.5-.9a.37.37,0,0,1,.4.4v3.4h.1a7.62,7.62,0,0,1,2.9,1.3V24a10.32,10.32,0,0,0-.1-1.9,5,5,0,0,0-.4-1.3,2.36,2.36,0,0,0-.8-.9,2.43,2.43,0,0,0,1-1.4,8.8,8.8,0,0,0,.3-2.6V12.4a15.52,15.52,0,0,0-.1-2.3,3.75,3.75,0,0,0-.5-1.4,2,2,0,0,0-1-.8,3.9,3.9,0,0,0-1.6-.2h-3.7V28.2a4.72,4.72,0,0,1,3-1V24.4Zm0-13.4c0-.6.1-.9.5-.9a.37.37,0,0,1,.4.4v7c0,.5,0,.9-.4.9s-.5-.3-.5-.9Z"/><path class="cls-3" d="M169.5,32.5v2.7a.27.27,0,0,1-.3.3h0a.32.32,0,0,1-.3-.3V32.5a.27.27,0,0,1,.3-.3h0q.3.15.3.3Zm-.8.3V35a.22.22,0,0,1-.2.2h0a.22.22,0,0,1-.2-.2V32.8a.22.22,0,0,1,.2-.2h0c.1-.1.2,0,.2.2Zm-.8.3v1.6a.22.22,0,0,1-.2.2h0a.22.22,0,0,1-.2-.2V33.1a.22.22,0,0,1,.2-.2h0a.22.22,0,0,1,.2.2Zm7.9-.1-4-.1c-.2,0-.5-.2-.5-.4l-.2-1a.55.55,0,0,1,.8-.6l3.1,1.2a1.34,1.34,0,0,1,.7.6l.1.3Zm-3-3.1a6.29,6.29,0,0,0-3-1.6,4.29,4.29,0,0,0-3.3.7,4.35,4.35,0,0,0-1.4,2.1,7.69,7.69,0,0,0,.5,6.4,5.15,5.15,0,0,0,3.6,1.9,5,5,0,0,0,3.8-1.5,2.7,2.7,0,0,1,.8-.7.92.92,0,0,1,1-.1,10,10,0,0,0,1.4.8,2.22,2.22,0,0,0,1.6.1,2.59,2.59,0,0,0,1.5-1.4,4.8,4.8,0,0,0,.5-1.7l17.7-.2v.1a.22.22,0,0,0,.2.2.35.35,0,0,0,.2-.1.37.37,0,0,1,.3.1c.2.1.3.3.5.4h.4v.2c0,.1.1.3.2.3h.2c.1,0,.2-.1.2-.3v-.3h.6v.4c0,.1.1.3.2.3h.2c.1,0,.2-.1.2-.3v-.4a1.27,1.27,0,0,1,.6.1v.2c0,.1.1.3.2.3h.2c.1,0,.2-.1.2-.3v-.1h.2a.54.54,0,0,0,.5-.5.6.6,0,0,1,.1-.4l.1-.1.1-.1c0-.1,0-.1-.1-.1v-.2a.1.1,0,0,0,.1-.1c0-.1,0-.1-.1-.1l-.1-.1a.37.37,0,0,1-.1-.3.47.47,0,0,0-.5-.5h-.2v-.1c0-.1-.1-.3-.2-.3h-.2c-.1,0-.2.1-.2.3v.3c-.2,0-.4.1-.6.1v-.4c0-.1-.1-.3-.2-.3h-.2c-.1,0-.2.1-.2.3v.3a.1.1,0,0,0,.1.1h-.6v-.4c0-.1-.1-.3-.2-.3h-.2c-.1,0-.2.1-.2.3v.2c-.1,0-.3-.1-.4,0s-.3.3-.5.4-.2.1-.3.1a.2.2,0,1,0-.4,0v.1L177.8,33c-.1-.1-.2-.1-.3-.2-.3-.3-.6-.8-.4-1.2a2.65,2.65,0,0,1,.5-.6.66.66,0,0,0,.2-.7.94.94,0,0,0-.9-.5,3.17,3.17,0,0,0-1.5.6,2.32,2.32,0,0,1-1.6.3,3.92,3.92,0,0,1-1-.8Zm-2.7-.2a.4.4,0,1,1-.4-.4.43.43,0,0,1,.4.4Zm-2.9,1.5a.4.4,0,1,1-.4-.4.43.43,0,0,1,.4.4Zm8.7,4.8a.9.9,0,1,1,.9.9.9.9,0,0,1-.9-.9Zm-7.2-5.2a.4.4,0,1,1-.4.4.43.43,0,0,1,.4-.4Zm-.6-1.1a.4.4,0,1,1-.4-.4.37.37,0,0,1,.4.4Z"/><path class="cls-1" d="M189.45,174.5a15,15,0,1,0,15,15A15,15,0,0,0,189.45,174.5Z"/><path class="cls-2" d="M196.45,191l-10.6,6.1a1.51,1.51,0,0,1-2.2-1.3V183.2a1.51,1.51,0,0,1,2.2-1.3l10.6,6.5A1.5,1.5,0,0,1,196.45,191Z"/></svg>