<svg id="Camada_1" data-name="Camada 1" xmlns="http://www.w3.org/2000/svg" viewBox="0 0 219.1 219"><defs><style>.cls-1{fill:#be1b2e;}.cls-2,.cls-3{fill:#fff;}.cls-3{fill-rule:evenodd;}</style></defs><title>moldura_suinga</title><path class="cls-1" d="M208.9,0H10.1A10.07,10.07,0,0,0,0,10.1V209a10.05,10.05,0,0,0,10.1,10H209a10.07,10.07,0,0,0,10.1-10.1V10.1A10.22,10.22,0,0,0,208.9,0ZM215,208.9a6,6,0,0,1-6,6H67L54,194.7a11.53,11.53,0,0,0-7-5l-43-10V10.1a6,6,0,0,1,6-6H124.3L143.5,34a16.49,16.49,0,0,0,9.9,7L215,55.3V208.9Z"/><path class="cls-2" d="M156.5,33.3c-.5,0-1.2-.1-2.3-.2l-.6-.1c-1.6-.2-2.7-.8-3.2-1.9a3.69,3.69,0,0,1-.5-1.7,3.81,3.81,0,0,1,.6-1.9v-.1a.1.1,0,0,0,.1-.1c.1,0,.1.1.2.1s.1.1.2.2a1.61,1.61,0,0,1,.3.9c0,.2.1.4.1.6a2.19,2.19,0,0,0,.3.5c.1.2.2.3.3.5.2.4.7.7,1.6.9a3.44,3.44,0,0,0,.9.1.76.76,0,0,0,.5-.2,5.92,5.92,0,0,0,.4-.6,3.71,3.71,0,0,0,.4-1.4v-2a8.81,8.81,0,0,0-.2-1.7c0-.2-.1-.6-.1-1a2,2,0,0,0-.7-1.6,5.86,5.86,0,0,0-2.6-1.4l-.6-.2a5.23,5.23,0,0,1-1.7-1.2,2,2,0,0,1-.4-.8c0-.3-.1-.6-.1-.9a6.2,6.2,0,0,1,.9-3.2,1.6,1.6,0,0,1,1.4-.8h.9a5,5,0,0,1,1.2-.2,9.85,9.85,0,0,1,1.7.2c.3,0,.6.1.9.1a7.72,7.72,0,0,1,1.5.2l1,.5a.72.72,0,0,1,.4.6v.2a5.5,5.5,0,0,1-.7.9.76.76,0,0,1-.4.2c-.2,0-.3-.1-.5-.2l-.5-.3a3.7,3.7,0,0,0-2.1-.6h-.7c-.3,0-.4,0-.5.1a1.63,1.63,0,0,0-.3.6,7.11,7.11,0,0,0-.8,2.5v.3c0,.5.3.8.9,1l2,.9a7.71,7.71,0,0,1,2.1,1.4,2.85,2.85,0,0,1,.8,1.4,23.21,23.21,0,0,1,.6,4.1,9.7,9.7,0,0,1-.1,1.7v.4a3.55,3.55,0,0,1-.8,1.9A1.63,1.63,0,0,1,156.5,33.3Z"/><path class="cls-2" d="M169.7,32.4a.86.86,0,0,1-.6-.3.1.1,0,0,0-.1-.1,2.06,2.06,0,0,1-1.2-1.9v-.5c0-.1,0-.1-.1-.2a4.5,4.5,0,0,1-1.4,1.1c-.5.2-.9.5-1.5.7a6,6,0,0,1-1.2.2,3.25,3.25,0,0,1-2.4-1,3,3,0,0,1-1-2.4,60.57,60.57,0,0,1,1.2-9.9v-.3a4.4,4.4,0,0,0,.2-1c.1-.3.1-.5.2-.6s.2-.2.3-.2a3.54,3.54,0,0,1,.6-.1,4.91,4.91,0,0,0,1.1-.1h1.4c.4,0,.6.2.6.5v1.1a80.13,80.13,0,0,0-1,8.4c0,.3-.1.6-.1.8a2.2,2.2,0,0,0-.1.8v.8a.37.37,0,0,0,.1.3.22.22,0,0,0,.2.2.76.76,0,0,0,.4-.2,5.23,5.23,0,0,0,1.2-1.7,27.6,27.6,0,0,0,1.7-5.1,2.92,2.92,0,0,1,.2-.9,12.86,12.86,0,0,0,1-4.2,1.39,1.39,0,0,1,.5-1,1.39,1.39,0,0,1,1-.5L172,15c.2,0,.4,0,.4.1s.1.2.1.4a4.14,4.14,0,0,1-.1,1c-.1.9-.2,1.7-.3,2.6-.1,1.1-.2,2.2-.4,3.4-.1.7-.1,1.3-.2,2,0,.3-.1,1.9-.2,4.7a4.46,4.46,0,0,1-1.2,2.6C170.1,32.3,169.9,32.4,169.7,32.4Z"/><path class="cls-2" d="M187,33.3h-1c-.2,0-.3-.2-.5-.5a8.33,8.33,0,0,1-.4-1.5,26.81,26.81,0,0,0-.7-2.7,20.69,20.69,0,0,1-1-4.3c0-.3-.1-.5-.1-.7s-.2-.8-.5-1.6h-.2c.1,1.8.1,3.4.1,4.9a22.62,22.62,0,0,1-.1,2.7l-.1,1.4a1.14,1.14,0,0,1-.3.8.76.76,0,0,0-.2.4c-.1.1-.1.2-.2.2a.91.91,0,0,0-.7.3,1.88,1.88,0,0,1-.8.2,1,1,0,0,1-.8-.5,1.69,1.69,0,0,1-.3-1,4.1,4.1,0,0,0-.1-1.1c-.1-.7-.2-1.2-.2-1.5v-.4A7.08,7.08,0,0,0,179,27a6.15,6.15,0,0,0-.1-1.4v-.7a20.9,20.9,0,0,1,.1-2.5v-.7a3.75,3.75,0,0,0-.1-1,2.2,2.2,0,0,1-.1-.8,12.91,12.91,0,0,1,.3-2.4l.2-1.2a2,2,0,0,1,.4-.8.86.86,0,0,1,.6-.3h1.2a.52.52,0,0,1,.4.2,1.79,1.79,0,0,0,.7.5h.1a.22.22,0,0,1,.2.2,3.55,3.55,0,0,0,.4.9,3,3,0,0,1,.4,1,24.88,24.88,0,0,0,1.1,2.9,16.81,16.81,0,0,1,.9,3.2c.7,2.6,1,3.9,1.1,4.1a.27.27,0,0,0,.3.3h.1v-.1c.2-2.3.7-5.1,1.2-8.1l.8-4.7a1.91,1.91,0,0,1,.5-1,.37.37,0,0,1,.3-.1h.1a.1.1,0,0,1,.1.1c0,.1.1.1.1.2l-.1,1.1-.3,2.4c-.2,1.4-.4,2.7-.5,4.1-.2,1.2-.3,2.4-.5,3.6l-.3,2.1a12.64,12.64,0,0,0-.3,2.1v2.4a.63.63,0,0,1-.5.6A3.22,3.22,0,0,1,187,33.3Z"/><path class="cls-2" d="M177.5,20.3l-.3,1.6c.1,1.8.1,3.4.1,4.9a22.62,22.62,0,0,1-.1,2.7l-.1,1.4a1.14,1.14,0,0,1-.3.8.76.76,0,0,0-.2.4c-.1.1-.1.2-.2.2a.91.91,0,0,0-.7.3,1.88,1.88,0,0,1-.8.2,1,1,0,0,1-.8-.5,1.69,1.69,0,0,1-.3-1,4.1,4.1,0,0,0-.1-1.1c-.1-.7-.2-1.2-.2-1.5v-.4a7.08,7.08,0,0,0,.1-1.4,6.15,6.15,0,0,0-.1-1.4v-.7a20.9,20.9,0,0,1,.1-2.5v-.7a3.75,3.75,0,0,0-.1-1,2.2,2.2,0,0,1-.1-.8,12.91,12.91,0,0,1,.3-2.4l.2-1.2a2,2,0,0,1,.4-.8.86.86,0,0,1,.6-.3h1.2a.52.52,0,0,1,.4.2,1.79,1.79,0,0,0,.7.5h.1a.22.22,0,0,1,.2.2,3.55,3.55,0,0,0,.4.9C177.9,16.7,177.7,19.5,177.5,20.3Z"/><path class="cls-2" d="M194.5,33.1a5,5,0,0,1-1.2-.2,4.44,4.44,0,0,1-2.7-3.1,3.55,3.55,0,0,1-.2-1V24.9a13.55,13.55,0,0,1,.2-2l.1-.7a18.23,18.23,0,0,1,1.1-4l.1-.2a3.7,3.7,0,0,1,.5-1.1c.2-.3.5-.6.7-.9a2.75,2.75,0,0,1,1.5-.8,11,11,0,0,1,1.8-.2l.9-.1a3,3,0,0,1,1,.2,5.58,5.58,0,0,1,.8.5.91.91,0,0,1,.3.7v.2a.37.37,0,0,1-.1.3,1.38,1.38,0,0,1-.4.3,1.09,1.09,0,0,1-.5.1.91.91,0,0,1-.7-.3c-.2-.3-.4-.5-.7-.5a2.77,2.77,0,0,0-.9-.1c-.2,0-.3.1-.5.2a4.7,4.7,0,0,0-.9,1.2l-.1.4a6.61,6.61,0,0,0-.5,1.5,37.35,37.35,0,0,0-.9,4.6l-.1.7A4.1,4.1,0,0,0,193,26v1.1a13.55,13.55,0,0,0,.2,2,2.88,2.88,0,0,0,1.3,2.3,1.42,1.42,0,0,0,.6.2.75.75,0,0,0,.7-.4,1.91,1.91,0,0,0,.3-.8,38.9,38.9,0,0,0,.9-4.7v-.2c0-.6-.3-.9-1-1h-.8a2.77,2.77,0,0,1-.9-.1c-.2-.1-.3-.2-.3-.4a1.85,1.85,0,0,1,.2-.7c.1-.1.2-.2.3-.2l.9-.1a9.7,9.7,0,0,1,1.7-.1,2.23,2.23,0,0,1,1.2.2,2.75,2.75,0,0,1,.2,1.3,37.49,37.49,0,0,1-.9,5.5,3.7,3.7,0,0,1-1.6,2.7A2.07,2.07,0,0,1,194.5,33.1Z"/><path class="cls-2" d="M207.9,34.1a1,1,0,0,1-1-.8l-.4-1a8.8,8.8,0,0,1-.5-1.5,4.14,4.14,0,0,1-.2-1.6.9.9,0,0,0-.1-.5c0-.1-.1-.2-.1-.3,0-.3-.2-.4-.5-.4-.9,0-1.8.1-2.6.1-.2,0-.4.1-.4.3l-.1.2a7.6,7.6,0,0,0-.4,1.1,4.15,4.15,0,0,1-1.2,2,1,1,0,0,1-.8.5h-.7a.52.52,0,0,1-.4-.2c-.1-.1-.2-.2-.2-.3a.37.37,0,0,1,.1-.3.37.37,0,0,0,.1-.3,13.36,13.36,0,0,1,.7-1.8A9,9,0,0,0,200,27a24.54,24.54,0,0,1,.8-2.9l.4-1.2a22.56,22.56,0,0,1,1.5-3.9c.6-1.2,1.2-2.4,1.7-3.6a1.85,1.85,0,0,1,1.5-1.2c.2,0,.5-.1.7-.1a1.48,1.48,0,0,1,.7-.1c.6,0,.9.5,1,1.6l.3,3.6.1,1.7c.1,1.4.3,2.8.5,4.1a10.87,10.87,0,0,1,.1,1.8l.1,1.6a4.1,4.1,0,0,0-.1,1.1,8.08,8.08,0,0,0,.1,1.6,7.57,7.57,0,0,1,.1,1.5C209.6,33.6,209.1,34.1,207.9,34.1Zm-5.2-7.4a3.08,3.08,0,0,1,1-.1h.6a2.2,2.2,0,0,0,.8-.1c.3-.1.4-.2.4-.5a21.05,21.05,0,0,0-.2-2.5,22.75,22.75,0,0,1-.2-2.6v-.4c0-.1,0-.1-.1-.1l-.1-.1-.1-.1a.1.1,0,0,0-.1.1l-.1.1-.1.1v.1a43.5,43.5,0,0,0-2,6.1v.2C202.6,26.6,202.7,26.7,202.7,26.7Z"/><path class="cls-3" d="M175.7,9.8a9,9,0,0,1,.9.5c1.1.6,1.6,1.1,1.6,1.6s-.5.9-1.6,1.6a3.39,3.39,0,0,1-2,.7.72.72,0,0,1-.5-.9c.1-.5.5-.9.5-1.4s-.4-.9-.5-1.4a.76.76,0,0,1,.5-.9,1.68,1.68,0,0,1,1.1.2"/><path class="cls-1" d="M189.45,174.5a15,15,0,1,0,15,15A15,15,0,0,0,189.45,174.5Z"/><path class="cls-2" d="M196.45,191l-10.6,6.1a1.51,1.51,0,0,1-2.2-1.3V183.2a1.51,1.51,0,0,1,2.2-1.3l10.6,6.5A1.5,1.5,0,0,1,196.45,191Z"/></svg>