<svg id="Camada_1" data-name="Camada 1" xmlns="http://www.w3.org/2000/svg" viewBox="0 0 219.01 219"><defs><style>.cls-1{fill:#be1b2e;}.cls-2{fill:#fff;}</style></defs><title>moldura_feitanabahia</title><path class="cls-1" d="M209,0H10.05A10.05,10.05,0,0,0,0,10.05V209a10,10,0,0,0,10.05,10H209A10.05,10.05,0,0,0,219,209V10.05A10.07,10.07,0,0,0,209,0Zm6,209a6,6,0,0,1-6,6h-142l-13-20.2a11.48,11.48,0,0,0-7-5L4,179.73V10.05a6,6,0,0,1,6-6h114.3l19.16,29.87a16.09,16.09,0,0,0,9.86,7L215,55.32V209Z"/><path class="cls-2" d="M180.83,32.54A1.69,1.69,0,0,1,181,34c-.06.17-.13.35-.2.52a2,2,0,0,1-.3.5.79.79,0,0,0-.12.15.94.94,0,0,1-.12.18A8.49,8.49,0,0,1,178.74,37a4,4,0,0,1-.6.42,3.59,3.59,0,0,1-.69.3,1.79,1.79,0,0,0-.32.13,1.6,1.6,0,0,1-.35.15.22.22,0,0,0-.12.19.38.38,0,0,1-.24.31c-.3.11-.62.25-.95.4a2.31,2.31,0,0,1-1.05.14.62.62,0,0,0-.19,0L174,39a.71.71,0,0,1-.52-.38l-.43-.86c-.06-.13,0-.21.1-.26a.36.36,0,0,0,.24-.45,4,4,0,0,1-.13-.89q0-.43-.06-.87c0-.27-.06-.53-.07-.77s0-.5-.07-.75c0-.08,0-.1-.12-.07l-.11.05-.11,0-.18.06c-.06,0-.11,0-.15-.11l-.05-.06a.1.1,0,0,0-.07,0,.4.4,0,0,1-.36-.17,1.42,1.42,0,0,1-.14-.36,2,2,0,0,1-.06-.32c0-.1,0-.21,0-.32a.76.76,0,0,1,.29-.57,5.37,5.37,0,0,0,.45-.35l.43-.37a.6.6,0,0,0,.24-.48c0-.35,0-.7,0-1.05a9.19,9.19,0,0,0,0-1,2.71,2.71,0,0,1,0-.49c0-.15,0-.31,0-.49s0-.26,0-.39,0-.27,0-.42a.22.22,0,0,0-.12-.19,1.29,1.29,0,0,1-.58-.65,2,2,0,0,1-.13-.87.48.48,0,0,1,.17-.36.43.43,0,0,1,.11-.12l.13-.1a.61.61,0,0,0,.17-.45.62.62,0,0,1,0-.19v-.19q0-.12.12-.12a.41.41,0,0,1,.21-.05,2.17,2.17,0,0,1,.4.05,2,2,0,0,0,1-.1,6.35,6.35,0,0,1,2.79-.33,2.4,2.4,0,0,1,.57.11,5.55,5.55,0,0,1,.52.2,1,1,0,0,1,.19.12l.19.17a.45.45,0,0,1,.14.19c.14.21.28.41.4.61a6.44,6.44,0,0,1,.36.63,1.19,1.19,0,0,1,.13.46c0,.15,0,.31,0,.46s-.12.44-.18.64a1.87,1.87,0,0,1-.27.57c-.11.14-.21.29-.3.43s-.19.29-.3.43l-.5.64-.61.6-.61.6a1.55,1.55,0,0,0-.14.19.12.12,0,0,0,0,.14s0,0,.07,0a1.16,1.16,0,0,0,.32,0,1.74,1.74,0,0,1,.32,0,3.09,3.09,0,0,1,1.4.31,5.29,5.29,0,0,1,.5.32,2.25,2.25,0,0,1,.43.44c.13.17.25.35.37.52S180.71,32.35,180.83,32.54ZM174.46,35s0-.06,0,0a.14.14,0,0,0,0,.12s0,0,0,0,0,0,0,0l.05,0A.47.47,0,0,0,174.46,35Zm4.87-1.31a5.16,5.16,0,0,0,.48-.93.11.11,0,0,0,0-.11.44.44,0,0,0-.08-.11.24.24,0,0,0-.11-.06.24.24,0,0,1-.11-.06,2.51,2.51,0,0,0-.55-.17,3.49,3.49,0,0,0-.52,0,5.45,5.45,0,0,0-1.54.12,10.12,10.12,0,0,0-1.39.43.51.51,0,0,1-.15.07.32.32,0,0,0-.13.07.49.49,0,0,0-.26.4v.31c0,.49,0,1,0,1.46s.06,1,.1,1.44a.45.45,0,0,0,0,.17.21.21,0,0,0,.1.08c.05,0,.09,0,.12,0l.19-.08.17-.08.8-.49a9.06,9.06,0,0,0,.77-.49c.38-.29.75-.58,1.1-.89A7.32,7.32,0,0,0,179.33,33.7ZM175.14,29s0,.09.1.12a.06.06,0,0,0,.07,0s.06,0,.07,0l.45-.39a5.73,5.73,0,0,1,.45-.39,14.87,14.87,0,0,0,1.55-1.64,6.26,6.26,0,0,0,.81-1.38.1.1,0,0,0,0-.13.3.3,0,0,0-.12-.13,1.4,1.4,0,0,0-.62-.12,5.08,5.08,0,0,0-1.23.06,4.88,4.88,0,0,0-1.2.37.44.44,0,0,0-.26.38c0,.27-.06.54-.07.8s0,.53,0,.8v.83A6.06,6.06,0,0,0,175.14,29Z"/><path class="cls-2" d="M188.88,36.91a1.22,1.22,0,0,1,.1.55.29.29,0,0,1-.17.26.88.88,0,0,1-.39.14.76.76,0,0,1-.44-.1,1,1,0,0,1-.21-.1l-.21-.1c-.16-.08-.25-.17-.26-.29q-.12-.62-.27-1.23t-.27-1.23c-.08-.41-.15-.84-.2-1.27s-.12-.86-.2-1.27a1.65,1.65,0,0,1-.07-.2.2.2,0,0,0-.14-.13l-.74.2a3.36,3.36,0,0,0-.71.3l-.11,0-.11,0a.69.69,0,0,1-.25,0,.2.2,0,0,0-.2.11,1.43,1.43,0,0,0-.07.48,8.08,8.08,0,0,0,0,2.09,4.65,4.65,0,0,1,0,1.36.73.73,0,0,1-.71.67,2.46,2.46,0,0,1-.54,0,1.32,1.32,0,0,1-.54-.2,1.55,1.55,0,0,1-.35-.32.67.67,0,0,1-.11-.46c0-.41,0-.82,0-1.21s0-.8,0-1.21c0-.24,0-.48,0-.71s0-.48.07-.74.06-.54.1-.8.06-.53.1-.8l.18-1.37c.06-.45.12-.9.2-1.34l.33-1.8a15.22,15.22,0,0,1,.43-1.77l.35-1.12c.12-.38.24-.75.37-1.12a.34.34,0,0,1,.36-.24l1.21.07.17,0,.14.05.26.11.29.11c.13.25.24.51.35.76a4,4,0,0,1,.23.81,4.9,4.9,0,0,0,.13.55,3.16,3.16,0,0,1,.13.55c.05.29.09.57.13.85s.08.56.11.85.07.55.12.83.09.56.12.83.06.53.07.77a2.57,2.57,0,0,1-.07.77,1,1,0,0,0-.14-.19l0,0s0,0,0,0a.94.94,0,0,0-.12.3,1.64,1.64,0,0,0-.07.3s0,0,0,0,0,0,0,0a.21.21,0,0,1,0,.33.08.08,0,0,0,0,.07.08.08,0,0,0,.05.07.17.17,0,0,0,.12.05l.13-.05.11-.05c.11-.05.17,0,.17.07A5.22,5.22,0,0,0,188,32c.06.34.11.69.14,1a7,7,0,0,0,.17,1,8.7,8.7,0,0,1,.17,1c.05.33.11.66.19,1A3.34,3.34,0,0,0,188.88,36.91ZM183,29.2a3.21,3.21,0,0,0,.07-.43c0-.14,0-.29,0-.43s0,0,0,0l0,0s0,0-.07.05a.84.84,0,0,0-.1.31c0,.08,0,.28,0,.6,0,0,0,0,0,0S183,29.22,183,29.2Zm.12-1.33a.42.42,0,0,0,.05-.12s0,0,0,0,0,0,0,0a.42.42,0,0,0,0,.12s0,0,0,0S183.07,27.85,183.07,27.87Zm.17-.79s0,0,0-.06,0,0,0-.06a.45.45,0,0,0,0-.11s0-.1,0-.18a.71.71,0,0,1,0,.17.16.16,0,0,0,0,.1A.39.39,0,0,0,183.24,27.08Zm.19-1h-.05l0,.07Zm.14-.45s0,0,0,0,0,0,0,0,0,0,0,0,0,0,0,0,0,0,0,0,0,0,0,0v.05s0,0,0,0A.13.13,0,0,1,183.57,25.58Zm.36,2.12a6.4,6.4,0,0,0,.27-1.21c.06-.41.1-.82.13-1.24a.42.42,0,0,0-.1-.19.23.23,0,0,0-.08.19.27.27,0,0,1,0,.19,1.81,1.81,0,0,0-.12.38,1.36,1.36,0,0,0-.06.2.64.64,0,0,1-.06.18,2.41,2.41,0,0,0-.05.32c0,.15,0,.32-.06.5s0,.35-.06.51a2.48,2.48,0,0,0,0,.33c0,.05,0,.07,0,.07a0,0,0,0,0,.05-.05A.44.44,0,0,0,183.93,27.7Zm-.05-3.55v.12h0v-.12Zm.24-.83a.31.31,0,0,0-.1.26s0,0,0,.07a.44.44,0,0,0,.17-.24.39.39,0,0,0-.05-.14l0,0S184.14,23.3,184.12,23.32Zm1.93,7.47a.19.19,0,0,0,.07-.12c0-.16,0-.31,0-.45s0-.29,0-.43c-.08-.76-.17-1.52-.27-2.29s-.23-1.52-.39-2.29a.39.39,0,0,0,0-.14h-.08c-.05,0-.07,0-.07,0a2.28,2.28,0,0,0-.12.29,4.21,4.21,0,0,0-.12.48,4.21,4.21,0,0,1-.12.48,5.12,5.12,0,0,0-.19.67c0,.22-.09.44-.12.67s-.06.38-.07.56,0,.37-.07.56a4.88,4.88,0,0,0-.12.75,3.3,3.3,0,0,1-.14.75.79.79,0,0,0,0,.2v.13c0,.35,0,.54.08.58s.23,0,.51,0l.6-.14.59-.14A.22.22,0,0,0,186.05,30.79Zm1.52,1.36c-.08-.08-.12-.06-.12.05a.17.17,0,0,0,.05.12c.05,0,.09,0,.12,0A.17.17,0,0,0,187.57,32.15Zm0,1.12c.05,0,.06-.06,0-.12l-.05,0a.07.07,0,0,0-.1.07C187.54,33.24,187.58,33.27,187.6,33.27Z"/><path class="cls-2" d="M197,26.5a.33.33,0,0,1,.07.24,3.1,3.1,0,0,0,0,.43,2.48,2.48,0,0,1-.05.45c0,.17-.06.35-.08.51s-.05.34-.08.51,0,.15,0,.2a1.21,1.21,0,0,0,0,.2c0,.38-.05.76-.06,1.13s0,.75-.06,1.13-.06.67-.08,1,0,.67-.08,1-.05.48-.06.71a1.92,1.92,0,0,0,.11.71.64.64,0,0,1,0,.48,1.47,1.47,0,0,0-.13.42,3.42,3.42,0,0,0,0,.44,1,1,0,0,1,0,.2c0,.06,0,.12-.05.2s0,.15,0,.2a1.21,1.21,0,0,0,0,.2c0,.43,0,.86,0,1.29s0,.86,0,1.29c0,.11,0,.22,0,.32s0,.21,0,.32a4.66,4.66,0,0,1,.06.49c0,.15,0,.31.06.49a1.56,1.56,0,0,1-.05.55.45.45,0,0,0,0,.19c0,.06,0,.11-.12.14a.33.33,0,0,1-.24,0l-.24-.1a.19.19,0,0,1-.07-.12.32.32,0,0,1,0-.13.36.36,0,0,0,0-.11.31.31,0,0,0-.1-.13.15.15,0,0,0-.17,0c-.08.06-.15.08-.21,0a.77.77,0,0,1-.19-.14l-.08-.14-.06-.14c0-.22-.05-.44-.06-.64s0-.42,0-.64c0-.38,0-.76,0-1.14s0-.75,0-1.12a2.18,2.18,0,0,1,0-.25,2.18,2.18,0,0,0,0-.25,1.93,1.93,0,0,1,0-.24,1.93,1.93,0,0,0,0-.24c0-.22-.1-.32-.29-.29l-.29,0a1.5,1.5,0,0,0-.29.06,7.72,7.72,0,0,1-.83.2l-.83.18-.24.06-.24.08c0,.06,0,.12,0,.17a.36.36,0,0,0,0,.14c0,.25,0,.5.05.74s0,.48.07.71,0,.47,0,.7,0,.46.05.68a1.5,1.5,0,0,1-.05.31c-.06.17-.17.25-.31.21l-.31-.06a.48.48,0,0,1-.26-.18.33.33,0,0,0-.26-.17.78.78,0,0,1-.68-.79c0-.27-.06-.55-.07-.83s0-.57-.05-.86a2.3,2.3,0,0,1,0-.36v-.36l-.06-.37a.88.88,0,0,0-.15-.35,1.17,1.17,0,0,1-.05-.11.09.09,0,0,1,0-.11.48.48,0,0,0,.07-.26,2.83,2.83,0,0,0,0-.29c0-.29-.06-.57-.08-.85a4.84,4.84,0,0,1,0-.85,3.05,3.05,0,0,1,0-.52c0-.17,0-.35,0-.52a1.54,1.54,0,0,0,0-.37,2.32,2.32,0,0,1,0-.37c0-.33,0-.67,0-1s0-.67,0-1c0-.16,0-.32,0-.48s0-.32,0-.48v-.24a2.9,2.9,0,0,0,.14-.76,3.86,3.86,0,0,0,0-.76.28.28,0,0,1,.05-.12c0-.05.06-.07.09-.07h1.19a.71.71,0,0,1,.38.12.73.73,0,0,1,.29.38,2,2,0,0,1,0,.24,1,1,0,0,1,0,.24L191.67,29a1.46,1.46,0,0,0-.07.3c0,.1,0,.21,0,.32a8.56,8.56,0,0,0-.13,1.33c0,.44,0,.89-.08,1.33a9.2,9.2,0,0,0,0,1c0,.3,0,.6,0,.89s0,.59.07.89c0,0,0,.06.06.1a.21.21,0,0,0,.11,0,1.42,1.42,0,0,1,.29,0l.29,0,1-.19c.34-.06.67-.13,1-.21a.68.68,0,0,0,.31-.1.44.44,0,0,0,.1-.12.39.39,0,0,0,0-.14c0-.32.06-.64.07-1s0-.65.05-1,0-.47,0-.7a3.08,3.08,0,0,1,.07-.68.41.41,0,0,0,0-.19,1.34,1.34,0,0,1,0-.21c0-.29,0-.57,0-.86a4.5,4.5,0,0,1,.07-.83.47.47,0,0,0,0-.2,1.21,1.21,0,0,1,0-.2v-.37c0-.12,0-.24,0-.37,0-.33.07-.67.11-1s.08-.67.13-1a.2.2,0,0,1,.08-.17.27.27,0,0,1,.2,0,3.47,3.47,0,0,1,.46.13,2.64,2.64,0,0,0,.46.13.46.46,0,0,1,.31.17Zm-1.62,9.86s-.07,0-.11.06a.32.32,0,0,0-.06.18,1.85,1.85,0,0,1,0,.23,2.1,2.1,0,0,1,0,.27c.13-.1.19-.15.19-.17a1.34,1.34,0,0,0,0-.4.38.38,0,0,0,0-.1S195.4,36.37,195.36,36.36Zm.12,4.21a3,3,0,0,0,.05-.51,2.94,2.94,0,0,0-.05-.51c0-.17-.06-.36-.08-.55a1.45,1.45,0,0,1,0-.55.2.2,0,0,0,0-.15l-.06-.15a.09.09,0,0,0-.1-.1.18.18,0,0,0-.05.07,11.29,11.29,0,0,0,.07,1.93A1.38,1.38,0,0,0,195.48,40.57Z"/><path class="cls-2" d="M199.84,32.4q0,.48-.06.93t-.06.93a17.46,17.46,0,0,0,.29,4.09l.29,1.43a1.29,1.29,0,0,1,0,.48.28.28,0,0,1-.13.24.81.81,0,0,1-.25.12.67.67,0,0,1-.45-.12l-.17-.11a.71.71,0,0,0-.17-.11.15.15,0,0,0-.19,0,.25.25,0,0,1-.19,0c-.05,0-.09,0-.12-.1a.24.24,0,0,1-.06-.11.36.36,0,0,0,0-.11c-.08-.46-.17-.92-.26-1.38s-.18-.93-.26-1.4a13,13,0,0,1-.11-1.4c0-.48,0-.94,0-1.4s0-1,.05-1.42.06-.94.1-1.42.08-1.23.13-1.84.11-1.23.15-1.84c0-.35.06-.7.07-1.05s0-.7.05-1a.22.22,0,0,0,0-.12.37.37,0,0,1,0-.12.17.17,0,0,1,.08-.13.28.28,0,0,1,.13-.06l.74.08.71.08a.37.37,0,0,1,.29.26,2,2,0,0,1,.07.81c0,.33-.06.67-.08,1a8.55,8.55,0,0,1-.13,1c0,.22-.07.45-.11.68a5.46,5.46,0,0,0-.08.68c0,.22,0,.45-.07.68s-.06.46-.1.68,0,.38-.05.56S199.86,32.21,199.84,32.4Zm-1.4,3.24a3,3,0,0,1,0,.31.45.45,0,0,0,0,.26.35.35,0,0,0,.07.12s.06,0,.1,0a.19.19,0,0,0,.07-.12A1.35,1.35,0,0,0,198.44,35.64Zm.35-2.66a4.08,4.08,0,0,0,.08-.93q0-.48-.06-1c0,.1-.06.16-.07.19a.16.16,0,0,0,0,.1c0,.37-.08.74-.13,1.12a4.69,4.69,0,0,0,0,1.12,2.63,2.63,0,0,1,0,.33,1.66,1.66,0,0,0-.06.55,1.85,1.85,0,0,1-.06.57.46.46,0,0,0,0,.14c0,.06.07.1.12.1s.1,0,.1-.07a2.91,2.91,0,0,0,.07-.64v-.64A7.08,7.08,0,0,1,198.79,33Zm0,4.26a.54.54,0,0,0-.1-.45h-.07a.78.78,0,0,0-.11.2.37.37,0,0,0,0,.23c0,.06.07.1.12.1A.37.37,0,0,0,198.75,37.24Z"/><path class="cls-2" d="M209.11,40.08a1.22,1.22,0,0,1,.1.55.29.29,0,0,1-.17.26.88.88,0,0,1-.39.14.76.76,0,0,1-.44-.1,1,1,0,0,1-.21-.1l-.21-.1c-.16-.08-.25-.17-.26-.29q-.12-.61-.27-1.23T207,38c-.08-.41-.15-.84-.2-1.27s-.12-.86-.2-1.27a1.65,1.65,0,0,1-.07-.2.2.2,0,0,0-.14-.13l-.74.2a3.36,3.36,0,0,0-.71.3l-.11,0-.11,0a.69.69,0,0,1-.25,0,.2.2,0,0,0-.2.11,1.43,1.43,0,0,0-.07.48,8.08,8.08,0,0,0,0,2.09,4.65,4.65,0,0,1,0,1.36.73.73,0,0,1-.71.67,2.46,2.46,0,0,1-.54,0,1.32,1.32,0,0,1-.54-.2,1.55,1.55,0,0,1-.35-.32.67.67,0,0,1-.11-.46c0-.41,0-.82,0-1.21s0-.8,0-1.21c0-.24,0-.48.05-.71s0-.48.07-.74.06-.54.1-.8.06-.53.1-.8l.18-1.37c.06-.45.12-.9.2-1.34l.33-1.8a15.22,15.22,0,0,1,.43-1.77l.35-1.12c.12-.38.24-.75.37-1.12a.34.34,0,0,1,.36-.24l1.21.07.17,0,.14,0,.26.11.29.11c.13.25.24.51.35.76a4,4,0,0,1,.23.81,4.9,4.9,0,0,0,.13.55,3.16,3.16,0,0,1,.13.55c.05.29.09.57.13.85s.08.56.11.85.07.55.12.83.09.56.12.83.06.53.07.77a2.57,2.57,0,0,1-.07.77,1,1,0,0,0-.14-.19l0,0s0,0,0,0a.94.94,0,0,0-.12.3,1.64,1.64,0,0,0-.07.3s0,0,0,0l0,0a.21.21,0,0,1,0,.33.08.08,0,0,0,0,.07.08.08,0,0,0,0,.07.17.17,0,0,0,.12.05l.13-.05.11,0c.11-.05.17,0,.17.07a5.22,5.22,0,0,0,.1,1.06c.06.34.11.69.14,1a7,7,0,0,0,.17,1,8.7,8.7,0,0,1,.17,1c0,.33.11.66.19,1A3.34,3.34,0,0,0,209.11,40.08Zm-5.93-7.71a3.21,3.21,0,0,0,.07-.43c0-.14,0-.29.05-.43s0,0,0,0l0,0s0,0-.07.05a.84.84,0,0,0-.1.31c0,.08,0,.28,0,.6,0,0,0,0,0,0S203.18,32.38,203.18,32.37ZM203.3,31a.42.42,0,0,0,0-.12s0,0,0,0,0,0,0,0a.42.42,0,0,0-.05.12s0,0,0,0S203.3,31,203.3,31Zm.17-.79s0-.05.05-.06,0,0,0-.06a.45.45,0,0,0,0-.11l0-.18a.71.71,0,0,1-.05.17.16.16,0,0,0,0,.1A.39.39,0,0,0,203.47,30.25Zm.19-1.05h0l0,.07Zm.14-.45s0,0,0,0,0,0,0,0,0,0,0,0,0,0,0,0,0,0,0,0,0,0,0,0v.05s0,0,0,0A.11.11,0,0,1,203.8,28.75Zm.36,2.12a6.4,6.4,0,0,0,.27-1.21c.06-.41.1-.82.13-1.24a.42.42,0,0,0-.1-.19.23.23,0,0,0-.08.19.27.27,0,0,1,0,.19,1.81,1.81,0,0,0-.12.38,1.36,1.36,0,0,0-.06.2.64.64,0,0,1-.06.18,2.41,2.41,0,0,0,0,.32c0,.15,0,.32-.06.5l-.06.51a2.48,2.48,0,0,0,0,.33s0,.07.05.07a0,0,0,0,0,0-.05A.44.44,0,0,0,204.16,30.87Zm0-3.55v.12h0v-.12Zm.24-.83a.31.31,0,0,0-.1.26s0,0,.05.07a.44.44,0,0,0,.17-.24.39.39,0,0,0-.05-.14s0,0,0,0ZM206.28,34a.19.19,0,0,0,.07-.12c0-.16,0-.31,0-.45s0-.29,0-.43c-.08-.76-.17-1.52-.27-2.29s-.23-1.52-.39-2.29a.39.39,0,0,0,0-.14h-.08s-.07,0-.07,0a2.28,2.28,0,0,0-.12.29,4.21,4.21,0,0,0-.12.48,4.21,4.21,0,0,1-.12.48,5.12,5.12,0,0,0-.19.67c0,.22-.09.44-.12.67s-.06.38-.07.56,0,.37-.07.56a4.88,4.88,0,0,0-.12.75,3.3,3.3,0,0,1-.14.75.79.79,0,0,0,0,.2v.13c0,.35,0,.54.08.58s.23,0,.51,0l.6-.14.59-.14A.28.28,0,0,0,206.28,34Zm1.52,1.36c-.08-.08-.12-.06-.12,0a.17.17,0,0,0,0,.12c.05,0,.09,0,.12-.05A.17.17,0,0,0,207.8,35.32Zm0,1.12s.06-.06,0-.12l0,0a.07.07,0,0,0-.1.07C207.77,36.41,207.81,36.44,207.83,36.44Z"/><path class="cls-2" d="M167.56,28.44a.28.28,0,0,0-.07-.09.48.48,0,0,1-.13.16.34.34,0,0,1-.27,0H167a.48.48,0,0,1-.22,0,.91.91,0,0,1-.16-.11l-.13-.13a1,1,0,0,1-.27-.8,1.19,1.19,0,0,0,0-.27v-.09a.81.81,0,0,0,0-.16s0,1.05,0,1a1.85,1.85,0,0,0,0-.23,1.85,1.85,0,0,1,0-.23c0-.27,0-.54,0-.8s0-.53,0-.78a1.33,1.33,0,0,1,0-.31,3.42,3.42,0,0,1,0-.85,1,1,0,0,0,0-.25,2.44,2.44,0,0,1,0-.27v-.31c0-.25,0-.51,0-.77s0-.52,0-.77a1.91,1.91,0,0,0-.13-.82L166,21.3a.75.75,0,0,1,0-.26,1.34,1.34,0,0,1,0-.22.44.44,0,0,1,.21-.27.28.28,0,0,0,.13-.25c0-.15,0-.3,0-.45s0-.3,0-.47,0-.48.07-.71,0-.48,0-.74a.74.74,0,0,0-.11-.45.4.4,0,0,1-.11-.2.14.14,0,0,0,0-.07c0-.06,0-.09-.07-.09a.75.75,0,0,1-.27-.26l-.18-.28a.48.48,0,0,0-.09-.13.68.68,0,0,1,0-.2c0-.12,0-.23,0-.33s0-.21,0-.31a.36.36,0,0,1,.25-.38l.56-.18,1-.35c.35-.11.7-.21,1.06-.3s.83-.19,1.29-.27l.27,0,.36-.06.36,0,.22,0h.25c.12,0,.2,0,.23.09a.62.62,0,0,1,.1.16c0,.1.1.19.25.27a.77.77,0,0,1,.47.87.45.45,0,0,1-.25.33.35.35,0,0,1-.11,0,.38.38,0,0,0-.13.06l-.45.16-.07,0a1.65,1.65,0,0,0-.8,0l-.2,0-.57.13a5,5,0,0,0-.55.16l-.29.1-.27.1a.31.31,0,0,0-.18.27v.18a1.65,1.65,0,0,0,0,.27,2.94,2.94,0,0,1,0,.42c0,.13,0,.27-.07.4a2.49,2.49,0,0,0-.06.32l0,.3v.07a.13.13,0,0,0,0,.1.3.3,0,0,1,0,.1.2.2,0,0,0,0,.11l0,.11a1.11,1.11,0,0,0,0,.56v.09h0l.19-.06.19-.06a10.18,10.18,0,0,1,1.15-.3q.58-.12,1.26-.21l.18,0h.18a.44.44,0,0,1,.27.09q.28.24.6.54a1.16,1.16,0,0,1,.31.51.34.34,0,0,1,0,.31.41.41,0,0,1-.25.2H172a.86.86,0,0,1-.23.06l-.23,0a8.65,8.65,0,0,0-1.38.28c-.45.13-.89.26-1.34.41l-.13,0-.3.12-.3.17-.1,0-.1,0a.25.25,0,0,0-.16.25,4,4,0,0,0,0,.49c0,.16,0,.33,0,.49q0,.49,0,1c0,.31,0,.63,0,1,0,.52,0,1,0,1.47s.05.91.08,1.34"/><path class="cls-2" d="M180.79,18.58c.09.06.13.12.13.18s0,.24-.13.27l-.16.06-.16.06-.25.09-.25.11-.62.36-.62.33a.37.37,0,0,0-.2.13,1.45,1.45,0,0,1-.43.39,2.68,2.68,0,0,0-.48.35,4.14,4.14,0,0,1-.61.42,5.24,5.24,0,0,1-.68.31.67.67,0,0,1-.6-.07l-.45-.27a1,1,0,0,1-.36-.38.26.26,0,0,0-.11-.09,1.69,1.69,0,0,1-.62-.66,4.45,4.45,0,0,1-.33-.84,4.68,4.68,0,0,1-.22-1.16c0-.16,0-.32-.06-.47a1.56,1.56,0,0,0-.14-.45c-.06-.09-.06-.16,0-.22a1.4,1.4,0,0,0,.07-.4c0-.25,0-.51,0-.78l0-.78c0-.15,0-.29,0-.43a1.56,1.56,0,0,0,0-.43,2.67,2.67,0,0,1,0-.56l0-.54a5,5,0,0,0,0-.67,5,5,0,0,1,0-.67c0-.16,0-.32,0-.48a4,4,0,0,1,.07-.48.2.2,0,0,0-.09-.2.12.12,0,0,0-.1,0l-.1.06s0,0-.07,0a.71.71,0,0,1-.58.22.83.83,0,0,1-.65-.36,1.18,1.18,0,0,0-.23-.29l-.26-.22a.76.76,0,0,1-.16-.18.31.31,0,0,1-.06-.27.26.26,0,0,1,.14-.2l.37-.16a2.43,2.43,0,0,0,.37-.16l.7-.33.72-.33a.4.4,0,0,0,.22-.29.14.14,0,0,0,0-.09.57.57,0,0,0,0-.22c0-.07,0-.13.16-.16a.51.51,0,0,1,.38.07,1.32,1.32,0,0,0,.52.12,2.51,2.51,0,0,0,.55,0c.22,0,.45-.07.67-.12L177,7.6l.52-.07a4,4,0,0,0,.5-.07h.08a.12.12,0,0,0,.08,0,.79.79,0,0,1,.55-.09,2.3,2.3,0,0,1,.5.18l.29.11a1.85,1.85,0,0,0,.31.11.65.65,0,0,1,.35.18,1.41,1.41,0,0,1,.21.31.17.17,0,0,1,0,.22c-.15.07-.29.14-.43.19a1.63,1.63,0,0,1-.46.1,2.5,2.5,0,0,0-.91.18,1.82,1.82,0,0,1-.52.14,4.86,4.86,0,0,0-.55.1l-1,.27A.77.77,0,0,0,176,10c0,.13-.06.26-.08.39s-.05.26-.08.39-.09.47-.14.69-.1.45-.14.69c0,.07,0,.15,0,.23a.88.88,0,0,0,0,.23,3,3,0,0,1,0,.52c0,.17-.05.34-.08.5a2.25,2.25,0,0,0-.06.36l0,.36c0,.25-.06.51-.1.77s-.09.52-.14.77a.14.14,0,0,0,0,.14.15.15,0,0,0,.16,0,2.36,2.36,0,0,1,.28-.12l.3-.12a6.71,6.71,0,0,1,1.2-.33.86.86,0,0,1,.47.09l.31.22.33.22c.15.07.16.19,0,.33a1.79,1.79,0,0,1-.41.37c-.16.1-.32.18-.48.26a2.54,2.54,0,0,0-.38.16l-.14.07a.24.24,0,0,0-.12.07,5.57,5.57,0,0,1-.59.4l-.61.36-.09.08-.09.08a.47.47,0,0,0-.16.36,3.47,3.47,0,0,0,.31,1.29.18.18,0,0,0,.27.09,1.45,1.45,0,0,1,.25-.12l.25-.12,1-.52,1-.52a3.19,3.19,0,0,1,.66-.28l.68-.19a1.29,1.29,0,0,1,.39,0,.52.52,0,0,1,.35.19.48.48,0,0,0,.27.17Z"/><path class="cls-2" d="M183.2,12.62q0,.45-.06.87t-.06.87a16.49,16.49,0,0,0,.27,3.84l.27,1.34a1.13,1.13,0,0,1,0,.45.26.26,0,0,1-.12.22.53.53,0,0,1-.23.11.68.68,0,0,1-.42-.11l-.16-.1a.62.62,0,0,0-.16-.1.17.17,0,0,0-.18,0,.23.23,0,0,1-.18,0s-.08,0-.11-.09a.21.21,0,0,1-.06-.1l0-.1c-.07-.43-.16-.86-.25-1.29s-.17-.87-.25-1.32a11.38,11.38,0,0,1-.1-1.32c0-.45,0-.88,0-1.32s0-.89,0-1.33l.09-1.33c0-.58.07-1.16.12-1.73s.1-1.15.14-1.73c0-.33.05-.65.07-1s0-.65,0-1a.36.36,0,0,0,0-.11.36.36,0,0,1,0-.11.15.15,0,0,1,.08-.12l.15,0,.69.08.67.08c.12,0,.21.1.27.25a2,2,0,0,1,.07.76c0,.31-.06.62-.08.94a7.8,7.8,0,0,1-.12.94c0,.21-.06.42-.1.64s-.06.43-.08.64,0,.42-.07.64l-.09.64c0,.18,0,.35,0,.52S183.22,12.44,183.2,12.62Zm-1.31,3a2.64,2.64,0,0,1,0,.29.42.42,0,0,0,0,.25.26.26,0,0,0,.07.11.06.06,0,0,0,.09,0,.2.2,0,0,0,.07-.11A1.35,1.35,0,0,0,181.89,15.65Zm.33-2.49a3.57,3.57,0,0,0,.08-.87c0-.3,0-.62-.06-1a1,1,0,0,1-.07.18.15.15,0,0,0,0,.09q0,.51-.12,1.05a4.65,4.65,0,0,0,0,1,2.28,2.28,0,0,1,0,.31,2.1,2.1,0,0,0-.06.51,1.66,1.66,0,0,1-.06.54.39.39,0,0,0,0,.13c0,.06.07.09.11.09s.09,0,.09-.07a3.26,3.26,0,0,0,.07-.6V14C182.16,13.73,182.18,13.45,182.22,13.16Zm0,4a.51.51,0,0,0-.09-.42H182a.69.69,0,0,0-.1.19.3.3,0,0,0,0,.21c0,.06.07.09.11.09A.23.23,0,0,0,182.18,17.15Z"/><path class="cls-2" d="M192.26,10.89a.23.23,0,0,1,0,.33,1.14,1.14,0,0,1-.19.19.38.38,0,0,1-.23.08.81.81,0,0,0-.38,0h-.39a1.14,1.14,0,0,0-.37,0,6.27,6.27,0,0,1-1.29.13.75.75,0,0,0-.45.11.94.94,0,0,0-.13.47.15.15,0,0,0,0,.07s0,0,0,.07a1.66,1.66,0,0,1-.07.49,1.16,1.16,0,0,0,0,.49,1.89,1.89,0,0,1,0,.47c0,.15,0,.3,0,.47a4,4,0,0,0,0,.77,2.15,2.15,0,0,1-.08.79,2.12,2.12,0,0,1,0,.56,2.62,2.62,0,0,0,0,.56c0,.16,0,.33,0,.49a2,2,0,0,1,0,.49.46.46,0,0,0,0,.2,1.09,1.09,0,0,1,0,.18l.09,1.1.09,1.08c0,.19.06.38.08.57s.05.38.08.57a.59.59,0,0,0,0,.13s0,.1,0,.16.07.27.11.4.08.27.11.4l.08.17a.3.3,0,0,1,0,.19.76.76,0,0,1,0,.21,1.8,1.8,0,0,1-.08.21c0,.06,0,.09-.11.09l-.3,0a1.27,1.27,0,0,1-.28-.06.73.73,0,0,1-.31-.17l-.25-.23a1.88,1.88,0,0,1-.12-.18l-.12-.2a.39.39,0,0,1,0-.13,1.14,1.14,0,0,0,0-.52,2.39,2.39,0,0,1-.1-.52,1.53,1.53,0,0,0,0-.3l-.06-.3c0-.34-.06-.68-.08-1s0-.67-.08-1-.05-.68-.06-1,0-.68-.06-1l-.13-2.47a.86.86,0,0,1,0-.23V14c0-.21,0-.42,0-.64s0-.43-.06-.64a5.46,5.46,0,0,0-.13-.89.12.12,0,0,0-.06-.09.16.16,0,0,0-.1,0h-.46l-.46,0a2.51,2.51,0,0,1-.67,0,.77.77,0,0,1-.37-.21.64.64,0,0,1-.19-.35,3.8,3.8,0,0,1,0-.46c0-.14,0-.29,0-.46a1.64,1.64,0,0,1,0-.22.94.94,0,0,1,.07-.22.22.22,0,0,1,.08-.09.16.16,0,0,1,.1,0,2.14,2.14,0,0,0,.75.08,4.68,4.68,0,0,1,.75,0l.72,0,.7,0h.39l.37,0,.39,0a1.5,1.5,0,0,1,.37,0,.69.69,0,0,0,.35,0,.35.35,0,0,1,.32.07l.57,0h.57a.52.52,0,0,1,.45.22l0,0A2.85,2.85,0,0,0,192.26,10.89Z"/><path class="cls-2" d="M198.71,23.18a1.2,1.2,0,0,1,.09.51.28.28,0,0,1-.16.25.87.87,0,0,1-.37.13.71.71,0,0,1-.41-.09l-.2-.09-.2-.09a.39.39,0,0,1-.25-.27c-.07-.39-.16-.77-.26-1.15s-.18-.76-.26-1.15-.14-.78-.19-1.19-.12-.81-.19-1.19c0-.07-.05-.14-.07-.19a.22.22,0,0,0-.13-.12l-.69.19a3.82,3.82,0,0,0-.67.28.29.29,0,0,1-.1,0l-.1,0a.87.87,0,0,1-.23,0,.2.2,0,0,0-.19.1,1.52,1.52,0,0,0-.07.45,7.52,7.52,0,0,0,0,2,5.14,5.14,0,0,1,0,1.28.68.68,0,0,1-.67.62,2.8,2.8,0,0,1-.5,0,1.23,1.23,0,0,1-.5-.19,1.32,1.32,0,0,1-.32-.3.66.66,0,0,1-.1-.43,11,11,0,0,0,0-1.14c0-.37,0-.75,0-1.14,0-.22,0-.45,0-.67s0-.45.07-.69l.09-.75.09-.75c.06-.43.11-.86.17-1.28s.12-.84.19-1.26.21-1.13.31-1.68a16,16,0,0,1,.4-1.66c.1-.34.21-.69.32-1s.23-.71.35-1.05a.3.3,0,0,1,.33-.22l1.14.07.16,0,.13,0,.25.1.27.1c.12.24.23.48.32.71a3.16,3.16,0,0,1,.21.76,3.81,3.81,0,0,0,.12.51,3.81,3.81,0,0,1,.12.51c0,.27.09.53.12.79s.07.52.1.79.07.51.11.78.08.53.11.78.05.49.07.72a2.59,2.59,0,0,1-.07.72,1.45,1.45,0,0,0-.13-.18l0,0s0,0,0,0a.72.72,0,0,0-.11.28c0,.16-.07.25-.07.28l0,0s0,0,0,0a.2.2,0,0,1,0,.31.12.12,0,0,0,0,.07.08.08,0,0,0,0,.07.15.15,0,0,0,.11,0l.12,0,.1,0c.1,0,.16,0,.16.07a5.36,5.36,0,0,0,.09,1c.06.32.1.64.13,1a6.37,6.37,0,0,0,.16.94,7.38,7.38,0,0,1,.16.94,7.62,7.62,0,0,0,.18.93C198.52,22.58,198.61,22.88,198.71,23.18ZM193.16,16c0-.13.05-.27.07-.4s0-.27,0-.4a0,0,0,0,1,0,0l0,0a.13.13,0,0,0-.07,0,.71.71,0,0,0-.09.29c0,.07,0,.26,0,.56a0,0,0,0,1,0,0S193.16,16,193.16,16Zm.11-1.25a.36.36,0,0,0,0-.11s0,0,0,0a0,0,0,0,1,0,0,.36.36,0,0,0,0,.11s0,0,0,0S193.27,14.69,193.27,14.71Zm.16-.74a.15.15,0,0,1,0-.06.08.08,0,0,0,0-.06.38.38,0,0,0,0-.1,1.39,1.39,0,0,1,0-.17.91.91,0,0,1,0,.16.29.29,0,0,0,0,.09S193.4,13.91,193.43,14Zm.18-1h0l0,.07Zm.13-.42s0,0,0,0a0,0,0,0,0,0,0s0,0,0,0a0,0,0,0,1,0,0s0,0,0,0,0,0,0,0v0s0,0,0,0S193.74,12.55,193.74,12.57Zm.33,2a7.25,7.25,0,0,0,.26-1.14c0-.39.09-.77.12-1.16a.46.46,0,0,0-.09-.18.21.21,0,0,0-.08.18.29.29,0,0,1,0,.18,1.13,1.13,0,0,0-.11.36,1,1,0,0,0-.06.19.7.7,0,0,1-.06.17,1.44,1.44,0,0,0,0,.3c0,.14,0,.3-.06.47s0,.33-.06.48a2.16,2.16,0,0,0,0,.31s0,.07,0,.07,0,0,0,0A.36.36,0,0,0,194.07,14.55Zm0-3.32v.11h0v-.11Zm.22-.78a.3.3,0,0,0-.09.25.13.13,0,0,0,0,.07.38.38,0,0,0,.16-.22.3.3,0,0,0,0-.13l0,0S194.27,10.43,194.25,10.45Zm1.81,7a.2.2,0,0,0,.07-.11c0-.15,0-.29,0-.42l0-.4c-.07-.71-.16-1.43-.26-2.14s-.22-1.43-.37-2.14a.58.58,0,0,0,0-.13h-.06s-.07,0-.07,0a1.16,1.16,0,0,0-.11.27c0,.15-.08.3-.11.45s-.07.3-.11.45-.13.42-.18.62-.08.42-.11.62,0,.35-.07.52,0,.35-.07.52a3.51,3.51,0,0,0-.11.7,3,3,0,0,1-.13.7,1.54,1.54,0,0,0,0,.19v.12c0,.33,0,.51.08.55s.21,0,.48,0l.56-.13.56-.13A.39.39,0,0,0,196.06,17.45Zm1.43,1.27c-.07-.07-.11-.06-.11,0a.15.15,0,0,0,0,.11s.08,0,.11,0A.15.15,0,0,0,197.49,18.72Zm0,1.05s.05-.05,0-.11l0,0c-.06,0-.09,0-.09.07S197.49,19.77,197.51,19.77Z"/><polygon class="cls-2" points="168.93 30.55 168.94 30.53 168.93 30.53 168.93 30.55"/><path class="cls-2" d="M168.89,30.7a.1.1,0,0,1,0,0v0a.08.08,0,0,0,0,0s0,0,0,0a0,0,0,0,0,0,0V30.7Z"/><path class="cls-2" d="M169,30.37h0s0,0,0,0Z"/><path class="cls-2" d="M167.93,32.23s0,0,0,0a.08.08,0,0,1,0,0h0v0S167.94,32.22,167.93,32.23Z"/><path class="cls-2" d="M168.85,31a.08.08,0,0,0,0,0h0a.08.08,0,0,0,0,0s0,0,0,0Z"/><path class="cls-2" d="M169.16,29.83a.08.08,0,0,0,0,0h0a.09.09,0,0,0,0,.07,0,0,0,0,0,0,0A.18.18,0,0,0,169.16,29.83Z"/><path class="cls-2" d="M168.83,31.14h0a.16.16,0,0,0,0,.08,1.36,1.36,0,0,0,0,.16,0,0,0,0,1,0,0h0s0-.08,0-.12,0-.08,0-.12,0,0,0,0Z"/><path class="cls-2" d="M169.18,30.32a.09.09,0,0,0,0-.05.06.06,0,0,0,0,.05.09.09,0,0,1,0,.05.22.22,0,0,0,0,.1s0,0,0,.05a.17.17,0,0,1,0,.05s0,.05,0,.09a.59.59,0,0,1,0,.13c0,.05,0,.09,0,.14s0,.07,0,.09,0,0,0,0h0l0-.05a1.94,1.94,0,0,0,.07-.33A1.28,1.28,0,0,0,169.18,30.32Z"/><path class="cls-2" d="M170.05,32.43s0,0,0,0l0,0s0,0,0,0Z"/><path class="cls-2" d="M169.91,28.61a6.31,6.31,0,0,0-3.31-.29,2,2,0,0,0-.85.25,1.9,1.9,0,0,0-.67,1,3.91,3.91,0,0,0-.1,2.32l.06,1a3,3,0,0,0,2.3,2.24,2.86,2.86,0,0,0,1-.16,6.08,6.08,0,0,0,2.39-1.24,3.29,3.29,0,0,0,1.12-2.49A3.27,3.27,0,0,0,169.91,28.61Zm-1.56,4.61s0,0,0,.06a.11.11,0,0,1-.07,0l-.12,0a.17.17,0,0,1-.1-.07.07.07,0,0,0-.06,0,.15.15,0,0,1-.12-.08.33.33,0,0,1,0-.14s0-.05,0-.07,0,0,0-.07a.21.21,0,0,0-.07-.13,5,5,0,0,1-.39-.41,3.83,3.83,0,0,1-.33-.46l-.12-.2a2.12,2.12,0,0,1-.11-.21l0-.06,0-.06h0l0,0a2.25,2.25,0,0,0,0,.44v.74a.76.76,0,0,0,0,.15.49.49,0,0,1,0,.12.49.49,0,0,0,0,.12,1.94,1.94,0,0,0,0,.24,1.85,1.85,0,0,0,0,.23.23.23,0,0,1-.06.19.11.11,0,0,1-.13,0,.51.51,0,0,1-.25-.11.23.23,0,0,1-.07-.1,1.41,1.41,0,0,1-.06-.22c0-.14,0-.28-.05-.43s0-.29,0-.43a2.26,2.26,0,0,0,0-.26c0-.09,0-.17,0-.26s0-.17,0-.26a2.17,2.17,0,0,1,0-.26s0-.06,0-.09v-.09c0-.14,0-.27,0-.42s0-.28,0-.42a.06.06,0,0,1,0-.06.08.08,0,0,1,.07,0l.12,0,.34.09.07,0,.07,0a.19.19,0,0,1,.1.1l0,.06,0,.06a1.12,1.12,0,0,0,.08.26l.09.26a1.34,1.34,0,0,0,.07.18l.09.18.15.31c.05.1.11.2.17.3l0,.07.05.07h0a.08.08,0,0,0,0,0V31.7c0-.14,0-.28,0-.42v0c0-.14,0-.27,0-.41s0-.27,0-.41,0,0,0-.06v-.06c0-.15,0-.3,0-.45s0-.31,0-.46a.48.48,0,0,1,0-.12v-.12c0-.07,0-.13,0-.2a1.41,1.41,0,0,0,0-.2s0,0,0,0h0l.08,0,.12.06.13,0a.3.3,0,0,1,.17.11.27.27,0,0,1,.05.18v.14s0,.09,0,.14a1.49,1.49,0,0,0,0,.21c0,.07,0,.14,0,.21v.27c0,.09,0,.18,0,.27v.76c0,.25,0,.5,0,.75a4.58,4.58,0,0,0,0,.53,4.67,4.67,0,0,0,.08.52.76.76,0,0,1,0,.15.76.76,0,0,0,0,.15h0Zm2,.45-.11,0a.14.14,0,0,1-.12,0l-.06,0-.06,0s-.07,0-.07-.08-.05-.22-.07-.33-.05-.22-.07-.33,0-.22-.05-.34,0-.23-.05-.34l0-.05,0,0-.2,0-.19.08h-.06a.16.16,0,0,1-.07,0,.05.05,0,0,0-.05,0,.51.51,0,0,0,0,.13,2.08,2.08,0,0,0,0,.56,1.62,1.62,0,0,1,0,.36.19.19,0,0,1-.19.18h-.14a.34.34,0,0,1-.14-.05.26.26,0,0,1-.09-.09.21.21,0,0,1,0-.12c0-.11,0-.22,0-.33V32.6c0-.06,0-.13,0-.19a1.5,1.5,0,0,1,0-.2l0-.21,0-.21c0-.12,0-.25,0-.37s0-.24.05-.36l.09-.48a4.21,4.21,0,0,1,.12-.48l.09-.3c0-.1.06-.2.1-.3s0-.06.1-.06l.33,0h.08l.07,0,.08,0c0,.07.07.14.09.2a.79.79,0,0,1,.06.22.83.83,0,0,0,0,.15c0,.05,0,.1,0,.15a1.85,1.85,0,0,0,0,.23l0,.23,0,.22,0,.22c0,.07,0,.14,0,.21a.75.75,0,0,1,0,.21l0,0h0a.22.22,0,0,0,0,.08s0,.07,0,.08h0a0,0,0,0,0,0,0,.06.06,0,0,1,0,.09,0,0,0,0,0,0,0s0,0,0,0h.1s0,0,0,0a1.27,1.27,0,0,0,0,.28,2.36,2.36,0,0,1,0,.28,2.51,2.51,0,0,0,0,.27,1.26,1.26,0,0,1,0,.27,2.37,2.37,0,0,0,.13.53.4.4,0,0,1,0,.15Z"/><path class="cls-2" d="M169.65,31.54c0-.2-.05-.41-.07-.61s-.06-.41-.11-.61a.08.08,0,0,0,0,0h0a.16.16,0,0,0,0,.08l0,.13,0,.13a1.21,1.21,0,0,0-.05.18l0,.18c0,.05,0,.1,0,.15a.77.77,0,0,1,0,.15.75.75,0,0,0,0,.2.71.71,0,0,1,0,.2.43.43,0,0,1,0,0v0a.38.38,0,0,0,0,.16s.06,0,.14,0l.16,0,.16,0,0,0,0,0v-.12A.93.93,0,0,1,169.65,31.54Z"/><rect class="cls-2" x="169.06" y="30.03" width="0.01" height="0.03"/><path class="cls-2" d="M170.07,32.21a0,0,0,0,0,0,0s0,0,0,0a0,0,0,0,0,0,0S170.06,32.22,170.07,32.21Z"/><path class="cls-1" d="M189.45,174.5a15,15,0,1,0,15,15A15,15,0,0,0,189.45,174.5Z"/><path class="cls-2" d="M196.45,191l-10.6,6.1a1.51,1.51,0,0,1-2.2-1.3V183.2a1.51,1.51,0,0,1,2.2-1.3l10.6,6.5A1.5,1.5,0,0,1,196.45,191Z"/></svg>