<svg id="Camada_1" data-name="Camada 1" xmlns="http://www.w3.org/2000/svg" viewBox="0 0 219.1 219"><defs><style>.cls-1{fill:#be1b2e;}.cls-2{fill:#fff;}</style></defs><title>moldura_brasilpandeiro</title><path class="cls-1" d="M208.9,0H10.1A10.07,10.07,0,0,0,0,10.1V209a10.05,10.05,0,0,0,10.1,10H209a10.07,10.07,0,0,0,10.1-10.1V10.1A10.22,10.22,0,0,0,208.9,0ZM215,208.9a6,6,0,0,1-6,6H67L54,194.7a11.53,11.53,0,0,0-7-5l-43-10V10.1a6,6,0,0,1,6-6H124.3L143.5,34a16.49,16.49,0,0,0,9.9,7L215,55.3V208.9Z"/><path class="cls-2" d="M172.2,37.9c.1.1.2.2.3.1l1.4-.6c.2-.1.2-.2.1-.3l-6.3-8.8c-.1-.1-.2-.2-.3-.1l-2,.8c-.1.1-.2.1-.2.3L166.7,40c0,.2.1.2.3.2l1.4-.6c.1-.1.2-.2.2-.3l-.3-2,2.7-1.1ZM168,35.5l-.7-4.3,2.5,3.6Z"/><path class="cls-2" d="M182,34.2l3.5-1.4a2,2,0,0,0,1.3-2.9l-2.4-6a2,2,0,0,0-2.9-1.3L178,24c-.2.1-.2.2-.1.3l3.9,9.7C181.8,34.2,181.9,34.3,182,34.2Zm-.2-9.5a.52.52,0,0,1,.8.4l2.1,5.2a.52.52,0,0,1-.4.8l-1.3.5-2.5-6.4Z"/><path class="cls-2" d="M179.5,35.2l1.2-.5c.1-.1.2-.2.1-.3l-3.9-9.7c-.1-.1-.2-.2-.3-.1l-1.4.5c-.2.1-.2.2-.1.3l2.2,5.5-5-4.5a.37.37,0,0,0-.3-.1l-1.2.5c-.1.1-.2.2-.1.3l3.9,9.7c.1.1.2.2.3.1l1.4-.5c.2-.1.2-.2.1-.3l-2.2-5.5,5,4.5C179.3,35.2,179.4,35.3,179.5,35.2Z"/><path class="cls-2" d="M188.7,31.6l5.4-2.1c.2-.1.2-.2.1-.3l-.6-1.5c-.1-.2-.2-.2-.3-.1L189.7,29l-.9-2.2,2.7-1.1c.1-.1.2-.2.1-.3L191,24c-.1-.2-.2-.2-.3-.2L188,24.9l-.9-2.2,3.6-1.4c.2-.1.2-.2.1-.3l-.6-1.5c-.1-.1-.2-.2-.3-.1l-5.4,2.1c-.1.1-.2.2-.1.3l3.9,9.7A.76.76,0,0,0,188.7,31.6Z"/><path class="cls-2" d="M167.6,19.1l-1.4-3.7a2,2,0,0,0-3-1.3l-3.8,1.5c-.2.1-.2.2-.1.3l4.5,11.6c.1.2.2.2.3.1l1.6-.6c.2-.1.2-.2.1-.3l-1.5-3.8,1-.4,2.5,3.5c.1.1.2.2.3.1l1.6-.6c.2-.1.2-.2.1-.4l-2.6-3.6A1.9,1.9,0,0,0,167.6,19.1ZM165,20.3l-1.5.6-1.6-4.1,1.5-.6a.52.52,0,0,1,.8.4l1.1,2.8C165.6,19.9,165.4,20.2,165,20.3Z"/><path class="cls-2" d="M201.8,20.3l-1.2-2.9a2,2,0,0,0-2.9-1.3l-3.5,1.4c-.1.1-.2.2-.1.3l3.9,9.7c.1.1.2.2.3.1l1.4-.6c.1-.1.2-.2.1-.3l-1.1-2.8,1.3-.5,1.8,2.6c.1.1.2.2.3.1l1.4-.6c.2-.1.2-.2.1-.3l-2-2.8A1.75,1.75,0,0,0,201.8,20.3Zm-2.4,1.2-1.5.6-1.3-3.4,1.5-.6a.52.52,0,0,1,.8.4l.9,2.2C199.9,21.1,199.8,21.4,199.4,21.5Z"/><path class="cls-2" d="M195.4,28.9l1.5-.6c.1-.1.2-.2.1-.3l-3.9-9.7c-.1-.1-.2-.2-.3-.1l-1.5.6c-.2.1-.2.2-.1.3l3.9,9.7A.37.37,0,0,0,195.4,28.9Z"/><path class="cls-2" d="M155.8,17l-3.6,1.4c-.2.1-.2.2-.1.3l4.5,11.6c.1.2.2.2.3.1l3.6-1.4a2.13,2.13,0,0,0,1.4-3l-1.1-2.8a1.17,1.17,0,0,0-1.4-.7h0a1.05,1.05,0,0,0,.5-1.4l-1.1-2.8A2.06,2.06,0,0,0,155.8,17Zm.1,5.7-1.2-3.1,1.4-.5a.52.52,0,0,1,.8.4l.7,1.9c.1.4,0,.7-.4.8Zm3.7,3.7a.52.52,0,0,1-.4.8l-1.4.5-1.2-3.1,1.4-.5a.52.52,0,0,1,.8.4Z"/><path class="cls-2" d="M204.4,13.5l-1.6.7a2,2,0,0,0-1.3,2.9l2.4,6a2,2,0,0,0,2.9,1.3l1.6-.7a2,2,0,0,0,1.3-2.9l-2.4-6A2,2,0,0,0,204.4,13.5Zm3,8.4-.9.4a.52.52,0,0,1-.8-.4l-2.1-5.3a.52.52,0,0,1,.4-.8l.9-.4a.52.52,0,0,1,.8.4l2.1,5.3C207.9,21.5,207.8,21.8,207.4,21.9Z"/><path class="cls-2" d="M180.5,4.7a1,1,0,0,0,1.4.6,1,1,0,0,0,.6-1.4L181,0h-2.4Z"/><path class="cls-2" d="M163.2,41.5,162,38.6l1.8-.7a2,2,0,0,0,1.3-2.9L164,32a2,2,0,0,0-2.9-1.3l-3.5,1.4c-.1.1-.2.2-.1.3l2.9,7.3a1.27,1.27,0,0,0,.1.6l.9,2.4,2.4.6-.6-1.5Zm-3.3-8.1,1.5-.6a.52.52,0,0,1,.8.4l.8,2.1c.1.4,0,.7-.4.8l-1.5.6Z"/><path class="cls-2" d="M183.3,6.4l-1.6.6c-.2.1-.2.2-.1.3l4.5,11.6c.1.2.2.2.3.1l1.6-.6c.2-.1.2-.2.1-.3L183.6,6.5A.19.19,0,0,0,183.3,6.4Z"/><path class="cls-2" d="M170.9,11.1l-2.1.8c-.1.1-.2.1-.2.3l2,12.6c0,.2.1.2.3.2l1.6-.6c.1-.1.2-.2.2-.3l-.4-2.4,2.7-1,1.3,2c.1.1.2.2.3.1l1.6-.6c.2-.1.2-.2.1-.3l-7-10.7A.76.76,0,0,0,170.9,11.1Zm1,8.8-1.1-5.6,3,4.9Z"/><path class="cls-2" d="M194.6,13.9c-.1-.2-.2-.2-.3-.1l-3.6,1.4-3.8-9.9c-.1-.2-.2-.2-.3-.1l-1.6.5c-.2.1-.2.2-.1.3l4.5,11.6c.1.2.2.2.3.1l5.4-2.1c.2-.1.2-.2.1-.3Z"/><path class="cls-2" d="M178.1,8.4l-1.7.6a2,2,0,0,0-1.3,3l1.4,3.6a.55.55,0,0,0,.6.4l4-.2.8,2a.52.52,0,0,1-.4.8l-.7.3c-.4.1-.7,0-.8-.4l-.4-1.2c-.1-.2-.2-.2-.3-.1l-1.6.6c-.2.1-.2.2-.1.3l.6,1.6a2,2,0,0,0,3,1.3l1.7-.7a2,2,0,0,0,1.3-3l-1.3-3.5a.55.55,0,0,0-.6-.4l-4.1.2-.8-2.1a.52.52,0,0,1,.4-.8l.7-.3a.52.52,0,0,1,.8.4l.5,1.2c.1.2.2.2.3.1l1.6-.6c.2-.1.2-.2.1-.3l-.6-1.6A2.17,2.17,0,0,0,178.1,8.4Z"/><path class="cls-1" d="M189.45,174.5a15,15,0,1,0,15,15A15,15,0,0,0,189.45,174.5Z"/><path class="cls-2" d="M196.45,191l-10.6,6.1a1.51,1.51,0,0,1-2.2-1.3V183.2a1.51,1.51,0,0,1,2.2-1.3l10.6,6.5A1.5,1.5,0,0,1,196.45,191Z"/></svg>