<svg id="Camada_1" data-name="Camada 1" xmlns="http://www.w3.org/2000/svg" viewBox="0 0 219.1 219"><defs><style>.cls-1{fill:#be1b2e;}.cls-2{fill:#fff;}.cls-3{fill:#bfbfbf;}</style></defs><title>moldura_outrosbaianos</title><path class="cls-1" d="M208.9,0H10.1A10.07,10.07,0,0,0,0,10.1V209a10.05,10.05,0,0,0,10.1,10H209a10.07,10.07,0,0,0,10.1-10.1V10.1A10.22,10.22,0,0,0,208.9,0ZM215,208.9a6,6,0,0,1-6,6H67L54,194.7a11.53,11.53,0,0,0-7-5l-43-10V10.1a6,6,0,0,1,6-6H124.3L143.5,34a16.49,16.49,0,0,0,9.9,7L215,55.3V208.9Z"/><path class="cls-2" d="M151.5,16.2a3.33,3.33,0,0,0,.3.6,1.22,1.22,0,0,0,.9.4,1,1,0,0,0,.9-.4.86.86,0,0,0,.3-.6h1.2c0,.1-.1.3-.1.4a1.61,1.61,0,0,1-.4.7,1.6,1.6,0,0,1-.9.7,2.28,2.28,0,0,1-1.1.3,3.55,3.55,0,0,1-1-.2,1.56,1.56,0,0,1-.8-.6,7,7,0,0,1-.6-.9c-.1-.2-.1-.4-.2-.6l1.5.2Zm2.5-.9a3.33,3.33,0,0,0-.3-.6,1.22,1.22,0,0,0-.9-.4,1,1,0,0,0-.9.4.86.86,0,0,0-.3.6h-1.2a1.42,1.42,0,0,1,.2-.6,2.36,2.36,0,0,1,.6-.9,5.55,5.55,0,0,1,.8-.6,3,3,0,0,1,1-.2,3.55,3.55,0,0,1,1,.2,1.56,1.56,0,0,1,.8.6,2.18,2.18,0,0,1,.5.8c.1.2.1.4.2.6l-1.5.1Z"/><path class="cls-2" d="M171,16.2a3.33,3.33,0,0,0,.3.6,1.22,1.22,0,0,0,.9.4,1,1,0,0,0,.9-.4.86.86,0,0,0,.3-.6h1.2c0,.1-.1.3-.1.4a1.61,1.61,0,0,1-.4.7,1.6,1.6,0,0,1-.9.7,2.28,2.28,0,0,1-1.1.3,3.55,3.55,0,0,1-1-.2,1.56,1.56,0,0,1-.8-.6,7,7,0,0,1-.6-.9c-.1-.2-.1-.4-.2-.6l1.5.2Zm2.6-.9a3.33,3.33,0,0,0-.3-.6,1.22,1.22,0,0,0-.9-.4,1,1,0,0,0-.9.4.86.86,0,0,0-.3.6H170a1.42,1.42,0,0,1,.2-.6,2.36,2.36,0,0,1,.6-.9,5.55,5.55,0,0,1,.8-.6,3,3,0,0,1,1-.2,3.55,3.55,0,0,1,1,.2,1.56,1.56,0,0,1,.8.6,2.18,2.18,0,0,1,.5.8c.1.2.1.4.2.6l-1.5.1Z"/><path class="cls-2" d="M166.8,14.1h-.2v.2h-1.1V13.2h1.3a2.22,2.22,0,0,1,.9.1c.2.1.4.1.6.3a1,1,0,0,1,.4.5,1.42,1.42,0,0,1,.2.6,1.88,1.88,0,0,1-.2.8,4.35,4.35,0,0,1-.7.6l1.5,2.1h-1.4l-1.3-1.9h-.2v1l-1.1.9V15.3h1.1v.2h.2a1.45,1.45,0,0,0,.7-.2c.2-.1.2-.3.2-.5a.76.76,0,0,0-.2-.5,1,1,0,0,0-.7-.2Z"/><path class="cls-2" d="M176.1,17.2a1.27,1.27,0,0,0,.6.1.75.75,0,0,0,.5-.1c.1-.1.2-.2.2-.3s-.2-.4-.7-.7c-.1,0-.1-.1-.2-.1l-.3-.2a2.17,2.17,0,0,1-.7-.6,1.08,1.08,0,0,1-.2-.8,1.39,1.39,0,0,1,.5-1,1.59,1.59,0,0,1,1.2-.4,1.27,1.27,0,0,1,.6.1,2.54,2.54,0,0,1,.7.2l-.7.8h0a1.09,1.09,0,0,0-.5-.1c-.2,0-.3,0-.4.1a.37.37,0,0,0-.1.3c0,.1,0,.2.1.2a.77.77,0,0,0,.3.2l.6.3a5.34,5.34,0,0,1,1,.7,1.14,1.14,0,0,1,.3.8,1.66,1.66,0,0,1-.5,1.2,1.84,1.84,0,0,1-1.3.4,1.27,1.27,0,0,1-.6-.1,1.85,1.85,0,0,1-.7-.2l.3-.8Z"/><path class="cls-2" d="M162.1,18.2v-3h1.2V17Zm0-3.9h-1.6v-1h4.3v1h-2.7Z"/><path class="cls-2" d="M156.9,14.9h-1.2V13.3h1.2Zm0,.9V16a2.51,2.51,0,0,0,.2,1,.91.91,0,0,0,.7.3.78.78,0,0,0,.7-.3c.2-.2.2-.5.2-.9V13.3h1.1v2.8a2.35,2.35,0,0,1-.6,1.7,2,2,0,0,1-1.5.6,1.75,1.75,0,0,1-1.5-.6,2.31,2.31,0,0,1-.5-1.7v-.3Z"/><rect class="cls-2" x="169.8" y="19.3" width="2.2" height="11.2"/><path class="cls-2" d="M185.1,24.8l.8.6h.1l4,3.5a12.67,12.67,0,0,0,1.3,1.1V19.3h-2.2v5.9l-6.2-5.4V30.5h2.2V24.8Z"/><path class="cls-2" d="M209,24.7a4.74,4.74,0,0,0-1.9-.8c-.2,0-.4-.1-.6-.1s-.4-.1-.6-.1-.6-.1-.8-.4a1.61,1.61,0,0,1-.4-.7,1,1,0,0,1,.6-1,2.39,2.39,0,0,1,.9-.2h.4a3.49,3.49,0,0,1,1.3.5l1.3-1.6a2.51,2.51,0,0,0-.7-.4,4.93,4.93,0,0,0-2.3-.6h-.5a3.47,3.47,0,0,0-2.2,1,3,3,0,0,0-1,2.9,2.85,2.85,0,0,0,1.2,1.9,8,8,0,0,0,1.6.8c.3.1.5.1.8.2a4.33,4.33,0,0,0,.5.1c.3.1.6.1.8.3a.87.87,0,0,1,.4.7.88.88,0,0,1-.5,1,1.69,1.69,0,0,1-1,.3,2.82,2.82,0,0,1-1.5-.4c-.1,0-.2-.1-.3-.1l-1.3,1.6a6,6,0,0,0,2.7,1h.4a3.66,3.66,0,0,0,1.8-.4,3,3,0,0,0,1.8-3.1A2,2,0,0,0,209,24.7Z"/><path class="cls-2" d="M155.7,30.6a3.4,3.4,0,0,0,1-.1,3.52,3.52,0,0,0,2.4-3.8,3.34,3.34,0,0,0-1.4-2.4c-.2-.2-.3-.4-.2-.6a2.92,2.92,0,0,0,.2-.9,3.61,3.61,0,0,0-.6-2,3.37,3.37,0,0,0-2.8-1.4h-4V30.7l5.4-.1m-3.2-9h0l.9-.1h.9a1.14,1.14,0,0,1,.8.3,1.06,1.06,0,0,1,.1,1.4.91.91,0,0,1-.8.4h-1.9Zm3.9,6.5a1.08,1.08,0,0,1-.7.3h-3.2V25.9h3.2a1.19,1.19,0,0,1,1.2,1A1.58,1.58,0,0,1,156.4,28.1Z"/><polygon class="cls-3" points="159.1 30.6 159.1 30.6 159.1 30.6 159.1 30.6"/><path class="cls-2" d="M167.8,30.6l-4.4-11.3L159,30.6h2.4c.5-1.1.9-2.3,1.4-3.4l.2-.4v-.1h0l.4-1,.4,1v.1l.2.6c.4,1.1.9,2.2,1.3,3.3l2.5-.1Z"/><polygon class="cls-3" points="174.1 30.6 174.1 30.6 174.1 30.6 174.1 30.6"/><path class="cls-2" d="M182.9,30.6l-4.4-11.3-4.4,11.3h2.4c.5-1.1.9-2.3,1.4-3.4l.2-.4v-.1h0l.4-1,.4,1v.1l.2.6c.4,1.1.9,2.2,1.3,3.3l2.5-.1Z"/><path class="cls-2" d="M196.9,30.6a5.6,5.6,0,1,1,5.6-5.6A5.66,5.66,0,0,1,196.9,30.6Zm0-9.1a3.4,3.4,0,1,0,3.4,3.4A3.44,3.44,0,0,0,196.9,21.5Z"/><path class="cls-1" d="M189.45,174.5a15,15,0,1,0,15,15A15,15,0,0,0,189.45,174.5Z"/><path class="cls-2" d="M196.45,191l-10.6,6.1a1.51,1.51,0,0,1-2.2-1.3V183.2a1.51,1.51,0,0,1,2.2-1.3l10.6,6.5A1.5,1.5,0,0,1,196.45,191Z"/></svg>