<svg id="Camada_1" data-name="Camada 1" xmlns="http://www.w3.org/2000/svg" viewBox="0 0 219.1 219"><defs><style>.cls-1{fill:#be1b2e;}.cls-2{fill:#fff;}</style></defs><title>moldura_lusofonia-2</title><path class="cls-1" d="M208.9,0H10.1A10.07,10.07,0,0,0,0,10.1V209a10.05,10.05,0,0,0,10.1,10H209a10.07,10.07,0,0,0,10.1-10.1V10.1A10.22,10.22,0,0,0,208.9,0ZM215,208.9a6,6,0,0,1-6,6H67L54,194.7a11.53,11.53,0,0,0-7-5l-43-10V10.1a6,6,0,0,1,6-6H124.3L143.5,34a16.49,16.49,0,0,0,9.9,7L215,55.3V208.9Z"/><path class="cls-2" d="M169.5,23.5c0-.2-.1-.1,0,0Z"/><path class="cls-2" d="M187.8,26.9Z"/><path class="cls-2" d="M147.6,25.7Z"/><path class="cls-2" d="M172.6,17.6Z"/><path class="cls-2" d="M208.9,20.7Z"/><path class="cls-2" d="M182.4,18Z"/><path class="cls-2" d="M206.3,19.7c0,.1.1.1,0,0Z"/><path class="cls-2" d="M172.4,17.6Z"/><path class="cls-2" d="M178.6,18.1c-.1-.1-.1,0,0,0Z"/><path class="cls-2" d="M172.6,17.6Z"/><path class="cls-2" d="M205.9,21.1h0v.1c0,.1,0,.1.1.1h0v.1l.1-.1v.1a.22.22,0,0,0,.2-.2c0-.2-.1-.2-.4-.1.2-.2.3-.4.6-.3.1,0,.1,0,.2.1,0-.1-.1-.1-.2-.2C206.2,20.6,206,20.8,205.9,21.1Zm.3.1Zm-.1-.1Zm0,.1Z"/><path class="cls-2" d="M182.9,17.3a3.77,3.77,0,0,0-2-.3,6.62,6.62,0,0,0-1.5.1.1.1,0,0,0-.1-.1.1.1,0,0,1-.1.1h-.4a1.61,1.61,0,0,0-1.1.5,2.28,2.28,0,0,0-.6,1.2v9.1H179V23.6h.3a4.13,4.13,0,0,0,.9-.1.1.1,0,0,0,.1-.1,1.82,1.82,0,0,0,.4-1.1h0a1.49,1.49,0,0,0-.2-.9.85.85,0,0,0-.6-.2c-.4,0-.8.1-1,.1V19.9h.1v-.1h-.1c0-.4,0-.7.5-.7h3.5c.1,0,.2,0,.3-.2s.1-.4.1-.6C183.2,17.9,183.1,17.4,182.9,17.3Zm-2,1.1H180c.1-.3.4-.5.6-.7h.3V18A.3.3,0,0,1,180.9,18.4Zm-.4-.7-.3.3c-.1.1-.3.2-.4.4h-.1a2.65,2.65,0,0,1,.5-.6l.1-.1Zm-1.1.1h.5a1.76,1.76,0,0,0-.4.5h0c-.1,0-.1-.1-.2-.1C179.3,18,179.3,17.9,179.4,17.8Zm-1.2.8Zm-.1-.5Zm0,0Zm0,.1c0,.1-.1.2-.2.3v-.1a.22.22,0,0,1,.2-.2Zm.2,3.9c-.1,0-.1.1-.2.1s-.1-.1-.2-.1v.2l-.2.2V22h.1a.1.1,0,0,0-.1-.1v-.1l.1-.1c.1-.2.3-.3.3-.5V22l.2.1Zm-.1,4.7h0v0Zm-.3-3.2h0v.2a.1.1,0,0,1-.1-.1l.1-.1-.1.1h0v-.2a.1.1,0,0,0,.1.1Zm0,.8V24h0c0,.1.1.3,0,.4h0v0Zm0-.4h0c.1,0,.1.1,0,0l.1.1v.1A.31.31,0,0,0,177.9,24Zm-.2.5a.64.64,0,0,0,0-.6c.1,0,.1.1.2.1a1.27,1.27,0,0,1-.1.6.1.1,0,0,1-.1-.1Zm0-.8h0v-.2h.1C177.8,23.6,177.7,23.6,177.7,23.7Zm0,.9h.1v.2h-.1Zm.1.4Zm0,.1Zm0-.2a.1.1,0,0,1-.1.1l.1-.1Zm-.1,1.1h0c.1.1,0,.2,0,.3Zm0-.1v-.3l.1.1c0,.1,0,.1-.1.2Zm0-.3c0-.1,0-.1.1-.2l.1-.1h.1a.35.35,0,0,1-.1.2C177.8,25.7,177.8,25.6,177.7,25.6Zm.2-.3a.35.35,0,0,0,.1-.2V25h.1v.1h0C178,25.3,178,25.3,177.9,25.3Zm.1-.3v-.2h0s.1.1.1,0v-.1h0a1.09,1.09,0,0,0-.1-.5h.1a.8.8,0,0,1-.1.8Zm0-.9h0c.1.1.1.2,0,.4v-.4Zm.1,0h0l.1.2C178.2,24.2,178.1,24.2,178.1,24.1Zm.1-.5h0s-.1.1-.1,0,0,.1.1,0h0c-.1.1,0,.1,0,0h0V24h-.1c.1-.1.1-.2.1-.4-.2.2-.2.2-.2.3h0v-.3h-.1c-.1,0-.1-.1-.2-.1h.1v-.1h0v-.1h0l-.1-.1V23c.1,0,.2.1.3.1v.3h.1a.35.35,0,0,0,.1-.2v.4Zm-.1-4.3Zm0,0v.2a.77.77,0,0,0-.2.3h.1c0-.1,0-.2.1-.2v.2h0v.3a.6.6,0,0,1-.4-.1v-.3h0c.1-.1.2-.3.4-.4Zm-.4.4v-.4a.22.22,0,0,0,.2-.2l.1.1C177.9,19.4,177.8,19.5,177.7,19.7Zm.1-1.2h0v0Zm0,1.8a.35.35,0,0,1-.1.2l.1-.2h0c0-.1-.1-.1,0,0l-.1-.1c.1,0,.3.1.4.1v.1h0v.2a2.09,2.09,0,0,1-.4.6v-.6c0-.1.1-.2.1-.3h0Zm.3.5v.3c-.1.2-.3.4-.4.6h0v-.4C177.8,21.1,178,21,178.1,20.8Zm-.2,5.5a2.54,2.54,0,0,1,.2-.7c-.1-.1,0-.3,0-.5,0,0,.1.1.1,0v.8c0,.1-.1.2-.1.3s-.1.3-.1.5h0v.4h0v.1h-.3C177.8,26.9,177.8,26.6,177.9,26.3Zm0-3.7a1.85,1.85,0,0,1,1.2-.5h.4a.64.64,0,0,0,0,.6c.1.1.1.2.2.2h-.3A3.34,3.34,0,0,1,177.9,22.6Zm1.8.2a.62.62,0,0,1-.1-.7h.3v.4h0a1.44,1.44,0,0,1-.2.3Zm-1-4.3v0a1.18,1.18,0,0,0-.5.5.1.1,0,0,1-.1-.1l.1.1c0,.1,0,.1-.1.2H178l-.1.1-.1-.1.1-.1.1-.1h0a.35.35,0,0,0,.1-.2.1.1,0,0,1,.1-.1h.1c.1-.1.1-.2.2-.3h.2v0a.55.55,0,0,1,.5.2.1.1,0,0,0,.1-.1c-.3-.1-.5-.2-.8,0v-.2h0a.35.35,0,0,1,.1-.2h.3v0h.4a.37.37,0,0,0-.1.3.37.37,0,0,0-.3-.1v0a.37.37,0,0,0-.3.1c.3-.2.5,0,.7.2h.1c.2-.2.3-.4.5-.5h0a.1.1,0,0,0-.1.1c-.2.2-.3.4-.5.6h-.1v0h-.3v0C178.9,18.5,178.8,18.5,178.7,18.5Zm2.5-.1c0-.1,0-.1.1-.2v-.5h.2c0,.1,0,.1.1.2s-.1.3-.1.5Zm1.3,0Zm0,0h0l-.1-.1a.14.14,0,0,0,0-.2h0l-.1-.1c-.1,0-.1,0-.2.1l-.1.1a.1.1,0,0,0,.1.1l.1.1H182V18c.1-.1.2-.1.4,0v-.2h.1Zm-.2-.6v.1a.3.3,0,0,0-.4,0v-.2A.76.76,0,0,0,182.3,17.8Zm-.5-.1v.7h-.1v-.7Z"/><path class="cls-2" d="M206.2,21.2Z"/><path class="cls-2" d="M177.7,19.8h0Z"/><path class="cls-2" d="M175.5,17.7c-.1-.1-.1-.2-.2-.3a1.38,1.38,0,0,0-.4-.3.1.1,0,0,1-.1-.1c-.1-.1-.3-.1-.5-.2h-.1c-.2,0-.3-.1-.5-.1h-1.4a3.61,3.61,0,0,0-2.4.7h-.2v.1h0l.1.1h-.1a.1.1,0,0,1-.1.1h0v.1h-.2a.1.1,0,0,0-.1.1h0l.2.2a7.35,7.35,0,0,0-.7,3h0v.3h0v.2h0v.6h-.1l.1.1c0,2.3.1,4,.8,4.8h0a1.38,1.38,0,0,0,.4.3.1.1,0,0,1,.1.1c.1.1.3.1.4.2h.1c.1,0,.3.1.4.1h1.4a3.17,3.17,0,0,0,2.5-.8h0c.1,0,.1,0,.2-.1h0c0-.1,0-.1-.1-.1h0v-.1h.1v-.1h0l-.1.1h0l.2-.2h0c0-.1.1-.1.1-.2h0a8.3,8.3,0,0,0,.5-2h.1a9.15,9.15,0,0,0,.1-1.7V21A10.82,10.82,0,0,0,175.5,17.7Zm-.3,4.9a2.77,2.77,0,0,1-.1-.9.6.6,0,0,1,.1-.4v1.3Zm0-1.7h0a2.35,2.35,0,0,0-.2.8,3.55,3.55,0,0,0,.2,1v.9c-.1-.1-.1-.1-.1-.2a3,3,0,0,1-.4-1,2,2,0,0,1,.1-1.3,2.09,2.09,0,0,1,.4-.6l.1-.1A.9.9,0,0,0,175.2,20.9Zm-.6,0a2.52,2.52,0,0,0-.1,1.5,3.58,3.58,0,0,0,.4,1.1c.1.1.1.2.2.3v.5a4.53,4.53,0,0,1-.8-2.2c-.1-.8,0-2,.9-2.4v.5A1.34,1.34,0,0,0,174.6,20.9Zm-.1,5.3a1.42,1.42,0,0,1-.6-.2h-.1l.1-.1a.52.52,0,0,0,.4.2c.1,0,.1,0,.2.1Zm-2.1.8Zm0,0Zm0-.1h0c-.2,0-.3-.1-.5-.1h.3c.1,0,.1,0,.2.1Zm0,.1Zm.1-.1h.5a.1.1,0,0,0-.1.1.1.1,0,0,1-.1-.1h-.3c.1,0,.2,0,.2.1h-.1c0-.1,0-.1-.1-.1h0l.1.1h0a.1.1,0,0,0-.1-.1h0c-.1,0-.1,0-.1-.1a.1.1,0,0,1,.1.1Zm.4.1Zm0,0Zm-.3.1h0c-.1,0-.1-.1,0,0Zm-.1-.1Zm.5-.1Zm.1,0c.1,0,.1,0,.2.1a.31.31,0,0,1-.2-.1Zm.3-.3a.1.1,0,0,1-.1-.1.1.1,0,0,0,.1.1h.2c.1,0,.2.1.4.1h0c-.1,0-.2-.1-.3-.1h-.3Zm-.4-.4h0a.1.1,0,0,1,.1-.1c.2,0,.3,0,.4.1,0-.1,0-.1.1-.1h0a.1.1,0,0,1-.1.1.76.76,0,0,1,.4.2h-.1a.37.37,0,0,0-.3-.1h-.1l-.1.1c-.1-.2-.2-.3-.3-.2Zm-2.9-7.9h0c.2.1.4.1.5.2h0c.1.1.2.1.3.2-.3.1-.4.3-.6.4h0a3.18,3.18,0,0,0-.3.9c-.1-.2-.3-.3-.4-.4a2.82,2.82,0,0,1,.4-1.1l.1-.2Zm.6-.5a3.53,3.53,0,0,0,1.4.3,2.45,2.45,0,0,0,1.6-.6h.1a2.67,2.67,0,0,1-1.4.7h-.5c-.1,0-.1,0-.1.1a2.66,2.66,0,0,1-1.2-.3C170.6,17.9,170.6,17.9,170.7,17.8Zm3.2-.2-.1.1-.1.1A.22.22,0,0,1,173.9,17.6Zm-.3.2Zm-.2.2h0l-.1.1h0c0-.1,0-.1.1-.1Zm-.4.1Zm.6,3.3v1.1h0c0,1.1.2,1.8.2,2.3,0,.2,0,.3-.1.4h0a.1.1,0,0,1-.1.1h-.2a.37.37,0,0,1-.3-.1,4.33,4.33,0,0,0-.5-.1,1.27,1.27,0,0,0-.6.1.9.9,0,0,0-.5.1h-.2a.1.1,0,0,1-.1-.1h0a1.42,1.42,0,0,1-.2-.6c0-.5.1-1.1.1-2.1h0c0-1-.1-1.7-.1-2.3a1.17,1.17,0,0,1,.2-.7c.1-.1.1-.1.2-.1h.2a.6.6,0,0,1,.4.1c.2,0,.3.1.5.1h1.2a.35.35,0,0,1,.1.2.35.35,0,0,1,.1.2v.2C173.7,20.3,173.6,20.8,173.6,21.4Zm.7,5h0c-.1,0-.1-.1-.2-.1h0c.1,0,.1,0,.2.1Zm-.4,0h0c.1,0,.1.1,0,0Zm0-.1h0a.31.31,0,0,0-.2-.1h.1c.1,0,.1,0,.1.1Zm-.1-.2h0a.1.1,0,0,1,.1.1A.1.1,0,0,0,173.8,26.1Zm-4.3-2.8h0v.1h-.1l.3.3h0c0,.1-.1.1-.1.2V24l-.3-.3v-.4a1.38,1.38,0,0,0,.3-.4.52.52,0,0,1,.4.2v.1c0,.1-.1.2-.1.3-.1-.1-.2-.3-.4-.3v.1Zm0-2.7a.37.37,0,0,0,.1-.3h0a.76.76,0,0,0,.2.4l.1.1h0c-.1,0-.1,0-.2.1v-.1l-.2-.2Zm.5,0h0v0Zm0-.2Zm1.9-1.9Zm-.1,0Zm0,0h-.5c-.1,0-.1,0-.2-.1h0a.1.1,0,0,1-.1-.1,2,2,0,0,0,.8.1c-.1,0,0,0,0,.1ZM170,21.9Zm.1.2Zm0,.1v.6H170v-.1h-.2a.9.9,0,0,0,.1-.5Zm-.1-.9h0a.35.35,0,0,0,.1.2v.2H170a.9.9,0,0,0-.1-.5A.1.1,0,0,0,170,21.3Zm0-.9h0v-.1c-.1,0-.1,0,0,.1Zm-.1.8h-.1c.1-.1.1-.1.1,0Zm-.4,0h0a2.24,2.24,0,0,1,.3,1,.9.9,0,0,1-.1.5h0c0,.1-.1.2-.1.3s-.1.2-.2.3v-1a1.39,1.39,0,0,0,0-.9.31.31,0,0,1,.1-.2h0c-.1,0-.1-.1,0,0Zm.3,1.6Zm1.1,3.3-.1.1-.1.1h-.3c.2-.1.3-.2.5-.2Zm1.9-7.8h0c-.1,0-.1.1-.2.1h0A.31.31,0,0,1,172.8,18.3Zm-2.5-.1Zm-.8,6.6Zm.1,0h0c.1,0,.1-.2.2-.3a2.19,2.19,0,0,0,.3-.5,2.39,2.39,0,0,0,.3,1.5c.1.1.2.3.4.4l-.6.3v-.1a.37.37,0,0,0-.3.1c-.1-.4-.2-.9-.3-1.4Zm.6,1.9a.6.6,0,0,0,.4-.1h0a.1.1,0,0,0,.1.1h.1c.2-.1.3-.2.5-.3s.2-.1.3-.2h.1a.1.1,0,0,0,.1-.1c.1,0,.1-.1,0-.1.1,0,.1,0,.1-.1h.4a.9.9,0,0,1,.5.1h.1l-.1.1a1.72,1.72,0,0,0-1.2.2c-.3.1-.5.3-.8.3a.73.73,0,0,1-.6.1h0Zm3.6.2Zm.6-6.3a2.14,2.14,0,0,0-.1-1.4,1,1,0,0,0-.9-.6.9.9,0,0,0-.5.1h0c.1,0,.2,0,.2-.1a3.55,3.55,0,0,0,.9-.4,3.29,3.29,0,0,0,.6-.3l.1.1a2.18,2.18,0,0,1,.5.8c0,.3.1.6.1.9A1.18,1.18,0,0,0,174.4,20.6Zm-.5-3.1Zm-.4,0a3.94,3.94,0,0,1-1.4.5,5.85,5.85,0,0,1-1.3-.2c.2-.1.4-.1.6-.2h.1s-.1.1,0,.1h.1v.1h0a.82.82,0,0,0,.7.1h.1v-.1h-.1s.1-.1,0-.1h.2c.1,0,.1,0,.1-.1h.2c.1,0,.1-.1.2-.1Zm-.8.1ZM170.5,27h.1a1.33,1.33,0,0,0,.8-.3c.5-.2.9-.5,1.4-.3a.1.1,0,0,0,.1.1h0c.1,0,.3.1.4.1v.1a.52.52,0,0,0,.4.2h-.1c-.1-.1-.3-.1-.4-.2a.1.1,0,0,0-.1-.1h-.2v-.1h-.3c-.1,0-.1.1,0,.1h-.4a2.93,2.93,0,0,0-1,.3,1.27,1.27,0,0,1-.6.1Zm.9,0h0c0,.1-.1.1-.2.1C171.3,27.1,171.3,27,171.4,27Zm.5.1h0a.37.37,0,0,1,.3-.1h-.1c0,.1-.1.1-.2.1Zm2.4-1.1c-.1,0-.2-.1-.3-.2.1-.1.1-.2.2-.3a2.19,2.19,0,0,0,.1-1.6,6.62,6.62,0,0,1-.1-1.5v-.2a3.29,3.29,0,0,0,.8,2.2c-.1.5-.2.9-.3,1.3l-.1.1a.1.1,0,0,1-.1.1h0C174.5,26,174.4,26,174.3,26Z"/><path class="cls-2" d="M151,26.3l.1-.1a.1.1,0,0,0-.1.1C151,26.2,150.9,26.3,151,26.3Z"/><path class="cls-2" d="M205.2,23.9h0C205.3,23.9,205.3,23.8,205.2,23.9Z"/><path class="cls-2" d="M205.3,24c-.1.1,0,.1,0,0Z"/><path class="cls-2" d="M205.4,23.8c-.1-.1-.1,0,0,0Z"/><path class="cls-2" d="M205.3,24.6h.2A.14.14,0,0,0,205.3,24.6Z"/><path class="cls-2" d="M205.2,25.8c.1-.1.2-.1.3-.2h-.1c-.1,0-.1.1-.2.2,0-.1-.1,0-.2,0h.2Z"/><path class="cls-2" d="M205.2,24.5c.1,0,.1-.1,0,0Z"/><path class="cls-2" d="M205.2,25.2a.1.1,0,0,1-.1.1c0,.1,0,.1.1.1Z"/><path class="cls-2" d="M166.7,18.3Z"/><path class="cls-2" d="M198.7,25.4Z"/><path class="cls-2" d="M154.6,18.9c.1,0,0-.1,0,0Z"/><path class="cls-2" d="M166.5,18.3Z"/><path class="cls-2" d="M166.6,18.3Z"/><path class="cls-2" d="M160.4,17c0-.3-.5-.4-1-.4s-.9.1-1,.4a8.16,8.16,0,0,0-.1,1.8c0,1.8.1,4.1.1,4.2,0,2.3-.5,2.7-1.5,2.7h-.3c-.7-.1-1.1-.4-1.2-1.7v-.2h0V23c0-.1.1-.8.1-1.7h0V21h.1a.37.37,0,0,0-.1-.3V19h0v-.1h0a7.45,7.45,0,0,0-.2-1.8c-.1-.3-.6-.4-1-.4s-.9.1-.9.4a8.16,8.16,0,0,0-.1,1.8c0,1.8.1,4.1.1,4.2,0,2.1.3,3.5,1,4.2a3,3,0,0,0,2.3.7h.2a3.35,3.35,0,0,0,2.3-.6q1.2-1,1.2-4.2c0-.2.1-2.4.1-4.2A10.36,10.36,0,0,0,160.4,17Zm-1.6,9.7c-.1.1-.2.1-.3.2h-.2v-.1c.4-.2.4-.8.3-1.3.1-.2.2-.3.2-.5a3.75,3.75,0,0,1,.1,1.1.9.9,0,0,1-.1.5h0C158.9,26.6,158.8,26.7,158.8,26.7Zm-1.6.1v-.4h.2c.1.2,0,.4.1.6v.2h-.3Zm.5.4c0-.1-.1-.2-.1-.4v-.5h0a1.07,1.07,0,0,1,.2.6v.2h0A.1.1,0,0,1,157.7,27.2Zm.2-1,.3.3h0s.1-.1,0-.1a1.24,1.24,0,0,0-.3-.2c.1-.1.2-.1.3-.2.1.1.2.2.3.2h0a.37.37,0,0,1-.1.3h0s.1,0,0-.1c0,.1,0,.1-.1.1a.1.1,0,0,1,.1.1c0,.1-.1.1-.1.2h-.1v-.1a.1.1,0,0,0-.1.1h0v-.1a.35.35,0,0,0-.1-.2l-.2-.2h0A.1.1,0,0,1,157.9,26.2Zm.6-.1h0c-.1,0-.2-.1-.3-.2l.3-.3Zm-.3.8Zm-.3.2Zm0-.2c-.1,0-.1.1,0,0-.1.1-.1,0,0,0Zm0,.2Zm1.5-8.8a.35.35,0,0,0,.1.2c-.1,0-.2-.1-.1-.2Zm0,0Zm.1.3c.1.1.2.3.3.4v1.2c-.1.2-.1.3-.2.5s-.2.3-.3.3h0c0-.1,0-.1-.1-.2h.1c0-.1,0-.1.1-.2h-.1a3,3,0,0,0,.4-1,.75.75,0,0,0-.1-.5V19h0s0-.1-.1,0a.22.22,0,0,0-.2-.2h0s-.1-.1-.1,0h0v-.2h0C159.4,18.5,159.4,18.5,159.5,18.6Zm.3,2.8a.1.1,0,0,1-.1.1l-.3-.3h0c.1-.1.1-.2.2-.3a.31.31,0,0,1,.1-.2A1.7,1.7,0,0,1,159.8,21.4Zm-.1-3.9v1.3a.1.1,0,0,0-.1-.1h0A5.74,5.74,0,0,0,159.7,17.5Zm-.5,2h0v.2h-.1c0,.1-.1.2-.1.3v-.6h.2v-.1h.1c0,.1,0,.1-.1.2Zm0,.9v.1h-.1a.1.1,0,0,1,.1-.1h0v-.1h0v.1Zm.5,2.2v.5a.76.76,0,0,0-.5-.2,1.7,1.7,0,0,1,.1-.7,1.42,1.42,0,0,0-.2.6v-1c.1.2.4.5.6.8Zm-.5-3.7a.1.1,0,0,0,.1-.1c0,.1.1.1.1.2a.1.1,0,0,1-.1.1h0v.1a.37.37,0,0,1-.3.1v-.4h.2c-.1,0,0,.1,0,0Zm0-1.1c0-.1.1-.2.1-.3a.37.37,0,0,1-.1.3Zm0,1h0C159.3,18.7,159.3,18.8,159.2,18.8Zm.4,1.1c0,.1-.1.2-.1.3h-.1c0,.1,0,.1-.1.2,0-.1,0-.1.1-.2h0c0-.1,0-.2.2-.3Zm-.1-.8Zm-.2,1.4Zm-.3-1.6Zm0,1.6Zm.3-1h0c-.1.1-.1,0,0,0Zm-.1.9h0v-.1h0v-.1h.1v-.1h0v.1h0v.1h0a.1.1,0,0,1-.1.1Zm.1-2.3v0Zm-.1-.4v.7c0,.1,0,.2-.1.2h0v.1h0c0,.1,0,.1-.1.2h0V17.3h.2C159.3,17.4,159.2,17.6,159.2,17.7Zm-.2,7.7h0c.1-.4.2-.9.3-1.3a2.93,2.93,0,0,0,.3-1c-.1.4-.3.7-.4,1.1a4.25,4.25,0,0,0-.2,1.1c0-.1-.1-.2-.1-.3.1-.3.1-.6.2-.9h.1c.1,0,0-.1,0-.1h0v-.4l.1.1s.1,0,0-.1l-.1-.1v-.2h0a.9.9,0,0,1,.1-.5c.2,0,.3.1.4.3h0l.1.1a4.87,4.87,0,0,1-.1,1.2.76.76,0,0,0-.2.4,2.2,2.2,0,0,0-.1.8.9.9,0,0,1-.1.5v.1h0A6.89,6.89,0,0,0,159,25.4Zm.6-.8a1.88,1.88,0,0,1-.2.8,2,2,0,0,1,.1-.7A.1.1,0,0,0,159.6,24.6Zm-.4-2.8a.37.37,0,0,1-.1-.3v-.9h.1v.1h.1v.2h0c0,.1,0,.2.1.2s.2.3.3.4h0v0l.1.1v.7A1,1,0,0,1,159.2,21.8Zm.5-.2Zm0-4.3a4.1,4.1,0,0,0-.1,1.1h-.1c-.1-.1-.2-.2-.2-.3h0V18a.37.37,0,0,1,.1-.3v-.2C159.5,17.3,159.6,17.3,159.7,17.3Zm-2.6,9.1v.8h-.2V27a.1.1,0,0,0-.1-.1h0v-.1c.1-.1.2-.3.3-.4Zm-1.7.4V27h0c-.1,0-.1-.1-.2-.1h.1c0-.1,0-.1.1-.1-.1,0-.1.1,0,0Zm.5.2h.2l.1-.1h.1a.14.14,0,0,0,0-.2h0c0,.1,0,.2-.1.2l-.1.1a1.27,1.27,0,0,1-.6-.1.1.1,0,0,0,.1-.1h0v.1C155.8,27.1,155.8,27.1,155.9,27Zm.3-.1Zm0,.1Zm.5.1Zm.2-.7h0c-.1.1,0,.1,0,0Zm0,0Zm-.1.1Zm0-.1h0c-.1,0-.1.1,0,0-.1.1-.1.2-.2.2v.3a.1.1,0,0,0,.1.1c0,.1,0,.2-.1.2s-.1.1-.2.1h0a.28.28,0,0,0,0-.5l.1-.1h0q.15-.3.3-.3Zm-.3,0Zm-.1,0a.35.35,0,0,1-.1.2v.2c0-.1,0-.1-.1-.1h0v-.1h0c.1-.1.1-.2.2-.2Zm-.2.1Zm-1.3-.1h0l.1.1c.1,0,.1.1.2.1h.2c.1,0,.1-.1.2-.1h.1l.1-.1h0a.35.35,0,0,1,.2.1h0v.1h0c-.1,0-.1.1-.2.1h0l-.1.1h-.1c0,.1,0,.1-.1.1l-.1-.1-.1.1h-.1c-.1,0-.1.1-.2.1v.1c-.1,0-.1-.1-.2-.2a2.26,2.26,0,0,1-.5-1.1.84.84,0,0,1,.7-.2.1.1,0,0,0,.1.1H155c-.2,0-.4.1-.4.3v.1a.32.32,0,0,0,.3.3.1.1,0,0,1-.1-.1h0c-.1-.1-.1-.1-.1-.2v-.2c.1-.1.1-.1.2-.1h0v.1c0,.2.2.2.3.1a.1.1,0,0,0,.1-.1c.1.1.1.1.2.1s0,.1-.1.2-.5.2-.6.1Zm-.5-2.9h0a.1.1,0,0,0-.1.1h0l-.1.1a.1.1,0,0,1,.1-.1h-.1l-.1-.1a.77.77,0,0,1,.3-.2v.1h0a.1.1,0,0,0,.1-.1h0v.1c.1.1,0,.1-.1.1Zm.1.7Zm-.1,0Zm0-.1a.1.1,0,0,1,.1-.1l-.1.1Zm-.1.3h0c0,.1-.1.1,0,0-.1.1-.1,0,0,0Zm.3-1.5a1.38,1.38,0,0,0-.4.3c.1-.1.3-.2.4-.3v.3a1,1,0,0,0-.5.4h0v-.3h.1l-.1-.1V22c.2,0,.4.1.6,0v.6A.37.37,0,0,0,154.6,22.9Zm-.5,1.3Zm.1.6h0v-.2a.1.1,0,0,0,.1-.1h0c.1,0,.1-.1.2-.1v-.1a.1.1,0,0,0-.1.1v-.1h.1v.3h0c0,.1,0,.2.1.2h-.2c.1-.1-.1-.1-.2,0Zm.5-2.9h-.6v-.2h0v-.5c.1,0,.2.1.4.1a.37.37,0,0,0,.3.1v.2h0A.37.37,0,0,0,154.7,21.9Zm-.1-1.4h.2v.4l-.1-.1c-.1,0-.2-.1-.3-.2h-.3v-.4c.1,0,.1.1.2.1h0c0,.1.1.2.3.2-.2,0-.2-.1-.3-.1h.1a.75.75,0,0,1-.1-.5c0-.2.1-.3.1-.4h.2A1.16,1.16,0,0,0,154.6,20.5Zm0-1h.2v.1a2.92,2.92,0,0,1-.2.9h0a1.7,1.7,0,0,1,0-1Zm.1,1h0v-.4c.1.2,0,.3,0,.4Zm.1-1.5h0c0,.1-.1.1,0,0Zm-.7.9a.9.9,0,0,0,.1.5c-.1,0-.1-.1-.2-.1v-.9c.1,0,.2.1.3.1A.76.76,0,0,0,154.1,19.9Zm-.1-1Zm.3-1.6h.4v.3c-.1,0-.1-.1-.2-.1H154v-.2Zm-.3,1.6h0c.1,0,.2.1.3.1a.37.37,0,0,1-.3-.1h0V17.6h.3a3,3,0,0,0-.2,1.3h.1a5.7,5.7,0,0,1,.1-1.3c.1,0,.1,0,.2.1l.1.1v.3h-.1l.1.1v.5h0c0-.1-.1-.1-.1-.2v-.7c-.1.3-.1.7-.2,1.1,0,0,.1.1.1,0a.37.37,0,0,1,.1-.3v.2c0,.1,0,.1-.1.2h0v0h0v.1a.37.37,0,0,1-.3-.1c.1,0,.2.1.3.1h0s0,.1.1,0h.1v.3h-.3c-.1,0-.1,0-.2-.1h0a.35.35,0,0,1-.2-.1A.37.37,0,0,0,154,18.9Zm.3,6.5a1.42,1.42,0,0,1,.6-.2h-.2a.76.76,0,0,0-.4.2c0-.2-.1-.3-.1-.5.1,0,.2-.1.3-.1h.3c0,.2.1.3.1.4h0a.1.1,0,0,0,.1.1.76.76,0,0,0-.4.1.22.22,0,0,0-.2.2C154.3,25.5,154.3,25.5,154.3,25.4Z"/><path class="cls-2" d="M166.5,18.3Z"/><path class="cls-2" d="M205.5,25.3h.1a.22.22,0,0,0,.2-.2c0-.1-.1-.1-.2-.1s-.2.1-.1.3Z"/><path class="cls-2" d="M166.5,18.4Z"/><path class="cls-2" d="M205.7,21.9Z"/><path class="cls-2" d="M154.7,18.1c.1-.1,0-.1,0,0Z"/><path class="cls-2" d="M199.7,16.8c0-.2-.3-.3-.6-.4h-.3a1.27,1.27,0,0,0-.6.1,1.38,1.38,0,0,0-.4.3h0a8.36,8.36,0,0,0-.3,2.6c0,1.1.1,2.3.1,3.1h-.1v.1h0v.1h.1v.4l-3.3-6.4a9,9,0,0,0-1.3-.2c-.4,0-.5.1-.6.3h0a19.63,19.63,0,0,0-.4,3.3c0,2.5.2,5.6.3,6.8v.6h0a.35.35,0,0,0,.2.1h.1a.31.31,0,0,1,.2.1h1.1c.1,0,.1,0,.1-.1h.1c.1,0,.1-.1.2-.1a6.19,6.19,0,0,0,.4-2,34,34,0,0,0-.4-4.4s.4,1,1,2.2a2.19,2.19,0,0,0,.3.5,13.58,13.58,0,0,0,2.1,3.6h0c.1,0,.2.1.3.1h1.4c.2,0,.3,0,.4-.1h.1l.1-.1c0-.2.2-4.1.2-7.2C199.9,18.8,199.9,17.5,199.7,16.8Zm-2.1,9.4h0c.1,0,.1.1,0,0l.1.1Zm-3.6.4-.3.3c.1,0,.2,0,.2-.1,0,.1,0,.2-.1.2h-.2c-.1-.1-.1-.3-.2-.5.2,0,.3-.1.5-.2v.1A.31.31,0,0,1,194,26.6Zm-.5.5h-.1V27c.1-.1.1-.1.2-.1-.1,0,0,.1-.1.2Zm5.3-10h.2c-.1.2-.2.5-.3.7s-.3.4-.4.6v-.3c.1-.1.1-.3.2-.4l.3-.6Zm.4,2.1Zm-.3-1.6c.1-.1.1-.3.2-.4v.1h0c-.1.1-.1.2-.2.3Zm0,0h0a.1.1,0,0,1-.1.1C198.9,17.7,198.9,17.7,198.9,17.6Zm-.1.3a.1.1,0,0,1-.1.1l.1-.1h0a.1.1,0,0,1,.1-.1c-.1,0-.1,0-.1.1Zm-.1.1Zm0,0Zm0,.2v.1c-.1,0-.1,0,0-.1-.1.1-.1,0,0,0Zm.5,4h0a.1.1,0,0,0-.1-.1c0-.1-.1-.2-.1-.4h0c0-.1-.1-.2-.1-.3h.1c.1.2.2.5.3.7A.1.1,0,0,0,199.2,22.2Zm-.9-1c-.1-1.1-.1-1.9-.1-2.5a.76.76,0,0,1,.2-.4c0-.1.1-.1.1-.2a2.2,2.2,0,0,0-.1,1.4h-.1v.3h0v.1h0v.3h-.1v.2h0v.1h0v.1h0a.35.35,0,0,0,.1.2h0v.3h0c0,.1.1.2.1.3h.1v.1h0c0,.1.1.1.1.2h0c0,.1.1.2.1.3s0,.2.1.2.1.1.1.2h0v.1h0v.2c-.1-.2-.2-.3-.3-.5a5.39,5.39,0,0,0-.3-1Zm.4,3.7h0l-.1.1-.1.1-.1-1.6a.31.31,0,0,0,.2-.1v-.1a.35.35,0,0,1-.2.1v-.1h.1V23c0,.1.1.2.1.3v.1h0a4.51,4.51,0,0,1,.3,1.1v.2h0v.2h0s0-.1-.1,0Zm.1.8Zm-.1-.3h0a.1.1,0,0,1-.1-.1h.1v.1Zm-.1,0Zm-.4.2h0v0Zm.2-2.6v0Zm-.2,2.8h0l.2.2h0v.1a.31.31,0,0,1-.1.2v.1c0-.3-.1-.4-.1-.6Zm.7-.4Zm-.1.4c0,.1,0,.1.1.2s.1.2.1.3v0a.76.76,0,0,1-.2-.5Zm.3-1.1h0v-.1h0v.1Zm0,.1v.9h0a.1.1,0,0,0-.1-.1c0-.1,0-.2.1-.2h0a.37.37,0,0,1,.1-.3h-.1a.1.1,0,0,1,.1-.1h-.1v-.2Zm-.2-.4Zm.1-.1h0a.52.52,0,0,1-.2-.4c0-.1-.1-.3-.1-.4a.1.1,0,0,0,.1-.1h0c0,.1.1.1.1.2a1.7,1.7,0,0,1,.1.7Zm-.3-.9c0-.1-.1-.2-.1-.3l.1-.1c-.1-.1-.1,0-.1,0s-.1-.2-.1-.3h0v-.6c.2.4.3.8.5,1.2Zm-.2-3.2h0l.3.9c0-.1,0-.1-.1-.2h0c0-.1-.1-.2-.1-.3h-.1c0,.1.1.2.1.3h0v0h0c0-.1-.1-.2-.1-.3v-.1h0v-.3Zm.3.9Zm.3.5a8.51,8.51,0,0,1-.6-1.7v-.1a8.8,8.8,0,0,0,.5,1.5c.1.2.1.3.2.4A.1.1,0,0,1,199.1,21.6Zm-.7-4-.1.1a3.54,3.54,0,0,1,.1-.6h.3C198.6,17.3,198.5,17.4,198.4,17.6Zm-1.3,6.7h0c-.1.1-.1.1-.1.2h0c0-.2.1-.3.1-.5h.1v.1c-.2,0-.2,0-.1.2Zm-.1-.7h0l.1-.1h0Zm-3.1,1.5h0a.35.35,0,0,1,.1-.2h0A.35.35,0,0,1,193.9,25.1Zm.1-.1h0v.1C193.9,25.1,194,25,194,25Zm-.9-6.8c.1,0,.1-.1.2-.1l.1.6a2.19,2.19,0,0,1-.3-.5l.3.6.1.6a4.61,4.61,0,0,0-.5-1h0c.1-.1,0-.1,0,0h0c0-.1,0-.1.1-.2Zm0-.8v-.2h0l.1.5-.2.2a.75.75,0,0,1,.1-.5Zm.8-.1h0c.1.1,0,.1,0,0,0,.1,0,.1.1.1l.2.5a1.38,1.38,0,0,1-.4-.3c0-.1.1-.1.1-.3Zm1,3.3-.1-.2c.1,0,.2.1.2.3h.1c.1-.1.2-.1.4-.1h0c-.2,0-.4.1-.4.3.1-.2.3-.2.5-.2l.2.4a.86.86,0,0,0-.6.3,1.69,1.69,0,0,1-.2-.5v-.1a.1.1,0,0,0,.1.1h.1A.32.32,0,0,0,194.9,20.6Zm-.1-1.6c.2.5.4,1,.6,1.4h.1c-.1-.1-.1-.3-.2-.5l.3.5h0v.1a.37.37,0,0,0-.3.1.1.1,0,0,0-.1-.1c-.1-.5-.2-.9-.6-1.1a2.22,2.22,0,0,1,.5,1.1H195a1.93,1.93,0,0,0-.5-.9,3.55,3.55,0,0,1,.4.9h0l-.4-.9h0v-.1c0-.1.1-.1.1-.2h0c.1-.1,0-.1,0-.1s.1-.1.2-.2Zm0-.1a1.38,1.38,0,0,1-.3.4l-.1-.2h0a.1.1,0,0,0,.1-.1h0c.1-.1.1-.2.2-.3Zm-1.1,3Zm-.1.1h0v-.1h0V22Zm0,0Zm0,.3v0Zm-.1-.5h0v0Zm0,0Zm0-1.4h0c0-.1,0-.2.1-.2l-.1.2Zm-.7.1h0v0Zm0,0h0c.1-.1.2-.1.4-.2a.52.52,0,0,1-.4.2Zm.1,2.2h0v0Zm0-.2v-.8c0,.1.1.1.1,0v.4h0a.37.37,0,0,0,.1.3C193,22.5,193,22.5,192.9,22.5Zm.2-2H193s.1-.1.1,0Zm0,.7h0v.6h0v-.6Zm.1.7v-.1h0v-.3h0v.2h0v.1h.1v.6h-.1a.45.45,0,0,1,0-.5Zm0-1Zm0,0Zm0,.1h0v.3h0V21Zm.1-.6Zm-.5,0a12.12,12.12,0,0,1,.1-2,5.91,5.91,0,0,1,.6,1.4V20A1.61,1.61,0,0,1,192.8,20.4Zm1.8-1.8.1.2c-.1.1-.1.2-.2.3s-.1-.1-.2-.2l-.4-1,.4.4C194.3,18.4,194.5,18.5,194.6,18.6Zm-.2.6Zm-1,2.8v.4h0v.1h0V22Zm0,.7a.37.37,0,0,1,.1.3h-.1v-.3Zm.2-2.2Zm.1,1.1Zm0,1.3Zm0-1.4Zm-.3-1.2c.1,0,.1-.1.2-.1h0C193.5,20.2,193.4,20.2,193.4,20.3Zm1.1-2a.37.37,0,0,0-.3-.1l-.4-.4-.1-.1a.1.1,0,0,1,.1-.1c.2.2.3.4.5.5h0Zm-.9-1h.2c0,.1-.1.2-.1.3l-.1-.3Zm-.2,7.2h0a.76.76,0,0,1,.1.4v-.1A.37.37,0,0,0,193.4,24.5Zm-.1-.2h-.2c.2,0,.3,0,.4.1C193.4,24.4,193.4,24.3,193.3,24.3Zm-.3.8h0a.1.1,0,0,1,.1-.1c0-.1,0,0-.1.1,0-.1.1-.1.1-.2H193a.1.1,0,0,0,.1-.1v-.2c-.1,0-.1.1-.2.1h-.1l-.1-.1v-.1l.1-.1h.1a.75.75,0,0,1,.1.5c0,.1-.1.1-.1.2Zm.1-.8Zm0,1h.2v-.1h.1a.1.1,0,0,0,.1-.1h.2a1,1,0,0,1-.5.4h-.1Zm.3.2.1-.1s0,.1.1,0a.1.1,0,0,1,.1-.1h0a.1.1,0,0,1,.1-.1h0l-.1.1h0a.35.35,0,0,1-.2.1.37.37,0,0,1-.3.1h0C193.2,25.6,193.3,25.5,193.4,25.5Zm.4-.2h0a.1.1,0,0,1-.1.1A.1.1,0,0,1,193.8,25.3Zm-.1-.2h0V25h-.1v-.2h0v0h0v-.2c0-.3-.3-.4-.6-.4h0v-.4h.3a.55.55,0,0,1,.5.3v.1h0c.1.2.1.3.2.5a.37.37,0,0,1-.1.3h0C193.8,25,193.7,25,193.7,25.1Zm-.7-1.4Zm.4.1h0a.35.35,0,0,1,.2.1l.1.1h-.1C193.6,23.9,193.6,23.8,193.4,23.8Zm.5.8h0v.3h0Zm0,.3h0c.1-.1.1,0,0,0Zm.1-.8c0-.1-.1-.1-.1-.2s-.2-.3-.4-.3l.3.3-.1-.1c-.1-.1-.2-.1-.3-.2h-.5v-.1a1.27,1.27,0,0,1,.6.1.73.73,0,0,0-.6-.2V23a.22.22,0,0,1,.2-.2c.2,0,.1.3.2.4.1-.1.3,0,.4.1h.1c0-.1.1-.2.1-.1v.2h-.1a.1.1,0,0,0,.1.1v.4l.1.2Zm1.3-2.7.6-.3.2.5H196c-.2-.1-.3,0-.5,0h.3a.76.76,0,0,1,.4.2l.2.4v.1a.56.56,0,0,1-.6.5c-.1-.1-.1-.3-.2-.4v-.2a.37.37,0,0,1,.3-.1.35.35,0,0,0-.2-.1.22.22,0,0,0-.2.2A3.09,3.09,0,0,0,195.3,21.4Zm1.2,1.6c.1-.1.2-.2.2-.3l.2.3a1,1,0,0,1-.7.4c-.1-.1-.1-.3-.2-.4A.45.45,0,0,0,196.5,23Zm.7.8h.1c0,.1,0,.1-.1,0Zm-4-5.9V18c-.1.1-.2.1-.3.2V18C193,18,193.1,17.9,193.2,17.9Zm-.1,7.8c.3.1.7-.2.9-.5v.3c-.1.1-.2.3-.3.4s-.3.2-.5.2h0a.1.1,0,0,0-.1-.1l-.1-.1C193.1,25.9,193.1,25.8,193.1,25.7Zm.9.2v.4a2.19,2.19,0,0,1-.5.3c-.1-.2-.1-.3-.2-.4.2-.1.3-.1.4-.2s.3-.3.3-.4v.2a2.65,2.65,0,0,1-.6.5A2.09,2.09,0,0,0,194,25.9Zm-.9.3h0l.2.2a.35.35,0,0,0-.1.2A.6.6,0,0,1,193.1,26.2Zm.1.5h0l.2-.2c0,.1.1.1.1.2a.1.1,0,0,0-.1.1v-.1c-.1,0-.1.1-.2,0Zm3.1-3.1a1,1,0,0,0,.7-.4l.1.3c-.1.1-.2.1-.3.2h0c-.1,0-.2.1-.3.1h-.1v0A.31.31,0,0,1,196.3,23.6Zm.3.6Zm0-.1Zm.1.4a.1.1,0,0,0,.1-.1c.1,0,0-.1-.1-.1h0v-.1c.1,0,.1-.1.2-.1h0v.7h0C196.8,24.7,196.7,24.6,196.7,24.5Zm.4.8c0-.1,0-.1.1-.2h0v-.2h.1c0-.1.1-.1.1-.2h0c0-.1.1-.2.1-.3h0v-.1l.1.1v.2c-.1.2-.1.4-.2.6h0v.1h-.1c0,.1,0,.1-.1.2C197.2,25.4,197.2,25.4,197.1,25.3Zm.7.7a.6.6,0,0,0-.1-.4h.1v-.2h.1v-.3l.2.3v.4a2.54,2.54,0,0,0,.2.7v.3s0,.1.1,0v.1H198c-.1-.1-.1-.2-.2-.3C197.9,26.4,197.8,26.2,197.8,26Zm.8.8a.35.35,0,0,0,.1-.2v-.2a1,1,0,0,1-.1.3s-.1,0,0,.1h0c0-.2,0-.3.1-.4h0a.6.6,0,0,0,.1-.4h.1v-.1h0a1.42,1.42,0,0,0,.2.6v.4h0a.9.9,0,0,1-.5-.1Zm.5-2.7c-.1-.2-.1-.5-.2-.7h0a7.84,7.84,0,0,1-.5-1.4v-.3c.1.2.2.3.3.5s.4.5.6.8v1.3C199.1,24.2,199.1,24.2,199.1,24.1Zm.1-2.4a7.58,7.58,0,0,1-.6-1.6,3.13,3.13,0,0,1,.2-1.9c.1-.2.2-.3.3-.5h0V18a3.08,3.08,0,0,0-.3,1.3,3.75,3.75,0,0,0,.1,1.1c.1.3.2.5.3.8v.5Zm-.1-1.2a4.1,4.1,0,0,1-.1-1.1,2.57,2.57,0,0,1,.1-1.5,3.75,3.75,0,0,0,.1,1c-.1.1-.1.1-.1.2v.1h0v.1a.75.75,0,0,0,.1.5h0v1C199.2,20.7,199.1,20.6,199.1,20.5Z"/><path class="cls-2" d="M166.7,25.8c-.1-.1-.1,0,0,0Z"/><path class="cls-2" d="M205.4,25.6h0c-.1,0-.1-.1-.2-.1A.35.35,0,0,0,205.4,25.6Z"/><path class="cls-2" d="M187.7,26.9Z"/><path class="cls-2" d="M196.1,22.3c.2.2.1.3,0,.2.1.3.6-.1.3-.3a.19.19,0,0,0-.3,0S196.2,22.2,196.1,22.3Z"/><path class="cls-2" d="M163.4,22.6c-.1-.1-.3-.2-.3-.3v.1C163.1,22.5,163.2,22.6,163.4,22.6Z"/><path class="cls-2" d="M165.3,18c0-.1-.1-.1,0,0Z"/><path class="cls-2" d="M165.7,18.1c0-.1-.1,0,0,0Z"/><path class="cls-2" d="M165.8,18.1c-.1-.1-.1,0,0,0Z"/><path class="cls-2" d="M166.6,17.8Z"/><path class="cls-2" d="M203,18.2c0-.5-.1-.9-.1-1.1s-.2-.2-.3-.3h-.1a1.27,1.27,0,0,0-.6-.1c-.4,0-.9.1-.9.4s-.1.8-.1,1.3c-.1.1-.1.2-.1.4h0a.1.1,0,0,0,.1.1h0v.3c0,.1-.1.3-.1.4h.1v3.2h-.1c0,.1.1.1.1.2,0,2.4.1,4.7.1,4.8v.1h1.9V26.7c0-.6.1-1.5.1-2.4V18.6h.1C203.1,18.4,203.1,18.3,203,18.2Zm-.7,6.7-.1.1h-.1a.35.35,0,0,0,.2.1v.1c-.1,0-.1.1-.2.1.1,0,.1-.1.2-.1v.5a.78.78,0,0,1-.4-.4h0v-.1h-.1v.1c-.1,0-.1-.1-.2-.1v-.5c.2.1.5.2.7-.1h0v.3Zm-.1.9h0a.64.64,0,0,1,0,.6.66.66,0,0,1-.6.1v-.3c.1.1.3.1.3,0C202.2,26.2,202.3,26,202.2,25.8Zm-.2-6.2c.1.1.3.1.4.2v.3a.1.1,0,0,1-.1-.1.76.76,0,0,0-.7-.1v-.3C201.7,19.6,201.9,19.5,202,19.6Zm.4,2.2a.1.1,0,0,1-.1.1c0-.1,0-.1.1-.2Zm-.8.4V20.8h0v-.4h0c.1,0,.1,0,.2.1h0c.2,0,.4.1.6,0v.1c-.1.1-.3.1-.4.2a.6.6,0,0,0,.4-.1v.1a11.5,11.5,0,0,1-.6,1.7C201.7,22.4,201.6,22.3,201.6,22.2Zm.1.3a.35.35,0,0,0-.1.2v-.4C201.6,22.4,201.6,22.4,201.7,22.5Zm.1-2.4Zm-.2,3.7v0h0v-.2h0v.2h0a.14.14,0,0,1,.2,0h-.2c.1,0,.1-.1,0,0Zm0,.3Zm0-.1h0c.1-.1,0-.1,0,0Zm.4-.6.3.3v.1c-.1-.2-.2-.4-.3-.4l-.1.2c.2-.1.3.1.3.3a.64.64,0,0,1,0,.6c-.1.3-.4.2-.6.1v-.4h.1c.1.1.1,0,.2,0h0c.1,0,.1,0,.1-.1h0a.44.44,0,0,0-.1-.5h.1v-.1c.1-.2.1-.4.2-.6a1.42,1.42,0,0,0-.2.6c-.1-.1-.2-.2-.2-.3v-.5h0c0-.1.1-.1.1-.2h0a.1.1,0,0,0,.1.1v.6h.1a1.27,1.27,0,0,0-.1-.6h.1a4.35,4.35,0,0,0,.4-.7c0,.1-.1.2-.1.4a.22.22,0,0,0-.2.2h.1l-.1.1v.2h.1v0h.3v.5c-.1-.1-.2-.1-.3-.2Q201.85,23.4,202,23.4Zm.3-5.5v.2l-.1-.1-.1-.1Zm-.1-.5h0a.37.37,0,0,1,.1.3h-.1Zm-.1,0v.4H202c0-.2,0-.3-.1-.4Zm-.1.6Zm-.1-.6v.5a.35.35,0,0,0-.2.1v-.5C201.7,17.4,201.8,17.4,201.9,17.4Zm-.2.8a.37.37,0,0,1,.3-.1.86.86,0,0,1,.3.6v1a.37.37,0,0,0-.3-.1c-.2-.1-.4,0-.5,0v-.3h0v-.6h0v-.3Zm-.1,7c.1,0,.1.1.2.1v.2c0,.1-.1.2-.2.3Zm.3,1.5c.1.2.1.3,0,.4h-.2v-.4Zm.1.3c.1,0,.2,0,.2-.1v.2H202Z"/><path class="cls-2" d="M163.4,22.6Z"/><path class="cls-2" d="M162.9,17.8c.1,0,0-.1,0,0Z"/><path class="cls-2" d="M205,26.8h.4C205.3,26.7,205.1,26.8,205,26.8Z"/><path class="cls-2" d="M162.9,17.8c0-.1-.1,0,0,0Z"/><path class="cls-2" d="M166.5,18.3Z"/><path class="cls-2" d="M164.6,22.6h0v0Z"/><path class="cls-2" d="M164.5,22.4a.1.1,0,0,1-.1.1h.1s.1-.1,0-.1Z"/><path class="cls-2" d="M163.4,22.4c.1.1.2.1.2-.1s-.1-.3-.2-.3a.45.45,0,0,0-.3.3h0a.22.22,0,0,1,.2-.2C163.5,22.2,163.6,22.5,163.4,22.4Z"/><path class="cls-2" d="M158.2,26.8c.1,0,0-.1,0,0Z"/><path class="cls-2" d="M172.6,26.9Z"/><path class="cls-2" d="M159.3,19.4c0-.1-.1-.1,0,0Z"/><path class="cls-2" d="M173.4,26.6Z"/><path class="cls-2" d="M152.6,26c-.1-.2-.1-.4-.4-.6s-.2-.1-.7-.1a16,16,0,0,0-2.5.4c-.3,0-.6,0-.6-.6a5.13,5.13,0,0,1,.1-1c.1,0,.1.1.2.1h0c-.1-.1-.1-.2-.1-.4v.1h0a.1.1,0,0,0,.1.1h.1c0-.2,0-.3-.1-.4h0v-.1h0v-.3h0v-.1h0V23h0c-.1,0-.1,0-.1.1h0a.1.1,0,0,0,.1-.1h0l-.1-.1h-.1c.1-1.2.1-2.7.1-4a10.32,10.32,0,0,0-.1-1.9c-.1-.3-.8-.3-1.2-.3s-.9.1-.9.4v5.6h-.1l.1.1h0v1.5h0v1.1h0v.1a2.2,2.2,0,0,0,.6,1.7,2.23,2.23,0,0,0,1.3.4h.6a7.5,7.5,0,0,0,2.2-.2h.1c.1,0,.2-.1.3-.1h0a2.19,2.19,0,0,0,.5-.3,1.35,1.35,0,0,0,.5-.9C152.6,26.2,152.6,26.1,152.6,26Zm-5,.9v-.3a.51.51,0,0,0-.4-.5v-.3h0c.1.1.2.1.3.2h-.1v.1h.2l.1.1a1.42,1.42,0,0,1,.2.6V27C147.8,27,147.7,26.9,147.6,26.9Zm4.2-.9c.1,0,.1.1,0,0a.35.35,0,0,0,.1.2c0,.1-.1.4-.2.4h-.1a.9.9,0,0,1,.1-.5h0a.1.1,0,0,0,.1-.1Zm-1.7,1.1h-.8a.72.72,0,0,1,1.1-.2h.1a.86.86,0,0,0-1.3.2h-.3a1,1,0,0,1,.4-.5c.4-.3.9,0,1.2.3a.1.1,0,0,0,.1-.1h0a.1.1,0,0,1,.1.1V27h-.1c-.1,0-.2,0-.2.1h-.1C150.3,27,150.2,27.1,150.1,27.1Zm-1.7-.1Zm.1,0Zm.1,0Zm.1-.3Zm-1.1-1.4h0c-.2-.1-.2,0-.3.1a.1.1,0,0,0-.1.1V25h0a.75.75,0,0,1,.5-.1v.3c0,.1,0,.1-.1.1Zm.1.5Zm-.1-.4Zm0,.3Zm-.3,0h0Zm0,.1Zm0-.3Zm0-1.3h0v0l-.1-.1v-.8a.35.35,0,0,1,.2.1c0,.1.1.2.1.3.2.1.2.2.3.4v.4h-.3v-.1h0c-.1,0-.1,0-.2-.2Zm-.1.2h0a.1.1,0,0,0,.1.1h-.1Zm0-3.5v-.3c.2.1.5.2.6.5,0,.1.1.2.2.3v.2c-.1-.1-.1-.2-.2-.3a6.13,6.13,0,0,0-.6-.4Zm.5.1Zm.1-.3Zm.1.2Zm0-.1Zm-.5-2.2v1.6h0a14.08,14.08,0,0,0-.1-2s.1-.1,0-.1a.9.9,0,0,0-.1-.5h.1v-.1h-.1v-.1h.2Zm-.2-.4h0c.1.1.1.1.1.2h-.1Zm0-.1v-.2h0v-.1h0v-.2h0v.5Zm0,.4h.1v1.4a.9.9,0,0,1-.1-.5Zm.3,4.9h0c-.1-.1-.2-.2-.3-.2V23c.1,0,.2.1.3.2l.2.3.1.3v.1A1.07,1.07,0,0,0,147.5,23.4Zm-.3-.6v-.1c.1-.1.1-.2.2-.2l.1.2c-.1.1-.2.2-.2.3a.22.22,0,0,1,.2-.2l.1.3h-.2v.1c-.1,0-.1-.1-.2-.1Zm0-1.2.2.8c-.1.1-.2.1-.2.2Zm.5,3.4h-.3a.35.35,0,0,0,.2-.1.1.1,0,0,1,.1.1Zm.3-5.3h0v0Zm-.4-2.3v1.4a3.75,3.75,0,0,1-.1,1V17.4Zm-.1,2.9a7.72,7.72,0,0,1,.2-1.5,6.53,6.53,0,0,0,0-1.4h.3v1.1a6.52,6.52,0,0,1-.3,1.6s0,.1.1,0,0-.1.1-.2h0c0-.1.1-.2.1-.3h0v.3h0v.2a1.69,1.69,0,0,1-.5.2Zm.5.4Zm-.1.2Zm0-.1Zm0,.1Zm0-.1Zm0,0Zm-.3.5a1.33,1.33,0,0,1,.3.5h0l-.6-.8Zm-.3,2h-.1v-.1Zm.4,1.6h-.5v-.1a1.09,1.09,0,0,1,.5-.1Zm0,.5Zm.6.8a.1.1,0,0,1-.1.1.1.1,0,0,0,.1-.1Zm.2.1Zm.4.1h0c.1,0,.1.1,0,0Zm0,.1h0c.1,0,.1.1,0,0l.1.1c0,.1-.1.1-.1.2h0v-.1s.1,0,0-.2c.1.1,0,.1,0,0Zm.5-.1h.2c-.1,0-.2.1-.3.1a2.09,2.09,0,0,0-.4.6h0A1.16,1.16,0,0,1,149.4,26.4Zm1.7-.4h0c-.1.1-.2.1-.3.2a.44.44,0,0,1,.5-.1l-.1.1h.3v-.1h-.1c-.3-.1-.7.1-.7.4l-.2-.2a.1.1,0,0,1-.1-.1.78.78,0,0,1,.4-.4C150.9,26.1,151,26,151.1,26Zm.3,0Zm0,0Zm-.1.1Zm-.9.2h0c0-.1,0-.1.1-.1h0c0,.1-.1.1-.1.2h0v-.1Zm.3.4h0c-.2-.1-.3-.2-.5-.3h0C150.4,26.5,150.5,26.6,150.7,26.7Zm-.5-.5h0l-.1.1h0C150.1,26.2,150.1,26.2,150.2,26.2Zm-.1.2Zm-.1,0h-.3v-.1a.37.37,0,0,1,.3.1Zm.9.5h0l-.1-.1.1.1c-.1-.1-.1-.1-.1-.2a.48.48,0,0,1,.6-.2s.1,0,0-.1h0c-.1-.1-.5,0-.6.3h-.1a.55.55,0,0,1,.7-.3h0c0,.1-.1.1-.1.2v.1a.22.22,0,0,0-.2.2h-.2Zm.7-.6h0v.4h0Zm0-.3Zm0,0Zm-.2.8h0c-.1,0-.1,0-.1.1h0c-.1-.1,0-.2.1-.1Zm.2-.6c0-.1.1-.1.1-.2h.1l-.2.2Zm-2.5.2h0v.1s-.1,0,0-.1Zm-1.9-5.9h0V20c0,.1.1.2.1.3v.1h.2l-.2.2a.78.78,0,0,1,.7-.3v.1a.76.76,0,0,0-.5.2.52.52,0,0,1,.4-.2h-.1c-.1.1-.3.1-.2.2a.1.1,0,0,1,.1-.1v.1h-.1c0,.2-.2,0-.4-.1Zm0,4.1h.5v.1a.75.75,0,0,0-.5.1Zm.1,1.7v-.2a2.19,2.19,0,0,1,.3.5v.2l-.1-.1C147.4,26.6,147.4,26.4,147.3,26.3Zm.7.6a1.33,1.33,0,0,0-.3-.8l-.1-.1c0-.1.1-.1.1-.2h.1v-.1h0v.1a.37.37,0,0,0-.1.3c0-.1.1-.2.1-.3a.78.78,0,0,0,.4.4c0,.1-.1.1-.1.2l-.1.1h.1v-.1h.1v-.1h0v.1h0c-.1,0-.1,0-.2.1h0v.1c-.1,0-.1.1-.2.1a.55.55,0,0,1,.5-.2h0v.2a.36.36,0,0,0-.3.2.62.62,0,0,1,.7-.1v.1h0l.1.1h.1v.1h0c-.2-.3-.5-.2-.7,0h-.1C148,27,148,27,148,26.9Zm.2.2.1-.1v.1h-.1Z"/><path class="cls-2" d="M206.4,22.3c.1-.1,0-.1,0,0Z"/><path class="cls-2" d="M172.5,26.9Z"/><path class="cls-2" d="M172.6,26.9Z"/><path class="cls-2" d="M172.5,26.9Z"/><path class="cls-2" d="M187.7,26.9Z"/><path class="cls-2" d="M147.7,20.8c-.1.1,0,.1,0,0Z"/><path class="cls-2" d="M187.7,26.9Z"/><path class="cls-2" d="M151.4,26.8Z"/><path class="cls-2" d="M187.8,26.9Z"/><path class="cls-2" d="M187.7,26.9Z"/><path class="cls-2" d="M148.4,26.4c-.1,0,0,.1,0,0Z"/><path class="cls-2" d="M187.8,26.9Z"/><path class="cls-2" d="M154.5,23.5h0a.1.1,0,0,0,.1-.1A.1.1,0,0,0,154.5,23.5Z"/><path class="cls-2" d="M187.8,17.6Z"/><path class="cls-2" d="M154.3,23.5h0c.2-.1.2-.1.3-.1h0c-.1.1-.1.1-.2.1v-.1l-.1.1Z"/><path class="cls-2" d="M187.6,17.6Z"/><path class="cls-2" d="M154.4,23.5Z"/><path class="cls-2" d="M154.6,23.4Z"/><path class="cls-2" d="M190.7,17.7c-.1-.1-.1-.2-.2-.3a1.38,1.38,0,0,0-.4-.3.1.1,0,0,1-.1-.1c-.1-.1-.3-.1-.5-.2h-.1c-.2,0-.3-.1-.5-.1h-1.4a3.61,3.61,0,0,0-2.4.7h-.2v.1h0l.1.1h-.1a.1.1,0,0,1-.1.1h0v.1h-.2a.1.1,0,0,0-.1.1h0l.2.2a3,3,0,0,0-.4,1h0V19h0v.1h0c-.1.5-.2,1.2-.3,1.9v.1h0v.3h0a.1.1,0,1,0,0,.2h0v.6h-.1l.1.1c0,2.3.1,4,.8,4.8h0a1.38,1.38,0,0,0,.4.3.1.1,0,0,1,.1.1c.1.1.3.1.4.2h.1c.1,0,.3.1.4.1h1.4a3.17,3.17,0,0,0,2.5-.8h0c.1,0,.1,0,.2-.1h0c0-.1,0-.1-.1-.1a.1.1,0,0,1,.1-.1h.1v-.1h0l-.1.1h0l.2-.2h0a6.38,6.38,0,0,0,.6-2.3h.1a9.15,9.15,0,0,0,.1-1.7V20.9A14,14,0,0,0,190.7,17.7Zm-.3,4.9a2.77,2.77,0,0,1-.1-.9.6.6,0,0,1,.1-.4v1.3Zm0-1.7h0a2.35,2.35,0,0,0-.2.8,3.55,3.55,0,0,0,.2,1v.9c-.1-.1-.1-.1-.1-.2a3,3,0,0,1-.4-1,2,2,0,0,1,.1-1.3,2.09,2.09,0,0,1,.4-.6l.1-.1A.9.9,0,0,0,190.4,20.9Zm-.6,0a2.52,2.52,0,0,0-.1,1.5,3.58,3.58,0,0,0,.4,1.1c.1.1.1.2.2.3v.5a4.53,4.53,0,0,1-.8-2.2c-.1-.8,0-2,.9-2.4v.5A1.34,1.34,0,0,0,189.8,20.9Zm-.1,5.3a1.42,1.42,0,0,1-.6-.2h0c.1.1.2.1.3.2a.19.19,0,0,1,.3,0Zm-2.1.8Zm0,0Zm-.1-.1h0a.6.6,0,0,0-.4-.1h.5a.1.1,0,0,1-.1.1Zm.1.1Zm.1-.1h.5a.1.1,0,0,0-.1.1.1.1,0,0,1-.1-.1h-.3c.1,0,.2,0,.2.1h-.1c0-.1,0-.1-.1-.1h0l.1.1h0a.1.1,0,0,0-.1-.1h0c-.1,0-.1,0-.1-.1a.1.1,0,0,1,.1.1Zm.4.1Zm-.3.1h0c-.1,0-.1-.1,0,0Zm-.1-.1Zm.5-.1Zm.1,0c.1,0,.1,0,.2.1a.31.31,0,0,1-.2-.1Zm.3-.3a.1.1,0,0,1-.1-.1.1.1,0,0,0,.1.1h.2c.1,0,.2.1.4.1h0c-.1,0-.2-.1-.3-.1h-.3Zm-.4-.4h0a.1.1,0,0,1,.1-.1c.2,0,.3,0,.4.1,0-.1,0-.1.1-.1h0a.1.1,0,0,1-.1.1.76.76,0,0,1,.4.2H189a.37.37,0,0,0-.3-.1h-.1l-.1.1c-.1-.2-.2-.3-.3-.2Zm-3.3-6.8h0a4.65,4.65,0,0,1,.3-.9l.1-.1.1-.1h0c.1.1.3.1.4.2h0c.1.1.2.1.3.2-.3.1-.4.3-.6.4h0a2.93,2.93,0,0,0-.3,1,.1.1,0,0,0-.1-.1.22.22,0,0,0-.2-.2l-.1-.1a.37.37,0,0,0,.1-.3Zm1-1.6a3.53,3.53,0,0,0,1.4.3,2.45,2.45,0,0,0,1.6-.6h.1a2.67,2.67,0,0,1-1.4.7h-.5c-.1,0-.1,0-.1.1a2.66,2.66,0,0,1-1.2-.3C185.8,17.9,185.8,17.9,185.9,17.8Zm3.2-.2-.1.1-.1.1A.22.22,0,0,1,189.1,17.6Zm-.3.2Zm-.2.2h0l-.1.1h0c0-.1,0-.1.1-.1Zm-.4.1Zm1.3,8.3h0c-.1,0-.1-.1-.2-.1h0c.1,0,.1,0,.2.1Zm-.4,0h0c.1,0,.1.1,0,0Zm0-.1h0a.31.31,0,0,0-.2-.1h.1c.1,0,.1,0,.1.1Zm-.1-.2h0a.1.1,0,0,1,.1.1A.1.1,0,0,0,189,26.1Zm-4.4-3.5V21.5h0v-.4h0V21a.1.1,0,0,0,.1.1v.1h0a1.61,1.61,0,0,1,.3.9.9.9,0,0,1-.1.5h0c0,.1-.1.2-.1.3s-.1.2-.2.3Zm.1-2a.37.37,0,0,0,.1-.3h0a.76.76,0,0,0,.2.4l.1.1h0c-.1,0-.1,0-.2.1v-.1l-.2-.2Zm2.4-2.1h0Zm-.1,0h-.5c-.1,0-.1,0-.2-.1h0a.1.1,0,0,1-.1-.1,2,2,0,0,0,.8.1c-.1,0,0,0,0,.1Zm-1.7,3.4Zm0,.2Zm0,.1v.6h-.1v-.1H185a.9.9,0,0,0,.1-.5Zm-.1-1.6Zm0,.7h0a.35.35,0,0,0,.1.2v.2h-.1a.9.9,0,0,0-.1-.5A.1.1,0,0,0,185.2,21.3Zm0-.9h0v-.1c-.1,0,0,.1,0,.1Zm-.1.8H185c.1-.1.1-.1.1,0Zm-.1,1.6Zm-.4.9v-.2l.3.3.1.1a.1.1,0,0,1-.1.1v.1c-.1-.2-.2-.2-.3-.4Zm.2-.5h0l-.1.1h0l.1.1h-.2c.1-.1,0-.1,0,0v-.1a1.38,1.38,0,0,0,.3-.4.52.52,0,0,1,.4.2v.1c0,.1-.1.2-.1.3C185.1,23.4,184.9,23.3,184.8,23.2Zm1.3,2.9-.1.1-.1.1h-.3c.2-.1.3-.2.5-.2Zm2.7-4.7v1.1h0c0,1.1.2,1.8.2,2.3,0,.2,0,.3-.1.4h0a.1.1,0,0,1-.1.1h-.2a.37.37,0,0,1-.3-.1,4.33,4.33,0,0,0-.5-.1,1.27,1.27,0,0,0-.6.1.9.9,0,0,0-.5.1h-.2a.1.1,0,0,1-.1-.1h0a1.42,1.42,0,0,1-.2-.6c0-.5.1-1.1.1-2.1h0c0-1-.1-1.7-.1-2.3a1.17,1.17,0,0,1,.2-.7c.1-.1.1-.1.2-.1h.2a.6.6,0,0,1,.4.1c.2,0,.3.1.5.1h1.2c.1,0,.1.1.2.2a.35.35,0,0,1,.1.2v.2C188.9,20.3,188.8,20.8,188.8,21.4Zm-.8-3.1h0c-.1,0-.1.1-.2.1h0A.31.31,0,0,1,188,18.3Zm-2.5-.1Zm-.8,6.6Zm.1,0h0c.1,0,.1-.2.2-.3a2.19,2.19,0,0,0,.3-.5,2.39,2.39,0,0,0,.3,1.5c.1.1.2.3.4.4l-.6.3v-.1a.37.37,0,0,0-.3.1c-.1-.4-.2-.9-.3-1.4Zm.6,1.9a.6.6,0,0,0,.4-.1h0a.1.1,0,0,0,.1.1h.1c.2-.1.3-.2.5-.3s.2-.1.3-.2h.1a.1.1,0,0,0,.1-.1c.1,0,.1-.1,0-.1.1,0,.1,0,.1-.1h.4a.9.9,0,0,1,.5.1h.1l-.1.1h-.9c-.1,0-.2.1-.3.1-.3.1-.5.3-.7.3a.78.78,0,0,1-.7.2h0Zm3.6.2Zm.6-6.3a1.88,1.88,0,0,0-.2-1.5,1.11,1.11,0,0,0-1-.6.9.9,0,0,0-.5.1h.1c.1,0,.2,0,.2-.1a3.55,3.55,0,0,0,.9-.4,3.29,3.29,0,0,0,.6-.3l.1.1a2.18,2.18,0,0,1,.5.8c0,.3.1.6.1.9A1.59,1.59,0,0,0,189.6,20.6Zm-.5-3.1Zm-.4,0a3.94,3.94,0,0,1-1.4.5,5.85,5.85,0,0,1-1.3-.2c.2-.1.4-.1.6-.2h.1s-.1.1,0,.1h.1v.1h0a.82.82,0,0,0,.7.1h.1v-.1h-.1s.1-.1,0-.1h.2c.1,0,.1,0,.1-.1h.2c.1,0,.1-.1.2-.1Zm-.8.1ZM185.7,27h.1a1.33,1.33,0,0,0,.8-.3c.5-.2.9-.5,1.4-.3a.1.1,0,0,0,.1.1h0c.1,0,.3.1.4.1v.1a.52.52,0,0,0,.4.2h-.1c-.1-.1-.3-.1-.4-.2a.1.1,0,0,0-.1-.1h-.2v-.1h-.3c-.1,0-.1.1,0,.1h-.4a2.93,2.93,0,0,0-1,.3,1.27,1.27,0,0,1-.6.1Zm.9,0h0c0,.1-.1.1-.2.1C186.5,27.1,186.5,27,186.6,27Zm.5.1h0a.37.37,0,0,1,.3-.1h-.1c0,.1-.1.1-.2.1Zm2.3-1.1a.22.22,0,0,1-.2-.2c.1-.1.2-.2.2-.3a2.19,2.19,0,0,0,.1-1.6,6.62,6.62,0,0,1-.1-1.5v-.2a3.29,3.29,0,0,0,.8,2.2,5.27,5.27,0,0,1-.5,1.5h0C189.6,26.1,189.5,26,189.4,26Z"/><path class="cls-2" d="M154.2,23.2c-.1,0-.1.1,0,0Z"/><path class="cls-2" d="M172.5,26.9Z"/><polygon class="cls-2" points="208.8 19 208.8 19 208.8 19 208.8 19"/><path class="cls-2" d="M172.6,26.9Z"/><path class="cls-2" d="M187.8,17.6Z"/><path class="cls-2" d="M210.5,25Z"/><path class="cls-2" d="M172.5,26.9Z"/><path class="cls-2" d="M167.7,24.5V24h0a3.61,3.61,0,0,0-.7-2.3v-.1h0a1.27,1.27,0,0,0-.9-.4c0-.1-.1-.1-.1-.2h-.1a.1.1,0,0,0,.1.1h-1.8c-.6,0-.8-.1-.8-.9v-.5c0-.4.1-.6.3-.7s.3-.1.5-.1h.5c.1,0,.3.1.4.1a8.87,8.87,0,0,0,1.5.2h.2v.1h.1c.1,0,.1-.1.2-.2h.1v.1h.1v-.1h0c0-.1.1-.1.1-.2h0c.2-.2.2-.5.2-.9v-.4c0-.1-.1-.2-.1-.3h0a.1.1,0,0,0-.1-.1l-.1-.1h0c-.1-.1-.2-.3-.3-.4h-.1c-.1-.1-.3-.2-.4-.3v.2h-.2c0,.1.1.1.1.2h-.2v-.1h-1.7v-.1h0c-.1,0-.1.1-.2.1h-.4a2.1,2.1,0,0,0-2.4,1.9h-.1v.1h.1c0,.2-.1.5-.1.8h0v.9a4.36,4.36,0,0,0,.4,1.8.1.1,0,0,0,.1.1v.1a1.81,1.81,0,0,0,1.8,1h1.7a.1.1,0,0,0,.1.1h0c.1.1.2.1.3.2h-.1v.1h0v.4h0v.5a.76.76,0,0,1-.1.4h0a.35.35,0,0,0-.1.2v.2h0a1.27,1.27,0,0,1-.6.1h-.6l-.1-.1c0-.1-.1-.2-.1-.3h-.2a.35.35,0,0,1,.1.2h-.1a.1.1,0,0,0,.1.1h-.1v.1h-2.1c-.1,0-.2,0-.2.1a.76.76,0,0,0-.2.5h-.1a.1.1,0,0,1,.1.1v.5a.6.6,0,0,0,.1.4h.1c0,.1-.1.1-.1.2h0a.1.1,0,0,0,.1-.1v.1h0l.1-.1v.1l.1.1v.2a.1.1,0,0,0,.1.1l.1-.1a2.38,2.38,0,0,0,1.2.3h.5v-.1h.3V28h0v-.1h0c.1,0,.1,0,.2.1h.1v-.1c-.1-.1-.1-.1-.2-.1h1a3.08,3.08,0,0,0,1.3-.3,1.38,1.38,0,0,0,.4-.3h0a3.17,3.17,0,0,0,.7-2.3c.2-.2.3-.2.2-.4Zm-5.2,1.6h.1v.2h-.1v-.2Zm1.5.2v.3h0v-.1a.1.1,0,0,0-.1.1l-.1-.1v-.1h.1l.1-.1Zm2.8-8.7h0c0,.1-.1.1,0,0Zm.1.2h0l-.1.1h0a.1.1,0,0,0,.1-.1h0c-.1-.1-.1-.1-.1-.2h0v.1Zm-2.3.4Zm-2,2.7Zm0,0h-.1c0-.1,0-.1.1,0Zm-.2-.6a.1.1,0,0,0-.1.1l.1.1h-.2l.1.1c0,.1-.1.2-.1.3v-.3l.1-.1c0-.1,0-.2.1-.2s.1.1.2.2h0Zm0,.5Zm-.1-.1Zm.1.3c-.1,0-.1.1,0,0-.1.1-.1,0,0,0Zm0-.1Zm-.1.2Zm-.1-.1Zm.7-2.4h0c0-.1,0-.1.1-.2h.1l-.1.1-.1.1Zm.1-.6a.1.1,0,0,0-.1-.1h0a.1.1,0,0,1,.1.1Zm0-.1Zm.1.4h0c.1.1,0,.1,0,0Zm0-.4Zm-.5,1.6h-.1v-.1h.1v-.1h0Zm0,1.4Zm1.3-2.7h-.4a1.42,1.42,0,0,0-.2-.6c0,.1-.1.1-.1.2H163c0,.2,0,.3.1.4H163v.1h.1v.1c-.1.1-.1.2-.2.3l-.1-.1.2-.2-.2.2v-.2h0v.2h0v.1l-.1.1v-.1h-.1a.1.1,0,0,1,.1-.1h-.1l.1-.1h0l.1-.1v.1l.1-.1h0l.1-.1h-.1v.1l-.1-.1c0,.1-.1.1-.1.2h0v.1c-.1.1-.2.2-.3.2a.35.35,0,0,1,.1-.2l.1-.1v0h.2v-.1l-.1.1v-.1h-.1a.78.78,0,0,1,.4-.4c.1,0,.2-.1.3-.1a.37.37,0,0,0,.3-.1C163.7,17.7,163.9,17.9,163.9,18.2Zm-1.4,0Zm0-.1Zm0,.1Zm.3-.5Zm-.3,1.9h.1v.1h0v.1h-.5v-.3A.6.6,0,0,0,162.5,19.6Zm-.4.4h0l.1-.1c0,.1,0,.1-.1.1Zm0,.4v-.1h.1c0-.1.1-.1.1-.2h.3c-.1,0,0,.1,0,0v.1l-.1-.1.1.1v.3c-.1-.1-.2-.1-.2-.2h0s0-.1-.1,0-.1.1-.2.1Zm.4.7h0l-.1.1-.1.1h0a.1.1,0,0,1-.1.1h0v-.1a.1.1,0,0,1-.1.1h0l.1-.1h0v-.1h0c.2,0,.2-.1.3-.1h0c-.1-.2-.1-.2,0-.3.1.1.2.1.3.2s.2.3.3.5h-.3c-.2-.1-.3-.1-.4.1v-.1c.1-.1.1-.2.1-.4C162.6,21.1,162.6,21,162.5,21.1Zm2.1,1.1h0v-.1h-.1V22h.1v.2h0v.2h0v-.2h0a.1.1,0,0,0,.1-.1h0c0,.1,0,.1.1.2h-.1l-.1-.1a.19.19,0,0,1,0,.3h0v.1h0v.1h0v-.1h-.1v.1h0v-.1h-.1v.1h-.2a.64.64,0,0,0,0-.6.22.22,0,0,0-.2-.2h.1l.1.1h0l.1.1.1-.1c0,.1.1.1.2.2h0C164.5,22.2,164.6,22.3,164.6,22.2Zm.3.1h0v-.2a.37.37,0,0,1,.1.3.1.1,0,0,0-.1.1h.1v.2h-.2c.1-.1.1-.2.1-.4Zm.3.4h0c-.1-.1-.1-.1-.1-.2h.1Zm-.4-.5h0a.1.1,0,0,1-.1-.1h.1Zm-.8-.3a.52.52,0,0,1,.1.8h-.4a1.17,1.17,0,0,1-1.1-.5c0-.1.1-.1.1-.2a1.08,1.08,0,0,1,.8-.2.43.43,0,0,1,.2.7l-.1.1c.3,0,.5-.3.4-.7a1.22,1.22,0,0,0-1.3,0l-.2.2h0a.1.1,0,0,0-.1-.1l-.1-.1h0c0-.1.1-.1.2-.1a.6.6,0,0,1,.4-.1h0a.76.76,0,0,0,.4.1,4.33,4.33,0,0,0,.5.1A.14.14,0,0,1,164,21.9Zm1.3.8a1.27,1.27,0,0,0-.1-.6.1.1,0,0,0-.1-.1c0,.1.1.2.1.3v.1h-.1v-.3h0V22h0c-.1-.1-.1-.2-.2-.2h.5a1.09,1.09,0,0,1,.1.5c0,.1.1.3.1.4Zm.4.1v-.3h.1a.37.37,0,0,1-.1.3Zm.8,3.7Zm.1-.3Zm.1,0a.37.37,0,0,0-.3.1h.1l-.1.1h0v-.1a.1.1,0,0,0-.1.1h0l-.1.1v.1c.1.1.1,0,.1,0h0l-.1.1a.6.6,0,0,1-.4-.1c.1-.2.2-.3.3-.5.1,0,.1,0,.1-.1h.5C166.8,26.1,166.7,26.1,166.7,26.2Zm-.3.2Zm0-.5h.1a.1.1,0,0,0,.1.1h-.3l.1-.1h0l.1.1A.1.1,0,0,1,166.4,25.9Zm.4,0h0a.1.1,0,0,1-.1-.1h-.1v-.1h.1v.1A.1.1,0,0,0,166.8,25.9Zm0,.1h0Zm.1-.3a.3.3,0,0,0-.4,0h0v.1a.35.35,0,0,1-.2.1.6.6,0,0,0,.1-.4h0c0-.2.1-.3.1-.5v-.6h.2c.1.3.2.6.3,1v.1h0C166.9,25.6,166.9,25.6,166.9,25.7Zm.1-1v.5a2.61,2.61,0,0,0-.3-.8h.3Zm-.6.1Zm.4-1.5Zm0-.5Zm0,.3Zm-.5-1h0l.2.1h0v.2c0-.1.1-.1.1-.2.1.1.1.2.2.3v.1h0v.1h-.1a.1.1,0,0,0,.1.1h-.1a.1.1,0,0,0,.1.1h-.1l.1.1v.1h-.1a.1.1,0,0,0,.1.1h-.1l.1.1h0v.1h0a.1.1,0,0,0,.1.1v.1c.1.1.1.2.2.3V24l-.6-.9h0a.6.6,0,0,1,.1-.4.6.6,0,0,1,.1-.4c0,.1,0,.1-.1.2a1.09,1.09,0,0,0-.1.5h0v-.2C166.3,22.7,166.4,22.4,166.3,22.1Zm.1,2.4v0Zm-.5,2.1a.37.37,0,0,0,.3.1h-.1c-.1.1-.3.1-.5.2,0-.1.1-.1.1-.2S165.9,26.7,165.9,26.6Zm.4-4.6c0,.3-.1.7-.1,1v.1l-.2-.2h0v-.6h0v-.1h0v-.3C166.2,22,166.2,22,166.3,22Zm-.8-.2Zm-.9,0h0l.2.1h0v0a.1.1,0,0,0,.1.1h-.2a.31.31,0,0,0-.1-.2Zm.6-4.4h0v.1h0Zm0,.5v-.1h.2a.37.37,0,0,0,.3-.1h.2v.1c.1.1.3,0,.4,0v.1h-1.1a2,2,0,0,0,1.1,0c0,.1,0,.1-.1.2h-.1a.37.37,0,0,0-.3.1h-.1v.1h0c.1,0,.1.1.2.1h0l.1.1h-.3a3.17,3.17,0,0,1-.5-.6c.2.2.3.4.4.5h-.2l-.2-.2v-.1h-.1a.31.31,0,0,1,.1-.2c-.1.1-.1.1-.2.1v-.1Zm.3-.4h.3v.1h-.1v-.1h-.2Zm0-.1h.1c0,.1-.1.1-.1,0Zm.1.1Zm-.1.1Zm0,0Zm1.2.2h0v.1h0c-.1,0-.1,0,0-.1Zm-.1.2h0l-.1.1h0V18h0v.1h0l.1-.1-.1.1.1-.1Zm.1.1Zm-.1.1h0c-.1,0-.1.1,0,0h0c-.1,0-.1.1,0,0Zm-.1.1Zm0-.1Zm0,.1Zm.1-.4h0l-.1.1c0-.1,0-.1.1-.1Zm-.1.2Zm-.1.2Zm0,0Zm-1.3-.1Zm0,.1Zm.9-.1h0c-.1-.1,0-.1,0,0Zm.1,0Zm-1,0Zm-.1-.1Zm0,.1h0c-.1,0-.1,0-.1.1h0c0-.1.1-.1.1-.2Zm1.5.3h0c-.1-.1,0-.1,0,0Zm0,0h0v-.1h0v0h0v.1a.1.1,0,0,1,.1-.1h0v.1h0c0-.1,0-.1.1-.2h0a.35.35,0,0,1-.2.1h0a.1.1,0,0,1,.1-.1h0l.1-.1h.1v.1h0v.1h0v.1a.1.1,0,0,1-.1.1h0v0h0c-.1-.2-.1-.2-.2-.1h0c.1-.1.1,0,.1,0h-.1c.1,0,.1-.1,0,0h0l.1-.1-.1.1h0l.1-.1h-.1v.1Zm.2-.1Zm-.1.1Zm.2-.9Zm-.4-.1h-.1l-.1-.1h.1l.1.1Zm-.4-.1h.2a.1.1,0,0,0,.1.1h-.2c-.1,0-.1,0-.1-.1,0,.1-.1,0,0,0Zm-1.1,0h.2a.37.37,0,0,1-.1.3h0l-.1.1v.1h.1V18a.1.1,0,0,0-.1-.1h-.1l.1.1a.35.35,0,0,1-.1.2h-.2a1.14,1.14,0,0,0,.3-.8Zm-.1,0a.9.9,0,0,1-.1.5h0v-.1h0v-.2c0-.1,0-.1.1-.2h0c-.1.1-.1,0,0,0Zm-.3,0h0c0,.1-.1.3-.1.4h-.1l-.3.3h-.1a.67.67,0,0,0-.4-.7c.2,0,.4-.1.6-.1h.4Zm-1.2,9.2h0c-.1-.1-.1-.2-.1-.4,0,.1.1.2.1.4Zm-.1.4h0a.31.31,0,0,1,.2-.1v.2h0c-.1,0-.1-.1-.2-.1l.1.1h-.1c.1,0,.1,0,0-.1h0c-.1-.1-.1-.1-.1-.2h0a.31.31,0,0,0,.1.2Zm.2-.2Zm.4-.4Zm-.1-.1Zm-.6.6h0l-.1-.1h0v0h0l.1.1h0c0-.1,0-.1-.1-.1A.1.1,0,0,0,163.1,26.9Zm0,.2Zm0-.1Zm0-.7c0,.1-.1.1-.1.2v-.3l.1.1Zm-.2-.1v.4h0v0h0v-.2h-.1v.3h.1v.2c0,.1-.1.1-.1.2a1,1,0,0,1-.3-.1,2.35,2.35,0,0,0,.2-.8Zm0,.8h0l.1.1h-.1Zm1.2-.2h.2a.1.1,0,0,1,.1.1C164.3,26.9,164.2,26.8,164.1,26.8Zm-.1,0c.1,0,.1-.1,0,0l.1-.1C164.1,26.8,164.1,26.8,164,26.8Zm-.9-.6Zm-.8.7h0c0-.1,0-.1.1-.2h0v-.2h0v-.1h0v-.1h0v.2h0v.2c0-.1,0-.1.1-.2h.1c-.1.2-.1.3-.3.4Z"/><path class="cls-2" d="M210.4,24.9Z"/><path class="cls-2" d="M209.8,24h.3C210,23.9,209.8,24,209.8,24Z"/><path class="cls-2" d="M210.1,24.3c-.1.1,0,.1,0,0Z"/><path class="cls-2" d="M211,27.9h.2a.1.1,0,0,0,.1-.1h.1a.1.1,0,0,0,.1-.1h0v-.9h0V25.6h0v-.1h0a17.67,17.67,0,0,0-.3-2.1c-.1-.3-.1-.6-.2-.9h0v-.1l.1-.1h0c-.1-.1-.2-.1-.3-.2a13.57,13.57,0,0,0-1.4-4.1h0l-.1-.1c0-.1-.1-.1-.1-.2h0a.1.1,0,0,0-.1-.1h0l-.2-.2a1.93,1.93,0,0,0-1-.3,3,3,0,0,0-1,.2,5.2,5.2,0,0,0-1.4,2.4h-.1v.1c0,.1,0,.1-.1.2h0a1.27,1.27,0,0,0-.1.6c-.1.2-.1.4-.2.6v.1h0c0,.1,0,.1-.1.2h-.1l-.3,1.5c0,.2-.1.3-.1.5h0a36.38,36.38,0,0,0-.5,4.1h0v.1h0a.35.35,0,0,0,.2.1h.1a.1.1,0,0,1,.1.1h1.1c.1,0,.1,0,.2-.1h.1c.1,0,.1-.1.2-.1h0c.5-.4.6-2.3.6-2.3h.5v.1h.1v-.1h1.3c.1,0,.1.1.2.1h0v-.1h.6v.3h0a1.09,1.09,0,0,0,.1.5.1.1,0,0,0-.1.1h0v.2h0v.3h0v.1h0c.1,0,.1,0,.2-.1,0,.2.1.3.1.5h0v.1h.1c.1.1.1.2.2.3a.37.37,0,0,0,.1.3.1.1,0,0,0,.1-.1h0c-.1-.1-.1-.1-.1-.2h0a.37.37,0,0,0,.3.1h.6Zm-5.9-.6a4.33,4.33,0,0,1-.1-.5v-.1a1,1,0,0,0,.3-.1c-.2,0-.3,0-.4.1,0-.1-.1-.1-.1-.2h0c.1,0,.2-.1.3-.1-.2,0-.3,0-.4.1h0c0,.1.1.1.1.2h0c0,.1,0,.1.1.2a.52.52,0,0,1,.2.4h-.4v-.2l.1-.1v-.3h0a.9.9,0,0,1,.1-.5c.1,0,.1,0,.2.1v.1l.2.2c0,.1.1.1.1.2a.35.35,0,0,0,.1.2v.4C205.3,27.2,205.2,27.2,205.1,27.3Zm4.2-2.6h-.1c-.2-.1-.4-.2-.5,0v0h-.3a.9.9,0,0,1-.1-.5h1.2l-.1.1c-.1.1-.2.2-.1.4-.1-.3.3-.4.6-.3a.37.37,0,0,1,.2.5c0,.1-.1.1-.1.2V25a.19.19,0,0,0,0-.3c-.1-.1-.3-.2-.4-.1h0c-.1,0-.2.1-.1.2h-.2Zm-.6,0h0c.1-.1.2-.1.4,0Zm-1.2-.1c0-.2,0-.3.1-.4h.2v.5h-.2A.1.1,0,0,1,207.5,24.6Zm-2.4,1.3c-.1,0-.1-.1,0,0-.1-.1-.1-.1-.2-.1,0-.2.1-.3.2-.5v-.1c.2-.2.4-.3.5-.4a.1.1,0,0,0,.1-.1.22.22,0,0,1,.2.2v.2h0a.78.78,0,0,1-.4.4l-.1.1h.2l.3-.3h0v.2C205.6,25.6,205.4,25.8,205.1,25.9Zm.3-.1c0,.2,0,.3-.1.4-.1-.1-.2-.2-.2-.3S205.3,25.8,205.4,25.8Zm1.3-1.1h-.2a.35.35,0,0,0,.1-.2c-.1.1-.1.1-.2.1h0a.1.1,0,0,1-.1.1h-.4v0h.1c.1,0,.2-.1.3-.1h.1c0-.1.1-.1.1-.2v-.1s-.2,0-.2.1H206c-.2,0-.3.1-.5.2h0c-.1,0-.1.1-.2.2v-.1h0c-.1,0-.1.1-.2.1V25l-.2.2v-.3c0-.1.1-.1.1-.2v-.1l-.1.1v-.2c.1,0,.1,0,.1.1l.1-.1H205s.1,0,0-.1h-.3a2.92,2.92,0,0,1,.2-.9v-.1h0v-.1h0a.75.75,0,0,1,.5-.1v.1h.4s.1.1.1,0h.1l-.2.7h.6a1.8,1.8,0,0,0-1,.2c-.2,0-.2-.6.1-.8a.54.54,0,0,0-.3.9h0a2.92,2.92,0,0,1,.9-.2h.6a.44.44,0,0,1,0,.6Zm-1.4-1.4h0C205.2,23.4,205.2,23.3,205.3,23.3Zm.1-.8c.1,0,.2-.1.3-.2,0,.1,0,.2.1.2h.1c-.1,0-.1-.1-.2-.2.1,0,.1-.1.2-.2h0V22c.1,0,.1-.1.2-.1l.1-.1c0,.1.1.2.2.3-.1.1-.2.2-.3.2s-.1-.2-.2-.2.1.2.1.3h-.1c-.2.1-.3.1-.5.2h0Zm.2-.4h0V22h0v-.1h.1a.1.1,0,0,0-.1-.1.1.1,0,0,1,.1.1h0V22h0v-.1h0v0c-.1.1-.1.1-.1.2l.1-.1c-.1,0-.1,0-.1.1Zm1.1-3.4h0a4.35,4.35,0,0,0,.7-.4.66.66,0,0,1-.6.7h-.1l-.1-.1c0-.1,0-.1.1-.2Zm.5-.5h0c0,.1-.1.1-.2.1s-.1.1-.1.2v-.1h0l.1-.1h0C207.1,18.2,207.1,18.2,207.2,18.2Zm1.3-.4h0l.1.1h0V18h0c0-.1,0-.1-.1-.2Zm.4,1c0,.1-.1.1-.1.2.1-.1.1-.1.1-.2h0c0,.1,0,.1-.1.2h0a.37.37,0,0,1,.1-.3Zm0-.4Zm.3,3.5h-.1V22l.1-.1a.31.31,0,0,0-.1.2h0a.44.44,0,0,0,.1.3v.1l-.2-.7h.1Zm-.1-.6Zm0,.3Zm.5,3.1Zm0,0Zm.1-.5h0c-.1.1-.1.1-.2.1v-.1h0l.2-.2c-.1,0-.2,0-.2.1l-.2-.8-.1-.3v-.1a.1.1,0,0,1,.1-.1.52.52,0,0,1,.4-.2h.2s.1-.1,0-.1h.1c.1.1.2.1.2.2v.1c0,.2,0,.3-.1.4h0v.1l-.1.1h0a.37.37,0,0,1-.3.1s-.1.1,0,.1h.2v.1c.1,0,.1,0,.2-.1h.1a.1.1,0,0,0,.1-.1h0v.1h0c-.1.1-.3.2-.4.4h.1c0-.2.2-.3.3-.4v.2c-.2.1-.5.3-.4.4,0-.2.2-.3.4-.4v.3a.31.31,0,0,0-.2.1.1.1,0,0,1-.1.1h0s-.1.1,0,.1l-.1-.1c-.1-.1-.2-.2-.3-.2h.2c.1,0,.1,0,.1-.1C210,24.1,209.8,24.1,209.7,24.2Zm-.3-3.1c0,.1,0,.1.1.2h-.1a1.88,1.88,0,0,1-.2-.8h0c0-.1.1-.2.1-.3A2.77,2.77,0,0,0,209.4,21.1Zm.1-1.3Zm.9,3.4h0c-.1.1-.1.1-.1,0s.1-.2.1-.3Zm-.3-.9h0l-.2-.2V22h0l-.3-.3v-.1h0c0-.1,0-.1-.1-.2h0a1.47,1.47,0,0,0,.5.6l.1.1-.1.1Zm-.1.1h0c-.1,0-.1-.1,0,0C209.9,22.3,209.9,22.4,210,22.4Zm-.1-.1Zm-.1.2Zm0-.2Zm0,0Zm-.3-.1Zm-.2-.4h0v0Zm.8,1.7Zm.3,1.4h0a.1.1,0,0,1-.1-.1c0-.1,0-.2-.1-.2l.1-.1h0v.1h0v.1h.2a.1.1,0,0,0,.1-.1v.1C210.6,24.9,210.5,24.9,210.4,24.9Zm0,.3Zm0,.1Zm-.1-.4Zm-.1.6Zm.2-1.2Zm.2,0Zm0,.4Zm-.5,1.2h0c-.1.1,0,.1,0,0h0c.1.1.1.2.2.1s0-.1.1-.1v-.1c0-.1.1-.1,0-.1h0v.1c.1.1,0,.2-.1.3a.19.19,0,0,1-.3,0c.1-.1.1-.1.1-.2Zm0-.7h0a.1.1,0,0,1,.1.1h0C210.1,25.3,210.1,25.3,210.1,25.2Zm-.1.5h0v0Zm0-.3h0v-.1h0s.1,0,0,.1Zm-.2-.7v-.1h.1a.1.1,0,0,1,.1.1Zm0,0Zm.3,1.4h0a.6.6,0,0,0,.4-.1c.1-.1.2-.3,0-.4l.1-.1.1.1a.1.1,0,0,0-.1.1.38.38,0,0,1-.1.6.1.1,0,0,0-.1.1h-.3Zm.5-.6Zm.1.7h0c.1,0,.1.1,0,0Zm-.1-1.2h0v.5h0l-.1.1h-.1v-.2h0v-.1h0a.31.31,0,0,0,.1-.2.1.1,0,0,0,.1.1c0-.1,0-.2-.1-.2h.1c-.1-.1,0-.1,0-.1Zm-1-5c0-.1-.1-.1,0,0h0v-.1h0V20Zm-.1-.4h0c-.1-.1-.1-.2-.2-.3h0C209.4,19.4,209.4,19.5,209.5,19.6Zm-.3,1.9a.1.1,0,0,0,.1.1h-.1Zm-1.4,3.1h0v-.4h0v.4Zm-1.6-1.8h0c-.1-.2-.1-.2-.1-.3h0a.1.1,0,0,0,.1-.1,1.38,1.38,0,0,1,.4-.3v.3l-.1-.1c.1.1.1.1.1.2v.2l-.2.6v.1h-.1C206.3,23.2,206.2,23,206.2,22.8Zm-.1.5h0c0-.1,0-.1-.1-.2h.1a.1.1,0,0,0-.1-.1h.1v-.1h0v.4Zm-.1-.8Zm.2-.6c.1,0,.1-.1.2-.2v0c.1-.1.2-.1.2-.2l.2.2-.1.2h0v0h0V22h0v-.1s-.1-.1-.1,0V22l-.2-.2c.1.1.1.2.2.3h0a.1.1,0,0,0-.1.1h0Q206.35,21.9,206.2,21.9Zm-.3-1.3h0v.2h0v-.2Zm.1-.5Zm.7-.3Zm.1,0Zm-.1-.6h0v-.1h.1a.76.76,0,0,0,.7-.8c0,.2.1.3.1.5l-.2.8h0v-.1l-.1-.1h-.1c-.2-.1-.2-.2-.5-.2Zm.5-1h0l.1-.1h0l.1-.1h0v.1h0a1,1,0,0,1-.5.4c.1-.1.3-.2.3-.3Zm.1-.4c0,.1.1.1.1.2a.1.1,0,0,1-.1.1v-.3Zm1.4.5c0,.1.1.1.1.2v.2a.71.71,0,0,1-.3.6h-.1l-.4-1.7c.1,0,.4.1.5.1A1.42,1.42,0,0,0,208.7,18.3Zm0,.8Zm-.1.2Zm0,0h0c0,.1-.1.1,0,0Zm-1.3.4h0c0,.1-.1.1,0,0Zm-.1-.1Zm.1.1Zm-.4,1.6h0a.37.37,0,0,1,.1-.3Zm0,.1-.1.3a.35.35,0,0,0-.2-.1c.1-.2.1-.2.3-.2Zm1-1.1.8,3.2H207Zm.6-.9Zm-1.4.3Zm0,0Zm0-.1h0v0Zm0-.1Zm-.2.4h0l.1.1c.1,0,.1.1.2.1V20l-.1-.1h0l.1.1c0,.1,0,.1-.1.2,0-.1-.1-.2-.2-.3C206.9,20,207,20,206.9,19.9Zm.3.4a.44.44,0,0,1-.7.2,1,1,0,0,1-.2-.7A4.05,4.05,0,0,1,207.2,20.3Zm-.7.3a.64.64,0,0,0,.6,0l-.1.2c-.1.2-.2.3-.3.5v-.1c0,.1,0,.1-.1.2l-.2.2c-.1,0-.2.1-.3,0s-.1-.1-.2-.1a.45.45,0,0,0,.5,0v-.1c-.3.3-.5,0-.6-.3.1-.1.1-.2.2-.2v-.1h0c0-.1.1-.1.1-.2s.1-.1,0-.1.1-.2.1-.3A1.38,1.38,0,0,0,206.5,20.6Zm-.6-.1h0l.1-.3h.1c0,.1-.1.2-.2.3Zm-.1.3Zm-.1.4Zm.1.3h0a.35.35,0,0,1,.2.1.3.3,0,0,0,.4,0,2.18,2.18,0,0,1-.5.4v-.2h-.1a.22.22,0,0,0-.2-.2v-.4h0C205.7,21.3,205.7,21.4,205.8,21.5Zm3.3.2Zm-.1-.6v0Zm0,.7Zm0-.4h-.1c0-.1.1-.1.1-.2Zm-.1-.1-.3-1.2-.1-.2h.1V20h0v.1h0a.1.1,0,0,0,.1.1v.1h.1v.1l-.1.1-.1.1v.1a.1.1,0,0,0,.1-.1v.1h.1v0h0v.1h0c0,.1,0,.1.1.2S209,21.2,208.9,21.3Zm0-2.9c-.1-.1-.1-.2-.2-.3h0l.1.1h0a.35.35,0,0,1,.1.2Zm-1-.6a.35.35,0,0,0-.1-.2h.1Zm-.1.2-.2.6a1.42,1.42,0,0,0-.2-.6v-.1c0-.1-.1-.1-.1-.2s.2-.1.4-.1C207.7,17.7,207.8,17.9,207.8,18Zm-.6-.2Zm0,0Zm-.8,1.3h0c.1.2.2.3.2.4h0v.1h.1v-.1h-.1c-.1,0-.1,0-.1.1h0l-.1.1h.2s-.1,0,0,.1.1.1.2.1h0l.1.1c-.2-.1-.4-.1-.6-.2v-.2h0v-.1C206.3,19.3,206.4,19.2,206.4,19.1Zm.2.6Zm0,0Zm0,0Zm-.5.3h0v-.3h0A.19.19,0,0,1,206.1,20Zm-.1,2.6h0c-.1,0,0-.1,0,0Zm-.1.7Zm0-.7h0v.1c-.1,0-.1-.1,0-.1Zm.8,1.6h.4v.1A.76.76,0,0,1,206.7,24.2Zm1.2.4v-.4h.2a.9.9,0,0,0,.1.5h-.3Zm.4.1Zm1.2,0Zm0,0Zm.9,2.4h-.1V27c0-.1.1-.2.1-.3h-.1v.1h0l-.1-.2h.2c0,.2.2.3.4.2a.1.1,0,0,0,.1-.1v.2h0c-.1.1-.1.1-.2.1v.1c.1,0,.1,0,.2-.1v.2h-.2v-.1h0V27h-.1c-.1-.1-.1,0-.2.1h0c.1.1.1.1.2.1h-.2v-.1Zm-1.2-8.2h0c-.1,0-.1-.1,0,0Zm-2.5-.4h0c0,.1,0,.1-.1.1h0l.1-.1Zm-1.2,3.8Zm-.1.5c.2-.1.3-.1.4-.2,0,.1.1.2.1.4h0c0-.1,0-.1-.1-.2h-.1v.1a.35.35,0,0,0-.1.2h0v.1h.1a.37.37,0,0,0-.3.1h0a.35.35,0,0,1-.1-.2h0a.37.37,0,0,1,.1-.3Zm0,3.6a.1.1,0,0,0-.1-.1c.2,0,.4-.3.4-.5v-.1h.1l.1.1V26a.35.35,0,0,0-.1-.2.37.37,0,0,1,.1.3v.1a.35.35,0,0,0-.1-.2.37.37,0,0,1,.1.3,4.33,4.33,0,0,1-.1.5h0c-.1.1,0,.1,0,.2v.1A3.22,3.22,0,0,0,205.4,26.4Zm1.5-1.7c.1-.1.1-.2.2-.3v.3Zm.2-.3h0v-.2h.2c0,.1-.1.3-.1.4v.1H207A.37.37,0,0,0,207.1,24.4Z"/><path class="cls-1" d="M189.45,174.5a15,15,0,1,0,15,15A15,15,0,0,0,189.45,174.5Z"/><path class="cls-2" d="M196.45,191l-10.6,6.1a1.51,1.51,0,0,1-2.2-1.3V183.2a1.51,1.51,0,0,1,2.2-1.3l10.6,6.5A1.5,1.5,0,0,1,196.45,191Z"/></svg>