<svg xmlns="http://www.w3.org/2000/svg" viewBox="0 0 219.1 219"><defs><style>.cls-1{fill:#be1b2e;}.cls-2{fill:#fff;}</style></defs><title>moldura_memoriadoradio</title><g id="Camada_1" data-name="Camada 1"><path class="cls-1" d="M208.9,0H10.1A10.051,10.051,0,0,0,0,10V209a9.9875,9.9875,0,0,0,10.1,10H209a10.051,10.051,0,0,0,10.1-10V10.1A10.2221,10.2221,0,0,0,208.9,0ZM215,208.9a6.0176,6.0176,0,0,1-6,6H67L54,194.7a11.5258,11.5258,0,0,0-7-5l-43-10V10.1a6.0176,6.0176,0,0,1,6-6H124.3L143.5,34a16.4853,16.4853,0,0,0,9.9,7L215,55.3Z" transform="translate(0 0)"/><path class="cls-1" d="M189.4,174.5a15,15,0,1,0,15,15,14.98,14.98,0,0,0-15-15Z" transform="translate(0 0)"/></g><g id="play"><path class="cls-2" d="M196.4,191l-10.6,6.1a1.6154,1.6154,0,0,1-2.2-1.3V183.2a1.5605,1.5605,0,0,1,1.6-1.5,1.4213,1.4213,0,0,1,.6.2l10.6,6.5a1.4887,1.4887,0,0,1,.6,2A.9016.9016,0,0,1,196.4,191Z" transform="translate(0 0)"/></g><g id="Camada_6" data-name="Camada 6"><rect class="cls-2" x="199.618" y="12.2645" width="2.4348" height="1.8864"/><path class="cls-2" d="M165.0509,14.6942c-.0363,0-.0726,0-.1086.0013H164.94c-.0351.0008-.07.0022-.1051.004H164.83c-.0342.0018-.0685.004-.1025.0065l-.0065,0q-.05.0039-.1.0088l-.0083.0008c-.0327.0034-.0651.0071-.0975.0111l-.0105.0014c-.0317.004-.0634.0085-.0949.0133l-.0118.0017c-.0311.0048-.062.01-.0929.0154l-.013.0023c-.03.0054-.06.0111-.0905.0172l-.0149.003c-.029.006-.0577.0123-.0865.0189l-.0185.0042c-.028.0065-.0558.0133-.0836.02l-.02.0051c-.0268.007-.0536.0142-.08.0216l-.0231.0065q-.0385.0111-.0768.0229l-.0247.0076c-.0248.0077-.0493.0158-.0738.024l-.0273.0091-.07.0249-.0289.0105c-.0228.0083-.0455.0171-.0681.0259l-.03.0119-.0654.0266-.0325.0138-.0617.0269-.0347.0157-.0581.0271-.0371.0178-.0551.0275-.0388.02-.0527.0279-.04.0215-.05.0281-.04.0233-.0409.0242-.0492.03-.0261.0163-.0625.04-.0165.0107c-.0236.0157-.0471.0314-.0705.0474l-.01.0068c-.0254.0175-.0507.0353-.0756.0533l-.006.0043q-.0395.0287-.0782.0581l-.0012.0009a4.2617,4.2617,0,0,0-.001,6.7841l.0013.001c.0257.02.0519.039.0781.0581l.006.0044c.0249.018.05.0357.0755.0532l.01.0068c.0233.016.0469.0318.0705.0474l.0165.0109.0624.04.0261.0163.0492.03.041.0242.04.0234.05.0281.04.0215.0527.0279.0388.02.0551.0275.0371.0178.0581.0271.0346.0157.0618.0269.0325.0139.0653.0267.03.0118.0681.026.029.0105.07.0248.0273.0092.0738.024.0247.0076c.0256.0079.0511.0155.0768.0229l.0232.0065c.0266.0075.0532.0147.08.0217l.02.005c.0278.007.0556.0139.0836.02l.0185.0042c.0288.0065.0575.0128.0864.0189l.015.003c.03.0061.06.0119.09.0173l.013.0023c.0309.0054.0618.0106.0929.0154l.0117.0017c.0316.0048.0633.0093.095.0133l.0105.0014c.0323.0039.0648.0078.0975.0111l.0083.0008c.0332.0033.0666.0063.1.0089l.0066.0005c.034.0025.0682.0047.1024.0064l.0051,0c.035.0019.07.0032.1051.0041h.0019c.0361.0008.0724.0013.1087.0013a4.2408,4.2408,0,0,0,2.1307-.57l-.8744-1.515-.2351-.4075-.1077-.1865.0309-.0183a1.8268,1.8268,0,0,1-2.5937-.78l3.3.0005,1.8468,0h.692a4.2632,4.2632,0,0,0-4.188-5.045Zm-1.7227,3.6519a1.8267,1.8267,0,0,1,3.4442.0006Z" transform="translate(0 0)"/><path class="cls-2" d="M158.0579,28.5553a3.6236,3.6236,0,1,0-.0008,5.0712l0,.8892,2.0707,0,.0013-9.119-2.0706,0Zm0,2.5356a.5193.5193,0,0,1-.5178.5176h-.6061a1.553,1.553,0,1,1,0-1.0353h.6062a.5192.5192,0,0,1,.5176.5177Z" transform="translate(0 0)"/><path class="cls-2" d="M172.2834,22.8307l0-3.8505a1.8261,1.8261,0,1,1,3.6522,0l-.0006,3.8506v.1765l2.4349,0,.0006-4.0271a1.8261,1.8261,0,1,1,3.6521.0006l0,3.8506v.1765l2.4349,0,0-4.0271a4.2605,4.2605,0,0,0-7.3039-2.9827,4.2607,4.2607,0,0,0-7.3049,2.9806l0,4.0271,2.4348,0Z" transform="translate(0 0)"/><path class="cls-2" d="M164.979,26.1937c-.0364,0-.0725,0-.1086.0012l-.0018,0c-.0352.0008-.07.0022-.1052.0039l-.005,0c-.0343.0016-.0685.0038-.1026.0064l-.0065,0c-.0335.0025-.0668.0055-.1.0088l-.0085.0009c-.0326.0033-.065.007-.0974.0111l-.01.0013c-.0318.0041-.0634.0085-.095.0132l-.0118.0018c-.031.0047-.0619.01-.0929.0153l-.013.0023q-.0453.0083-.0905.0173l-.0149.003c-.0289.006-.0578.0123-.0865.0188l-.0185.0043c-.028.0065-.0558.0133-.0836.02l-.02.0051-.08.0216-.0232.0065c-.0256.0074-.0512.0151-.0767.0229l-.0248.0076q-.037.0117-.0738.024l-.0272.0091c-.0237.008-.0472.0164-.0706.0248l-.0289.0105-.0681.0259-.03.0119-.0653.0267-.0326.0137-.0617.027-.0345.0156-.0583.0272-.0371.0178-.0551.0274-.0387.02-.0528.0278-.0394.0215-.05.028-.04.0233-.0411.0242-.0491.03-.0261.0163-.0624.04-.0166.0108q-.0354.0233-.0705.0473l-.01.0067c-.0253.0176-.0506.0354-.0755.0533l-.006.0044q-.0395.0287-.0782.0581l-.0012.001a4.262,4.262,0,0,0-.001,6.784l.0012.001q.0388.03.0783.0581l.0059.0043c.0249.0181.05.0358.0755.0533l.01.0068c.0233.0161.0469.0318.0705.0474l.0165.0108c.0207.0135.0415.0267.0624.04l.0262.0163.0491.03.041.0243.04.0232.05.0282.04.0215.0527.0278.0387.02.0551.0274.0371.0178.0582.0272.0346.0156.0617.027.0325.0138.0654.0266.03.0119.0681.0259.0289.0106.0706.0248.0272.0092.0738.0239.0247.0077.0768.0229.0232.0065c.0266.0074.0533.0147.08.0217l.02.005c.0278.007.0556.0139.0836.02l.0185.0042c.0288.0066.0576.0128.0866.0188l.0148.0031c.03.006.06.0118.09.0172l.013.0024c.031.0054.0618.0106.0929.0153l.0117.0018q.0474.0072.0951.0133l.01.0013q.0486.0062.0974.0111l.0084.0008q.05.0051.1.009l.0064,0q.0511.0039.1026.0065l.005,0c.035.0018.07.0031.1053.0041h.0017q.0541.0014.1087.0014a4.2609,4.2609,0,0,0,.0012-8.5218Zm-.0009,6.0869a1.8267,1.8267,0,0,1-1.7219-1.2176h-.7127a.61.61,0,0,1-.6086-.6087h0a.61.61,0,0,1,.6088-.6086h.7127a1.8262,1.8262,0,1,1,1.7217,2.435Z" transform="translate(0 0)"/><path class="cls-2" d="M156.1582,14.7169a4.2473,4.2473,0,0,0-3.0436,1.2788,4.2606,4.2606,0,0,0-7.3049,2.9806l-.0006,4.0271,2.4348,0v-.1765l0-3.8506a1.8261,1.8261,0,1,1,3.6522,0l-.0006,3.8506v.1765l2.4348,0,.0006-4.0271a1.8261,1.8261,0,0,1,3.6522.0006l-.0006,3.8506v.1765l2.4349,0,0-4.0271A4.2608,4.2608,0,0,0,156.1582,14.7169Z" transform="translate(0 0)"/><rect class="cls-2" x="199.6172" y="14.933" width="2.4348" height="8.0544"/><rect class="cls-2" x="194.3217" y="26.4318" width="2.4348" height="8.0544"/><path class="cls-2" d="M184.2971,24.24l-1.2991,1.5051,2.2748,1.9634,1.2991-1.505a.1727.1727,0,0,0-.0179-.2436l-2.0134-1.7378A.1726.1726,0,0,0,184.2971,24.24Z" transform="translate(0 0)"/><rect class="cls-2" x="194.3225" y="23.7632" width="2.4348" height="1.8864"/><path class="cls-2" d="M195.0328,14.0581,193.02,12.32a.1727.1727,0,0,0-.2436.0179l-1.2991,1.5051,2.2747,1.9635,1.2992-1.5052A.1726.1726,0,0,0,195.0328,14.0581Z" transform="translate(0 0)"/><path class="cls-2" d="M210.439,14.9345l0,1.0456a4.261,4.261,0,1,0-.0009,5.9632v1.0455l2.4348,0,.0012-8.0543Zm-.0006,4.0272a.6105.6105,0,0,1-.6088.6086h-.7127a1.8261,1.8261,0,1,1,0-1.2174h.7127a.6105.6105,0,0,1,.6086.6088Z" transform="translate(0 0)"/><path class="cls-2" d="M201.97,26.199q-.0546,0-.1087.0014H201.86c-.0351.0009-.07.0023-.1052.0039l-.005,0c-.0343.0016-.0685.0038-.1026.0064l-.0065,0q-.05.0039-.1.0089l-.0083.0009c-.0326.0032-.065.007-.0974.0111l-.01.0012c-.0318.0041-.0634.0086-.095.0133l-.0117.0018c-.0311.0047-.062.01-.0929.0153l-.013.0024c-.03.0054-.06.0111-.09.0172l-.0149.003c-.029.0059-.0578.0123-.0865.0188l-.0186.0043c-.028.0065-.0557.0133-.0835.02l-.02.005-.08.0217-.0231.0065c-.0257.0073-.0513.015-.0768.0228l-.0248.0077c-.0247.0077-.0493.0158-.0738.024l-.0272.0091-.0706.0248-.0289.0105-.0681.0259-.03.0119-.0654.0267-.0325.0137-.0617.027-.0346.0156-.0583.0272-.037.0178-.0551.0274-.0388.02-.0527.0277-.04.0215-.05.0281-.04.0233-.041.0242-.0491.03-.0262.0163-.0624.04-.0165.0108c-.0236.0157-.0472.0313-.0705.0473l-.01.0068q-.0381.0264-.0755.0533l-.006.0044q-.0394.0286-.0783.0581l-.0012.001a4.2624,4.2624,0,0,0-.001,6.784l.0013.0009c.0258.02.0519.039.0782.0582l.0059.0043q.0375.027.0756.0533l.01.0068q.0349.024.07.0474l.0165.0108c.0206.0135.0414.0267.0624.04l.0261.0163.0491.03.041.0242.04.0232.05.0282.04.0215.0526.0277.0389.02.0551.0274.037.0179.0583.0272.0345.0156.0617.027.0326.0138.0653.0267.03.0118.0681.0259.0288.0105.0707.0249.0271.0091c.0246.0082.0492.0163.0739.024l.0247.0076c.0255.0079.0511.0156.0768.0229l.0231.0066c.0266.0074.0534.0147.08.0216l.02.005c.0277.0071.0555.014.0835.02l.0186.0043q.043.01.0865.0188l.0149.003c.03.0062.06.0119.09.0173l.013.0023c.0309.0055.0617.0107.0929.0155l.0117.0016c.0315.0049.0632.0093.095.0134l.01.0013q.0486.0062.0975.0111l.0083.0008c.0332.0034.0666.0063.1.009l.0065,0q.051.0037.1026.0065l.005,0c.035.0018.07.0031.1052.004h.0017q.0543.0014.1087.0014a4.261,4.261,0,0,0,.0013-8.5219Zm-.0009,6.087a1.8268,1.8268,0,0,1-1.7219-1.2176l-.7127,0a.61.61,0,0,1-.6087-.6087h0a.61.61,0,0,1,.6088-.6086h.7128a1.8262,1.8262,0,1,1,1.7217,2.435Z" transform="translate(0 0)"/><path class="cls-2" d="M198.58,14.723a4.261,4.261,0,0,0-4.2615,4.26l-.0006,4.0271,2.4349,0v-.1765l.0006-3.8506a1.8261,1.8261,0,0,1,1.8263-1.8259Z" transform="translate(0 0)"/><path class="cls-2" d="M176.2485,26.2192a4.261,4.261,0,0,0-4.2615,4.26l0,4.0271,2.4348,0v-.1765l.0006-3.8506a1.826,1.826,0,0,1,1.8263-1.8259Z" transform="translate(0 0)"/><path class="cls-2" d="M189.3776,14.6977q-.0546,0-.1087.0013h-.0018c-.0352.0009-.07.0023-.1052.004l-.005,0q-.0514.0025-.1026.0065l-.0065,0q-.05.0039-.1.0089l-.0085.0008c-.0325.0033-.065.0071-.0973.0111l-.0105.0013c-.0318.0041-.0634.0085-.095.0132l-.0118.0018c-.031.0048-.0619.01-.0928.0154l-.0131.0023c-.03.0054-.06.0112-.09.0173l-.0149.003c-.029.0059-.0578.0122-.0866.0188l-.0185.0042c-.028.0065-.0557.0134-.0836.02l-.02.005c-.0268.007-.0535.0143-.08.0216l-.0232.0066-.0767.0229-.0248.0075q-.037.0117-.0738.024l-.0272.0091-.0707.0249-.0288.0105-.0681.0259-.03.0119-.0653.0266-.0326.0138-.0617.027-.0345.0155-.0583.0273-.037.0177-.0552.0274-.0387.02-.0527.0278-.04.0215-.05.0281-.04.0232-.0411.0243-.0491.03-.0261.0163q-.0315.02-.0624.04l-.0166.0108c-.0236.0156-.0471.0313-.07.0473l-.01.0068q-.0381.0263-.0756.0533l-.0059.0043q-.0394.0287-.0783.0581l-.0012.001a4.2962,4.2962,0,0,0-.4649.41,4.26,4.26,0,0,0-.0009,5.9633,4.2957,4.2957,0,0,0,.4648.41l.0012.001q.0388.0294.0783.0581l.0059.0042c.0249.0181.05.0359.0755.0534l.01.0068q.0351.024.07.0473l.0165.0108q.031.02.0624.04l.0262.0164.0491.03.0411.0243.04.0232.05.0281.0395.0215.0527.0279.0387.02.0552.0273.037.0178.0583.0272.0345.0157.0617.0269.0325.0138.0654.0267.03.0119c.0226.0087.0453.0175.0681.0258l.0289.0107c.0235.0084.0469.0167.0707.0247l.0271.0092.0738.024.0248.0076c.0255.0079.0511.0156.0768.0229l.0231.0065q.04.0113.08.0217l.02.0051q.0416.0105.0835.02l.0186.0043q.043.01.0865.0188l.0149.003q.045.0092.09.0173l.0131.0024c.0309.0054.0617.0105.0928.0153l.0117.0017q.0474.0072.0951.0134l.0105.0012c.0323.0041.0648.0078.0973.0112l.0084.0008c.0332.0034.0666.0063.1.009l.0064,0c.0342.0026.0683.0048.1027.0066l.005,0c.035.0017.07.0031.1052.004h.0017c.0362.0009.0723.0013.1087.0013a4.2609,4.2609,0,0,0,.0013-8.5218Zm-.001,6.087a1.8268,1.8268,0,0,1-1.7219-1.2177h-.7127a.61.61,0,0,1-.6086-.6088h0a.61.61,0,0,1,.6088-.6085h.7127a1.8263,1.8263,0,1,1,1.7217,2.435Z" transform="translate(0 0)"/><path class="cls-2" d="M182.2727,28.5588a3.6236,3.6236,0,1,0-.0007,5.0713l0,.8891,2.0706,0,.001-6.8495-2.0706,0Zm0,2.5357a.519.519,0,0,1-.5177.5175h-.6061a1.5531,1.5531,0,1,1,0-1.0352h.6061a.5192.5192,0,0,1,.5176.5177Z" transform="translate(0 0)"/><path class="cls-2" d="M191.2158,28.56a3.6236,3.6236,0,1,0-.0007,5.0712v.8892l2.0706,0,.0013-9.1189-2.0707,0Zm0,2.5357a.5192.5192,0,0,1-.5178.5175h-.6061a1.553,1.553,0,1,1,0-1.0353l.6062,0a.5191.5191,0,0,1,.5176.5176Z" transform="translate(0 0)"/></g></svg>