<svg id="Camada_1" data-name="Camada 1" xmlns="http://www.w3.org/2000/svg" viewBox="0 0 219.1 219"><defs><style>.cls-1{fill:#be1b2e;}.cls-2{fill:#fff;}</style></defs><title>moldura_multicultura</title><path class="cls-1" d="M208.9,0H10.1A10.07,10.07,0,0,0,0,10.1V209a10.05,10.05,0,0,0,10.1,10H209a10.07,10.07,0,0,0,10.1-10.1V10.1A10.22,10.22,0,0,0,208.9,0ZM215,208.9a6,6,0,0,1-6,6H67L54,194.7a11.53,11.53,0,0,0-7-5l-43-10V10.1a6,6,0,0,1,6-6H124.3L143.5,34a16.49,16.49,0,0,0,9.9,7L215,55.3V208.9Z"/><path class="cls-2" d="M167.7,8.4V18.6h-2.5V14.1l-2.6,2.6L160,14.1l-2.5-2.5V8.4h.4l4.7,4.7,4.7-4.7Zm-10.1,4.3,2.5,2.5v3.3h-2.5Z"/><path class="cls-2" d="M171.7,12l-2.5-2.5V8.4h2.5Zm2.8,4,2,2-.3.1a4.48,4.48,0,0,1-2,.4,5.21,5.21,0,0,1-2.9-.9,5,5,0,0,1-2.2-4.2V10.6l2.5,2.5v.3a2.74,2.74,0,0,0,2.6,2.6Zm4.9-7.6v5.1a5.93,5.93,0,0,1-.5,2.3,3.91,3.91,0,0,1-1.4,1.7l-.1.1-1.8-1.8.2-.1a.78.78,0,0,0,.4-.4,2.5,2.5,0,0,0,.8-1.8V8.4Z"/><path class="cls-2" d="M183.8,16.1l2.5,2.4h-5.4V8.4h2.5V16l.4.1Zm4.1,0v2.5h-.5l-2.5-2.5Z"/><path class="cls-2" d="M197.9,8.4v2.5h-3.8v3.7l-2.5-2.5V10.9h-3.8V8.4Zm-6.3,4.9,2.5,2.5v2.7h-2.5Z"/><path class="cls-2" d="M201.9,8.4v3.8l-2.5-2.5V8.4Zm-2.5,2.4,2.5,2.5v5.2h-2.5Z"/><path class="cls-2" d="M169.1,26.2h2.7l-.1.3a6.7,6.7,0,0,1-1,2.1A5.52,5.52,0,0,1,169,30c-.1.1-.2.1-.4.2a4.77,4.77,0,0,1-2,.4,5.12,5.12,0,0,1-5.2-5.2,4.67,4.67,0,0,1,.3-1.7l.1-.3,2.2,2.2v.1a2.46,2.46,0,0,0,.8,1.7,3,3,0,0,0,1.7.8h.4a2.35,2.35,0,0,0,.8-.2.35.35,0,0,0,.2-.1,1.79,1.79,0,0,0,.7-.5,4.33,4.33,0,0,1,.5-1.2Zm-5-1.8-1.9-1.9.1-.1a5.26,5.26,0,0,1,4.3-2.2,5.29,5.29,0,0,1,5.1,4.1l.1.3h-2.7l-.1-.1a2.36,2.36,0,0,0-.6-.9,2.66,2.66,0,0,0-3.8,0,1.79,1.79,0,0,0-.5.7Z"/><path class="cls-2" d="M175.7,24l-2.5-2.5V20.3h2.5Zm2.8,3.9,2,2-.3.1a4.48,4.48,0,0,1-2,.4,5.21,5.21,0,0,1-2.9-.9,5,5,0,0,1-2.2-4.2V22.5l2.5,2.5v.3a2.74,2.74,0,0,0,2.6,2.6.19.19,0,0,0,.3,0Zm4.9-7.6v5.1a5.93,5.93,0,0,1-.5,2.3,3.91,3.91,0,0,1-1.4,1.7l-.1.1-1.8-1.8.2-.1a.78.78,0,0,0,.4-.4,2.5,2.5,0,0,0,.8-1.8V20.2h2.4Z"/><path class="cls-2" d="M187.8,28.1l2.5,2.5h-5.4V20.3h2.5V28l.4.1Zm4.1-.1v2.5h-.5L188.9,28Z"/><path class="cls-2" d="M201.9,20.3v2.6h-3.8v3.7l-2.5-2.5V22.9h-3.8V20.3Zm-6.3,5,2.5,2.5v2.7h-2.5Z"/><path class="cls-2" d="M174.6,35.6l-2.5-2.5V32h2.5Zm2.8,3.9,2,2-.3.1a4.48,4.48,0,0,1-2,.4,5.21,5.21,0,0,1-2.9-.9,5,5,0,0,1-2.2-4.2V34.1l2.5,2.5V37a2.74,2.74,0,0,0,2.6,2.6.37.37,0,0,1,.3-.1Zm4.9-7.6V37a5.93,5.93,0,0,1-.5,2.3,3.91,3.91,0,0,1-1.4,1.7l-.1.1-1.8-1.8.2-.1a.78.78,0,0,0,.4-.4,2.5,2.5,0,0,0,.8-1.8V31.9Z"/><path class="cls-2" d="M194.1,42.1h-3.9l-3.9-3.9h0l-2.5-2.5V32h6.8a1.27,1.27,0,0,1,.6.1,2.75,2.75,0,0,1,1.5.8,2.85,2.85,0,0,1,.8,1.4,1.7,1.7,0,0,1,.1.7v.3a3.12,3.12,0,0,1-.9,2.1,2.94,2.94,0,0,1-2.2.9h-.1Zm-10.3-5.3,2.5,2.5v2.8h-2.5Zm6.3-1.1h.3c.1,0,.2-.1.3-.2h0v-.1c0-.1.1-.2.1-.4h0v-.2h-4.4l1.2,1.2,2.5-.3Z"/><path class="cls-2" d="M199.3,35l1.5,2.4-2.9,4.7H195Zm8.3,7.1h-2.9l-.6-1-4.2-6.9,1.5-2.4Z"/><path class="cls-1" d="M189.45,174.5a15,15,0,1,0,15,15A15,15,0,0,0,189.45,174.5Z"/><path class="cls-2" d="M196.45,191l-10.6,6.1a1.51,1.51,0,0,1-2.2-1.3V183.2a1.51,1.51,0,0,1,2.2-1.3l10.6,6.5A1.5,1.5,0,0,1,196.45,191Z"/></svg>