<svg id="Camada_1" data-name="Camada 1" xmlns="http://www.w3.org/2000/svg" viewBox="0 0 219.1 219"><defs><style>.cls-1{fill:#be1b2e;}.cls-2,.cls-3{fill:#fff;}.cls-2{fill-rule:evenodd;}</style></defs><title>moldura_maiscaribe</title><path class="cls-1" d="M208.9,0H10.1A10.07,10.07,0,0,0,0,10.1V209a10.05,10.05,0,0,0,10.1,10H209a10.07,10.07,0,0,0,10.1-10.1V10.1A10.22,10.22,0,0,0,208.9,0ZM215,208.9a6,6,0,0,1-6,6H67L54,194.7a11.53,11.53,0,0,0-7-5l-43-10V10.1a6,6,0,0,1,6-6H124.3L143.5,34a16.49,16.49,0,0,0,9.9,7L215,55.3V208.9Z"/><path class="cls-2" d="M165.4,9.6a15.59,15.59,0,0,1,4.7,5.9,14.4,14.4,0,0,0-9.5,1.4Zm.2-.3c2.9.2,5.5,1.9,6,6a11.55,11.55,0,0,0,1.3-6.4L168,5.7Zm8.8.6a6.36,6.36,0,0,1-.9,5.4,8.91,8.91,0,0,0,3.6-3.6l-1.7-1.1a6,6,0,0,0-2.8-3.4,5.86,5.86,0,0,1,1.8,2.7Z"/><path class="cls-2" d="M170.5,17a1.27,1.27,0,0,1,.6.1,8.53,8.53,0,0,1-5.6,7.4,16.85,16.85,0,0,0,5-7.5Zm1.2,1a11.34,11.34,0,0,1,1.4,8.1,7.26,7.26,0,0,0-1.4-8.9,1.1,1.1,0,0,1,0,.8Zm1.8,0a9.08,9.08,0,0,1,4.9,5.9c.1-3.9-1.9-6-5.5-6.7a5.55,5.55,0,0,1,.6.8Z"/><path class="cls-2" d="M174.5,19.7a5.85,5.85,0,0,0-1-1.7,9.08,9.08,0,0,1,4.9,5.9,11.31,11.31,0,0,0-3.9-4.2Zm-3.2.6a12.46,12.46,0,0,1,1.9,5.9,11.34,11.34,0,0,0-1.4-8.1,14.19,14.19,0,0,1-.5,2.2Z"/><path class="cls-2" d="M170.2,16.8c-14-2.1-19,14.1-11.5,19.1,5.2,3.5,10.5.4,11.3-2.3a4.08,4.08,0,0,0-2.2-4.9,5.12,5.12,0,0,0-2.1,1,2.28,2.28,0,0,1,.6,4.3c-4.4,1.8-8.2-4-6.7-8.7a11,11,0,0,1,9.2-7.3,17.46,17.46,0,0,1-3.3,6.3,16.85,16.85,0,0,0,5-7.5Z"/><path class="cls-3" d="M183.3,18.4H181a2.65,2.65,0,0,1-1.4-.3c-.3-.2-.5-.4-.5-.5l-.3-.7a2.6,2.6,0,0,1-.3-.7.54.54,0,0,1,.3-.4,11.06,11.06,0,0,1,1.3-.4,22,22,0,0,1,3.7-.5c.3,0,.4,0,.5-.1l.1-.4a8.92,8.92,0,0,1,.2-1.1,8.11,8.11,0,0,1,.3-1.1,5.36,5.36,0,0,1,.5-1.1,3.22,3.22,0,0,1,.4-.7,1.46,1.46,0,0,1,.9-.6c.3,0,.4,0,.3.1s-.1.1,0,.1.1,0,.2-.1a.44.44,0,0,1,.3-.1.31.31,0,0,1,.1.2c0,.1-.1.4-.2,1a4.08,4.08,0,0,1-.2.7c-.1.4-.1.7-.2,1.1s-.1.7-.2,1a3.54,3.54,0,0,1-.1.6c0,.1,0,.2.1.2s.1-.1.2-.2.1-.4.2-.9c0-.2.1-.5.1-.9a2,2,0,0,1,.2-.9c0-.3.1-.5.1-.7v-.4a.37.37,0,0,1,.1-.3.35.35,0,0,1,.1-.2,1.24,1.24,0,0,1,.2.3c.1.2.2.3.2.5s.1.5.1,1a3.11,3.11,0,0,1-.1,1.1v.9c0,.4-.1.6,0,.6s.1.1.4.1a13.7,13.7,0,0,1,1.6.2c.7.1,1.2.3,1.7.4l1.5.6a2,2,0,0,1,.8.6.44.44,0,0,1-.1.5,1.75,1.75,0,0,0-.5.1,5.16,5.16,0,0,0-1.1.2,13.62,13.62,0,0,1-2,.4,14.93,14.93,0,0,0-1.7.2,4.54,4.54,0,0,0-1,.1,15.06,15.06,0,0,0-.1,2.8c0,.4.1.9.1,1.3v.9c0,.4-.1.7-.1,1.1s-.1.5-.1.5a.37.37,0,0,1-.3-.1c-.3,0-.6-.2-1-.6a4.18,4.18,0,0,1-1.1-1.8,23.35,23.35,0,0,1-.7-3.2l-.1-.7a.44.44,0,0,0-.3-.1C184.1,18.3,183.8,18.4,183.3,18.4Zm3.4-.1v1a11,11,0,0,0,.2,1.8c.1.6.2,1.3.3,1.8s.2.9.2,1.1l.1.2v-.9c0-.3-.1-.7-.1-1.1s-.1-.9-.2-1.4-.1-.9-.1-1.2v-.9c0-.1-.1-.3-.1-.4s0-.1-.1-.1S186.8,18.2,186.7,18.3Z"/><path class="cls-3" d="M179.1,32.2c.2.3-.5.8-.7,1.1.2,1,.6,2.6,0,3.1s-.8-.6-1.7-2.8c0-.2-2.4.2-3.6.3-.2,0-.5.5-.8.8-.7.9-2,2.9-2.6,2.5-.4-.2.1-1.1.3-1.8a22.68,22.68,0,0,1,1.7-3.1c.5-.9,2.5-3.8,2.6-3.9.2-.5,0-1.1.5-1.2s1.3.8,1.5,1.2a11.91,11.91,0,0,1,1.6,3.6C178.5,32,178.9,32,179.1,32.2Zm-2.8,0a7.34,7.34,0,0,0-.9-2.5c-.3,0-1.4,2.3-1.5,2.8Z"/><path class="cls-3" d="M182.1,28.6c.2-.1.4,0,.3.3-.3,2.9-1.4,4.4-1.8,7.4-.1.7-.9.7-.9-.2C179.8,33.3,179.7,29.8,182.1,28.6Zm1.3,6c-1.7-.9-.3-2.4.7-3.5s1.9-1.9,1.5-2.4c-.7-.9-5.4.3-5.3-.5.2-1.2,3.2-1,4.7-1s2.5.4,2.7,1.1c.4,1.1-3,3.6-3.3,4.6s1.2,1.6,1.9,1.9a3.79,3.79,0,0,1,2.2,2.3c.5,1.3-1,.3-1.5-.1A19.38,19.38,0,0,0,183.4,34.6Z"/><path class="cls-3" d="M191.6,29a8.58,8.58,0,0,1-.3,3.1c-.2,1.3-.6,2.8-.9,4-.1.4-.5,1.3-1,.9s-.2-3.2-.1-4.9c.1-1.2.8-4.4,1.4-4.4C191.4,27.9,191.4,28.5,191.6,29Z"/><path class="cls-3" d="M192.8,32.7c-.5-.4-.8-1.3-.1-1.7,1.8-.9,5.9-1,5.7-2-.4-.9-4.4-.5-4-2,.2-.7,4.6.4,5.7,1.5.4.4.8.9.2,1.6-.8.6-5.1.9-5.4,1.3-.4.8,2.3.7,3.8,1.2.6.2,1.6.6,1.4,1.3-.1.5-1.4,1.3-1.9,1.5-1.4.6-2.3,1.1-3.8,1.7a2.92,2.92,0,0,1-2.7.3.3.3,0,0,1,0-.4,13.93,13.93,0,0,1,3-1.6c1.2-.5,3.6-1.1,3.2-1.6C197.1,32.9,193.9,33.6,192.8,32.7Z"/><path class="cls-3" d="M205.7,36.4c-.5.2-1.5.5-2.1.7a3.35,3.35,0,0,1-2.5-.2,1.74,1.74,0,0,1-.5-2,2.48,2.48,0,0,1,1.6-1.4.63.63,0,0,1,.6,0c.2.2.1.4-.2.6-.5.4-.9.7-.8,1.1.2,1.2,2.3.4,3.1.1,1-.4,2.3-1,2.8-1.2,2.7-1.5,3-.6,1.8.3C209,34.7,206.5,36,205.7,36.4Zm-1-8.7c1.4-.2,5.1-.5,5.3-.1s-.5.6-1,.8a14.29,14.29,0,0,1-4.3.8,7,7,0,0,1-2.5,0c-.6-.2-1.2-.7-1.2-1S203.4,27.8,204.7,27.7Zm3.2,4a7,7,0,0,1-2.8.7,8.79,8.79,0,0,1-2.9-.5.75.75,0,0,1-.2-1c.4-.4.9-.1,1.6,0a14,14,0,0,0,3.2-.1,4.76,4.76,0,0,1,1.6-.1C208.6,30.8,208.6,31.3,207.9,31.7Z"/><path class="cls-3" d="M192.9,25.3h0c0-.2-.1-.3-.1-.4h0a2.09,2.09,0,0,0-.4-.6,1.73,1.73,0,0,0-1.7-.4h-.1a1,1,0,0,0-.4.5,1.18,1.18,0,0,0-.1,1,.87.87,0,0,0,.9.6.37.37,0,0,0,.3-.1c.1-.1.3-.2.3-.3a.3.3,0,0,0,0-.4c0-.1-.2-.2-.3-.2h-.1v.4a.1.1,0,0,1-.1.1l-.2.2h-.1c-.2,0-.3-.1-.4-.3a1.1,1.1,0,0,1,0-.8,1,1,0,0,1,.6-.5c.1,0,.3-.1.4-.1a.9.9,0,0,1,.5.1,1.06,1.06,0,0,1,.6.7,1.42,1.42,0,0,1-.1,1.1,1.21,1.21,0,0,1-.7.7.52.52,0,0,1-.4.2,3.4,3.4,0,0,1-1,.1,1.68,1.68,0,0,0,2.1-.3A1.23,1.23,0,0,0,192.9,25.3Z"/><path class="cls-3" d="M191.6,26.7a1.21,1.21,0,0,0,.7-.7,1.18,1.18,0,0,0,.1-1,1,1,0,0,0-.5-.6,1.1,1.1,0,0,0-.8,0,.82.82,0,0,0-.5.5.85.85,0,0,0,0,.7c.1.2.2.2.4.2s.2-.2.2-.4v-.2c0-.1.1-.1.2-.1a.56.56,0,0,1,.6.8.78.78,0,0,1-.4.4,1,1,0,0,1-1.3-.6,1.38,1.38,0,0,1,.1-1.1,1.34,1.34,0,0,1,.8-.7,3.4,3.4,0,0,1,1-.1,1.68,1.68,0,0,0-2.1.3,1.74,1.74,0,0,0-.5,1.5v.1h0a.37.37,0,0,0,.1.3h0a2.09,2.09,0,0,0,.4.6A1.79,1.79,0,0,0,191.6,26.7Z"/><path class="cls-1" d="M189.45,174.5a15,15,0,1,0,15,15A15,15,0,0,0,189.45,174.5Z"/><path class="cls-3" d="M196.45,191l-10.6,6.1a1.51,1.51,0,0,1-2.2-1.3V183.2a1.51,1.51,0,0,1,2.2-1.3l10.6,6.5A1.5,1.5,0,0,1,196.45,191Z"/></svg>