<svg id="Camada_1" data-name="Camada 1" xmlns="http://www.w3.org/2000/svg" viewBox="0 0 219.1 219"><defs><style>.cls-1{fill:#be1b2e;}.cls-2{fill:#fff;}</style></defs><title>moldura_rockcomdende</title><path class="cls-1" d="M208.9,0H10.1A10.07,10.07,0,0,0,0,10.1V209a10.05,10.05,0,0,0,10.1,10H209a10.07,10.07,0,0,0,10.1-10.1V10.1A10.22,10.22,0,0,0,208.9,0ZM215,208.9a6,6,0,0,1-6,6H67L54,194.7a11.53,11.53,0,0,0-7-5l-43-10V10.1a6,6,0,0,1,6-6H124.3L143.5,34a16.49,16.49,0,0,0,9.9,7L215,55.3V208.9Z"/><path class="cls-2" d="M173.2,38.5v.8a1.34,1.34,0,0,1-1.4,1.5c-.9,0-1.4-.5-1.4-1.5V36.2a1.34,1.34,0,0,1,1.4-1.5c.9,0,1.4.5,1.4,1.5v.6h-.9v-.6c0-.4-.2-.6-.5-.6s-.5.2-.5.6v3.2c0,.4.2.6.5.6s.5-.2.5-.6v-.8h.9Z"/><path class="cls-2" d="M174,36.2a1.34,1.34,0,0,1,1.4-1.5c.9,0,1.4.5,1.4,1.5v3.1a1.34,1.34,0,0,1-1.4,1.5c-.9,0-1.4-.5-1.4-1.5Zm.9,3.2c0,.4.2.6.5.6s.5-.2.5-.6V36.2c0-.4-.2-.6-.5-.6s-.5.2-.5.6Z"/><path class="cls-2" d="M179.6,39l.6-4.2h1.3v5.9h-.9V36.5l-.6,4.2h-.9l-.7-4.2v4.2h-.8V34.8h1.3Z"/><path class="cls-2" d="M184,34.8h1.5c.9,0,1.4.5,1.4,1.5v3a1.34,1.34,0,0,1-1.4,1.5H184Zm1,.8v4.2h.5c.3,0,.5-.2.5-.6V36.1c0-.4-.2-.6-.5-.6H185Z"/><path class="cls-2" d="M188.7,37.3H190v.8h-1.3v1.7h1.6v.8h-2.5V34.7h2.5v.8h-1.6Z"/><path class="cls-2" d="M191.9,36.4v4.3h-.8V34.8h1.2l1,3.5V34.8h.8v5.9h-1Z"/><path class="cls-2" d="M194.9,34.8h1.5c.9,0,1.4.5,1.4,1.5v3a1.34,1.34,0,0,1-1.4,1.5h-1.5Zm1,.8v4.2h.5c.3,0,.5-.2.5-.6V36.1c0-.4-.2-.6-.5-.6h-.5Z"/><path class="cls-2" d="M199.6,37.3h1.3v.8h-1.3v1.7h1.6v.8h-2.5V34.7h2.5v.8h-1.6Zm-.9-2.8.8-.9h.8l.8.9h-.8l-.4-.5-.4.5Z"/><path class="cls-2" d="M173.8,26.2c0-2.5-.6-4.2-2.5-5q2.4-1.2,2.4-4.8V14.5c0-3.6-1.6-5.4-5.5-5.4h-5.6V32.7h3.7V23.1h1.3c1.7,0,2.4.8,2.4,3v3.7a7.68,7.68,0,0,0,.3,2.9h3.8a6.59,6.59,0,0,1-.4-2.9V26.2Zm-3.7-9c0,1.9-.8,2.5-2.2,2.5h-1.4V12.5h1.8c1.3,0,1.9.7,1.9,2.4v2.3Z"/><path class="cls-2" d="M191.4,8.9c-3.6,0-5.5,2.2-5.5,5.9V27c0,3.8,1.9,5.9,5.5,5.9s5.5-2.2,5.5-5.9V23.9h-3.5v3.4c0,1.7-.7,2.3-1.9,2.3s-1.9-.6-1.9-2.3V14.6c0-1.7.7-2.3,1.9-2.3s1.9.6,1.9,2.3v2.5h3.5V14.8C196.9,11,195,8.9,191.4,8.9Z"/><polygon class="cls-2" points="209.7 9.1 206 9.1 201.2 19.4 201.2 9.1 197.5 9.1 197.5 32.7 201.2 32.7 201.2 25.5 202.3 23.3 205.9 32.7 209.7 32.7 204.6 19.6 209.7 9.1"/><path class="cls-2" d="M178.5,24.4l-2.9,1.4,6.3-16.6a6.45,6.45,0,0,0-2-.3c-3.6,0-5.6,2.2-5.6,5.9V27c0,2.9,1.1,4.8,3.3,5.5Z"/><path class="cls-2" d="M182.2,9.2l-1.7,10.6,2.8-1.2L178,32.7a5.84,5.84,0,0,0,1.9.2c3.6,0,5.6-2.2,5.6-5.9V14.8C185.5,11.9,184.3,10,182.2,9.2Z"/><path class="cls-1" d="M189.45,174.5a15,15,0,1,0,15,15A15,15,0,0,0,189.45,174.5Z"/><path class="cls-2" d="M196.45,191l-10.6,6.1a1.51,1.51,0,0,1-2.2-1.3V183.2a1.51,1.51,0,0,1,2.2-1.3l10.6,6.5A1.5,1.5,0,0,1,196.45,191Z"/></svg>