<?xml version="1.0" encoding="utf-8"?>
<!-- Generator: Adobe Illustrator 24.0.1, SVG Export Plug-In . SVG Version: 6.00 Build 0)  -->
<svg version="1.1" id="Camada_1" xmlns="http://www.w3.org/2000/svg" xmlns:xlink="http://www.w3.org/1999/xlink" x="0px" y="0px"
	 viewBox="0 0 219 219" style="enable-background:new 0 0 219 219;" xml:space="preserve">
<style type="text/css">
	.st0{fill:#BE1B2E;}
	.st1{fill:#FFFFFF;}
</style>
<path class="st0" d="M208.9,0H10.1C4.5,0,0,4.5,0,10.1V209c0,5.5,4.5,10,10.1,10H209c5.6,0,10.1-4.5,10.1-10.1V10.1
	C219,4.5,214.5,0,208.9,0z M215,208.9c0,3.3-2.7,6-6,6h-142l-13-20.2c-1.6-2.5-4.1-4.3-7-5L4,179.7V10.1c0-3.3,2.7-6,6-6h114.3
	l19.2,29.9c2.3,3.5,5.8,6,9.9,7L215,55.3L215,208.9L215,208.9z"/>
<g>
	<g>
		<path class="st1" d="M163.5,36.8c-0.7,0-1.3-0.2-1.9-0.6c-1.2-0.9-1.9-2.6-1.9-5.2c0-4-1.2-4.5-3.4-5.5c-1.1-0.5-2.3-1.1-3.6-2.2
			c-1.9-1.6-3-3.7-3-5.9c0-2.4,1.1-4.8,3.3-6.7c4.5-3.9,10.7-2.1,13.8,0.4c0.9,0.6,1.4,1.2,1.6,1.9l-1.2,0.4
			c-0.1-0.4-0.5-0.8-1.2-1.2c-2.7-2.2-8.3-3.8-12.2-0.4c-1.9,1.6-2.9,3.6-2.8,5.7c0,1.9,0.9,3.6,2.5,4.9c1.2,1,2.3,1.5,3.3,2
			c2.3,1.1,4.1,2,4.1,6.7c0.1,2.1,0.5,3.6,1.4,4.2c0.6,0.4,1.4,0.4,2.4,0.1c1.8-0.6,2.2-1.6,2.4-2.6l1.3,0.2c-0.3,1.9-1.3,3-3.3,3.6
			C164.6,36.7,164,36.8,163.5,36.8z"/>
	</g>
	<g>
		<path class="st1" d="M173.3,20.9h-1c-0.3-1-0.6-1.6-0.7-1.9c-0.2-0.4-0.4-0.6-0.6-0.8c-0.2-0.1-0.5-0.1-1-0.1c-0.3,0-0.5,0-0.8,0
			c0,1.1,0,2,0.1,2.8h-0.9c0.1-1,0.1-2.2,0.1-3.5c0-1.2,0-2.2-0.1-3.1h0.7c0.2,0,0.3,0,0.6,0c0.2,0,0.5,0,0.8,0
			c1.5,0,2.2,0.5,2.2,1.5c0,0.8-0.4,1.4-1.2,1.8v0.1c0.4,0.1,0.7,0.4,0.9,0.8C172.4,18.7,172.8,19.5,173.3,20.9z M171.7,16.1
			c0-0.8-0.5-1.2-1.6-1.2c-0.4,0-0.7,0-1,0.1c0,0.6,0,1.4,0,2.4c0.2,0,0.4,0,0.6,0C171,17.4,171.7,17,171.7,16.1z"/>
		<path class="st1" d="M180.2,20.9h-1.1c0-0.2-0.2-0.9-0.6-2.1h-2.9c-0.4,1.2-0.6,1.9-0.6,2.1h-1c0-0.1,0.4-1.2,1.3-3.2
			c0.9-2,1.3-3.2,1.3-3.4h1.2c0,0.2,0.4,1.3,1.2,3.3C179.8,19.6,180.2,20.7,180.2,20.9z M178.3,18.1c-0.8-2-1.2-3-1.2-3.2H177
			c0,0.1-0.4,1.2-1.2,3.2H178.3z"/>
		<path class="st1" d="M186.1,17.3c0,1-0.3,1.8-0.9,2.5c-0.6,0.7-1.5,1.1-2.5,1.1c-0.4,0-0.9,0-1.8-0.1c0.1-1,0.1-2.2,0.1-3.5
			c0-1.2,0-2.2-0.1-3.1h0.6c0.1,0,0.3,0,0.6,0c0.3,0,0.5,0,0.5,0c1.2,0,2.1,0.3,2.6,0.9C185.9,15.7,186.1,16.4,186.1,17.3z
			 M185.3,17.5c0-0.7-0.2-1.4-0.7-1.9c-0.5-0.5-1.2-0.8-2.2-0.8c-0.1,0-0.3,0-0.6,0.1c0,0.8,0,1.6,0,2.4c0,0.9,0,1.8,0.1,2.8
			c0.3,0.1,0.5,0.1,0.8,0.1c0.9,0,1.6-0.3,2-0.8C185.1,18.9,185.3,18.3,185.3,17.5z"/>
		<path class="st1" d="M188.3,20.9h-1c0.1-1.1,0.1-2.2,0.1-3.5c0-1.2,0-2.2-0.1-3.1h1c0,0.9-0.1,2-0.1,3.1
			C188.2,18.6,188.3,19.8,188.3,20.9z"/>
		<path class="st1" d="M195.7,17.5c0,1.1-0.3,2-1,2.6c-0.6,0.7-1.4,1-2.2,1c-0.8,0-1.5-0.3-2.1-0.9c-0.6-0.6-0.9-1.4-0.9-2.4
			c0-1.1,0.3-2,1-2.6c0.6-0.6,1.4-1,2.2-1c0.8,0,1.5,0.3,2.1,0.9C195.4,15.6,195.7,16.4,195.7,17.5z M194.8,17.6
			c0-0.9-0.2-1.5-0.7-2c-0.5-0.5-1-0.7-1.6-0.7c-0.6,0-1,0.3-1.5,0.8c-0.4,0.5-0.6,1.2-0.6,2c0,0.9,0.2,1.6,0.7,2
			c0.5,0.5,1,0.7,1.6,0.7c0.6,0,1-0.3,1.5-0.8C194.6,19.1,194.8,18.4,194.8,17.6z"/>
	</g>
	<g>
		<g>
			<line class="st1" x1="176.6" y1="13.6" x2="177.6" y2="13.6"/>
		</g>
		<g>
			<polygon class="st1" points="176.6,13.7 176.6,13.4 177.6,13.4 177.6,13.7 176.6,13.7 			"/>
		</g>
	</g>
	<g>
		<g>
			<path class="st1" d="M175.9,32h-1.4c0-0.3-0.3-1.3-0.9-2.9h-3.9c-0.6,1.6-0.8,2.6-0.8,2.9h-1.4c0-0.2,0.6-1.6,1.8-4.4
				c1.2-2.7,1.8-4.3,1.8-4.5h1.6c0,0.3,0.6,1.8,1.7,4.5C175.3,30.3,175.9,31.8,175.9,32z M173.3,28.2c-1.1-2.7-1.6-4.1-1.6-4.3h-0.1
				c0,0.1-0.6,1.6-1.7,4.3H173.3z"/>
			<path class="st1" d="M181.9,23.1l-0.1,1c-1.2-0.1-2.6-0.1-4.1-0.1c0.1,0.8,0.1,1.8,0.1,3.1c1.1,0,2.1,0,3.1-0.1v1
				c-1,0-2-0.1-3.1-0.1c0,1.8,0,3.1,0.1,4h-1.2c0.1-1.4,0.1-3,0.1-4.7c0-1.6,0-3-0.1-4.2H181.9z"/>
			<path class="st1" d="M189.7,32h-1.3c-0.4-1.3-0.8-2.2-1-2.6c-0.3-0.5-0.5-0.9-0.9-1c-0.3-0.1-0.7-0.2-1.4-0.2c-0.4,0-0.7,0-1,0
				c0,1.5,0,2.7,0.1,3.8H183c0.1-1.4,0.1-3,0.1-4.7c0-1.6,0-3-0.1-4.2h1c0.2,0,0.5,0,0.8,0c0.3,0,0.7,0,1.1,0c2,0,3,0.7,3,2.1
				c0,1.1-0.6,1.9-1.7,2.4v0.1c0.5,0.2,0.9,0.5,1.2,1C188.6,29.1,189,30.2,189.7,32z M187.6,25.6c0-1.1-0.7-1.6-2.2-1.6
				c-0.5,0-1,0-1.3,0.1c0,0.8,0,1.9,0,3.2c0.3,0,0.5,0,0.8,0C186.7,27.3,187.6,26.7,187.6,25.6z"/>
			<path class="st1" d="M192.2,32h-1.3c0.1-1.5,0.1-3,0.1-4.7c0-1.6,0-3-0.1-4.2h1.3c-0.1,1.2-0.1,2.7-0.1,4.2
				C192.1,29,192.1,30.5,192.2,32z"/>
			<path class="st1" d="M200.2,30.9l-0.1,1c-0.6,0.2-1.2,0.3-1.8,0.3c-1.6,0-2.7-0.4-3.5-1.3c-0.8-0.9-1.2-1.9-1.2-3.1
				c0-1.3,0.4-2.4,1.3-3.4c0.9-0.9,2.1-1.4,3.5-1.4c0.4,0,0.8,0.1,1.3,0.2l-0.2,1.1c-0.5-0.2-1-0.2-1.4-0.2c-1.1,0-1.9,0.3-2.5,1
				c-0.6,0.7-0.9,1.5-0.9,2.5c0,1,0.3,1.9,1,2.6c0.7,0.7,1.6,1.1,2.7,1.1C198.9,31.2,199.5,31.1,200.2,30.9z"/>
			<path class="st1" d="M209.7,32h-1.4c0-0.3-0.3-1.3-0.9-2.9h-3.9c-0.6,1.6-0.8,2.6-0.8,2.9h-1.4c0-0.2,0.6-1.6,1.8-4.4
				c1.2-2.7,1.8-4.3,1.8-4.5h1.6c0,0.3,0.6,1.8,1.7,4.5C209.2,30.3,209.7,31.8,209.7,32z M207.1,28.2c-1.1-2.7-1.6-4.1-1.6-4.3h-0.1
				c0,0.1-0.6,1.6-1.7,4.3H207.1z"/>
		</g>
	</g>
	<g>
		<g>
			<line class="st1" x1="170.9" y1="22.2" x2="172.4" y2="22.2"/>
		</g>
		<g>
			<polygon class="st1" points="170.9,22.3 170.9,22 172.4,22 172.4,22.3 170.9,22.3 			"/>
		</g>
	</g>
</g>
</svg>
