<?xml version="1.0" encoding="utf-8"?>
<!-- Generator: Adobe Illustrator 24.0.1, SVG Export Plug-In . SVG Version: 6.00 Build 0)  -->
<svg version="1.1" id="Camada_1" xmlns="http://www.w3.org/2000/svg" xmlns:xlink="http://www.w3.org/1999/xlink" x="0px" y="0px"
	 viewBox="0 0 219 219" style="enable-background:new 0 0 219 219;" xml:space="preserve">
<style type="text/css">
	.st0{fill:#BE1B2E;}
	.st1{fill:#FFFFFF;}
</style>
<path class="st0" d="M208.9,0H10.1C4.5,0,0,4.5,0,10.1V209c0,5.5,4.5,10,10.1,10H209c5.6,0,10.1-4.5,10.1-10.1V10.1
	C219,4.5,214.5,0,208.9,0z M215,208.9c0,3.3-2.7,6-6,6h-142l-13-20.2c-1.6-2.5-4.1-4.3-7-5L4,179.7V10.1c0-3.3,2.7-6,6-6h114.3
	l19.2,29.9c2.3,3.5,5.8,6,9.9,7L215,55.3L215,208.9L215,208.9z"/>
<g>
	<path class="st1" d="M195.8,16.8c-0.8-5.2-5.4-8.8-10.6-8.7c-2.6,0-5.2,1-7,2.8c-1.7,1.7-2.6,4-2.6,6.4c0,0.2,0,0.3,0,0.5
		c0.3,4.8,4.3,8.7,9.2,8.7c0.3,0,0.7,0,1-0.1l-1.3,2.1c5.6,0,11.5-4.6,11.5-10.2C195.9,17.8,195.9,17.3,195.8,16.8z M189.9,19.6
		C189.9,19.6,189.9,19.6,189.9,19.6c-0.1,0-0.1,0.1-0.2,0.2c0,0,0,0,0,0c-0.1,0.1-0.2,0.1-0.3,0.2c0,0-0.1,0-0.1,0.1
		c-0.1,0.1-0.2,0.1-0.2,0.2c0,0-0.1,0-0.1,0.1c-0.1,0.1-0.2,0.1-0.3,0.2c0,0-0.1,0-0.1,0.1c-0.1,0.1-0.2,0.1-0.3,0.2
		c0,0-0.1,0-0.1,0.1c-0.1,0.1-0.3,0.1-0.4,0.2c0,0,0,0,0,0c-0.2,0.1-0.3,0.2-0.5,0.3c0,0,0,0-0.1,0c-0.8,0.4-1.5,0.8-2.1,1
		c0,0-0.1,0-0.1,0c-0.1,0-0.2,0.1-0.2,0.1c0,0-0.1,0-0.1,0c-0.1,0-0.2,0-0.3,0.1c-0.1,0-0.1,0-0.1,0c0,0-0.1,0-0.1,0
		c0,0-0.1,0-0.1,0c0,0-0.1,0-0.1,0c0,0-0.1,0-0.1,0c0,0-0.1,0-0.1,0c0,0-0.1,0-0.1,0c-0.1,0-0.2,0-0.2,0c-0.8-0.2-1.2-1.1-1.1-1.9
		c0.2-1.1,1.1-2.1,1.1-3.1c0-1-0.9-2.1-1.1-3.1c0-0.1,0-0.2,0-0.3c0-0.5,0.2-1,0.6-1.3c0.2-0.1,0.3-0.2,0.5-0.3
		c0.6-0.2,1.5,0,2.6,0.5c0.1,0.1,0.3,0.1,0.4,0.2c0.5,0.2,0.9,0.5,1.5,0.8c0,0,0,0,0,0c0.1,0.1,0.3,0.2,0.4,0.2c0,0,0.1,0,0.1,0.1
		c0.1,0.1,0.2,0.1,0.3,0.2c0,0,0.1,0,0.1,0.1c0.1,0.1,0.2,0.1,0.3,0.2c0,0,0.1,0,0.1,0.1c0.1,0.1,0.2,0.1,0.2,0.2c0,0,0.1,0,0.1,0.1
		c0.1,0.1,0.2,0.1,0.3,0.2c0,0,0,0,0,0c0.1,0.1,0.1,0.1,0.2,0.2c0,0,0,0,0,0c1,0.8,1.5,1.4,1.4,2.1
		C191.3,18.1,190.9,18.8,189.9,19.6z"/>
	<path class="st1" d="M190.5,38.4c-0.3-0.1-0.6-0.1-0.9-0.2c-2.4-0.6-3.9-2.8-3.7-5.4c0.2-2.2,2.1-4.1,4.4-4.4
		c1.5-0.2,2.8,0.1,4.1,1c0.1,0.1,0.2,0.2,0.3,0.3c0.1,0.1,0.1,0.1,0.2,0.2c-0.5,0.9-1.1,1.7-1.6,2.5c-0.4-0.2-0.8-0.4-1.2-0.6
		c-1-0.3-1.9,0.1-2.2,1c-0.2,0.6-0.1,1.2,0.3,1.7c0.4,0.5,1,0.7,1.7,0.5c0.5-0.1,0.9-0.4,1.5-0.6c0.5,0.8,1,1.6,1.6,2.5
		c-0.1,0.1-0.3,0.2-0.4,0.3c-0.8,0.6-1.7,1-2.6,1.1c-0.1,0-0.2,0-0.3,0.1C191.2,38.4,190.9,38.4,190.5,38.4z"/>
	<path class="st1" d="M204.7,37.8c-1.2,0-2.3,0-3.4,0c-0.1,0-0.2,0-0.3,0c-0.1-0.4-0.2-0.7-0.2-1c0-0.2-0.1-0.2-0.3-0.2
		c-0.4,0-0.8,0-1.2,0c-0.2,0-0.3,0-0.3,0.2c0,0.3-0.1,0.6-0.2,0.9c0,0.1-0.1,0.2-0.2,0.2c-1.2,0-2.4,0-3.6,0
		c0.2-0.6,0.3-1.1,0.5-1.6c0.7-2.4,1.4-4.7,2.1-7.1c0.1-0.2,0.2-0.3,0.4-0.3c1.3,0,2.5,0,3.8,0c0.2,0,0.3,0,0.3,0.2
		c0.8,2.8,1.7,5.7,2.5,8.5C204.7,37.6,204.7,37.7,204.7,37.8z M200.4,34.5c-0.1-0.8-0.3-1.5-0.4-2.2c0,0,0,0-0.1,0
		c-0.1,0.7-0.3,1.4-0.4,2.2C199.7,34.5,200,34.5,200.4,34.5z"/>
	<path class="st1" d="M205.1,28.8c1.1,0,2.2,0,3.3,0c0,3,0,6,0,9c-1.1,0-2.2,0-3.3,0C205.1,34.8,205.1,31.8,205.1,28.8z"/>
	<path class="st1" d="M205.9,27.9c0.4-0.9,0.7-1.7,1.1-2.6c0-0.1,0.1-0.1,0.2-0.1c0.8,0,1.6,0,2.5,0c0,0.1,0,0.1-0.1,0.2
		c-0.5,0.8-1,1.6-1.6,2.3c-0.1,0.1-0.2,0.2-0.3,0.2C207.2,27.9,206.6,27.9,205.9,27.9z"/>
	<path class="st1" d="M183.7,29.6c-1.4-1.1-3.1-1.4-4.8-1.1c-2.4,0.4-4.1,2.4-4.1,4.7c-0.1,2.4,1.5,4.4,3.9,5c0.3,0.1,0.7,0.1,1,0.2
		c0.3,0,0.7,0,1,0c0.4-0.1,0.7-0.1,1.1-0.2c1.9-0.5,3.3-1.7,3.7-3.7C185.8,32.5,185.2,30.8,183.7,29.6z M182,33.8
		c-0.2,0.7-0.6,1.2-1.4,1.4c-0.1,0-0.3,0.1-0.4,0.1c-0.1,0-0.3,0-0.4,0c-0.1,0-0.2,0-0.4-0.1c-0.9-0.2-1.4-0.9-1.4-1.8
		c0-0.9,0.6-1.6,1.5-1.7c0.6-0.1,1.3,0,1.8,0.4C182,32.4,182.2,33.1,182,33.8z"/>
	<path class="st1" d="M174.4,28.8c0-0.1,0-0.2,0-0.3c-2.8,0-5.6,0-8.4,0c0.2,0.1,0.3,0.3,0.4,0.4l0,0c0.1,0.2,0.2,0.5,0.3,1
		c0,0.1,0,0.2,0.1,0.2c0,0,0.1,0,0.1,0c0.4-0.1,0.6-0.1,0.8-0.1c1.1,0,1.5,0.7,1.5,1.4c0,0.5-0.2,0.9-0.6,1.2
		c-0.2,0.1-0.3,0.2-0.5,0.3c0,0.2,0,0.5,0,0.7c0.7,0.2,1,0.8,1,1.3c0,0.7-0.4,1.1-0.6,1.2c-0.1,0.1-0.2,0.1-0.4,0.2
		c0,0.6,0,1.3,0,1.9c1.2,0,2.3,0,3.6,0c0-0.2,0-0.3,0-0.4c0-1.9,0-3.7,0-5.6c0-0.4,0-0.4,0.4-0.4c0.6,0,1.2,0,1.9,0
		c0.2,0,0.3-0.1,0.3-0.3C174.4,30.5,174.4,29.7,174.4,28.8z"/>
	<path class="st1" d="M168.6,34.9c0,0.3-0.1,0.5-0.3,0.7c-0.1,0.1-0.4,0.2-0.7,0.2c-0.2,0-0.4,0.1-0.7,0.2v0.6
		c0,0.9-0.4,1.4-1.2,1.4c-0.4,0-0.6-0.1-0.6-0.4c0-0.1,0-0.3,0-0.6c0-0.3,0-0.5,0-0.6c-0.5,0.1-1.1,0.1-1.6,0.2c0,0.1,0,0.3,0,0.5
		c-0.1,0.3-0.2,0.5-0.4,0.7c-0.2,0.2-0.4,0.2-0.7,0.2c-0.4,0-0.6-0.1-0.6-0.4c0-0.1,0-0.3,0-0.5c0-0.2,0-0.4,0-0.5
		c-0.6,0-1.1,0-1.3-0.1c-0.4-0.2-0.7-0.5-0.7-1c0-0.4,0.2-0.6,0.5-0.6c0.5,0,1,0,1.4,0c0,0-0.1-0.6-0.2-1.6c-0.5,0-0.9-0.1-1.1-0.2
		c-0.3-0.2-0.5-0.5-0.5-1c0-0.3,0.2-0.5,0.5-0.6c0.3,0,0.7,0,1,0c-0.1-0.7-0.2-1.2-0.2-1.5c0-0.6,0.2-0.9,0.7-0.9
		c0.3,0,0.6,0.1,0.7,0.3c0.1,0.1,0.2,0.4,0.2,0.7c0.1,0.3,0.2,0.7,0.3,1.2c0.4,0,0.9-0.1,1.6-0.1c-0.1-0.5-0.1-0.8-0.1-1.1
		c0-0.7,0.2-1,0.7-1c0.3,0,0.5,0.1,0.7,0.3c0.1,0.1,0.2,0.4,0.2,0.7c0,0.2,0.1,0.4,0.2,0.8c0.2,0,0.4,0,0.7-0.1
		c0.3-0.1,0.6-0.1,0.7-0.1c0.6,0,0.9,0.2,0.9,0.7c0,0.3-0.1,0.5-0.3,0.6c-0.2,0.2-0.5,0.2-0.7,0.2c-0.3,0.1-0.6,0.2-1,0.2
		c0,0.4,0.1,0.9,0.1,1.6c0.1,0,0.2,0,0.4,0c0.2,0,0.3,0,0.5,0C168.3,34.1,168.6,34.4,168.6,34.9z M164.9,34.4c0-0.3-0.1-0.8-0.1-1.5
		c-0.5,0.1-1,0.1-1.5,0.1c0.1,0.6,0.1,1.1,0.1,1.5C163.8,34.6,164.2,34.5,164.9,34.4z"/>
</g>
</svg>
