<?xml version="1.0" encoding="utf-8"?>
<!-- Generator: Adobe Illustrator 24.0.1, SVG Export Plug-In . SVG Version: 6.00 Build 0)  -->
<svg version="1.1" id="Camada_1" xmlns="http://www.w3.org/2000/svg" xmlns:xlink="http://www.w3.org/1999/xlink" x="0px" y="0px"
	 viewBox="0 0 219 219" style="enable-background:new 0 0 219 219;" xml:space="preserve">
<style type="text/css">
	.st0{fill:#BE1B2E;}
	.st1{fill:#FFFFFF;}
	.st2{fill-rule:evenodd;clip-rule:evenodd;fill:#FFFFFF;}
</style>
<path class="st0" d="M208.9,0H10.1C4.5,0,0,4.5,0,10.1V209c0,5.5,4.5,10,10.1,10H209c5.6,0,10.1-4.5,10.1-10.1V10.1
	C219,4.5,214.5,0,208.9,0z M215,208.9c0,3.3-2.7,6-6,6h-142l-13-20.2c-1.6-2.5-4.1-4.3-7-5L4,179.7V10.1c0-3.3,2.7-6,6-6h114.3
	l19.2,29.9c2.3,3.5,5.8,6,9.9,7L215,55.3L215,208.9L215,208.9z"/>
<g>
	<path class="st1" d="M156.5,33.3c-0.5,0-1.2-0.1-2.3-0.2l-0.6-0.1c-1.6-0.2-2.7-0.8-3.2-1.9c-0.3-0.6-0.5-1.1-0.5-1.7
		c0-0.6,0.2-1.2,0.6-1.9c0,0,0-0.1,0-0.1c0,0,0.1,0,0.1-0.1c0.1,0,0.1,0.1,0.2,0.1c0.1,0,0.1,0.1,0.2,0.2c0.2,0.3,0.3,0.6,0.3,0.9
		c0,0.2,0.1,0.4,0.1,0.6c0.1,0.2,0.2,0.4,0.3,0.5c0.1,0.2,0.2,0.3,0.3,0.5c0.2,0.4,0.7,0.7,1.6,0.9c0.4,0.1,0.7,0.1,0.9,0.1
		s0.4-0.1,0.5-0.2c0.1-0.1,0.2-0.3,0.4-0.6c0.2-0.5,0.4-0.9,0.4-1.4v-2c0-0.6-0.1-1.2-0.2-1.7c0-0.2-0.1-0.6-0.1-1
		c0-0.6-0.2-1.2-0.7-1.6c-0.6-0.6-1.5-1.1-2.6-1.4l-0.6-0.2c-0.7-0.3-1.2-0.7-1.7-1.2c-0.2-0.2-0.3-0.5-0.4-0.8
		c0-0.3-0.1-0.6-0.1-0.9c0-1.1,0.3-2.2,0.9-3.2c0.3-0.5,0.8-0.8,1.4-0.8c0.4,0,0.7,0,0.9,0c0.4-0.1,0.8-0.2,1.2-0.2
		c0.6,0,1.1,0.1,1.7,0.2c0.3,0,0.6,0.1,0.9,0.1c0.5,0,1,0.1,1.5,0.2l1,0.5c0.3,0.2,0.4,0.4,0.4,0.6l0,0.2c-0.2,0.3-0.4,0.6-0.7,0.9
		c-0.1,0.1-0.3,0.2-0.4,0.2c-0.2,0-0.3-0.1-0.5-0.2l-0.5-0.3c-0.6-0.4-1.3-0.6-2.1-0.6l-0.7,0c-0.3,0-0.4,0-0.5,0.1
		c-0.1,0.1-0.2,0.3-0.3,0.6c-0.6,1.3-0.8,2.1-0.8,2.5l0,0.3c0,0.5,0.3,0.8,0.9,1l2,0.9c0.8,0.4,1.5,0.8,2.1,1.4
		c0.4,0.4,0.7,0.9,0.8,1.4c0.4,1.9,0.6,3.3,0.6,4.1c0,0.6,0,1.1-0.1,1.7l0,0.4c-0.1,0.7-0.3,1.3-0.8,1.9
		C158,33,157.4,33.3,156.5,33.3z"/>
	<path class="st1" d="M169.7,32.4c-0.2,0-0.4-0.1-0.6-0.3c0-0.1-0.1-0.1-0.1-0.1c-0.8-0.4-1.2-1.1-1.2-1.9l0-0.5
		c0-0.1,0-0.1-0.1-0.2c-0.5,0.5-0.9,0.9-1.4,1.1s-0.9,0.5-1.5,0.7c-0.4,0.1-0.9,0.2-1.2,0.2c-0.9,0-1.7-0.3-2.4-1
		c-0.7-0.6-1-1.4-1-2.4c0.1-3.1,0.5-6.4,1.2-9.9l0-0.3c0.1-0.4,0.2-0.7,0.2-1c0.1-0.3,0.1-0.5,0.2-0.6c0.1-0.1,0.2-0.2,0.3-0.2
		c0.1,0,0.3-0.1,0.6-0.1c0.3,0,0.6,0,1.1-0.1l0.4,0l0.7,0l0.3,0c0.4,0,0.6,0.2,0.6,0.5c0,0.2,0,0.4,0,0.7l0,0.4
		c-0.5,2.8-0.8,5.6-1,8.4c0,0.3-0.1,0.6-0.1,0.8c-0.1,0.3-0.1,0.5-0.1,0.8c0,0.1,0,0.3,0,0.4c0,0.1,0,0.3,0,0.4c0,0.1,0,0.2,0.1,0.3
		c0,0.1,0.1,0.2,0.2,0.2c0.1,0,0.3-0.1,0.4-0.2c0.5-0.5,0.9-1,1.2-1.7c0.8-1.9,1.4-3.6,1.7-5.1c0-0.3,0.1-0.6,0.2-0.9
		c0.6-1.4,0.9-2.8,1-4.2c0-0.4,0.2-0.7,0.5-1c0.3-0.3,0.6-0.5,1-0.5l1.1-0.1c0.2,0,0.4,0,0.4,0.1c0.1,0.1,0.1,0.2,0.1,0.4
		c0,0.2,0,0.6-0.1,1c-0.1,0.9-0.2,1.7-0.3,2.6c-0.1,1.1-0.2,2.2-0.4,3.4c-0.1,0.7-0.1,1.3-0.2,2c0,0.3-0.1,1.9-0.2,4.7
		c-0.1,1-0.5,1.8-1.2,2.6C170.1,32.3,169.9,32.4,169.7,32.4z"/>
	<path class="st1" d="M187,33.3c-0.1,0-0.2,0-0.4,0c-0.1,0-0.2,0-0.3,0c-0.1,0-0.2,0-0.3,0H186c-0.2,0-0.3-0.2-0.5-0.5
		c-0.2-0.5-0.3-1-0.4-1.5c-0.2-0.9-0.4-1.8-0.7-2.7c-0.5-1.4-0.8-2.8-1-4.3c0-0.3-0.1-0.5-0.1-0.7c-0.1-0.2-0.2-0.8-0.5-1.6
		c0,0,0,0-0.1,0c0,0-0.1,0-0.1,0c0.1,1.8,0.1,3.4,0.1,4.9c0,1,0,1.9-0.1,2.7l-0.1,1.4c0,0.3-0.1,0.6-0.3,0.8
		c-0.1,0.1-0.2,0.3-0.2,0.4c-0.1,0.1-0.1,0.2-0.2,0.2c-0.3,0-0.5,0.1-0.7,0.3c-0.2,0.1-0.5,0.2-0.8,0.2c-0.3,0-0.6-0.2-0.8-0.5
		c-0.2-0.3-0.3-0.6-0.3-1c0-0.4,0-0.7-0.1-1.1c-0.1-0.7-0.2-1.2-0.2-1.5l0-0.4c0.1-0.5,0.1-1,0.1-1.4c0-0.5,0-1-0.1-1.4
		c0-0.2,0-0.5,0-0.7c0-0.8,0-1.7,0.1-2.5l0-0.7c0-0.3,0-0.6-0.1-1c-0.1-0.3-0.1-0.5-0.1-0.8c0-0.6,0.1-1.4,0.3-2.4l0.2-1.2
		c0.1-0.3,0.2-0.6,0.4-0.8c0.2-0.2,0.4-0.3,0.6-0.3h1.2c0.2,0,0.3,0.1,0.4,0.2c0.2,0.2,0.4,0.4,0.7,0.5l0.1,0c0.1,0,0.2,0.1,0.2,0.2
		c0.1,0.3,0.2,0.6,0.4,0.9c0.2,0.3,0.3,0.6,0.4,1c0.3,1,0.7,2,1.1,2.9c0.4,1,0.7,2.1,0.9,3.2c0.7,2.6,1,3.9,1.1,4.1
		c0,0.2,0.1,0.3,0.3,0.3c0,0,0,0,0.1,0c0,0,0-0.1,0-0.1c0.2-2.3,0.7-5.1,1.2-8.1l0.8-4.7c0.1-0.4,0.2-0.7,0.5-1
		c0.1-0.1,0.2-0.1,0.3-0.1c0,0,0.1,0,0.1,0c0.1,0,0.1,0.1,0.1,0.1c0,0.1,0.1,0.1,0.1,0.2l-0.1,1.1l-0.3,2.4
		c-0.2,1.4-0.4,2.7-0.5,4.1c-0.2,1.2-0.3,2.4-0.5,3.6l-0.3,2.1c-0.2,1-0.3,1.7-0.3,2.1v0.2c0,0.2,0,0.3,0,0.4c0,0.3,0,0.6,0,0.9
		c0,0.3,0,0.6,0,0.9c0,0.3-0.2,0.5-0.5,0.6C187.3,33.3,187.2,33.3,187,33.3z"/>
	<path class="st1" d="M177.5,20.3c0,0-0.3,1.6-0.3,1.6c0.1,1.8,0.1,3.4,0.1,4.9c0,1,0,1.9-0.1,2.7l-0.1,1.4c0,0.3-0.1,0.6-0.3,0.8
		c-0.1,0.1-0.2,0.3-0.2,0.4c-0.1,0.1-0.1,0.2-0.2,0.2c-0.3,0-0.5,0.1-0.7,0.3c-0.2,0.1-0.5,0.2-0.8,0.2c-0.3,0-0.6-0.2-0.8-0.5
		c-0.2-0.3-0.3-0.6-0.3-1c0-0.4,0-0.7-0.1-1.1c-0.1-0.7-0.2-1.2-0.2-1.5l0-0.4c0.1-0.5,0.1-1,0.1-1.4c0-0.5,0-1-0.1-1.4
		c0-0.2,0-0.5,0-0.7c0-0.8,0-1.7,0.1-2.5l0-0.7c0-0.3,0-0.6-0.1-1c-0.1-0.3-0.1-0.5-0.1-0.8c0-0.6,0.1-1.4,0.3-2.4l0.2-1.2
		c0.1-0.3,0.2-0.6,0.4-0.8c0.2-0.2,0.4-0.3,0.6-0.3h1.2c0.2,0,0.3,0.1,0.4,0.2c0.2,0.2,0.4,0.4,0.7,0.5l0.1,0c0.1,0,0.2,0.1,0.2,0.2
		c0.1,0.3,0.2,0.6,0.4,0.9C177.9,16.7,177.7,19.5,177.5,20.3z"/>
	<path class="st1" d="M194.5,33.1c-0.4,0-0.8-0.1-1.2-0.2c-1.4-0.6-2.3-1.6-2.7-3.1c-0.1-0.3-0.2-0.7-0.2-1c0-0.3,0-0.8,0-1.5
		c0-1,0-1.8,0-2.4c0-0.7,0.1-1.3,0.2-2l0.1-0.7c0.2-1.4,0.6-2.7,1.1-4l0.1-0.2c0.1-0.4,0.3-0.8,0.5-1.1c0.2-0.3,0.5-0.6,0.7-0.9
		c0.4-0.4,0.9-0.7,1.5-0.8c0.6-0.1,1.2-0.2,1.8-0.2l0.9-0.1c0.4,0,0.7,0.1,1,0.2c0.3,0.2,0.6,0.3,0.8,0.5c0.2,0.2,0.3,0.4,0.3,0.7
		c0,0.1,0,0.1,0,0.2c0,0.1,0,0.2-0.1,0.3c-0.1,0.1-0.2,0.2-0.4,0.3c-0.2,0.1-0.4,0.1-0.5,0.1c-0.3,0-0.5-0.1-0.7-0.3
		c-0.2-0.3-0.4-0.5-0.7-0.5c-0.3-0.1-0.6-0.1-0.9-0.1c-0.2,0-0.3,0.1-0.5,0.2c-0.4,0.4-0.7,0.8-0.9,1.2l-0.1,0.4
		c-0.2,0.5-0.4,0.9-0.5,1.5c-0.4,1.5-0.7,3.1-0.9,4.6l-0.1,0.7c-0.1,0.4-0.1,0.7-0.1,1.1l0,0.4l0,0.7c0,0.7,0.1,1.3,0.2,2
		c0.1,1,0.5,1.8,1.3,2.3c0.2,0.1,0.4,0.2,0.6,0.2c0.3,0,0.5-0.1,0.7-0.4c0.1-0.2,0.3-0.5,0.3-0.8c0.4-1.6,0.7-3.1,0.9-4.7l0-0.2
		c0-0.6-0.3-0.9-1-1h-0.8c-0.3,0-0.6,0-0.9-0.1c-0.2-0.1-0.3-0.2-0.3-0.4c0-0.2,0.1-0.5,0.2-0.7c0.1-0.1,0.2-0.2,0.3-0.2l0.9-0.1
		c0.6-0.1,1.1-0.1,1.7-0.1c0.7,0,1.1,0.1,1.2,0.2c0.1,0.1,0.2,0.6,0.2,1.3c0,0.8-0.3,2.6-0.9,5.5c-0.2,1.3-0.8,2.2-1.6,2.7
		C195.8,32.9,195.1,33.1,194.5,33.1z"/>
	<path class="st1" d="M207.9,34.1c-0.5,0-0.9-0.3-1-0.8l-0.4-1c-0.2-0.5-0.4-1-0.5-1.5c-0.2-0.5-0.2-1-0.2-1.6c0-0.2,0-0.3-0.1-0.5
		c0-0.1-0.1-0.2-0.1-0.3c0-0.3-0.2-0.4-0.5-0.4c-0.9,0-1.8,0.1-2.6,0.1c-0.2,0-0.4,0.1-0.4,0.3l-0.1,0.2c-0.2,0.4-0.3,0.8-0.4,1.1
		c-0.2,0.8-0.6,1.4-1.2,2c-0.2,0.3-0.5,0.5-0.8,0.5c-0.1,0-0.2,0-0.3,0c-0.1,0-0.2,0-0.4,0s-0.3-0.1-0.4-0.2
		c-0.1-0.1-0.2-0.2-0.2-0.3c0-0.1,0-0.2,0.1-0.3c0.1-0.1,0.1-0.2,0.1-0.3c0.2-0.6,0.4-1.2,0.7-1.8c0.4-0.7,0.6-1.5,0.8-2.3
		c0.2-1,0.5-2,0.8-2.9l0.4-1.2c0.4-1.4,0.9-2.7,1.5-3.9c0.6-1.2,1.2-2.4,1.7-3.6c0.3-0.7,0.8-1.1,1.5-1.2c0.2,0,0.5-0.1,0.7-0.1
		c0.2-0.1,0.4-0.1,0.7-0.1c0.6,0,0.9,0.5,1,1.6c0.1,1.2,0.2,2.4,0.3,3.6l0.1,1.7c0.1,1.4,0.3,2.8,0.5,4.1c0.1,0.6,0.1,1.2,0.1,1.8
		l0.1,1.6c-0.1,0.4-0.1,0.7-0.1,1.1c0,0.6,0,1.1,0.1,1.6c0.1,0.5,0.1,1,0.1,1.5C209.6,33.6,209.1,34.1,207.9,34.1z M202.7,26.7
		c0.3-0.1,0.6-0.1,1-0.1h0.6c0.3,0,0.5,0,0.8-0.1c0.3-0.1,0.4-0.2,0.4-0.5c0-0.8-0.1-1.7-0.2-2.5c-0.1-0.9-0.2-1.7-0.2-2.6v-0.4
		c0-0.1,0-0.1-0.1-0.1c0,0-0.1-0.1-0.1-0.1c0,0-0.1-0.1-0.1-0.1c0,0-0.1,0-0.1,0.1c0,0-0.1,0.1-0.1,0.1c0,0,0,0-0.1,0.1
		c0,0,0,0,0,0.1c-0.8,2-1.5,4-2,6.1c0,0.1,0,0.1,0,0.2C202.6,26.6,202.7,26.7,202.7,26.7z"/>
	<g>
		<path class="st2" d="M175.7,9.8c0.3,0.1,0.5,0.3,0.9,0.5c1.1,0.6,1.6,1.1,1.6,1.6c0,0.5-0.5,0.9-1.6,1.6c-0.8,0.5-1.6,0.8-2,0.7
			c-0.4-0.1-0.6-0.5-0.5-0.9c0.1-0.5,0.5-0.9,0.5-1.4s-0.4-0.9-0.5-1.4c-0.1-0.4,0.1-0.7,0.5-0.9C174.8,9.5,175.2,9.6,175.7,9.8"/>
	</g>
</g>
</svg>
