<?xml version="1.0" encoding="utf-8"?>
<!-- Generator: Adobe Illustrator 24.0.1, SVG Export Plug-In . SVG Version: 6.00 Build 0)  -->
<svg version="1.1" id="Camada_1" xmlns="http://www.w3.org/2000/svg" xmlns:xlink="http://www.w3.org/1999/xlink" x="0px" y="0px"
	 viewBox="0 0 219 219" style="enable-background:new 0 0 219 219;" xml:space="preserve">
<style type="text/css">
	.st0{fill:#BE1B2E;}
	.st1{fill:#FFFFFF;}
</style>
<path class="st0" d="M208.9,0H10.1C4.5,0,0,4.5,0,10.1V209c0,5.5,4.5,10,10.1,10H209c5.6,0,10.1-4.5,10.1-10.1V10.1
	C219,4.5,214.5,0,208.9,0z M215,208.9c0,3.3-2.7,6-6,6h-142l-13-20.2c-1.6-2.5-4.1-4.3-7-5L4,179.7V10.1c0-3.3,2.7-6,6-6h114.3
	l19.2,29.9c2.3,3.5,5.8,6,9.9,7L215,55.3L215,208.9L215,208.9z"/>
<path class="st1" d="M200,12.6C200,12.6,200,12.6,200,12.6C200.1,12.6,200.1,12.6,200,12.6C200.1,12.6,200,12.7,200,12.6
	c0.1,0.1,0.1,0,0.1,0c0,0,0,0,0,0c0,0,0,0,0,0c0,0,0.1,0,0,0c0,0,0,0,0.1,0c0,0,0,0,0,0c0,0,0.1,0,0.1,0.1c0,0,0,0.1,0,0.1
	c-0.1,0,0,0,0,0c0,0-0.1,0-0.1,0c0,0,0.1,0,0.1,0.1l0,0c0,0,0.1,0,0.1,0.1c0,0,0,0,0,0l0,0c0,0,0,0,0,0c0,0,0,0,0.1,0
	c0,0,0.2,0.1,0.2,0.1c0,0,0,0,0,0c-0.1,0-0.3-0.1-0.2-0.1c0,0,0.4,0.1,0.4,0.2c0,0,0.1,0,0,0c0,0,0,0,0,0c0,0,0,0,0,0l0,0
	c0.1,0,0.1,0.1,0.2,0.1c0,0-0.1,0-0.1,0l0,0c0,0,0,0,0,0c0,0,0.1,0,0.1,0.1c0,0,0,0,0,0c0,0,0,0,0,0c0,0,0,0,0,0c0,0,0,0,0,0
	c0,0,0.2,0.1,0.2,0.1c0,0,0,0,0,0c0.1,0,0.1,0.1,0.2,0.1c0,0,0,0,0,0l0.1,0c-0.1,0,0.1,0.1,0,0.1c0,0,0,0,0.1,0.1c0,0,0,0,0.1,0
	c0,0,0,0,0.1,0.1c0,0,0,0,0,0c0.1,0,0,0.1,0.1,0.1c0,0,0.1,0.1,0.1,0.1c0.1,0,0,0,0,0.1l0,0c-0.1-0.1-0.3-0.2-0.4-0.3
	c0.3,0.2,0.6,0.5,0.9,0.6c0,0,0,0.1,0.1,0.2c0.1,0.1,0.1,0.1,0.1,0.1c0.1,0,0.1,0.1,0.2,0.1c0,0,0.1,0.1,0.1,0.1l0.1,0.1l0,0
	c0,0,0,0,0.1,0.1c0.1,0.1,0.1,0.1,0.2,0.2l0.1,0.1l0,0c0,0,0,0,0,0l0-0.1c0.1-0.1,0.1-0.2,0.2-0.3c0,0,0.1-0.1,0.1-0.1
	c0,0,0,0,0-0.1l0-0.1c0.1-0.1,0.1-0.3,0.2-0.4c0-0.2,0.1-0.4,0.1-0.7c0-0.3,0-0.6-0.1-0.8c0,0,0-0.1,0-0.1c0,0.1,0,0.1,0,0.2
	c-0.1-0.2-0.2-0.4-0.3-0.5c0,0,0,0,0,0.1l0-0.1c-0.1-0.1-0.2-0.2-0.2-0.3c0,0,0-0.1-0.1-0.1l0,0c-0.2-0.2-0.4-0.3-0.5-0.4
	c0,0,0,0,0,0c-0.1,0-0.1-0.1-0.2-0.1c0,0-0.1-0.1,0-0.1c-0.1,0-0.1-0.1-0.2-0.1c-0.1,0-0.1,0-0.2-0.1c-0.2-0.1-0.5-0.1-0.8,0
	c-0.3,0-0.5,0.1-0.7,0.3l0,0c-0.2,0.1-0.3,0.2-0.4,0.3c-0.1,0.1-0.3,0.3-0.3,0.3c-0.1,0.1-0.1,0.1-0.2,0.2c0,0,0,0,0,0c0,0,0,0,0,0
	c-0.1,0-0.1,0-0.1,0c0,0,0,0,0,0l0,0C200.1,12.5,199.9,12.5,200,12.6z M200.2,12.5C200.2,12.5,200.2,12.5,200.2,12.5
	C200.2,12.5,200.2,12.5,200.2,12.5C200.2,12.5,200.2,12.5,200.2,12.5z M200.2,12.5C200.2,12.5,200.2,12.5,200.2,12.5
	C200.2,12.5,200.2,12.5,200.2,12.5C200.2,12.5,200.2,12.5,200.2,12.5C200.2,12.5,200.2,12.5,200.2,12.5z M200.1,12.5
	C200,12.5,200.1,12.5,200.1,12.5C200.1,12.5,200.1,12.5,200.1,12.5z M200,12.5C200,12.5,200,12.5,200,12.5
	C200,12.5,200,12.5,200,12.5C200,12.5,200.1,12.5,200,12.5c0.1,0,0.1,0,0.1,0C200.1,12.5,200.1,12.5,200,12.5
	C200.1,12.5,200.1,12.5,200,12.5C200.1,12.5,200.1,12.5,200,12.5C200.1,12.5,200.1,12.5,200,12.5L200,12.5
	C200,12.5,200,12.5,200,12.5z M208.6,22.2c0,0,0,0,0-0.1L208.6,22.2c0-0.3,0-0.6,0-0.8c0,0,0-0.1,0-0.1c0-0.1,0-0.1-0.1-0.2
	c0,0,0-0.2,0-0.1c0-0.1-0.1-0.1-0.1-0.2c0-0.1-0.1-0.1-0.1-0.2c-0.1-0.2-0.3-0.4-0.5-0.6c-0.2-0.2-0.4-0.3-0.7-0.4l0,0
	c-0.2-0.1-0.3-0.1-0.5-0.1c-0.2,0-0.4,0-0.4,0c-0.1,0-0.2,0-0.2,0c0,0,0,0,0,0c0,0,0,0,0,0c0-0.1-0.1-0.1-0.1-0.1c0,0,0,0,0,0l0,0
	c0,0.1-0.1-0.1-0.1,0.1c0-0.1,0,0,0,0c0,0,0,0,0,0c0,0,0,0,0,0c0,0,0,0,0,0c0,0-0.1,0-0.1,0c0,0,0.1,0,0.1,0c0,0,0,0,0,0
	c0,0,0,0,0,0c0,0,0,0.1,0,0.1c0,0,0,0,0,0.1c0,0,0,0,0,0c0,0,0,0.1,0,0.1c0,0,0,0.1,0,0c0-0.1,0,0,0-0.1c0,0,0-0.1,0-0.1
	c0,0,0,0.1,0,0.1l0,0c0,0,0,0.1,0,0.1c0,0,0,0,0,0l0,0c0,0,0,0,0,0c0,0,0,0,0,0.1c0,0,0.1,0.2,0.1,0.2c0,0,0,0,0,0
	c0-0.1-0.1-0.3-0.1-0.2c0,0,0.1,0.4,0.1,0.4c0,0,0,0.1,0,0c0,0,0,0,0,0c0,0,0,0,0,0l0,0c0,0.1,0,0.2,0.1,0.2c0,0,0,0-0.1-0.1l0,0
	c0,0,0,0,0,0c0,0,0,0.1,0,0.1c0,0,0,0,0,0c0,0,0,0,0,0c0,0,0,0,0,0c0,0,0,0,0,0c0,0,0.1,0.2,0.1,0.2c0,0,0,0,0,0c0,0.1,0,0.1,0,0.2
	c0,0,0,0,0,0l0,0.1c0,0,0,0.1,0,0.1c0,0,0,0.1,0,0.1c0,0,0,0,0,0c0,0.1,0,0,0,0.1c0,0,0,0,0,0c0,0.1,0,0.1,0,0.1c0,0,0,0.1,0,0.1
	c0,0.1,0,0.1,0,0.1l0,0c0-0.2,0-0.3-0.1-0.5c0,0.4,0,0.8,0.2,1.1c0,0-0.1,0.1-0.1,0.2c0,0.1,0,0.2,0,0.2c0,0.1,0,0.1,0,0.2
	c0,0.1,0,0.1,0,0.2l0,0.1l0,0c0,0,0,0.1,0,0.1c0,0.1,0,0.2,0,0.3l0,0.1l0,0c0,0,0,0,0,0l0.1,0c0.1,0,0.2,0,0.3-0.1
	c0.1,0,0.1,0,0.2,0c0,0,0.1,0,0.1,0l0.1,0c0.1,0,0.3-0.1,0.4-0.2c0.1-0.1,0.4-0.2,0.6-0.4c0.2-0.2,0.4-0.5,0.5-0.6
	c0,0,0-0.1,0.1-0.1c0,0.1,0,0.1-0.1,0.1c0.1-0.2,0.1-0.4,0.2-0.6c0,0,0,0-0.1,0.1l0-0.1C208.6,22.5,208.6,22.3,208.6,22.2z
	 M206,19.7C205.9,19.7,205.9,19.7,206,19.7C205.9,19.6,205.9,19.6,206,19.7L206,19.7C205.9,19.6,205.9,19.6,206,19.7
	C205.9,19.6,205.9,19.6,206,19.7C205.9,19.6,205.9,19.6,206,19.7C205.9,19.6,205.9,19.6,206,19.7C206,19.7,206,19.7,206,19.7
	C206,19.7,206,19.7,206,19.7C206,19.7,206,19.7,206,19.7z M206,19.7C206,19.7,206,19.7,206,19.7C206,19.7,206,19.7,206,19.7
	C206,19.7,206,19.7,206,19.7C206,19.7,206,19.7,206,19.7z M206,19.7C206,19.7,206,19.7,206,19.7C206,19.7,206,19.7,206,19.7
	C206,19.7,206,19.7,206,19.7z M203.7,16.4c-0.3-0.4-0.6-0.8-1-1.2c-0.2-0.2-0.4-0.4-0.6-0.5c-0.1-0.1-0.2-0.2-0.3-0.3
	c-0.1-0.1-0.2-0.2-0.3-0.2c-0.8-0.6-1.7-1.1-2.5-1.4c-0.2-0.1-0.4-0.2-0.5-0.2c-0.1,0-0.1-0.1-0.2-0.1c-0.1,0-0.2-0.1-0.2-0.1
	c-0.8-0.2-4.5-0.6-5.4-0.5c0,0,0.1,0,0.1,0c-0.2,0-0.5,0.1-0.7,0.1c-0.2,0-0.4,0.1-0.6,0.1c-0.2,0-0.4,0.1-0.6,0.2
	c-0.1,0-0.2,0.1-0.3,0.1c-0.1,0-0.2,0.1-0.3,0.1c0,0-0.1,0.1-0.2,0.1c0,0-0.1,0-0.3,0.1c-0.1,0-0.2,0.1-0.3,0.1
	c-0.1,0.1-0.2,0.1-0.3,0.2c-0.5,0.3-2.8,2-3.2,2.4c-0.1,0.1-0.2,0.2-0.3,0.3c-0.1,0.1-0.1,0.2-0.2,0.2c-0.1,0.1-0.2,0.2-0.2,0.3
	c-0.1,0.1,0.1,0.2,0,0.3c-0.1,0.5,0.4,0.9,0.4,0.9c0.2-0.2,1.5-1.5,2.6-1.9c0.6-0.2,1.1-0.6,1.4-0.8c0.2-0.1,0.4-0.2,0.7-0.3
	c-0.2,0.1-0.3,0.1-0.4,0.1c-0.1,0-0.2,0.1-0.4,0.2c0.9-0.5,1.7-0.9,2.6-1.1c-0.2,0-0.2,0-0.6,0c0.1,0,0.3-0.1,0.4-0.1
	c0.1-0.1,0.2-0.1,0.4-0.2c0.2,0,0.3-0.1,0.5-0.1c0.2,0,0.3-0.1,0.5-0.1c0.2,0,0.3,0,0.4-0.1c0,0,0,0,0.1,0.1c0.1,0,0.3,0,0.4,0
	l-0.1,0c0.6,0,1.2,0.1,1.8,0.1c0.6,0.1,1.2,0.2,1.7,0.4c0.1,0,0.2,0.1,0.3,0.2c0.2,0.1,0.3,0.1,0.5,0.2c0.2,0.1,0.3,0.1,0.5,0.2
	c-0.1,0,0.1,0.1,0.2,0.2c0.1,0.1,0.2,0.2,0,0.1c0.7,0.3,1.8,1,2.4,1.4c1,0.9,1.7,2,2.3,3.2c0.6,1.2,0.5,2.3,0.7,3.7l0-0.1
	c0,0.5,0.1,0.9,0.1,1.4c0,0.5,0,1-0.2,1.6c0,0.4-0.1,1-0.3,1.4c-0.1,0.2-0.1,0.4-0.2,0.6c0,0.2-0.1,0.3-0.1,0.4
	c-0.1,0.2-0.2,0.4-0.3,0.6c-0.1,0.2-0.2,0.4-0.2,0.5c-0.1,0.2-0.2,0.3-0.3,0.5c-0.1,0.2-0.2,0.4-0.4,0.6c0.1-0.1,0,0.1-0.1,0.3
	c0,0.1-0.1,0.2-0.1,0.2l0,0c0,0,0,0,0.1,0c0.5-0.5,0.5-0.6,0.9-1l0,0c0.8-1.1,1.4-2.4,1.8-3.8c0.4-1.4,0.5-2.8,0.4-4.2
	C205.6,20.8,204.3,17.1,203.7,16.4z M178.9,16.1c0.1-0.1,0.1-0.1,0-0.2c0,0,0-0.1,0-0.1c0-0.4-1-1.3-1.4-1.2c-0.2,0-0.4,0.2-0.3,0.4
	c0.1,0.3-0.1,0.5-0.2,0.8c-0.2,0.3-0.3,0.6-0.3,1l0,0c-0.1,0.1-0.2,0.2-0.3,0.4l0,0c0,0-0.1,0-0.1,0.1c0,0-0.1,0-0.1,0.1
	c-0.1,0.6-0.7,1-0.8,1.6c-0.1,0.2-0.2,0.4-0.3,0.5c-0.1,0.1-0.2,0.2-0.2,0.4c-0.1,0.2-0.2,0.3-0.3,0.5c0,0.1,0,0.1,0,0.2
	c0-0.1,0-0.1,0-0.2c-0.1,0.1-0.2,0.1-0.3,0.2c-0.1,0-0.2-0.1-0.3-0.2c0,0.1,0,0.1,0,0.2c0-0.1,0-0.1,0-0.2c-0.1-0.2-0.2-0.3-0.3-0.5
	c0-0.1-0.1-0.2-0.2-0.4c-0.1-0.2-0.2-0.4-0.3-0.5c-0.1-0.6-0.7-1-0.8-1.6c0,0,0-0.1-0.1-0.1c0,0,0-0.1-0.1-0.1l0,0
	c0-0.2-0.2-0.3-0.3-0.4l0,0c0.1-0.4-0.1-0.7-0.3-1c-0.2-0.3-0.3-0.5-0.2-0.8c0-0.2-0.1-0.4-0.3-0.4c-0.4-0.1-1.4,0.8-1.4,1.2
	c0,0,0,0.1,0,0.1c-0.1,0.1,0,0.2,0,0.2c0,0.5-0.1,1.1,0,1.6c0,0,0,0,0,0c0,0.3,0,0.7,0,1c-0.1,0.6,0,1.2,0.1,1.8c0,0.1,0,0.2,0,0.2
	c-0.2,0.3,0,0.6,0.1,0.9c-0.4,0.8,0,1.6,0,2.4c-0.4,0.4-0.2,1-0.2,1.4c0,1.1,0,2.3-0.1,3.4c0,0.6,0,1.2,0,1.7c0,0.3,0.1,0.4,0.4,0.3
	c0.4-0.1,0.8-0.2,1.1-0.3c0.2-0.1,0.2-0.2,0.2-0.4c0-0.4,0-0.8,0-1.1c0.2-1.2,0-2.3,0-3.5c0-0.3,0-0.7,0-1c0-0.2,0-0.3,0-0.5
	c0-0.8,0.1-1.6-0.1-2.4c0-0.1-0.1-0.1-0.1-0.2c0.2-0.5,0.1-0.9,0.1-1.4c0-0.3-0.1-0.7,0.2-1.1c0.5,1,0.8,2,1.2,3
	c0.2,0.7,0.3,1.4,1,1.9c0.1,0.1,0.3,0.1,0.5,0.1c0.2,0,0.4,0,0.5-0.1c0.7-0.5,0.8-1.2,1-1.9c0.2-0.7,0.5-1.4,0.7-2.1
	c0.1,0.2,0.1,0.4,0.1,0.6c-0.1,0.4,0.1,0.8,0.2,1.2c0,0.2,0.1,0.3,0.3,0.3c-0.1,0.7,0,1.4,0,2c0,0.2,0,0.3,0,0.5c0,0.3,0,0.7,0,1
	c0,1.2-0.2,2.3,0,3.5c0,0,0,0,0,0c0,0.4,0,0.8,0,1.1c0,0.2,0,0.3,0.2,0.4c0.4,0.1,0.8,0.2,1.1,0.3c0.3,0.1,0.4,0,0.4-0.3
	c0-0.6,0-1.2,0-1.7c0-1.1-0.1-2.3-0.1-3.4c0-0.5,0.3-1-0.2-1.4c0-0.8,0.4-1.6,0-2.4c0.1-0.3,0.3-0.6,0.1-0.9c0-0.1,0-0.2,0-0.2
	c0.1-0.6,0.2-1.2,0.1-1.8c0-0.3,0-0.7,0-1c0,0,0,0,0,0C179,17.2,178.9,16.6,178.9,16.1z M168.4,25.6c0.1-0.8,0.2-1.7,0.2-2.5
	c-0.1-1.2-0.1-2.4-0.2-3.6c0-0.5,0.1-1.1-0.2-1.5c0-1.1,0.1-2.4-1.3-2.9c0,0,0,0-0.1,0c-0.1-0.2-0.3-0.3-0.5-0.1
	c-0.2,0.1-0.2,0.3-0.1,0.5c0.3,0.4,0.1,0.6-0.1,1c-0.1,0.3-0.3,0.6-0.3,0.9c-0.1,0.3-0.1,0.7-0.3,1c-0.7,1-0.9,2.1-1.3,3.1
	c-0.5,1.3-0.7,2.7-1.2,4l-0.5,1.8c-0.2,0-0.4-0.1-0.4,0.2c0,0.5-0.2,0.9-0.3,1.3c-0.4,1-0.2,1.2,0.8,1.6c0.4,0.2,0.6,0.1,0.7-0.3
	c0.2-0.7,0.5-1.3,0.5-2c0-0.4,0.2-0.5,0.5-0.5c0.9,0,1.8-0.1,2.6,0c0,0.8-0.2,1.7,0.9,2.1c0.2,0.1,0.3,0.3,0.6,0.1
	c0.2-0.1,0.2-0.4,0.2-0.6C168.3,28,168.5,26.8,168.4,25.6z M165.9,27.3C165.9,27.3,165.9,27.2,165.9,27.3
	C166,27.2,166,27.2,165.9,27.3C165.9,27.2,165.9,27.3,165.9,27.3z M167,22.2c0,0.6,0,1.1,0,1.7c-0.2,0.4-0.1,0.9-0.1,1.4
	c0,0.3,0,0.6-0.1,0.8c-0.7,0-1.4,0-2.2,0c-0.3,0-0.4-0.2-0.4-0.5c0-0.2,0-0.5,0-0.7c0,0,0,0,0-0.1c0,0,0,0,0,0.1
	c0.1-0.5,0.3-1,0.8-1.4c0.2-0.2,0.2-0.8,0.4-1.3c0.1-0.4,0.3-0.8,0.5-1.1c0,0,0-0.1,0-0.1c0,0,0,0.1,0,0.1c0.5,0,0.3-0.3,0.3-0.6
	c0-0.1,0-0.2,0-0.2c0,0,0,0,0,0c0,0,0,0,0,0c0.3-0.2,0.3-0.7,0.7-1C166.9,20.4,167,21.3,167,22.2c0.1,0,0.1-0.1,0.2-0.1
	C167.2,22.1,167.1,22.2,167,22.2z M199.5,27.4c0.1-0.8,0.2-1.6,0.1-2.3c-0.1-1.1-0.1-2.2-0.2-3.3c0-0.5,0.1-1-0.2-1.4
	c0-1.1,0.1-2.2-1.2-2.7c0,0,0,0,0,0c-0.1-0.2-0.2-0.2-0.4-0.1c-0.2,0.1-0.2,0.3-0.1,0.4c0.3,0.3,0.1,0.6-0.1,0.9
	c-0.1,0.3-0.3,0.5-0.3,0.8c-0.1,0.3-0.1,0.7-0.3,0.9c-0.6,0.9-0.8,1.9-1.2,2.9c-0.5,1.2-0.6,2.5-1.1,3.8c-0.2,0.6-0.6,0.8-1.1,0.7
	c-1.2-0.1-2.4,0-3.6,0.1c-0.6,0.1-1.3,0.3-1.9-0.1c-0.1-0.1-0.3,0-0.4,0c-0.8,0.4-1.7,0.2-2.5,0.2c-1,0.1-2.1-0.1-3.2-0.2
	c-0.1,0-0.3-0.1-0.4-0.1c-0.1-0.2-0.3-0.1-0.5-0.1c-0.3,0-0.6-0.2-0.7,0.2c-0.1,0.4-0.2,0.8-0.2,1.2c0,0.3,0.1,0.5,0.4,0.4
	c1.3-0.2,2.7,0.2,3.9-0.6c0.9-0.4,1.8-0.2,2.7-0.1c0.4,0,0.7,0.2,1.1,0c0.1-0.1,0.3,0,0.5,0c0.3,0.1,0.6,0.1,0.9,0.1
	c1.3-0.3,2.6,0,3.9-0.2c0,0.1,0.1,0.1,0.1,0c0,0,0.1,0,0.1,0c0,0,0.1,0,0.1,0c0.1,0,0.3,0,0.2,0.3c-0.1,0-0.4-0.1-0.4,0.2
	c0,0.4-0.2,0.8-0.3,1.2c-0.3,0.9-0.2,1.1,0.7,1.5c0.4,0.1,0.6,0.1,0.7-0.3c0.2-0.6,0.5-1.2,0.5-1.9c0-0.3,0.1-0.5,0.5-0.5
	c0.8,0,1.6-0.1,2.4,0c0,0.8-0.2,1.6,0.8,1.9c0.2,0.1,0.3,0.2,0.5,0.1c0.2-0.1,0.2-0.3,0.1-0.5C199.4,29.6,199.6,28.5,199.5,27.4z
	 M197.2,28.9C197.2,28.9,197.2,28.9,197.2,28.9C197.2,28.9,197.2,28.9,197.2,28.9C197.2,28.9,197.2,28.9,197.2,28.9z M198.2,24.3
	c0,0.5,0,1.1,0,1.6c-0.2,0.4-0.1,0.8-0.1,1.3c0,0.3,0,0.5-0.1,0.8c-0.7,0-1.3,0-2,0c-0.3,0-0.4-0.2-0.4-0.4c0-0.2,0-0.4,0-0.7
	c0,0,0,0,0-0.1c0,0,0,0,0,0.1c0.1-0.5,0.2-0.9,0.7-1.3c0.2-0.1,0.2-0.8,0.4-1.2c0.1-0.3,0.3-0.7,0.4-1.1c0-0.1,0-0.1,0-0.2
	c0,0,0,0.1,0,0.2c0.4,0,0.3-0.3,0.2-0.5c0-0.1,0-0.1,0-0.2c0.3-0.2,0.2-0.7,0.7-0.9C198.1,22.5,198.2,23.4,198.2,24.3
	c0.1,0,0.1-0.1,0.2-0.1C198.3,24.2,198.3,24.2,198.2,24.3z M181.1,19.6c0,0.1,0,0.3-0.1,0.4c0,0,0,0,0,0c0,0,0,0,0,0.1
	c0,1.2-0.1,2.4-0.1,3.6c0,0.6-0.3,1.2,0.5,1.6c0.2,0.1,0,0.2-0.1,0.3c-0.4,0.6-0.4,0.8,0.3,0.8c0.9,0.1,1.8,0.1,2.7,0.3
	c0.3,0,0.5-0.2,0.8-0.2c1.4-0.1,2.9,0.3,4.2-0.5c0.1-0.1,0.3,0,0.4,0c0.5,0.1,0.9,0,1.4,0c0.7,0.1,1.3-0.1,1.9-0.5
	c0.4-0.2,0.7-1.4,0.5-1.8c-0.3-0.5-0.7-1-1.3-1.1c-0.8-0.2-1.5-0.4-2.2-0.7c-0.1,0-0.2-0.1-0.3-0.1c0,0,0,0,0,0c0-0.1,0-0.1-0.1-0.1
	c0.2,0,0.3-0.1,0.5-0.1l0.1,0l0.1,0c0.4,0.4,0.8-0.1,1.3,0c0.6,0.2,1.1-0.1,1.6-0.3c0.3-0.1,0.1-0.6,0.1-0.9c0-0.1,0-0.2,0-0.3
	c0.3-0.2,0.2-0.5,0-0.7c-0.1,0-0.2-0.1-0.2-0.1c-0.1-0.1-0.3-0.3-0.4-0.3c-0.8-0.2-1.7-0.3-2.5-0.5c-0.1,0-0.1,0.1-0.2,0.1
	c-0.1-0.2-0.3-0.4-0.5-0.3c-0.2,0.1-0.4,0-0.6,0c-0.6,0-1.2-0.3-1.8-0.3c-0.5,0-1.1,0-1.6,0c0,0.1,0.1,0.2,0.1,0.2
	c0-0.1-0.1-0.1-0.1-0.2c-0.3-0.3-0.8-0.2-1.2-0.3c-0.5-0.1-1,0.3-1.5,0c0.2-1.1,0.4-2.3,0.3-3.4c0.2-0.1,0.2-0.2,0.3-0.4
	c0-0.6,0-1.2,0.1-1.7c0.2-1,0-2,0.2-3c0.1-0.5-0.4-0.5-0.7-0.7c-0.3-0.2-0.4,0.1-0.4,0.3c-0.3,1-0.4,1.9-0.4,2.9
	c0,0.7-0.2,1.3-0.2,2c0,1.1-0.2,2.3-0.4,3.4c0,0.1,0,0.2,0,0.4c-0.2,0.2-0.2,0.7-0.7,0.5c-0.4-0.2,0.1-0.1-0.4-0.1
	c-1,0-1.2,0.2-1,1.2c0.1,0.4,0.2,0.6,0.6,0.5c0.5-0.1,0.1,0,0.7-0.2C180.9,19,181.1,19.2,181.1,19.6z M184.7,25.7
	C184.7,25.7,184.7,25.7,184.7,25.7c0.1-0.2,0.2-0.3,0.1-0.4C184.8,25.3,184.8,25.5,184.7,25.7z M182.1,23.9c0-0.3,0-0.7,0-1.1
	c0.1-0.2,0.1-0.4,0-0.6c0-0.2,0-0.4,0-0.6c0-0.1,0-0.2,0-0.2c0-0.1,0-0.2,0-0.3c0,0,0-0.1,0.1-0.1c0.1-0.1,0.1-0.3,0.1-0.5
	c0-0.1,0-0.2,0-0.2c0-0.1,0-0.2,0-0.3c0.1-0.8,0.3-0.9,1.1-0.8c0.7,0,1.3,0.1,2-0.2c0.3-0.1,0.5,0.1,0.8,0.2c0.3,0.1,0.6,0,0.9,0.1
	c0-0.1-0.1-0.2-0.1-0.2c0.1,0.1,0.1,0.1,0.1,0.2c0.2,0.2,0.4,0,0.6,0c0,0,0,0,0,0c0.3,0.4,0.7,0.2,1,0.3c0.1,0,0.1,0,0.2,0
	c0.3-0.1,0.7-0.1,1-0.1c-0.3,0-0.6,0-1,0.1c0.2,0.3,0.5,0.2,0.7,0.2c0.6,0,1.1,0.1,1.6,0.4c-0.3,0.1-0.7,0-0.8,0.3
	c-1.2-0.1-2.4-0.1-3.6,0c-1.1,0-2.3,0-3.4,0c-0.1,0-0.3,0-0.3,0.2c-0.1,0.6-0.3,1.1-0.2,1.7c0,0.4,0.3,0.6,0.7,0.6
	c0.5,0,1-0.2,1.5-0.2c0.8,0,1.5,0.3,2.3,0.2c0.1,0,0.2,0,0.3,0c-0.1,0-0.2,0-0.3,0c0.6,0.3,1.3,0,1.9,0.2c0.1,0,0.3,0,0.4,0
	c0.2,0.1,0.4,0.2,0.6,0.2c0.8-0.1,1.4,0.5,2,0.9c-3.1,0.6-6.3,0.7-9.5,0.6C182.3,24.8,182.1,24.5,182.1,23.9z M182.1,15.9
	c0,0.4-0.1,0.8-0.2,1.2c0,0,0,0,0,0C182,16.7,182.1,16.3,182.1,15.9z M187.8,12.1c0,0.1,0.1,0.4,0.1,0.4c0,0.1,0,0.2,0.1,0.2
	c0,0,0,0,0,0c0,0,0,0,0,0c0,0-0.1,0.1-0.1,0.1c0,0,0,0,0,0l0,0c0.1-0.1,0,0.1,0.1,0.1c-0.1,0,0,0,0,0c0,0,0,0,0,0c0,0,0,0,0,0
	c0,0,0,0,0,0c0,0,0.1,0.1,0.1,0.1c0,0,0-0.1,0-0.1c0,0,0,0,0,0c0,0,0,0,0,0c0,0,0.1,0,0.1,0c0,0,0,0,0.1,0c0,0,0,0,0,0
	c0,0,0.1-0.1,0.1-0.1c0,0,0.1,0,0,0c-0.1,0,0,0-0.1,0c0,0-0.1,0-0.1,0.1c0,0,0.1,0,0.1,0l0,0c0,0,0.1-0.1,0.1-0.1c0,0,0,0,0,0l0,0
	c0,0,0,0,0,0c0,0,0,0,0.1,0c0,0,0.2-0.2,0.2-0.1c0,0,0,0,0,0c-0.1,0-0.2,0.2-0.2,0.1c0,0,0.3-0.2,0.3-0.2c0,0,0,0,0,0c0,0,0,0,0,0
	c0,0,0,0,0,0l0,0c0.1,0,0.1-0.1,0.2-0.1c0,0,0,0-0.1,0.1l0,0c0,0,0,0,0,0c0,0,0.1,0,0.1-0.1c0,0,0,0,0,0c0,0,0,0,0,0c0,0,0,0,0,0
	c0,0,0,0,0,0c0,0,0.1-0.1,0.2-0.1c0,0,0,0,0,0c0.1,0,0.1,0,0.2-0.1c0,0,0,0,0,0l0.1,0c0,0.1,0.1,0,0.1,0c0,0,0.1,0,0.1,0
	c0,0,0,0,0,0c0.1,0,0,0,0.1,0c0,0,0,0,0,0c0.1,0,0.1,0,0.1,0c0,0,0.1-0.1,0.1-0.1c0.1,0,0.1,0,0.1,0l0,0c-0.1,0.1-0.3,0.1-0.5,0.2
	c0.4-0.1,0.8-0.2,1-0.4c0,0,0.1,0,0.2,0c0.1,0,0.2,0,0.2,0c0.1,0,0.1-0.1,0.2-0.1c0.1,0,0.1,0,0.2,0l0.1,0l0,0c0,0,0.1,0,0.1,0
	c0.1,0,0.2,0,0.3,0l0.1,0l0,0c0,0,0,0,0,0l0-0.1c0-0.1-0.1-0.2-0.1-0.3c0,0,0-0.1-0.1-0.1c0,0,0,0,0-0.1l0,0
	c-0.1-0.1-0.2-0.2-0.2-0.4c-0.1-0.1-0.3-0.3-0.5-0.5c-0.2-0.2-0.5-0.3-0.7-0.4c0,0-0.1,0-0.1,0c0.1,0,0.1,0,0.2,0.1
	c-0.2,0-0.4,0-0.6,0c0,0,0,0,0.1,0l-0.1,0c-0.1,0-0.3,0-0.4,0.1c0,0-0.1,0-0.1,0l0,0c-0.2,0-0.5,0.1-0.7,0.2c0,0,0,0-0.1,0
	c-0.1,0-0.1,0.1-0.2,0.1c0,0-0.2,0.1-0.1,0c-0.1,0-0.1,0.1-0.2,0.1c-0.1,0-0.1,0.1-0.2,0.1c-0.2,0.2-0.4,0.4-0.5,0.6
	c-0.1,0.2-0.2,0.5-0.2,0.7l0,0C187.8,11.8,187.8,11.9,187.8,12.1z M188.1,12.8C188.1,12.8,188.1,12.8,188.1,12.8
	C188.1,12.8,188.1,12.8,188.1,12.8C188.1,12.8,188.1,12.8,188.1,12.8C188.1,12.8,188.1,12.8,188.1,12.8z M188,12.8
	C188,12.8,188,12.8,188,12.8C188,12.8,188,12.8,188,12.8C188,12.8,188,12.8,188,12.8z M188,12.8C188,12.8,188,12.8,188,12.8
	C188,12.8,188,12.8,188,12.8C188,12.8,188,12.9,188,12.8L188,12.8C188,12.9,188,12.9,188,12.8C188,12.9,187.9,12.9,188,12.8
	C187.9,12.9,187.9,12.9,188,12.8C187.9,12.9,188,12.8,188,12.8C188,12.8,188,12.8,188,12.8C188,12.8,188,12.8,188,12.8z M202.8,30.8
	C202.8,30.8,202.8,30.8,202.8,30.8C202.8,30.7,202.8,30.7,202.8,30.8L202.8,30.8L202.8,30.8C202.8,30.8,202.8,30.8,202.8,30.8
	C202.8,30.8,202.8,30.8,202.8,30.8L202.8,30.8C202.8,30.8,202.8,30.8,202.8,30.8C202.8,30.8,202.8,30.8,202.8,30.8z M202.4,30.5
	L202.4,30.5C202.5,30.6,202.5,30.5,202.4,30.5z M162.5,34c0-0.5-0.2-1-0.4-1.5c-0.5-1.2-0.9-2.5-1.4-3.8c-0.6-1.4-1.2-2.8-2.1-4
	c-0.4-0.8-0.8-1.6-1.5-2.3c-0.1-0.4-0.3-0.8-0.6-1.1c-0.5-0.4-0.4-0.7-0.1-1.1c0.6-0.2,1.1-0.5,1.7-0.6c0.1,0,0.2-0.1,0.3-0.2
	c0,0,0.1,0,0.1,0c0.2,0.1,0.3,0,0.5-0.1c0.4-0.2,0.8-0.2,1.3,0c-0.4,0.4-0.8,0.7-1.2,1c-1,0.6-1.3,1.2-1,2c0.3,0.7,0.5,0.8,1,0.2
	c0.7-0.9,1.5-1.6,2.6-2.1c1-0.5,1-0.6,0.6-1.7c0-0.1,0-0.2-0.1-0.3c0-0.3-0.2-0.5-0.6-0.7c-1-0.4-2-0.2-2.9,0.3c-0.1,0-0.2,0-0.3,0
	c-0.7-0.1-1.3,0.4-2,0.5c-0.9,0.1-1.5,0.6-2,1.2c-0.3,0.3-0.5,0.7,0,1.1h0c0.1,0.4,0.4,0.6,0.6,0.8c0.8,1.3,1.6,2.7,2.4,4
	c0,0,0,0.1,0.1,0.1c0.4,0.8,0.8,1.6,1.2,2.4c0.3,0.5,0.3,1.1,0.8,1.6c0,0.2,0.1,0.3,0.1,0.5c0.4,1.2,1,2.3,1.2,3.6h0
	c-0.1,0.2,0.2,0.4-0.1,0.5c-0.2,0.1-0.3-0.1-0.5-0.2c-1.5-0.9-2.3-2.4-3.3-3.7c-0.5-0.7-0.7-1.6-1.4-2.1c-0.1-1.1-0.7-2-0.9-3.1
	c0-0.2-0.3-0.2-0.5-0.2c-0.2,0-0.3,0.1-0.3,0.3c-0.1,0.7-0.2,1.4,0.1,2c0.4,0.7,0.6,1.6,1.1,2.3c0.6,0.9,0.9,2,1.8,2.7
	c0.1,0.3,0.3,0.5,0.5,0.8c0.7,0.9,1.4,1.8,2.5,2.1c0.7,0.2,1.5,0.1,2.2,0.1c0.2,0,0.7,0.1,0.7-0.1C162.6,34.8,162.9,34.3,162.5,34z
	 M161,34c0-0.1-0.1-0.1-0.1-0.2C160.9,33.9,161,34,161,34c0.3-0.2,0.6-0.2,0.8-0.1C161.6,33.8,161.3,33.9,161,34z"/>
</svg>
