<?xml version="1.0" encoding="utf-8"?>
<!-- Generator: Adobe Illustrator 24.0.1, SVG Export Plug-In . SVG Version: 6.00 Build 0)  -->
<svg version="1.1" id="Camada_1" xmlns="http://www.w3.org/2000/svg" xmlns:xlink="http://www.w3.org/1999/xlink" x="0px" y="0px"
	 viewBox="0 0 219 219" style="enable-background:new 0 0 219 219;" xml:space="preserve">
<style type="text/css">
	.st0{fill:#BE1B2E;}
	.st1{fill:#FFFFFF;}
</style>
<path class="st0" d="M208.95,0H10.05C4.5,0,0,4.5,0,10.05v198.91C0,214.5,4.5,219,10.05,219h198.91c5.55,0,10.05-4.5,10.05-10.05
	V10.05C219,4.5,214.5,0,208.95,0z M214.98,208.95c0,3.32-2.7,6.03-6.03,6.03H66.94l-12.96-20.2c-1.61-2.51-4.14-4.3-7.05-4.98
	L4.02,179.73V10.05c0-3.32,2.7-6.03,6.03-6.03h114.3l19.16,29.87c2.26,3.52,5.79,6.01,9.86,6.97l61.61,14.46V208.95z"/>
<g>
	<path class="st1" d="M180.83,32.54c0.29,0.48,0.34,0.97,0.17,1.48c-0.06,0.17-0.13,0.35-0.2,0.52c-0.07,0.17-0.17,0.34-0.3,0.5
		c-0.05,0.05-0.09,0.1-0.12,0.15c-0.03,0.06-0.07,0.12-0.12,0.18c-0.48,0.65-0.98,1.19-1.52,1.62c-0.19,0.16-0.39,0.3-0.6,0.42
		c-0.21,0.12-0.44,0.22-0.69,0.3c-0.11,0.03-0.22,0.08-0.32,0.13c-0.1,0.06-0.22,0.11-0.35,0.15c-0.08,0.05-0.12,0.11-0.12,0.19
		c-0.02,0.14-0.1,0.25-0.24,0.31c-0.3,0.11-0.62,0.25-0.95,0.4c-0.33,0.13-0.68,0.17-1.05,0.14c-0.06-0.02-0.13-0.02-0.19-0.02
		c-0.06,0-0.13-0.01-0.19-0.02c-0.24-0.05-0.41-0.17-0.52-0.38l-0.43-0.86c-0.06-0.13-0.03-0.21,0.1-0.26
		c0.21-0.1,0.29-0.25,0.24-0.45c-0.08-0.3-0.12-0.6-0.13-0.89c-0.01-0.29-0.03-0.58-0.06-0.87c-0.03-0.27-0.06-0.53-0.07-0.77
		c-0.02-0.25-0.04-0.5-0.07-0.75c0-0.08-0.04-0.1-0.12-0.07c-0.03,0.02-0.07,0.03-0.11,0.05c-0.04,0.02-0.08,0.03-0.11,0.05
		c-0.06,0.03-0.12,0.05-0.18,0.06c-0.06,0.01-0.11-0.03-0.15-0.11c-0.02-0.02-0.03-0.04-0.05-0.06c-0.02-0.02-0.04-0.04-0.07-0.04
		c-0.17,0-0.29-0.06-0.36-0.17c-0.06-0.11-0.11-0.23-0.14-0.36c-0.03-0.11-0.05-0.22-0.06-0.32c-0.01-0.1-0.01-0.21-0.01-0.32
		c0.02-0.24,0.11-0.43,0.29-0.57c0.16-0.11,0.31-0.23,0.45-0.35c0.14-0.12,0.29-0.24,0.43-0.37c0.16-0.13,0.24-0.29,0.24-0.48
		c0-0.35,0.01-0.7,0.02-1.05c0.02-0.35,0.02-0.7,0-1.05c-0.02-0.17-0.02-0.34-0.01-0.49c0.01-0.15,0.02-0.31,0.04-0.49
		c0-0.13,0-0.26-0.01-0.39c-0.01-0.13-0.01-0.27-0.01-0.42c0-0.08-0.04-0.14-0.12-0.19c-0.29-0.17-0.48-0.39-0.58-0.65
		c-0.1-0.26-0.15-0.55-0.13-0.87c0-0.14,0.06-0.26,0.17-0.36c0.03-0.05,0.07-0.09,0.11-0.12c0.04-0.03,0.08-0.06,0.13-0.1
		c0.11-0.11,0.17-0.26,0.17-0.45c-0.02-0.06-0.02-0.13-0.02-0.19c0-0.06,0-0.13,0-0.19c0.03-0.08,0.07-0.12,0.12-0.12
		c0.05-0.03,0.12-0.05,0.21-0.05c0.11,0,0.25,0.02,0.4,0.05c0.36,0.05,0.71,0.02,1.02-0.1c0.92-0.32,1.85-0.43,2.79-0.33
		c0.21,0.02,0.4,0.05,0.57,0.11c0.17,0.06,0.35,0.12,0.52,0.2c0.06,0.03,0.13,0.07,0.19,0.12c0.06,0.06,0.13,0.12,0.19,0.17
		c0.06,0.05,0.11,0.11,0.14,0.19c0.14,0.21,0.28,0.41,0.4,0.61c0.13,0.2,0.25,0.41,0.36,0.63c0.08,0.16,0.12,0.31,0.13,0.46
		c0.01,0.15,0.02,0.31,0.04,0.46c-0.06,0.22-0.12,0.44-0.18,0.64c-0.06,0.21-0.15,0.4-0.27,0.57c-0.11,0.14-0.21,0.29-0.3,0.43
		c-0.09,0.14-0.19,0.29-0.3,0.43l-0.5,0.64c-0.21,0.21-0.41,0.4-0.61,0.6c-0.2,0.19-0.4,0.39-0.61,0.6
		c-0.03,0.03-0.08,0.1-0.14,0.19c-0.03,0.05-0.03,0.1,0,0.14c0,0.02,0.02,0.02,0.07,0.02c0.11,0.02,0.22,0.02,0.32,0.01
		c0.1-0.01,0.21,0,0.32,0.01c0.51,0,0.98,0.1,1.4,0.31c0.17,0.1,0.34,0.2,0.5,0.32c0.16,0.12,0.3,0.27,0.43,0.44
		c0.13,0.17,0.25,0.35,0.37,0.52C180.6,32.16,180.71,32.35,180.83,32.54z M174.46,35.01c-0.01-0.05-0.02-0.06-0.04-0.02
		c-0.03,0.02-0.05,0.06-0.05,0.12c0,0.02,0,0.03,0.01,0.04c0.01,0.01,0.01,0.02,0.01,0.04l0.05-0.02
		C174.46,35.11,174.46,35.06,174.46,35.01z M179.33,33.7c0.21-0.32,0.36-0.63,0.48-0.93c0.02-0.03,0.01-0.07-0.01-0.11
		c-0.02-0.04-0.05-0.08-0.08-0.11c-0.03-0.03-0.07-0.05-0.11-0.06c-0.04-0.01-0.08-0.03-0.11-0.06c-0.17-0.08-0.36-0.13-0.55-0.17
		c-0.19-0.03-0.37-0.05-0.52-0.05c-0.56-0.03-1.07,0.01-1.54,0.12c-0.47,0.11-0.93,0.25-1.39,0.43c-0.05,0.03-0.1,0.06-0.15,0.07
		c-0.06,0.02-0.1,0.04-0.13,0.07c-0.16,0.1-0.25,0.23-0.26,0.4v0.31c0,0.49,0.02,0.98,0.05,1.46c0.03,0.48,0.06,0.96,0.1,1.44
		c0,0.05,0.02,0.1,0.05,0.17c0.02,0.03,0.05,0.06,0.1,0.08c0.05,0.02,0.09,0.03,0.12,0.01c0.06-0.03,0.13-0.06,0.19-0.08
		c0.06-0.02,0.12-0.05,0.17-0.08c0.27-0.17,0.54-0.34,0.8-0.49c0.26-0.15,0.52-0.31,0.77-0.49c0.38-0.29,0.75-0.58,1.1-0.89
		C178.72,34.45,179.04,34.1,179.33,33.7z M175.14,29.01c0,0.05,0.03,0.09,0.1,0.12c0.02,0.02,0.04,0.02,0.07,0.01
		c0.03-0.01,0.06-0.02,0.07-0.04c0.16-0.13,0.31-0.26,0.45-0.39c0.14-0.13,0.29-0.27,0.45-0.39c0.57-0.52,1.09-1.07,1.55-1.64
		c0.32-0.41,0.59-0.87,0.81-1.38c0.03-0.03,0.03-0.08,0-0.13c-0.03-0.06-0.07-0.1-0.12-0.13c-0.16-0.08-0.37-0.12-0.62-0.12
		c-0.41-0.03-0.82-0.01-1.23,0.06c-0.4,0.07-0.81,0.19-1.2,0.37c-0.16,0.08-0.25,0.21-0.26,0.38c-0.03,0.27-0.06,0.54-0.07,0.8
		c-0.02,0.26-0.03,0.53-0.05,0.8c0,0.27,0,0.55,0,0.83C175.09,28.44,175.1,28.73,175.14,29.01z"/>
	<path class="st1" d="M188.88,36.91c0.08,0.19,0.11,0.37,0.1,0.55c0,0.11-0.06,0.2-0.17,0.26c-0.13,0.08-0.26,0.13-0.39,0.14
		c-0.13,0.02-0.28-0.02-0.44-0.1c-0.08-0.03-0.15-0.06-0.21-0.1c-0.06-0.03-0.13-0.06-0.21-0.1c-0.16-0.08-0.25-0.17-0.26-0.29
		c-0.08-0.41-0.17-0.82-0.27-1.23c-0.1-0.4-0.19-0.81-0.27-1.23c-0.08-0.41-0.15-0.84-0.2-1.27c-0.06-0.44-0.12-0.86-0.2-1.27
		c-0.03-0.08-0.06-0.15-0.07-0.2c-0.02-0.06-0.06-0.1-0.14-0.13c-0.25,0.06-0.5,0.13-0.74,0.2c-0.24,0.07-0.48,0.17-0.71,0.3
		c-0.03,0.02-0.07,0.03-0.11,0.04c-0.04,0.01-0.08,0.02-0.11,0.04c-0.08,0.02-0.16,0.02-0.25,0.01c-0.09-0.01-0.15,0.03-0.2,0.11
		c-0.05,0.14-0.07,0.3-0.07,0.48c-0.1,0.65-0.1,1.35-0.02,2.09c0.03,0.22,0.05,0.45,0.05,0.68c0,0.23-0.02,0.46-0.05,0.68
		c-0.06,0.4-0.3,0.62-0.71,0.67c-0.17,0.02-0.35,0.01-0.54-0.01c-0.18-0.02-0.36-0.09-0.54-0.2c-0.14-0.1-0.26-0.2-0.35-0.32
		c-0.09-0.12-0.12-0.27-0.11-0.46c0.03-0.41,0.04-0.82,0.04-1.21c-0.01-0.4,0-0.8,0.01-1.21c0.02-0.24,0.03-0.48,0.05-0.71
		c0.02-0.24,0.04-0.48,0.07-0.74c0.03-0.27,0.06-0.54,0.1-0.8c0.03-0.26,0.06-0.53,0.1-0.8c0.06-0.46,0.12-0.92,0.18-1.37
		c0.06-0.45,0.12-0.9,0.2-1.34c0.11-0.6,0.22-1.2,0.33-1.8c0.11-0.6,0.25-1.19,0.43-1.77c0.11-0.36,0.23-0.74,0.35-1.12
		c0.12-0.38,0.24-0.75,0.37-1.12c0.05-0.16,0.17-0.24,0.36-0.24l1.21,0.07c0.06,0,0.12,0.01,0.17,0.02c0.05,0.02,0.1,0.03,0.14,0.05
		c0.08,0.03,0.17,0.07,0.26,0.11c0.1,0.04,0.19,0.08,0.29,0.11c0.13,0.25,0.24,0.51,0.35,0.76c0.1,0.25,0.18,0.52,0.23,0.81
		c0.03,0.19,0.08,0.37,0.13,0.55c0.06,0.17,0.1,0.36,0.13,0.55c0.05,0.29,0.09,0.57,0.13,0.85c0.04,0.28,0.08,0.56,0.11,0.85
		c0.03,0.27,0.07,0.55,0.12,0.83c0.05,0.29,0.09,0.56,0.12,0.83c0.03,0.27,0.06,0.53,0.07,0.77c0.02,0.25-0.01,0.5-0.07,0.77
		c-0.06-0.1-0.11-0.16-0.14-0.19l-0.02-0.02c-0.02,0-0.02-0.01-0.02-0.02c-0.03,0.03-0.07,0.13-0.12,0.3
		c-0.05,0.17-0.07,0.27-0.07,0.3c0.02,0.02,0.02,0.03,0.02,0.04c0,0.01,0.01,0.02,0.02,0.04c0.11,0.11,0.11,0.22,0,0.33
		c-0.02,0.02-0.02,0.04-0.02,0.07c0,0.03,0.02,0.06,0.05,0.07c0.03,0.03,0.07,0.05,0.12,0.05c0.05-0.02,0.09-0.03,0.13-0.05
		c0.04-0.02,0.08-0.03,0.11-0.05c0.11-0.05,0.17-0.02,0.17,0.07c0,0.37,0.03,0.72,0.1,1.06c0.06,0.34,0.11,0.69,0.14,1.04
		c0.03,0.33,0.09,0.67,0.17,1c0.08,0.33,0.13,0.67,0.17,1c0.05,0.33,0.11,0.66,0.19,0.99C188.68,36.27,188.77,36.59,188.88,36.91z
		 M182.95,29.2c0.03-0.14,0.06-0.29,0.07-0.43c0.02-0.14,0.03-0.29,0.05-0.43c-0.02,0-0.02-0.01-0.02-0.02l-0.02-0.02
		c-0.02,0-0.04,0.02-0.07,0.05c-0.06,0.13-0.1,0.23-0.1,0.31c0,0.08,0.02,0.28,0.05,0.6c0-0.02,0.01-0.02,0.02-0.02
		C182.95,29.22,182.95,29.22,182.95,29.2z M183.07,27.87c0.03-0.06,0.05-0.1,0.05-0.12c0-0.02,0-0.03-0.01-0.04
		c-0.01-0.01-0.01-0.02-0.01-0.04c-0.03,0.06-0.05,0.1-0.05,0.12c0,0.02,0,0.03,0.01,0.04C183.07,27.84,183.07,27.85,183.07,27.87z
		 M183.24,27.08c0.02-0.03,0.03-0.05,0.05-0.06c0.02-0.01,0.02-0.03,0.02-0.06c0-0.03,0-0.07-0.01-0.11
		c-0.01-0.04-0.02-0.1-0.04-0.18c-0.02,0.08-0.03,0.14-0.05,0.17c-0.02,0.03-0.02,0.06-0.02,0.1
		C183.19,26.97,183.21,27.02,183.24,27.08z M183.43,26.03h-0.05l0.02,0.07L183.43,26.03z M183.57,25.58c0-0.02,0-0.03,0.01-0.04
		c0.01-0.01,0.01-0.02,0.01-0.04c0-0.02,0-0.03-0.01-0.04c-0.01-0.01-0.01-0.02-0.01-0.04c0,0.02,0,0.02-0.01,0.02
		c-0.01,0-0.01,0.01-0.01,0.02v0.05c0,0.02,0,0.02,0.01,0.02C183.57,25.56,183.57,25.57,183.57,25.58z M183.93,27.7
		c0.13-0.4,0.22-0.8,0.27-1.21c0.06-0.41,0.1-0.82,0.13-1.24c0-0.03-0.03-0.1-0.1-0.19c-0.06,0.06-0.09,0.13-0.08,0.19
		c0.01,0.06,0,0.13-0.04,0.19c-0.06,0.14-0.1,0.27-0.12,0.38c-0.03,0.08-0.05,0.15-0.06,0.2c-0.01,0.06-0.03,0.12-0.06,0.18
		c-0.02,0.06-0.03,0.17-0.05,0.32c-0.02,0.15-0.04,0.32-0.06,0.5c-0.02,0.18-0.04,0.35-0.06,0.51c-0.02,0.16-0.02,0.27-0.02,0.33
		c0,0.05,0.02,0.07,0.05,0.07c0.03,0,0.05-0.02,0.05-0.05C183.87,27.81,183.91,27.75,183.93,27.7z M183.88,24.15v0.12h0.02v-0.12
		H183.88z M184.12,23.32c-0.08,0.08-0.11,0.17-0.1,0.26c0,0.02,0.02,0.04,0.05,0.07c0.08-0.05,0.13-0.13,0.17-0.24
		c0-0.03-0.02-0.08-0.05-0.14c-0.02,0.02-0.03,0.02-0.04,0.02C184.15,23.3,184.14,23.3,184.12,23.32z M186.05,30.79
		c0.05-0.05,0.07-0.09,0.07-0.12c0-0.16,0-0.31-0.01-0.45c-0.01-0.14-0.02-0.29-0.04-0.43c-0.08-0.76-0.17-1.52-0.27-2.29
		c-0.1-0.76-0.23-1.52-0.39-2.29c0-0.03-0.02-0.08-0.05-0.14c-0.02,0-0.03,0-0.04-0.01c-0.01-0.01-0.02-0.01-0.04-0.01
		c-0.05,0-0.07,0.01-0.07,0.02c-0.06,0.13-0.1,0.22-0.12,0.29c-0.05,0.16-0.09,0.32-0.12,0.48c-0.03,0.16-0.07,0.32-0.12,0.48
		c-0.08,0.22-0.14,0.44-0.19,0.67c-0.05,0.22-0.09,0.44-0.12,0.67c-0.03,0.19-0.06,0.38-0.07,0.56c-0.02,0.18-0.04,0.37-0.07,0.56
		c-0.06,0.25-0.1,0.5-0.12,0.75c-0.02,0.25-0.06,0.5-0.14,0.75c-0.02,0.08-0.02,0.15-0.02,0.2c0,0.06,0,0.1,0,0.13
		c0,0.35,0.03,0.54,0.08,0.58c0.06,0.04,0.23,0.03,0.51-0.04c0.21-0.05,0.4-0.1,0.6-0.14c0.19-0.05,0.39-0.1,0.59-0.14
		C185.95,30.87,186,30.84,186.05,30.79z M187.57,32.15c-0.08-0.08-0.12-0.06-0.12,0.05c0,0.05,0.02,0.09,0.05,0.12
		c0.05,0.03,0.09,0.02,0.12-0.05C187.62,32.22,187.6,32.18,187.57,32.15z M187.6,33.27c0.05-0.02,0.06-0.06,0.02-0.12l-0.05-0.05
		c-0.06-0.02-0.1,0.01-0.1,0.07C187.54,33.24,187.58,33.27,187.6,33.27z"/>
	<path class="st1" d="M196.98,26.5c0.05,0.05,0.07,0.13,0.07,0.24c-0.02,0.14-0.02,0.29-0.02,0.43s-0.02,0.29-0.05,0.45
		c-0.03,0.17-0.06,0.35-0.08,0.51c-0.02,0.17-0.05,0.34-0.08,0.51c-0.02,0.08-0.03,0.15-0.04,0.2c-0.01,0.06-0.01,0.12-0.01,0.2
		c-0.03,0.38-0.05,0.76-0.06,1.13c-0.01,0.37-0.03,0.75-0.06,1.13c-0.03,0.33-0.06,0.67-0.08,1c-0.02,0.33-0.05,0.67-0.08,1.02
		c-0.03,0.24-0.05,0.48-0.06,0.71c-0.01,0.24,0.03,0.48,0.11,0.71c0.05,0.14,0.03,0.3-0.05,0.48c-0.06,0.13-0.11,0.27-0.13,0.42
		c-0.02,0.15-0.04,0.3-0.04,0.44c0,0.08-0.01,0.15-0.02,0.2c-0.02,0.06-0.03,0.12-0.05,0.2c-0.02,0.08-0.03,0.15-0.04,0.2
		c-0.01,0.06-0.01,0.12-0.01,0.2c-0.02,0.43-0.02,0.86-0.02,1.29c0,0.43,0.02,0.86,0.05,1.29c0,0.11,0,0.22,0.01,0.32
		c0.01,0.1,0.02,0.21,0.04,0.32c0.03,0.17,0.05,0.34,0.06,0.49c0.01,0.15,0.03,0.31,0.06,0.49c0.02,0.16,0,0.34-0.05,0.55
		c-0.03,0.06-0.05,0.13-0.05,0.19c0,0.06-0.04,0.11-0.12,0.14c-0.08,0.03-0.16,0.03-0.24,0c-0.08-0.03-0.16-0.06-0.24-0.1
		c-0.05-0.05-0.07-0.09-0.07-0.12c-0.02-0.05-0.02-0.09-0.02-0.13c0-0.04-0.01-0.08-0.02-0.11c-0.02-0.05-0.05-0.09-0.1-0.13
		c-0.05-0.04-0.1-0.04-0.17-0.01c-0.08,0.06-0.15,0.08-0.21,0.05c-0.06-0.03-0.13-0.08-0.19-0.14c-0.03-0.05-0.06-0.1-0.08-0.14
		c-0.02-0.05-0.04-0.1-0.06-0.14c-0.03-0.22-0.05-0.44-0.06-0.64c-0.01-0.21-0.02-0.42-0.04-0.64c-0.02-0.38-0.03-0.76-0.04-1.14
		c-0.01-0.38-0.02-0.75-0.04-1.12c0-0.08,0-0.16,0.01-0.25c0.01-0.09,0.01-0.17,0.01-0.25c0-0.08,0-0.16,0.01-0.24
		c0.01-0.08,0.01-0.16,0.01-0.24c0-0.22-0.1-0.32-0.29-0.29c-0.1,0.02-0.19,0.03-0.29,0.04c-0.1,0.01-0.19,0.03-0.29,0.06
		c-0.27,0.08-0.55,0.15-0.83,0.2c-0.28,0.06-0.56,0.12-0.83,0.18c-0.08,0.02-0.16,0.04-0.24,0.06c-0.08,0.02-0.16,0.05-0.24,0.08
		c-0.02,0.06-0.03,0.12-0.05,0.17c-0.02,0.05-0.02,0.1-0.02,0.14c0.02,0.25,0.03,0.5,0.05,0.74c0.02,0.24,0.04,0.48,0.07,0.71
		c0.02,0.24,0.03,0.47,0.05,0.7c0.02,0.23,0.03,0.46,0.05,0.68c0,0.08-0.02,0.18-0.05,0.31c-0.06,0.17-0.17,0.25-0.31,0.21
		c-0.11-0.02-0.21-0.04-0.31-0.06c-0.09-0.02-0.18-0.08-0.26-0.18c-0.08-0.11-0.16-0.17-0.26-0.17c-0.41-0.06-0.63-0.33-0.68-0.79
		c-0.03-0.27-0.06-0.55-0.07-0.83c-0.02-0.29-0.03-0.57-0.05-0.86c-0.02-0.13-0.02-0.25-0.02-0.36c0-0.11,0-0.23,0-0.36
		c-0.02-0.13-0.04-0.25-0.06-0.37c-0.02-0.12-0.07-0.23-0.15-0.35c-0.02-0.03-0.03-0.07-0.05-0.11c-0.02-0.04-0.01-0.08,0.02-0.11
		c0.05-0.08,0.07-0.17,0.07-0.26c0-0.1-0.01-0.19-0.02-0.29c-0.03-0.29-0.06-0.57-0.08-0.85c-0.02-0.28-0.02-0.56,0.01-0.85
		c-0.03-0.17-0.05-0.35-0.05-0.52c0-0.17,0.01-0.35,0.02-0.52c0.02-0.13,0.02-0.25,0.01-0.37c-0.01-0.12,0-0.24,0.01-0.37
		c0.02-0.33,0.03-0.67,0.04-1c0.01-0.33,0.02-0.67,0.04-1.02c0.02-0.16,0.03-0.32,0.04-0.48c0.01-0.16,0.02-0.32,0.04-0.48v-0.24
		c0.08-0.25,0.13-0.51,0.14-0.76c0.02-0.25,0.01-0.51-0.02-0.76c0-0.03,0.02-0.07,0.05-0.12c0.03-0.05,0.06-0.07,0.09-0.07
		c0.02,0,0.03,0,0.03-0.01c0.01-0.01,0.03-0.01,0.06-0.01c0.17,0,0.35,0,0.54-0.01c0.19-0.01,0.38-0.01,0.56-0.01
		c0.13,0,0.25,0.04,0.38,0.12c0.14,0.1,0.24,0.22,0.29,0.38c0.02,0.08,0.03,0.16,0.04,0.24c0.01,0.08,0,0.16-0.01,0.24l-0.14,1.14
		c-0.03,0.1-0.06,0.19-0.07,0.3c-0.02,0.1-0.03,0.21-0.05,0.32c-0.08,0.44-0.12,0.89-0.13,1.33c-0.01,0.44-0.04,0.89-0.08,1.33
		c-0.02,0.35-0.02,0.7,0,1.05c0.02,0.3,0.03,0.6,0.05,0.89c0.02,0.29,0.04,0.59,0.07,0.89c0,0.03,0.02,0.06,0.06,0.1
		c0.04,0.03,0.08,0.05,0.11,0.05c0.1-0.02,0.19-0.02,0.29-0.02c0.1,0,0.19-0.01,0.29-0.02c0.32-0.06,0.65-0.13,0.98-0.19
		c0.34-0.06,0.67-0.13,1.01-0.21c0.08,0,0.18-0.03,0.31-0.1c0.03-0.02,0.06-0.06,0.1-0.12c0.03-0.06,0.05-0.11,0.05-0.14
		c0.03-0.32,0.06-0.64,0.07-0.96c0.02-0.33,0.03-0.65,0.05-0.96c0.02-0.24,0.02-0.47,0.02-0.7c0-0.23,0.02-0.46,0.07-0.68
		c0.02-0.06,0.02-0.13,0.01-0.19c-0.01-0.06-0.01-0.13-0.01-0.21c0.02-0.29,0.02-0.57,0.02-0.86c0-0.29,0.02-0.56,0.07-0.83
		c0.02-0.08,0.02-0.15,0.01-0.2c-0.01-0.06-0.01-0.12-0.01-0.2c0-0.13,0-0.25,0-0.37s0.01-0.24,0.02-0.37
		c0.03-0.33,0.07-0.67,0.11-1c0.04-0.33,0.08-0.67,0.13-1c0-0.08,0.03-0.13,0.08-0.17c0.06-0.03,0.12-0.04,0.2-0.02
		c0.16,0.03,0.31,0.08,0.46,0.13c0.15,0.06,0.31,0.1,0.46,0.13c0.13,0.02,0.23,0.07,0.31,0.17C196.82,26.31,196.9,26.41,196.98,26.5
		z M195.36,36.36c-0.03-0.02-0.07,0-0.11,0.06c-0.04,0.06-0.06,0.12-0.06,0.18c0.02,0.08,0.03,0.15,0.04,0.23
		c0.01,0.07,0.01,0.16,0.01,0.27c0.13-0.1,0.19-0.15,0.19-0.17c0.02-0.13,0.02-0.26,0-0.4c0-0.03,0-0.06-0.01-0.1
		C195.41,36.4,195.4,36.37,195.36,36.36z M195.48,40.57c0.03-0.17,0.05-0.35,0.05-0.51c0-0.17-0.02-0.34-0.05-0.51
		c-0.03-0.17-0.06-0.36-0.08-0.55c-0.02-0.19-0.01-0.37,0.04-0.55c0.02-0.05,0.01-0.1-0.01-0.15c-0.02-0.06-0.04-0.11-0.06-0.15
		c0-0.06-0.03-0.1-0.1-0.1c-0.03,0.03-0.05,0.06-0.05,0.07c-0.03,0.65-0.01,1.29,0.07,1.93C195.31,40.21,195.37,40.38,195.48,40.57z
		"/>
	<path class="st1" d="M199.84,32.4c-0.03,0.32-0.05,0.63-0.06,0.93c-0.01,0.3-0.03,0.61-0.06,0.93c-0.06,1.38,0.03,2.75,0.29,4.09
		l0.29,1.43c0.03,0.14,0.03,0.3,0,0.48c0,0.1-0.04,0.17-0.13,0.24c-0.09,0.06-0.17,0.1-0.25,0.12c-0.21,0-0.36-0.04-0.45-0.12
		c-0.06-0.03-0.12-0.07-0.17-0.11c-0.05-0.04-0.1-0.08-0.17-0.11c-0.06-0.05-0.13-0.06-0.19-0.02c-0.06,0.03-0.13,0.04-0.19,0.02
		c-0.05,0-0.09-0.03-0.12-0.1c-0.03-0.03-0.05-0.07-0.06-0.11c-0.01-0.04-0.02-0.08-0.04-0.11c-0.08-0.46-0.17-0.92-0.26-1.38
		c-0.1-0.46-0.18-0.93-0.26-1.4c-0.06-0.46-0.1-0.93-0.11-1.4c-0.01-0.48-0.01-0.94-0.01-1.4c0-0.48,0.02-0.95,0.05-1.42
		c0.03-0.47,0.06-0.94,0.1-1.42c0.03-0.62,0.08-1.23,0.13-1.84c0.06-0.61,0.11-1.23,0.15-1.84c0.03-0.35,0.06-0.7,0.07-1.05
		c0.02-0.35,0.03-0.7,0.05-1.05c0.02-0.03,0.02-0.07,0.02-0.12c0-0.05,0.01-0.09,0.02-0.12c0-0.05,0.03-0.09,0.08-0.13
		c0.06-0.04,0.1-0.06,0.13-0.06c0.25,0.03,0.5,0.06,0.74,0.08c0.24,0.02,0.48,0.05,0.71,0.08c0.13,0.02,0.22,0.1,0.29,0.26
		c0.08,0.27,0.1,0.54,0.07,0.81c-0.03,0.33-0.06,0.67-0.08,1s-0.07,0.67-0.13,1c-0.03,0.22-0.07,0.45-0.11,0.68
		c-0.04,0.23-0.07,0.46-0.08,0.68c-0.02,0.22-0.04,0.45-0.07,0.68c-0.03,0.23-0.06,0.46-0.1,0.68c-0.02,0.19-0.03,0.38-0.05,0.56
		C199.87,32.03,199.86,32.21,199.84,32.4z M198.44,35.64c0,0.11-0.01,0.21-0.02,0.31c-0.02,0.1-0.01,0.18,0.02,0.26
		c0.02,0.05,0.04,0.09,0.07,0.12c0.03,0.03,0.06,0.03,0.1,0c0.05-0.05,0.07-0.09,0.07-0.12C198.66,36.04,198.58,35.85,198.44,35.64z
		 M198.79,32.98c0.06-0.3,0.09-0.61,0.08-0.93c-0.01-0.32-0.03-0.67-0.06-1.05c-0.03,0.1-0.06,0.16-0.07,0.19
		c-0.02,0.03-0.02,0.06-0.02,0.1c-0.03,0.37-0.08,0.74-0.13,1.12c-0.06,0.38-0.07,0.75-0.04,1.12c0,0.14-0.01,0.25-0.02,0.33
		c-0.05,0.17-0.07,0.36-0.06,0.55c0.01,0.19-0.01,0.38-0.06,0.57c0,0.06,0.01,0.11,0.02,0.14c0.03,0.06,0.07,0.1,0.12,0.1
		c0.06,0.06,0.1,0.04,0.1-0.07c0.05-0.22,0.07-0.44,0.07-0.64c0-0.21,0-0.42,0-0.64C198.72,33.59,198.75,33.29,198.79,32.98z
		 M198.75,37.24c0.03-0.17,0-0.33-0.1-0.45h-0.07c-0.05,0.06-0.08,0.13-0.11,0.2c-0.02,0.07-0.02,0.15,0.01,0.23
		c0.03,0.06,0.07,0.1,0.12,0.1C198.65,37.31,198.7,37.28,198.75,37.24z"/>
	<path class="st1" d="M209.11,40.08c0.08,0.19,0.11,0.37,0.1,0.55c0,0.11-0.06,0.2-0.17,0.26c-0.13,0.08-0.26,0.13-0.39,0.14
		c-0.13,0.02-0.28-0.02-0.44-0.1c-0.08-0.03-0.15-0.06-0.21-0.1c-0.06-0.03-0.13-0.06-0.21-0.1c-0.16-0.08-0.25-0.17-0.26-0.29
		c-0.08-0.41-0.17-0.82-0.27-1.23c-0.1-0.4-0.19-0.81-0.27-1.23c-0.08-0.41-0.15-0.84-0.2-1.27c-0.06-0.44-0.12-0.86-0.2-1.27
		c-0.03-0.08-0.06-0.15-0.07-0.2c-0.02-0.06-0.06-0.1-0.14-0.13c-0.25,0.06-0.5,0.13-0.74,0.2c-0.24,0.07-0.48,0.17-0.71,0.3
		c-0.03,0.02-0.07,0.03-0.11,0.04c-0.04,0.01-0.08,0.02-0.11,0.04c-0.08,0.02-0.16,0.02-0.25,0.01c-0.09-0.01-0.15,0.03-0.2,0.11
		c-0.05,0.14-0.07,0.3-0.07,0.48c-0.1,0.65-0.1,1.35-0.02,2.09c0.03,0.22,0.05,0.45,0.05,0.68c0,0.23-0.02,0.46-0.05,0.68
		c-0.06,0.4-0.3,0.62-0.71,0.67c-0.17,0.02-0.35,0.01-0.54-0.01c-0.18-0.02-0.36-0.09-0.54-0.2c-0.14-0.1-0.26-0.2-0.35-0.32
		c-0.09-0.12-0.12-0.27-0.11-0.46c0.03-0.41,0.04-0.82,0.04-1.21c-0.01-0.4,0-0.8,0.01-1.21c0.02-0.24,0.03-0.48,0.05-0.71
		c0.02-0.24,0.04-0.48,0.07-0.74c0.03-0.27,0.06-0.54,0.1-0.8c0.03-0.26,0.06-0.53,0.1-0.8c0.06-0.46,0.12-0.92,0.18-1.37
		c0.06-0.45,0.12-0.9,0.2-1.34c0.11-0.6,0.22-1.2,0.33-1.8c0.11-0.6,0.25-1.19,0.43-1.77c0.11-0.36,0.23-0.74,0.35-1.12
		c0.12-0.38,0.24-0.75,0.37-1.12c0.05-0.16,0.17-0.24,0.36-0.24l1.21,0.07c0.06,0,0.12,0.01,0.17,0.02c0.05,0.02,0.1,0.03,0.14,0.05
		c0.08,0.03,0.17,0.07,0.26,0.11c0.1,0.04,0.19,0.08,0.29,0.11c0.13,0.25,0.24,0.51,0.35,0.76c0.1,0.25,0.18,0.52,0.23,0.81
		c0.03,0.19,0.08,0.37,0.13,0.55c0.06,0.17,0.1,0.36,0.13,0.55c0.05,0.29,0.09,0.57,0.13,0.85c0.04,0.28,0.08,0.56,0.11,0.85
		c0.03,0.27,0.07,0.55,0.12,0.83c0.05,0.29,0.09,0.56,0.12,0.83c0.03,0.27,0.06,0.53,0.07,0.77c0.02,0.25-0.01,0.5-0.07,0.77
		c-0.06-0.1-0.11-0.16-0.14-0.19l-0.02-0.02c-0.02,0-0.02-0.01-0.02-0.02c-0.03,0.03-0.07,0.13-0.12,0.3
		c-0.05,0.17-0.07,0.27-0.07,0.3c0.02,0.02,0.02,0.03,0.02,0.04c0,0.01,0.01,0.02,0.02,0.04c0.11,0.11,0.11,0.22,0,0.33
		c-0.02,0.02-0.02,0.04-0.02,0.07c0,0.03,0.02,0.06,0.05,0.07c0.03,0.03,0.07,0.05,0.12,0.05c0.05-0.02,0.09-0.03,0.13-0.05
		c0.04-0.02,0.08-0.03,0.11-0.05c0.11-0.05,0.17-0.02,0.17,0.07c0,0.37,0.03,0.72,0.1,1.06c0.06,0.34,0.11,0.69,0.14,1.04
		c0.03,0.33,0.09,0.67,0.17,1c0.08,0.33,0.13,0.67,0.17,1c0.05,0.33,0.11,0.66,0.19,0.99C208.91,39.44,209,39.76,209.11,40.08z
		 M203.18,32.37c0.03-0.14,0.06-0.29,0.07-0.43c0.02-0.14,0.03-0.29,0.05-0.43c-0.02,0-0.02-0.01-0.02-0.02l-0.02-0.02
		c-0.02,0-0.04,0.02-0.07,0.05c-0.06,0.13-0.1,0.23-0.1,0.31c0,0.08,0.02,0.28,0.05,0.6c0-0.02,0.01-0.02,0.02-0.02
		C203.18,32.39,203.18,32.38,203.18,32.37z M203.3,31.04c0.03-0.06,0.05-0.1,0.05-0.12c0-0.02,0-0.03-0.01-0.04
		c-0.01-0.01-0.01-0.02-0.01-0.04c-0.03,0.06-0.05,0.1-0.05,0.12c0,0.02,0,0.03,0.01,0.04C203.3,31.01,203.3,31.02,203.3,31.04z
		 M203.47,30.25c0.02-0.03,0.03-0.05,0.05-0.06c0.02-0.01,0.02-0.03,0.02-0.06c0-0.03,0-0.07-0.01-0.11
		c-0.01-0.04-0.02-0.1-0.04-0.18c-0.02,0.08-0.03,0.14-0.05,0.17c-0.02,0.03-0.02,0.06-0.02,0.1
		C203.42,30.14,203.44,30.19,203.47,30.25z M203.66,29.2h-0.05l0.02,0.07L203.66,29.2z M203.8,28.75c0-0.02,0-0.03,0.01-0.04
		c0.01-0.01,0.01-0.02,0.01-0.04c0-0.02,0-0.03-0.01-0.04c-0.01-0.01-0.01-0.02-0.01-0.04c0,0.02,0,0.02-0.01,0.02
		c-0.01,0-0.01,0.01-0.01,0.02v0.05c0,0.02,0,0.02,0.01,0.02C203.8,28.73,203.8,28.73,203.8,28.75z M204.16,30.87
		c0.13-0.4,0.22-0.8,0.27-1.21c0.06-0.41,0.1-0.82,0.13-1.24c0-0.03-0.03-0.1-0.1-0.19c-0.06,0.06-0.09,0.13-0.08,0.19
		c0.01,0.06,0,0.13-0.04,0.19c-0.06,0.14-0.1,0.27-0.12,0.38c-0.03,0.08-0.05,0.15-0.06,0.2c-0.01,0.06-0.03,0.12-0.06,0.18
		c-0.02,0.06-0.03,0.17-0.05,0.32c-0.02,0.15-0.04,0.32-0.06,0.5c-0.02,0.18-0.04,0.35-0.06,0.51c-0.02,0.16-0.02,0.27-0.02,0.33
		c0,0.05,0.02,0.07,0.05,0.07c0.03,0,0.05-0.02,0.05-0.05C204.1,30.98,204.14,30.92,204.16,30.87z M204.11,27.32v0.12h0.02v-0.12
		H204.11z M204.35,26.49c-0.08,0.08-0.11,0.17-0.1,0.26c0,0.02,0.02,0.04,0.05,0.07c0.08-0.05,0.13-0.13,0.17-0.24
		c0-0.03-0.02-0.08-0.05-0.14c-0.02,0.02-0.03,0.02-0.04,0.02C204.38,26.46,204.37,26.47,204.35,26.49z M206.28,33.96
		c0.05-0.05,0.07-0.09,0.07-0.12c0-0.16,0-0.31-0.01-0.45c-0.01-0.14-0.02-0.29-0.04-0.43c-0.08-0.76-0.17-1.52-0.27-2.29
		c-0.1-0.76-0.23-1.52-0.39-2.29c0-0.03-0.02-0.08-0.05-0.14c-0.02,0-0.03,0-0.04-0.01c-0.01-0.01-0.02-0.01-0.04-0.01
		c-0.05,0-0.07,0.01-0.07,0.02c-0.06,0.13-0.1,0.22-0.12,0.29c-0.05,0.16-0.09,0.32-0.12,0.48c-0.03,0.16-0.07,0.32-0.12,0.48
		c-0.08,0.22-0.14,0.44-0.19,0.67c-0.05,0.22-0.09,0.44-0.12,0.67c-0.03,0.19-0.06,0.38-0.07,0.56c-0.02,0.18-0.04,0.37-0.07,0.56
		c-0.06,0.25-0.1,0.5-0.12,0.75c-0.02,0.25-0.06,0.5-0.14,0.75c-0.02,0.08-0.02,0.15-0.02,0.2c0,0.06,0,0.1,0,0.13
		c0,0.35,0.03,0.54,0.08,0.58c0.06,0.04,0.23,0.03,0.51-0.04c0.21-0.05,0.4-0.1,0.6-0.14c0.19-0.05,0.39-0.1,0.59-0.14
		C206.18,34.03,206.23,34.01,206.28,33.96z M207.8,35.32c-0.08-0.08-0.12-0.06-0.12,0.05c0,0.05,0.02,0.09,0.05,0.12
		c0.05,0.03,0.09,0.02,0.12-0.05C207.85,35.39,207.83,35.35,207.8,35.32z M207.83,36.44c0.05-0.02,0.06-0.06,0.02-0.12l-0.05-0.05
		c-0.06-0.02-0.1,0.01-0.1,0.07C207.77,36.41,207.81,36.44,207.83,36.44z"/>
	<path class="st1" d="M167.56,28.44c-0.01-0.03-0.04-0.06-0.07-0.09c-0.03,0.06-0.07,0.11-0.13,0.16c-0.06,0.04-0.15,0.05-0.27,0.02
		h-0.07c-0.09,0-0.16-0.01-0.22-0.04c-0.06-0.03-0.11-0.07-0.16-0.11c-0.04-0.04-0.09-0.09-0.13-0.13c-0.21-0.22-0.3-0.49-0.27-0.8
		c0.01-0.06,0.01-0.15,0-0.27v-0.09c0-0.06,0-0.11-0.01-0.16c-0.01-0.04-0.01,1.05-0.01,0.99c0-0.07,0-0.15-0.01-0.23
		c-0.01-0.08-0.01-0.16-0.01-0.23c-0.02-0.27-0.03-0.54-0.03-0.8c-0.01-0.27-0.01-0.53-0.01-0.78c-0.02-0.07-0.02-0.18-0.02-0.31
		c-0.03-0.3-0.02-0.58,0.02-0.85c0.01-0.07,0.02-0.16,0.01-0.25c-0.01-0.09-0.01-0.18-0.01-0.27v-0.31
		c0.01-0.25,0.02-0.51,0.02-0.77c0-0.26,0.01-0.52,0.02-0.77c0.01-0.31-0.03-0.59-0.13-0.82c-0.03-0.07-0.06-0.15-0.09-0.23
		c-0.03-0.08-0.04-0.17-0.04-0.26c0-0.04,0.01-0.12,0.03-0.22c0.02-0.1,0.09-0.19,0.21-0.27c0.09-0.06,0.13-0.14,0.13-0.25
		c0.01-0.15,0.03-0.3,0.03-0.45c0.01-0.15,0.02-0.3,0.03-0.47c0.03-0.24,0.05-0.48,0.07-0.71c0.01-0.24,0.01-0.48,0-0.74
		c0-0.21-0.04-0.36-0.11-0.45c-0.04-0.03-0.08-0.1-0.11-0.2c0-0.03-0.01-0.05-0.02-0.07c-0.03-0.06-0.05-0.09-0.07-0.09
		c-0.12-0.07-0.21-0.16-0.27-0.26c-0.06-0.1-0.12-0.19-0.18-0.28c-0.03-0.06-0.06-0.1-0.09-0.13c-0.03-0.09-0.04-0.16-0.04-0.2
		c-0.01-0.12-0.03-0.23-0.03-0.33c-0.01-0.1-0.01-0.21-0.01-0.31c0-0.19,0.08-0.32,0.25-0.38l0.56-0.18
		c0.34-0.12,0.69-0.23,1.04-0.35c0.35-0.11,0.7-0.21,1.06-0.3c0.4-0.1,0.83-0.19,1.29-0.27l0.27-0.04c0.12-0.03,0.24-0.05,0.36-0.06
		c0.12-0.01,0.24-0.02,0.36-0.03l0.22-0.02c0.07-0.01,0.16-0.01,0.25,0c0.12,0.01,0.2,0.04,0.23,0.09c0.04,0.04,0.07,0.1,0.1,0.16
		c0.01,0.1,0.1,0.19,0.25,0.27c0.36,0.16,0.51,0.45,0.47,0.87c-0.03,0.15-0.11,0.26-0.25,0.33c-0.03,0.01-0.07,0.03-0.11,0.03
		c-0.04,0.01-0.09,0.03-0.13,0.06l-0.45,0.16l-0.07-0.02c-0.24-0.07-0.51-0.08-0.8-0.02l-0.2,0.04c-0.19,0.04-0.38,0.09-0.57,0.13
		c-0.19,0.04-0.37,0.1-0.55,0.16c-0.1,0.03-0.2,0.06-0.29,0.1c-0.09,0.04-0.18,0.07-0.27,0.1c-0.12,0.07-0.18,0.16-0.18,0.27v0.18
		c-0.01,0.06-0.02,0.15-0.02,0.27c0.01,0.15,0.01,0.29,0,0.42c-0.02,0.13-0.04,0.27-0.07,0.4c-0.03,0.12-0.05,0.23-0.06,0.32
		c-0.01,0.1-0.02,0.2-0.03,0.3v0.07c-0.03,0.03-0.04,0.06-0.04,0.1c0,0.04-0.01,0.07-0.02,0.1c-0.02,0.03-0.03,0.07-0.03,0.11
		c-0.01,0.04-0.02,0.08-0.03,0.11c-0.06,0.15-0.07,0.33-0.04,0.56v0.09h0.02c0.07-0.03,0.14-0.05,0.19-0.06
		c0.05-0.01,0.11-0.03,0.19-0.06c0.37-0.12,0.75-0.22,1.15-0.3c0.39-0.08,0.81-0.15,1.26-0.21c0.06-0.01,0.12-0.02,0.18-0.02
		c0.06,0,0.12,0,0.18,0c0.1,0,0.19,0.03,0.27,0.09c0.19,0.16,0.39,0.34,0.6,0.54c0.13,0.12,0.24,0.29,0.31,0.51
		c0.04,0.1,0.04,0.21-0.02,0.31c-0.06,0.1-0.14,0.17-0.25,0.2H172c-0.07,0.03-0.15,0.05-0.23,0.06c-0.08,0.01-0.16,0.02-0.23,0.03
		c-0.48,0.06-0.94,0.15-1.38,0.28c-0.45,0.13-0.89,0.26-1.34,0.41l-0.13,0.04c-0.1,0.03-0.2,0.07-0.3,0.12
		c-0.1,0.05-0.2,0.11-0.3,0.17c-0.03,0.01-0.06,0.03-0.1,0.04c-0.04,0.01-0.07,0.03-0.1,0.04c-0.1,0.04-0.16,0.13-0.16,0.25
		c-0.02,0.16-0.03,0.33-0.03,0.49c-0.01,0.16-0.01,0.33-0.01,0.49c-0.02,0.33-0.03,0.65-0.03,0.96c-0.01,0.31-0.01,0.63-0.01,0.96
		c-0.02,0.52-0.01,1.01,0.01,1.47c0.02,0.46,0.05,0.91,0.08,1.34 M167.87,28.44"/>
	<path class="st1" d="M180.79,18.58c0.09,0.06,0.13,0.12,0.13,0.18c0,0.15-0.04,0.24-0.13,0.27c-0.06,0.03-0.11,0.05-0.16,0.06
		c-0.04,0.01-0.1,0.03-0.16,0.06c-0.07,0.03-0.16,0.06-0.25,0.09c-0.09,0.03-0.17,0.07-0.25,0.11c-0.21,0.12-0.42,0.24-0.62,0.36
		c-0.21,0.12-0.42,0.23-0.62,0.33c-0.09,0.03-0.16,0.07-0.2,0.13c-0.12,0.16-0.26,0.29-0.43,0.39c-0.17,0.1-0.33,0.21-0.48,0.35
		c-0.19,0.16-0.4,0.3-0.61,0.42c-0.22,0.12-0.44,0.22-0.68,0.31c-0.22,0.07-0.42,0.05-0.6-0.07c-0.15-0.09-0.3-0.18-0.45-0.27
		c-0.15-0.09-0.27-0.22-0.36-0.38c-0.02-0.03-0.05-0.06-0.11-0.09c-0.28-0.18-0.49-0.4-0.62-0.66c-0.13-0.26-0.25-0.54-0.33-0.84
		c-0.12-0.36-0.19-0.74-0.22-1.16c-0.02-0.16-0.03-0.32-0.06-0.47c-0.02-0.15-0.07-0.3-0.14-0.45c-0.06-0.09-0.06-0.16,0-0.22
		c0.04-0.13,0.07-0.27,0.07-0.4c0.01-0.25,0.03-0.51,0.03-0.78c0.01-0.27,0.02-0.53,0.03-0.78c0-0.15,0-0.29,0.01-0.43
		c0.01-0.14,0-0.29-0.03-0.43c-0.03-0.19-0.04-0.38-0.03-0.56c0.01-0.18,0.02-0.36,0.03-0.54c0.03-0.22,0.04-0.45,0.04-0.67
		c0-0.22,0.01-0.45,0.04-0.67c0.01-0.16,0.03-0.32,0.04-0.48c0.01-0.16,0.04-0.32,0.07-0.48c0-0.1-0.03-0.17-0.09-0.2
		c-0.03-0.01-0.06-0.01-0.1,0.01c-0.04,0.02-0.07,0.04-0.1,0.06c-0.02,0-0.04,0.01-0.07,0.04c-0.16,0.16-0.36,0.24-0.58,0.22
		c-0.3-0.03-0.51-0.15-0.65-0.36c-0.07-0.12-0.15-0.22-0.23-0.29c-0.08-0.07-0.17-0.15-0.26-0.22c-0.04-0.03-0.1-0.09-0.16-0.18
		c-0.06-0.07-0.08-0.16-0.06-0.27c0.02-0.1,0.07-0.17,0.14-0.2c0.12-0.06,0.24-0.11,0.37-0.16c0.13-0.04,0.25-0.1,0.37-0.16
		c0.24-0.12,0.47-0.23,0.7-0.33c0.23-0.1,0.47-0.22,0.72-0.33c0.1-0.04,0.18-0.14,0.22-0.29c0.01-0.01,0.02-0.04,0.02-0.09
		c0.03-0.07,0.04-0.15,0.04-0.22c0-0.07,0.05-0.13,0.16-0.16c0.1-0.03,0.23-0.01,0.38,0.07c0.16,0.07,0.34,0.12,0.52,0.12
		c0.19,0.01,0.37,0,0.55-0.03c0.22-0.03,0.45-0.07,0.67-0.12c0.22-0.05,0.44-0.09,0.65-0.12c0.18-0.03,0.35-0.05,0.52-0.07
		c0.17-0.01,0.34-0.04,0.5-0.07c0.03,0,0.06,0,0.08,0.01c0.02,0.01,0.05,0,0.08-0.01c0.19-0.1,0.38-0.13,0.55-0.09
		c0.17,0.04,0.34,0.1,0.5,0.18c0.1,0.03,0.2,0.07,0.29,0.11c0.09,0.04,0.19,0.08,0.31,0.11c0.15,0.03,0.26,0.09,0.35,0.18
		c0.08,0.09,0.15,0.19,0.21,0.31c0.04,0.07,0.03,0.15-0.04,0.22c-0.15,0.07-0.29,0.14-0.43,0.19c-0.14,0.05-0.29,0.09-0.46,0.1
		c-0.3,0-0.6,0.06-0.91,0.18c-0.16,0.07-0.34,0.12-0.52,0.14c-0.19,0.02-0.37,0.06-0.55,0.1l-1,0.27c-0.22,0.09-0.37,0.26-0.45,0.51
		c-0.03,0.13-0.06,0.26-0.08,0.39c-0.02,0.13-0.05,0.26-0.08,0.39c-0.04,0.24-0.09,0.47-0.14,0.69c-0.05,0.22-0.1,0.45-0.14,0.69
		c-0.01,0.07-0.03,0.15-0.04,0.23c-0.01,0.08-0.01,0.16,0,0.23c0.01,0.18,0.01,0.35-0.01,0.52c-0.02,0.17-0.05,0.34-0.08,0.5
		c-0.03,0.12-0.05,0.24-0.06,0.36c-0.01,0.12-0.02,0.24-0.03,0.36c-0.03,0.25-0.06,0.51-0.1,0.77c-0.04,0.26-0.09,0.52-0.14,0.77
		c-0.01,0.06,0,0.11,0.04,0.14c0.04,0.04,0.1,0.05,0.16,0.03c0.09-0.04,0.18-0.09,0.28-0.12c0.1-0.04,0.2-0.08,0.3-0.12
		c0.4-0.15,0.8-0.26,1.2-0.33c0.16-0.01,0.32,0.01,0.47,0.09c0.1,0.07,0.21,0.15,0.31,0.22c0.1,0.07,0.22,0.15,0.33,0.22
		c0.15,0.07,0.16,0.19,0.02,0.33c-0.12,0.15-0.26,0.27-0.41,0.37c-0.16,0.1-0.32,0.18-0.48,0.26c-0.13,0.04-0.26,0.1-0.38,0.16
		c-0.04,0.03-0.09,0.05-0.14,0.07c-0.05,0.01-0.09,0.04-0.12,0.07c-0.19,0.15-0.39,0.28-0.59,0.4c-0.2,0.12-0.41,0.24-0.61,0.36
		c-0.03,0.03-0.06,0.06-0.09,0.08c-0.03,0.02-0.06,0.05-0.09,0.08c-0.1,0.09-0.16,0.21-0.16,0.36c0.01,0.42,0.12,0.85,0.31,1.29
		c0.06,0.12,0.15,0.15,0.27,0.09c0.07-0.04,0.16-0.09,0.25-0.12c0.09-0.04,0.17-0.08,0.25-0.12c0.33-0.18,0.65-0.35,0.97-0.52
		c0.32-0.17,0.64-0.35,0.97-0.52c0.21-0.12,0.43-0.21,0.66-0.28c0.23-0.07,0.46-0.13,0.68-0.19c0.13-0.03,0.26-0.04,0.39-0.03
		c0.13,0.01,0.24,0.07,0.35,0.19c0.07,0.09,0.16,0.14,0.27,0.17C180.59,18.52,180.69,18.55,180.79,18.58z"/>
	<path class="st1" d="M183.2,12.62c-0.03,0.3-0.05,0.59-0.06,0.87c-0.01,0.28-0.03,0.57-0.06,0.87c-0.06,1.29,0.03,2.57,0.27,3.84
		l0.27,1.34c0.03,0.13,0.03,0.28,0,0.45c0,0.09-0.04,0.16-0.12,0.22c-0.08,0.06-0.16,0.1-0.23,0.11c-0.19,0-0.33-0.04-0.42-0.11
		c-0.06-0.03-0.11-0.06-0.16-0.1c-0.04-0.04-0.1-0.07-0.16-0.1c-0.06-0.04-0.12-0.05-0.18-0.02c-0.06,0.03-0.12,0.04-0.18,0.02
		c-0.04,0-0.08-0.03-0.11-0.09c-0.03-0.03-0.05-0.06-0.06-0.1c-0.01-0.04-0.02-0.07-0.03-0.1c-0.07-0.43-0.16-0.86-0.25-1.29
		c-0.09-0.43-0.17-0.87-0.25-1.32c-0.06-0.43-0.09-0.87-0.1-1.32c-0.01-0.45-0.01-0.88-0.01-1.32c0-0.45,0.01-0.89,0.04-1.33
		c0.03-0.44,0.06-0.88,0.09-1.33c0.03-0.58,0.07-1.16,0.12-1.73c0.05-0.57,0.1-1.15,0.14-1.73c0.03-0.33,0.05-0.65,0.07-0.98
		c0.01-0.33,0.03-0.65,0.04-0.98c0.01-0.03,0.02-0.07,0.02-0.11c0-0.04,0.01-0.08,0.02-0.11c0-0.04,0.03-0.09,0.08-0.12
		C182.06,6.02,182.1,6,182.13,6c0.24,0.03,0.47,0.06,0.69,0.08c0.22,0.02,0.45,0.05,0.67,0.08c0.12,0.01,0.21,0.1,0.27,0.25
		c0.07,0.25,0.1,0.51,0.07,0.76c-0.03,0.31-0.06,0.62-0.08,0.94c-0.02,0.31-0.06,0.62-0.12,0.94c-0.03,0.21-0.06,0.42-0.1,0.64
		c-0.04,0.22-0.06,0.43-0.08,0.64c-0.01,0.21-0.04,0.42-0.07,0.64c-0.03,0.22-0.06,0.43-0.09,0.64c-0.02,0.18-0.03,0.35-0.04,0.52
		C183.23,12.27,183.22,12.44,183.2,12.62z M181.89,15.65c0,0.1-0.01,0.2-0.02,0.29c-0.02,0.09-0.01,0.17,0.02,0.25
		c0.01,0.04,0.04,0.08,0.07,0.11c0.03,0.03,0.06,0.03,0.09,0c0.04-0.04,0.07-0.08,0.07-0.11C182.1,16.03,182.02,15.85,181.89,15.65z
		 M182.22,13.16c0.06-0.28,0.09-0.57,0.08-0.87c-0.01-0.3-0.03-0.62-0.06-0.98c-0.03,0.09-0.05,0.15-0.07,0.18
		c-0.02,0.03-0.02,0.06-0.02,0.09c-0.03,0.34-0.07,0.69-0.12,1.05c-0.05,0.36-0.06,0.71-0.03,1.05c0,0.13-0.01,0.24-0.02,0.31
		c-0.04,0.16-0.06,0.33-0.06,0.51c0.01,0.18-0.01,0.36-0.06,0.54c0,0.06,0.01,0.1,0.02,0.13c0.03,0.06,0.07,0.09,0.11,0.09
		c0.06,0.06,0.09,0.04,0.09-0.07c0.04-0.21,0.07-0.41,0.07-0.6c0-0.19,0-0.39,0-0.6C182.16,13.73,182.18,13.45,182.22,13.16z
		 M182.18,17.15c0.03-0.16,0-0.3-0.09-0.42h-0.07c-0.04,0.06-0.08,0.12-0.1,0.19c-0.02,0.07-0.02,0.14,0.01,0.21
		c0.03,0.06,0.07,0.09,0.11,0.09C182.09,17.22,182.13,17.19,182.18,17.15z"/>
	<path class="st1" d="M192.26,10.89c0.09,0.12,0.08,0.23-0.02,0.33c-0.06,0.07-0.12,0.14-0.19,0.19c-0.07,0.05-0.14,0.08-0.23,0.08
		c-0.13-0.03-0.26-0.03-0.38,0c-0.13,0-0.26,0-0.39-0.01c-0.13-0.01-0.25,0-0.37,0.03c-0.43,0.09-0.86,0.13-1.29,0.13
		c-0.24,0.01-0.39,0.05-0.45,0.11c-0.06,0.06-0.1,0.22-0.13,0.47c0,0.03,0,0.05,0.01,0.07c0.01,0.01,0.01,0.04,0.01,0.07
		c0,0.16-0.02,0.33-0.07,0.49c-0.04,0.16-0.05,0.33-0.02,0.49c0.03,0.16,0.04,0.32,0.03,0.47c-0.01,0.15-0.01,0.3-0.01,0.47
		c-0.03,0.25-0.03,0.51-0.01,0.77c0.02,0.26,0,0.52-0.08,0.79c0.03,0.19,0.04,0.38,0.02,0.56c-0.02,0.18-0.02,0.36,0,0.56
		c0,0.16,0.01,0.33,0.02,0.49c0.01,0.16,0.01,0.33-0.02,0.49c-0.02,0.07-0.02,0.14-0.01,0.2c0.01,0.06,0.01,0.12,0.01,0.18
		c0.03,0.37,0.06,0.74,0.09,1.1c0.03,0.36,0.06,0.72,0.09,1.08c0.03,0.19,0.06,0.38,0.08,0.57c0.02,0.19,0.05,0.38,0.08,0.57
		c0,0.04,0.01,0.09,0.02,0.13c0.01,0.04,0.03,0.1,0.04,0.16c0.03,0.13,0.07,0.27,0.11,0.4c0.04,0.13,0.08,0.27,0.11,0.4
		c0.03,0.06,0.06,0.12,0.08,0.17c0.02,0.05,0.03,0.12,0.01,0.19c0,0.07-0.01,0.14-0.03,0.21c-0.02,0.07-0.05,0.14-0.08,0.21
		c0,0.06-0.04,0.09-0.11,0.09c-0.1-0.01-0.2-0.03-0.3-0.03c-0.1-0.01-0.19-0.03-0.28-0.06c-0.12-0.03-0.22-0.09-0.31-0.17
		c-0.09-0.08-0.17-0.16-0.25-0.23c-0.04-0.06-0.09-0.12-0.12-0.18c-0.04-0.06-0.08-0.13-0.12-0.2c-0.01-0.03-0.02-0.07-0.02-0.13
		c0.03-0.18,0.02-0.35-0.03-0.52c-0.05-0.17-0.09-0.35-0.1-0.52c0-0.1-0.01-0.2-0.03-0.3c-0.02-0.1-0.04-0.2-0.06-0.3
		c-0.03-0.34-0.06-0.68-0.08-1.01c-0.02-0.33-0.05-0.67-0.08-1.01c-0.03-0.34-0.05-0.68-0.06-1.03c-0.01-0.34-0.03-0.68-0.06-1.03
		l-0.13-2.47c-0.02-0.07-0.02-0.15-0.02-0.23c0-0.08,0-0.16,0-0.23c0.01-0.21,0.02-0.42,0.01-0.64c-0.01-0.22-0.03-0.43-0.06-0.64
		c-0.02-0.3-0.06-0.59-0.13-0.89c0-0.03-0.02-0.06-0.06-0.09c-0.04-0.03-0.07-0.04-0.1-0.04c-0.16,0-0.32,0-0.46,0.01
		c-0.14,0.01-0.29,0.02-0.46,0.03c-0.22,0.03-0.45,0.03-0.67,0c-0.13-0.03-0.26-0.1-0.37-0.21c-0.11-0.11-0.17-0.23-0.19-0.35
		c-0.02-0.16-0.03-0.32-0.03-0.46c-0.01-0.14-0.01-0.29-0.01-0.46c0-0.07,0.01-0.15,0.02-0.22c0.01-0.07,0.04-0.15,0.07-0.22
		c0.01-0.03,0.04-0.06,0.08-0.09c0.04-0.03,0.07-0.04,0.1-0.04c0.25,0.07,0.5,0.1,0.75,0.08c0.25-0.02,0.49-0.03,0.75-0.01
		c0.25,0,0.49-0.01,0.72-0.02c0.23-0.01,0.46-0.03,0.7-0.04c0.13,0,0.26,0,0.39-0.01c0.13-0.01,0.25-0.02,0.37-0.03
		c0.13-0.01,0.26-0.02,0.39-0.02c0.13,0,0.25,0.01,0.37,0.04c0.12,0.03,0.23,0.03,0.35,0c0.11-0.03,0.22-0.01,0.32,0.07
		c0.19,0,0.38,0.01,0.57,0.02c0.19,0.01,0.38,0.01,0.57,0c0.19,0,0.34,0.07,0.45,0.22l0.04,0.04
		C191.75,10.29,191.96,10.61,192.26,10.89z"/>
	<path class="st1" d="M198.71,23.18c0.07,0.18,0.1,0.35,0.09,0.51c0,0.1-0.05,0.19-0.16,0.25c-0.12,0.07-0.24,0.12-0.37,0.13
		c-0.13,0.01-0.26-0.01-0.41-0.09c-0.07-0.03-0.14-0.06-0.2-0.09c-0.06-0.03-0.13-0.06-0.2-0.09c-0.15-0.07-0.23-0.16-0.25-0.27
		c-0.07-0.39-0.16-0.77-0.26-1.15c-0.1-0.38-0.18-0.76-0.26-1.15c-0.07-0.39-0.14-0.78-0.19-1.19c-0.05-0.41-0.12-0.81-0.19-1.19
		c-0.03-0.07-0.05-0.14-0.07-0.19c-0.02-0.05-0.06-0.09-0.13-0.12c-0.24,0.06-0.47,0.12-0.69,0.19c-0.22,0.07-0.45,0.16-0.67,0.28
		c-0.03,0.01-0.06,0.03-0.1,0.03c-0.04,0.01-0.07,0.02-0.1,0.03c-0.07,0.01-0.15,0.02-0.23,0.01c-0.08-0.01-0.14,0.03-0.19,0.1
		c-0.04,0.13-0.07,0.28-0.07,0.45c-0.09,0.61-0.1,1.26-0.02,1.96c0.03,0.21,0.04,0.42,0.04,0.64c0,0.22-0.01,0.43-0.04,0.64
		c-0.06,0.37-0.28,0.58-0.67,0.62c-0.16,0.01-0.33,0.01-0.5-0.01c-0.17-0.02-0.34-0.09-0.5-0.19c-0.13-0.09-0.24-0.19-0.32-0.3
		c-0.08-0.11-0.11-0.26-0.1-0.43c0.03-0.39,0.04-0.77,0.03-1.14c-0.01-0.37,0-0.75,0.01-1.14c0.01-0.22,0.03-0.45,0.04-0.67
		c0.01-0.22,0.04-0.45,0.07-0.69c0.03-0.25,0.06-0.5,0.09-0.75c0.03-0.25,0.06-0.49,0.09-0.75c0.06-0.43,0.11-0.86,0.17-1.28
		c0.05-0.42,0.12-0.84,0.19-1.26c0.1-0.56,0.21-1.13,0.31-1.68c0.1-0.56,0.24-1.11,0.4-1.66c0.1-0.34,0.21-0.69,0.32-1.05
		c0.11-0.36,0.23-0.71,0.35-1.05c0.04-0.15,0.16-0.22,0.33-0.22l1.14,0.07c0.06,0,0.11,0.01,0.16,0.02
		c0.04,0.01,0.09,0.03,0.13,0.04c0.07,0.03,0.16,0.06,0.25,0.1c0.09,0.04,0.18,0.07,0.27,0.1c0.12,0.24,0.23,0.48,0.32,0.71
		c0.1,0.24,0.17,0.49,0.21,0.76c0.03,0.18,0.07,0.35,0.12,0.51c0.05,0.16,0.09,0.33,0.12,0.51c0.04,0.27,0.09,0.53,0.12,0.79
		c0.04,0.26,0.07,0.52,0.1,0.79c0.03,0.25,0.07,0.51,0.11,0.78c0.04,0.27,0.08,0.53,0.11,0.78c0.03,0.25,0.05,0.49,0.07,0.72
		c0.01,0.23-0.01,0.47-0.07,0.72c-0.06-0.09-0.1-0.15-0.13-0.18l-0.02-0.02c-0.02,0-0.02-0.01-0.02-0.02
		c-0.03,0.03-0.07,0.12-0.11,0.28c-0.04,0.16-0.07,0.25-0.07,0.28c0.01,0.01,0.02,0.03,0.02,0.03c0,0.01,0.01,0.02,0.02,0.03
		c0.1,0.1,0.1,0.21,0,0.31c-0.01,0.01-0.02,0.04-0.02,0.07c0,0.03,0.01,0.05,0.04,0.07c0.03,0.03,0.07,0.04,0.11,0.04
		c0.04-0.01,0.09-0.03,0.12-0.04c0.04-0.01,0.07-0.03,0.1-0.04c0.1-0.04,0.16-0.02,0.16,0.07c0,0.34,0.03,0.67,0.09,0.99
		c0.06,0.32,0.1,0.64,0.13,0.97c0.03,0.31,0.08,0.62,0.16,0.94c0.07,0.31,0.13,0.62,0.16,0.94c0.04,0.31,0.1,0.62,0.18,0.93
		C198.52,22.58,198.61,22.88,198.71,23.18z M193.16,15.96c0.03-0.13,0.05-0.27,0.07-0.4c0.01-0.13,0.03-0.27,0.04-0.4
		c-0.01,0-0.02-0.01-0.02-0.02l-0.02-0.02c-0.01,0-0.04,0.01-0.07,0.04c-0.06,0.12-0.09,0.22-0.09,0.29c0,0.07,0.01,0.26,0.04,0.56
		c0-0.01,0.01-0.02,0.02-0.02C193.15,15.98,193.16,15.97,193.16,15.96z M193.27,14.71c0.03-0.06,0.04-0.1,0.04-0.11
		c0-0.01,0-0.03-0.01-0.03c-0.01-0.01-0.01-0.02-0.01-0.03c-0.03,0.06-0.04,0.1-0.04,0.11c0,0.01,0,0.03,0.01,0.03
		C193.27,14.68,193.27,14.69,193.27,14.71z M193.43,13.97c0.01-0.03,0.03-0.05,0.04-0.06c0.01-0.01,0.02-0.03,0.02-0.06
		c0-0.03,0-0.06-0.01-0.1c-0.01-0.04-0.02-0.09-0.03-0.17c-0.01,0.07-0.03,0.13-0.04,0.16c-0.01,0.03-0.02,0.06-0.02,0.09
		C193.38,13.87,193.4,13.91,193.43,13.97z M193.61,12.99h-0.04l0.02,0.07L193.61,12.99z M193.74,12.57c0-0.01,0-0.03,0.01-0.03
		c0.01-0.01,0.01-0.02,0.01-0.03c0-0.01,0-0.03-0.01-0.03c-0.01-0.01-0.01-0.02-0.01-0.03c0,0.01,0,0.02-0.01,0.02
		c-0.01,0-0.01,0.01-0.01,0.02v0.04c0,0.01,0,0.02,0.01,0.02C193.74,12.55,193.74,12.55,193.74,12.57z M194.07,14.55
		c0.12-0.37,0.2-0.75,0.26-1.14c0.05-0.39,0.09-0.77,0.12-1.16c0-0.03-0.03-0.09-0.09-0.18c-0.06,0.06-0.09,0.12-0.08,0.18
		c0.01,0.06,0,0.12-0.03,0.18c-0.06,0.13-0.1,0.25-0.11,0.36c-0.03,0.07-0.05,0.14-0.06,0.19c-0.01,0.05-0.03,0.11-0.06,0.17
		c-0.02,0.06-0.03,0.16-0.04,0.3c-0.02,0.14-0.03,0.3-0.06,0.47c-0.02,0.17-0.04,0.33-0.06,0.48c-0.02,0.15-0.02,0.25-0.02,0.31
		c0,0.04,0.01,0.07,0.04,0.07c0.03,0,0.04-0.01,0.04-0.04C194.02,14.66,194.06,14.6,194.07,14.55z M194.03,11.23v0.11h0.02v-0.11
		H194.03z M194.25,10.45c-0.07,0.07-0.1,0.16-0.09,0.25c0,0.01,0.01,0.04,0.04,0.07c0.07-0.04,0.13-0.12,0.16-0.22
		c0-0.03-0.01-0.07-0.04-0.13c-0.01,0.01-0.03,0.02-0.03,0.02C194.28,10.43,194.27,10.43,194.25,10.45z M196.06,17.45
		c0.04-0.04,0.07-0.08,0.07-0.11c0-0.15,0-0.29-0.01-0.42c-0.01-0.13-0.02-0.27-0.03-0.4c-0.07-0.71-0.16-1.43-0.26-2.14
		c-0.1-0.71-0.22-1.43-0.37-2.14c0-0.03-0.02-0.07-0.04-0.13c-0.02,0-0.03,0-0.03-0.01c-0.01-0.01-0.02-0.01-0.03-0.01
		c-0.04,0-0.07,0.01-0.07,0.02c-0.06,0.12-0.1,0.21-0.11,0.27c-0.04,0.15-0.08,0.3-0.11,0.45c-0.03,0.15-0.07,0.3-0.11,0.45
		c-0.07,0.21-0.13,0.42-0.18,0.62c-0.04,0.21-0.08,0.42-0.11,0.62c-0.03,0.18-0.05,0.35-0.07,0.52c-0.02,0.17-0.04,0.35-0.07,0.52
		c-0.06,0.24-0.1,0.47-0.11,0.7c-0.01,0.23-0.06,0.46-0.13,0.7c-0.01,0.07-0.02,0.14-0.02,0.19c0,0.05,0,0.09,0,0.12
		c0,0.33,0.03,0.51,0.08,0.55c0.05,0.04,0.21,0.03,0.48-0.03c0.19-0.04,0.38-0.09,0.56-0.13c0.18-0.04,0.36-0.09,0.56-0.13
		C195.97,17.52,196.01,17.5,196.06,17.45z M197.49,18.72c-0.07-0.07-0.11-0.06-0.11,0.04c0,0.04,0.01,0.08,0.04,0.11
		c0.04,0.03,0.08,0.01,0.11-0.04C197.53,18.79,197.52,18.75,197.49,18.72z M197.51,19.77c0.04-0.01,0.05-0.05,0.02-0.11l-0.04-0.04
		c-0.06-0.01-0.09,0.01-0.09,0.07C197.46,19.74,197.49,19.77,197.51,19.77z"/>
	<g>
		<polygon class="st1" points="168.93,30.55 168.94,30.53 168.93,30.53 		"/>
		<path class="st1" d="M168.89,30.7c0,0.02-0.01,0.04-0.01,0.04s-0.01,0.02-0.01,0.03c0,0.01,0,0.02,0.01,0.04
			c0-0.01,0.01-0.01,0.01-0.02c0,0,0.01-0.01,0.01-0.02c0-0.01,0-0.02,0-0.03C168.9,30.74,168.9,30.73,168.89,30.7z"/>
		<path class="st1" d="M168.98,30.37C168.98,30.38,168.98,30.38,168.98,30.37c-0.01,0.01-0.01,0.01-0.01,0.01v0.01
			c0,0,0,0.01,0,0.01c0,0,0,0,0,0.01c0,0,0-0.01,0-0.01c0,0,0-0.01,0-0.01C168.98,30.39,168.98,30.38,168.98,30.37
			C168.98,30.38,168.98,30.38,168.98,30.37z"/>
		<path class="st1" d="M167.93,32.23c-0.01,0-0.01,0.01-0.01,0.02c0.01,0.02,0.01,0.03,0.01,0.04c0,0,0.01-0.01,0.01-0.01
			s0.01,0,0.01-0.01v-0.03C167.95,32.23,167.94,32.22,167.93,32.23z"/>
		<path class="st1" d="M168.85,30.97c-0.01,0.02-0.01,0.03-0.01,0.03c0,0,0,0.01,0,0.01c0,0,0,0.01,0,0.01
			c0.01-0.02,0.01-0.03,0.01-0.03C168.86,30.99,168.86,30.99,168.85,30.97C168.85,30.98,168.85,30.98,168.85,30.97z"/>
		<path class="st1" d="M169.16,29.83c0-0.01,0-0.02-0.01-0.04c0,0-0.01,0.01-0.01,0.01c0,0-0.01,0-0.01,0.01
			c-0.02,0.02-0.03,0.04-0.03,0.07c0,0,0,0.01,0.01,0.02C169.13,29.88,169.15,29.86,169.16,29.83z"/>
		<path class="st1" d="M168.83,31.14c0,0-0.01,0-0.02,0.01c-0.02,0.03-0.03,0.06-0.03,0.08s0,0.07,0.01,0.16c0,0,0-0.01,0.01-0.01
			c0,0,0.01,0,0.01-0.01c0.01-0.04,0.01-0.08,0.02-0.12c0-0.04,0.01-0.08,0.01-0.12C168.84,31.15,168.84,31.15,168.83,31.14
			L168.83,31.14z"/>
		<path class="st1" d="M169.18,30.32c0-0.01-0.01-0.03-0.03-0.05c-0.02,0.02-0.02,0.03-0.02,0.05c0,0.02,0,0.03-0.01,0.05
			c-0.02,0.04-0.03,0.07-0.03,0.1c-0.01,0.02-0.01,0.04-0.02,0.05c0,0.01-0.01,0.03-0.02,0.05c0,0.02-0.01,0.05-0.01,0.09
			c0,0.04-0.01,0.09-0.02,0.13c-0.01,0.05-0.01,0.09-0.02,0.14c0,0.04-0.01,0.07-0.01,0.09c0,0.01,0,0.02,0.01,0.02
			c0.01,0,0.01,0,0.01-0.01c0.02-0.02,0.03-0.04,0.04-0.05c0.03-0.11,0.06-0.22,0.07-0.33C169.16,30.54,169.17,30.43,169.18,30.32z"
			/>
		<path class="st1" d="M170.05,32.43c-0.02,0-0.03,0-0.03,0.02c0.02,0.02,0.03,0.03,0.03,0.03c0.01,0,0.01-0.01,0.01-0.03
			L170.05,32.43z"/>
		<path class="st1" d="M169.91,28.61c-1.04-0.45-2.2-0.43-3.31-0.29c-0.3,0.04-0.6,0.09-0.85,0.25c-0.33,0.22-0.54,0.61-0.67,1
			c-0.25,0.74-0.32,1.57-0.1,2.32l0.06,1.03c0.09,1.13,1.51,2.18,2.3,2.24c0.35,0.03,0.7-0.06,1.04-0.16
			c0.86-0.26,1.71-0.62,2.39-1.24c0.68-0.62,1.16-1.54,1.12-2.49C171.82,30.08,170.94,29.07,169.91,28.61z M168.35,33.22
			c0,0.02-0.02,0.04-0.04,0.06c-0.02,0.02-0.05,0.03-0.07,0.03c-0.04,0-0.08-0.01-0.12-0.02c-0.04-0.01-0.07-0.03-0.1-0.07
			c-0.02-0.03-0.04-0.04-0.06-0.04c-0.06-0.01-0.1-0.04-0.12-0.08c-0.02-0.04-0.04-0.09-0.04-0.14c0-0.03-0.01-0.05-0.01-0.07
			c0-0.02-0.01-0.05-0.01-0.07c0-0.04-0.03-0.09-0.07-0.13c-0.14-0.13-0.27-0.27-0.39-0.41s-0.23-0.3-0.33-0.46
			c-0.04-0.07-0.08-0.14-0.12-0.2c-0.04-0.07-0.08-0.14-0.11-0.21c-0.01-0.02-0.02-0.04-0.03-0.06c-0.01-0.02-0.03-0.04-0.04-0.06
			c-0.01-0.01-0.02-0.01-0.04-0.01l-0.02,0.02c-0.03,0.15-0.04,0.3-0.04,0.44v0.59c0,0.05,0,0.1,0,0.15c0,0.05,0,0.1,0.01,0.15
			c0.01,0.04,0.01,0.08,0.01,0.12c0,0.04,0,0.08,0.01,0.12c0,0.08,0.01,0.16,0.02,0.24c0.01,0.08,0.02,0.15,0.04,0.23
			c0.01,0.07-0.01,0.13-0.06,0.19c-0.03,0.04-0.08,0.06-0.13,0.04c-0.09-0.01-0.17-0.05-0.25-0.11c-0.03-0.03-0.06-0.06-0.07-0.1
			c-0.03-0.07-0.04-0.14-0.06-0.22c-0.02-0.14-0.04-0.28-0.05-0.43c-0.01-0.14-0.02-0.29-0.02-0.43c0-0.09,0-0.17-0.01-0.26
			c0-0.09-0.01-0.17-0.01-0.26c0-0.09-0.01-0.17-0.01-0.26s0-0.18,0.01-0.26c0-0.03,0.01-0.06,0.01-0.09c0-0.03,0-0.06,0-0.09
			c0.01-0.14,0.01-0.27,0.02-0.42c0-0.14,0.01-0.28,0.02-0.42c0-0.03,0.01-0.05,0.03-0.06c0.02-0.02,0.04-0.02,0.07-0.02
			c0.04,0,0.08,0.01,0.12,0.02c0.12,0.04,0.23,0.07,0.34,0.09c0.02,0,0.04,0.01,0.07,0.02c0.02,0.01,0.05,0.02,0.07,0.03
			c0.04,0.02,0.08,0.05,0.1,0.1c0.01,0.02,0.02,0.04,0.03,0.06c0.01,0.02,0.02,0.04,0.03,0.06c0.02,0.09,0.04,0.18,0.08,0.26
			c0.03,0.08,0.06,0.17,0.09,0.26c0.02,0.06,0.04,0.12,0.07,0.18c0.03,0.06,0.06,0.12,0.09,0.18c0.05,0.11,0.1,0.21,0.15,0.31
			c0.05,0.1,0.11,0.2,0.17,0.3c0.02,0.02,0.03,0.04,0.05,0.07s0.03,0.05,0.05,0.07c0.01,0,0.02,0.01,0.04,0.01
			c0.01-0.02,0.01-0.03,0.01-0.04c0-0.14,0-0.28,0-0.42c0-0.14,0-0.28-0.01-0.42v-0.03c0-0.14,0.01-0.27,0-0.41
			s-0.01-0.27-0.01-0.41c0-0.02-0.01-0.04,0-0.06c0-0.02,0-0.04,0-0.06c-0.01-0.15-0.01-0.3-0.02-0.45c0-0.15-0.01-0.31-0.02-0.46
			c0-0.04-0.01-0.08,0-0.12c0-0.04,0-0.08,0-0.12c0-0.07,0.01-0.13,0.01-0.2c0-0.06,0-0.13-0.01-0.2c0-0.01,0.01-0.02,0.02-0.03
			c0.01-0.01,0.03-0.01,0.04-0.01l0.08,0.02c0.04,0.02,0.08,0.04,0.12,0.06c0.04,0.02,0.08,0.03,0.13,0.04
			c0.08,0.02,0.13,0.06,0.17,0.11c0.04,0.05,0.05,0.11,0.05,0.18c0,0.05,0,0.09,0,0.14c0,0.04-0.01,0.09-0.01,0.14
			c-0.01,0.07-0.02,0.14-0.02,0.21c0,0.07-0.01,0.14-0.01,0.21c0,0.09,0,0.19,0,0.27c0,0.09-0.01,0.18-0.01,0.27
			c0,0.26,0,0.51,0,0.76c0,0.25,0,0.5,0.01,0.75c0,0.18,0.01,0.36,0.03,0.53c0.02,0.17,0.04,0.35,0.08,0.52
			c0.01,0.05,0.01,0.1,0.01,0.15c0,0.05,0,0.1,0.01,0.15V33.22z M170.39,33.67c-0.03,0.02-0.07,0.03-0.11,0.04s-0.08,0-0.12-0.03
			c-0.02-0.01-0.04-0.02-0.06-0.03c-0.02-0.01-0.04-0.02-0.06-0.03c-0.04-0.02-0.07-0.05-0.07-0.08c-0.02-0.11-0.05-0.22-0.07-0.33
			c-0.03-0.11-0.05-0.22-0.07-0.33c-0.02-0.11-0.04-0.22-0.05-0.34c-0.02-0.12-0.03-0.23-0.05-0.34c-0.01-0.02-0.02-0.04-0.02-0.05
			c0-0.01-0.02-0.03-0.04-0.04c-0.07,0.02-0.13,0.04-0.2,0.05c-0.06,0.02-0.13,0.05-0.19,0.08c-0.01,0-0.02,0.01-0.03,0.01
			c-0.01,0-0.02,0.01-0.03,0.01c-0.02,0-0.04,0.01-0.07,0c-0.02,0-0.04,0.01-0.05,0.03c-0.01,0.04-0.02,0.08-0.02,0.13
			c-0.03,0.17-0.03,0.36-0.01,0.56c0.01,0.06,0.01,0.12,0.01,0.18c0,0.06,0,0.12-0.01,0.18c-0.02,0.11-0.08,0.17-0.19,0.18
			c-0.05,0-0.09,0-0.14,0c-0.05-0.01-0.1-0.02-0.14-0.05c-0.04-0.03-0.07-0.05-0.09-0.09c-0.02-0.03-0.03-0.07-0.03-0.12
			c0.01-0.11,0.01-0.22,0.01-0.33c0-0.11,0-0.22,0-0.33c0-0.06,0.01-0.13,0.01-0.19c0-0.06,0.01-0.13,0.02-0.2
			c0.01-0.07,0.02-0.14,0.03-0.21c0.01-0.07,0.02-0.14,0.03-0.21c0.02-0.12,0.03-0.25,0.05-0.37c0.01-0.12,0.03-0.24,0.05-0.36
			c0.03-0.16,0.06-0.32,0.09-0.48c0.03-0.16,0.07-0.32,0.12-0.48c0.03-0.1,0.06-0.2,0.09-0.3c0.03-0.1,0.06-0.2,0.1-0.3
			c0.01-0.04,0.04-0.06,0.1-0.06l0.33,0.02c0.02,0,0.03,0,0.04,0.01c0.01,0,0.03,0.01,0.04,0.01c0.02,0.01,0.04,0.02,0.07,0.03
			c0.03,0.01,0.05,0.02,0.08,0.03c0.03,0.07,0.07,0.14,0.09,0.2c0.03,0.07,0.05,0.14,0.06,0.22c0.01,0.05,0.02,0.1,0.04,0.15
			c0.01,0.05,0.03,0.1,0.04,0.15c0.01,0.08,0.02,0.15,0.04,0.23c0.01,0.07,0.02,0.15,0.03,0.23c0.01,0.07,0.02,0.15,0.03,0.22
			c0.01,0.08,0.02,0.15,0.03,0.22c0.01,0.07,0.01,0.14,0.02,0.21c0,0.07,0,0.14-0.02,0.21c-0.02-0.03-0.03-0.04-0.04-0.05
			l-0.01-0.01c0,0-0.01,0-0.01-0.01c-0.01,0.01-0.02,0.04-0.03,0.08c-0.01,0.04-0.02,0.07-0.02,0.08c0,0,0.01,0.01,0.01,0.01
			c0,0,0,0.01,0.01,0.01c0.03,0.03,0.03,0.06,0,0.09c0,0-0.01,0.01-0.01,0.02c0,0.01,0,0.02,0.01,0.02
			c0.01,0.01,0.02,0.01,0.03,0.01c0.01,0,0.02-0.01,0.04-0.01c0.01,0,0.02-0.01,0.03-0.01c0.03-0.01,0.04-0.01,0.04,0.02
			c0,0.1,0.01,0.19,0.03,0.28c0.02,0.09,0.03,0.18,0.04,0.28c0.01,0.09,0.02,0.18,0.04,0.27c0.02,0.09,0.04,0.18,0.04,0.27
			c0.01,0.09,0.03,0.18,0.05,0.27c0.02,0.09,0.05,0.17,0.08,0.26c0.02,0.05,0.03,0.1,0.03,0.15
			C170.43,33.63,170.41,33.66,170.39,33.67z"/>
		<path class="st1" d="M169.65,31.54c-0.02-0.2-0.05-0.41-0.07-0.61c-0.03-0.2-0.06-0.41-0.11-0.61c0-0.01,0-0.02-0.01-0.04
			c0,0-0.01,0-0.01,0c0,0-0.01,0-0.01,0c-0.01,0-0.02,0-0.02,0.01c-0.02,0.03-0.03,0.06-0.03,0.08c-0.01,0.04-0.02,0.09-0.03,0.13
			c-0.01,0.04-0.02,0.09-0.03,0.13c-0.02,0.06-0.04,0.12-0.05,0.18c-0.01,0.06-0.02,0.12-0.03,0.18c-0.01,0.05-0.01,0.1-0.02,0.15
			c0,0.05-0.01,0.1-0.02,0.15c-0.02,0.07-0.03,0.14-0.03,0.2c0,0.07-0.02,0.13-0.04,0.2c0,0.02-0.01,0.04-0.01,0.05
			c0,0.02,0,0.03,0,0.04c0,0.09,0.01,0.15,0.02,0.16c0.01,0.01,0.06,0.01,0.14-0.01c0.06-0.01,0.11-0.03,0.16-0.04
			c0.05-0.01,0.1-0.03,0.16-0.04c0.01,0,0.03-0.01,0.04-0.02c0.01-0.01,0.02-0.02,0.02-0.03c0-0.04,0-0.08,0-0.12
			C169.66,31.62,169.65,31.58,169.65,31.54z"/>
		<rect x="169.06" y="30.03" class="st1" width="0.01" height="0.03"/>
		<path class="st1" d="M170.07,32.21c0-0.01,0-0.02-0.01-0.03c-0.02-0.02-0.03-0.02-0.03,0.01c0,0.01,0,0.02,0.01,0.03
			C170.05,32.23,170.06,32.22,170.07,32.21z"/>
	</g>
</g>
</svg>
