<?xml version="1.0" encoding="utf-8"?>
<!-- Generator: Adobe Illustrator 24.0.1, SVG Export Plug-In . SVG Version: 6.00 Build 0)  -->
<svg version="1.1" id="Camada_1" xmlns="http://www.w3.org/2000/svg" xmlns:xlink="http://www.w3.org/1999/xlink" x="0px" y="0px"
	 viewBox="0 0 219 219" style="enable-background:new 0 0 219 219;" xml:space="preserve">
<style type="text/css">
	.st0{fill:#BE1B2E;}
	.st1{fill:#FFFFFF;}
</style>
<path class="st0" d="M208.9,0H10.1C4.5,0,0,4.5,0,10.1V209c0,5.5,4.5,10,10.1,10H209c5.6,0,10.1-4.5,10.1-10.1V10.1
	C219,4.5,214.5,0,208.9,0z M215,208.9c0,3.3-2.7,6-6,6h-142l-13-20.2c-1.6-2.5-4.1-4.3-7-5L4,179.7V10.1c0-3.3,2.7-6,6-6h114.3
	l19.2,29.9c2.3,3.5,5.8,6,9.9,7L215,55.3L215,208.9L215,208.9z"/>
<g>
	<path class="st1" d="M192.5,20.2c0.5,0,0.6,0,0.6,0.6c0,3.9-0.1,7.7-0.1,11.6c0,0.7,0,0.7-0.7,0.7c-4,0-8-0.1-12.1-0.1
		c-0.5,0-0.6-0.1-0.5-0.6c0.1-2.9,0.1-5.7,0.2-8.6c0-1.1,0.1-2.2,0.1-3.2c0-0.4,0.2-0.4,0.5-0.4c2,0,4.1,0,6.1,0
		C186.5,20.1,190.5,20.2,192.5,20.2z M191.7,26.6c0.1-2.9-2.5-5.3-5.3-5.3c-2.8,0-5.2,2.6-5.2,5.3c0.1,3,2.4,5.3,5.3,5.3
		C189.2,31.9,191.7,29.5,191.7,26.6z"/>
	<path class="st1" d="M167.6,28.6c0-1.6,0-3.2,0-4.8c0-0.5,0-0.5,0.5-0.5c1,0,2,0,3,0c0.3,0,0.6,0.1,0.8,0.3c0.7,0.7,1.3,1.4,2,2.1
		c0.2,0.2,0.3,0.4,0.3,0.7c0,1.5,0,3.1,0,4.6c0,0.3-0.1,0.5-0.3,0.7c-0.7,0.6-1.4,1.3-2.1,1.9c-0.2,0.1-0.4,0.3-0.7,0.3
		c-1,0-2,0-3.1,0c-0.4,0-0.4-0.1-0.4-0.5C167.6,31.8,167.6,30.2,167.6,28.6z M169,28.7c0,1.2,0,2.3,0,3.5c0,0.4,0,0.5,0.5,0.5
		c0.3,0,0.7,0,1,0c0.2,0,0.5-0.1,0.6-0.2c0.5-0.4,0.9-0.8,1.4-1.2c0.3-0.2,0.4-0.5,0.4-0.8c0-1.1,0.1-2.1,0.1-3.2
		c0-0.2-0.1-0.5-0.3-0.7c-0.4-0.5-0.8-0.9-1.2-1.4c-0.3-0.3-0.7-0.5-1.1-0.5c-0.3,0-0.6,0-0.9,0c-0.5,0-0.5,0-0.5,0.5
		C169,26.4,169,27.5,169,28.7z"/>
	<path class="st1" d="M154,28.7c0-1.6,0-3.2,0-4.9c0-0.5,0-0.5,0.5-0.5c1.4,0,2.8,0,4.2,0c0.5,0,0.5,0,0.5,0.5c0,1.1,0,2.1,0,3.2
		c0,0.3-0.1,0.6-0.4,0.7c-0.3,0.2-0.6,0.4-0.9,0.5c-0.3,0.2-0.4,0.4-0.3,0.7c0.3,1,0.6,2,0.8,3c0.1,0.5,0.3,1.1,0.4,1.6
		c0.1,0.4,0,0.4-0.3,0.4c-0.8,0-0.8,0-1-0.7c-0.4-1.4-0.8-2.8-1.1-4.2c-0.1-0.4-0.8-0.6-1.1-0.4c-0.1,0.1-0.1,0.3-0.1,0.4
		c0,1.4,0,2.8,0,4.1c0,0.7,0,0.7-0.8,0.7c-0.4,0-0.4,0-0.4-0.4C154,31.9,154,30.3,154,28.7C154,28.7,154,28.7,154,28.7z M155.3,25.8
		C155.3,25.8,155.3,25.8,155.3,25.8c0,0.3,0,0.7,0,1c0,0.3,0.1,0.4,0.4,0.4c0.3,0,0.6,0,0.9,0c0.4,0,0.8-0.1,1-0.4
		c0.1-0.1,0.3-0.3,0.3-0.5c0-0.5,0-1,0-1.5c0-0.3-0.1-0.3-0.4-0.3c-0.6,0-1.3,0-1.9,0c-0.2,0-0.4,0.1-0.4,0.4
		C155.3,25.1,155.3,25.4,155.3,25.8z"/>
	<path class="st1" d="M163.3,20.5c0.3,0,0.7,0,1,0c0.3,0,0.4,0.1,0.5,0.4c0.1,0.8,0.2,1.7,0.3,2.5c0.2,1.7,0.4,3.4,0.6,5
		c0.1,0.8,0.2,1.6,0.3,2.4c0,0.3-0.1,0.4-0.3,0.4c-0.9,0-0.9,0.2-1-0.7c-0.2-1.3-0.4-2.6-0.7-4c0-0.1,0-0.2-0.1-0.3c0,0,0-0.1,0-0.1
		c-0.3-0.5-0.7-0.2-1.1-0.2c-0.2,0-0.3,0.2-0.3,0.4c-0.2,1.5-0.4,2.9-0.6,4.4c-0.1,0.4-0.1,0.5-0.5,0.5c-1,0-0.8,0-0.8-0.8
		c0.2-1.8,0.4-3.7,0.6-5.5c0.1-1.3,0.3-2.6,0.4-3.9c0-0.4,0.1-0.4,0.5-0.4C162.6,20.5,162.9,20.5,163.3,20.5z M163.7,23.1
		c0-0.3,0-0.6,0-0.9c0-0.3-0.2-0.3-0.4-0.3c-0.2,0-0.4,0.1-0.4,0.3c0,0.6-0.1,1.2-0.1,1.8c0,0.3,0.1,0.4,0.4,0.4
		c0.4,0,0.5-0.1,0.5-0.3C163.7,23.7,163.7,23.4,163.7,23.1z"/>
	<path class="st1" d="M206.3,23.5c0.3,0,0.6,0,0.9,0c0.5,0,0.5,0,0.6,0.5c0.1,0.9,0.2,1.8,0.3,2.6c0.2,1.7,0.4,3.4,0.6,5
		c0.1,0.7,0.2,1.5,0.3,2.2c0,0.2-0.1,0.3-0.3,0.4c-0.9,0.2-0.9,0.2-1-0.7c-0.2-1.4-0.5-2.8-0.7-4.2c0-0.3-0.2-0.4-0.5-0.4
		c-0.9-0.1-0.9-0.1-1,0.8c-0.2,1.3-0.3,2.5-0.5,3.8c-0.1,0.7-0.1,0.7-0.8,0.7c-0.1,0-0.2,0-0.3,0c-0.2,0-0.3-0.1-0.3-0.3
		c0.2-1.6,0.4-3.3,0.5-4.9c0.2-1.7,0.4-3.3,0.6-5c0-0.4,0.1-0.4,0.5-0.5C205.6,23.5,206,23.5,206.3,23.5z M205.9,26.5
		C205.9,26.5,205.9,26.5,205.9,26.5c0,0.1,0,0.3,0,0.4c0,0.2,0,0.3,0.3,0.4c0.4,0,0.6,0,0.6-0.3c0.1-0.6,0.1-1.2,0.2-1.7
		c0-0.2-0.1-0.4-0.3-0.4c-0.5,0-0.6,0-0.6,0.3C205.9,25.6,205.9,26.1,205.9,26.5z"/>
	<path class="st1" d="M200,31.9c-0.9-0.1-1.8-0.2-2.7-0.3c-0.7-0.1-1.1-0.5-1.4-1.1c-0.4-0.8-0.6-1.6-0.6-2.4
		c-0.1-1.5-0.1-3,0.4-4.4c0.1-0.4,0.3-0.7,0.4-1.1c0.3-0.7,1-1,1.7-1.1c1.2-0.2,2.4-0.2,3.6-0.1c0.2,0,0.4,0.1,0.4,0.4
		c0,0.2,0,0.5,0,0.7c0,0.2-0.1,0.4-0.4,0.3c-0.5,0-0.9,0-1.4,0c-0.5,0-1.1,0.1-1.6,0.2c-0.6,0.1-1,0.4-1.2,0.9
		c-0.5,1-0.7,2.1-0.6,3.3c0,0.7,0.2,1.3,0.4,1.9c0.3,0.6,0.7,1,1.4,1.1c0.9,0.1,1.8,0.1,2.7,0.1c0.6,0,0.6,0,0.6,0.6
		c0,0.2,0,0.4,0,0.6c0,0.2-0.1,0.4-0.4,0.4c-0.5,0-1,0-1.4,0C200,31.8,200,31.9,200,31.9z"/>
	<path class="st1" d="M186.9,12c0,1.6,0.1,3.1,0.1,4.7c0,0.2,0,0.4,0,0.6c0,0.1-0.1,0.3-0.1,0.3c-0.3,0-0.6,0-0.9,0
		c-0.1,0-0.1-0.1-0.1-0.2c0-0.1,0-0.2,0-0.3c-0.1-2.7-0.1-5.3-0.2-8c0-0.7-0.1-1.5-0.1-2.2c0-0.4,0-0.4,0.4-0.5c0.7,0,0.7,0,0.8,0.7
		C186.9,8.7,186.9,10.4,186.9,12C186.9,12,186.9,12,186.9,12z"/>
	<path class="st1" d="M177.5,27.2c0,1.2,0,2.5,0,3.7c0,0.5,0,0.5-0.5,0.5c-1,0-0.9,0.1-0.9-0.9c0-2.3,0-4.6,0-6.9c0-0.1,0-0.2,0-0.4
		c0-0.2,0.1-0.3,0.3-0.3c1.3,0,1-0.1,1,1C177.5,25.1,177.5,26.2,177.5,27.2z"/>
	<path class="st1" d="M181.5,9.6c0.1,0.1,0.2,0.2,0.2,0.4c0.3,0.7,0.5,1.4,0.7,2.1c0.7,2.1,1.5,4.2,2.2,6.3c0.1,0.4,0.1,0.4-0.3,0.6
		c-0.7,0.3-0.7,0.3-0.9-0.4c-1-2.7-1.9-5.4-2.9-8.1c-0.2-0.4-0.1-0.5,0.3-0.6C181.1,9.7,181.3,9.7,181.5,9.6z"/>
	<path class="st1" d="M189.2,18.9c-0.2,0-0.4-0.1-0.6-0.2c-0.2-0.1-0.2-0.2-0.2-0.4c0.2-0.9,0.5-1.7,0.7-2.6c0.5-2,1-3.9,1.5-5.9
		c0.1-0.4,0.1-0.4,0.5-0.3c0.7,0.2,0.7,0.1,0.5,0.9c-0.7,2.7-1.4,5.4-2.2,8.1C189.6,18.7,189.5,18.9,189.2,18.9z"/>
	<path class="st1" d="M192.3,19c-0.3-0.2-0.6-0.4-0.8-0.6c0,0,0.1-0.3,0.1-0.4c1.1-1.7,2.3-3.5,3.4-5.2c0.3-0.4,0.5-0.8,0.8-1.2
		c0.1-0.2,0.3-0.2,0.5-0.1c0.8,0.5,0.7,0.4,0.3,1.1c-1.3,2-2.6,4-4,6.1C192.5,18.8,192.4,18.9,192.3,19z"/>
	<path class="st1" d="M176.8,11.3c0.1,0.1,0.1,0.3,0.2,0.4c0.9,1.1,1.8,2.2,2.7,3.3c0.5,0.7,1.1,1.3,1.6,2c0.3,0.3,0.3,0.3-0.1,0.6
		c-0.6,0.5-0.5,0.6-1.1-0.1c-1.4-1.7-2.7-3.3-4.1-5c-0.4-0.4-0.4-0.4,0.1-0.8C176.4,11.7,176.5,11.5,176.8,11.3z"/>
	<path class="st1" d="M175.4,16.3c0.1,0.1,0.2,0.1,0.3,0.2c1.1,0.6,2.2,1.2,3.3,1.8c0.3,0.1,0.3,0.3,0.2,0.5
		c-0.4,0.7-0.3,0.8-1.1,0.3c-1-0.5-2-1.1-3-1.6c-0.4-0.2-0.4-0.3-0.2-0.6c0.1-0.1,0.1-0.3,0.2-0.4C175.2,16.4,175.3,16.4,175.4,16.3
		z"/>
	<path class="st1" d="M197,16c0.1,0,0.1,0.1,0.2,0.1c0.7,0.6,0.7,0.7,0,1.2c-0.6,0.5-1.2,1.1-1.8,1.6c-0.3,0.3-0.4,0.3-0.6,0
		c-0.5-0.6-0.5-0.5,0.1-1c0.6-0.6,1.2-1.1,1.9-1.7C196.8,16.1,196.9,16.1,197,16z"/>
	<path class="st1" d="M176.8,20.7c0.7,0,0.7,0,0.7,0.7c0,0.1,0,0.2,0,0.3c0,0.2-0.1,0.3-0.3,0.3c-0.1,0-0.1,0-0.2,0
		c-0.9,0-0.9,0-0.9-0.9c0-0.4,0-0.4,0.4-0.4C176.6,20.7,176.7,20.7,176.8,20.7z"/>
	<path class="st1" d="M190.5,26.6c0,2.3-1.8,4-4.2,4c-2.2,0-3.9-1.8-4-4c0-2.5,1.9-4.1,3.9-4.1C188.7,22.4,190.5,24.2,190.5,26.6z
		 M186.1,26.6c0,0,0,0.1,0,0.1c0.1,0,0.2,0,0.3,0c0.4,0,0.8,0,1.2,0c0.7,0.1,1.2-0.4,1.8-0.7c0.1,0,0.1-0.2,0.1-0.3
		c0-0.1-0.2-0.2-0.2-0.2c-0.8,0-1.7-0.2-2.4,0.5C186.7,26.3,186.4,26.4,186.1,26.6z M186.7,25.6c-1-0.3-2.7,0.3-3.1,1
		C184.6,26.9,185.8,26.5,186.7,25.6z M187.5,27.2c0,0,0-0.1,0-0.1c-0.1,0-0.2,0-0.3,0c-0.3,0-0.7,0-1,0c-0.7-0.1-1.2,0.2-1.7,0.6
		c0,0-0.1,0.1-0.1,0.2c0.1,0,0.1,0.1,0.2,0.1c0.6,0,1.2,0.1,1.8,0C186.7,27.9,187.1,27.5,187.5,27.2z M185.2,29.2
		c1.2,0.2,2.2,0,3-0.8C187.3,28.1,186,28.4,185.2,29.2z M190.1,27.1c-0.7-0.3-2.3,0.1-2.7,0.8C188.5,28.2,189.8,27.8,190.1,27.1z
		 M188.6,24.4c-0.6-0.4-2.2,0.1-2.5,0.7C187.1,25.4,188.1,25.1,188.6,24.4z M185.5,28.5C185.5,28.4,185.5,28.4,185.5,28.5
		c-0.1-0.1-0.1-0.1-0.2-0.1c-0.4,0-0.9,0-1.3,0c-0.2,0-0.5,0.1-0.7,0.2c0.1,0.2,0.3,0.4,0.4,0.6c0.1,0.1,0.3,0.2,0.4,0.1
		C184.7,29,185.1,28.7,185.5,28.5z M183.7,25.1c0.6,0.3,1.8-0.1,2.3-0.7C185.5,24.1,184.1,24.6,183.7,25.1z M185.9,23.8
		c0.7,0.3,1.7,0,2.1-0.5c-0.3-0.2-0.6-0.3-0.8-0.2C186.7,23.2,186.3,23.5,185.9,23.8z M184.2,23.8c0.5,0.2,1.8-0.3,2.2-0.9
		C185.8,22.8,184.5,23.3,184.2,23.8z M187.9,29.3c0.9,0.2,1.5-0.1,1.7-0.8C189.3,28.3,188.3,28.8,187.9,29.3z M184.2,27.2
		c0,0,0-0.1,0-0.1c-0.4-0.1-0.8,0-1.2,0c-0.1,0-0.2,0.1-0.2,0.2c0,0.2,0.1,0.4,0.2,0.5c0,0.1,0.2,0.1,0.3,0
		C183.6,27.6,183.9,27.4,184.2,27.2z M182.7,26.5c0.5-0.3,0.9-0.4,1.3-0.9C182.8,25.5,182.8,25.5,182.7,26.5z M186.4,30.2
		c0.5,0.1,1.4-0.1,1.6-0.4C187.5,29.5,186.8,29.7,186.4,30.2z M188.6,25.1C188.6,25.1,188.6,25.1,188.6,25.1
		c0.4,0.1,0.9,0.1,1.3,0.1c-0.1-0.2-0.2-0.4-0.3-0.5c-0.1-0.1-0.2-0.1-0.3-0.1C189,24.7,188.8,24.9,188.6,25.1z M184.6,29.7
		c0.7,0.5,1,0.5,1.4,0C185.6,29.7,185.2,29.7,184.6,29.7z M188.9,23.9c-0.3-0.4-0.6-0.4-0.8,0C188.3,23.9,188.6,23.9,188.9,23.9z
		 M190.2,26.3c0,0-0.1,0-0.1-0.1c-0.2,0.1-0.3,0.2-0.5,0.3c0,0,0,0.1,0,0.1c0.2,0,0.3,0,0.5,0C190.2,26.6,190.2,26.4,190.2,26.3z
		 M183.9,24.4c-0.4-0.2-0.6,0-0.5,0.3C183.6,24.6,183.8,24.5,183.9,24.4z"/>
</g>
</svg>
