<?xml version="1.0" encoding="utf-8"?>
<!-- Generator: Adobe Illustrator 24.0.1, SVG Export Plug-In . SVG Version: 6.00 Build 0)  -->
<svg version="1.1" id="Camada_1" xmlns="http://www.w3.org/2000/svg" xmlns:xlink="http://www.w3.org/1999/xlink" x="0px" y="0px"
	 viewBox="0 0 219 219" style="enable-background:new 0 0 219 219;" xml:space="preserve">
<style type="text/css">
	.st0{fill:#BE1B2E;}
	.st1{fill:#FFFFFF;}
</style>
<path class="st0" d="M208.9,0H10.1C4.5,0,0,4.5,0,10.1V209c0,5.5,4.5,10,10.1,10H209c5.6,0,10.1-4.5,10.1-10.1V10.1
	C219,4.5,214.5,0,208.9,0z M215,208.9c0,3.3-2.7,6-6,6h-142l-13-20.2c-1.6-2.5-4.1-4.3-7-5L4,179.7V10.1c0-3.3,2.7-6,6-6h114.3
	l19.2,29.9c2.3,3.5,5.8,6,9.9,7L215,55.3L215,208.9L215,208.9z"/>
<g>
	<path class="st1" d="M185.7,12.6v12.2c0,0.4,0.3,0.7,0.7,0.7l0,0c0.4,0,0.7-0.3,0.7-0.7c0-4.1,0-8.1,0-12.2c0-0.4-0.3-0.7-0.7-0.7
		l0,0C186.1,11.9,185.7,12.2,185.7,12.6z M199.2,19.3c0,0.4-0.3,0.7-0.7,0.7l0,0c-0.4,0-0.8-0.3-0.8-0.7V18c0-0.4,0.3-0.7,0.8-0.7
		l0,0c0.4,0,0.7,0.3,0.7,0.7C199.2,20.1,199.2,17.3,199.2,19.3z M166.2,19.3c0,0.4-0.3,0.7-0.7,0.7l0,0c-0.4,0-0.8-0.3-0.8-0.7V18
		c0-0.4,0.3-0.7,0.8-0.7l0,0c0.4,0,0.7,0.3,0.7,0.7C166.2,20.1,166.2,17.3,166.2,19.3z M188.7,21.7c0,0.4,0.3,0.7,0.7,0.7l0,0
		c0.4,0,0.7-0.3,0.7-0.7v-6.1c0-0.4-0.3-0.7-0.7-0.7l0,0c-0.4,0-0.7,0.3-0.7,0.7C188.7,17.7,188.7,19.7,188.7,21.7z M181.9,9.9
		L181.9,9.9c1.2,0,2.3,1,2.3,2.3v3.6c0,0.4-0.3,0.7-0.7,0.7h-0.1c-0.4,0-0.7-0.3-0.7-0.7v-3.6c0-0.4-0.3-0.7-0.7-0.7h0
		c-0.4,0-0.7,0.3-0.7,0.7V18h2.2c0.4,0,0.8,0.3,0.8,0.8l0,0h0v6.6c0,1.2-1,2.3-2.3,2.3h0c-1.2,0-2.3-1-2.3-2.3v-3.6
		c0-0.4,0.3-0.7,0.7-0.7h0.1c0.4,0,0.7,0.3,0.7,0.7v3.6c0,0.4,0.3,0.7,0.7,0.7h0c0.4,0,0.7-0.3,0.7-0.7v-5.8h-1.5
		c-1.4,0-1.5-0.4-1.5-1.3v-6C179.7,10.9,180.7,9.9,181.9,9.9L181.9,9.9z M175.2,20.9v0.5c0,0.4-0.3,0.7-0.7,0.7l0,0
		c-0.4,0-0.8-0.3-0.8-0.7V16c0-0.4,0.3-0.8,0.8-0.8l0,0c0.4,0,0.7,0.3,0.7,0.8C175.2,17.9,175.2,19,175.2,20.9L175.2,20.9z
		 M160.2,18.7L160.2,18.7c0,0.4-0.3,0.7-0.7,0.7h0c-0.4,0-0.7-0.3-0.7-0.7v0c0-0.4,0.3-0.7,0.7-0.7h0
		C159.9,18,160.2,18.3,160.2,18.7z M163.2,18.7L163.2,18.7c0,0.4-0.3,0.7-0.7,0.7h0c-0.4,0-0.7-0.3-0.7-0.7v0c0-0.4,0.3-0.7,0.7-0.7
		h0C162.9,18,163.2,18.3,163.2,18.7z M172.2,14.7v7.9c0,0.4-0.3,0.7-0.7,0.7l0,0c-0.4,0-0.7-0.3-0.7-0.7c0-4.1,0-3.9,0-7.9
		c0-0.4,0.3-0.8,0.7-0.8l0,0C171.9,14,172.2,14.3,172.2,14.7z M169.2,20.2c0,0.4-0.3,0.7-0.7,0.7l0,0c-0.4,0-0.7-0.3-0.7-0.7v-3
		c0-0.4,0.3-0.7,0.7-0.7l0,0c0.4,0,0.7,0.3,0.7,0.7C169.2,19.2,169.2,18.2,169.2,20.2z M178.2,12.6v12.2c0,0.4-0.3,0.7-0.7,0.7l0,0
		c-0.4,0-0.7-0.3-0.7-0.7c0-4.1,0-8.1,0-12.2c0-0.4,0.3-0.7,0.7-0.7l0,0C177.9,11.9,178.2,12.2,178.2,12.6z M202.2,18.7L202.2,18.7
		c0,0.4-0.3,0.7-0.7,0.7h0c-0.4,0-0.7-0.3-0.7-0.7v0c0-0.4,0.3-0.7,0.7-0.7h0C201.9,18,202.2,18.3,202.2,18.7z M205.2,18.7
		L205.2,18.7c0,0.4-0.3,0.7-0.7,0.7h0c-0.4,0-0.7-0.3-0.7-0.7v0c0-0.4,0.3-0.7,0.7-0.7h0C204.9,18,205.2,18.3,205.2,18.7z
		 M194.7,20.2c0,0.4,0.3,0.7,0.7,0.7l0,0c0.4,0,0.7-0.3,0.7-0.7v-3c0-0.4-0.3-0.7-0.7-0.7l0,0c-0.4,0-0.7,0.3-0.7,0.7
		C194.7,19.2,194.7,18.2,194.7,20.2z M191.7,14.7v7.9c0,0.4,0.3,0.7,0.7,0.7l0,0c0.4,0,0.7-0.3,0.7-0.7c0-4.1,0-3.9,0-7.9
		c0-0.4-0.3-0.7-0.7-0.7l0,0C192.1,14,191.7,14.3,191.7,14.7z"/>
	<g>
		<path class="st1" d="M164.9,30.2L164.9,30.2C164.9,30.2,164.9,30.2,164.9,30.2C164.9,30.2,164.9,30.2,164.9,30.2
			C164.9,30.2,164.9,30.2,164.9,30.2C164.9,30.2,164.9,30.1,164.9,30.2c-0.1-0.1-0.1-0.1-0.1-0.1c0,0,0,0,0,0c0,0,0,0,0,0
			c0,0,0,0,0,0c0,0,0,0,0-0.1c0,0,0,0,0,0c0,0,0,0,0,0c0,0,0,0,0,0c0,0,0,0,0,0c0,0,0,0,0,0c0,0,0,0,0-0.1c0,0,0,0,0,0c0,0,0,0,0,0
			c0,0,0,0,0,0c0,0,0,0,0,0c0,0,0,0,0,0c0,0,0,0,0,0c0,0,0,0,0,0c0,0,0,0-0.1,0c0,0,0,0,0,0c0,0,0,0,0,0c0,0,0,0,0,0c0,0,0,0,0,0
			c0,0,0,0,0,0c0,0,0,0-0.1,0c0,0,0,0,0,0c0,0,0,0-0.1,0c0,0,0,0,0,0c0,0,0,0-0.1,0c0,0,0,0,0,0c0,0,0,0-0.1,0c0,0,0,0,0,0
			c0,0,0,0-0.1,0c0,0,0,0,0,0c0,0,0,0-0.1,0c0,0,0,0,0,0c0,0,0,0-0.1,0c0,0,0,0,0,0c0,0,0,0-0.1,0c0,0,0,0,0,0c0,0-0.1,0-0.1,0
			c0,0,0,0,0,0c0,0,0,0-0.1,0c0,0,0,0,0,0c0,0,0,0-0.1,0c0,0,0,0,0,0c0,0-0.1,0-0.1,0h0h-2.4l0,0c0,0-0.1,0-0.1,0c0,0-0.1,0-0.1,0
			c0,0-0.1,0-0.1,0c0,0,0,0,0,0c-0.6,0.1-1.1,0.5-1.3,0.9c0,0.1,0,0.1-0.1,0.2c0,0,0,0.1,0,0.1c0,0,0,0.1,0,0.1c0,0,0,0.1,0,0.1
			c0,0,0,0.1,0,0.1l0,0v1.2v0.3c0,0.2,0,0.3,0.1,0.5h0l0,0c0,0,0,0,0,0c0,0,0,0,0,0c0,0,0,0,0,0.1c0,0,0,0,0,0c0,0,0,0,0,0
			c0,0,0,0,0,0c0,0,0,0,0,0c0,0,0,0,0,0c0,0,0,0,0,0.1c0,0,0,0,0,0c0,0,0,0,0,0c0,0,0,0,0,0c0,0,0,0,0,0c0,0,0,0,0,0c0,0,0,0,0,0.1
			c0,0,0,0,0,0c0,0,0,0,0,0c0,0,0,0,0,0c0,0,0,0,0,0c0,0,0,0,0,0c0,0,0,0,0,0c0,0,0,0,0,0c0,0,0,0,0.1,0c0,0,0,0,0,0c0,0,0,0,0,0
			c0,0,0,0,0,0c0,0,0,0,0,0c0,0,0,0,0,0c0,0,0,0,0.1,0c0,0,0,0,0,0c0,0,0,0,0.1,0c0,0,0,0,0,0c0,0,0,0,0.1,0c0,0,0,0,0,0
			c0,0,0,0,0.1,0c0,0,0,0,0,0c0,0,0,0,0.1,0c0,0,0,0,0,0c0,0,0,0,0.1,0c0,0,0,0,0,0c0,0,0,0,0.1,0c0,0,0,0,0,0c0,0,0,0,0.1,0
			c0,0,0,0,0,0c0,0,0.1,0,0.1,0c0,0,0,0,0,0c0,0,0,0,0.1,0c0,0,0,0,0,0c0,0,0,0,0.1,0c0,0,0,0,0,0c0,0,0.1,0,0.1,0l0,0h2.4h0
			c0,0,0.1,0,0.1,0c0,0,0.1,0,0.1,0c0,0,0.1,0,0.1,0c0,0,0,0,0,0c0.7-0.1,1.3-0.6,1.4-1.2c0,0,0,0,0-0.1c0,0,0-0.1,0-0.1
			c0,0,0-0.1,0-0.1l0,0V31v-0.3C165,30.6,165,30.4,164.9,30.2L164.9,30.2z M163.9,32.2c0,0.3-0.3,0.5-0.6,0.5c0,0,0,0,0,0h-1.7h-0.7
			c-0.3,0-0.6-0.2-0.6-0.5v-0.3v-1.2c0-0.1,0.1-0.3,0.2-0.4c0,0,0.1-0.1,0.1-0.1c0,0,0.1,0,0.1,0c0,0,0,0,0,0c0,0,0.1,0,0.1,0
			c0,0,0,0,0,0h1.7h0.7c0.3,0,0.6,0.2,0.6,0.5V31V32.2z"/>
		<path class="st1" d="M187.9,29.2c-0.8,0-1.5,0.6-1.5,1.3v0.1c0,0,0,0,0,0.1v1.2v0v1.8h1.2v-1.8h0.4h1.7h0.3h2.2v-1h-2.2h-2
			c-0.2,0-0.4-0.1-0.4-0.3v-0.1c0-0.2,0.2-0.3,0.4-0.3h2h2.2v-1h-2.2H187.9z"/>
		<path class="st1" d="M178.2,30.2L178.2,30.2C178.2,30.2,178.2,30.2,178.2,30.2C178.2,30.2,178.2,30.2,178.2,30.2
			C178.2,30.2,178.2,30.2,178.2,30.2C178.2,30.2,178.2,30.1,178.2,30.2c-0.1-0.1-0.1-0.1-0.1-0.1c0,0,0,0,0,0c0,0,0,0,0,0
			c0,0,0,0,0,0c0,0,0,0,0-0.1c0,0,0,0,0,0c0,0,0,0,0,0c0,0,0,0,0,0c0,0,0,0,0,0c0,0,0,0,0,0c0,0,0,0,0-0.1c0,0,0,0,0,0c0,0,0,0,0,0
			c0,0,0,0,0,0c0,0,0,0,0,0c0,0,0,0,0,0c0,0,0,0,0,0c0,0,0,0,0,0c0,0,0,0-0.1,0c0,0,0,0,0,0c0,0,0,0,0,0c0,0,0,0,0,0c0,0,0,0,0,0
			c0,0,0,0,0,0c0,0,0,0-0.1,0c0,0,0,0,0,0c0,0,0,0-0.1,0c0,0,0,0,0,0c0,0,0,0-0.1,0c0,0,0,0,0,0c0,0,0,0-0.1,0c0,0,0,0,0,0
			c0,0,0,0-0.1,0c0,0,0,0,0,0c0,0,0,0-0.1,0c0,0,0,0,0,0c0,0,0,0-0.1,0c0,0,0,0,0,0c0,0,0,0-0.1,0c0,0,0,0,0,0c0,0-0.1,0-0.1,0
			c0,0,0,0,0,0c0,0,0,0-0.1,0c0,0,0,0,0,0c0,0,0,0-0.1,0c0,0,0,0,0,0c0,0-0.1,0-0.1,0l0,0h-2.4h0c0,0-0.1,0-0.1,0c0,0-0.1,0-0.1,0
			c0,0-0.1,0-0.1,0c0,0,0,0,0,0c-0.6,0.1-1.1,0.5-1.3,0.9c0,0.1,0,0.1-0.1,0.2c0,0,0,0.1,0,0.1c0,0,0,0.1,0,0.1c0,0,0,0.1,0,0.1
			c0,0,0,0.1,0,0.1l0,0v1.2v0.3c0,0.2,0,0.3,0.1,0.5h0l0,0c0,0,0,0,0,0c0,0,0,0,0,0c0,0,0,0,0,0.1c0,0,0,0,0,0c0,0,0,0,0,0
			c0,0,0,0,0,0c0,0,0,0,0,0c0,0,0,0,0,0c0,0,0,0,0,0.1c0,0,0,0,0,0c0,0,0,0,0,0c0,0,0,0,0,0c0,0,0,0,0,0c0,0,0,0,0,0c0,0,0,0,0,0.1
			c0,0,0,0,0,0c0,0,0,0,0,0c0,0,0,0,0,0c0,0,0,0,0,0c0,0,0,0,0,0c0,0,0,0,0,0c0,0,0,0,0,0c0,0,0,0,0.1,0c0,0,0,0,0,0c0,0,0,0,0,0
			c0,0,0,0,0,0c0,0,0,0,0,0c0,0,0,0,0,0c0,0,0,0,0.1,0c0,0,0,0,0,0c0,0,0,0,0.1,0c0,0,0,0,0,0c0,0,0,0,0.1,0c0,0,0,0,0,0
			c0,0,0,0,0.1,0c0,0,0,0,0,0c0,0,0,0,0.1,0c0,0,0,0,0,0c0,0,0,0,0.1,0c0,0,0,0,0,0c0,0,0,0,0.1,0c0,0,0,0,0,0c0,0,0,0,0.1,0
			c0,0,0,0,0,0c0,0,0.1,0,0.1,0c0,0,0,0,0,0c0,0,0,0,0.1,0c0,0,0,0,0,0c0,0,0,0,0.1,0c0,0,0,0,0,0c0,0,0.1,0,0.1,0h0h2.4l0,0
			c0,0,0.1,0,0.1,0c0,0,0.1,0,0.1,0c0,0,0.1,0,0.1,0c0,0,0,0,0,0c0.7-0.1,1.3-0.6,1.4-1.2c0,0,0,0,0-0.1c0,0,0-0.1,0-0.1
			c0,0,0-0.1,0-0.1l0,0V31v-0.3C178.3,30.6,178.3,30.4,178.2,30.2L178.2,30.2z M177.2,32.2c0,0.3-0.3,0.5-0.6,0.5c0,0,0,0,0,0h-1.7
			h-0.7c-0.3,0-0.6-0.2-0.6-0.5v-0.3v-1.2c0-0.2,0.1-0.3,0.2-0.4c0,0,0.1,0,0.1-0.1c0,0,0.1,0,0.1,0c0,0,0,0,0,0c0,0,0.1,0,0.1,0
			c0,0,0,0,0,0h1.7h0.7c0.3,0,0.6,0.2,0.6,0.5V31V32.2z"/>
		<path class="st1" d="M205.5,31.1v-0.6c0-0.7-0.7-1.3-1.6-1.3h-4.3v0.6h0v2.1h0v1.8h1.2l0-1.3h2.1l0.8,1.3h1.3l-0.8-1.3
			C205,32.3,205.5,31.7,205.5,31.1z M204.3,31.1c0,0.2-0.2,0.3-0.4,0.3h-3.1v-1.2h3.1c0.2,0,0.4,0.2,0.4,0.3V31.1z"/>
		<path class="st1" d="M209.5,29.2H208l-2.7,4.5h1.1h0.2h5.6L209.5,29.2z M208.7,30.2L208.7,30.2l1.6,2.5h-3.1L208.7,30.2z"/>
		<polygon class="st1" points="170.4,31.1 167,29.2 165.7,29.2 165.7,30.7 165.7,32.2 165.7,33.7 166.9,33.7 166.9,32.2 166.9,30.7 
			166.9,30.4 170.4,32.3 170.4,33.7 171.6,33.7 171.6,29.2 170.4,29.2 		"/>
		<path class="st1" d="M156.6,31h-1.4h-1.4c-0.2,0-0.4-0.1-0.4-0.3v-0.1c0-0.2,0.2-0.3,0.4-0.3h4.1v-1h-4.1c-0.9,0-1.6,0.6-1.6,1.3
			v0.1c0,0.7,0.7,1.3,1.6,1.3h1.4h0.6h0.9h0.2v0.8h-0.2h-0.9h-3.2v1h4.4c0.6-0.1,1.1-0.5,1.2-1h0V32C157.9,31.4,157.3,31,156.6,31z"
			/>
		<path class="st1" d="M183.7,31h-1.4h-1.4c-0.2,0-0.4-0.1-0.4-0.3v-0.1c0-0.2,0.2-0.3,0.4-0.3h4.1v-1h-4.1c-0.9,0-1.6,0.6-1.6,1.3
			v0.1c0,0.7,0.7,1.3,1.6,1.3h1.4h0.6h0.9h0.2v0.8h-0.2h-0.9h-3.2v1h4.4c0.6-0.1,1.1-0.5,1.2-1h0V32C185,31.4,184.4,31,183.7,31z"/>
		<path class="st1" d="M194.5,29.2c-0.8,0-1.5,0.6-1.5,1.3v0.1c0,0,0,0,0,0.1v1.2h0v0.8c0.2,0.6,0.8,1,1.5,1h2h2.2v-1h-2.1h-0.1h-2
			h-0.3v-0.8h4.6v-1h-2.2h-2c-0.2,0-0.4-0.1-0.4-0.3v-0.1c0-0.2,0.2-0.3,0.4-0.3h2h2.2v-1h-2.2H194.5z"/>
	</g>
</g>
</svg>
