<?xml version="1.0" encoding="utf-8"?>
<!-- Generator: Adobe Illustrator 24.0.1, SVG Export Plug-In . SVG Version: 6.00 Build 0)  -->
<svg version="1.1" id="Camada_1" xmlns="http://www.w3.org/2000/svg" xmlns:xlink="http://www.w3.org/1999/xlink" x="0px" y="0px"
	 viewBox="0 0 219 219" style="enable-background:new 0 0 219 219;" xml:space="preserve">
<style type="text/css">
	.st0{fill:#BE1B2E;}
	.st1{fill:#FFFFFF;}
</style>
<path class="st0" d="M208.9,0H10.1C4.5,0,0,4.5,0,10.1V209c0,5.5,4.5,10,10.1,10H209c5.6,0,10.1-4.5,10.1-10.1V10.1
	C219,4.5,214.5,0,208.9,0z M215,208.9c0,3.3-2.7,6-6,6h-142l-13-20.2c-1.6-2.5-4.1-4.3-7-5L4,179.7V10.1c0-3.3,2.7-6,6-6h114.3
	l19.2,29.9c2.3,3.5,5.8,6,9.9,7L215,55.3L215,208.9L215,208.9z"/>
<g>
	<path class="st1" d="M168.9,9.9v14.8h3.2v-4.2h4.3v4.2h3.2V9.9H168.9z M176.4,17.3h-4.3v-4.2h4.3V17.3z"/>
	<rect x="180.7" y="9.9" class="st1" width="3.1" height="3.2"/>
	<rect x="180.7" y="14.2" class="st1" width="3.1" height="10.5"/>
	<rect x="197" y="25.5" class="st1" width="2.1" height="2.2"/>
	<rect x="197" y="28.4" class="st1" width="2.1" height="7.1"/>
	<rect x="184.9" y="9.9" class="st1" width="10.5" height="3"/>
	<path class="st1" d="M184.9,14.2v10.5h3.1v-1.8h4.4v1.8h3.1V14.2H184.9z M192.3,19.7h-4.2v-2.4h4.2V19.7z"/>
	<path class="st1" d="M188.7,25.5v10h7.2v-10H188.7z M193.8,33.3h-3v-5.6h3V33.3z"/>
	<path class="st1" d="M165.8,15.2V9.9h-8.6v14.8h10.6v-9.5H165.8z M160.3,13.1h2.2v2.1h-2.2V13.1z M164.6,21.6h-4.3v-3.3h4.3V21.6z"
		/>
	<path class="st1" d="M162.3,25.5h-5.1v10h7.1v-7.9L162.3,25.5z M162.3,33.5h-3v-5.8h2.3l0.7,0.7V33.5z"/>
	<path class="st1" d="M170.5,29h-3.2v-1.4h5v-2.1h-7.2v10h7.2v-2.1h-5v-2.2h5v-0.1l-1.7-1.6C170.5,29.3,170.5,29.2,170.5,29z"/>
	<path class="st1" d="M185.7,25.5h-5.1v2.8l1.4,0.2c0.2,0,0.4,0.2,0.4,0.4c0.1,0.2,0,0.4-0.1,0.6l-1.7,1.7v4.4h7.1v-7.9L185.7,25.5z
		 M185.7,33.5h-3v-5.8h2.3l0.7,0.7V33.5z"/>
	<polygon class="st1" points="176.5,25.1 178.2,28.5 182,29.1 179.2,31.7 179.9,35.5 176.5,33.7 173.1,35.5 173.8,31.7 171,29.1 
		174.8,28.5 	"/>
	<polygon class="st1" points="207.2,25.5 207.2,27.6 202.1,27.6 202.1,29 207.2,29 207.2,35.5 200,35.5 200,33.4 204.8,33.4 
		204.8,31.2 200,31.2 200,25.5 	"/>
	<path class="st1" d="M196.6,9.9v12.7h0v2h0v0h3.8c0,0,0,0,0,0h2.7c0,0,0,0,0,0h4.1V9.9H196.6z M198.9,18.9c-0.5,0-1-0.4-1-1v-2.2
		c0-0.5,0.4-1,1-1s1,0.4,1,1V17h0.5v-3.3c0-0.8,0.6-1.4,1.4-1.4c0.8,0,1.4,0.6,1.4,1.4v1.8h0.6v-1.4c0-0.6,0.5-1,1-1s1,0.5,1,1v2.4
		c0,0.6-0.5,1-1,1h-1.7v5h-2.9v-3.6H198.9z"/>
</g>
</svg>
