<?xml version="1.0" encoding="utf-8"?>
<!-- Generator: Adobe Illustrator 24.0.1, SVG Export Plug-In . SVG Version: 6.00 Build 0)  -->
<svg version="1.1" id="Camada_1" xmlns="http://www.w3.org/2000/svg" xmlns:xlink="http://www.w3.org/1999/xlink" x="0px" y="0px"
	 viewBox="0 0 219 219" style="enable-background:new 0 0 219 219;" xml:space="preserve">
<style type="text/css">
	.st0{fill:#BE1B2E;}
	.st1{fill:#FFFFFF;}
</style>
<path class="st0" d="M208.9,0H10.1C4.5,0,0,4.5,0,10.1V209c0,5.5,4.5,10,10.1,10H209c5.6,0,10.1-4.5,10.1-10.1V10.1
	C219,4.5,214.5,0,208.9,0z M215,208.9c0,3.3-2.7,6-6,6h-142l-13-20.2c-1.6-2.5-4.1-4.3-7-5L4,179.7V10.1c0-3.3,2.7-6,6-6h114.3
	l19.2,29.9c2.3,3.5,5.8,6,9.9,7L215,55.3L215,208.9L215,208.9z"/>
<g>
	<path class="st1" d="M172.2,37.9c0.1,0.1,0.2,0.2,0.3,0.1l1.4-0.6c0.2-0.1,0.2-0.2,0.1-0.3l-6.3-8.8c-0.1-0.1-0.2-0.2-0.3-0.1
		l-2,0.8c-0.1,0.1-0.2,0.1-0.2,0.3l1.5,10.7c0,0.2,0.1,0.2,0.3,0.2l1.4-0.6c0.1-0.1,0.2-0.2,0.2-0.3l-0.3-2l2.7-1.1L172.2,37.9z
		 M168,35.5l-0.7-4.3l2.5,3.6L168,35.5z"/>
	<path class="st1" d="M182,34.2l3.5-1.4c1.4-0.5,1.8-1.6,1.3-2.9l-2.4-6c-0.5-1.4-1.6-1.8-2.9-1.3L178,24c-0.2,0.1-0.2,0.2-0.1,0.3
		l3.9,9.7C181.8,34.2,181.9,34.3,182,34.2z M181.8,24.7c0.4-0.2,0.7,0,0.8,0.4l2.1,5.2c0.2,0.4,0,0.7-0.4,0.8l-1.3,0.5l-2.5-6.4
		L181.8,24.7z"/>
	<path class="st1" d="M179.5,35.2l1.2-0.5c0.1-0.1,0.2-0.2,0.1-0.3l-3.9-9.7c-0.1-0.1-0.2-0.2-0.3-0.1l-1.4,0.5
		c-0.2,0.1-0.2,0.2-0.1,0.3l2.2,5.5l-5-4.5c-0.1-0.1-0.2-0.1-0.3-0.1l-1.2,0.5c-0.1,0.1-0.2,0.2-0.1,0.3l3.9,9.7
		c0.1,0.1,0.2,0.2,0.3,0.1l1.4-0.5c0.2-0.1,0.2-0.2,0.1-0.3l-2.2-5.5l5,4.5C179.3,35.2,179.4,35.3,179.5,35.2z"/>
	<path class="st1" d="M188.7,31.6l5.4-2.1c0.2-0.1,0.2-0.2,0.1-0.3l-0.6-1.5c-0.1-0.2-0.2-0.2-0.3-0.1l-3.6,1.4l-0.9-2.2l2.7-1.1
		c0.1-0.1,0.2-0.2,0.1-0.3l-0.6-1.4c-0.1-0.2-0.2-0.2-0.3-0.2l-2.7,1.1l-0.9-2.2l3.6-1.4c0.2-0.1,0.2-0.2,0.1-0.3l-0.6-1.5
		c-0.1-0.1-0.2-0.2-0.3-0.1l-5.4,2.1c-0.1,0.1-0.2,0.2-0.1,0.3l3.9,9.7C188.5,31.6,188.6,31.6,188.7,31.6z"/>
	<path class="st1" d="M167.6,19.1l-1.4-3.7c-0.5-1.4-1.6-1.9-3-1.3l-3.8,1.5c-0.2,0.1-0.2,0.2-0.1,0.3l4.5,11.6
		c0.1,0.2,0.2,0.2,0.3,0.1l1.6-0.6c0.2-0.1,0.2-0.2,0.1-0.3l-1.5-3.8l1-0.4l2.5,3.5c0.1,0.1,0.2,0.2,0.3,0.1l1.6-0.6
		c0.2-0.1,0.2-0.2,0.1-0.4l-2.6-3.6C167.9,21,168,20.1,167.6,19.1z M165,20.3l-1.5,0.6l-1.6-4.1l1.5-0.6c0.4-0.2,0.7,0,0.8,0.4
		l1.1,2.8C165.6,19.9,165.4,20.2,165,20.3z"/>
	<path class="st1" d="M201.8,20.3l-1.2-2.9c-0.5-1.4-1.6-1.8-2.9-1.3l-3.5,1.4c-0.1,0.1-0.2,0.2-0.1,0.3l3.9,9.7
		c0.1,0.1,0.2,0.2,0.3,0.1l1.4-0.6c0.1-0.1,0.2-0.2,0.1-0.3l-1.1-2.8l1.3-0.5l1.8,2.6c0.1,0.1,0.2,0.2,0.3,0.1l1.4-0.6
		c0.2-0.1,0.2-0.2,0.1-0.3l-2-2.8C202.1,21.9,202.2,21.2,201.8,20.3z M199.4,21.5l-1.5,0.6l-1.3-3.4l1.5-0.6c0.4-0.2,0.7,0,0.8,0.4
		l0.9,2.2C199.9,21.1,199.8,21.4,199.4,21.5z"/>
	<path class="st1" d="M195.4,28.9l1.5-0.6c0.1-0.1,0.2-0.2,0.1-0.3l-3.9-9.7c-0.1-0.1-0.2-0.2-0.3-0.1l-1.5,0.6
		c-0.2,0.1-0.2,0.2-0.1,0.3l3.9,9.7C195.2,28.9,195.3,28.9,195.4,28.9z"/>
	<path class="st1" d="M155.8,17l-3.6,1.4c-0.2,0.1-0.2,0.2-0.1,0.3l4.5,11.6c0.1,0.2,0.2,0.2,0.3,0.1l3.6-1.4c1.4-0.5,1.9-1.6,1.4-3
		l-1.1-2.8c-0.2-0.6-0.8-0.8-1.4-0.7l0,0c0.5-0.3,0.8-0.9,0.5-1.4l-1.1-2.8C158.2,16.9,157.2,16.4,155.8,17z M155.9,22.7l-1.2-3.1
		l1.4-0.5c0.4-0.2,0.7,0,0.8,0.4l0.7,1.9c0.1,0.4,0,0.7-0.4,0.8L155.9,22.7z M159.6,26.4c0.2,0.4,0,0.7-0.4,0.8l-1.4,0.5l-1.2-3.1
		l1.4-0.5c0.4-0.2,0.7,0,0.8,0.4L159.6,26.4z"/>
	<path class="st1" d="M204.4,13.5l-1.6,0.7c-1.4,0.5-1.8,1.6-1.3,2.9l2.4,6c0.5,1.4,1.6,1.8,2.9,1.3l1.6-0.7
		c1.4-0.5,1.8-1.6,1.3-2.9l-2.4-6C206.8,13.4,205.8,12.9,204.4,13.5z M207.4,21.9l-0.9,0.4c-0.4,0.2-0.7,0-0.8-0.4l-2.1-5.3
		c-0.2-0.4,0-0.7,0.4-0.8l0.9-0.4c0.4-0.2,0.7,0,0.8,0.4l2.1,5.3C207.9,21.5,207.8,21.8,207.4,21.9z"/>
	<path class="st1" d="M180.5,4.7c0.2,0.6,0.9,0.9,1.4,0.6c0.6-0.2,0.9-0.9,0.6-1.4L181,0h-2.4L180.5,4.7z"/>
	<path class="st1" d="M163.2,41.5l-1.2-2.9l1.8-0.7c1.4-0.6,1.8-1.6,1.3-2.9L164,32c-0.5-1.4-1.6-1.8-2.9-1.3l-3.5,1.4
		c-0.1,0.1-0.2,0.2-0.1,0.3l2.9,7.3c0,0.2,0,0.4,0.1,0.6l0.9,2.4l2.4,0.6l-0.6-1.5C163.2,41.7,163.2,41.6,163.2,41.5z M159.9,33.4
		l1.5-0.6c0.4-0.2,0.7,0,0.8,0.4l0.8,2.1c0.1,0.4,0,0.7-0.4,0.8l-1.5,0.6L159.9,33.4z"/>
	<path class="st1" d="M183.3,6.4L181.7,7c-0.2,0.1-0.2,0.2-0.1,0.3l4.5,11.6c0.1,0.2,0.2,0.2,0.3,0.1l1.6-0.6
		c0.2-0.1,0.2-0.2,0.1-0.3l-4.5-11.6C183.6,6.4,183.4,6.3,183.3,6.4z"/>
	<path class="st1" d="M170.9,11.1l-2.1,0.8c-0.1,0.1-0.2,0.1-0.2,0.3l2,12.6c0,0.2,0.1,0.2,0.3,0.2l1.6-0.6c0.1-0.1,0.2-0.2,0.2-0.3
		l-0.4-2.4l2.7-1l1.3,2c0.1,0.1,0.2,0.2,0.3,0.1l1.6-0.6c0.2-0.1,0.2-0.2,0.1-0.3l-7-10.7C171.1,11.1,171,11.1,170.9,11.1z
		 M171.9,19.9l-1.1-5.6l3,4.9L171.9,19.9z"/>
	<path class="st1" d="M194.6,13.9c-0.1-0.2-0.2-0.2-0.3-0.1l-3.6,1.4l-3.8-9.9c-0.1-0.2-0.2-0.2-0.3-0.1L185,5.7
		c-0.2,0.1-0.2,0.2-0.1,0.3l4.5,11.6c0.1,0.2,0.2,0.2,0.3,0.1l5.4-2.1c0.2-0.1,0.2-0.2,0.1-0.3L194.6,13.9z"/>
	<path class="st1" d="M178.1,8.4L176.4,9c-1.4,0.5-1.9,1.6-1.3,3l1.4,3.6c0.1,0.3,0.3,0.4,0.6,0.4l4-0.2l0.8,2
		c0.2,0.4,0,0.7-0.4,0.8l-0.7,0.3c-0.4,0.1-0.7,0-0.8-0.4l-0.4-1.2c-0.1-0.2-0.2-0.2-0.3-0.1l-1.6,0.6c-0.2,0.1-0.2,0.2-0.1,0.3
		l0.6,1.6c0.5,1.4,1.6,1.9,3,1.3l1.7-0.7c1.4-0.5,1.9-1.6,1.3-3l-1.3-3.5c-0.1-0.3-0.3-0.4-0.6-0.4l-4.1,0.2l-0.8-2.1
		c-0.2-0.4,0-0.7,0.4-0.8l0.7-0.3c0.4-0.2,0.7,0,0.8,0.4l0.5,1.2c0.1,0.2,0.2,0.2,0.3,0.1l1.6-0.6c0.2-0.1,0.2-0.2,0.1-0.3l-0.6-1.6
		C180.6,8.3,179.5,7.8,178.1,8.4z"/>
</g>
</svg>
