<?xml version="1.0" encoding="utf-8"?>
<!-- Generator: Adobe Illustrator 24.0.1, SVG Export Plug-In . SVG Version: 6.00 Build 0)  -->
<svg version="1.1" id="Camada_1" xmlns="http://www.w3.org/2000/svg" xmlns:xlink="http://www.w3.org/1999/xlink" x="0px" y="0px"
	 viewBox="0 0 219 219" style="enable-background:new 0 0 219 219;" xml:space="preserve">
<style type="text/css">
	.st0{fill:#BE1B2E;}
	.st1{fill:#FFFFFF;}
	.st2{fill:#BFBFBF;}
</style>
<path class="st0" d="M208.9,0H10.1C4.5,0,0,4.5,0,10.1V209c0,5.5,4.5,10,10.1,10H209c5.6,0,10.1-4.5,10.1-10.1V10.1
	C219,4.5,214.5,0,208.9,0z M215,208.9c0,3.3-2.7,6-6,6h-142l-13-20.2c-1.6-2.5-4.1-4.3-7-5L4,179.7V10.1c0-3.3,2.7-6,6-6h114.3
	l19.2,29.9c2.3,3.5,5.8,6,9.9,7L215,55.3L215,208.9L215,208.9z"/>
<g>
	<g>
		<path class="st1" d="M151.5,16.2c0.1,0.2,0.2,0.5,0.3,0.6c0.3,0.3,0.6,0.4,0.9,0.4c0.4,0,0.7-0.1,0.9-0.4c0.2-0.2,0.3-0.4,0.3-0.6
			h1.2c0,0.1-0.1,0.3-0.1,0.4c-0.1,0.3-0.2,0.5-0.4,0.7c-0.2,0.3-0.5,0.6-0.9,0.7c-0.4,0.2-0.7,0.3-1.1,0.3c-0.3,0-0.7-0.1-1-0.2
			c-0.3-0.1-0.6-0.3-0.8-0.6c-0.2-0.3-0.4-0.5-0.6-0.9c-0.1-0.2-0.1-0.4-0.2-0.6L151.5,16.2L151.5,16.2z M154,15.3
			c-0.1-0.2-0.2-0.5-0.3-0.6c-0.3-0.3-0.6-0.4-0.9-0.4c-0.4,0-0.7,0.1-0.9,0.4c-0.2,0.2-0.3,0.4-0.3,0.6h-1.2c0-0.2,0.1-0.4,0.2-0.6
			c0.1-0.3,0.3-0.6,0.6-0.9c0.2-0.2,0.5-0.4,0.8-0.6c0.3-0.1,0.6-0.2,1-0.2c0.3,0,0.7,0.1,1,0.2c0.3,0.1,0.6,0.3,0.8,0.6
			c0.2,0.2,0.4,0.5,0.5,0.8c0.1,0.2,0.1,0.4,0.2,0.6L154,15.3L154,15.3z"/>
		<path class="st1" d="M171,16.2c0.1,0.2,0.2,0.5,0.3,0.6c0.3,0.3,0.6,0.4,0.9,0.4c0.4,0,0.7-0.1,0.9-0.4c0.2-0.2,0.3-0.4,0.3-0.6
			h1.2c0,0.1-0.1,0.3-0.1,0.4c-0.1,0.3-0.2,0.5-0.4,0.7c-0.2,0.3-0.5,0.6-0.9,0.7c-0.4,0.2-0.7,0.3-1.1,0.3c-0.3,0-0.7-0.1-1-0.2
			c-0.3-0.1-0.6-0.3-0.8-0.6c-0.2-0.3-0.4-0.5-0.6-0.9c-0.1-0.2-0.1-0.4-0.2-0.6L171,16.2L171,16.2z M173.6,15.3
			c-0.1-0.2-0.2-0.5-0.3-0.6c-0.3-0.3-0.6-0.4-0.9-0.4c-0.4,0-0.7,0.1-0.9,0.4c-0.2,0.2-0.3,0.4-0.3,0.6h-1.2c0-0.2,0.1-0.4,0.2-0.6
			c0.1-0.3,0.3-0.6,0.6-0.9c0.2-0.2,0.5-0.4,0.8-0.6c0.3-0.1,0.6-0.2,1-0.2c0.3,0,0.7,0.1,1,0.2c0.3,0.1,0.6,0.3,0.8,0.6
			c0.2,0.2,0.4,0.5,0.5,0.8c0.1,0.2,0.1,0.4,0.2,0.6L173.6,15.3L173.6,15.3z"/>
		<path class="st1" d="M166.8,14.1h-0.2v0.2h-1.1v-1.1h1.3c0.4,0,0.7,0,0.9,0.1c0.2,0.1,0.4,0.1,0.6,0.3c0.2,0.1,0.3,0.3,0.4,0.5
			c0.1,0.2,0.2,0.4,0.2,0.6c0,0.3-0.1,0.6-0.2,0.8c-0.2,0.2-0.4,0.4-0.7,0.6l1.5,2.1h-1.4l-1.3-1.9h-0.2v1l-1.1,0.9v-2.9h1.1v0.2
			h0.2c0.3,0,0.5-0.1,0.7-0.2s0.2-0.3,0.2-0.5c0-0.2-0.1-0.4-0.2-0.5C167.4,14.2,167.2,14.1,166.8,14.1L166.8,14.1z"/>
		<path class="st1" d="M176.1,17.2c0.2,0.1,0.4,0.1,0.6,0.1c0.2,0,0.4,0,0.5-0.1c0.1-0.1,0.2-0.2,0.2-0.3c0-0.2-0.2-0.4-0.7-0.7
			c-0.1,0-0.1-0.1-0.2-0.1l-0.3-0.2c-0.3-0.2-0.6-0.4-0.7-0.6c-0.2-0.2-0.2-0.5-0.2-0.8c0-0.4,0.2-0.7,0.5-1
			c0.3-0.3,0.7-0.4,1.2-0.4c0.2,0,0.4,0,0.6,0.1c0.2,0,0.4,0.1,0.7,0.2l-0.7,0.8l0,0c-0.2-0.1-0.4-0.1-0.5-0.1c-0.2,0-0.3,0-0.4,0.1
			c-0.1,0.1-0.1,0.2-0.1,0.3c0,0.1,0,0.2,0.1,0.2c0.1,0.1,0.1,0.1,0.3,0.2l0.6,0.3c0.5,0.3,0.8,0.5,1,0.7c0.2,0.2,0.3,0.5,0.3,0.8
			c0,0.5-0.2,0.9-0.5,1.2c-0.3,0.3-0.8,0.4-1.3,0.4c-0.2,0-0.4,0-0.6-0.1c-0.2,0-0.5-0.1-0.7-0.2L176.1,17.2L176.1,17.2z"/>
		<path class="st1" d="M162.1,18.2v-3h1.2V17L162.1,18.2z M162.1,14.3H161h-0.5v-1h4.3v1h-1.6H162.1z"/>
		<path class="st1" d="M156.9,14.9h-1.2v-1.6l1.2,0L156.9,14.9z M156.9,15.8V16c0,0.4,0.1,0.8,0.2,1c0.2,0.2,0.4,0.3,0.7,0.3
			c0.3,0,0.6-0.1,0.7-0.3c0.2-0.2,0.2-0.5,0.2-0.9v-2.8h1.1v2.8c0,0.7-0.2,1.3-0.6,1.7c-0.4,0.4-0.9,0.6-1.5,0.6
			c-0.7,0-1.2-0.2-1.5-0.6c-0.4-0.4-0.5-1-0.5-1.7v-0.3L156.9,15.8L156.9,15.8z"/>
	</g>
	<g>
		<rect x="169.8" y="19.3" class="st1" width="2.2" height="11.2"/>
	</g>
	<g>
		<path class="st1" d="M185.1,24.8l0.8,0.6c0,0,0,0,0.1,0l4,3.5c0.4,0.4,0.9,0.8,1.3,1.1V19.3h-2.2v5.9l-6.2-5.4v10.7h2.2V24.8z"/>
	</g>
	<g>
		<path class="st1" d="M209,24.7c-0.5-0.4-1.1-0.6-1.9-0.8c-0.2,0-0.4-0.1-0.6-0.1c-0.2,0-0.4-0.1-0.6-0.1c-0.2-0.1-0.6-0.1-0.8-0.4
			c-0.2-0.2-0.3-0.4-0.4-0.7c0-0.2,0-0.7,0.6-1c0.3-0.1,0.5-0.2,0.9-0.2c0.1,0,0.3,0,0.4,0c0.4,0.1,0.9,0.2,1.3,0.5l1.3-1.6
			c-0.2-0.2-0.5-0.3-0.7-0.4c-0.8-0.4-1.5-0.6-2.3-0.6c-0.2,0-0.3,0-0.5,0c-0.9,0.1-1.6,0.4-2.2,1c-0.9,0.8-1.2,1.8-1,2.9
			c0.1,0.7,0.5,1.4,1.2,1.9c0.5,0.3,1,0.6,1.6,0.8c0.3,0.1,0.5,0.1,0.8,0.2c0.1,0,0.3,0.1,0.5,0.1c0.3,0.1,0.6,0.1,0.8,0.3
			c0.3,0.2,0.4,0.5,0.4,0.7c0.1,0.4-0.1,0.8-0.5,1c-0.3,0.2-0.6,0.3-1,0.3c-0.5,0-1-0.1-1.5-0.4c-0.1,0-0.2-0.1-0.3-0.1l-1.3,1.6
			c0.9,0.6,1.8,0.9,2.7,1c0.1,0,0.3,0,0.4,0c0.7,0,1.2-0.1,1.8-0.4c1.3-0.7,1.9-1.7,1.8-3.1C210.2,26,209.8,25.3,209,24.7z"/>
	</g>
	<g>
		<path class="st1" d="M155.7,30.6c0.3,0,0.7,0,1-0.1c1.6-0.5,2.6-2.1,2.4-3.8c-0.1-1-0.6-1.8-1.4-2.4c-0.2-0.2-0.3-0.4-0.2-0.6
			c0.1-0.3,0.2-0.6,0.2-0.9c0-0.7-0.2-1.4-0.6-2c-0.7-0.9-1.6-1.4-2.8-1.4c-0.5,0-1.1,0-1.7,0c-0.4,0-0.9,0-1.3,0c-0.3,0-0.6,0-1,0
			v11.3L155.7,30.6 M152.5,21.6L152.5,21.6l0.9-0.1l0.1,0c0,0,0.1,0,0.1,0h0.4v0c0.1,0,0.2,0,0.3,0c0.3,0,0.6,0.1,0.8,0.3
			c0.4,0.4,0.4,0.9,0.1,1.4c-0.2,0.3-0.5,0.4-0.8,0.4c-0.1,0-0.2,0-0.3,0v0h-0.9l-0.1,0l-0.6,0V21.6z M156.4,28.1
			c-0.2,0.2-0.5,0.3-0.7,0.3c-0.4,0-0.9,0-1.3,0l-1.4,0c0,0,0,0-0.1,0l0,0l-0.4,0v-2.5h3.2c0.6,0,1.1,0.4,1.2,1
			C156.9,27.3,156.8,27.7,156.4,28.1z"/>
	</g>
	<g>
		<rect x="159.1" y="30.6" class="st2" width="0" height="0"/>
		<path class="st1" d="M167.8,30.6l-4.4-11.3l-4.4,11.3h0l0,0h2.3c0,0,0,0,0.1,0c0.5-1.1,0.9-2.3,1.4-3.4l0.2-0.4c0,0,0-0.1,0-0.1
			l0,0l0.4-1l0.4,1c0,0,0,0,0,0.1l0.2,0.6c0.4,1.1,0.9,2.2,1.3,3.3L167.8,30.6L167.8,30.6L167.8,30.6z"/>
	</g>
	<g>
		<rect x="174.1" y="30.6" class="st2" width="0" height="0"/>
		<path class="st1" d="M182.9,30.6l-4.4-11.3l-4.4,11.3h0l0,0h2.3c0,0,0,0,0.1,0c0.5-1.1,0.9-2.3,1.4-3.4l0.2-0.4c0,0,0-0.1,0-0.1
			l0,0l0.4-1l0.4,1c0,0,0,0,0,0.1l0.2,0.6c0.4,1.1,0.9,2.2,1.3,3.3L182.9,30.6L182.9,30.6L182.9,30.6z"/>
	</g>
	<g>
		<g>
			<path class="st1" d="M196.9,30.6c-3.1,0-5.6-2.5-5.6-5.6c0-3.1,2.5-5.6,5.6-5.6c3.1,0,5.6,2.5,5.6,5.6
				C202.5,28,200,30.6,196.9,30.6z M196.9,21.5c-1.9,0-3.4,1.5-3.4,3.4c0,1.9,1.5,3.4,3.4,3.4c1.9,0,3.4-1.5,3.4-3.4
				C200.3,23.1,198.8,21.5,196.9,21.5z"/>
		</g>
	</g>
</g>
</svg>
