<?xml version="1.0" encoding="utf-8"?>
<!-- Generator: Adobe Illustrator 24.0.1, SVG Export Plug-In . SVG Version: 6.00 Build 0)  -->
<svg version="1.1" id="Camada_1" xmlns="http://www.w3.org/2000/svg" xmlns:xlink="http://www.w3.org/1999/xlink" x="0px" y="0px"
	 viewBox="0 0 219 219" style="enable-background:new 0 0 219 219;" xml:space="preserve">
<style type="text/css">
	.st0{fill:#BE1B2E;}
	.st1{fill:#FFFFFF;}
</style>
<path class="st0" d="M208.9,0H10.1C4.5,0,0,4.5,0,10.1V209c0,5.5,4.5,10,10.1,10H209c5.6,0,10.1-4.5,10.1-10.1V10.1
	C219,4.5,214.5,0,208.9,0z M215,208.9c0,3.3-2.7,6-6,6h-142l-13-20.2c-1.6-2.5-4.1-4.3-7-5L4,179.7V10.1c0-3.3,2.7-6,6-6h114.3
	l19.2,29.9c2.3,3.5,5.8,6,9.9,7L215,55.3L215,208.9L215,208.9z"/>
<path class="st1" d="M197.5,11.2c-0.1,0-0.1,0.1-0.1,0.2c0,0.1,0.1,0.1,0.2,0.1s0.1-0.1,0-0.2C197.7,11.2,197.6,11.2,197.5,11.2z
	 M210.6,17.3c0,0-0.5-0.2-0.5-0.2c0,0,0.1,0.5,0.1,0.5C210.3,17.7,210.6,17.4,210.6,17.3z M200.2,11.2c0.1-0.1,0.3-0.3,0.4-0.4
	c-0.1,0-0.4-0.1-0.5-0.1C200,10.8,200.1,11.1,200.2,11.2z M198.2,11.7c0.1,0,0.4,0,0.5,0c0-0.1-0.2-0.4-0.3-0.4
	C198.4,11.4,198.3,11.6,198.2,11.7z M199.4,11.2c-0.1,0-0.1,0.1-0.1,0.2c0,0.1,0.1,0.1,0.2,0.1s0.1-0.1,0-0.2
	C199.5,11.2,199.5,11.2,199.4,11.2z M208.9,17.2c0,0,0.4-0.3,0.4-0.3c0,0-0.5-0.2-0.5-0.2C208.8,16.7,208.9,17.2,208.9,17.2z
	 M201.9,13.4c0.1,0,0.1-0.1,0-0.2s-0.1-0.1-0.2,0c-0.1,0-0.1,0.1,0,0.2S201.9,13.4,201.9,13.4z M198.6,12.5c0.1,0,0.2,0,0.3,0
	c1.8-0.2,3-1.5,3-3.3c0-1.9-1.3-3.2-3.1-3.3c-1.8-0.1-3.5,1.5-3.5,3.3C195.2,10.9,196.8,12.5,198.6,12.5z M198.5,6.4
	c0,0,0.1,0,0.1,0c1.5,0.1,2.6,1.2,2.6,2.8c0,1.6-0.9,2.6-2.5,2.8c-0.1,0-0.1,0-0.2,0c-1.5,0-2.8-1.3-2.8-2.8
	C195.8,7.6,197.1,6.4,198.5,6.4z M201.6,14.3c0,0.1,0.1,0.1,0.2,0c0.1,0,0.1-0.1,0-0.2s-0.1-0.1-0.2,0
	C201.6,14.1,201.6,14.2,201.6,14.3z M201.7,13.8c0,0.1,0.1,0.1,0.2,0c0.1,0,0.1-0.1,0-0.2c0-0.1-0.1-0.1-0.2,0
	S201.6,13.8,201.7,13.8z M201.1,9.4c0-0.1,0-0.4,0-0.5c-0.1,0-0.4,0.2-0.4,0.3C200.8,9.2,201,9.4,201.1,9.4z M200.8,8.3
	c0.1,0,0.1-0.1,0-0.2s-0.1-0.1-0.2-0.1c-0.1,0-0.1,0.1-0.1,0.2C200.7,8.3,200.8,8.3,200.8,8.3z M200.2,7.1c0,0.1-0.1,0.4-0.1,0.5
	c0.1,0,0.4-0.1,0.5-0.1C200.5,7.4,200.3,7.2,200.2,7.1z M200.8,10.2c0.1,0,0.1-0.1,0-0.2s-0.1-0.1-0.2-0.1c-0.1,0-0.1,0.1-0.1,0.2
	C200.7,10.2,200.8,10.2,200.8,10.2z M197.6,7.3c-1,0.5-1.4,1.6-1,2.7c0.5,1.1,1.8,1.5,2.9,1c1-0.5,1.4-2,0.8-3S198.6,6.8,197.6,7.3z
	 M199.9,8.3c0.5,0.8,0.2,1.9-0.6,2.3c-0.8,0.4-1.8,0-2.2-0.8s0-1.7,0.8-2.1C198.6,7.3,199.4,7.5,199.9,8.3z M196.4,8.3
	c0.1,0,0.1-0.1,0-0.2s-0.1-0.1-0.2-0.1c-0.1,0-0.1,0.1-0.1,0.2C196.2,8.3,196.3,8.3,196.4,8.3z M196.8,7.1c-0.1,0.1-0.3,0.3-0.4,0.4
	c0.1,0,0.4,0.1,0.5,0.1C197,7.5,196.9,7.2,196.8,7.1z M197.6,7c0.1,0,0.1-0.1,0-0.2c0-0.1-0.1-0.1-0.2,0c-0.1,0-0.1,0.1-0.1,0.2
	C197.5,7,197.6,7,197.6,7z M210.9,21c-0.1,0-0.1,0.1-0.1,0.1c0,0,0,0.1,0,0.1c0,0.1,0.1,0.1,0.2,0.1c1.1-0.6,2,0.1,2.1,0.1
	c0.1,0.1,0.2,0,0.2,0c0.1-0.1,0-0.2,0-0.2C213.3,21.1,212.3,20.3,210.9,21z M209.3,17.3c0,0,0.5,0.2,0.5,0.2c0,0-0.1-0.5-0.1-0.5
	C209.7,17,209.3,17.3,209.3,17.3z M196.3,10c-0.1,0-0.1,0.1-0.1,0.2c0,0.1,0.1,0.1,0.2,0c0.1,0,0.1-0.1,0-0.2S196.3,9.9,196.3,10z
	 M195.9,8.9c0,0.1,0,0.4,0,0.5c0.1,0,0.4-0.2,0.4-0.3C196.2,9.1,196,8.9,195.9,8.9z M207.3,14.9c-0.1,0.1-0.2,0.2-0.1,0.4
	c0,0,0.1,0.1,0.2,0.3c-0.6,0.3-1.2,0.7-1.6,1c-0.4,0.3-0.9,0.7-0.7,1.2c0.4,0.9,1.5,2.8,2,3.3c0.1,0.1,0.3,0.1,0.4,0
	c0.1-0.1,0.1-0.3,0-0.4c-0.3-0.3-1.3-2.1-1.8-3c0.1-0.1,0.5-0.5,1.7-1.2c0.1-0.1,0.2-0.1,0.3-0.2c0.2,0.4,0.5,1,0.8,1.6l-0.4,1.4
	l0.8-0.4c0.1,0.1,0.2,0.2,0.4,0.1c0.1-0.1,0.2-0.2,0.1-0.4l0.9-0.4l-1.3-0.5c-0.3-0.6-0.6-1.2-0.8-1.6c1.2-0.6,2.1-0.8,2.4-0.8
	c0.5,1,1.2,2.9,1.3,3.3c0,0.2,0.1,0.3,0.3,0.3c0.2,0,0.3-0.1,0.3-0.3c0-0.6-0.9-2.7-1.4-3.6c-0.2-0.4-0.8-0.3-1.4-0.1
	c-0.5,0.2-1.1,0.4-1.7,0.7c-0.1-0.2-0.2-0.3-0.2-0.3C207.6,14.9,207.4,14.9,207.3,14.9z M210.2,16.2c0.2-0.1,0.3-0.3,0.2-0.5
	c-0.1-0.2-0.3-0.3-0.5-0.2c-0.2,0.1-0.3,0.3-0.2,0.5S210,16.3,210.2,16.2z M209.9,15.9c0-0.1,0-0.2,0.1-0.3c0.1,0,0.2,0,0.3,0.1
	c0,0.1,0,0.2-0.1,0.3C210,16.1,209.9,16,209.9,15.9z M196.8,11.2c0-0.1,0.1-0.4,0.1-0.5c-0.1,0-0.4,0.1-0.5,0.1
	C196.5,10.9,196.7,11.1,196.8,11.2z M198.1,8.3c-0.4,0.2-0.6,0.7-0.4,1.2c0.2,0.5,0.8,0.7,1.2,0.4c0.4-0.2,0.6-0.9,0.4-1.3
	C199,8.2,198.5,8.1,198.1,8.3z M198.7,9c0.1,0.1,0,0.2-0.1,0.3c-0.1,0.1-0.2,0-0.3-0.1c0-0.1,0-0.2,0.1-0.3
	C198.5,8.9,198.6,8.9,198.7,9z M199.5,7c0.1,0,0.1-0.1,0-0.2c0-0.1-0.1-0.1-0.2,0c-0.1,0-0.1,0.1-0.1,0.2C199.4,7,199.5,7,199.5,7z
	 M198.8,6.5c-0.1,0-0.4,0-0.5,0c0,0.1,0.2,0.4,0.3,0.4C198.6,6.9,198.7,6.6,198.8,6.5z M200,16.2c0.1-0.1,0.1-0.3,0-0.4
	c-0.1-0.1-0.3-0.1-0.4,0c-0.1,0-1.4,1.1-1.8,2.5c0,0,0,0,0,0c0.4,0,1.3-0.1,1.9,0.6c0.3,0.4,0.5,0.7,0.5,1c0,0.1,0.1,0.2,0.1,0.2
	c0.1,0.3,0.1,0.6,0.1,0.6c0,0.1,0.1,0.3,0.2,0.3c0,0,0,0,0,0c0.1,0,0.3-0.1,0.3-0.2c0,0,0-0.4-0.1-0.9c0-0.1-0.1-0.2-0.1-0.2
	c0.4,0.5,0.6,1.1,0.6,1.1c0,0.1,0.1,0.2,0.3,0.2c0,0,0.1,0,0.1,0c0.1,0,0.2-0.2,0.2-0.3c0,0-0.2-0.6-0.6-1.2
	c-0.2-0.3-0.5-0.5-0.7-0.7c1,0.3,1.6,1.1,1.6,1.1c0.1,0.1,0.1,0.1,0.2,0.1c0.1,0,0.1,0,0.2-0.1c0.1-0.1,0.1-0.3,0-0.4
	c0,0-0.4-0.5-1.1-0.9c-0.3-0.2-0.7-0.4-1-0.4c1,0,1.8,0.3,2.5,0.8c0.1,0,0.1,0.1,0.2,0.1c0.1,0,0.2,0,0.2-0.1c0.1-0.1,0.1-0.3,0-0.4
	c-0.9-0.8-2.1-1.1-3.4-0.9c1.5-0.5,2.9-0.1,2.9-0.1c0.1,0,0.3,0,0.3-0.2s0-0.3-0.2-0.3c0,0-0.7-0.2-1.5-0.2c-0.6,0-1.3,0.1-2.1,0.5
	c1-0.6,2.3-0.6,2.3-0.6c0,0,0,0,0,0c0.1,0,0.3-0.1,0.3-0.3c0-0.1-0.1-0.3-0.3-0.3c0,0-0.8,0-1.6,0.3c-0.2,0.1-0.5,0.2-0.7,0.3
	C199.7,16.4,200,16.2,200,16.2z M202.2,33.7l1.2-1.4l-2.8-2.9c0-0.1,0-0.2,0-0.4c0-0.4,0.1-2.8-0.1-3.7c0.1,0.1,1.3,0.9,1.3,0.9
	c-0.4,0.7-0.7,1.4-1.1,2.1c0,0,0.1,0.1,0.1,0.1l2.5-2.4l-2.6-2.5c-0.2-0.2-0.4-0.4-0.8-0.3c0,0-0.1,0-0.2,0.1c0,0.1,0,0.2,0,0.4
	c-0.1,0.4-0.6,0.6-0.9,0.4c-0.4-0.1-0.6-0.6-0.4-0.9c0.1-0.3,0.5-0.5,0.8-0.5c0,0.1,0,0.1-0.2,0.1c-0.2,0-0.4,0.2-0.5,0.4
	c-0.1,0.3,0.1,0.7,0.4,0.8c0.3,0.1,0.6-0.1,0.7-0.3c0.1-0.1,0.1-0.2,0.1-0.4c-0.2,0-0.4,0.1-0.6,0.1l-0.2-0.5c0.2,0,0.3,0,0.5-0.2
	c0,0,0,0,0,0c0,0,0,0,0,0c0.3-0.3,0.4-0.7,0.4-1c0.4-0.6,0.5-1.5,0.2-2.2c-0.6-1.3-2.8-1.5-3.8-0.8c-0.2,0.2-0.4,0.4-0.5,0.6
	c-0.1,0.1-0.2,0.3-0.1,0.4c-0.1,0.5-0.1,0.9,0,1.2c-0.2,0.2-0.4,0.8-0.3,1.2c-0.2,0.1-0.3,0.2-0.4,0.4c-0.1,0.4,0.1,0.8,0.4,0.9
	c0.2,0.1,0.5,0,0.7-0.1c0,0,0.1,0,0.1,0.1c0.3,0.2,0.8,0.2,1.4,0.1l0.1,0.1c-0.6,0.1-1,0.2-1,0.2c-0.2,0.1-0.3,0.1-0.4,0.5
	c0,0.1-0.3,1.3-0.4,1.5c0,0.1-1.4-1.5-1.4-1.5l-0.1,0.1l1.6,3.4l1.6-2.4c1.1,0.1,2.1,2.2,2.3,2.8l-1.9-1.9l-2.2,2.5l0.6,0.5
	c-0.9,0.3-1.7,0.7-2.6,1.1c0,0,2.2,1.1,3.4,1.6c0,0,0,0,0.1-0.1c-0.1-0.1-1.2-1.4-1.6-1.7c0.1,0,2.1,0.1,2.1,0.1s0,0,0,0l0.4,0.3
	c-0.5,0.8-0.9,1.7-1.3,2.7c1.5,0.2,2.9,0.3,4.3,0.5c0,0,0,0,0,0c0,0-1.6-1-2.5-1.3l-1.2,0.4c0,0,0.8-0.8,1.6-1.6L202.2,33.7z
	 M198.5,28.8c0.1,0,0.2,0.1,0.2,0.2s-0.1,0.2-0.2,0.2c-0.1,0-0.2-0.1-0.2-0.2S198.4,28.8,198.5,28.8z M197.6,30.2l-0.3-1.2
	c0.1,0,0.2-0.1,0.3-0.1l0.3,1.1C197.8,30.1,197.7,30.1,197.6,30.2z M198.4,29.8l1.2-0.5c0.1,0,0.1,0,0.2,0c0,0,0.1,0.1,0.1,0.1
	l0.1,0.7c-0.1,0.1-0.2,0.2-0.3,0.3l-0.1-0.7l-1.5,0.6C198.1,30.2,198.3,30,198.4,29.8z M206.6,15.8c0-0.1,0-0.1-0.1-0.1
	s-0.1,0-0.1,0.1c0,0.1,0,0.1,0.1,0.1S206.5,15.8,206.6,15.8z M203.9,12.1L203.9,12.1c0.1,0,0.4-0.2,0.4-0.2c0.1-0.1,0.1-0.1,0.1-0.1
	c0,0,0,0,0-0.1c0,0-0.4-0.2-0.5-0.2c0,0,0,0,0,0.2C203.9,12.1,203.9,12.1,203.9,12.1z M204.3,11.9c-0.1,0.1-0.2,0.2-0.3,0.2
	c0-0.1,0-0.3,0-0.4C204,11.7,204.2,11.8,204.3,11.9z M204.5,11.3c0.1-0.1-0.1-0.5-0.2-0.5l0,0l0,0c-0.1,0-0.3,0.3-0.3,0.3
	c0,0,0,0.1,0,0.1l0,0C204.1,11.3,204.5,11.4,204.5,11.3z M204.3,10.9c0,0.1,0.1,0.2,0.1,0.3c-0.1,0-0.3,0-0.3-0.1
	C204.2,11.1,204.3,11,204.3,10.9z M205.5,12.1c0.2-0.2,0.1-0.5-0.1-0.7s-0.5-0.1-0.7,0.1s-0.1,0.5,0.1,0.7
	C205,12.3,205.3,12.3,205.5,12.1z M206.2,16c0-0.1,0-0.1-0.1-0.1s-0.1,0-0.1,0.1s0,0.1,0.1,0.1C206.1,16.1,206.1,16.1,206.2,16z
	 M207.7,17.3c0,0-0.2,0.5-0.2,0.5c0,0,0.5-0.1,0.5-0.1C208.1,17.7,207.7,17.3,207.7,17.3z M201,13.9C201,13.9,201,14,201,13.9
	c0.2,0.1,0.4,0,0.4-0.1c0.2-0.5,0.4-0.9,0.7-1.4c-0.1,1,0,2.5,1.1,3.4c0.4,0.4,0.8,0.4,1.1,0.3c0.3-0.1,0.5-0.2,0.7-0.5
	c0-0.1,0-0.1,0-0.2c0.1-0.4,0-0.8-0.3-1c-0.4-0.3-1-0.3-1.3,0.1c-0.1,0.1-0.1,0.2-0.2,0.3c-0.5-0.7-0.5-1.6-0.5-2.4
	c0.1,0.4,0.4,0.8,0.8,1.1c1.1,0.9,2.7,0.8,3.6-0.3c0.9-1,0.7-2.7-0.4-3.6c-1-0.9-2.6-0.7-3.5,0.3c0,0,0,0,0,0l0,0c0,0,0,0,0,0
	c0,0,0,0,0,0l0,0c-0.4,0.5-1.7,2.1-2.2,3.5C200.8,13.7,200.9,13.8,201,13.9z M203.6,14.8c0.2-0.2,0.6-0.3,0.8-0.1
	c0.2,0.1,0.2,0.3,0.2,0.5c-0.1,0-0.1,0.1-0.2,0.1c0,0.1-0.1,0.2-0.3,0.2c-0.2,0-0.4,0-0.6-0.2c0,0-0.1-0.1-0.1-0.1
	C203.5,15.1,203.5,14.9,203.6,14.8z M203.6,10.5L203.6,10.5c0.7-0.8,1.9-0.9,2.7-0.3c0.9,0.7,1,2,0.3,2.8s-2,0.9-2.8,0.2
	C203,12.5,202.9,11.3,203.6,10.5z M206.2,17.3c-0.2,0.1-0.3,0.3-0.2,0.5s0.3,0.3,0.5,0.2c0.2-0.1,0.3-0.3,0.2-0.5
	C206.6,17.3,206.4,17.2,206.2,17.3z M206.4,17.9c-0.1,0-0.2,0-0.3-0.1c0-0.1,0-0.2,0.1-0.3c0.1,0,0.2,0,0.3,0.1
	C206.5,17.7,206.5,17.8,206.4,17.9z M205.2,12.5c-0.1,0-0.2,0.4-0.2,0.4c0,0.1,0,0.1,0,0.1l0,0c0.1,0,0.4,0,0.5,0c0,0,0.1,0,0.1-0.1
	C205.5,12.8,205.3,12.5,205.2,12.5C205.2,12.5,205.2,12.5,205.2,12.5z M205,12.9c0-0.1,0.1-0.2,0.1-0.3c0.1,0.1,0.2,0.2,0.2,0.3
	C205.3,12.9,205.1,12.9,205,12.9z M196.1,16.5c0,0,0.1-0.1,0.1-0.6c0-0.6-0.1-0.7-0.2-0.8l-0.1,0c-0.2-0.1-0.9,0.5-0.9,0.5
	c-0.2,0.2-0.2,0.2-0.2,0.3c0,0.1,0.1,0.1,0.1,0.1C194.9,16.1,195.9,16.7,196.1,16.5z M195.1,15.9c0.2-0.2,0.6-0.5,0.7-0.5
	c0.1,0.2,0.1,0.7,0.1,0.9C195.8,16.3,195.3,16.1,195.1,15.9z M205,11.1c0.1,0,0.2-0.4,0.2-0.4c0-0.1,0-0.1,0-0.1c-0.1,0-0.4,0-0.5,0
	c0,0-0.1,0-0.1,0.1C204.7,10.7,204.9,11,205,11.1C205,11.1,205,11.1,205,11.1z M205.2,10.6c0,0.1-0.1,0.2-0.1,0.3
	c-0.1-0.1-0.2-0.2-0.2-0.3C204.9,10.7,205.1,10.6,205.2,10.6z M205.8,11.7C205.8,11.7,205.8,11.7,205.8,11.7
	c0.1,0.1,0.4,0.3,0.5,0.2c0,0,0,0,0-0.2c0-0.2-0.1-0.3-0.1-0.3l0,0c-0.1,0-0.3,0.2-0.4,0.2C205.8,11.6,205.8,11.7,205.8,11.7z
	 M206.2,11.5c0,0.1,0,0.3,0,0.4c-0.1,0-0.2-0.1-0.3-0.1C206,11.6,206.1,11.5,206.2,11.5z M204.2,12.4
	C204.2,12.4,204.1,12.5,204.2,12.4c-0.1,0.1-0.1,0.2,0.1,0.3c0.2,0.1,0.2,0.1,0.2,0.1c0.1,0,0.1-0.4,0.1-0.4c0-0.1,0-0.1,0-0.1
	C204.6,12.3,204.2,12.4,204.2,12.4z M204.5,12.8c0,0-0.1,0-0.1-0.1c-0.1-0.1-0.1-0.1-0.1-0.1c0.1,0,0.2-0.1,0.3-0.1
	C204.6,12.5,204.5,12.7,204.5,12.8z M204.2,15.3c0.1-0.1,0.1-0.2,0-0.3c-0.1-0.1-0.2-0.1-0.3,0c-0.1,0.1-0.1,0.2,0,0.3
	S204.2,15.4,204.2,15.3z M206,11.1C206,11.1,206.1,11.1,206,11.1c0.1-0.1,0.1-0.2-0.1-0.3c-0.2-0.1-0.2-0.1-0.2-0.1
	c-0.1,0-0.1,0.4-0.1,0.4c0,0.1,0,0.1,0,0.1C205.6,11.3,206,11.1,206,11.1z M205.7,10.8c0,0,0.1,0,0.1,0.1c0.1,0.1,0.1,0.1,0.1,0.1
	c-0.1,0-0.2,0.1-0.3,0.1C205.6,11.1,205.6,10.9,205.7,10.8z M205.6,12.2c-0.1,0.1,0.1,0.5,0.2,0.5l0,0l0,0c0.1,0,0.3-0.3,0.3-0.3
	c0,0,0-0.1,0-0.1l0,0C206.1,12.3,205.7,12.2,205.6,12.2z M205.8,12.6c0-0.1-0.1-0.2-0.1-0.3c0.1,0,0.3,0,0.3,0.1
	C206,12.4,205.9,12.6,205.8,12.6z M192.7,14.2c0,0,0.1,0.1,0.1,0.1c0.2,0,0.6-0.9,0.6-1c0.1-0.2,0.1-0.3,0-0.4c-0.2-0.1-1,0-1.2,0
	c0,0-0.1,0-0.2,0.1C191.9,13.4,192.5,14.2,192.7,14.2z M193.2,13.2c0,0.2-0.3,0.6-0.4,0.8c-0.2-0.2-0.5-0.6-0.5-0.7
	C192.4,13.2,193,13.2,193.2,13.2z M208.6,21.3c0,0.1,0,0.1,0.1,0.2c0.1,0,0.1,0,0.2-0.1s0-0.1-0.1-0.2
	C208.7,21.2,208.6,21.3,208.6,21.3z M209.5,19.4c0.1,0,0.1-0.2,0.1-0.3c0-0.1-0.2-0.1-0.3-0.1c-0.1,0-0.1,0.2-0.1,0.3
	C209.2,19.4,209.4,19.5,209.5,19.4z M207.9,23.3c0,0.5,0.4,0.9,0.9,0.9c0.5,0,0.9-0.4,0.9-0.9c0-0.5-0.4-0.9-0.9-0.9
	C208.3,22.5,207.9,22.9,207.9,23.3z M209.1,23.3c0,0.2-0.1,0.3-0.3,0.3c-0.2,0-0.3-0.1-0.3-0.3c0-0.2,0.1-0.3,0.3-0.3
	C208.9,23,209.1,23.2,209.1,23.3z M207.9,21.7c0-0.1,0-0.1-0.1-0.2c-0.1,0-0.1,0-0.2,0.1c0,0.1,0,0.1,0.1,0.2S207.9,21.7,207.9,21.7
	z M194.1,16.9c0.4-0.5,0.3-1.4-0.2-1.8c-0.5-0.4-1.3-0.4-1.8,0.2c-0.4,0.5-0.4,1.3,0.2,1.8S193.6,17.4,194.1,16.9z M192.6,19.3
	c0.2,0.1,1,0,1.2,0c0,0,0.1,0,0.2-0.1c0.1-0.2-0.6-1-0.7-1.1c0,0-0.1-0.1-0.1-0.1c-0.2,0-0.6,0.9-0.6,1
	C192.5,19.1,192.5,19.2,192.6,19.3L192.6,19.3z M193.2,18.3c0.2,0.2,0.5,0.6,0.5,0.7c-0.2,0.1-0.7,0.1-0.9,0.1
	C192.9,18.9,193.1,18.4,193.2,18.3z M194.4,17.3c-0.1,0.2,0.3,1.2,0.4,1.3l0.1,0l0.1,0c0.2,0,0.7-0.7,0.8-0.9c0-0.1,0.1-0.2,0-0.2
	l0,0C195.6,17.4,194.5,17.1,194.4,17.3z M194.9,18.3c-0.1-0.2-0.3-0.6-0.3-0.8c0.2,0,0.7,0.1,0.9,0.1
	C195.4,17.8,195.1,18.2,194.9,18.3z M191.6,15c0.1-0.2-0.3-1.2-0.4-1.3l-0.1,0l-0.1,0c-0.2,0-0.7,0.7-0.8,0.9c0,0.1-0.1,0.2,0,0.2
	l0,0.1C190.3,14.9,191.4,15.1,191.6,15z M191,13.9c0.1,0.2,0.3,0.6,0.3,0.8c-0.2,0-0.7-0.1-0.9-0.2C190.6,14.4,190.9,14,191,13.9z
	 M207.2,18.6c0,0-0.2,0.5-0.2,0.5c0,0,0.5-0.1,0.5-0.1C207.6,19,207.3,18.6,207.2,18.6z M189.9,15.7c0,0-0.1,0.1-0.1,0.6
	c0,0.6,0.1,0.7,0.2,0.8l0.1,0c0.2,0.1,0.9-0.5,0.9-0.5c0.2-0.2,0.2-0.2,0.2-0.3c0-0.1-0.1-0.1-0.1-0.1C191,16.1,190,15.5,189.9,15.7
	z M190.9,16.3c-0.2,0.2-0.6,0.5-0.7,0.5c-0.1-0.2-0.1-0.7-0.1-0.9C190.2,16,190.6,16.2,190.9,16.3z M207.7,18.6c0,0,0.2-0.5,0.2-0.5
	c0,0-0.5,0.1-0.5,0.1C207.3,18.3,207.6,18.6,207.7,18.6z M208.1,21.4c0,0.1,0,0.1,0.1,0.2c0.1,0,0.1,0,0.2-0.1c0-0.1,0-0.1-0.1-0.2
	S208.2,21.3,208.1,21.4z M191,18.6c0.5,0.4,0.5,0.3,0.6,0.3c0.2-0.1,0.3-1,0.3-1c0-0.2,0-0.3-0.1-0.4c-0.2-0.1-1.1,0.3-1.1,0.3
	c-0.2,0.1-0.3,0.1-0.2,0.3C190.5,18.1,190.5,18.2,191,18.6z M191.6,17.8c0,0.2-0.1,0.7-0.1,0.9c-0.1,0-0.2-0.1-0.3-0.2
	c-0.2-0.2-0.3-0.3-0.4-0.3C190.9,18,191.4,17.8,191.6,17.8z M207,15.6c0-0.1,0-0.1-0.1-0.1c-0.1,0-0.1,0-0.1,0.1
	c0,0.1,0,0.1,0.1,0.1C206.9,15.7,206.9,15.6,207,15.6z M194.2,40.9l0-0.2l-0.1-0.5l0-0.2l-3.2-0.2l-0.2,3.1l-0.1,0.2l0.1,0.1l0,0.4
	l0,0l0.1,0.1l-0.1,1.1l-0.1,0.1l0.1,0.1l0,0.7l0,0l0,0.1l0.1,0.1l0.8,0l0.1-0.7l0-0.6l0-0.7l0-1.8l0.6,0l0.1,0.7l0.2,1.7l0.1,0.4
	l0.3,1.1l0.8,0.1l0-0.5l-0.1-0.1l0-0.1l0-0.3l-0.1-0.1l0,0l-0.1-0.4l-0.3-1.4l-0.1-1l0.1-0.1l0.2,0l0.5,0.1l0.1,0l0,0L194.2,40.9
	L194.2,40.9z M193.3,41.4l-1.5-0.1l0.1-0.1l0-0.2l0-0.3l1.5,0.1l0,0.3L193.3,41.4z M190.6,45.7L190.6,45.7L190.6,45.7L190.6,45.7z
	 M193.1,38l0.3-0.3v-0.2l0-0.1l0-0.3l0-0.2l0-0.1l0-0.1v-1l0.1,0v0l-0.1-0.2v-0.4l0.1-0.2l0-0.1l0,0l0-0.4l-0.1-1l-0.5-0.5l-0.5,0.1
	h-1.9l0,0.2l0,0.1l-0.1,0.1l0,0.1v0.3l0,0.1h0.5l0,0.2l0,0.4l-0.1,0.3l0.1,0.2v1.4l0.1,0.1l-0.1,0.1v0.1l0.1,0.1l0,0.2v0.2l0,0.1
	l0,0.1l0,0.2l0,0.1l-0.5,0v0l0,0l0,0.4l0,0.4l0,0.1h2.5L193.1,38z M192.5,37.2L192.5,37.2l-0.8,0.1v-1.5l0-0.5l0,0V34l-0.1-0.4h0.7
	V35l0,0.4l0,0l0.1,0.2l0,0l0,0.1v0.1l0.1,0.4l0,0.1L192.5,37.2L192.5,37.2z M186.4,39.4L186.4,39.4l-0.1,0.3l-0.8,1.9l-0.9,2.6
	l2.7,1.1l0.1-0.3l0.4-0.7l-0.6-0.1l-0.2,0l-1.3-0.5l-0.1-0.1l0.3-0.7l0-0.1l0.1-0.2l0.1-0.3l0.1-0.1l1.3,0.5l0.1-0.2l0-0.1l0.1-0.2
	l0.1-0.3l-0.5-0.3l-0.3-0.1l-0.5-0.2l0.3-1l0.1,0l0.1-0.1l0.1,0l1.4,0.5l0.5,0.2l0.1-0.4l0.1-0.1l0.1-0.4l0-0.1l-2.7-1.1L186.4,39.4
	z M183.7,39.9l1.6-2.1l-1.6-1.2l-0.5-0.4l-0.1,0.1l-0.4,0.6l-0.5,0.5l-0.3,0.4l-0.1,0.1l0,0.2l-2.3,3l2.5,1.9l2.1-2.7l0-0.1
	L183.7,39.9z M182.3,41.1l-0.4,0.6l-0.4-0.2l-0.6-0.4l-0.1-0.1l0.9-1.2l0.1-0.1l0.4,0.3l0.6,0.4L182.3,41.1z M182.4,38.9L182.4,38.9
	l0-0.1l0.1,0l0-0.1l0.1,0l0-0.1l0.1-0.1l0,0l0.7-0.9l0.6,0.4l0,0.1l-1,1.4L182.4,38.9z M188.5,30.3
	C188.5,30.3,188.5,30.3,188.5,30.3c0,0,2-0.1,2.1-0.1c-0.3,0.3-1.5,1.6-1.6,1.7c0,0,0,0,0.1,0.1c1.1-0.5,3.4-1.5,3.4-1.6
	c-0.8-0.5-1.7-0.8-2.6-1.1l0.6-0.5l-2.2-2.5l-1.9,1.9c0.2-0.6,1.2-2.7,2.3-2.8l1.6,2.4l1.6-3.4l-0.1-0.1c0,0-1.5,1.6-1.4,1.5
	c-0.1-0.2-0.4-1.4-0.4-1.5c-0.1-0.4-0.2-0.4-0.4-0.5c0,0-0.5-0.1-1-0.2l0.1-0.1c0.5,0.1,1.1,0.1,1.4-0.1c0,0,0.1,0,0.1-0.1
	c0.2,0.1,0.5,0.2,0.7,0.1c0.4-0.1,0.6-0.6,0.4-0.9c-0.1-0.2-0.2-0.3-0.4-0.4c0.1-0.4,0-1-0.3-1.2c0-0.3,0.1-0.7,0-1.2
	c0-0.1,0-0.3-0.1-0.4c-0.1-0.2-0.3-0.4-0.5-0.6c-1-0.7-3.2-0.5-3.8,0.8c-0.3,0.7-0.2,1.6,0.2,2.2c0,0.3,0.1,0.8,0.4,1c0,0,0,0,0,0
	c0.1,0.1,0.3,0.2,0.5,0.2l-0.2,0.5c-0.2,0-0.4-0.1-0.6-0.1c0,0.1,0,0.2,0.1,0.4c0.1,0.3,0.4,0.4,0.7,0.3c0.4-0.1,0.6-0.5,0.4-0.8
	c-0.1-0.2-0.3-0.4-0.5-0.4c-0.1,0-0.2-0.1-0.2-0.1c0.3,0,0.7,0.1,0.8,0.5c0.1,0.4-0.1,0.8-0.4,0.9c-0.4,0.1-0.8-0.1-0.9-0.4
	c0-0.1-0.1-0.2,0-0.4c-0.1,0-0.2,0-0.2-0.1c-0.4-0.1-0.6,0.1-0.8,0.3l-2.6,2.5l2.5,2.4c0,0,0.1-0.1,0.1-0.1
	c-0.4-0.7-0.7-1.4-1.1-2.1c0,0,1.3-0.9,1.3-0.9c-0.2,0.9-0.1,3.4-0.1,3.7c0,0.1-0.1,0.2,0,0.4l-2.8,2.9l1.2,1.4l3.4-2.4
	c0.8,0.8,1.6,1.6,1.6,1.6l-1.2-0.4c-0.8,0.2-2.4,1.2-2.5,1.3c0,0,0,0,0,0c1.4-0.2,2.8-0.3,4.3-0.5c-0.3-1-0.7-1.9-1.3-2.7
	L188.5,30.3z M187.5,28.9c0.1,0,0.2,0.1,0.2,0.2s-0.1,0.2-0.2,0.2s-0.2-0.1-0.2-0.2S187.3,28.9,187.5,28.9z M186.9,30.7
	c-0.1,0-0.2-0.1-0.2-0.2c0-0.1,0.1-0.2,0.2-0.2s0.2,0.1,0.2,0.2C187.1,30.6,187,30.7,186.9,30.7z M186.4,29.8l-0.1,0.7
	c-0.1-0.1-0.2-0.2-0.3-0.3l0.1-0.7c0-0.1,0-0.1,0.1-0.1c0,0,0.1,0,0.2,0l1.2,0.5c0.1,0.2,0.3,0.3,0.4,0.5L186.4,29.8z M188.4,28.9
	c0.1,0,0.2,0,0.3,0.1l-0.3,1.2c-0.1-0.1-0.2-0.1-0.3-0.2L188.4,28.9z M210,35.2l-0.3-0.1l-0.2-0.1l-0.6-0.3l-0.5-0.2l0.7-1.3
	l-0.5-0.2l0,0l-0.3-0.2l-0.2,0.5l-0.4,0.7l-0.1,0l-0.5-0.3l-0.3-0.1l-0.5-0.3l0-0.1l0.1-0.3l0.7-1.4l0.1-0.1l-0.8-0.4l-0.1,0.1
	l-1.3,2.5l0.1-0.1l4.8,2.5l0.3,0.1l0.3,0.2l1-1.8l0.1-0.3l0.1,0l0-0.1l0.2-0.3l-0.8-0.4L210,35.2z M210.1,28.9
	c0.3-0.1,0.4-0.5,0.2-0.8c-0.2-0.3-0.5-0.3-0.7-0.2c-0.3,0.1-0.4,0.4-0.3,0.7C209.5,28.9,209.8,29,210.1,28.9z M209.8,28.2
	c0.1,0,0.1,0,0.2,0c0,0.1,0,0.1-0.1,0.2c-0.1,0-0.1,0-0.2-0.1C209.7,28.3,209.7,28.3,209.8,28.2z M195.8,37.1l0,0.1l0.1,0.2l0,0v0.1
	l0.1,0l0,0.3L196,38l0.1,0l0.4,0.1h0.2l0,0l0-0.4l0-0.5l0-0.1l0-0.1v0l-0.1-0.1l0-0.3l0-0.3l-0.1-0.5l0-0.1l-0.1-0.3l-0.1-0.6
	l-0.1-0.1l-0.2-0.7l-0.1,0l0-0.2l-0.1-0.1v-0.3l0,0l-0.1-0.1l-0.1-0.2l0-0.3l-1,0l0,0.3l-0.1,0.1v0.2l-0.1,0.1v0.3l-0.1,0.2
	l-0.3,1.7l-0.3,2.3l0.7,0.1l0-0.3l0.1-0.5l0.1-0.2l0.1,0.1l0.5,0l0.2,0L195.8,37.1z M195,36.3l-0.2,0l0.1-0.2l0.1-0.3v0H195l0.2-1.7
	h0.1l0.3,2.2L195,36.3z M204.5,41.3L204.5,41.3l-0.1-0.1l0,0l-0.2-0.1l-0.2-0.2l-0.2-0.2l-0.5-0.4l0-0.1l-0.3-0.3l-0.4-0.5l-0.1,0
	l-0.6-0.6l0,0l-0.1-0.2l-0.2-0.1l-0.2-0.3l-0.1,0l-0.2-0.1l-0.2-0.1l-0.2-0.2l-1,0.6l0.2,0.4l0,0.2l0.1,0.2l0,0.1l0.2,0.3l0.1,0.3
	l0.7,1.8l1.1,2.4l0.7-0.4l-0.1-0.3l-0.2-0.5l-0.1-0.3l0.1,0l0.5-0.3l0.2-0.1l0.2-0.2l0,0.1l0.3,0.1l0,0.1l0,0.1l0.1,0l0.2,0.3
	l0.2,0.1l0.1-0.1l0.4-0.2l0.2-0.1l0,0l-0.3-0.4L204.5,41.3z M202.4,41.4l-0.1,0.1l-0.1-0.3l0-0.3l0,0l-0.1,0l-0.9-1.8l0.1-0.1
	L203,41L202.4,41.4z M200.1,44.1l-0.1-0.3l0-0.2l-0.1-0.1l0-0.2l-0.3-1.2l0,0l0,0l-0.1-0.2l-0.1-0.5l0-0.2l-0.1-0.1l0,0l-0.2-0.4
	l-0.4-1.2l-0.7-0.5l-0.6,0.2l-2.2,0.5l0.1,0.2l0,0l0,0.1l0.1,0.2l0.1,0.3l0,0.1l0.6-0.1l0,0.2l0.1,0.4l0,0.4l0.1,0.2l0.4,1.6
	l0.1,0.1l-0.1,0.2l0,0.1l0.1,0l0,0.2l0.1,0.3l0,0.1l0,0.1l0.1,0.2l0,0.1l-0.5,0.1l0,0l0,0.1l0.1,0.4l0.2,0.4l0,0.1l2.8-0.7l0.3-0.3
	l0.2-0.4L200.1,44.1L200.1,44.1z M198.3,44.4l-0.4-1.7l-0.2-0.6l0-0.1l-0.3-1.3l-0.2-0.4l0.8-0.2l0.4,1.6l0.2,0.5l0,0l0.1,0.2l0,0
	l0,0.1l0,0.1l0.2,0.5l0,0.2l0.2,0.7l0,0.1l0,0.1L198.3,44.4z M208.4,37.9L208.4,37.9l-0.3-0.3l-0.1-0.2l-0.1,0l-0.1-0.1l-0.8-0.8
	l0-0.1l0,0l-0.2-0.1l-0.3-0.3l-0.1-0.2l-0.1,0l0-0.1l-0.4-0.3l-0.9-0.8l-0.9,0l-0.4,0.5l-1.6,1.6l0.2,0.2l0.1,0l0,0.1l0.1,0.1
	l0.2,0.2l0.1,0.1l0.4-0.4l0.1,0.2l0.3,0.3l0.2,0.3l0.2,0.1l1.2,1.2l0.1,0l0,0.2l0.1,0.1l0.1,0l0.1,0.2l0.2,0.2l0.1,0l0.1,0.1
	l0.2,0.1l0,0.1l-0.4,0.4l0,0l0,0.1l0.3,0.3l0.4,0.3l0.1,0l2-2l0.1-0.4l0-0.5L208.4,37.9z M207,39.2l-1.3-1.3l-0.4-0.4l0-0.1l-1-1
	l-0.4-0.2l0.6-0.6l1.2,1.1l0.4,0.3l0,0.1l0.2,0.1l0,0l0,0.1l0.1,0.1l0.4,0.3l0.1,0.1l0.6,0.5l0.1,0.1l0,0.1L207,39.2z M175.5,26.9
	C175.5,26.9,175.5,26.9,175.5,26.9c-0.1,0-0.2,0-0.1,0.1s0.1,0.1,0.1,0C175.5,27,175.6,26.9,175.5,26.9z M176.2,26.7
	c-0.1,0-0.3,0-0.3,0c0,0.1,0.1,0.2,0.2,0.3C176.1,26.9,176.2,26.8,176.2,26.7z M181.7,34.4l-0.2-0.1l0,0.1l-4.6,3.9l0.5,0.9l0.7-0.5
	l4.1-3.4L181.7,34.4z M174.7,29C174.7,29,174.7,29,174.7,29c0-0.1,0-0.2-0.1-0.1c0,0-0.1,0.1,0,0.1C174.6,29,174.7,29,174.7,29z
	 M174.7,27.7C174.7,27.7,174.7,27.7,174.7,27.7c-0.1,0-0.2,0-0.1,0.1C174.6,27.8,174.7,27.8,174.7,27.7
	C174.7,27.8,174.7,27.8,174.7,27.7z M175,27.1c-0.1,0-0.2,0.2-0.2,0.2c0.1,0,0.2,0.1,0.3,0.1C175.1,27.3,175,27.1,175,27.1z
	 M172.9,23.7c-0.1,0-0.2,0.1-0.2,0.2c0,0.1,0.1,0.2,0.2,0.2c0.1,0,0.2-0.1,0.2-0.2C173.1,23.8,173.1,23.7,172.9,23.7z M176.1,35.2
	L176.1,35.2L176.1,35.2l-0.6-1.1l0,0l0-0.1l0.2,0l0.5-0.2l1.4-0.7l0-0.1l1.8-0.8l0-0.1l0.2-0.1l0.4-0.1l-0.4-0.9l-0.2,0.1l-0.8,0.4
	l-4.6,2.1l1.4,3l0.9-0.4L176.1,35.2L176.1,35.2z M176.7,26.9C176.7,26.9,176.7,26.9,176.7,26.9c-0.1,0-0.2,0-0.1,0.1
	c0,0,0.1,0.1,0.1,0C176.7,27,176.8,26.9,176.7,26.9z M177.1,27.1c0,0.1-0.1,0.2-0.1,0.3c0.1,0,0.3-0.1,0.3-0.1
	C177.3,27.2,177.2,27.1,177.1,27.1z M213.1,23.2c0-0.6-0.5-1.1-1.1-1.1c-0.6,0-1.1,0.5-1.1,1.1c0,0.6,0.5,1.1,1.1,1.1
	C212.6,24.3,213.1,23.8,213.1,23.2z M211.7,23.2c0-0.2,0.2-0.4,0.4-0.4c0.2,0,0.4,0.2,0.4,0.4s-0.2,0.4-0.4,0.4
	C211.8,23.6,211.7,23.4,211.7,23.2z M208.8,29.7c0-0.1,0.1-0.2,0.1-0.3c-0.1,0-0.3,0.1-0.3,0.1C208.6,29.5,208.7,29.6,208.8,29.7z
	 M210.4,29.8c0,0,0.1,0.1,0.1,0c0,0,0.1-0.1,0-0.1C210.5,29.7,210.5,29.7,210.4,29.8C210.4,29.7,210.4,29.8,210.4,29.8z M208.2,28.5
	c0.1,0,0.2-0.1,0.3-0.2c-0.1,0-0.2-0.1-0.3-0.2C208.2,28.3,208.2,28.5,208.2,28.5z M209.2,29.8c0,0,0.1,0.1,0.1,0c0,0,0.1-0.1,0-0.1
	C209.3,29.7,209.3,29.7,209.2,29.8C209.2,29.7,209.2,29.8,209.2,29.8z M209.7,30c0.1,0,0.3,0,0.3,0c0-0.1-0.1-0.2-0.2-0.3
	C209.8,29.8,209.7,30,209.7,30z M208.5,27.7C208.5,27.7,208.5,27.7,208.5,27.7c-0.1,0-0.2,0-0.1,0.1
	C208.4,27.8,208.5,27.8,208.5,27.7C208.5,27.8,208.6,27.8,208.5,27.7z M194.4,13.3c-0.2,0.1-0.3,1-0.3,1c0,0.3,0,0.3,0.1,0.4
	c0.2,0.1,1.1-0.3,1.1-0.3c0.2-0.1,0.3-0.1,0.2-0.3c0,0,0-0.2-0.5-0.6C194.5,13.2,194.4,13.3,194.4,13.3z M194.8,13.8
	c0.2,0.2,0.3,0.3,0.4,0.3c-0.2,0.1-0.6,0.3-0.8,0.3c0-0.2,0.1-0.7,0.1-0.9C194.5,13.6,194.6,13.7,194.8,13.8z M212,21.2
	c-1.1,0-2,0.9-2,2c0,1-0.7,1.4-1.3,1.4c-0.7,0-1.2-0.6-1.2-1.3c0-0.7,0.5-1.2,1.2-1.2c0.1,0,0.2-0.1,0.2-0.2s-0.1-0.2-0.2-0.2
	c-0.9,0-1.7,0.7-1.7,1.7c0,0.9,0.8,1.7,1.7,1.7c0.9,0,1.7-0.6,1.7-1.9c0-0.8,0.7-1.5,1.5-1.5s1.5,0.7,1.5,1.5c0,0.9-0.7,1.6-1.5,1.6
	c-0.1,0-0.2,0.1-0.2,0.2s0.1,0.2,0.2,0.2c1.1,0,2-0.9,2-2C214,22.1,213.1,21.2,212,21.2z M208.8,27.1c-0.1,0-0.2,0.2-0.2,0.2
	c0.1,0,0.2,0.1,0.3,0.1C208.9,27.3,208.8,27.1,208.8,27.1z M208.5,29C208.5,29,208.6,29,208.5,29c0-0.1,0-0.2-0.1-0.1
	c0,0-0.1,0.1,0,0.1C208.4,29,208.5,29,208.5,29z M211.3,27.8C211.4,27.8,211.4,27.8,211.3,27.8c0-0.1,0-0.2-0.1-0.1
	c0,0-0.1,0.1,0,0.1C211.2,27.8,211.3,27.8,211.3,27.8z M211.2,29.4c-0.1,0-0.2-0.1-0.3-0.1c0,0.1,0.1,0.3,0.1,0.3
	C211,29.6,211.1,29.5,211.2,29.4z M211.4,25.1c0-0.1-0.1-0.2-0.2-0.2c-0.1,0-0.2,0.1-0.2,0.2c0,0.1,0.1,0.2,0.2,0.2
	C211.3,25.3,211.4,25.2,211.4,25.1z M208.7,28.9c0.3,0.7,1.2,1,1.8,0.6c0.7-0.3,0.9-1.3,0.5-1.9c-0.4-0.6-1.1-0.8-1.7-0.5
	S208.4,28.2,208.7,28.9z M209.4,27.5c0.5-0.3,1-0.1,1.3,0.4c0.3,0.5,0.1,1.2-0.4,1.4s-1.2,0-1.4-0.5
	C208.7,28.2,208.9,27.7,209.4,27.5z M209.4,26.9C209.3,26.9,209.3,26.9,209.4,26.9c-0.1,0-0.2,0-0.1,0.1c0,0,0.1,0.1,0.1,0
	C209.4,27,209.4,26.9,209.4,26.9z M210,26.7c-0.1,0-0.3,0-0.3,0c0,0.1,0.1,0.2,0.2,0.3C209.9,26.9,210,26.8,210,26.7z M210.5,26.9
	C210.5,26.9,210.5,26.9,210.5,26.9c-0.1,0-0.2,0-0.1,0.1c0,0,0.1,0.1,0.1,0C210.6,27,210.6,26.9,210.5,26.9z M210.8,27.4
	c0.1,0,0.3-0.1,0.3-0.1c0-0.1-0.2-0.2-0.2-0.2C210.9,27.1,210.8,27.3,210.8,27.4z M211.3,29C211.4,29,211.4,29,211.3,29
	c0-0.1,0-0.2-0.1-0.1c0,0-0.1,0.1,0,0.1C211.2,29,211.3,29,211.3,29z M174.4,28.5c0.1,0,0.2-0.1,0.3-0.2c-0.1,0-0.2-0.1-0.3-0.2
	C174.4,28.3,174.4,28.5,174.4,28.5z M211.5,28.2c-0.1,0-0.2,0.1-0.3,0.2c0.1,0,0.2,0.1,0.3,0.2C211.5,28.5,211.5,28.3,211.5,28.2z
	 M209,25.3c-0.8,0.2-1.3-0.3-1.3-0.3c-0.1-0.1-0.2-0.1-0.2,0c0,0,0,0.1,0,0.1c0,0,0,0.1,0,0.1c0,0,0.6,0.6,1.6,0.4
	c0.1,0,0.1-0.1,0.1-0.2C209.2,25.4,209.1,25.3,209,25.3z M184,13.1c0,0,0.1,0,0.1,0c0,0,0.1,0,0.1-0.1c0-0.1,0-0.2-0.1-0.2
	c-0.4-0.2-0.7-0.3-1-0.5c-0.1,0-0.2,0-0.2,0.1c0,0.1,0,0.2,0.1,0.2C183.3,12.7,183.7,12.9,184,13.1z M175,29.7
	c0-0.1,0.1-0.2,0.1-0.3c-0.1,0-0.3,0.1-0.3,0.1C174.8,29.5,174.9,29.6,175,29.7z M186.1,13c-0.1,0.1-0.1,0.2-0.1,0.3
	c0.1,0.1,0.2,0.1,0.3,0.1s0.1-0.2,0.1-0.3C186.3,13,186.2,13,186.1,13z M185.8,19.9c0-0.3,0.2-0.7,0.5-1c0.6-0.8,1.5-0.7,1.9-0.6
	c0,0,0,0,0,0c-0.4-1.4-1.8-2.4-1.8-2.5c-0.1-0.1-0.3-0.1-0.4,0c-0.1,0.1-0.1,0.3,0,0.4c0,0,0.3,0.2,0.6,0.6
	c-0.2-0.1-0.4-0.2-0.7-0.3c-0.8-0.3-1.6-0.3-1.6-0.3c-0.1,0-0.3,0.1-0.3,0.3c0,0.1,0.1,0.3,0.3,0.3c0,0,0,0,0,0c0,0,1.3,0,2.3,0.6
	c-0.8-0.3-1.6-0.4-2.1-0.5c-0.9,0-1.5,0.2-1.5,0.2c-0.1,0-0.2,0.2-0.2,0.3c0,0.1,0.2,0.2,0.3,0.2c0,0,1.4-0.4,2.9,0.1
	c-1.3-0.2-2.5,0.2-3.4,0.9c-0.1,0.1-0.1,0.3,0,0.4c0.1,0.1,0.1,0.1,0.2,0.1c0.1,0,0.1,0,0.2-0.1c0.7-0.6,1.5-0.9,2.5-0.8
	c-0.3,0.1-0.7,0.2-1,0.4c-0.7,0.4-1.1,0.9-1.1,0.9c-0.1,0.1-0.1,0.3,0,0.4c0,0,0.1,0.1,0.2,0.1c0.1,0,0.2,0,0.2-0.1
	c0,0,0.7-0.8,1.6-1.1c-0.3,0.2-0.5,0.4-0.7,0.7c-0.4,0.6-0.6,1.2-0.6,1.2c0,0.1,0,0.3,0.2,0.3c0,0,0.1,0,0.1,0
	c0.1,0,0.2-0.1,0.3-0.2c0,0,0.2-0.6,0.6-1.1c0,0.1-0.1,0.2-0.1,0.2c-0.2,0.4-0.1,0.8-0.1,0.9c0,0.1,0.1,0.2,0.3,0.2c0,0,0,0,0,0
	c0.1,0,0.3-0.1,0.2-0.3c0,0,0-0.3,0.1-0.6C185.7,20.1,185.7,20,185.8,19.9z M183.3,14.9c0.1,0.1,0.2,0.2,0.4,0.1c0,0,0,0,0,0
	c0.1-0.1,0.2-0.3,0.1-0.4c-0.7-1.1-1.7-2.9-2.4-4.2c0.5,0.3,1.1,0.7,1.6,1c2.2,1.2,2.6,1.1,2.7,1c0.1-0.1,0.5-0.3,0.7-2.7
	c0.1-0.6,0.1-1.4,0.1-2c0.9,1.5,1.9,3.4,2.4,4.4c0.1,0.1,0.2,0.2,0.4,0.1c0,0,0,0,0,0c0.1-0.1,0.2-0.2,0.1-0.4c-0.6-1.2-2.1-4-3-5.5
	c-0.1-0.1-0.3-0.2-0.4-0.1c0,0,0,0.1-0.1,0.1c-0.1,0.1-0.1,0.2-0.1,0.3c0.2,0.9-0.1,4.6-0.4,5.2c-0.7-0.1-3.9-1.9-4.5-2.6
	C180.8,9,180.7,9,180.5,9c0,0-0.1,0-0.1,0c-0.1,0.1-0.2,0.2-0.1,0.4C180.9,10.6,182.4,13.4,183.3,14.9z M177.4,14.9
	c0.1-0.1,0-0.2-0.1-0.3s-0.2,0-0.3,0.1c-0.1,0.1,0,0.2,0.1,0.3C177.2,15,177.3,15,177.4,14.9z M187.2,11.5c0,0,0.1-0.1,0.1-0.1
	c0.1-0.3,0.1-0.7,0.2-1.2c0-0.1,0-0.2-0.1-0.2c-0.1,0-0.2,0-0.2,0.1c-0.1,0.5-0.1,0.8-0.2,1.1C187,11.4,187,11.5,187.2,11.5
	C187.1,11.5,187.2,11.5,187.2,11.5z M184.5,10.8c0.3,0.1,0.5,0,0.6-0.3c0.1-0.9,0.2-2.1,0.2-3c0-0.3-0.2-0.4-0.5-0.3
	c-0.4,0.2-0.9,0.4-1.5,0.7c-0.6,0.3-1.1,0.6-1.5,0.9c-0.2,0.2-0.2,0.4,0,0.6C182.6,9.8,183.7,10.5,184.5,10.8z M183.2,8.8
	c0.2-0.1,0.3-0.2,0.5-0.3c0.2-0.1,0.3-0.2,0.5-0.2c0.2-0.1,0.4,0,0.4,0.3c0,0.3,0,0.6-0.1,0.9c0,0.3-0.3,0.4-0.5,0.3
	c-0.3-0.1-0.5-0.3-0.8-0.4C183,9.2,183,8.9,183.2,8.8z M178.2,18l0.4-0.6c0,0,0,0,0,0c0-0.1,0-0.2,0-0.2c-0.1,0-0.2,0-0.2,0
	l-0.4,0.6c0,0.1,0,0.2,0,0.2C178,18,178.1,18,178.2,18z M179.6,15.3c0.1-0.1,0-0.2-0.1-0.3c-0.1-0.1-0.2,0-0.3,0.1s0,0.2,0.1,0.3
	C179.5,15.4,179.6,15.4,179.6,15.3z M178.4,15.8c0.1-0.1,0-0.2-0.1-0.3c-0.1-0.1-0.2,0-0.3,0.1c-0.1,0.1,0,0.2,0.1,0.3
	C178.2,15.9,178.3,15.9,178.4,15.8z M192.2,6.6c0.1,0,0.2-0.1,0.2-0.2c0-0.1-0.1-0.2-0.2-0.2c-0.1,0-0.2,0.1-0.2,0.2
	C191.9,6.5,192,6.6,192.2,6.6z M192.1,7.6c0,0.1,0.1,0.2,0.2,0.2c0.1,0,0.2-0.1,0.2-0.2c0-0.1-0.1-0.2-0.2-0.2S192.1,7.5,192.1,7.6z
	 M192.2,8.8c0,0.1,0.1,0.2,0.2,0.2c0.1,0,0.2-0.1,0.2-0.2s-0.1-0.2-0.2-0.2C192.3,8.6,192.2,8.7,192.2,8.8z M190.7,9.8
	c0,0.1,0.1,0.2,0.2,0.2c0.1,0,0.2-0.1,0.2-0.2c0-0.1-0.1-0.2-0.2-0.2S190.7,9.7,190.7,9.8z M192.4,10c0,0.1,0.1,0.2,0.2,0.2
	s0.2-0.1,0.2-0.2c0-0.1-0.1-0.2-0.2-0.2C192.4,9.8,192.4,9.9,192.4,10z M190.4,7.4c0,0.1,0.1,0.2,0.2,0.2c0.1,0,0.2-0.1,0.2-0.2
	c0-0.1-0.1-0.2-0.2-0.2C190.5,7.2,190.4,7.3,190.4,7.4z M190.6,8.6c0,0.1,0.1,0.2,0.2,0.2c0.1,0,0.2-0.1,0.2-0.2
	c0-0.1-0.1-0.2-0.2-0.2C190.6,8.4,190.5,8.5,190.6,8.6z M190.7,6.1c0-0.1-0.1-0.2-0.2-0.2c-0.1,0-0.2,0.1-0.2,0.2s0.1,0.2,0.2,0.2
	C190.6,6.4,190.7,6.3,190.7,6.1z M190.2,10.6c0.2,0.5,0.4,1.1,0.8,1.1c2.7-0.3,3.3-1.2,3.4-2c0.1-0.7-0.4-1.4-1-1.8
	c0.4-0.5,0.7-1.2,0.4-1.8c-0.3-0.7-1.1-1.4-3.7-1.1c-0.4,0.1-0.5,0.7-0.5,1.3c0,0.6,0,1.4,0.1,2.2C189.9,9.3,190,10.1,190.2,10.6z
	 M193.4,6.3c0.2,0.5-0.1,1.1-0.6,1.4c-0.1,0.1-0.1,0.2-0.1,0.3c0,0.1,0.1,0.2,0.2,0.2c0.6,0.2,1.1,0.8,1,1.4
	c-0.1,0.5-0.6,0.9-1.5,1.2l-0.7-0.5l0.4-0.5c0,0,0-0.1,0-0.1c0,0,0-0.1-0.1-0.1l-0.5-0.4l0.4-0.5c0,0,0-0.1,0-0.1s0-0.1-0.1-0.1
	l-0.5-0.4l0.4-0.5c0,0,0-0.1,0-0.1c0,0,0-0.1-0.1-0.1l-0.5-0.4l0.4-0.5c0.1-0.1,0-0.2,0-0.2l-0.5-0.4C192.4,5.5,193.2,5.7,193.4,6.3
	z M190.3,5.5c0.1,0,0.2,0,0.4,0l0.7,0.5l-0.4,0.5c0,0,0,0.1,0,0.1c0,0,0,0.1,0.1,0.1l0.5,0.4l-0.4,0.5c0,0,0,0.1,0,0.1
	c0,0,0,0.1,0.1,0.1l0.5,0.4L191.2,9c0,0,0,0.1,0,0.1c0,0,0,0.1,0.1,0.1l0.5,0.4l-0.4,0.5c0,0,0,0.1,0,0.1c0,0,0,0.1,0.1,0.1l0.6,0.5
	c-0.2,0.1-0.5,0.1-0.8,0.1c0,0,0,0,0-0.1c0-0.1-0.1-0.2-0.2-0.2c-0.1,0-0.1,0.1-0.2,0.2c-0.1-0.2-0.3-0.8-0.5-1.9
	C190.1,7.3,190.2,5.8,190.3,5.5z M184.1,9.3c0.1-0.1,0.2-0.2,0.1-0.4s-0.2-0.2-0.4-0.1s-0.2,0.2-0.1,0.4S184,9.4,184.1,9.3z
	 M186.8,9.1c-0.1,0-0.2,0.1-0.2,0.1c-0.1,1-0.2,3-0.8,3.3c-0.6,0.3-1.9-0.4-3.2-1.2c-0.1,0-0.2,0-0.2,0.1c0,0.1,0,0.2,0.1,0.2
	c1.5,0.9,2.8,1.6,3.5,1.2c0.6-0.3,0.8-1.6,1-3.6C187,9.2,186.9,9.1,186.8,9.1z M177.5,27.8C177.6,27.8,177.6,27.8,177.5,27.8
	c0-0.1,0-0.2-0.1-0.1c0,0-0.1,0.1,0,0.1C177.4,27.8,177.5,27.8,177.5,27.8z M175.8,27.8c-0.3,0.1-0.4,0.4-0.3,0.7
	c0.1,0.3,0.5,0.4,0.8,0.3c0.3-0.1,0.4-0.5,0.2-0.8C176.4,27.8,176.1,27.7,175.8,27.8z M176.1,28.5c-0.1,0-0.1,0-0.2-0.1
	c0-0.1,0-0.1,0.1-0.2c0.1,0,0.1,0,0.2,0C176.2,28.3,176.2,28.4,176.1,28.5z M177.2,27.6c-0.4-0.6-1.1-0.8-1.7-0.5s-0.9,1-0.6,1.7
	s1.2,1,1.8,0.6S177.6,28.3,177.2,27.6z M176.5,29.3c-0.5,0.3-1.2,0-1.4-0.5s0-1.1,0.5-1.3c0.5-0.3,1-0.1,1.3,0.4
	C177.2,28.3,177,29,176.5,29.3z M177.5,29C177.6,29,177.6,29,177.5,29c0-0.1,0-0.2-0.1-0.1c0,0-0.1,0.1,0,0.1
	C177.4,29,177.5,29,177.5,29z M177.7,28.2c-0.1,0-0.2,0.1-0.3,0.2c0.1,0,0.2,0.1,0.3,0.2C177.7,28.5,177.7,28.3,177.7,28.2z
	 M176.6,29.8c0,0,0.1,0.1,0.1,0c0,0,0.1-0.1,0-0.1C176.7,29.7,176.7,29.7,176.6,29.8C176.6,29.7,176.6,29.8,176.6,29.8z M177.3,29.4
	c-0.1,0-0.2-0.1-0.3-0.1c0,0.1,0.1,0.3,0.1,0.3C177.2,29.6,177.3,29.5,177.3,29.4z M175.4,29.8c0,0,0.1,0.1,0.1,0c0,0,0.1-0.1,0-0.1
	C175.5,29.7,175.5,29.7,175.4,29.8C175.4,29.7,175.4,29.8,175.4,29.8z M175.9,30c0.1,0,0.3,0,0.3,0c0-0.1-0.1-0.2-0.2-0.3
	C176,29.8,175.9,30,175.9,30z M174.2,22.1c0,0.1,0.7,0.2,1.6,0.3s1.6,0.2,1.6,0.1c0-0.1-0.7-0.2-1.6-0.3
	C174.9,22,174.2,22,174.2,22.1z M178.2,19.8c0.1,0,0.1-0.1,0.1-0.1s-0.1-0.1-0.1-0.1c-0.1,0-0.1,0.1-0.1,0.1S178.1,19.8,178.2,19.8z
	 M179.1,21.7c0-0.1,0-0.1,0-0.2c-0.1,0-0.1,0-0.2,0c0,0.1,0,0.1,0,0.2S179.1,21.8,179.1,21.7z M179,20.2c0-0.1-0.1-0.1-0.1-0.1
	s-0.1,0.1-0.1,0.1s0.1,0.1,0.1,0.1C178.9,20.3,179,20.3,179,20.2z M178.5,19.8c-0.1,0-0.1,0.1-0.1,0.1s0.1,0.1,0.1,0.1
	s0.1-0.1,0.1-0.1S178.5,19.8,178.5,19.8z M181.6,15.9c-0.1,0.1,0,0.2,0.1,0.3s0.2,0,0.3-0.1c0.1-0.1,0-0.2-0.1-0.3
	S181.7,15.8,181.6,15.9z M179.3,17.8l-0.6,0.8c0,0.1,0,0.2,0,0.2c0.1,0,0.2,0,0.2,0l0.6-0.8c0,0,0,0,0,0c0-0.1,0-0.2,0-0.2
	C179.4,17.8,179.3,17.8,179.3,17.8z M177.3,18.6c-0.1-0.1-0.2,0-0.3,0.1c-0.1,0.1,0,0.2,0.1,0.3s0.2,0,0.3-0.1
	C177.4,18.8,177.4,18.7,177.3,18.6z M178.4,21.4c0,0.1,0,0.1,0,0.2c0.1,0,0.1,0,0.2,0s0-0.1,0-0.2C178.5,21.3,178.4,21.4,178.4,21.4
	z M178.9,23.9C178.9,23.9,178.9,23.8,178.9,23.9c0-0.2-0.1-0.3-0.3-0.3c-1.9,0.1-3.9-0.2-5.9-0.7c0-0.3,0.1-0.6,0.1-0.8
	c0,0,0,0.1,0,0.1c0,0.2,0.1,0.5,0.6,0.6c1.5,0.4,2.9,0.6,4.4,0.6c0.4,0,0.6-0.3,0.6-0.6c0,0,0,0,0,0c0-0.3-0.1-0.6-0.4-0.7
	c-1.1-0.3-3-0.6-4.3-0.6c-0.3,0-0.5,0.3-0.5,0.5c0,0.2,0.1,0.5,0.4,0.6c1.3,0.3,2.8,0.5,4.2,0.6c0.3,0,0.4-0.2,0.4-0.4
	c0-0.2-0.1-0.5-0.3-0.5c-1.3-0.3-2.9-0.5-3.9-0.5c-0.2,0-0.3,0.1-0.4,0.3c0,0.2,0.1,0.3,0.3,0.4c1.1,0.3,2.7,0.5,3.8,0.5
	c0,0,0.1,0,0.1,0c0,0,0-0.1,0-0.1c-1.1,0-2.7-0.2-3.8-0.5c-0.1,0-0.2-0.1-0.2-0.2c0-0.1,0.1-0.2,0.2-0.2c0.9,0,2.6,0.3,3.9,0.5
	c0.2,0,0.2,0.2,0.2,0.4c0,0.1-0.1,0.3-0.3,0.3c-1.4,0-2.8-0.2-4.1-0.6c-0.2-0.1-0.3-0.3-0.3-0.5c0-0.2,0.2-0.4,0.4-0.4
	c1.3,0,3.1,0.3,4.3,0.6c0.3,0.1,0.4,0.4,0.3,0.6c0,0,0,0,0,0c0,0.3-0.2,0.5-0.5,0.5c-1.5,0-2.9-0.2-4.4-0.6
	c-0.4-0.1-0.5-0.3-0.5-0.5c0-0.3,0.1-0.5,0.2-0.6c0,0,0,0,0-0.1c0,0,0,0-0.1,0c-0.1,0.1-0.2,0.2-0.3,0.4c0.1-0.5,0.2-1.1,0.3-1.6
	c0,0,0,0,0,0c0-0.1-0.1-0.3-0.2-0.3c-0.2,0-0.3,0-0.4,0.2c-0.6,1.9-0.6,4.6-0.7,4.7c0,0.2,0.1,0.3,0.3,0.3s0.3-0.1,0.3-0.3
	c0,0,0-0.6,0.1-1.4c2,0.5,4.1,0.8,6,0.7C178.7,24.1,178.8,24,178.9,23.9z M177.8,21.3c0,0.1,0,0.1,0,0.2s0.1,0,0.2,0
	c0-0.1,0-0.1,0-0.2C177.9,21.2,177.9,21.2,177.8,21.3z M177.3,19.4c-0.1,0.1-0.1,0.3,0.1,0.4c0.1,0.1,0.3,0.1,0.4-0.1
	c0,0,0.1-0.2,0.4-0.5c0.4,0.4,0.8,0.8,1.2,1c0.1,0.1,0.3,0.1,0.4-0.1c0.1-0.1,0.1-0.3-0.1-0.4c-0.4-0.3-0.8-0.6-1.2-1
	c0.5-0.6,1.1-1.5,1.7-2.3c0,0.1,0,0.1,0.1,0.2c0.1,0.1,0.2,0,0.3-0.1s0-0.2-0.1-0.3c-0.1,0-0.1,0-0.2,0c0.1-0.2,0.3-0.4,0.4-0.5
	l0.5,1.4c0,0.1,0.1,0.1,0.2,0.1c0,0,0.1,0,0.1-0.1c0,0,0-0.1,0-0.1l-0.6-1.6c0,0,0,0,0.1-0.1c0.5,0.2,0.9,0.4,1.3,0.7
	c0.1,0.1,0.3,0.1,0.4-0.1c0.1-0.1,0.1-0.3-0.1-0.4c-0.4-0.3-1-0.6-1.6-0.8c0,0,0,0,0,0c0,0,0,0,0,0c-2.1-0.9-4.7-1.4-5.3-0.5
	c-0.5,0.8,0.6,3,2.1,4.6C177.5,19.1,177.3,19.3,177.3,19.4z M178.5,14.5c0.6,0.1,1.3,0.3,1.9,0.6c-0.1,0.1-0.2,0.3-0.3,0.5l-0.9,0.5
	l-0.7-1.4C178.5,14.6,178.5,14.6,178.5,14.5c-0.1,0-0.2,0-0.2,0.1l-1.2,1l-0.8-1.1c0,0,0,0-0.1-0.1
	C176.6,14.3,177.3,14.2,178.5,14.5z M176.1,14.6C176.1,14.6,176.1,14.6,176.1,14.6l0.8,1.3c0,0,0.1,0.1,0.1,0.1c0,0,0.1,0,0.1,0
	l1.2-1l0.6,1.3c0,0,0.1,0.1,0.1,0.1c0,0,0.1,0,0.1,0l0.4-0.3c-0.5,0.8-1.1,1.6-1.6,2.2C176.9,16.9,176,15.2,176.1,14.6z"/>
</svg>
