<?xml version="1.0" encoding="utf-8"?>
<!-- Generator: Adobe Illustrator 24.0.1, SVG Export Plug-In . SVG Version: 6.00 Build 0)  -->
<svg version="1.1" id="Camada_1" xmlns="http://www.w3.org/2000/svg" xmlns:xlink="http://www.w3.org/1999/xlink" x="0px" y="0px"
	 viewBox="0 0 219 219" style="enable-background:new 0 0 219 219;" xml:space="preserve">
<style type="text/css">
	.st0{fill:#BE1B2E;}
	.st1{fill:#FFFFFF;}
</style>
<path class="st0" d="M208.9,0H10.1C4.5,0,0,4.5,0,10.1V209c0,5.5,4.5,10,10.1,10H209c5.6,0,10.1-4.5,10.1-10.1V10.1
	C219,4.5,214.5,0,208.9,0z M215,208.9c0,3.3-2.7,6-6,6h-142l-13-20.2c-1.6-2.5-4.1-4.3-7-5L4,179.7V10.1c0-3.3,2.7-6,6-6h114.3
	l19.2,29.9c2.3,3.5,5.8,6,9.9,7L215,55.3L215,208.9L215,208.9z"/>
<g>
	<path class="st1" d="M205.9,32.9l4.4,0.1c0.4,0,0.7-0.3,0.8-0.7l0.5-17.6c0-0.4-0.3-0.7-0.7-0.8l-4.4-0.1c-0.4,0-0.7,0.3-0.8,0.7
		l-0.5,17.6C205.1,32.6,205.5,32.9,205.9,32.9L205.9,32.9z M208.5,18.3c0.4,0,0.7,0.3,0.7,0.8c0,0.4-0.3,0.7-0.8,0.7
		c-0.4,0-0.7-0.3-0.7-0.8C207.7,18.6,208,18.3,208.5,18.3z M208.4,21.3c0.4,0,0.7,0.3,0.7,0.8c0,0.4-0.3,0.7-0.8,0.7
		c-0.4,0-0.7-0.3-0.7-0.8C207.6,21.6,208,21.3,208.4,21.3L208.4,21.3z M208.3,24.2c0.4,0,0.7,0.3,0.7,0.8c0,0.4-0.3,0.7-0.8,0.7
		c-0.4,0-0.7-0.3-0.7-0.8C207.6,24.5,207.9,24.2,208.3,24.2z M208.2,27.1c0.4,0,0.7,0.3,0.7,0.8c0,0.4-0.3,0.7-0.8,0.7
		c-0.4,0-0.7-0.3-0.7-0.8C207.5,27.4,207.8,27.1,208.2,27.1z"/>
	<path class="st1" d="M204.1,15.3c-0.6-0.1-1.3-0.1-2.1-0.1l1,16c0.2,0,0.4,0,0.6,0L204.1,15.3z"/>
	<path class="st1" d="M153,19.4l-0.2-1.9l-3.9,0.5c-0.4,0.1-0.7,0.4-0.7,0.9l0.2,1.2L153,19.4z"/>
	<path class="st1" d="M148.6,21.5l4.6-0.6l0.2,1.9l-4.6,0.6L148.6,21.5z"/>
	<path class="st1" d="M150.5,30.2l3.8-0.5l-0.2-1.9l-4.6,0.6l0.1,1.1C149.7,30,150.1,30.3,150.5,30.2z"/>
	<path class="st1" d="M149.1,24.9l4.6-0.6l0.2,1.9l-4.6,0.6L149.1,24.9z"/>
	<path class="st1" d="M153.3,15.8c0.4-0.1,0.8,0.2,0.9,0.7l1.8,13.8c0.1,0.4-0.2,0.8-0.7,0.9l-3.8,0.5l0.2,1.5
		c0.1,0.4,0.4,0.7,0.9,0.7l4.6-0.6c0.4-0.1,0.7-0.4,0.7-0.9L155.4,14c-0.1-0.4-0.4-0.7-0.9-0.7l-4.6,0.6c-0.4,0.1-0.7,0.4-0.7,0.9
		l0.2,1.5L153.3,15.8z"/>
	<path class="st1" d="M160.2,31.2l-1-16.8c-0.8,0.1-1.5,0.3-2,0.4l2.1,16.5C159.5,31.2,159.9,31.2,160.2,31.2z"/>
	<path class="st1" d="M163.8,16.4c-0.1,1.1-0.1,2.1-0.1,3.2c0,0.1,0.2,0.2,0.3,0.2c1.2-0.2,2.3-0.4,3.5-0.5c0.4-0.1,0.9-0.1,1.3,0
		c0.1,0,0.2,0.1,0.2,0.2c0.1,0.5,0.1,1.1,0.1,1.6c0,0.6-0.2,0.8-0.8,0.9c-1.1,0.1-2.1,0.1-3.2,0.1c-0.5,0-1,0-1.5,0.1
		c0,1.3,0,2.5,0,3.8c0,1.5-0.1,3.2-0.2,4.7c0,0.7-0.2,0.7-0.8,0.7c-0.4,0-0.4-0.2-0.4-0.5c-0.2-2.5-0.3-5.3-0.6-7.8
		c-0.3-2.3-0.9-4.6-1.3-7c-0.1-0.3-0.3-0.8,0.1-1c0.2-0.1,0.4-0.2,0.6-0.2c3.1-0.5,6.3-0.9,9.4-1.4c0.5-0.1,0.6,0,0.7,0.5
		c0,0.5,0.1,1,0.1,1.4c0,0.5-0.1,0.7-0.7,0.8c-1.2,0.1-2.4,0.2-3.6,0.2C165.8,16.3,164.8,16.3,163.8,16.4z"/>
	<path class="st1" d="M201.4,10.2c0.3,0.3,0.7,0.6,1,1c-1,1.3-2.3,2.1-3.7,2.9c-0.4,0.2-0.6-0.2-0.8-0.5c-0.1-0.2-0.1-0.5,0-0.6
		C199.1,12.1,200.2,11.2,201.4,10.2z"/>
	<path class="st1" d="M186,23c-0.3-0.2-0.6-0.3-1-0.5c-1.3-0.5-2.6-1-3.9-1.6c0.1-0.1,0.2-0.2,0.4-0.3c1.1-0.7,2.1-1.3,3.2-2
		c0.3-0.2,0.4-0.4,0.3-0.7c-0.1-0.6-0.1-1.2-0.2-1.7c-0.1-1-0.2-1.9-0.4-2.9c-1.8,0.4-3.4,0.8-5.1,1.1c-0.5,0.1-0.6,0.3-0.7,0.7
		c0,0.1,0,0.3,0,0.4c0,2,0,4,0,6c0,1.2,0.1,2.5,0.1,3.7c0,0.4,0.2,0.5,0.5,0.4c0.2-0.1,0.4-0.1,0.6-0.1c0.5,0.1,0.6-0.2,0.7-0.6
		c0-0.3,0.1-0.6,0.1-0.9c0-0.4,0-0.7,0.1-1.2c0.6,0.3,1.1,0.5,1.7,0.8c1,0.4,2,0.8,3,1.2c0.2,0.1,0.5,0.1,0.7,0
		C186.6,24.5,186.6,23.3,186,23z M180.7,19.2c-0.1-1.3-0.2-2.4-0.3-3.6c0.5,0,0.9,0,1.4,0c0.1,0,0.2,0.1,0.2,0.2
		c0.2,0.5,0.5,0.9,0.7,1.4c0.1,0.1,0,0.4,0,0.5C182,18.2,181.4,18.7,180.7,19.2z"/>
	<path class="st1" d="M177.7,15.4c-1.7-0.5-3.3-1-5.1-1.5c-0.2,0.5-0.4,1-0.5,1.5c-0.8,2.3-1.5,4.7-2.3,7c0,0.1,0,0.3,0.1,0.5
		c0.3,0.4,0.6,0.9,0.9,1.3c0.1,0.1,0.3,0.2,0.4,0.2c1.4,0,2.9,0,4.3-0.1c1.2,0,1.8,0,2-1.6c0.2-2.2,0.4-4.3,0.6-6.5
		C178.2,15.7,178.1,15.5,177.7,15.4z M174.9,22.5c0,0.1-0.2,0.4-0.3,0.4c-0.9,0-1.7,0-2.6,0c-0.1,0-0.1,0-0.2-0.1
		c0.2-0.9,0.4-1.9,0.7-2.8c0.3-1.2,0.6-2.3,0.9-3.5c0.1-0.3,0.2-0.4,0.4-0.3c0.4,0,0.7,0,1.2,0.1c0,1.3,0,2.5,0,3.7
		C175,20.8,175,21.7,174.9,22.5z"/>
	<path class="st1" d="M201.2,23.9c-0.2-2-0.3-5.9-0.5-7.9c0-0.4-0.2-0.7-0.7-0.7c-0.6-0.1-1.2-0.1-1.8-0.2c-1.4-0.3-2.8-0.6-4.2-0.8
		c-0.4-0.1-0.6,0-0.6,0.4c-0.1,0.9-0.2,1.9-0.2,2.8c0,2.9,0,5.9,0,8.8c0,0.7,0,2.6,0.1,3.4c0.3-0.1,7.6-1.1,7.6-1.1
		C202,28.4,201.3,25.1,201.2,23.9z M195.9,26.7c-0.2-3.1-0.3-7.2-0.5-10.3c1,0,1.9,0.1,2.8,0.2c0.2,0,0.5,0.3,0.5,0.5
		c0.3,2.3,0.5,4.5,0.8,6.8c0.1,0.5,0.1,2,0.2,2.7C198.3,26.7,197.1,26.7,195.9,26.7z"/>
	<path class="st1" d="M191.6,23.7c-0.4-0.5-0.8-1-1.2-1.5c-0.6-0.8-1.3-1.5-2-2.4c0.3,0,0.4-0.1,0.6-0.1c0.7-0.1,1.4-0.1,2.2-0.2
		c0.5-0.1,0.6-0.3,0.5-0.8c-0.1-0.3-0.2-0.6-0.3-0.9c-0.4-1.2-0.9-2.4-1.3-3.7c0-0.1-0.2-0.2-0.3-0.2c-1.2,0.1-2.3,0.1-3.5,0.2
		c-0.3,0-0.4,0.2-0.5,0.5c-0.1,0.8-0.2,1.6-0.3,2.4c-0.2,1.3-0.3,2.7-0.5,4c-0.1,0.8,0,0.9,0.7,1.1c0.8,0.2,0.9,0.2,1-0.7
		c0.1-0.4,0.2-0.8,0.3-1.3c0.7,0.9,1.4,1.7,2,2.5c0.7,0.8,1.3,1.5,2.1,2.4c0.1-0.2,0.2-0.4,0.4-0.5C191.9,24.3,191.9,24,191.6,23.7z
		 M187.4,15.3c0.7-0.1,1.4-0.1,2.3-0.2c0,1,0,2,0.1,3c-0.9,0-1.6-0.1-2.5-0.1C187.4,17.1,187.4,16.2,187.4,15.3z"/>
	<g>
		<path class="st1" d="M165.5,30.8c-0.1,0-0.2,0-0.3,0c0,0-0.1,0-0.1,0c0,0,0-0.1,0-0.1c0-0.2,0-0.3,0-0.3c0-0.1,0-0.3-0.1-0.6
			c0-0.3-0.1-0.6-0.1-0.7c0-0.8,0-1.3,0-1.5c0-0.1,0.1-0.1,0.2-0.1c0,0,0.1,0,0.2,0c0.6-0.1,1.1,0,1.5,0.1c0.4,0.1,0.6,0.3,0.6,0.5
			c0,0.5-0.3,1-0.9,1.3c-0.3,0.1-0.6,0.2-1,0.3c0,0.2,0,0.4,0,0.4c0,0,0,0.1,0,0.2c0,0.1,0,0.2,0,0.2c0,0.1,0,0.2,0.1,0.3
			c0,0.1,0,0.1,0,0.1L165.5,30.8z M165.6,28.3c0,0.1,0,0.4,0.1,0.9c0,0,0.1,0,0.4-0.1c0.1,0,0.3-0.1,0.4-0.2c0.1,0,0.2-0.1,0.4-0.2
			c0.2-0.2,0.3-0.4,0.2-0.7c0-0.1-0.3-0.2-0.8-0.3c-0.2,0-0.3,0-0.5,0c-0.1,0-0.2,0-0.2,0C165.6,28,165.6,28.2,165.6,28.3z"/>
		<path class="st1" d="M167.9,30.7c0,0-0.1,0-0.2,0c-0.1,0-0.2,0-0.2,0c-0.1,0-0.2,0-0.2-0.1c0,0,0-0.1,0-0.1c0,0,0,0,0-0.1
			c0,0,0,0,0-0.1c0,0,0.1-0.4,0.3-1c0.2-0.7,0.4-1.2,0.4-1.3c0.1-0.3,0.2-0.5,0.3-0.8l0.2,0l0.1,0c0.2,0,0.3,0,0.4,0
			c0.1,0,0.1,0.1,0.1,0.2c0,0.1,0.4,1,1.1,2.8c0,0,0,0.1,0,0.2l0,0l-0.3,0l-0.3,0c-0.1,0-0.1,0-0.1,0c0-0.2,0-0.3-0.1-0.4l0-0.1
			l0-0.1l0,0c0-0.4,0-0.5-0.1-0.6c-0.1,0-0.2,0-0.3,0c0,0-0.1,0-0.3,0c-0.2,0-0.3,0-0.3,0c0,0-0.1,0-0.1,0.1c0,0-0.1,0.4-0.3,1
			C167.9,30.7,167.9,30.7,167.9,30.7z M169.2,29.1c0-0.1-0.1-0.1-0.1-0.2c0,0-0.1-0.1-0.1-0.3c-0.1-0.2-0.1-0.3-0.1-0.3
			c0,0,0-0.1-0.1-0.2c0-0.1-0.1-0.2-0.1-0.3c0,0-0.1,0.1-0.2,0.4c-0.1,0.2-0.1,0.5-0.2,0.6c0,0.1-0.1,0.2-0.1,0.3c0,0,0.2,0.1,0.4,0
			C168.8,29.2,169,29.1,169.2,29.1z"/>
		<path class="st1" d="M171.5,29.2c-0.2,0-0.3,0.1-0.4,0.1c0,0.2,0,0.4,0,0.4c0,0,0,0.1,0,0.2c0,0.1,0,0.2,0,0.2
			c0,0.1,0,0.2,0.1,0.3c0,0.1,0,0.1,0,0.1l-0.3,0c0,0-0.1,0-0.1,0c-0.1,0-0.1,0-0.1,0c0,0-0.1,0-0.1-0.1c0-0.2,0-0.3,0-0.3
			c0-0.1,0-0.3-0.1-0.6c0-0.3-0.1-0.6-0.1-0.7c0-0.8,0-1.3,0-1.5c0-0.1,0.1-0.1,0.2-0.1c0,0,0.1,0,0.2,0c0.6-0.1,1.1,0,1.5,0.1
			c0.4,0.1,0.6,0.3,0.6,0.5c0,0.5-0.3,1-0.9,1.3l0.2,0.3c0,0,0.1,0.1,0.1,0.2c0.1,0.1,0.1,0.2,0.2,0.3c0.1,0.2,0.2,0.3,0.3,0.5
			c0,0,0.1,0.1,0.1,0.1c0,0,0,0,0,0c0,0-0.1,0-0.2,0c-0.1,0-0.2,0-0.2,0l-0.3,0c0,0,0,0,0,0c0,0,0,0,0,0c0-0.2-0.1-0.3-0.2-0.4
			c0-0.1-0.1-0.1-0.1-0.2c0,0,0-0.1-0.1-0.2c-0.1-0.1-0.1-0.2-0.1-0.2C171.7,29.4,171.6,29.3,171.5,29.2L171.5,29.2z M170.9,28
			c0,0.1,0,0.4,0.1,0.8c0,0,0.1,0,0.4-0.1c0.1,0,0.3-0.1,0.4-0.2c0.1,0,0.3-0.1,0.4-0.2c0.2-0.2,0.3-0.4,0.2-0.6
			c0-0.1-0.3-0.2-0.8-0.3c-0.2,0-0.3,0-0.5,0c-0.1,0-0.2,0-0.2,0C170.9,27.7,170.9,27.9,170.9,28z"/>
		<path class="st1" d="M173.8,30.5c0,0-0.1,0-0.2,0c-0.1,0-0.2,0-0.2,0c-0.1,0-0.2,0-0.2-0.1c0,0,0-0.1,0-0.1c0,0,0,0,0-0.1
			c0,0,0,0,0-0.1c0,0,0.1-0.4,0.3-1c0.2-0.7,0.4-1.2,0.4-1.3c0.1-0.3,0.2-0.5,0.3-0.8l0.2,0l0.1,0c0.2,0,0.3,0,0.4,0
			c0.1,0,0.1,0.1,0.1,0.2c0,0.1,0.4,1,1.1,2.8c0,0,0,0.1,0,0.2l0,0l-0.3,0l-0.3,0c-0.1,0-0.1,0-0.1,0c0-0.2,0-0.3-0.1-0.4l0-0.1
			l0-0.1l0,0c0-0.4,0-0.5-0.1-0.6c-0.1,0-0.2,0-0.3,0c0,0-0.1,0-0.3,0c-0.2,0-0.3,0-0.3,0c0,0-0.1,0-0.1,0.1c0,0-0.1,0.4-0.3,1
			C173.8,30.4,173.8,30.5,173.8,30.5z M175.2,28.9c0-0.1-0.1-0.1-0.1-0.2c0,0-0.1-0.1-0.1-0.3c-0.1-0.2-0.1-0.3-0.1-0.3
			c0,0,0-0.1-0.1-0.2c0-0.1-0.1-0.2-0.1-0.3c0,0-0.1,0.1-0.2,0.4c-0.1,0.2-0.1,0.5-0.2,0.6c0,0.1-0.1,0.2-0.1,0.3c0,0,0.2,0.1,0.4,0
			C174.8,28.9,174.9,28.9,175.2,28.9z"/>
		<path class="st1" d="M178.3,27.2c-0.5,0-1,0-1,0c0,0,0,0,0-0.1c0,0,0-0.1,0-0.1c0,0,0-0.1,0.1-0.1l1,0c0,0,0.2,0,0.5,0
			c0.2,0,0.7,0,1,0l0.2,0c0,0,0.1,0.1,0,0.2c0,0,0,0.1-0.1,0.1c0,0,0,0,0,0c0,0-0.5,0-1,0c0,0.1,0,0.2,0,0.3c0,0.1,0,0.3,0,0.5
			c0,0.2,0,0.5,0,0.8c0,0.1,0,0.4,0,0.8c0,0,0,0.1,0,0.3c0,0.1,0,0.2,0,0.3c0,0-0.1,0.1-0.2,0.1c0,0-0.1,0-0.2,0c-0.1,0-0.1,0-0.2,0
			c-0.1,0-0.1,0-0.1-0.1c0-0.1,0.1-0.1,0.1-0.1c0-0.1,0-0.3,0-0.7c0-0.3,0-0.6,0-1C178.4,28.2,178.4,27.8,178.3,27.2z"/>
		<path class="st1" d="M181.2,26.8c0.3,0,0.6,0,0.8,0.2c0.2,0.1,0.3,0.3,0.5,0.5c0.2,0.3,0.3,0.9,0.2,1.6c0,0.2-0.1,0.3-0.2,0.5
			c-0.2,0.3-0.6,0.5-1.1,0.6l-0.1,0c-0.5,0-0.8-0.2-1.1-0.5c-0.1-0.2-0.2-0.3-0.2-0.5c-0.1-0.7-0.1-1.3,0.1-1.6
			c0.1-0.2,0.2-0.4,0.4-0.5c0.2-0.1,0.4-0.2,0.7-0.3L181.2,26.8z M181.3,30c0.3-0.1,0.5-0.3,0.6-0.7c0.1-0.3,0.1-0.6,0-1
			c0-0.4-0.1-0.7-0.3-0.9c-0.1-0.2-0.3-0.3-0.4-0.4c-0.1,0-0.1,0-0.1,0c-0.1,0.1-0.3,0.2-0.4,0.4c-0.1,0.2-0.2,0.5-0.2,0.9
			c0,0.4,0,0.7,0.1,0.9C180.7,29.7,181,30,181.3,30L181.3,30z"/>
		<path class="st1" d="M185.6,28.1c0.1,0.5,0.1,0.8,0.1,1.1c0,0.2-0.2,0.4-0.4,0.5c-0.2,0.1-0.4,0.2-0.7,0.3c-0.1,0-0.4,0.1-0.8,0.1
			c-0.4,0-0.6,0-0.7,0c0,0-0.1,0-0.1,0c0,0,0-0.1,0-0.1c0-0.2,0-0.3,0-0.3c0-0.1,0-0.3-0.1-0.6c0-0.3-0.1-0.6-0.1-0.7
			c0-0.8,0-1.3,0-1.4c0-0.1,0.1-0.1,0.2-0.1c0,0,0.1,0,0.2,0c0.5,0,0.8,0,1,0c0.3,0.1,0.6,0.2,0.8,0.5
			C185.4,27.4,185.5,27.7,185.6,28.1z M184.8,27.5c-0.1-0.2-0.3-0.3-0.5-0.4c0,0-0.2,0-0.4,0c-0.1,0-0.1,0-0.2,0
			c-0.1,0-0.1,0-0.1,0.1l0,0.5c0,0.6,0,0.9,0,0.9c0,0.1,0,0.2,0.1,0.4c0,0.1,0,0.3,0,0.4c0,0.3,0.1,0.5,0.3,0.5c0.1,0,0.2,0,0.4-0.1
			c0.2-0.1,0.3-0.2,0.4-0.2c0.2-0.2,0.4-0.4,0.4-0.6c0-0.2,0-0.4-0.1-0.7c0,0,0,0,0,0C185,27.9,184.9,27.8,184.8,27.5z"/>
		<path class="st1" d="M187.3,26.6c0.3,0,0.6,0,0.8,0.2c0.2,0.1,0.3,0.3,0.5,0.5c0.2,0.3,0.3,0.9,0.2,1.6c0,0.2-0.1,0.3-0.2,0.5
			c-0.2,0.3-0.6,0.5-1.1,0.6l-0.1,0c-0.5,0-0.8-0.2-1.1-0.5c-0.1-0.2-0.2-0.3-0.2-0.5c-0.1-0.7-0.1-1.3,0.1-1.6
			c0.1-0.2,0.2-0.4,0.4-0.5c0.2-0.1,0.4-0.2,0.7-0.3L187.3,26.6z M187.4,29.8c0.3-0.1,0.5-0.3,0.6-0.7c0.1-0.3,0.1-0.6,0-1
			c0-0.4-0.1-0.7-0.3-0.9c-0.1-0.2-0.3-0.3-0.4-0.4c-0.1,0-0.1,0-0.1,0c-0.1,0.1-0.3,0.2-0.4,0.4c-0.1,0.2-0.2,0.5-0.2,0.9
			c0,0.4,0,0.7,0.1,0.9C186.9,29.5,187.1,29.7,187.4,29.8L187.4,29.8z"/>
		<path class="st1" d="M191,29c0-0.2,0-0.4-0.1-0.5c-0.1-0.1-0.2-0.2-0.4-0.2c0,0-0.2,0-0.5-0.1c-0.2,0-0.4-0.1-0.5-0.2
			c-0.3-0.1-0.4-0.3-0.5-0.5c0-0.1,0-0.2,0-0.3c0.2-0.5,0.7-0.8,1.3-0.8c0.3,0,0.6,0,0.9,0.1c0.1,0.1,0.2,0.1,0.3,0.2
			c0.1,0.1,0.1,0.2,0,0.3c-0.1,0-0.1,0.1-0.2,0.1c-0.1,0-0.1,0-0.2,0c-0.1,0-0.2-0.1-0.2-0.1c-0.1-0.1,0-0.1,0-0.2
			c0-0.1,0.1-0.1,0.2-0.1c0,0,0.1,0,0.1,0c-0.1-0.1-0.3-0.2-0.6-0.2c-0.2,0-0.4,0.1-0.5,0.1c-0.1,0.1-0.2,0.2-0.3,0.3
			c-0.1,0.1-0.1,0.2-0.1,0.3c0,0.2,0,0.4,0.2,0.5c0.1,0.1,0.3,0.1,0.5,0.1c0.7,0,1.2,0.1,1.3,0.4c0.1,0.1,0.1,0.3,0,0.4
			c0,0.2-0.1,0.3-0.2,0.5c-0.3,0.3-0.6,0.5-1.1,0.6c-0.5,0-0.9,0-1.2-0.3c-0.1-0.1-0.2-0.2-0.2-0.3c0-0.1,0-0.1,0-0.2
			c0-0.1,0.1-0.1,0.2-0.2c0.1,0,0.2-0.1,0.3-0.1c0.1,0,0.2,0,0.3,0.1c0.1,0.1,0.2,0.1,0.2,0.2c0,0.1,0,0.2,0,0.2
			c-0.1,0.1-0.2,0.2-0.3,0.2c0,0,0.1,0.1,0.2,0.1c0.1,0.1,0.3,0.1,0.5,0.1C190.6,29.6,190.9,29.4,191,29z"/>
	</g>
</g>
</svg>
