<?xml version="1.0" encoding="utf-8"?>
<!-- Generator: Adobe Illustrator 24.0.1, SVG Export Plug-In . SVG Version: 6.00 Build 0)  -->
<svg version="1.1" id="Camada_1" xmlns="http://www.w3.org/2000/svg" xmlns:xlink="http://www.w3.org/1999/xlink" x="0px" y="0px"
	 viewBox="0 0 219 219" style="enable-background:new 0 0 219 219;" xml:space="preserve">
<style type="text/css">
	.st0{fill:#BE1B2E;}
	.st1{fill:#FFFFFF;}
	.st2{fill-rule:evenodd;clip-rule:evenodd;fill:#FFFFFF;}
</style>
<path class="st0" d="M208.9,0H10.1C4.5,0,0,4.5,0,10.1V209c0,5.5,4.5,10,10.1,10H209c5.6,0,10.1-4.5,10.1-10.1V10.1
	C219,4.5,214.5,0,208.9,0z M215,208.9c0,3.3-2.7,6-6,6h-142l-13-20.2c-1.6-2.5-4.1-4.3-7-5L4,179.7V10.1c0-3.3,2.7-6,6-6h114.3
	l19.2,29.9c2.3,3.5,5.8,6,9.9,7L215,55.3L215,208.9L215,208.9z"/>
<g>
	<g>
		<path class="st1" d="M180.8,11.4c-0.2,0.1-0.3,0.1-0.5,0.1c-0.2,0-0.4,0-0.5-0.1c-0.1-0.1-0.2-0.2-0.3-0.3l2.1-1.2l0-0.1
			c-0.1-0.2-0.3-0.4-0.5-0.5c-0.2-0.1-0.4-0.2-0.7-0.2c-0.4,0-0.8,0.1-1.1,0.4c-0.3,0.3-0.4,0.6-0.4,1.1c0,0.4,0.1,0.8,0.4,1.1
			c0.3,0.3,0.7,0.4,1.1,0.4c0.2,0,0.4,0,0.6-0.1c0.2-0.1,0.4-0.2,0.6-0.3l0,0v-0.7l-0.2,0.1C181.1,11.2,180.9,11.4,180.8,11.4z
			 M180.3,9.6c0.1,0,0.2,0,0.3,0.1c0.1,0,0.1,0.1,0.1,0.1l-1.5,0.9c0,0,0,0,0,0c0-0.3,0.1-0.5,0.3-0.7C179.8,9.7,180,9.6,180.3,9.6z
			"/>
		<path class="st1" d="M184,9.4c-0.1-0.1-0.2-0.2-0.3-0.2c-0.2-0.1-0.4-0.2-0.7-0.2c-0.4,0-0.8,0.1-1.1,0.4
			c-0.3,0.3-0.4,0.6-0.4,1.1c0,0.4,0.1,0.8,0.4,1.1c0.3,0.3,0.7,0.4,1.1,0.4c0.2,0,0.5-0.1,0.7-0.2c0.1-0.1,0.2-0.1,0.3-0.2V12
			l0.5-0.1V8L184,8V9.4z M183.8,9.8c0.2,0.2,0.3,0.4,0.3,0.7c0,0.3-0.1,0.5-0.3,0.7c-0.2,0.2-0.4,0.3-0.7,0.3
			c-0.3,0-0.5-0.1-0.7-0.3c-0.2-0.2-0.3-0.4-0.3-0.7c0-0.3,0.1-0.5,0.3-0.7c0.2-0.2,0.4-0.3,0.7-0.3C183.3,9.6,183.6,9.6,183.8,9.8z
			"/>
		<path class="st1" d="M186.7,10.9c0,0.2-0.1,0.4-0.2,0.5c-0.1,0.1-0.3,0.2-0.5,0.2c-0.2,0-0.3-0.1-0.4-0.2
			c-0.1-0.1-0.2-0.3-0.2-0.6V9.1l-0.5,0.1v1.8c0,0.4,0.1,0.6,0.3,0.8c0.2,0.2,0.4,0.3,0.8,0.3c0.2,0,0.4,0,0.5-0.1
			c0.1,0,0.2-0.1,0.2-0.2V12l0.5-0.1V9.1l-0.5,0.1V10.9z"/>
		<path class="st1" d="M189.6,11.3c-0.1,0.1-0.2,0.1-0.4,0.2c-0.1,0-0.2,0.1-0.4,0.1c-0.3,0-0.5-0.1-0.7-0.3
			c-0.2-0.2-0.3-0.4-0.3-0.7c0-0.3,0.1-0.5,0.3-0.7c0.2-0.2,0.4-0.3,0.7-0.3c0.1,0,0.2,0,0.4,0.1c0.1,0,0.2,0.1,0.4,0.2l0.1,0.1
			l0.3-0.4l-0.1-0.1c-0.2-0.1-0.3-0.2-0.5-0.2c-0.2-0.1-0.4-0.1-0.6-0.1c-0.4,0-0.8,0.1-1.1,0.4c-0.3,0.3-0.4,0.6-0.4,1.1
			c0,0.4,0.1,0.8,0.4,1.1c0.3,0.3,0.7,0.4,1.1,0.4c0.2,0,0.4,0,0.5-0.1c0.2-0.1,0.4-0.1,0.5-0.3l0.1-0.1L189.6,11.3L189.6,11.3z"/>
		<path class="st1" d="M191.3,9c-0.1,0-0.3,0-0.4,0c-0.1,0-0.3,0.1-0.4,0.1l-0.1,0l-0.2,0.6l0.2-0.1c0.2-0.1,0.3-0.1,0.4-0.2
			c0.1,0,0.2,0,0.3,0c0.2,0,0.3,0,0.4,0.1c0.1,0.1,0.1,0.2,0.1,0.3v0.1c-0.1,0-0.1-0.1-0.2-0.1c-0.1-0.1-0.3-0.1-0.4-0.1
			c-0.3,0-0.6,0.1-0.8,0.3c-0.2,0.2-0.3,0.5-0.3,0.8c0,0.3,0.1,0.6,0.3,0.8c0.2,0.2,0.5,0.3,0.8,0.3c0.2,0,0.3,0,0.4-0.1
			c0.1,0,0.1-0.1,0.2-0.1v0.2l0.5-0.1v-2c0-0.3-0.1-0.6-0.2-0.7C191.9,9.1,191.6,9,191.3,9z M191.7,11c0,0.2-0.1,0.3-0.2,0.4h0
			c-0.1,0.1-0.2,0.2-0.4,0.2c-0.2,0-0.3-0.1-0.4-0.2c-0.1-0.1-0.2-0.2-0.2-0.4c0-0.2,0.1-0.3,0.2-0.4c0.1-0.1,0.3-0.2,0.4-0.2
			c0.2,0,0.3,0.1,0.4,0.2C191.7,10.6,191.7,10.8,191.7,11z"/>
		<path class="st1" d="M195,9.4c-0.1-0.1-0.2-0.2-0.3-0.2C194.4,9.1,194.2,9,194,9c-0.4,0-0.8,0.1-1.1,0.4c-0.3,0.3-0.4,0.6-0.4,1.1
			s0.1,0.8,0.4,1.1c0.3,0.3,0.7,0.4,1.1,0.4c0.2,0,0.5-0.1,0.7-0.2c0.1-0.1,0.2-0.1,0.3-0.2V12l0.5-0.1V8L195,8V9.4z M194.7,9.8
			c0.2,0.2,0.3,0.4,0.3,0.7c0,0.3-0.1,0.5-0.3,0.7c-0.2,0.2-0.4,0.3-0.7,0.3c-0.3,0-0.5-0.1-0.7-0.3c-0.2-0.2-0.3-0.4-0.3-0.7
			c0-0.3,0.1-0.5,0.3-0.7c0.2-0.2,0.4-0.3,0.7-0.3C194.2,9.6,194.5,9.6,194.7,9.8z"/>
		<path class="st1" d="M197.2,9c-0.4,0-0.8,0.1-1.1,0.4c-0.3,0.3-0.4,0.6-0.4,1.1c0,0.4,0.1,0.8,0.4,1.1c0.3,0.3,0.7,0.4,1.1,0.4
			c0.4,0,0.8-0.1,1.1-0.4c0.3-0.3,0.4-0.6,0.4-1.1c0-0.4-0.1-0.8-0.4-1.1C198,9.2,197.6,9,197.2,9z M198.2,10.5
			c0,0.3-0.1,0.5-0.3,0.7c-0.2,0.2-0.4,0.3-0.7,0.3c-0.3,0-0.5-0.1-0.7-0.3c-0.2-0.2-0.3-0.4-0.3-0.7c0-0.3,0.1-0.5,0.3-0.7
			c0.2-0.2,0.4-0.3,0.7-0.3c0.3,0,0.5,0.1,0.7,0.3C198.1,10,198.2,10.3,198.2,10.5z"/>
		<path class="st1" d="M200.3,9.5l0.2-0.5h-0.2c-0.2,0-0.4,0.1-0.6,0.2c-0.1,0.1-0.2,0.1-0.2,0.2V9.1l-0.5,0.1V12l0.5-0.1v-1.1
			c0-0.4,0.1-0.8,0.2-1C199.8,9.7,199.9,9.6,200.3,9.5L200.3,9.5z"/>
		<path class="st1" d="M202.2,9.3L202.2,9.3C202,9.1,201.8,9,201.5,9c-0.1,0-0.3,0-0.4,0c-0.1,0-0.3,0.1-0.4,0.1l-0.1,0l-0.2,0.6
			l0.2-0.1c0.2-0.1,0.3-0.1,0.4-0.2c0.1,0,0.2,0,0.3,0c0.2,0,0.3,0,0.4,0.1c0.1,0.1,0.1,0.2,0.1,0.3v0.1c-0.1,0-0.1-0.1-0.2-0.1
			c-0.1-0.1-0.3-0.1-0.4-0.1c-0.3,0-0.6,0.1-0.8,0.3c-0.2,0.2-0.3,0.5-0.3,0.8c0,0.3,0.1,0.6,0.3,0.8c0.2,0.2,0.5,0.3,0.8,0.3
			c0.2,0,0.3,0,0.4-0.1c0.1,0,0.1-0.1,0.2-0.1v0.2l0.5-0.1v-2C202.4,9.7,202.3,9.4,202.2,9.3z M201.9,11c0,0.2-0.1,0.3-0.2,0.4
			c-0.1,0.1-0.2,0.2-0.4,0.2c-0.2,0-0.3-0.1-0.4-0.2c-0.1-0.1-0.2-0.2-0.2-0.4c0-0.2,0.1-0.3,0.2-0.4c0.1-0.1,0.3-0.2,0.4-0.2
			c0.2,0,0.3,0.1,0.4,0.2C201.8,10.6,201.9,10.8,201.9,11z"/>
	</g>
	<path class="st1" d="M176.9,28.8c0.1,0,0.3,0,0.4,0v-21h-3v21.8h0.4c0.1,0,0.3-0.1,0.3-0.2C175.6,29.2,176.2,28.9,176.9,28.8z"/>
	<path class="st1" d="M178.8,30.5c0,0.6,0,1.1,0.1,1.6l6.9,0.1v-1.1l0,0V13.4h-3v16.3c0,0.6-0.1,0.9-0.5,0.9c-0.3,0-0.5-0.2-0.5-0.4
		v-0.4V13.4h-3v16.8C178.8,30.3,178.8,30.4,178.8,30.5z"/>
	<path class="st1" d="M194.1,31.6L194.1,31.6L194.1,31.6l0-5.1h-3v3.2c0,0.5,0,0.9-0.4,0.9c-0.4,0-0.5-0.3-0.5-0.9v-5.3h3.9v-6.2h0
		v-2.1c0-2.2-0.9-2.9-3.5-2.9c-2.5,0-3.5,0.7-3.5,2.9v13.4c0,0,0,1.6,0.1,2.6l6.8,0.1C194.1,32.1,194.1,31.9,194.1,31.6z
		 M190.2,16.5c0-0.6,0.1-0.9,0.5-0.9c0.3,0,0.4,0.2,0.4,0.4v0.4v5.7h-0.9V16.5z"/>
	<path class="st1" d="M197.4,32.1c0.1,0,0.1,0,0.2,0c0.1-0.1,0.2-0.2,0.3-0.2c0.2-0.3,0.6-0.5,1-0.5l0.2,0c0.2,0,0.3,0,0.5,0.1
		c0.1-0.1,0.3-0.1,0.4-0.1l0.2,0c0.2,0,0.3,0,0.5,0.1c0.1-0.1,0.3-0.1,0.4-0.1l0.2,0c0.4,0,0.8,0.2,1,0.5c0,0,0,0,0.1,0
		c0-0.5,0-1,0-1.6v-4.4c0-1.3-0.1-2.1-1.4-2.9l-1.8-1.1c-0.7-0.4-0.7-0.7-0.7-1.1v-0.1v-4.1c0-0.5,0.2-0.8,0.5-0.8
		c0.3,0,0.5,0.3,0.5,0.8v3.9h3v-2.8c0-3.4-0.3-4.2-3.5-4.2c-3.2,0-3.5,0.9-3.5,4.2v3.2c0,1.3,0.1,2.2,1.4,3l1.8,1.1
		c0.4,0.3,0.7,0.6,0.7,0.9v0.4v3.8c0,0.5-0.1,0.8-0.5,0.8c-0.3,0-0.5-0.3-0.5-0.8v-3.3h-3v2.3h0v1.4c0,0.8,0,1.5,0.1,2l1.1,0
		C196.9,32.2,197.1,32.1,197.4,32.1z"/>
	<path class="st1" d="M168.9,24.4c0-0.6,0.1-0.9,0.5-0.9c0.3,0,0.4,0.2,0.4,0.4v0.4v3c0,0,0.1,0,0.1,0c1.1,0.2,2,0.7,2.9,1.3v-4.6
		c0-0.8,0-1.4-0.1-1.9c-0.1-0.5-0.2-0.9-0.4-1.3c-0.2-0.4-0.5-0.7-0.8-0.9c0.5-0.3,0.8-0.8,1-1.4c0.2-0.6,0.3-1.5,0.3-2.6v-3.5
		c0-0.9,0-1.7-0.1-2.3c-0.1-0.6-0.3-1.1-0.5-1.4c-0.2-0.4-0.6-0.6-1-0.8c-0.4-0.2-1-0.2-1.6-0.2h-3.7v20.5c0.9-0.7,1.9-1,3-1V24.4z
		 M168.9,11c0-0.6,0.1-0.9,0.5-0.9c0.3,0,0.4,0.2,0.4,0.4V11v6.5c0,0.5,0,0.9-0.4,0.9c-0.4,0-0.5-0.3-0.5-0.9V11z"/>
	<path class="st2" d="M169.5,32.5l0,2.7c0,0.2-0.1,0.3-0.3,0.3l0,0c-0.1,0-0.3-0.1-0.3-0.3v-2.7c0-0.2,0.1-0.3,0.3-0.3l0,0
		C169.4,32.3,169.5,32.4,169.5,32.5L169.5,32.5z M168.7,32.8l0,2.2c0,0.1-0.1,0.2-0.2,0.2l0,0c-0.1,0-0.2-0.1-0.2-0.2v-2.2
		c0-0.1,0.1-0.2,0.2-0.2l0,0C168.6,32.5,168.7,32.6,168.7,32.8L168.7,32.8z M167.9,33.1l0,1.6c0,0.1-0.1,0.2-0.2,0.2l0,0
		c-0.1,0-0.2-0.1-0.2-0.2v-1.6c0-0.1,0.1-0.2,0.2-0.2l0,0C167.8,32.9,167.9,33,167.9,33.1L167.9,33.1z M175.8,33l-4-0.1
		c-0.2,0-0.5-0.2-0.5-0.4l-0.2-1c-0.1-0.4,0.3-0.8,0.8-0.6l3.1,1.2c0.3,0.1,0.5,0.3,0.7,0.6L175.8,33L175.8,33z M172.8,29.9
		c-0.9-0.8-1.9-1.4-3-1.6c-1.1-0.2-2.4,0-3.3,0.7c-0.7,0.5-1.1,1.3-1.4,2.1c-0.9,2.7-0.3,5.3,0.5,6.4c0.9,1.1,2.2,1.8,3.6,1.9
		c1.4,0.1,2.8-0.5,3.8-1.5c0.2-0.3,0.5-0.5,0.8-0.7c0.3-0.2,0.7-0.3,1-0.1c0.5,0.3,0.9,0.6,1.4,0.8c0.5,0.2,1.1,0.3,1.6,0.1
		c0.7-0.2,1.2-0.8,1.5-1.4c0.3-0.5,0.4-1.1,0.5-1.7l17.7-0.2l0,0.1c0,0.1,0.1,0.2,0.2,0.2c0.1,0,0.2-0.1,0.2-0.1
		c0.1,0,0.2,0,0.3,0.1c0.2,0.1,0.3,0.3,0.5,0.4c0.1,0,0.2,0,0.4,0l0,0.2c0,0.1,0.1,0.3,0.2,0.3l0.2,0c0.1,0,0.2-0.1,0.2-0.3l0-0.3
		c0,0,0,0,0,0c0.2,0,0.4,0,0.6,0c0,0,0,0.1,0,0.1l0,0.3c0,0.1,0.1,0.3,0.2,0.3l0.2,0c0.1,0,0.2-0.1,0.2-0.3l0-0.3c0,0,0,0,0-0.1
		c0.2,0,0.4,0,0.6,0.1l0,0.2c0,0.1,0.1,0.3,0.2,0.3l0.2,0c0.1,0,0.2-0.1,0.2-0.3l0-0.1c0.1,0,0.2,0,0.2,0c0.3,0,0.5-0.3,0.5-0.5
		c0-0.1,0-0.3,0.1-0.4c0,0,0.1-0.1,0.1-0.1c0,0,0.1-0.1,0.1-0.1c0-0.1,0-0.1-0.1-0.1c0,0,0-0.1,0-0.1c0,0,0-0.1,0-0.1
		c0.1,0,0.1-0.1,0.1-0.1c0-0.1,0-0.1-0.1-0.1c0,0-0.1-0.1-0.1-0.1c-0.1-0.1-0.1-0.2-0.1-0.3c0-0.3-0.2-0.5-0.5-0.5
		c-0.1,0-0.2,0-0.2,0l0-0.1c0-0.1-0.1-0.3-0.2-0.3l-0.2,0c-0.1,0-0.2,0.1-0.2,0.3l0,0.3c-0.2,0-0.4,0.1-0.6,0.1c0,0,0-0.1,0-0.1
		l0-0.3c0-0.1-0.1-0.3-0.2-0.3l-0.2,0c-0.1,0-0.2,0.1-0.2,0.3l0,0.3c0,0,0,0.1,0.1,0.1c-0.2,0-0.4,0-0.6,0c0,0,0-0.1,0-0.1l0-0.3
		c0-0.1-0.1-0.3-0.2-0.3l-0.2,0c-0.1,0-0.2,0.1-0.2,0.3l0,0.2c-0.1,0-0.3-0.1-0.4,0c-0.2,0-0.3,0.3-0.5,0.4c-0.1,0-0.2,0.1-0.3,0.1
		c0-0.1-0.1-0.2-0.2-0.2c-0.1,0-0.2,0.1-0.2,0.2v0.1L177.8,33c-0.1-0.1-0.2-0.1-0.3-0.2c-0.3-0.3-0.6-0.8-0.4-1.2
		c0.1-0.2,0.3-0.4,0.5-0.6c0.2-0.2,0.3-0.5,0.2-0.7c-0.1-0.3-0.5-0.5-0.9-0.5c-0.5,0-1,0.3-1.5,0.6c-0.5,0.2-1.1,0.5-1.6,0.3
		C173.4,30.5,173.1,30.2,172.8,29.9L172.8,29.9z M170.1,29.7c0,0.2-0.2,0.4-0.4,0.4c-0.2,0-0.4-0.2-0.4-0.4c0-0.2,0.2-0.4,0.4-0.4
		C169.9,29.3,170.1,29.5,170.1,29.7L170.1,29.7z M167.2,31.2c0,0.2-0.2,0.4-0.4,0.4c-0.2,0-0.4-0.2-0.4-0.4c0-0.2,0.2-0.4,0.4-0.4
		C167,30.8,167.2,31,167.2,31.2L167.2,31.2z M175.9,36c0-0.5,0.4-0.9,0.9-0.9c0.5,0,0.9,0.4,0.9,0.9c0,0.5-0.4,0.9-0.9,0.9
		C176.3,36.9,175.9,36.5,175.9,36L175.9,36z M168.7,30.8c0.2,0,0.4,0.2,0.4,0.4c0,0.2-0.2,0.4-0.4,0.4c-0.2,0-0.4-0.2-0.4-0.4
		C168.3,31,168.5,30.8,168.7,30.8L168.7,30.8z M168.1,29.7c0,0.2-0.2,0.4-0.4,0.4c-0.2,0-0.4-0.2-0.4-0.4c0-0.2,0.2-0.4,0.4-0.4
		C168,29.3,168.1,29.5,168.1,29.7L168.1,29.7z"/>
</g>
</svg>
