<?xml version="1.0" encoding="utf-8"?>
<!-- Generator: Adobe Illustrator 24.0.1, SVG Export Plug-In . SVG Version: 6.00 Build 0)  -->
<svg version="1.1" id="Camada_1" xmlns="http://www.w3.org/2000/svg" xmlns:xlink="http://www.w3.org/1999/xlink" x="0px" y="0px"
	 viewBox="0 0 219 219" style="enable-background:new 0 0 219 219;" xml:space="preserve">
<style type="text/css">
	.st0{fill:#BE1B2E;}
	.st1{fill-rule:evenodd;clip-rule:evenodd;fill:#FFFFFF;}
</style>
<path class="st0" d="M208.9,0H10.1C4.5,0,0,4.5,0,10.1V209c0,5.5,4.5,10,10.1,10H209c5.6,0,10.1-4.5,10.1-10.1V10.1
	C219,4.5,214.5,0,208.9,0z M215,208.9c0,3.3-2.7,6-6,6h-142l-13-20.2c-1.6-2.5-4.1-4.3-7-5L4,179.7V10.1c0-3.3,2.7-6,6-6h114.3
	l19.2,29.9c2.3,3.5,5.8,6,9.9,7L215,55.3L215,208.9L215,208.9z"/>
<g>
	<g>
		<g>
			<path class="st1" d="M182.5,25.7l0,6.1l-1.9,0l0-0.8c-0.6,0.6-1.4,1-2.3,1c-1.8,0-3.2-1.5-3.2-3.2c0-1.8,1.5-3.2,3.2-3.2
				c0.9,0,1.7,0.4,2.3,1l0-0.8L182.5,25.7L182.5,25.7z M180.6,28.7L180.6,28.7c0-0.3-0.2-0.5-0.5-0.5l-0.5,0
				c-0.2-0.5-0.7-0.9-1.3-0.9c-0.8,0-1.4,0.6-1.4,1.4c0,0.8,0.6,1.4,1.4,1.4c0.6,0,1.1-0.4,1.3-0.9l0.5,0
				C180.4,29.2,180.6,29,180.6,28.7L180.6,28.7z"/>
			<path class="st1" d="M208,14.3l0,7.2l-2.2,0l0-0.9c-0.7,0.7-1.7,1.1-2.7,1.1c-2.1,0-3.8-1.7-3.8-3.8c0-2.1,1.7-3.8,3.8-3.8
				c1.1,0,2,0.4,2.7,1.1l0-0.9L208,14.3L208,14.3z M205.8,17.9L205.8,17.9c0-0.3-0.2-0.5-0.5-0.5l-0.6,0c-0.2-0.6-0.8-1.1-1.5-1.1
				c-0.9,0-1.6,0.7-1.6,1.6c0,0.9,0.7,1.6,1.6,1.6c0.7,0,1.3-0.5,1.5-1.1l0.6,0C205.6,18.4,205.8,18.2,205.8,17.9L205.8,17.9z"/>
			<path class="st1" d="M184.3,20.5c0.1,0.1,0.3,0.3,0.4,0.4l0,0c0,0,0,0,0.1,0.1l0,0c0,0,0,0,0.1,0l0,0c0,0,0,0,0.1,0c0,0,0,0,0,0
				c0,0,0,0,0.1,0c0,0,0,0,0,0c0,0,0,0,0,0c0,0,0,0,0,0c0,0,0,0,0,0c0,0,0,0,0,0c0,0,0,0,0,0c0,0,0,0,0,0c0,0,0,0,0,0c0,0,0,0,0,0
				c0,0,0,0,0,0c0,0,0,0,0.1,0c0,0,0,0,0,0c0,0,0,0,0.1,0c0,0,0,0,0,0c0,0,0,0,0.1,0c0,0,0,0,0,0c0,0,0,0,0.1,0c0,0,0,0,0,0
				c0,0,0,0,0.1,0c0,0,0,0,0,0c0,0,0,0,0.1,0c0,0,0,0,0,0c0,0,0,0,0.1,0c0,0,0,0,0,0c0,0,0,0,0.1,0c0,0,0,0,0,0c0,0,0,0,0.1,0
				c0,0,0,0,0,0c0,0,0.1,0,0.1,0l0,0c0,0,0.1,0,0.1,0l0,0c0,0,0.1,0,0.1,0l0,0c0,0,0.1,0,0.1,0l0,0c0,0,0.1,0,0.1,0l0,0
				c0,0,0.1,0,0.1,0l0,0c0,0,0.1,0,0.1,0l0,0c0,0,0.1,0,0.1,0l0,0c0,0,0.1,0,0.1,0c2.1,0,3.8-1.7,3.8-3.8c0-2.1-1.7-3.8-3.8-3.8
				c0,0-0.1,0-0.1,0l0,0c0,0-0.1,0-0.1,0l0,0c0,0-0.1,0-0.1,0l0,0c0,0-0.1,0-0.1,0l0,0c0,0-0.1,0-0.1,0l0,0c0,0-0.1,0-0.1,0l0,0
				c0,0-0.1,0-0.1,0l0,0c0,0-0.1,0-0.1,0l0,0c0,0-0.1,0-0.1,0c0,0,0,0,0,0c0,0,0,0-0.1,0c0,0,0,0,0,0c0,0,0,0-0.1,0c0,0,0,0,0,0
				c0,0,0,0-0.1,0c0,0,0,0,0,0c0,0,0,0-0.1,0c0,0,0,0,0,0c0,0,0,0-0.1,0c0,0,0,0,0,0c0,0,0,0-0.1,0c0,0,0,0,0,0c0,0,0,0-0.1,0
				c0,0,0,0,0,0c0,0,0,0-0.1,0c0,0,0,0,0,0c0,0,0,0-0.1,0c0,0,0,0,0,0c0,0,0,0,0,0c0,0,0,0,0,0c0,0,0,0,0,0c0,0,0,0,0,0c0,0,0,0,0,0
				c0,0,0,0,0,0c0,0,0,0,0,0c0,0,0,0,0,0c0,0,0,0,0,0c0,0,0,0-0.1,0c0,0,0,0,0,0c0,0,0,0-0.1,0l0,0c0,0,0,0-0.1,0l0,0
				c0,0,0,0-0.1,0.1l0,0c-0.1,0.1-0.3,0.2-0.4,0.4c-0.7,0.7-1.1,1.6-1.1,2.7C183.2,18.9,183.6,19.9,184.3,20.5L184.3,20.5z
				 M184.3,17.9L184.3,17.9c0-0.3,0.2-0.5,0.5-0.5l0.6,0c0.2-0.6,0.8-1.1,1.5-1.1c0.9,0,1.6,0.7,1.6,1.6c0,0.9-0.7,1.6-1.6,1.6
				c-0.7,0-1.3-0.5-1.5-1.1l-0.6,0C184.5,18.4,184.3,18.2,184.3,17.9L184.3,17.9z"/>
			<path class="st1" d="M162.4,30.8c0.1,0.1,0.3,0.3,0.4,0.4l0,0c0,0,0,0,0.1,0.1l0,0c0,0,0,0,0.1,0l0,0c0,0,0,0,0.1,0c0,0,0,0,0,0
				c0,0,0,0,0.1,0c0,0,0,0,0,0c0,0,0,0,0,0c0,0,0,0,0,0c0,0,0,0,0,0c0,0,0,0,0,0c0,0,0,0,0,0c0,0,0,0,0,0c0,0,0,0,0,0c0,0,0,0,0,0
				c0,0,0,0,0,0c0,0,0,0,0.1,0c0,0,0,0,0,0c0,0,0,0,0.1,0c0,0,0,0,0,0c0,0,0,0,0.1,0c0,0,0,0,0,0c0,0,0,0,0.1,0c0,0,0,0,0,0
				c0,0,0,0,0.1,0c0,0,0,0,0,0c0,0,0,0,0.1,0c0,0,0,0,0,0c0,0,0,0,0.1,0c0,0,0,0,0,0c0,0,0,0,0.1,0c0,0,0,0,0,0c0,0,0,0,0.1,0
				c0,0,0,0,0,0c0,0,0.1,0,0.1,0l0,0c0,0,0.1,0,0.1,0l0,0c0,0,0.1,0,0.1,0l0,0c0,0,0.1,0,0.1,0l0,0c0,0,0.1,0,0.1,0l0,0
				c0,0,0.1,0,0.1,0l0,0c0,0,0.1,0,0.1,0l0,0c0,0,0.1,0,0.1,0l0,0c0,0,0.1,0,0.1,0c2.1,0,3.8-1.7,3.8-3.8c0-2.1-1.7-3.8-3.8-3.8
				c0,0-0.1,0-0.1,0l0,0c0,0-0.1,0-0.1,0l0,0c0,0-0.1,0-0.1,0l0,0c0,0-0.1,0-0.1,0l0,0c0,0-0.1,0-0.1,0l0,0c0,0-0.1,0-0.1,0l0,0
				c0,0-0.1,0-0.1,0l0,0c0,0-0.1,0-0.1,0l0,0c0,0-0.1,0-0.1,0c0,0,0,0,0,0c0,0,0,0-0.1,0c0,0,0,0,0,0c0,0,0,0-0.1,0c0,0,0,0,0,0
				c0,0,0,0-0.1,0c0,0,0,0,0,0c0,0,0,0-0.1,0c0,0,0,0,0,0c0,0,0,0-0.1,0c0,0,0,0,0,0c0,0,0,0-0.1,0c0,0,0,0,0,0c0,0,0,0-0.1,0
				c0,0,0,0,0,0c0,0,0,0-0.1,0c0,0,0,0,0,0c0,0,0,0-0.1,0c0,0,0,0,0,0c0,0,0,0,0,0c0,0,0,0,0,0c0,0,0,0,0,0c0,0,0,0,0,0c0,0,0,0,0,0
				c0,0,0,0,0,0c0,0,0,0,0,0c0,0,0,0,0,0c0,0,0,0,0,0c0,0,0,0-0.1,0c0,0,0,0,0,0c0,0,0,0-0.1,0l0,0c0,0,0,0-0.1,0l0,0
				c0,0,0,0-0.1,0.1l0,0c-0.1,0.1-0.3,0.2-0.4,0.4c-0.7,0.7-1.1,1.6-1.1,2.7C161.3,29.2,161.8,30.1,162.4,30.8L162.4,30.8z
				 M162.4,28.2L162.4,28.2c0-0.3,0.2-0.5,0.5-0.5l0.6,0c0.2-0.6,0.8-1.1,1.5-1.1c0.9,0,1.6,0.7,1.6,1.6c0,0.9-0.7,1.6-1.6,1.6
				c-0.7,0-1.3-0.5-1.5-1.1l-0.6,0C162.7,28.7,162.4,28.5,162.4,28.2L162.4,28.2z"/>
			<path class="st1" d="M195.5,30.8c0.1,0.1,0.3,0.3,0.4,0.4l0,0c0,0,0,0,0.1,0.1l0,0c0,0,0,0,0.1,0l0,0c0,0,0,0,0.1,0c0,0,0,0,0,0
				c0,0,0,0,0.1,0c0,0,0,0,0,0c0,0,0,0,0,0c0,0,0,0,0,0c0,0,0,0,0,0c0,0,0,0,0,0c0,0,0,0,0,0c0,0,0,0,0,0c0,0,0,0,0,0c0,0,0,0,0,0
				c0,0,0,0,0,0c0,0,0,0,0.1,0c0,0,0,0,0,0c0,0,0,0,0.1,0c0,0,0,0,0,0c0,0,0,0,0.1,0c0,0,0,0,0,0c0,0,0,0,0.1,0c0,0,0,0,0,0
				c0,0,0,0,0.1,0c0,0,0,0,0,0c0,0,0,0,0.1,0c0,0,0,0,0,0c0,0,0,0,0.1,0c0,0,0,0,0,0c0,0,0,0,0.1,0c0,0,0,0,0,0c0,0,0,0,0.1,0
				c0,0,0,0,0,0c0,0,0.1,0,0.1,0l0,0c0,0,0.1,0,0.1,0l0,0c0,0,0.1,0,0.1,0l0,0c0,0,0.1,0,0.1,0l0,0c0,0,0.1,0,0.1,0l0,0
				c0,0,0.1,0,0.1,0l0,0c0,0,0.1,0,0.1,0l0,0c0,0,0.1,0,0.1,0l0,0c0,0,0.1,0,0.1,0c2.1,0,3.8-1.7,3.8-3.8c0-2.1-1.7-3.8-3.8-3.8
				c0,0-0.1,0-0.1,0l0,0c0,0-0.1,0-0.1,0l0,0c0,0-0.1,0-0.1,0l0,0c0,0-0.1,0-0.1,0l0,0c0,0-0.1,0-0.1,0l0,0c0,0-0.1,0-0.1,0l0,0
				c0,0-0.1,0-0.1,0l0,0c0,0-0.1,0-0.1,0l0,0c0,0-0.1,0-0.1,0c0,0,0,0,0,0c0,0,0,0-0.1,0c0,0,0,0,0,0c0,0,0,0-0.1,0c0,0,0,0,0,0
				c0,0,0,0-0.1,0c0,0,0,0,0,0c0,0,0,0-0.1,0c0,0,0,0,0,0c0,0,0,0-0.1,0c0,0,0,0,0,0c0,0,0,0-0.1,0c0,0,0,0,0,0c0,0,0,0-0.1,0
				c0,0,0,0,0,0c0,0,0,0-0.1,0c0,0,0,0,0,0c0,0,0,0-0.1,0c0,0,0,0,0,0c0,0,0,0,0,0c0,0,0,0,0,0c0,0,0,0,0,0c0,0,0,0,0,0c0,0,0,0,0,0
				c0,0,0,0,0,0c0,0,0,0,0,0c0,0,0,0,0,0c0,0,0,0,0,0c0,0,0,0-0.1,0c0,0,0,0,0,0c0,0,0,0-0.1,0l0,0c0,0,0,0-0.1,0l0,0
				c0,0,0,0-0.1,0.1l0,0c-0.1,0.1-0.3,0.2-0.4,0.4c-0.7,0.7-1.1,1.6-1.1,2.7C194.4,29.2,194.8,30.1,195.5,30.8L195.5,30.8z
				 M195.5,28.2L195.5,28.2c0-0.3,0.2-0.5,0.5-0.5l0.6,0c0.2-0.6,0.8-1.1,1.5-1.1c0.9,0,1.6,0.7,1.6,1.6c0,0.9-0.7,1.6-1.6,1.6
				c-0.7,0-1.3-0.5-1.5-1.1l-0.6,0C195.8,28.7,195.5,28.5,195.5,28.2L195.5,28.2z"/>
			<path class="st1" d="M159,23.6l1.9,0l0,8.2l-1.9,0l0-0.8c-0.6,0.6-1.4,1-2.3,1c-1.8,0-3.2-1.5-3.2-3.2c0-1.8,1.5-3.2,3.2-3.2
				c0.9,0,1.7,0.4,2.3,1L159,23.6L159,23.6z M159,28.7L159,28.7c0-0.3-0.2-0.5-0.5-0.5l-0.5,0c-0.2-0.5-0.7-0.9-1.3-0.9
				c-0.8,0-1.4,0.6-1.4,1.4c0,0.8,0.6,1.4,1.4,1.4c0.6,0,1.1-0.4,1.3-0.9l0.5,0C158.7,29.2,159,29,159,28.7L159,28.7z"/>
			<path class="st1" d="M188.6,23.6l1.9,0l0,8.2l-1.9,0l0-0.8c-0.6,0.6-1.4,1-2.3,1c-1.8,0-3.2-1.5-3.2-3.2c0-1.8,1.5-3.2,3.2-3.2
				c0.9,0,1.7,0.4,2.3,1L188.6,23.6L188.6,23.6z M188.6,28.7L188.6,28.7c0-0.3-0.2-0.5-0.5-0.5l-0.5,0c-0.2-0.5-0.7-0.9-1.3-0.9
				c-0.8,0-1.4,0.6-1.4,1.4c0,0.8,0.6,1.4,1.4,1.4c0.6,0,1.1-0.4,1.3-0.9l0.5,0C188.4,29.2,188.6,29,188.6,28.7L188.6,28.7z"/>
			<path class="st1" d="M162.5,20.5c0.1,0.1,0.3,0.3,0.4,0.4l0,0c0,0,0,0,0.1,0.1l0,0c0,0,0,0,0.1,0l0,0c0,0,0,0,0.1,0c0,0,0,0,0,0
				c0,0,0,0,0.1,0c0,0,0,0,0,0c0,0,0,0,0,0c0,0,0,0,0,0c0,0,0,0,0,0c0,0,0,0,0,0c0,0,0,0,0,0c0,0,0,0,0,0c0,0,0,0,0,0c0,0,0,0,0,0
				c0,0,0,0,0,0c0,0,0,0,0.1,0c0,0,0,0,0,0c0,0,0,0,0.1,0c0,0,0,0,0,0c0,0,0,0,0.1,0c0,0,0,0,0,0c0,0,0,0,0.1,0c0,0,0,0,0,0
				c0,0,0,0,0.1,0c0,0,0,0,0,0c0,0,0,0,0.1,0c0,0,0,0,0,0c0,0,0,0,0.1,0c0,0,0,0,0,0c0,0,0,0,0.1,0c0,0,0,0,0,0c0,0,0,0,0.1,0
				c0,0,0,0,0,0c0,0,0.1,0,0.1,0l0,0c0,0,0.1,0,0.1,0l0,0c0,0,0.1,0,0.1,0l0,0c0,0,0.1,0,0.1,0l0,0c0,0,0.1,0,0.1,0l0,0
				c0,0,0.1,0,0.1,0l0,0c0,0,0.1,0,0.1,0l0,0c0,0,0.1,0,0.1,0l0,0c0,0,0.1,0,0.1,0c0.7,0,1.3-0.2,1.9-0.5l-0.8-1.4l-0.2-0.4
				l-0.1-0.2l0,0c-0.2,0.1-0.5,0.2-0.8,0.2c-0.7,0-1.2-0.4-1.5-0.9l3,0l1.7,0l0.6,0c0-0.2,0.1-0.5,0.1-0.7c0-2.1-1.7-3.8-3.8-3.8
				c0,0-0.1,0-0.1,0l0,0c0,0-0.1,0-0.1,0l0,0c0,0-0.1,0-0.1,0l0,0c0,0-0.1,0-0.1,0l0,0c0,0-0.1,0-0.1,0l0,0c0,0-0.1,0-0.1,0l0,0
				c0,0-0.1,0-0.1,0l0,0c0,0-0.1,0-0.1,0l0,0c0,0-0.1,0-0.1,0c0,0,0,0,0,0c0,0,0,0-0.1,0c0,0,0,0,0,0c0,0,0,0-0.1,0c0,0,0,0,0,0
				c0,0,0,0-0.1,0c0,0,0,0,0,0c0,0,0,0-0.1,0c0,0,0,0,0,0c0,0,0,0-0.1,0c0,0,0,0,0,0c0,0,0,0-0.1,0c0,0,0,0,0,0c0,0,0,0-0.1,0
				c0,0,0,0,0,0c0,0,0,0-0.1,0c0,0,0,0,0,0c0,0,0,0-0.1,0c0,0,0,0,0,0c0,0,0,0,0,0c0,0,0,0,0,0c0,0,0,0,0,0c0,0,0,0,0,0c0,0,0,0,0,0
				c0,0,0,0,0,0c0,0,0,0,0,0c0,0,0,0,0,0c0,0,0,0,0,0c0,0,0,0-0.1,0c0,0,0,0,0,0c0,0,0,0-0.1,0l0,0c0,0,0,0-0.1,0l0,0
				c0,0,0,0-0.1,0.1l0,0c-0.1,0.1-0.3,0.2-0.4,0.4c-0.7,0.7-1.1,1.6-1.1,2.7C161.4,18.9,161.8,19.8,162.5,20.5L162.5,20.5z
				 M163.7,17.3c0.2-0.6,0.8-1.1,1.5-1.1c0.7,0,1.3,0.5,1.5,1.1L163.7,17.3L163.7,17.3z"/>
			<path class="st1" d="M196.1,14.3l2.2,0l0,7.2l-2.2,0L196.1,14.3L196.1,14.3z M196.1,11.9l2.2,0l0,1.7l-2.2,0L196.1,11.9
				L196.1,11.9z"/>
			<path class="st1" d="M191.4,24.6l2.2,0l0,7.2l-2.2,0L191.4,24.6L191.4,24.6z M191.4,22.2l2.2,0l0,1.7l-2.2,0L191.4,22.2
				L191.4,22.2z"/>
			<path class="st1" d="M148,17.9c0-2.1,1.7-3.8,3.8-3.8c1.1,0,2,0.4,2.7,1.1c0.7-0.7,1.7-1.1,2.7-1.1c2.1,0,3.8,1.7,3.8,3.8l0,3.6
				l-2.2,0l0-0.2l0-3.4c0-0.9-0.7-1.6-1.6-1.6c-0.9,0-1.6,0.7-1.6,1.6l0,3.6l-2.2,0l0-0.2l0-3.4c0-0.9-0.7-1.6-1.6-1.6
				c-0.9,0-1.6,0.7-1.6,1.6l0,3.4l0,0.2l-2.2,0L148,17.9L148,17.9z"/>
			<path class="st1" d="M169.5,17.9c0-2.1,1.7-3.8,3.8-3.8c1.1,0,2,0.4,2.7,1.1c0.7-0.7,1.7-1.1,2.7-1.1c2.1,0,3.8,1.7,3.8,3.8
				l0,3.6l-2.2,0l0-0.2l0-3.4c0-0.9-0.7-1.6-1.6-1.6c-0.9,0-1.6,0.7-1.6,1.6l0,3.6l-2.2,0l0-0.2l0-3.4c0-0.9-0.7-1.6-1.6-1.6
				c-0.9,0-1.6,0.7-1.6,1.6l0,3.4l0,0.2l-2.2,0L169.5,17.9L169.5,17.9z"/>
			<path class="st1" d="M191.4,17.9c0-2.1,1.7-3.8,3.8-3.8l0,2.2c-0.9,0-1.6,0.7-1.6,1.6l0,3.4l0,0.2l-2.2,0L191.4,17.9L191.4,17.9z
				"/>
			<path class="st1" d="M171.4,28.2c0-2.1,1.7-3.8,3.8-3.8l0,2.2c-0.9,0-1.6,0.7-1.6,1.6l0,3.4l0,0.2l-2.2,0L171.4,28.2L171.4,28.2z
				"/>
			<path class="st1" d="M190.9,15.1l-2-1.8l1.2-1.3c0.1-0.1,0.2-0.1,0.2,0l1.8,1.6c0.1,0.1,0.1,0.2,0,0.2L190.9,15.1z"/>
			<path class="st1" d="M183.3,25.7l-2-1.8l1.2-1.3c0.1-0.1,0.2-0.1,0.2,0l1.8,1.6c0.1,0.1,0.1,0.2,0,0.2L183.3,25.7z"/>
		</g>
	</g>
</g>
</svg>
