<?xml version="1.0" encoding="utf-8"?>
<!-- Generator: Adobe Illustrator 24.0.1, SVG Export Plug-In . SVG Version: 6.00 Build 0)  -->
<svg version="1.1" id="Camada_1" xmlns="http://www.w3.org/2000/svg" xmlns:xlink="http://www.w3.org/1999/xlink" x="0px" y="0px"
	 viewBox="0 0 219 219" style="enable-background:new 0 0 219 219;" xml:space="preserve">
<style type="text/css">
	.st0{fill:#BE1B2E;}
	.st1{fill:#FFFFFF;}
	.st2{fill-rule:evenodd;clip-rule:evenodd;fill:#FFFFFF;}
</style>
<path class="st0" d="M208.9,0H10.1C4.5,0,0,4.5,0,10.1V209c0,5.5,4.5,10,10.1,10H209c5.6,0,10.1-4.5,10.1-10.1V10.1
	C219,4.5,214.5,0,208.9,0z M215,208.9c0,3.3-2.7,6-6,6H67l-13-20.2c-1.6-2.5-4.1-4.3-7-5l-43-10V10.1c0-3.3,2.7-6,6-6h114.3
	L143.5,34c2.3,3.5,5.8,6,9.9,7L215,55.3V208.9L215,208.9z"/>
<g>
	<path class="st1" d="M169.8,13.5c-3-0.4-5.8,1.7-6.2,4.8c-0.3,2,0.6,4,2.1,5.1c0.2-0.2,0.3-0.5,0.5-0.8l0.1-0.2l0,0l0.1-0.1
		c0,0-0.2-0.1-0.3-0.1c0-0.1,0.8-1.7,0.8-1.7c0.1,0,0.8,0.4,0.8,0.4V21c0,0-0.7,1.6-0.8,1.7l-0.3-0.1l0,0l0,0v0.1l0,0l-0.1,0.2
		l-0.4,0.7c0,0.1-0.1,0.1-0.1,0.2c0.7,0.5,1.5,0.8,2.4,0.9c3,0.4,5.8-1.7,6.2-4.8C175,16.7,172.8,13.9,169.8,13.5z M166,14.7
		c0.7-0.5,1.4-0.8,2.3-0.8c-1.5,0.3-2.8,1.2-3.8,2.7C164.8,15.8,165.3,15.2,166,14.7z M166.2,15c0.7-0.5,1.4-0.7,2.1-0.7l0,0l0,0
		l0,0l0,0c-1.3,0.2-2.5,1-3.6,2.4C165.1,16,165.6,15.5,166.2,15z M165.1,16.9c0.3-0.7,0.8-1.2,1.4-1.6c0.6-0.4,1.3-0.6,2-0.6
		C167.2,14.8,166.1,15.5,165.1,16.9z M166.7,15.6c0.5-0.4,1.2-0.6,1.8-0.5c-1.1,0.1-2.1,0.8-3.1,2C165.7,16.5,166.2,16,166.7,15.6z
		 M166.9,15.9c0.5-0.4,1.1-0.5,1.7-0.4c-1.1,0.1-2.1,0.7-2.9,1.8C166,16.7,166.4,16.2,166.9,15.9z M166.1,17.4
		c0.5-1.2,1.4-1.7,2.6-1.6C167.9,15.8,167,16.3,166.1,17.4z M167.4,16.5c0.4-0.3,0.9-0.4,1.4-0.3h0.1c-0.8-0.1-1.6,0.4-2.4,1.4
		C166.6,17.2,167,16.8,167.4,16.5z M166.8,17.8c0.5-1,1.1-1.4,2-1.2h0.2c-0.4-0.1-0.8,0-1.3,0.3C167.3,17.2,167,17.5,166.8,17.8z
		 M167.1,18c0.4-0.9,0.9-1.2,1.7-1.1h0.2C168.3,16.9,167.6,17.3,167.1,18z M168.9,19.9c-0.5-0.1-0.8-0.6-0.7-1.1s0.6-0.8,1.1-0.7
		c0.5,0.1,0.8,0.6,0.7,1.1C169.9,19.7,169.4,20,168.9,19.9z M171,20c-0.3,0.9-0.8,1.3-1.5,1.1l-0.3-0.1
		C169.9,21.1,170.5,20.8,171,20z M169.2,21.4c0.8,0.1,1.5-0.3,2.2-1.3c-0.2,0.4-0.4,0.8-0.8,1c-0.4,0.2-0.8,0.3-1.2,0.3H169.2z
		 M171.7,20.4c-0.4,1-1.2,1.5-2.3,1.5C170.1,21.9,170.9,21.4,171.7,20.4z M172,20.5c-0.2,0.5-0.6,1-1.1,1.3s-1,0.4-1.6,0.4
		C170.3,22.2,171.2,21.7,172,20.5z M171.1,22c0.5-0.4,1-0.8,1.2-1.3c-0.2,0.6-0.6,1.1-1.1,1.4s-1.1,0.5-1.8,0.5
		C170,22.6,170.6,22.4,171.1,22z M169.6,23L169.6,23L169.6,23L169.6,23c0.7-0.2,1.3-0.4,1.8-0.7c0.4-0.3,0.9-0.8,1.3-1.4
		C171.9,22.3,170.9,23,169.6,23L169.6,23z M169.8,23.4L169.8,23.4L169.8,23.4L169.8,23.4c1.3-0.2,2.4-1,3.3-2.3
		c-0.3,0.6-0.7,1.2-1.3,1.6C171.1,23.2,170.4,23.4,169.8,23.4L169.8,23.4z M173.4,21.2c-0.3,0.7-0.8,1.3-1.5,1.8
		c-0.6,0.5-1.3,0.7-2.1,0.8C171.2,23.5,172.4,22.7,173.4,21.2z M170,24.2L170,24.2L170,24.2L170,24.2L170,24.2
		c0.7-0.2,1.5-0.5,2.1-1s1.2-1.1,1.6-1.7C173,23.1,171.7,24,170,24.2z"/>
	<path class="st1" d="M160.5,28.3c0,0.1,0,0.1-0.1,0.2c0,0.1-0.1,0.1-0.2,0.1C160.3,28.4,160.4,28.3,160.5,28.3L160.5,28.3z"/>
	<path class="st1" d="M160.6,29.2c0.1,0,0.1,0,0.1,0.1c0,0,0,0-0.1,0.1c-0.1,0-0.1,0-0.2,0C160.5,29.2,160.5,29.2,160.6,29.2
		L160.6,29.2z"/>
	<path class="st1" d="M160.3,30.4c0.1,0,0.1,0,0.1,0.1h-0.2C160.2,30.5,160.2,30.4,160.3,30.4L160.3,30.4z"/>
	<path class="st1" d="M159.8,30.7h0.2v0.1h-0.1C159.8,30.8,159.8,30.8,159.8,30.7L159.8,30.7z"/>
	<path class="st1" d="M163.3,30.9L163.3,30.9L163.3,30.9L163.3,30.9L163.3,30.9L163.3,30.9z"/>
	<polygon class="st1" points="160.1,31.4 160.2,31.4 160.2,31.4 160.1,31.4 	"/>
	<polygon class="st1" points="162.9,31.4 163,31.4 163,31.5 162.9,31.5 	"/>
	<polygon class="st1" points="161.2,31.5 161.3,31.5 161.3,31.6 161.2,31.6 	"/>
	<path class="st1" d="M160.9,31.5C160.9,31.5,161,31.4,160.9,31.5c0.1-0.1,0.2-0.1,0.2-0.1c0,0.1-0.1,0.1-0.2,0.2
		C161,31.5,160.9,31.5,160.9,31.5L160.9,31.5z"/>
	<path class="st1" d="M160.8,31.9C160.9,31.9,160.9,31.9,160.8,31.9c0,0.1,0,0.1,0,0.1S160.8,32,160.8,31.9L160.8,31.9L160.8,31.9z"
		/>
	<path class="st1" d="M160.9,32c0.1,0,0.1,0,0.2,0.1c0.1,0.1,0.2,0.1,0.2,0.1s0.1,0,0.2,0c0.5,0,0.9,0,1.2-0.1
		c0.4-0.1,0.7-0.2,0.8-0.4c0.2-0.2,0.3-0.6,0.3-1.1l0,0l-0.1-0.1l0,0l0,0c0,0,0-0.1,0.1-0.1c0.1-0.1,0.1-0.1,0.1-0.3
		c0-0.1-0.1-0.2-0.2-0.2h-0.1h-0.1c-0.1,0-0.1,0-0.1,0h-0.2h-0.1H163h-0.1h-0.1c-0.1,0-0.1,0-0.1,0s-0.1,0.2-0.1,0.5s0,0.4-0.1,0.4
		h-1c0,0.1-0.1,0.1-0.2,0.1c-0.1,0-0.2,0-0.3,0s-0.2-0.1-0.3-0.1l0.1-0.1c0,0,0-0.1,0.1-0.2v-0.2c0-0.1,0-0.1,0-0.1
		c0-0.1,0-0.2,0-0.2v-0.1v-0.1c0,0-0.1-0.1-0.3-0.1c-0.1,0-0.2,0-0.3,0c-0.2,0-0.4,0-0.5,0.1l-0.1,0.1v0.2c0,0.1,0,0.3-0.1,0.5
		c0,0.1,0,0.1,0,0.2v0.1c0,0.2,0,0.3,0.1,0.4l0.1,0.1l0.1,0.1l0,0c0,0,0,0,0,0.1c0,0,0,0,0,0.1l0,0c0.1,0.1,0.2,0.2,0.3,0.3
		s0.3,0.1,0.4,0.1h0.1C160.8,32.1,160.9,32,160.9,32L160.9,32z"/>
	<path class="st1" d="M158.4,28.1C158.5,28.1,158.5,28.1,158.4,28.1c0,0.1,0,0.1,0,0.1S158.4,28.2,158.4,28.1L158.4,28.1L158.4,28.1
		z"/>
	<polygon class="st1" points="158.5,28.4 158.6,28.4 158.5,28.4 	"/>
	<path class="st1" d="M158.9,28.6h0.1v0.1C159,28.7,159,28.7,158.9,28.6L158.9,28.6z"/>
	<path class="st1" d="M158.5,28.7h0.1c0,0.1,0,0.1-0.1,0.1V28.7L158.5,28.7z"/>
	<path class="st1" d="M155.9,29.3v0.1h-0.1C155.8,29.3,155.9,29.3,155.9,29.3L155.9,29.3z"/>
	<polygon class="st1" points="155.1,29.3 155.6,29.3 155.6,29.4 155,29.4 	"/>
	<path class="st1" d="M155.2,29.8C155.2,29.8,155.3,29.8,155.2,29.8C155.3,29.8,155.2,29.8,155.2,29.8L155.2,29.8L155.2,29.8
		L155.2,29.8z"/>
	<path class="st1" d="M153.4,29.9c0.1,0,0.1,0,0.1,0.1h-0.1V29.9L153.4,29.9z"/>
	<polygon class="st1" points="155.2,30 155.2,30 155.2,30.1 	"/>
	<path class="st1" d="M158,30.1C158,30.1,158.1,30.1,158,30.1c0,0.1,0,0.1,0,0.1S158,30.2,158,30.1L158,30.1L158,30.1z"/>
	<path class="st1" d="M155,30.7C155,30.7,155.1,30.7,155,30.7C155.1,30.7,155,30.8,155,30.7C155,30.8,155,30.8,155,30.7L155,30.7
		L155,30.7z"/>
	<path class="st1" d="M157.9,30.6L157.9,30.6L157.9,30.6C158,30.5,158,30.5,157.9,30.6c0.1-0.1,0.1,0,0.2,0v0.1l0,0c0,0,0,0-0.1,0.1
		C158,30.7,157.9,30.7,157.9,30.6L157.9,30.6z"/>
	<path class="st1" d="M158.4,31c0,0.2,0,0.2-0.1,0.2v-0.1C158.2,31.1,158.3,31,158.4,31L158.4,31z"/>
	<path class="st1" d="M156.2,31.3v-0.1l0.1-0.1l0,0l0,0c0,0,0,0.1,0.1,0.2c0,0.1,0.1,0.1,0.1,0.1l0,0l0,0c0,0-0.1-0.1-0.2-0.1
		C156.2,31.4,156.2,31.4,156.2,31.3L156.2,31.3z"/>
	<path class="st1" d="M156.2,31.5C156.2,31.5,156.3,31.5,156.2,31.5c0,0.1,0,0.1,0,0.1S156.2,31.6,156.2,31.5L156.2,31.5L156.2,31.5
		z"/>
	<path class="st1" d="M157.5,31.8c0-0.1,0.1-0.1,0.2-0.1c0,0,0,0,0,0.1s0,0.2-0.1,0.2C157.5,31.9,157.5,31.9,157.5,31.8L157.5,31.8z
		"/>
	<path class="st1" d="M156.3,31.8c0.1,0,0.1,0,0.1,0.1s0,0.1-0.1,0.2c0,0-0.1,0-0.1-0.1C156.3,31.9,156.3,31.8,156.3,31.8
		L156.3,31.8L156.3,31.8z"/>
	<path class="st1" d="M157.9,32L157.9,32C157.9,32.1,157.9,32.1,157.9,32C157.9,32,157.8,32,157.9,32L157.9,32L157.9,32L157.9,32z"
		/>
	<path class="st1" d="M186.7,28.1L186.7,28.1c0,0.1,0,0.1,0,0.1S186.7,28.2,186.7,28.1L186.7,28.1L186.7,28.1z"/>
	<polygon class="st1" points="186.8,28.4 186.8,28.4 186.8,28.4 	"/>
	<path class="st1" d="M187.2,28.6h0.1v0.1C187.3,28.7,187.2,28.7,187.2,28.6L187.2,28.6z"/>
	<path class="st1" d="M186.7,28.7h0.1c0,0.1,0,0.1-0.1,0.1V28.7L186.7,28.7z"/>
	<path class="st1" d="M181.7,29.9c0.1,0,0.1,0,0.1,0.1h-0.1V29.9L181.7,29.9z"/>
	<path class="st1" d="M186.3,30.1L186.3,30.1c0,0.1,0,0.1,0,0.1S186.2,30.2,186.3,30.1C186.2,30.1,186.3,30.1,186.3,30.1L186.3,30.1
		z"/>
	<path class="st1" d="M186.2,30.6L186.2,30.6L186.2,30.6C186.2,30.5,186.3,30.5,186.2,30.6c0.1-0.1,0.1,0,0.2,0v0.1l0,0
		c0,0,0,0-0.1,0.1C186.2,30.7,186.2,30.7,186.2,30.6L186.2,30.6z"/>
	<path class="st1" d="M186.6,31c0,0.2,0,0.2-0.1,0.2v-0.1L186.6,31L186.6,31z"/>
	<path class="st1" d="M185.8,31.8c0-0.1,0.1-0.1,0.2-0.1c0,0,0,0,0,0.1s0,0.2-0.1,0.2C185.8,31.9,185.8,31.9,185.8,31.8L185.8,31.8z
		"/>
	<path class="st1" d="M187.4,26.7c-0.2-0.3-0.5-0.4-0.9-0.4c0,0,0,0-0.1,0h-0.1h-0.1h-0.1H186l0,0v0.2c0-0.1-0.1-0.2-0.1-0.2
		c-0.2,0-0.4,0-0.7-0.1c-0.1,0-0.2,0-0.2,0c-0.1,0-0.1,0-0.3,0c-0.1,0-0.2,0-0.3,0l0,0c-0.1,0-0.1,0-0.2-0.1H183
		c-0.1,0-0.2,0-0.2-0.1s0-0.2,0-0.3c0-0.3-0.1-0.6-0.2-0.8c-0.2-0.2-0.4-0.4-0.8-0.4c-0.2,0-0.6-0.1-1.1-0.1h-0.2
		c-0.1,0-0.1,0-0.2,0c-0.1,0-0.2,0-0.2,0h-0.2c-0.3,0.1-0.5,0.2-0.7,0.3c-0.2,0.2-0.3,0.4-0.3,0.6l-0.8,5.2c0,0.1,0,0.1,0,0.1
		c0,0.5,0.1,0.8,0.4,1c0.2,0.2,0.5,0.3,1,0.3c0.2,0,0.4,0,0.6,0h0.6c0.4,0,0.7-0.1,0.9-0.2s0.3-0.3,0.4-0.6c0-0.2,0.1-0.5,0.2-0.9
		c0,0,0,0,0-0.1V30c0-0.1,0-0.1,0.1-0.1h0.9c0,0,0,0,0.1-0.1c0,0,0,0,0-0.1v-0.1c0-0.1,0-0.1,0.1-0.1c0,0,0,0.1,0,0.2v0.1v0.1
		c0,0,0,0.1-0.1,0.1l-0.1,0.1l0,0c0,0.1-0.1,0.1-0.1,0.2c0,0,0,0.1,0,0.3v0.1h0.2v0.1c0,0.1,0,0.1,0,0.1V31v0.1
		c0,0.2,0.2,0.4,0.4,0.5s0.5,0.2,0.7,0.2c0.1,0,0.1,0,0.2-0.1c0.1,0,0.2-0.1,0.2-0.1s0.1,0,0.1,0.1c0.1,0,0.1,0.1,0.2,0.1
		c0.7,0,1.3-0.1,1.6-0.3c0.4-0.2,0.5-0.6,0.5-1.1c0-0.1,0-0.2,0-0.3c0.1-0.1,0.2-0.2,0.2-0.4c0-0.1,0-0.3,0-0.5l0,0
		c0,0,0-0.1-0.1-0.1h-0.7c0,0-0.1,0-0.1-0.1l0,0l0,0l0,0l0,0l0.1-0.1c0.1,0,0.3,0,0.5,0c0.1,0,0.1,0,0.1,0c0.1-0.1,0.2-0.2,0.2-0.3
		c0-0.1,0.1-0.3,0.1-0.6c0-0.1,0.1-0.3,0.1-0.6c0,0,0,0,0-0.1v-0.1C187.7,27.3,187.6,27,187.4,26.7z M183.3,30.8L183.3,30.8
		C183.3,30.7,183.3,30.7,183.3,30.8C183.3,30.7,183.3,30.7,183.3,30.8C183.3,30.7,183.3,30.8,183.3,30.8z M183.5,30.1L183.5,30.1V30
		V30.1z M183.5,29.8L183.5,29.8L183.5,29.8L183.5,29.8L183.5,29.8z M183.9,29.4h-0.6l0.1-0.1L183.9,29.4L183.9,29.4z M184.2,29.4
		L184.2,29.4c-0.1,0,0-0.1,0-0.1V29.4z M184.5,31.6C184.5,31.6,184.4,31.6,184.5,31.6c0-0.1,0-0.1,0-0.1S184.5,31.5,184.5,31.6
		L184.5,31.6z M184.7,32c0,0-0.1,0-0.1-0.1c0,0,0,0,0-0.1l0,0c0.1,0,0.1,0,0.1,0.1C184.7,31.9,184.7,31.9,184.7,32z M184.7,31.5
		L184.7,31.5c0,0-0.1,0-0.2-0.1c-0.1,0-0.1-0.1-0.1-0.1v-0.1l0.1-0.1l0,0l0,0c0,0,0,0.1,0.1,0.2C184.7,31.4,184.7,31.4,184.7,31.5
		L184.7,31.5z M186.6,28.6c0,0.1-0.1,0.1-0.2,0.2c-0.1,0.1-0.2,0.2-0.2,0.2l0,0c0,0,0.1,0.1,0.2,0.3c0,0,0,0,0,0.1l0,0l0,0
		c0,0,0,0-0.1,0.1l-0.1,0.1l0,0c-0.1,0.2-0.2,0.4-0.2,0.7c0,0.1,0,0.3,0,0.4s0,0.2,0,0.3c0,0,0,0,0,0.1c0,0,0,0-0.1,0c0,0,0,0-0.1,0
		c0,0-0.1,0-0.1-0.1c-0.1,0-0.2,0-0.3,0s-0.2,0-0.3,0s-0.2,0-0.4,0h-0.2c-0.1,0-0.2,0-0.3-0.1c0,0,0,0,0-0.1c0-0.2,0-0.4,0.1-0.7
		c0-0.3,0.1-0.5,0.1-0.7v-0.1c0,0,0-0.1,0-0.2c0,0,0,0,0-0.1l-0.1-0.1l0,0c0,0,0,0-0.1,0h-0.1H184c-0.1,0-0.2,0-0.4,0.1
		c-0.2,0-0.3,0.1-0.4,0.1c0,0,0,0-0.1-0.1c-0.1,0-0.1-0.1-0.1-0.1c-0.1,0-0.2,0.1-0.2,0.3v0.1c-0.1,0-0.1-0.1-0.1-0.2
		s-0.1-0.2-0.1-0.2h-1.7l-0.3,1.9l-1.3,0.1c0,0,0,0-0.1-0.1c0,0,0,0-0.1-0.1v-0.1l0.8-5h1c0-0.1,0.1-0.1,0.2-0.1
		c0.2,0,0.3,0.1,0.5,0.2l0,0l0,0c0,0,0,0.1-0.1,0.1s-0.1,0-0.1,0.1l0,0l0,0l0.1,0.2l0,0l0,0c-0.1,0-0.2,0.1-0.2,0.2v0.1
		c0,0.1,0,0.2,0.1,0.2l0.1,0.1c0,0.1-0.1,0.1-0.1,0.1h-0.1c-0.1,0-0.1,0.1-0.1,0.4c0,0.1,0,0.1,0.1,0.1h0.4c0-0.1,0-0.1,0.1-0.2h0.1
		c0.1,0,0.2,0,0.3,0.1s0.3,0.1,0.5,0.1c0.3,0,0.5,0,0.5-0.1c0.1-0.1,0.1-0.2,0.1-0.5c0,0.1,0,0.3,0.1,0.5c0,0.1,0,0.1,0.1,0.2
		c0,0,0.1,0,0.2,0h0.4h0.1c0.1,0,0.1,0,0.1,0h0.1c0,0,0,0,0.1-0.1l0.1-0.1c0,0,0.1,0,0.1,0.1l0.1,0.1h0.7c0.1-0.1,0.2-0.2,0.4-0.2
		c0.1,0,0.1,0,0.2,0l0,0c0,0.1,0,0.1,0.1,0.2c0,0,0,0,0.1,0h0.1c0,0,0.1,0,0.1,0.1v0.8C186.6,28.5,186.6,28.5,186.6,28.6L186.6,28.6
		L186.6,28.6z"/>
	<path class="st1" d="M186.2,32L186.2,32C186.2,32.1,186.1,32.1,186.2,32C186.1,32,186.1,32,186.2,32C186.1,32,186.1,32,186.2,32
		L186.2,32L186.2,32z"/>
	<path class="st1" d="M165.5,27.5L165.5,27.5c0.1,0,0.2,0,0.3,0.1s0.1,0.1,0.2,0.1c0,0,0,0.1-0.1,0.1h-0.1l0,0c-0.1,0-0.1,0-0.1,0
		L165.5,27.5L165.5,27.5z"/>
	<polygon class="st1" points="174.5,28.1 174.6,28.1 174.6,28.2 174.5,28.2 	"/>
	<path class="st1" d="M165.8,28.1C165.8,28.1,165.9,28.1,165.8,28.1C165.9,28.1,165.9,28.1,165.8,28.1c0.1,0,0.1,0,0.2,0.1l0,0l0,0
		C165.9,28.2,165.9,28.2,165.8,28.1L165.8,28.1z"/>
	<path class="st1" d="M174.8,28.6c0,0.1,0.1,0.1,0.2,0.1c0,0,0,0,0.1,0v-0.2C175,28.5,174.9,28.5,174.8,28.6L174.8,28.6L174.8,28.6z
		"/>
	<path class="st1" d="M174.2,28.6C174.2,28.7,174.2,28.7,174.2,28.6C174.2,28.7,174.1,28.7,174.2,28.6
		C174.1,28.7,174.1,28.7,174.2,28.6C174.1,28.7,174.1,28.6,174.2,28.6L174.2,28.6L174.2,28.6z"/>
	<path class="st1" d="M165.5,28.6C165.5,28.6,165.6,28.7,165.5,28.6C165.6,28.7,165.5,28.7,165.5,28.6
		C165.5,28.7,165.5,28.7,165.5,28.6L165.5,28.6L165.5,28.6z"/>
	<path class="st1" d="M165.6,29c0,0,0.1-0.1,0.2-0.1V29C165.7,29.1,165.6,29,165.6,29L165.6,29z"/>
	<path class="st1" d="M174.2,29.1L174.2,29.1C174.3,29.1,174.3,29.1,174.2,29.1C174.3,29.1,174.3,29.1,174.2,29.1L174.2,29.1
		c0.1,0,0.1,0,0.1,0.1L174.2,29.1L174.2,29.1L174.2,29.1z"/>
	<path class="st1" d="M171.9,29.1L171.9,29.1l0.4,0.1V29c-0.1,0-0.1,0-0.2,0C172,29.1,171.9,29.1,171.9,29.1L171.9,29.1z"/>
	<path class="st1" d="M175.1,26.7c-0.2-0.2-0.4-0.3-0.7-0.4c-0.2,0-0.4,0-0.7,0c-0.4,0-0.6,0-0.7,0c-0.3,0-0.7,0-1.1,0h-3.4
		c-0.3,0-0.6,0-0.9,0h-1c-0.6,0-1,0.2-1.2,0.6c-0.2,0.3-0.3,0.8-0.3,1.5l-0.1,0.1l-0.6,3.9v0.1c0,0.1,0,0.1,0,0.1
		c0,0.8,0.4,1.2,1.2,1.4h0.1c0,0,0.1,0,0.2,0c0.1,0,0.2,0,0.2,0h0.1c0.5,0,0.9,0,1.1-0.1c0.2-0.1,0.4-0.2,0.5-0.4
		c0.1-0.1,0.2-0.3,0.3-0.6c0.1-0.2,0.1-0.4,0.2-0.6l0.1-0.1h5.3c0.5,0,0.9-0.4,1-1.1c0-0.2,0.1-0.3,0.1-0.5s0.1-0.5,0.1-0.8v-0.2
		c0-0.1,0-0.2,0-0.2v-0.1v-0.1c0-0.1-0.1-0.1-0.2-0.2l0,0l0,0c-0.1,0-0.1,0.1-0.1,0.2c-0.1-0.1-0.2-0.2-0.4-0.3v-0.1c0,0,0,0,0.1,0
		s0.2,0,0.2-0.1l0,0c0,0,0,0,0-0.1v-0.1c0,0,0,0,0-0.1v-0.1c0,0,0,0-0.1,0l-0.1-0.1c-0.1-0.1-0.2-0.1-0.2-0.1s0,0,0-0.1v-0.1
		c0,0,0.1,0,0.2,0.1c0.1,0.1,0.1,0.1,0.2,0.1l0,0l0,0l0.1-0.1l0.1-0.1c0,0,0,0,0.1,0v0.2h0.1l0.3-0.3c0,0,0-0.1,0-0.2l0.1-0.3
		c0,0,0,0,0-0.1v-0.1C175.4,27.1,175.3,26.9,175.1,26.7z M174,28.1v0.1c0,0.4-0.1,0.6-0.1,0.6s0,0.1,0,0.2s0,0.1,0,0.2
		c0,0,0,0.1-0.1,0.1l-0.1,0.1l-0.3,1.6l-0.9,0.1h-5.4c0,0-0.1,0.1-0.1,0.4c0,0.2-0.1,0.4-0.1,0.8c0,0.1,0,0.2,0,0.3s0,0.2-0.1,0.2
		c0,0-0.1,0.1-0.3,0.1c-0.1,0-0.2,0-0.3,0c0,0,0,0-0.1,0s-0.1,0-0.1,0s-0.1,0-0.2,0c-0.1,0-0.1,0-0.2,0c0,0-0.1,0-0.2,0
		c-0.1,0-0.1,0-0.2,0c0,0-0.1,0-0.1-0.1v-0.1c0.2-1,0.4-2.6,0.7-4.7c0-0.1,0.1-0.2,0.1-0.2h0.3c0.2,0,0.5,0,0.8,0c0.2,0,0.5,0,0.8,0
		c0.4,0,0.6,0,0.8,0s0.4,0,0.7,0s0.6,0,0.7,0l0,0c0,0,0,0,0.1,0s0.1,0,0.1,0c0.1,0,0.2,0,0.4-0.1h0.1c0.1,0,0.1,0,0.2,0.1
		c0.1,0,0.2,0,0.3,0s0.2,0,0.3,0s0.2,0,0.3,0s0.2,0,0.3,0c0,0,0.1,0,0.2,0c0.1,0,0.2,0,0.2,0s0,0,0.1,0s0.1,0,0.1,0
		c0.1,0,0.1,0,0.1,0s0,0,0.1,0c0,0,0,0,0.1,0h0.1c0,0,0,0,0.1,0c0,0,0,0,0.1,0l0,0l0,0c0.1,0,0.2,0,0.3,0.1s0.1,0.1,0.1,0.3
		C174.1,27.8,174.1,27.9,174,28.1z"/>
	<path class="st1" d="M170.6,29.1L170.6,29.1l0.9,0.1h0.1l0.1-0.1H170.6C170.6,29,170.6,29,170.6,29.1z"/>
	<path class="st1" d="M170.3,29c-0.1,0-0.1,0-0.2,0h-2.4c0,0-0.1,0-0.1,0.1s0.1,0.1,0.2,0.1h2.6l0.1-0.1
		C170.4,29.1,170.3,29,170.3,29z"/>
	<path class="st1" d="M174.7,29.2C174.8,29.2,174.8,29.2,174.7,29.2c0,0.1,0,0.1,0,0.1C174.7,29.3,174.7,29.2,174.7,29.2L174.7,29.2
		L174.7,29.2z"/>
	<path class="st1" d="M159.1,26.7c-0.2-0.3-0.5-0.4-0.9-0.4c0,0,0,0-0.1,0H158h-0.1h-0.1h-0.1l0,0v0.2c0-0.1-0.1-0.2-0.1-0.2
		c-0.2,0-0.4,0-0.7-0.1c-0.1,0-0.2,0-0.2,0c-0.1,0-0.1,0-0.3,0c-0.1,0-0.2,0-0.3,0l0,0c-0.1,0-0.1,0-0.2-0.1h-1.2
		c-0.1,0-0.2,0-0.2-0.1s0-0.2,0-0.3c0-0.3-0.1-0.6-0.2-0.8c-0.2-0.2-0.4-0.4-0.8-0.4c-0.2,0-0.6-0.1-1.1-0.1h-0.2
		c-0.1,0-0.1,0-0.2,0c-0.1,0-0.2,0-0.2,0h-0.2c-0.3,0.1-0.5,0.2-0.7,0.3c-0.2,0.2-0.3,0.4-0.3,0.6l-0.8,5.2c0,0.1,0,0.1,0,0.1
		c0,0.5,0.1,0.8,0.4,1c0.2,0.2,0.5,0.3,1,0.3c0.2,0,0.4,0,0.6,0h0.6c0.4,0,0.7-0.1,0.9-0.2s0.3-0.3,0.4-0.6c0-0.2,0.1-0.5,0.2-0.9
		c0,0,0,0,0-0.1V30c0-0.1,0-0.1,0.1-0.1h0.9c0,0,0,0,0.1-0.1c0,0,0,0,0-0.1v-0.1c0-0.1,0-0.1,0.1-0.1c0,0,0,0.1,0,0.2v0.1v0.1
		c0,0,0,0.1-0.1,0.1l-0.1,0.1l0,0c0,0.1-0.1,0.1-0.1,0.2c0,0,0,0.1,0,0.3v0.1h0.2v0.1c0,0.1,0,0.1,0,0.1V31v0.1
		c0,0.2,0.2,0.4,0.4,0.5s0.5,0.2,0.7,0.2c0.1,0,0.1,0,0.2-0.1c0.1,0,0.2-0.1,0.2-0.1s0.1,0,0.1,0.1c0.1,0,0.1,0.1,0.2,0.1
		c0.7,0,1.3-0.1,1.6-0.3c0.4-0.2,0.5-0.6,0.5-1.1c0-0.1,0-0.2,0-0.3c0.1-0.1,0.2-0.2,0.2-0.4c0-0.1,0-0.3,0-0.5l0,0
		c0,0,0-0.1-0.1-0.1h-0.7c0,0-0.1,0-0.1-0.1l0,0l0,0l0,0l0,0l0.1-0.1c0.1,0,0.3,0,0.5,0c0.1,0,0.1,0,0.1,0c0.1-0.1,0.2-0.2,0.2-0.3
		c0-0.1,0.1-0.3,0.1-0.6c0-0.1,0.1-0.3,0.1-0.6c0,0,0,0,0-0.1v-0.1C159.5,27.3,159.3,27,159.1,26.7z M158.3,28.6
		c0,0.1-0.1,0.1-0.2,0.2c-0.1,0.1-0.2,0.2-0.2,0.2l0,0c0,0,0.1,0.1,0.2,0.3c0,0,0,0,0,0.1l0,0l0,0c0,0,0,0-0.1,0.1l-0.1,0.1l0,0
		c-0.1,0.2-0.2,0.4-0.2,0.7c0,0.1,0,0.3,0,0.4s0,0.2,0,0.3c0,0,0,0,0,0.1c0,0,0,0-0.1,0c0,0,0,0-0.1,0c0,0-0.1,0-0.1-0.1
		c-0.1,0-0.2,0-0.3,0s-0.2,0-0.3,0s-0.2,0-0.4,0h-0.2c-0.1,0-0.2,0-0.3-0.1c0,0,0,0,0-0.1c0-0.2,0-0.4,0.1-0.7
		c0-0.3,0.1-0.5,0.1-0.7v-0.1c0,0,0-0.1,0-0.2c0,0,0,0,0-0.1l-0.1-0.1l0,0c0,0,0,0-0.1,0h-0.1h-0.1c-0.1,0-0.2,0-0.4,0.1
		c-0.2,0-0.3,0.1-0.4,0.1c0,0,0,0-0.1-0.1c-0.1,0-0.1-0.1-0.1-0.1c-0.1,0-0.2,0.1-0.2,0.3v0.1c-0.1,0-0.1-0.1-0.1-0.2
		s-0.1-0.2-0.1-0.2h-1.7l-0.3,1.9l-1.3,0.1c0,0,0,0-0.1-0.1c0,0,0,0-0.1-0.1v-0.1l0.8-5h1c0-0.1,0.1-0.1,0.2-0.1
		c0.2,0,0.3,0.1,0.5,0.2l0,0l0,0c0,0,0,0.1-0.1,0.1s-0.1,0-0.1,0.1l0,0l0,0l0.1,0.2l0,0l0,0c-0.1,0-0.2,0.1-0.2,0.2v0.1
		c0,0.1,0,0.2,0.1,0.2l0.1,0.1c0,0.1-0.1,0.1-0.1,0.1H153c-0.1,0-0.1,0.1-0.1,0.4c0,0.1,0,0.1,0.1,0.1h0.4c0-0.1,0-0.1,0.1-0.2h0.1
		c0.1,0,0.2,0,0.3,0.1s0.3,0.1,0.5,0.1c0.3,0,0.5,0,0.5-0.1c0.1-0.1,0.1-0.2,0.1-0.5c0,0.1,0,0.3,0.1,0.5c0,0.1,0,0.1,0.1,0.2
		c0,0,0.1,0,0.2,0h0.4h0.1c0.1,0,0.1,0,0.1,0h0.1c0,0,0,0,0.1-0.1l0.1-0.1c0,0,0.1,0,0.1,0.1l0.1,0.1h0.7c0.1-0.1,0.2-0.2,0.4-0.2
		c0.1,0,0.1,0,0.2,0l0,0c0,0.1,0,0.1,0.1,0.2c0,0,0,0,0.1,0h0.1c0,0,0.1,0,0.1,0.1v0.8C158.3,28.5,158.3,28.5,158.3,28.6L158.3,28.6
		L158.3,28.6z"/>
	<path class="st1" d="M199.5,27.5L199.5,27.5c0.1,0,0.2,0,0.3,0.1s0.1,0.1,0.2,0.1c0,0,0,0.1-0.1,0.1h-0.1l0,0c-0.1,0-0.1,0-0.1,0
		L199.5,27.5L199.5,27.5z"/>
	<polygon class="st1" points="208.5,28.1 208.6,28.1 208.6,28.2 208.5,28.2 	"/>
	<path class="st1" d="M199.8,28.1L199.8,28.1C199.9,28.1,199.9,28.1,199.8,28.1c0.1,0,0.1,0,0.2,0.1l0,0l0,0
		C199.9,28.2,199.8,28.2,199.8,28.1L199.8,28.1z"/>
	<path class="st1" d="M208.8,28.6c0,0.1,0.1,0.1,0.2,0.1c0,0,0,0,0.1,0v-0.2C208.9,28.5,208.9,28.5,208.8,28.6L208.8,28.6
		L208.8,28.6z"/>
	<path class="st1" d="M208.2,28.6C208.2,28.7,208.2,28.7,208.2,28.6C208.1,28.7,208.1,28.7,208.2,28.6
		C208.1,28.7,208.1,28.7,208.2,28.6C208.1,28.7,208.1,28.6,208.2,28.6L208.2,28.6L208.2,28.6z"/>
	<path class="st1" d="M199.5,28.6C199.5,28.6,199.5,28.7,199.5,28.6C199.5,28.7,199.5,28.7,199.5,28.6
		C199.5,28.7,199.5,28.7,199.5,28.6L199.5,28.6L199.5,28.6z"/>
	<path class="st1" d="M199.6,29c0,0,0.1-0.1,0.2-0.1V29C199.7,29.1,199.6,29,199.6,29L199.6,29z"/>
	<path class="st1" d="M209,26.7c-0.2-0.2-0.4-0.3-0.7-0.4c-0.2,0-0.4,0-0.7,0c-0.4,0-0.6,0-0.7,0c-0.3,0-0.7,0-1.1,0h-3.4
		c-0.3,0-0.6,0-0.9,0h-1c-0.6,0-1,0.2-1.2,0.6c-0.2,0.3-0.3,0.8-0.3,1.5l-0.1,0.1l-0.6,3.9v0.1c0,0.1,0,0.1,0,0.1
		c0,0.8,0.4,1.2,1.2,1.4h0.1c0,0,0.1,0,0.2,0c0.1,0,0.2,0,0.2,0h0.1c0.5,0,0.9,0,1.1-0.1c0.2-0.1,0.4-0.2,0.5-0.4
		c0.1-0.1,0.2-0.3,0.3-0.6c0.1-0.2,0.1-0.4,0.2-0.6l0.1-0.1h5.3c0.5,0,0.9-0.4,1-1.1c0-0.2,0.1-0.3,0.1-0.5s0.1-0.5,0.1-0.8v-0.2
		c0-0.1,0-0.2,0-0.2v-0.1v-0.1c0-0.1-0.1-0.1-0.2-0.2l0,0l0,0c-0.1,0-0.1,0.1-0.1,0.2c-0.1-0.1-0.2-0.2-0.4-0.3v-0.1c0,0,0,0,0.1,0
		s0.2,0,0.2-0.1l0,0c0,0,0,0,0-0.1v-0.1c0,0,0,0,0-0.1v-0.1c0,0,0,0-0.1,0l-0.1-0.1c-0.1-0.1-0.2-0.1-0.2-0.1s0,0,0-0.1v-0.1
		c0,0,0.1,0,0.2,0.1c0.1,0.1,0.1,0.1,0.2,0.1l0,0l0,0l0.1-0.1l0.1-0.1c0,0,0,0,0.1,0v0.2h0.1l0.3-0.3c0,0,0-0.1,0-0.2l0.1-0.3
		c0,0,0,0,0-0.1v-0.1C209.4,27.1,209.3,26.9,209,26.7z M208,28.1v0.1c0,0.4-0.1,0.6-0.1,0.6s0,0.1,0,0.2s0,0.1,0,0.2
		c0,0,0,0.1-0.1,0.1s-0.1,0.1-0.1,0.1l-0.3,1.6l-0.9,0.1h-5.4c0,0-0.1,0.1-0.1,0.4c0,0.2-0.1,0.4-0.1,0.8c0,0.1,0,0.2,0,0.3
		s0,0.2-0.1,0.2c0,0-0.1,0.1-0.3,0.1c-0.1,0-0.2,0-0.3,0c0,0,0,0-0.1,0s-0.1,0-0.1,0s-0.1,0-0.2,0c-0.1,0-0.1,0-0.2,0
		c0,0-0.1,0-0.2,0c-0.1,0-0.1,0-0.2,0c0,0-0.1,0-0.1-0.1v-0.1c0.2-1,0.4-2.6,0.7-4.7c0-0.1,0.1-0.2,0.1-0.2h0.3c0.2,0,0.5,0,0.8,0
		c0.2,0,0.5,0,0.8,0c0.4,0,0.6,0,0.8,0s0.4,0,0.7,0s0.6,0,0.7,0l0,0c0,0,0,0,0.1,0s0.1,0,0.1,0c0.1,0,0.2,0,0.4-0.1h0.1
		c0.1,0,0.1,0,0.2,0.1c0.1,0,0.2,0,0.3,0s0.2,0,0.3,0s0.2,0,0.3,0s0.2,0,0.3,0c0,0,0.1,0,0.2,0c0.1,0,0.2,0,0.2,0s0,0,0.1,0
		s0.1,0,0.1,0c0.1,0,0.1,0,0.1,0s0,0,0.1,0c0,0,0,0,0.1,0h0.1c0,0,0,0,0.1,0c0,0,0,0,0.1,0l0,0l0,0c0.1,0,0.2,0,0.3,0.1
		s0.1,0.1,0.1,0.3C208.1,27.8,208.1,27.9,208,28.1z"/>
	<path class="st1" d="M208.2,29.1L208.2,29.1L208.2,29.1L208.2,29.1L208.2,29.1c0.1,0,0.1,0,0.1,0.1L208.2,29.1L208.2,29.1
		L208.2,29.1z"/>
	<path class="st1" d="M205.8,29.1L205.8,29.1l0.4,0.1V29c-0.1,0-0.1,0-0.2,0C205.9,29.1,205.9,29.1,205.8,29.1L205.8,29.1z"/>
	<path class="st1" d="M205.7,29h-1c0,0,0,0-0.1,0.1v0.1h0.9h0.1C205.6,29.1,205.7,29,205.7,29L205.7,29z"/>
	<path class="st1" d="M201.6,29.1c0,0.1,0.1,0.1,0.2,0.1h2.6l0.1-0.1c0,0-0.1-0.1-0.2-0.1c-0.1,0-0.1,0-0.2,0h-2.4
		C201.6,29,201.6,29,201.6,29.1L201.6,29.1z"/>
	<path class="st1" d="M208.7,29.2C208.8,29.2,208.8,29.2,208.7,29.2c0,0.1,0,0.1,0,0.1C208.7,29.3,208.7,29.2,208.7,29.2L208.7,29.2
		L208.7,29.2z"/>
	<path class="st1" d="M188.6,30.9L188.6,30.9C188.6,30.9,188.5,30.9,188.6,30.9C188.5,30.8,188.6,30.8,188.6,30.9
		C188.6,30.8,188.6,30.8,188.6,30.9L188.6,30.9z"/>
	<g>
		<path class="st1" d="M197.7,26.6c-0.3-0.2-0.7-0.3-1.2-0.3h-0.1h-0.1c-0.1,0-0.1,0-0.1,0h-0.1l-0.2,0.1c0,0,0,0-0.1,0
			c0,0,0,0,0-0.1c0,0,0,0-0.1,0h-0.1h-0.1h-0.1h-0.1c0,0,0,0-0.1,0s-0.1,0-0.1,0s-0.1,0-0.1-0.1c-0.2,0-0.4,0-0.6,0
			c-0.2,0-0.4,0-0.6,0h-2.3c-0.4,0-0.8,0-1.1,0c-0.7,0-1.1,0-1.4,0.1c-0.2,0.1-0.4,0.2-0.5,0.4c-0.1,0.1-0.2,0.4-0.2,0.7
			c0,0.2-0.1,0.4-0.1,0.7c-0.1,0.5-0.2,1.3-0.4,2.4c0,0,0,0,0,0.1v0.1c0,0,0,0,0,0.1v0.1c0,0,0,0.1,0.1,0.3c0.1,0.3,0.3,0.6,0.6,0.7
			c0.1,0.1,0.3,0.1,0.5,0.2c0.2,0,0.4,0,0.6,0c0.3,0,0.5,0,0.6,0c0.3,0,0.6,0,0.9,0h1c0.3,0,0.7,0,1,0h0.9c0.3,0,0.5,0,0.7,0h1.1
			c0.7,0,1.3-0.1,1.6-0.4c0.1-0.1,0.2-0.3,0.2-0.5l0.5-3.5l0,0c0,0,0,0,0-0.1C198.2,27.2,198,26.9,197.7,26.6z M197,27.9
			c0,0,0,0.1-0.1,0.1l-0.5,2.9l-0.2,0.1h-0.1c-0.3,0-0.7,0-1.1,0c-0.1,0-0.3,0-0.4,0h-0.3h-2.6c-0.8,0-1.7,0-2.6-0.1c0,0,0,0,0-0.1
			v-0.1c0,0,0,0,0-0.1v-0.1v-0.1l0.1-0.6c0-0.1,0-0.3,0.1-0.6v-0.1c0,0,0-0.1,0.1-0.4c0-0.3,0.1-0.5,0.1-0.7c0-0.1,0-0.2,0-0.2
			c0-0.1,0.1-0.2,0.1-0.2c0.2,0,0.4-0.1,0.6-0.1h0.6c0.1,0,0.2,0,0.3,0h1.2c0.2,0,0.5,0,0.7,0h0.7c0.2,0,0.5,0,0.7,0h2.2
			c0.1,0,0.2,0,0.4,0.1C197,27.7,197,27.8,197,27.9L197,27.9z"/>
		<path class="st1" d="M195.1,29.1C195.1,29.1,195,29.1,195.1,29.1h-4.3c0,0-0.1,0-0.1,0.1s0,0.1,0.1,0.1h4.2l0,0
			C195.1,29.2,195.1,29.2,195.1,29.1L195.1,29.1z"/>
	</g>
	<polygon class="st1" points="169.8,23.8 169.8,23.8 169.8,23.8 169.8,23.8 	"/>
	<path class="st2" d="M209,14.7c-0.5-0.4-1.3-0.7-2.2-0.7c-1,0-1.7,0.2-2.2,0.7c-0.6,0.5-0.8,1.1-0.8,2v4.1c0,0.9,0.3,1.5,0.8,2
		c0.5,0.4,1.3,0.7,2.2,0.7c1,0,1.7-0.2,2.2-0.7c0.5-0.4,0.8-1.1,0.8-2v-4.2C209.8,15.8,209.5,15.2,209,14.7z M207.1,21.4
		c0,0.1,0,0.2-0.1,0.3c-0.1,0.1-0.2,0.2-0.3,0.2c-0.3,0-0.4-0.2-0.4-0.5V16c0-0.1,0-0.2,0.1-0.3s0.2-0.1,0.3-0.1
		c0.3,0,0.4,0.1,0.4,0.4V21.4z"/>
	<path class="st2" d="M198.9,11.8h-0.1V12h0.1V11.8z M200.9,13.1c-0.3,0-0.5,0-0.6-0.1c0.2,0,0.4-0.1,0.6,0v-1.3h-1
		c0,0.2,0,0.4-0.1,0.4h-0.3l-0.1-0.1c0,0,0.1,0,0.2,0c0.1,0,0.1-0.1,0.1-0.3c-0.2,0-0.3,0-0.4,0.1c-0.1,0.2-0.1,0.3-0.1,0.4h-0.3
		c-0.1-0.2-0.2-0.3-0.2-0.4c-0.2,0.3-0.4,0.5-0.4,0.5l-0.1-0.1l-0.1-0.1V12l0,0l0,0c0.1,0.1,0.2,0.1,0.2,0.1c0-0.1,0-0.3,0.1-0.3
		H198c0,0.1,0,0.2,0,0.2l-0.1-0.1c0,0.1,0,0.1-0.1,0.2c-0.1,0.1-0.2,0.2-0.3,0.2l-0.1-0.1c0.2-0.2,0.3-0.3,0.3-0.4h-0.3
		c0,0.2,0,0.3,0,0.3c-0.1-0.2-0.1-0.3-0.1-0.3s-0.1,0.6-0.1,1.7h3.7L200.9,13.1L200.9,13.1z M200.2,13h-2.9v-0.1h2.9V13z
		 M202.4,23.2c-0.1-0.1-0.1-0.2-0.1-0.3v-0.1l0,0c-0.1-0.1-0.2-0.3-0.2-0.5c0-0.1,0-0.1,0-0.2c0,0.1,0.1,0.1,0.1,0.1
		c0,0.2,0,0.4,0.1,0.4c0-0.1,0-0.2,0-0.3c0-0.1,0-0.3,0-0.3v0.1c-0.1-0.2-0.1-0.3-0.2-0.4c-0.5-3.3-0.9-5.9-1.2-7.5h-3.8l-1.3,9.3
		h2.7c0.1-0.8,0.1-1.4,0.1-1.7h1c0,0,0,0.3,0,1.1c0.7,0,1.1,0,1.2,0c-0.2,0-0.5,0-0.8,0h-0.4c0,0,0,0.1,0,0.2
		c-0.1,0.1-0.1,0.2-0.2,0.2c0.1,0.1,0.2,0.1,0.2,0.1h2.9v-0.2C202.5,23.2,202.4,23.2,202.4,23.2z M198.6,20.1l0.5-3.9l0.4,3.9H198.6
		z"/>
	<path class="st2" d="M194.8,18.3v-1.6c0-0.1,0-0.2,0-0.3c0-0.1,0-0.2,0-0.2c-0.1-0.7-0.4-1.3-1-1.6c-0.5-0.3-1.2-0.5-2-0.5
		c-0.9,0-1.6,0.2-2.2,0.6c-0.6,0.5-0.9,1.1-0.9,1.9V21c0,0.4,0.1,0.8,0.2,1.2c0.2,0.5,0.4,0.8,0.7,0.9h-0.4v0.3h1.5
		c0,0.1,0,0.2-0.1,0.3c0,0.3-0.1,0.5-0.1,0.8c0.3,0.1,0.5,0.2,0.9,0.3c0.1,0,0.2,0.1,0.2,0.1c0.1-0.2,0.2-0.4,0.4-0.7
		c0.2-0.3,0.3-0.5,0.3-0.5c0-0.1,0.1-0.1,0.1-0.2h1.3v-0.2c0-0.1,0.1-0.2,0.4-0.4c0.3-0.2,0.4-0.4,0.5-0.6c0.2-0.5,0.3-0.9,0.3-1.3
		v-1.2h-2.6v1.8c0,0.4-0.2,0.5-0.5,0.5s-0.5-0.2-0.5-0.5v-5.5c0-0.4,0.2-0.5,0.5-0.5s0.5,0.2,0.5,0.5v2.2
		C192.3,18.3,194.8,18.3,194.8,18.3z M191.7,24.4l-0.2-0.1v-0.1L191.7,24.4L191.7,24.4z M191.8,24.1L191.8,24.1h-0.2V24L191.8,24.1z
		 M191.6,23.8L191.6,23.8v0.1V23.8L191.6,23.8z M190.8,23.9L190.8,23.9l0.2-0.1v0.1H190.8z M190.7,14h-0.1v0.1L190.7,14L190.7,14z"
		/>
	<path class="st2" d="M187.2,14.1C187.3,14.1,187.3,14.1,187.2,14.1V14C187.2,14,187.2,14,187.2,14.1
		C187.2,14.2,187.2,14.2,187.2,14.1C187.2,14.2,187.2,14.2,187.2,14.1z M186.6,14.2l-0.2-0.1l-0.1,0.1H186.6L186.6,14.2z M185,14.7
		C185,14.6,185,14.6,185,14.7C185,14.6,185,14.6,185,14.7z M187.1,14.3L187.1,14.3C187.2,14.3,187.2,14.4,187.1,14.3
		C187.2,14.3,187.1,14.3,187.1,14.3L187.1,14.3z M187,14.3C187,14.2,187,14.2,187,14.3c-0.1,0-0.1-0.1-0.1-0.1v-0.1l0,0
		c-0.1,0-0.1,0-0.1,0s0,0-0.1,0s-0.1,0-0.2,0c0.2,0.1,0.3,0.1,0.4,0.1v0.3c-0.1,0-0.1,0-0.2-0.1v-0.1c-0.2,0.1-0.4,0.2-0.5,0.3
		c0-0.1-0.1-0.1-0.1-0.2l0.1-0.1c0,0,0,0,0.1,0h0.1c0,0,0,0-0.1,0h-0.1c0.1-0.1,0.1-0.1,0.1-0.1c-0.1,0-0.1,0.1-0.1,0.1
		c-0.1-0.1-0.1-0.1-0.1-0.1H186c-0.1,0-0.1,0-0.1,0c0,0.2-0.1,0.2-0.2,0.2c0,0,0-0.1,0.1-0.1c0,0,0-0.1-0.1-0.1s-0.1-0.1-0.1-0.1
		c0,0.1,0,0.2,0,0.2l-0.1-0.1c0,0,0-0.1,0-0.2c0,0,0,0-0.1,0h-0.1c0.1,0.1,0.1,0.2,0.1,0.2h-0.1l-0.1-0.1V14H185l0.1,0.1
		c0,0.1,0.1,0.1,0.1,0.1c-0.1,0-0.1,0.1-0.1,0.2v0.1v0.1c0,0,0,0,0.1,0c0,0,0,0,0.1,0.1c0,0,0.1,0,0.1,0.1c-0.1,0.1-0.2,0.1-0.3,0.1
		c0.1,0,0.1,0,0.2,0c0.1,0,0.1,0,0.1,0s0.1,0,0,0l0,0c0,0,0.1,0,0.1,0.1c0.1-0.2,0.2-0.4,0.2-0.5c-0.1,0-0.1,0-0.1-0.1
		c0.1,0,0.2,0,0.2,0.1c0,0,0,0,0,0.1s0,0.1,0,0.1c0.1-0.1,0.1,0,0.1,0c-0.1,0.1-0.1,0.1-0.2,0c0.1,0.1,0.1,0.1,0.2,0.1
		c-0.1,0.1-0.1,0.2-0.1,0.2l-0.1-0.1c0,0,0,0,0,0.1c0,0,0,0-0.1,0.1l-0.1,0.1c-0.1-0.1-0.3-0.2-0.3-0.1h0.1c0,0-0.1,0-0.2,0
		s-0.1,0-0.1,0.1l-0.2-0.2c0,0,0,0,0.1,0s0.1,0,0.1,0c-0.1,0-0.2-0.1-0.3-0.1c0.1-0.1,0.1-0.2,0.2-0.2h-0.1c0,0-0.1-0.1,0-0.1l0,0
		l0.1,0.1c0-0.1,0-0.2,0.1-0.3c0,0-0.1,0-0.2,0.1c-0.1,0-0.1,0.1-0.2,0.1v1.1l0,0l0,0c0.4,0,1.1,0,2.3,0.1c0,0,0,0,0-0.1
		c0,0,0,0,0-0.1c0,0,0,0,0,0.1c0,0,0,0.1,0.1,0.1s0.1,0,0.1-0.1v-0.4c0,0,0,0-0.1,0s-0.1,0-0.1,0c0.1-0.1,0.2-0.1,0.2-0.1v-0.3
		c-0.1,0-0.1,0-0.2,0.1c-0.1-0.1-0.1-0.1-0.2-0.2c0,0,0,0,0,0.1V15c0,0.1,0,0.1-0.1,0.1c0,0,0-0.1-0.1-0.2c0-0.1,0-0.1-0.1-0.1
		l0.1-0.1c0,0,0,0,0.1,0h0.1c0-0.1,0-0.2,0-0.2C187,14.3,187,14.3,187,14.3z M185.1,14.5L185.1,14.5h0.2v0.1L185.1,14.5z
		 M185.2,14.7L185.2,14.7v-0.1V14.7L185.2,14.7z M185.3,14.4L185.3,14.4l-0.1-0.1h0.1V14.4z M185.4,15.2h-0.1v-0.1L185.4,15.2
		L185.4,15.2z M185.7,15c0-0.1,0.1-0.1,0.1-0.1c0.1,0,0.1,0.1,0.1,0.2C185.8,15,185.7,15,185.7,15z M185.9,14.6L185.9,14.6l-0.1-0.1
		v0.1h-0.1l0.1-0.1h0.1l0,0h0.1v0.1H185.9z M186.4,15.1C186.3,15.1,186.3,15.2,186.4,15.1l-0.1-0.2
		C186.3,14.9,186.3,14.9,186.4,15.1C186.4,15.1,186.4,15.1,186.4,15.1C186.5,15.1,186.4,15.1,186.4,15.1z M186.5,14.5
		c0,0,0,0-0.1,0.1c0,0.1,0.1,0.1,0.1,0.1s0,0,0,0.1l0,0l0,0l0,0c0,0.1,0,0.1-0.1,0.1l0,0c0,0,0,0-0.1,0s-0.2,0.1-0.2,0.2v0.1
		c-0.1,0-0.2-0.1-0.2-0.1L186,15l0.1-0.1H186l0.1-0.1c0.1,0.1,0.2,0.1,0.3,0.1l0,0c0,0-0.1-0.1-0.2-0.1c-0.1,0-0.1,0-0.1,0H186
		c0.1-0.1,0.1-0.1,0.2,0l0.1-0.1l0,0l0,0C186.4,14.6,186.4,14.6,186.5,14.5c-0.1,0.1-0.1,0.1-0.2,0.2l0,0
		C186.4,14.6,186.4,14.6,186.5,14.5z M186.5,14.6l0.1-0.2h0.1L186.5,14.6L186.5,14.6z M186.7,15.3c-0.1-0.1-0.1-0.1-0.1-0.2v-0.2
		c0,0,0,0.1,0.1,0.1v-0.1C186.8,15,186.8,15.1,186.7,15.3z M187,15L187,15c0-0.1,0-0.1,0-0.1l0.2,0.2c-0.1,0.1-0.2,0.1-0.3,0.1
		C186.9,15.1,186.9,15.1,187,15z M186.9,14.8L186.9,14.8l-0.2-0.1h0.1L186.9,14.8z M186.8,14.6L186.8,14.6l0.1-0.2h0.1L186.8,14.6z
		 M187.2,14.6h0.1v-0.2c0,0-0.1-0.1-0.2-0.1c0,0,0,0,0.1,0C187.2,14.6,187.2,14.6,187.2,14.6z M186.9,14
		C186.9,14.1,186.9,14.1,186.9,14C186.9,14.1,186.9,14.1,186.9,14C186.9,14.1,186.9,14,186.9,14z M184.8,14
		c-0.1,0.1-0.1,0.1-0.2,0.1c0,0,0.1,0,0.2,0S184.8,14.1,184.8,14z M183.7,14.2c0.1,0,0.1,0,0.1,0c-0.1-0.1-0.2-0.1-0.2-0.2
		c0.1,0.1,0.1,0.1-0.1,0.1C183.6,14.2,183.7,14.2,183.7,14.2z M184.7,15.5L184.7,15.5v5.9c0,0.3-0.1,0.4-0.4,0.4
		c-0.2,0-0.4-0.1-0.4-0.4v-6.1l0,0h-0.1c-0.2,0-0.4,0-0.6,0c-0.2,0-0.4,0-0.6-0.1c0.4-0.1,0.7-0.1,1,0v-0.1c0.1,0.1,0.1,0.1,0.1,0.1
		l0,0v-1l0,0c0,0,0,0-0.1,0s-0.1,0-0.2-0.1c0-0.1,0.1-0.2,0.1-0.2s0,0-0.1,0s-0.1,0-0.1,0c0.1,0,0.1,0,0.2,0h-0.1
		c0,0.1,0.1,0.1,0.1,0.2h-0.1c0,0,0,0,0.1,0.1c0.1,0,0.1,0.1,0.1,0.1h-0.1c-0.1,0-0.1,0-0.2,0h-0.1c-0.1-0.1-0.1-0.2-0.1-0.3
		c0.1,0,0.1,0.1,0.1,0.1c-0.1,0-0.1-0.1-0.1-0.2c0,0-0.1,0-0.2,0h-0.1c0,0,0,0-0.1,0h-0.1c0,0,0,0-0.1,0h-1.7v6.9
		c0,0.8,0.3,1.5,0.9,1.9c0.6,0.4,1.3,0.6,2.3,0.6c0.8,0,1.4-0.2,2-0.5c0.7-0.4,1-1,1-1.8v-5.5c0,0,0,0-0.1,0h-0.1h-0.1
		c0,0,0,0-0.1,0H184.7C184.7,15.5,184.6,15.5,184.7,15.5L184.7,15.5L184.7,15.5L184.7,15.5L184.7,15.5z M183.1,14.9L183.1,14.9
		l-0.1-0.2h0.1V14.9z M183.4,15.2L183.4,15.2V15h0.1L183.4,15.2z M183.7,14.4c0,0.2,0.1,0.4,0.1,0.5c0,0,0,0-0.1,0h-0.1
		C183.7,14.9,183.7,14.7,183.7,14.4z M183.5,14.7l0.1,0.2h-0.1V14.7L183.5,14.7z M183.3,15L183.3,15v0.1V15L183.3,15z M183.1,14.2
		v0.3c0-0.1-0.1-0.2-0.1-0.3C183,14.2,183,14.2,183.1,14.2z M183.2,14.5c-0.1,0.1-0.1,0.1-0.2,0.1c0.1,0,0.1,0.1,0.1,0.1h-0.3
		C183,14.7,183.1,14.6,183.2,14.5z M182.7,14.2L182.7,14.2C182.7,14.3,182.7,14.3,182.7,14.2c0.1,0.2,0.1,0.2,0.1,0.3
		c-0.1,0-0.1-0.1-0.1-0.1C182.7,14.3,182.7,14.3,182.7,14.2C182.7,14.3,182.7,14.2,182.7,14.2z M182.7,14.5L182.7,14.5v0.2h-0.1
		L182.7,14.5z M183.1,15.6h-0.4v-0.1L183.1,15.6L183.1,15.6z M183.8,15.6h-0.2v-0.1L183.8,15.6L183.8,15.6z M186.8,15.7h0.1v0.1
		L186.8,15.7L186.8,15.7z M186.7,15.7L186.7,15.7v0.1V15.7L186.7,15.7z M185.6,15.7h0.6v0.1L185.6,15.7L185.6,15.7z M185.2,15.7h0.2
		v0.1L185.2,15.7L185.2,15.7z M184.7,15.6h0.4v0.1L184.7,15.6L184.7,15.6z M185.8,14.4L185.8,14.4L185.8,14.4L185.8,14.4z"/>
	<path class="st2" d="M179.9,21.5c-0.1,0-0.1,0-0.1,0c-0.1,0.2-0.1,0.4-0.1,0.5c0.1,0,0.2,0,0.3,0.1s0.1,0.1,0.1,0.2s0,0.2-0.1,0.3
		c-0.1-0.1-0.2-0.1-0.3,0c-0.1-0.1-0.1-0.2-0.1-0.3c0-0.1,0-0.2,0-0.3c0-0.1,0-0.2,0-0.2c-0.1-0.1-0.1-0.1,0-0.1l0.1-0.1
		c-0.6,0-1,0-1.1,0c0,0-0.1-0.1-0.3-0.1c-0.1-0.1-0.2-0.1-0.2-0.1s-0.1,0-0.1,0.1c0,0,0,0.1-0.1,0.1c-0.2,0-0.3-0.1-0.3-0.3
		c0-0.2,0.1-0.2,0.3-0.2c0.1,0,0.2,0.1,0.2,0.2l-0.1,0.1c-0.1,0-0.1-0.1-0.2-0.1c0,0,0,0,0.1,0.1c0,0-0.1,0-0.2,0h0.1
		c0.1,0,0.1,0,0.1,0c0-0.1,0.2-0.3,0.4-0.4v-6.8h-2.7V21c0,0,0,0,0.1,0h0.1c0,0,0.1,0,0.1,0.1c0,0.2,0,0.3,0,0.3l0,0c0,0,0,0,0,0.1
		c0,0,0,0.1-0.1,0.1s-0.2,0-0.3,0v0.5c0.1,0,0.3,0,0.3,0v0.2c0.1-0.1,0.2-0.2,0.2-0.2c0,0.1,0.1,0.2,0.1,0.2h0.5v-0.1
		c0,0,0-0.1,0.1-0.1l0.1-0.1c0.1,0.2,0.1,0.3,0.2,0.4c0,0,0-0.1,0-0.2s0-0.2,0.1-0.2s0.2,0.1,0.1,0.3h0.1c0.1,0,0.2,0.1,0.2,0.2
		c0.1-0.1,0.1-0.1,0.3-0.1c0,0,0.1,0.1,0.3,0.2h0.1c0.1,0,0.1,0,0.1,0s0,0,0-0.1s0-0.1,0-0.1c0.2-0.2,0.3-0.3,0.3-0.3s0.1,0,0.2,0.1
		v0.6c-0.1,0-0.1-0.1-0.2-0.1c0,0.1,0,0.1-0.1,0.2c-0.1,0-0.1,0-0.2-0.1c0.1-0.1,0.1-0.1,0-0.2h-0.1c-0.1,0-0.1,0-0.1,0
		c-0.1,0.1-0.2,0.2-0.3,0.2s-0.1,0-0.2-0.1l-0.1,0.1c-0.1,0-0.4,0-0.7,0c0,0-0.1,0-0.1-0.1c-0.1-0.1-0.1-0.1-0.2-0.1
		c-0.1,0-0.1,0-0.1,0s0,0,0,0.1v0.1c0,0.1-0.1,0.2-0.2,0.2l-0.1-0.1c0.1-0.1,0.1-0.3,0.1-0.4c-0.1,0-0.1,0.1-0.2,0.2
		c-0.1,0.1-0.2,0.2-0.2,0.2c-0.1,0-0.1-0.1-0.2-0.1v0.4c0.1,0.1,0.2,0.1,0.2,0.1c-0.1-0.1-0.1-0.2,0-0.3h0.1c0,0,0.1,0.1,0.1,0.3
		c0.1-0.1,0.2-0.1,0.4-0.1c0,0,0,0,0.1,0.1c0,0,0,0.1,0.1,0.1c-0.1,0.1-0.2,0.2-0.1,0.2c0,0,0.1,0,0.1,0.1c0.1,0,0.2,0,0.3,0
		c0,0,0-0.1,0-0.2s0-0.1,0-0.1c0-0.1,0-0.1,0.1-0.2c0.1,0,0.2,0,0.2,0.1v-0.1c0,0,0,0.2,0,0.5c0-0.1,0-0.2,0.1-0.3
		c0-0.1,0.1-0.2,0.2-0.2c0,0,0,0.1,0,0.2h0.3c0,0.1,0,0.2,0.1,0.3c-0.1-0.1,0-0.2,0-0.3h0.1c0.1,0,0.1,0,0.1,0
		c-0.1-0.1-0.2-0.1-0.3-0.2c0.1-0.1,0.1-0.1,0.1-0.1c0.2,0.1,0.4,0.2,0.5,0.3c0,0,0-0.1,0.1-0.1l0.1-0.1c0,0,0.1,0,0,0l0,0
		c0.1,0,0.1,0,0.1-0.1l0.1-0.1l0.1,0.1v0.5h1.2v-1.8C180,21.6,180,21.6,179.9,21.5z M176.7,22L176.7,22v-0.1V22L176.7,22z
		 M177.2,21.5c-0.1,0-0.2-0.1-0.3-0.2c-0.1,0.1-0.2,0.2-0.3,0.2h-0.1h-0.1V21c0.2,0,0.4,0.1,0.5,0.2c0.1-0.1,0.1-0.1,0.3-0.2
		c0.1,0.1,0.2,0.2,0.2,0.3C177.3,21.4,177.3,21.5,177.2,21.5z M179.9,22.8h-0.3v-0.1L179.9,22.8L179.9,22.8z M178.5,23l0.1,0.1h0.1
		L178.5,23L178.5,23z M177.4,22.2l-0.1,0.2h0.1V22.2L177.4,22.2z M178.3,23.3L178.3,23.3l0.1-0.1h-0.1V23.3z M177.4,23.4L177.4,23.4
		l0.2-0.2h-0.1L177.4,23.4z M175.9,22.2L175.9,22.2l-0.1,0.2h0.1V22.2z M175.8,23.4L175.8,23.4l0.1-0.2h-0.1V23.4z M176.5,21.3
		L176.5,21.3l0.1-0.2h-0.1V21.3z M178.3,21.3h0.1V21h-0.1V21.3z M175.8,21.1v0.3h0.1v-0.2L175.8,21.1L175.8,21.1z"/>
	<path class="st2" d="M161.2,14.2H161v0.1L161.2,14.2L161.2,14.2z M160.5,14.2L160.5,14.2L160.5,14.2L160.5,14.2L160.5,14.2z
		 M160.7,14.4l-0.1,0.1c0,0,0.1,0,0.2,0c0.1,0,0.1,0,0.2,0c-0.1,0-0.1,0-0.2,0h0.2l0,0v-0.1c0,0,0,0-0.1-0.1l-0.1-0.1
		c0.1-0.1,0.1-0.1,0.1-0.2C160.8,14.2,160.7,14.3,160.7,14.4c0-0.1,0-0.2,0-0.3c0,0,0,0,0,0.1c0,0,0,0-0.1,0h-0.1
		C160.6,14.3,160.6,14.3,160.7,14.4z M160.2,14.2C160.3,14.2,160.3,14.1,160.2,14.2C160.3,14.1,160.3,14.2,160.2,14.2z M160.2,14.2
		L160.2,14.2C160.2,14.2,160.2,14.3,160.2,14.2C160.2,14.3,160.2,14.3,160.2,14.2C160.2,14.3,160.2,14.3,160.2,14.2L160.2,14.2z
		 M160.4,14.3h-0.1c-0.1,0-0.1,0-0.1,0c0,0.1-0.1,0.1-0.1,0.1C160.2,14.4,160.4,14.4,160.4,14.3C160.5,14.3,160.5,14.3,160.4,14.3z
		 M161.8,15.5c-0.1,0.1-0.1,0.2-0.1,0.3C161.8,15.7,161.9,15.6,161.8,15.5C161.9,15.6,161.8,15.6,161.8,15.5z M160.1,14.6
		c0.1,0,0.1,0.1,0.1,0.1s0.1-0.1,0.1-0.2h-0.1l-0.1-0.1c0,0,0,0.1,0.1,0.1C160.2,14.7,160.2,14.7,160.1,14.6z M161.2,15.7
		L161.2,15.7C161.3,15.7,161.3,15.8,161.2,15.7c0,0.1,0,0,0.1-0.1C161.3,15.6,161.3,15.6,161.2,15.7z M161.2,15.7L161.2,15.7
		L161.2,15.7L161.2,15.7z M160.9,15.6c0,0,0.1,0.1,0.2,0.1c-0.1-0.1-0.1-0.2,0-0.2L160.9,15.6z M160.4,15.2l-0.1-0.1h-0.1
		L160.4,15.2L160.4,15.2z M160.1,15.1c0.1-0.1,0.1-0.2,0.1-0.2C160.2,14.9,160.2,15,160.1,15.1L160.1,15.1c0.1,0.1,0.2,0.2,0.2,0.2
		C160.2,15.2,160.2,15.1,160.1,15.1z M160.6,15.5C160.6,15.5,160.6,15.6,160.6,15.5C160.6,15.6,160.6,15.6,160.6,15.5
		C160.7,15.6,160.7,15.6,160.6,15.5z M160.8,15.2l-0.1,0.1h-0.1c0,0,0,0.1,0,0.2c0,0.1,0,0.2,0,0.3h0.1c0.1,0,0.1,0,0.1,0
		c-0.1,0-0.1,0-0.1-0.1c0,0,0,0,0.1-0.1l0,0v-0.1c0,0,0,0,0.1-0.1C160.7,15.3,160.7,15.3,160.8,15.2z M160.2,15.7
		C160.3,15.7,160.3,15.8,160.2,15.7C160.3,15.8,160.3,15.7,160.2,15.7z M160.2,15.7L160.2,15.7L160.2,15.7L160.2,15.7z M160.1,15.6
		C160.2,15.6,160.2,15.6,160.1,15.6C160.2,15.6,160.2,15.6,160.1,15.6c0.1,0,0.1-0.1,0.1-0.1l0.1-0.1c-0.1,0-0.2-0.1-0.3-0.2
		c0,0.1,0,0.2-0.1,0.2v0.2C160,15.7,160,15.7,160.1,15.6L160.1,15.6z M158.6,14.1L158.6,14.1l-0.1,0.1h0.1V14.1z M158.4,14.2
		L158.4,14.2l-0.1,0.1h0.1V14.2z M158.3,14.1L158.3,14.1l-0.1,0.1h0.1V14.1z M158.9,14.9L158.9,14.9l-0.1,0.1h0.1V14.9z M158.1,14.2
		c0.1,0,0.1,0.1,0.1,0.1C158.1,14.3,158.1,14.2,158.1,14.2l-0.2-0.1c0,0.1,0,0.1-0.1,0.2l-0.1-0.1c0,0.1,0,0.1,0,0.1s0,0.1-0.1,0.1
		h-0.1v0.2c0.2-0.2,0.3-0.3,0.4-0.4C158,14.2,158.1,14.2,158.1,14.2z M158.2,14.5c-0.1,0-0.2,0-0.3,0.1l-0.1-0.1c0,0,0,0,0,0.1
		l-0.1,0.1c0,0,0.1,0,0.1-0.1c0,0,0,0,0,0.1c0,0,0,0,0.1,0s0.1,0,0.2-0.1C158.2,14.6,158.2,14.5,158.2,14.5z M158.2,15.2
		c0.1,0,0.1,0,0.1,0C158.2,15.1,158.2,15.1,158.2,15.2C158.1,15.1,158.1,15.1,158.2,15.2C158.1,15.1,158.2,15.1,158.2,15.2
		C158.2,15.2,158.1,15.2,158.2,15.2C158.1,15.2,158.1,15.2,158.2,15.2z M157.8,15c0.1,0,0.1,0.1,0.1,0.1c0-0.2,0-0.3,0.1-0.3
		C157.9,14.9,157.8,15,157.8,15z M156.9,14.6h0.1h0.1c0,0,0,0,0.1,0c0,0,0.1,0,0,0l0,0c0.1,0,0.1,0,0.2,0.1V15c0,0-0.1,0-0.1,0.1
		h0.1c-0.1,0-0.1,0-0.2,0c0-0.1,0-0.1-0.1-0.2h0.1c-0.1-0.1-0.2-0.2-0.2-0.2c0,0.1,0,0.2,0.1,0.3s0.2,0.3,0.3,0.3
		c0.1-0.1,0.2-0.2,0.3-0.2c-0.1,0-0.2,0-0.3,0c0-0.1,0-0.1-0.1-0.2l0.1-0.1l0.1,0.1c0.1,0,0.1,0,0.1,0v-0.1c0-0.1,0-0.1,0-0.1
		s-0.1,0-0.1,0.1c-0.1-0.1-0.1-0.1-0.1-0.2c0-0.1,0.1-0.1,0.2-0.1c-0.1,0-0.1,0-0.2-0.1c0.1-0.2,0.1-0.3,0.1-0.5
		c-0.2,0-0.4,0-0.4,0.1c0,0,0,0,0,0.1c0,0,0,0,0-0.1h0.1c0,0,0,0.1,0,0.4c0,0-0.1,0-0.2-0.1c0,0.1,0,0.1,0,0.1h-0.1v-0.2
		c0-0.1,0-0.1-0.1-0.2c0,0.1,0.1,0.1,0.1,0.2c0,0,0,0.1-0.1,0.1c-0.1-0.1-0.1-0.1-0.1-0.2c0,0.1,0,0.2-0.1,0.2l0,0
		C156.8,14.4,156.8,14.4,156.9,14.6C156.9,14.5,156.9,14.5,156.9,14.6z M156.8,14.4l0.2,0.1v0.1L156.8,14.4L156.8,14.4z M156.9,14.6
		L156.9,14.6L156.9,14.6L156.9,14.6z M156.6,14.3L156.6,14.3v0.2C156.6,14.5,156.6,14.4,156.6,14.3
		C156.7,14.3,156.7,14.3,156.6,14.3z M156.5,14.1c-0.1-0.1-0.1-0.1-0.2,0c0,0-0.1,0-0.1,0.1h0.2C156.5,14.1,156.5,14.1,156.5,14.1z
		 M156.5,14.3h-0.1v0.1L156.5,14.3L156.5,14.3z M156.5,14.4l-0.1,0.1c0.1,0,0.1,0,0.2,0.1C156.5,14.6,156.5,14.5,156.5,14.4z
		 M156.2,14.3l-0.2,0.1v0.1L156.2,14.3L156.2,14.3z M156.1,14.7h0.2v-0.1L156.1,14.7L156.1,14.7z M156.4,15.6c0.1,0,0.1,0,0.1,0
		s0,0,0.1,0c0-0.1,0-0.1,0-0.2c0-0.1-0.1-0.2-0.1-0.2c0.1,0,0.1,0,0.1,0s0,0,0-0.1s0-0.1,0-0.1c0.1-0.1,0.2-0.1,0.2-0.2
		c0,0.1,0.1,0.2,0.1,0.3c0.1-0.2,0.1-0.3,0-0.3h-0.1l0,0c0,0,0,0-0.1,0.1c0,0-0.1,0.1-0.2,0.1c0,0,0-0.1,0.1-0.1c-0.1,0-0.1,0-0.2,0
		c0.1-0.1,0.1-0.2,0.1-0.2l0,0c-0.1-0.1-0.2-0.1-0.3-0.1c0,0.1,0,0.1-0.1,0.2c0.1,0,0.1,0.1,0.1,0.1s0.1,0,0.1,0.1c0,0-0.1,0-0.2,0
		c0,0,0.1,0,0.1,0.1s0,0.1-0.1,0.1c0,0,0.1,0,0.1-0.1c0,0,0,0,0.1,0c0,0,0,0,0,0.1c0,0,0,0.1-0.1,0.2
		C156.4,15.5,156.3,15.5,156.4,15.6c-0.1-0.2-0.2-0.2-0.2-0.3c0,0.2,0,0.3,0,0.3S156.2,15.6,156.4,15.6
		C156.3,15.6,156.3,15.6,156.4,15.6z M156.3,14.9L156.3,14.9l-0.1-0.1h0.1V14.9z M156.2,15L156.2,15v0.2h0.1L156.2,15z M160.7,14.9
		l0.1-0.1C160.7,14.8,160.7,14.8,160.7,14.9l-0.1-0.1c0.1-0.1,0.1-0.1,0.1-0.2c0,0,0,0-0.1,0l-0.1,0.1V15c0.1,0,0.1,0,0.2,0.1l0,0
		C160.7,15,160.7,15,160.7,14.9L160.7,14.9z M160.7,15.1L160.7,15.1L160.7,15.1L160.7,15.1z M162.2,14.1c0,0.1-0.1,0.2-0.1,0.4h-0.4
		c0,0.1,0,0.1,0,0.1l-0.1-0.1c0.1-0.1,0.1-0.1,0.1-0.1c0.1,0,0.1,0,0.1,0s0,0,0-0.1c0,0,0-0.1-0.1-0.1v-0.1c0,0,0,0,0-0.1
		c0.1,0,0.1,0,0.2,0h-0.1c-0.1,0-0.1,0-0.1,0v0.1c-0.1-0.1-0.1-0.1-0.1-0.1s0,0.1-0.1,0.1l-0.1,0.1c0,0,0.1,0,0.1,0.1c0,0,0,0,0,0.1
		s-0.1,0.2-0.3,0.3c0.1-0.1,0.2-0.1,0.3,0c0,0,0.1,0,0.1,0.1s0.1,0.1,0.1,0.1s0,0-0.1,0h-0.1c-0.1-0.1-0.1-0.1-0.1-0.1
		c0,0.2,0,0.3-0.1,0.3l-0.1-0.1c0,0,0,0,0,0.1v0.1c-0.1-0.1-0.2-0.2-0.3-0.2c0,0,0.2,0,0.4,0v-0.1c-0.1,0-0.1,0-0.2,0v-0.1v-0.1
		c0,0,0,0-0.1,0s-0.1,0-0.2-0.1l0.2,0.2c-0.1,0.1-0.1,0.1-0.2,0.1c0.1,0,0.1-0.1,0.2,0l-0.2,0.2c0.1,0,0.1,0.1,0.2,0.1h0.1l0,0
		c-0.1,0-0.1,0.1-0.1,0.2c0,0,0-0.1,0.1-0.1s0.1,0,0.2,0.1v0.1c0-0.1,0-0.1,0.1-0.1c0,0,0,0,0.1,0c0,0,0,0,0-0.1
		c0.1,0,0.1,0.1,0.2,0.1v-0.1c0.1,0.1,0.1,0.1,0.2,0.1c0-0.1,0-0.2,0-0.3l0,0c0.1,0.1,0.1,0.2,0.1,0.3c0,0,0.1,0,0.2-0.1
		c-0.1-0.1-0.1-0.1-0.1-0.2c0,0-0.1,0-0.1-0.1c-0.1,0-0.1-0.1-0.1-0.1v-0.2l0.1-0.1c0.2,0.1,0.3,0.1,0.3,0.1
		c-0.1-0.1-0.2-0.2-0.3-0.3c0.1,0,0.1,0,0.1,0.1c0.1-0.1,0.2-0.2,0.1-0.2c0.1,0.2,0.1,0.4,0,0.5l-0.1-0.1c-0.1,0-0.1,0-0.1,0h0.1
		c0.1,0,0.1,0.1,0.1,0.1V16H160l-0.5,4.7l-0.5-4.8c0,0.1-0.1,0.1-0.2,0.1c-0.1,0-0.1,0-0.1,0c0.1-0.1,0.1-0.1,0.1-0.1
		c-0.9-0.1-1.5-0.1-1.8-0.1c0,0-0.1,0-0.3,0c-0.1,0-0.2,0-0.3,0c-0.2,0-0.2,0-0.2,0.1c0.5,0,0.8,0,1,0.1c-0.1,0-0.4,0-1,0l1.3,7.5
		h4.1l1.4-9.2l0,0c0.1,0.7,0.2,1.3,0.3,1.6v-1.8H162.2z M161.5,14.5c0,0,0-0.1,0.1-0.3v0.1C161.6,14.4,161.6,14.4,161.5,14.5
		L161.5,14.5z M161.7,15.3h-0.2c0,0,0-0.1,0.1-0.1h-0.1c0.1,0,0.1-0.1,0.1-0.2c0.1,0,0.2,0,0.2,0v0.3H161.7z M161.9,14.7l-0.1,0.1
		h-0.1L161.9,14.7L161.9,14.7z M158.7,16h-0.4l0,0H158.7L158.7,16z M160.6,16.1h-0.2V16L160.6,16.1L160.6,16.1z M161.2,16.2h-0.4
		v-0.1L161.2,16.2L161.2,16.2z M161.5,16.1h-0.1V16L161.5,16.1L161.5,16.1z M162.2,16.2h-0.3v-0.1L162.2,16.2L162.2,16.2z
		 M161.9,14.2c0.1,0,0.2,0,0.2,0C162,14.1,161.9,14.1,161.9,14.2z M161.4,15.4L161.4,15.4L161.4,15.4L161.4,15.4z M161.9,14.2
		L161.9,14.2L161.9,14.2L161.9,14.2z M162,15.1C162,15.1,162,15,162,15.1C162,15,161.9,15,162,15.1C162,15,162,15.1,162,15.1z
		 M161.5,15.5C161.5,15.5,161.6,15.5,161.5,15.5C161.6,15.5,161.6,15.5,161.5,15.5C161.6,15.5,161.6,15.5,161.5,15.5L161.5,15.5z
		 M161.1,15.8L161.1,15.8l-0.1-0.1v0.1H161.1z M158.6,15.3l-0.1-0.4h-0.1L158.6,15.3L158.6,15.3z M158.1,14.9
		C158.1,14.9,158.1,14.8,158.1,14.9c0-0.1,0-0.1,0-0.2C158.1,14.8,158.1,14.9,158.1,14.9c0,0.1,0,0.1,0.1,0.1
		C158.1,14.9,158.1,14.9,158.1,14.9z"/>
	<path class="st2" d="M150.3,16.7v0.1h0.1v-0.1H150.3z M155.3,22.1H153v-2.2h1.9v-2H153V16h2v-2h-5v9.2c0,0.1,0,0.1,0.1,0.1h0.1
		l0.1-0.1c0.1,0,0.1-0.1,0.1-0.1c0.1,0.1,0.1,0.1,0,0.1c0.1,0,0.2,0,0.5,0c0.1,0,0.1,0,0.1-0.1s0-0.1,0-0.1s0.1,0.1,0.1,0.2
		c0.1,0,0.1,0,0.2,0c0.1,0,0.1,0,0.2,0h0.1c0,0,0,0,0,0.1v0.1c0,0,0-0.1,0.1-0.1h0.1c0,0,0.1,0,0.1,0.1c0,0,0,0.1,0.1,0.1
		c0.2,0,0.6,0,1-0.1c0,0,0,0,0.1,0c0,0,0.1,0,0.1,0.1c-0.1,0-0.1,0-0.1,0.1c0.1,0,0.2-0.1,0.4-0.1c0.1,0,0.2,0,0.2-0.1
		c0,0,0,0.1,0,0.2c0.2-0.1,0.4-0.2,0.7-0.2h0.1h0.1h0.6v-0.2c-0.1,0-0.2,0-0.2,0c0.1,0,0.2-0.1,0.2-0.1L155.3,22.1L155.3,22.1z
		 M150.6,16.7c0,0.1,0.1,0.2,0.1,0.2c0.1-0.1,0.1-0.1,0.1-0.2v0.2h-0.2L150.6,16.7L150.6,16.7z M150.3,23h-0.1v-0.1L150.3,23
		L150.3,23z M150.3,16.9L150.3,16.9L150.3,16.9l-0.1-0.2h0.1v-0.1h0.2v0.1h0.1v0.1h-0.1v0.1H150.3z M150.5,23.1L150.5,23.1l-0.1-0.1
		h0.1V23.1z M151,23.1l-0.1,0.1c0-0.1,0.1-0.2,0.1-0.2c-0.1,0-0.2,0-0.2,0s0,0-0.1,0.1V23h-0.1c-0.1-0.1-0.1-0.1-0.1-0.2
		c0,0,0,0.1,0.1,0.1s0.1,0,0.1-0.1c0,0,0,0,0.1,0s0.2,0,0.2,0C151,22.9,151.1,23,151,23.1C151.1,23.1,151.1,23.1,151,23.1z
		 M151.3,22.9c0,0.1-0.1,0.1-0.1,0.1s0-0.1-0.1-0.2c0.1,0,0.3,0,0.5-0.1c0,0,0,0-0.1,0.1C151.4,22.8,151.4,22.9,151.3,22.9
		C151.4,23,151.4,23,151.3,22.9C151.4,23,151.3,23,151.3,22.9z M152,23.1c0,0-0.1,0-0.2,0c-0.1,0-0.2,0-0.2,0l-0.2,0.1v-0.1h0.2h0.1
		V23C151.8,23,151.9,23.1,152,23.1C151.9,23,151.9,23,152,23.1C151.9,23,152,23,152,23.1c-0.1-0.1-0.1-0.1-0.2-0.1
		c-0.1-0.1-0.1-0.2-0.1-0.3v0.1c0,0.1,0.1,0.1,0.2,0.2v0.1H152z M152.3,23.1L152.3,23.1V23h0.1L152.3,23.1z M153,23.1
		c0,0-0.1,0-0.2,0c-0.1,0-0.1,0-0.2,0l0,0l0,0h-0.3c0-0.1,0-0.1,0-0.1l0,0c0.1,0,0.4,0,0.6,0L153,23.1z M153.2,23.1L153.2,23.1
		l-0.1-0.2c0,0,0.1,0,0.3,0.1C153.3,23,153.3,23,153.2,23.1c0.1-0.1,0.2-0.1,0.2-0.1C153.3,23,153.3,23.1,153.2,23.1z M153.6,23.1
		h-0.1V23h0.1V23.1z M153.8,23c0,0.1,0,0.1,0,0.2C153.7,23.1,153.7,23.1,153.8,23c0,0-0.1,0-0.2,0c0,0,0-0.1,0.1-0.1s0.1,0,0.1,0
		C153.8,22.9,153.8,22.9,153.8,23z M154.9,23.2c0,0-0.1,0-0.2,0c-0.1,0-0.2,0-0.2-0.1h0.1l0,0h-0.1c0,0,0,0,0.1,0s0.2,0,0.3,0
		L154.9,23.2L154.9,23.2z M154.9,23.1L154.9,23.1c0-0.1,0-0.1,0-0.2c0,0,0,0,0.1,0h0.1C155,23.1,155,23.1,154.9,23.1z M150.5,23.6
		h0.1v-0.1h-0.1V23.6z M150.5,16.7L150.5,16.7L150.5,16.7L150.5,16.7L150.5,16.7z M150.3,16.7L150.3,16.7L150.3,16.7L150.3,16.7
		L150.3,16.7z M150.5,16.9L150.5,16.9L150.5,16.9L150.5,16.9L150.5,16.9z M150.3,16.9L150.3,16.9L150.3,16.9L150.3,16.9L150.3,16.9z
		"/>
	<path class="st1" d="M163.1,27.3c-0.8,0.2-1.6-0.3-1.9-1c-0.2,0-0.4,0.1-0.6,0.2c-0.3,0.1-0.4,0.3-0.5,0.5c-0.2,0.8-0.4,1.5-0.4,2
		c0,0.2,0.1,0.3,0.2,0.3c0,0,0,0,0,0.1c0,0,0,0-0.1,0c0,0-0.1,0-0.1,0.1l0,0l0,0l0,0l0,0c0,0,0.2,0,0.5,0c0.1,0,0.1,0,0.1,0h0.1
		c0.1,0,0.1,0,0.3-0.1c0.1,0,0.1,0,0.1-0.1c0.1,0,0.1-0.1,0.1-0.1l0.3-1.8h1.7c0,0.2,0,0.4-0.1,0.8c-0.1,0.3-0.1,0.6-0.1,0.8
		c0,0.1,0.1,0.2,0.3,0.2c0.1,0,0.1,0,0.2,0c0.1,0,0.2,0,0.2,0h0.1h0.1c0.1,0,0.1,0,0.1,0h0.1c0,0,0.1-0.1,0.1-0.4
		c0.1-0.2,0.1-0.5,0.1-0.7c0-0.3,0.1-0.4,0.1-0.5c0-0.3-0.1-0.6-0.3-0.8C163.7,27,163.4,27.2,163.1,27.3z"/>
	<path class="st1" d="M161.4,26.3c0-0.1-0.1-0.2-0.1-0.2c-0.2-0.8,0.3-1.5,1.1-1.7c0.5-0.1,0.9,0,1.3,0.3c0.1-0.1,0.1-0.1,0.2-0.1
		c-0.4-0.3-0.9-0.5-1.5-0.4c-0.9,0.2-1.4,1.1-1.2,2C161.2,26.3,161.2,26.3,161.4,26.3L161.4,26.3L161.4,26.3L161.4,26.3z"/>
	<path class="st1" d="M164.1,25.4c0.1,0.5,0,0.9-0.3,1.3l0,0l0.1,0.1c0.4-0.4,0.5-0.9,0.4-1.5c0-0.2-0.1-0.4-0.2-0.5
		c0,0-0.1,0.1-0.2,0.1C164,25.1,164.1,25.2,164.1,25.4z"/>
	<path class="st1" d="M163.8,26.7c-0.2,0.2-0.5,0.4-0.8,0.4c-0.7,0.2-1.4-0.2-1.6-0.8h-0.1h-0.1c0.3,0.8,1.1,1.2,1.9,1
		c0.3-0.1,0.6-0.3,0.8-0.5C163.9,26.8,163.9,26.7,163.8,26.7L163.8,26.7z"/>
	<path class="st1" d="M163.6,25.5c0.1,0.3,0,0.6-0.3,0.9c0.1,0,0.2,0.1,0.2,0.1c0.2-0.3,0.4-0.7,0.3-1.1c0-0.1-0.1-0.3-0.1-0.4
		c-0.1,0.1-0.1,0.1-0.2,0.2C163.6,25.3,163.6,25.4,163.6,25.5z"/>
	<path class="st1" d="M161.8,25.9c-0.1-0.5,0.2-1,0.7-1.1c0.3-0.1,0.6,0,0.8,0.2c0.1-0.1,0.1-0.1,0.2-0.2c-0.3-0.2-0.7-0.3-1-0.2
		c-0.6,0.1-1.1,0.8-0.9,1.4c0,0.1,0.1,0.2,0.1,0.3h0.3C161.9,26.2,161.8,26,161.8,25.9z"/>
	<path class="st1" d="M162.9,26.6c-0.4,0.1-0.7-0.1-1-0.3h-0.3c0.2,0.5,0.8,0.7,1.3,0.6c0.3-0.1,0.5-0.2,0.6-0.4
		c-0.1-0.1-0.2-0.1-0.2-0.1C163.3,26.5,163.1,26.6,162.9,26.6z"/>
	<polygon class="st1" points="169.9,24.2 170,24.2 170,24.2 169.9,24.1 	"/>
	<polygon class="st1" points="169.7,23.4 169.8,23.4 169.8,23.4 	"/>
	<polygon class="st1" points="169.6,23 169.6,23 169.6,23 	"/>
	<path class="st1" d="M165.5,23.6l-0.4,0.2c-0.3,0.2-0.7,0.3-1,0.6c0,0-0.1,0.1-0.2,0.2c0.1,0.1,0.1,0.1,0.2,0.2
		c0.1-0.1,0.3-0.2,0.3-0.2c0.4-0.2,0.8-0.4,1.2-0.6h0.1c0.1-0.1,0.3-0.2,0.4-0.3c-0.1-0.1-0.2-0.1-0.2-0.2
		C165.7,23.5,165.6,23.5,165.5,23.6z"/>
	<path class="st1" d="M163.9,24.9c0.1,0,0.1-0.1,0.2-0.1c-0.1-0.1-0.1-0.1-0.2-0.2c0,0-0.1,0.1-0.2,0.1
		C163.8,24.7,163.9,24.8,163.9,24.9z"/>
	<path class="st1" d="M163.7,25c0.1-0.1,0.1-0.1,0.2-0.2c-0.1-0.1-0.1-0.1-0.2-0.2c-0.1,0.1-0.1,0.1-0.2,0.2
		C163.6,24.9,163.7,24.9,163.7,25z"/>
	<path class="st1" d="M163.5,24.8c-0.1,0.1-0.1,0.1-0.2,0.2c0.1,0.1,0.1,0.1,0.2,0.2c0.1-0.1,0.1-0.1,0.2-0.2
		C163.7,24.9,163.6,24.9,163.5,24.8z"/>
	<path class="st1" d="M163.1,25.2c-0.1-0.1-0.3-0.1-0.5-0.1c-0.3,0.1-0.5,0.4-0.5,0.7c0,0.2,0.2,0.4,0.4,0.4h0.4c0,0,0,0,0.1,0
		c0.3-0.1,0.4-0.4,0.4-0.7l-0.1-0.1l0,0c0.1-0.1,0.1-0.1,0.2-0.2c0-0.1-0.1-0.1-0.2-0.2C163.2,25.1,163.1,25.2,163.1,25.2
		L163.1,25.2z"/>
	<path class="st1" d="M162.9,26.3L162.9,26.3L162.9,26.3h-0.4C162.6,26.3,162.7,26.3,162.9,26.3z"/>
	<circle class="st1" cx="169.1" cy="19" r="0.3"/>
</g>
</svg>
