<?xml version="1.0" encoding="utf-8"?>
<!-- Generator: Adobe Illustrator 24.0.1, SVG Export Plug-In . SVG Version: 6.00 Build 0)  -->
<svg version="1.1" id="Camada_1" xmlns="http://www.w3.org/2000/svg" xmlns:xlink="http://www.w3.org/1999/xlink" x="0px" y="0px"
	 viewBox="0 0 219 219" style="enable-background:new 0 0 219 219;" xml:space="preserve">
<style type="text/css">
	.st0{fill:#BE1B2E;}
	.st1{fill:#FFFFFF;}
</style>
<path class="st0" d="M208.9,0H10.1C4.5,0,0,4.5,0,10.1V209c0,5.5,4.5,10,10.1,10H209c5.6,0,10.1-4.5,10.1-10.1V10.1
	C219,4.5,214.5,0,208.9,0z M215,208.9c0,3.3-2.7,6-6,6h-142l-13-20.2c-1.6-2.5-4.1-4.3-7-5L4,179.7V10.1c0-3.3,2.7-6,6-6h114.3
	l19.2,29.9c2.3,3.5,5.8,6,9.9,7L215,55.3L215,208.9L215,208.9z"/>
<g>
	<g>
		<path class="st1" d="M192.8,26.3c-0.3-0.6-0.8-1.1-1.4-1.4c-0.6-0.4-1.5-0.6-2.5-0.7c-0.2,0-0.5,0-0.7,0c-0.9,0-1.9,0.2-3,0.5
			l-0.1,14.7l3-0.1L188,34c0-0.1,0.1-0.2,0.1-0.2c0,0,0.1,0,0.1,0c0,0,0,0,0,0c0,0,0,0,0.1,0c0.1,0,0.3,0.1,0.3,0.2l1.9,5.1l3-0.3
			l-2.4-5.8c0-0.1,0-0.1,0-0.2l0-0.1c0-0.1,0-0.2,0.1-0.2c0.7-0.5,1.3-1.1,1.7-1.9c0.4-0.8,0.5-1.8,0.5-2.9c0-0.1,0-0.3,0-0.4
			C193.1,27.1,193,26.7,192.8,26.3z M188.2,31.3c-0.1-0.1-0.1-0.1-0.1-0.2l0-0.1c0,0,0-0.1,0-0.1l0.1-3.7c0-0.1,0.1-0.2,0.1-0.2
			c0.4-0.1,0.7-0.1,1,0c0.4,0,0.7,0.1,0.9,0.3c0.5,0.3,0.8,0.6,0.9,1.1c0.1,0.5,0.1,0.9,0,1.4c-0.2,0.5-0.5,0.9-0.9,1.2
			c-0.4,0.3-0.9,0.4-1.6,0.5c-0.1,0-0.1,0-0.2,0C188.3,31.4,188.2,31.4,188.2,31.3z"/>
	</g>
	<path class="st1" d="M174.3,7.3C174.3,7.3,174.3,7.3,174.3,7.3C174.3,7.3,174.3,7.3,174.3,7.3z"/>
	<path class="st1" d="M177.2,22.4C177.2,22.4,177.2,22.4,177.2,22.4C177.2,22.4,177.2,22.4,177.2,22.4z"/>
	<path class="st1" d="M177.1,22.5C177.1,22.5,177.1,22.5,177.1,22.5C177.1,22.5,177.1,22.5,177.1,22.5z"/>
	<path class="st1" d="M177.2,22.4C177.2,22.4,177.2,22.4,177.2,22.4C177.2,22.4,177.2,22.4,177.2,22.4z"/>
	<path class="st1" d="M177.2,22.4C177.2,22.4,177.2,22.4,177.2,22.4C177.2,22.4,177.2,22.4,177.2,22.4z"/>
	<path class="st1" d="M167.4,9.8C167.4,9.8,167.4,9.8,167.4,9.8C167.4,9.8,167.4,9.8,167.4,9.8z"/>
	<path class="st1" d="M167.4,9.8C167.4,9.8,167.4,9.8,167.4,9.8C167.4,9.8,167.4,9.8,167.4,9.8z"/>
	<path class="st1" d="M167.5,9.8C167.5,9.8,167.5,9.8,167.5,9.8C167.5,9.8,167.5,9.8,167.5,9.8z"/>
	<path class="st1" d="M167.3,9.8C167.3,9.8,167.3,9.8,167.3,9.8C167.3,9.8,167.3,9.8,167.3,9.8z"/>
	<path class="st1" d="M167.4,9.8C167.4,9.8,167.4,9.8,167.4,9.8C167.4,9.8,167.4,9.8,167.4,9.8z"/>
	<path class="st1" d="M167.4,9.8C167.4,9.8,167.4,9.8,167.4,9.8C167.4,9.8,167.4,9.8,167.4,9.8z"/>
	<path class="st1" d="M171.6,23.5l3.9-1.6l-0.5-5.2L174.2,8l-3.3,0.8l1.1,8.8c0,0.1-0.1,0.3-0.2,0.3c0,0,0,0,0,0
		c-0.1,0-0.3,0-0.4-0.1l-0.1-0.2c0,0,0,0,0,0l-3.9-7.1l-2.6,1.4L171.6,23.5z"/>
	<g>
		<path class="st1" d="M176.4,8.6c-0.1,0.7-0.1,1.6-0.2,2.6c0,0.9,0,1.9,0,2.9c0,1,0.1,2,0.3,2.8c0.2,0.9,0.4,1.7,0.8,2.4
			c0.3,0.7,0.8,1.2,1.4,1.6c0.4,0.2,0.9,0.4,1.4,0.5c0.2,0,0.4,0,0.6,0c1.1-0.1,2-0.4,2.7-1c0.7-0.6,1.2-1.3,1.6-2.1
			c0.4-0.9,0.6-1.9,0.8-2.9c0.1-1.1,0.2-2.2,0.2-3.3c0-1.1,0-2.1,0-3.2c0-0.6,0-1,0-1.4l-3.2,0.3c0,0.1,0,0.3,0,0.5
			c0.1,0.7,0.1,1.4,0.1,2.1c0,0.8,0.1,1.7,0.1,2.6c0,1,0,1.8-0.1,2.6c-0.1,0.8-0.2,1.5-0.5,2.1c-0.3,0.6-0.6,1-1.2,1c0,0,0,0,0,0
			c-0.4,0-0.9-0.1-1.2-0.9c-0.1-0.3-0.2-0.6-0.3-1c-0.1-0.3-0.1-0.7-0.2-1.1c-0.1-0.8-0.1-1.6,0-2.5c0.1-1,0.1-1.8,0.2-2.6
			c0.1-0.7,0.2-1.5,0.2-2.2c0-0.2,0-0.4,0.1-0.5l-3.5,0.1C176.4,8.1,176.4,8.3,176.4,8.6z"/>
	</g>
	<path class="st1" d="M195,15.9C195,15.9,195.1,15.9,195,15.9c0.2,0.1,0.3,0.2,0.3,0.4l-1,5.1l3,0.3l2.4-13.4l-2.8-0.4l-3.4,6.4
		c-0.1,0.1-0.2,0.2-0.3,0.2c0,0,0,0,0,0c-0.1,0-0.2-0.1-0.2-0.2l-1.1-6.8l-2.9-0.1l-2.3,13.4l3,0.3l0.8-5.5c0-0.1,0.1-0.1,0.2-0.1
		c0,0,0.1,0,0.1,0c0,0,0,0,0,0c0,0,0,0,0,0c0.1,0,0.2,0.1,0.3,0.2l0.5,3.1l1.5,0.2l1.6-2.9c0-0.1,0.1-0.1,0.2-0.1
		C194.9,15.9,194.9,15.9,195,15.9C195,15.9,195,15.9,195,15.9z"/>
	<g>
		<path class="st1" d="M203.5,18.2c0.9,0.6,2,1.3,3.6,1.1c1.3-0.7,2-1.3,2-1.9c0,0,0,0,0,0c0.1-0.6-0.3-1.4-1.3-2.5
			c-1.4-0.7-2.7-0.4-3.7-0.1c-1.1,0.3-2.1,0.5-2.9-0.5c0.2,0.6,0.3,1.2,0.2,1.8c-0.1,0.6-0.5,1.1-0.8,1.7
			C201.7,17.1,202.5,17.6,203.5,18.2z"/>
		<path class="st1" d="M200.3,21.1c0.6,0.3,1.4,0.2,2.7-0.1c0.6-0.2,1.3-0.4,2.1-0.7c0.6-0.2,1.1-0.4,1.6-0.7
			c-1.5,0.1-2.5-0.6-3.4-1.2c-1.3-0.8-2.1-1.4-3.7,0.7C199.4,19.9,199.6,20.8,200.3,21.1z"/>
		<path class="st1" d="M200.7,12.7c0.8,2.5,1.8,2.2,3.3,1.9c1-0.3,2.2-0.6,3.6,0c-0.4-0.3-0.8-0.7-1.3-1.1c-0.7-0.6-1.3-1-1.8-1.4
			c-1.1-0.7-1.9-1-2.5-1C201.1,11.2,200.7,12,200.7,12.7z"/>
	</g>
	<g>
		<path class="st1" d="M183.2,26.7c-0.4-0.9-1-1.6-1.8-2.1c-0.7-0.5-1.6-0.7-2.6-0.6c-0.1,0-0.2,0-0.2,0c-1.2,0.1-2.2,0.5-3.1,1.1
			c-0.9,0.6-1.6,1.4-2.2,2.4c-0.6,1-1,2-1.2,3.1c-0.2,1.1-0.3,2.3-0.2,3.4c0.1,1.1,0.4,2.1,0.8,3c0.4,0.9,1,1.6,1.8,2.1
			c0.6,0.4,1.2,0.6,2,0.7c0.2,0,0.4,0,0.7,0c1.2,0,2.3-0.4,3.2-1c0.9-0.6,1.7-1.4,2.2-2.4c0.6-1,1-2.1,1.2-3.3
			c0.2-1.2,0.3-2.4,0.2-3.5c0-0.3-0.1-0.5-0.1-0.7C183.8,28.1,183.5,27.3,183.2,26.7z M179.3,35.8c-0.4,0.5-0.8,0.9-1.3,1
			c0,0,0,0,0,0c-0.1,0-0.1,0-0.2,0c-0.5,0-0.9-0.2-1.2-0.6c-0.3-0.4-0.5-1-0.7-1.7c0-0.1,0-0.2,0-0.3c-0.1-0.6-0.2-1.4-0.1-2.1
			c0-0.8,0.1-1.5,0.3-2.3c0.2-0.7,0.5-1.3,0.8-1.8c0.4-0.5,0.8-0.8,1.4-0.9c0,0,0.1,0,0.1,0c0.1,0,0.2,0,0.3,0
			c0.5,0,0.9,0.3,1.1,0.7c0.3,0.4,0.5,1,0.6,1.7c0.1,0.7,0.1,1.4,0.1,2.2c0,0.8-0.2,1.5-0.4,2.3C179.9,34.7,179.6,35.3,179.3,35.8z"
			/>
	</g>
	<path class="st1" d="M193.1,39.2C193.1,39.2,193.1,39.2,193.1,39.2C193.1,39.2,193.1,39.2,193.1,39.2z"/>
	<path class="st1" d="M193.2,39.3C193.2,39.3,193.2,39.3,193.2,39.3C193.2,39.3,193.2,39.3,193.2,39.3z"/>
	<path class="st1" d="M193.1,39.2C193.1,39.2,193.1,39.2,193.1,39.2C193.1,39.2,193.1,39.2,193.1,39.2z"/>
	<path class="st1" d="M196,30l-2.1,9.1l3.4,0.3l0.7-3.1c0-0.1,0.1-0.1,0.2-0.1l0,0l2-0.1c0,0,0.1,0,0.1,0c0.1,0,0.1,0,0.1,0
		c0.2,0,0.3,0.1,0.3,0.3l0.2,2.8l3.2-0.5l-1.7-14.4l-4.9,0.3L196,30z M198.6,33l0.8-2.9c0-0.1,0.1-0.1,0.2-0.1c0,0,0.1,0,0.1,0
		c0,0,0.1,0,0.1,0c0,0,0,0,0,0c0.2,0,0.3,0.1,0.3,0.3l0.3,2.9c0,0.1,0,0.2-0.1,0.3c-0.1,0.1-0.1,0.1-0.2,0.1c0,0-1.1,0-1.1,0
		c-0.1,0-0.2,0-0.3-0.1c-0.1-0.1-0.1-0.2-0.1-0.3c0,0,0,0,0,0C198.6,33.1,198.6,33.1,198.6,33z"/>
	<path class="st1" d="M209.3,23.2C209.3,23.2,209.3,23.3,209.3,23.2C209.3,23.3,209.3,23.2,209.3,23.2z"/>
	<path class="st1" d="M209.3,23.2C209.3,23.2,209.3,23.2,209.3,23.2C209.3,23.2,209.3,23.2,209.3,23.2z"/>
	<polygon class="st1" points="205.6,34.3 208.1,34.2 209,23.9 205.6,24.1 	"/>
	<path class="st1" d="M207.8,35.6c-0.3-0.2-0.6-0.3-0.9-0.3c-0.1,0-0.2,0-0.3,0c-0.5,0.1-0.8,0.4-1.2,0.8c-0.3,0.5-0.4,0.9-0.4,1.4
		c0.1,0.5,0.3,0.9,0.6,1.2c0.2,0.1,0.4,0.2,0.6,0.3c0.2,0,0.3,0,0.5,0c0.5-0.1,0.9-0.4,1.3-0.9c0.3-0.5,0.4-1,0.4-1.5c0,0,0,0,0,0
		C208.3,36.1,208.1,35.8,207.8,35.6z"/>
	<g>
		<path class="st1" d="M170.9,26.1c-0.2-0.6-0.7-1.2-1.3-1.6c-0.6-0.4-1.6-0.7-2.7-0.8c-0.3,0-0.6,0-0.9,0c-1,0-2.1,0.2-3.4,0.5
			l-0.1,14.8c0.4,0.1,0.7,0.1,1.1,0.2c1.2,0.1,2.2,0.1,3,0c1.2-0.2,2.2-0.6,2.8-1.1c0.7-0.5,1.1-1.2,1.4-1.8
			c0.3-0.7,0.3-1.4,0.3-2.1c0-0.1,0-0.1,0-0.2c-0.1-0.5-0.3-1-0.5-1.3c-0.3-0.5-0.7-0.8-1.1-0.9c-0.1,0-0.2-0.2-0.2-0.3
			c0,0,0-0.1,0-0.1c0,0,0-0.1,0-0.1c0-0.1,0-0.1,0.1-0.2c0.5-0.3,0.9-0.7,1.2-1.2c0.3-0.6,0.5-1.2,0.6-1.9c0-0.4,0-0.8,0-1.2
			C171.1,26.6,171,26.4,170.9,26.1z M165.5,32.9c0-0.1,0.1-0.2,0.2-0.2l0.1,0c0.3,0,0.5,0,0.7,0c0.6,0,1,0.2,1.3,0.5
			c0.4,0.4,0.7,0.9,0.7,1.4c0,0.5-0.3,1-0.7,1.4c-0.4,0.3-1,0.5-1.7,0.5c-0.1,0-0.2,0-0.3,0c-0.1,0-0.2,0-0.2-0.1
			c-0.1-0.1-0.1-0.1-0.1-0.2l0-0.1c0,0,0-0.1,0-0.1L165.5,32.9z M168.5,29.3c-0.1,0.5-0.4,0.9-0.9,1.2c-0.4,0.3-1,0.5-1.6,0.5
			c0,0,0,0-0.1,0c-0.1,0-0.2,0-0.2-0.1c-0.1-0.1-0.1-0.1-0.1-0.2l0-0.1c0,0,0-0.1,0-0.1l0-3.7c0-0.1,0.1-0.1,0.1-0.2
			c0.4-0.1,0.7-0.1,1,0c0.3,0,0.6,0.1,0.8,0.2c0.4,0.2,0.7,0.6,0.9,1.1C168.7,28.4,168.7,28.9,168.5,29.3z"/>
	</g>
</g>
</svg>
