<?xml version="1.0" encoding="utf-8"?>
<!-- Generator: Adobe Illustrator 24.0.1, SVG Export Plug-In . SVG Version: 6.00 Build 0)  -->
<svg version="1.1" id="Camada_1" xmlns="http://www.w3.org/2000/svg" xmlns:xlink="http://www.w3.org/1999/xlink" x="0px" y="0px"
	 viewBox="0 0 219 219" style="enable-background:new 0 0 219 219;" xml:space="preserve">
<style type="text/css">
	.st0{fill:#BE1B2E;}
	.st1{fill:#FFFFFF;}
</style>
<path class="st0" d="M208.9,0H10.1C4.5,0,0,4.5,0,10.1V209c0,5.5,4.5,10,10.1,10H209c5.6,0,10.1-4.5,10.1-10.1V10.1
	C219,4.5,214.5,0,208.9,0z M215,208.9c0,3.3-2.7,6-6,6h-142l-13-20.2c-1.6-2.5-4.1-4.3-7-5L4,179.7V10.1c0-3.3,2.7-6,6-6h114.3
	l19.2,29.9c2.3,3.5,5.8,6,9.9,7L215,55.3L215,208.9L215,208.9z"/>
<g>
	<g>
		<path class="st1" d="M153.3,21C153.3,21,153.3,21,153.3,21c0.3,0.1,0.5,0.1,0.7,0.1c1.3,0,2.4-0.8,3.3-2.3v1.7
			c-1,1.1-2.1,1.6-3.5,1.6c-1.4,0-2.5-0.4-3.3-1.3c-0.7-0.8-1.1-1.9-1.1-3.4c0-1.3,0.3-2.4,0.9-3.2c0.7-0.9,1.6-1.4,2.9-1.5V21z
			 M157.4,17.3h-3.2v-4.4c1.2,0.1,2.1,0.5,2.6,1.4C157.1,14.9,157.4,15.9,157.4,17.3z"/>
		<path class="st1" d="M160.6,13c-0.2,0.1-0.3,0.3-0.3,0.5c0,0.2,0.1,0.4,0.3,0.7c0.1,0.1,0.1,0.1,0.1,0.1l3.6,3.7
			c0.6,0.6,0.9,1.3,0.9,2c0,1.4-0.9,2-2.6,2c0,0-0.1,0-0.2,0c-0.1,0-0.2,0-0.2,0c0.2-0.1,0.3-0.3,0.3-0.5c0-0.2-0.1-0.4-0.3-0.7
			c0,0-0.1-0.1-0.1-0.1l-3.4-3.7c-0.4-0.4-0.6-0.9-0.6-1.6c0-0.7,0.2-1.2,0.6-1.7c0.4-0.5,1-0.7,1.7-0.7H160.6z M161.9,22h-3.7v-4
			L161.9,22z M164.5,16.8l-3.6-3.8h3.6V16.8z"/>
		<path class="st1" d="M169.6,37.1h-3.5V13h3.5V37.1z M170.6,22v-9c1.3,0.1,2.3,0.6,2.9,1.4c0.7,0.8,1,1.8,1,3.1
			c0,1.3-0.3,2.3-1,3.1C172.8,21.4,171.9,21.8,170.6,22z"/>
		<path class="st1" d="M178.9,21C178.9,21,178.9,21,178.9,21c0.3,0.1,0.5,0.1,0.7,0.1c1.3,0,2.4-0.8,3.3-2.3v1.7
			c-1,1.1-2.1,1.6-3.5,1.6c-1.4,0-2.5-0.4-3.3-1.3c-0.7-0.8-1.1-1.9-1.1-3.4c0-1.3,0.3-2.4,0.9-3.2c0.7-0.9,1.6-1.4,2.9-1.5V21z
			 M182.9,17.3h-3.2v-4.4c1.2,0.1,2.1,0.5,2.6,1.4C182.7,14.9,182.9,15.9,182.9,17.3z"/>
		<path class="st1" d="M187.6,21c0.1,0,0.3,0,0.5,0c1.4,0,2.5-0.7,3.4-2.2v1.7c-1,1-2.3,1.6-3.8,1.6c-1.4,0-2.4-0.4-3.2-1.3
			c-0.7-0.8-1.1-1.9-1.1-3.3c0-1.4,0.3-2.4,1-3.2c0.7-0.8,1.8-1.3,3.1-1.3V21z M191.6,16.6L188,13h3.6V16.6z"/>
		<path class="st1" d="M196,10.8c0,0.5-0.2,0.9-0.6,1.2c-0.4,0.3-0.8,0.4-1.3,0.4c-0.5,0-0.9-0.1-1.3-0.4c-0.4-0.3-0.6-0.7-0.6-1.2
			c0-0.5,0.2-0.9,0.6-1.2c0.4-0.3,0.8-0.4,1.3-0.4c0.5,0,0.9,0.1,1.3,0.4C195.8,9.9,196,10.3,196,10.8z M195.9,22h-3.5v-9h3.5V22z"
			/>
		<path class="st1" d="M200.1,21.9c-0.1,0-0.3,0-0.5,0c-2.1,0-3.1-0.8-3.1-2.5c0-1.7,1-2.5,3.1-2.5c0.2,0,0.4,0,0.5,0V21.9z
			 M197,14.8c0-0.5,0.2-0.9,0.5-1.3c0.3-0.3,0.8-0.5,1.3-0.5c0.5,0,0.9,0.2,1.3,0.5c0.3,0.3,0.5,0.8,0.5,1.3c0,0.5-0.2,0.9-0.5,1.3
			c-0.3,0.4-0.8,0.5-1.3,0.5c-0.5,0-0.9-0.2-1.3-0.5C197.2,15.7,197,15.3,197,14.8z M201.2,22v-6.4c0-0.6-0.1-1.1-0.2-1.4
			c-0.2-0.4-0.5-0.8-0.9-1.1c0.7-0.1,1.2-0.2,1.5-0.2c2,0,2.9,1.1,2.9,3.3V22H201.2z"/>
		<path class="st1" d="M209.3,22h-3.5V9.4h3.5V22z"/>
	</g>
	<g>
		<path class="st1" d="M151.8,25.9v5.5c-0.8-0.1-1.4-0.4-1.8-0.9c-0.4-0.5-0.6-1.1-0.6-1.9c0-0.8,0.2-1.4,0.6-1.9
			C150.4,26.3,151,26,151.8,25.9z M152.4,23.7h2.1v7.7h-2.1V23.7z"/>
		<path class="st1" d="M157.2,31.4c-0.1,0-0.2,0-0.3,0c-1.3,0-1.9-0.5-1.9-1.5c0-1,0.6-1.6,1.9-1.6c0.1,0,0.2,0,0.3,0V31.4z
			 M155.2,27c0-0.3,0.1-0.6,0.3-0.8c0.2-0.2,0.5-0.3,0.8-0.3c0.3,0,0.6,0.1,0.8,0.3c0.2,0.2,0.3,0.5,0.3,0.8c0,0.3-0.1,0.6-0.3,0.8
			c-0.2,0.2-0.5,0.3-0.8,0.3c-0.3,0-0.6-0.1-0.8-0.3C155.3,27.6,155.2,27.3,155.2,27z M157.8,31.4v-4c0-0.4,0-0.7-0.1-0.9
			c-0.1-0.3-0.3-0.5-0.6-0.7c0.4-0.1,0.7-0.1,0.9-0.1c1.2,0,1.8,0.7,1.8,2.1v3.6H157.8z"/>
		<path class="st1" d="M162.1,25.9c-0.1,0.1-0.2,0.2-0.2,0.3c0,0.1,0.1,0.3,0.2,0.4c0,0,0.1,0.1,0.1,0.1l2.2,2.3
			c0.4,0.4,0.6,0.8,0.6,1.2c0,0.8-0.5,1.3-1.6,1.3c0,0-0.1,0-0.1,0c-0.1,0-0.1,0-0.1,0c0.1-0.1,0.2-0.2,0.2-0.3
			c0-0.1-0.1-0.3-0.2-0.4c0,0,0,0-0.1-0.1l-2.1-2.3c-0.2-0.3-0.3-0.6-0.3-1c0-0.4,0.1-0.8,0.4-1.1c0.3-0.3,0.6-0.4,1-0.4H162.1z
			 M163,31.5h-2.3V29L163,31.5z M164.6,28.3l-2.2-2.4h2.2V28.3z"/>
	</g>
	<path class="st1" d="M174.3,23.9c-0.3,0.2-0.4,0.4-0.4,0.7c0,0.3,0.2,0.6,0.5,1c0.1,0.1,0.1,0.1,0.1,0.2l4.9,5.5
		c0.8,1,1.3,1.9,1.3,3c0,2-1.2,3-3.6,3c-0.1,0-0.2,0-0.3,0c-0.1,0-0.2,0-0.3,0c0.2-0.2,0.4-0.4,0.4-0.7c0-0.3-0.2-0.6-0.5-1
		c0,0-0.1-0.1-0.1-0.1l-4.7-5.5c-0.5-0.6-0.8-1.4-0.8-2.4c0-1,0.3-1.8,0.9-2.5c0.6-0.7,1.3-1,2.3-1H174.3z M176.1,37.1h-5v-5.8
		L176.1,37.1z M179.7,29.5l-4.9-5.6h4.9V29.5z"/>
	<path class="st1" d="M186.1,35.7C186.1,35.7,186.1,35.7,186.1,35.7c0.4,0.1,0.8,0.1,1,0.1c1.9,0,3.4-1.2,4.7-3.5v2.6
		c-1.4,1.6-3,2.4-4.9,2.4c-2,0-3.6-0.6-4.7-1.9c-1-1.2-1.6-2.9-1.6-5.1c0-2,0.4-3.6,1.3-4.9c1-1.4,2.3-2.1,4.1-2.2V35.7z M191.9,30
		h-4.5v-6.7c1.7,0.1,3,0.8,3.7,2.1C191.6,26.4,191.9,27.9,191.9,30z"/>
	<path class="st1" d="M202.8,23.4c-0.3,0.2-0.4,0.4-0.4,0.7c0,0.3,0.2,0.6,0.5,1c0.1,0.1,0.1,0.1,0.1,0.2l5.1,5.7c0.9,1,1.3,2,1.3,3
		c0,2.1-1.2,3.1-3.7,3.1c-0.1,0-0.2,0-0.3,0c-0.1,0-0.2,0-0.3,0c0.3-0.2,0.4-0.4,0.4-0.7c0-0.3-0.2-0.6-0.5-1c0,0-0.1-0.1-0.1-0.1
		l-4.9-5.7c-0.5-0.6-0.8-1.4-0.8-2.5c0-1,0.3-1.9,0.9-2.6c0.6-0.7,1.4-1.1,2.3-1.1H202.8z M204.6,37.1h-5.2v-6L204.6,37.1z
		 M208.4,29.3l-5.1-5.8h5.1V29.3z"/>
	<rect x="193" y="28.8" class="st1" width="4.9" height="8.3"/>
	<path class="st1" d="M198.1,25.4c0,0.7-0.3,1.3-0.9,1.8c-0.5,0.5-1.1,0.7-1.8,0.7c-0.7,0-1.3-0.2-1.8-0.7c-0.6-0.5-0.8-1.1-0.8-1.8
		c0-0.7,0.3-1.3,0.9-1.8c0.5-0.4,1.1-0.6,1.8-0.6c0.7,0,1.3,0.2,1.8,0.6C197.8,24.1,198.1,24.7,198.1,25.4z"/>
</g>
</svg>
