<?xml version="1.0" encoding="utf-8"?>
<!-- Generator: Adobe Illustrator 24.0.1, SVG Export Plug-In . SVG Version: 6.00 Build 0)  -->
<svg version="1.1" id="Camada_1" xmlns="http://www.w3.org/2000/svg" xmlns:xlink="http://www.w3.org/1999/xlink" x="0px" y="0px"
	 viewBox="0 0 219 219" style="enable-background:new 0 0 219 219;" xml:space="preserve">
<style type="text/css">
	.st0{fill:#BE1B2E;}
	.st1{fill:#FFFFFF;}
</style>
<path class="st0" d="M208.9,0H10.1C4.5,0,0,4.5,0,10.1V209c0,5.5,4.5,10,10.1,10H209c5.6,0,10.1-4.5,10.1-10.1V10.1
	C219,4.5,214.5,0,208.9,0z M215,208.9c0,3.3-2.7,6-6,6h-142l-13-20.2c-1.6-2.5-4.1-4.3-7-5L4,179.7V10.1c0-3.3,2.7-6,6-6h114.3
	l19.2,29.9c2.3,3.5,5.8,6,9.9,7L215,55.3L215,208.9L215,208.9z"/>
<g>
	<path class="st1" d="M200.6,19.6c-0.3-0.5-0.6-0.9-1-1.2c-0.8-0.6-1.6-0.9-2.5-0.9H194c-0.6,0-1,0.1-1.1,0.4
		c-0.1,0.1-0.1,0.3-0.1,0.4c0,0.1,0,0.3,0,0.5v8c0,0.3,0,0.6,0.1,0.8c0.1,0.4,0.5,0.5,1.2,0.5c0.6,0,1-0.1,1.1-0.4
		c0.1-0.1,0.1-0.3,0.1-0.4c0-0.1,0-0.3,0-0.5v-1.6h1.8c0.9,0,1.7-0.3,2.5-0.9c0.4-0.3,0.7-0.7,1-1.2c0.3-0.5,0.4-1.1,0.4-1.7
		C200.9,20.7,200.8,20.1,200.6,19.6z M197.4,22.9c-0.9,0.5-1.6,0.8-2.1,0.7c-0.4-0.1-0.6-0.5-0.5-0.9c0.1-0.5,0.4-0.9,0.5-1.3v-0.2
		c0-0.4-0.4-0.9-0.5-1.3c-0.1-0.4,0.1-0.8,0.5-0.9c0.3-0.1,0.7,0,1.2,0.2c0.3,0.1,0.6,0.3,0.9,0.5c1.1,0.6,1.6,1.1,1.6,1.6
		C199.1,21.8,198.5,22.3,197.4,22.9z"/>
	<g>
		<path class="st1" d="M209.3,22.7c0-0.6-0.1-1-0.4-1.1c0,0-0.1,0-0.1-0.1v2.3C209.2,23.8,209.3,23.4,209.3,22.7z"/>
		<rect x="207.2" y="17.4" class="st1" width="0.4" height="2.6"/>
		<rect x="208" y="17.4" class="st1" width="0.5" height="2.6"/>
		<path class="st1" d="M208.5,24v-2.5c-0.1,0-0.3,0-0.4,0h0V24h0C208.2,24,208.4,24,208.5,24z"/>
		<rect x="206.4" y="17.4" class="st1" width="0.4" height="2.6"/>
		<path class="st1" d="M209.6,25.5L209.6,25.5l0,2.6c0.2,0,0.4,0,0.6,0v-2.5c0,0,0,0-0.1,0C210,25.5,209.9,25.5,209.6,25.5z"/>
		<path class="st1" d="M210.4,19.9c0.3-0.1,0.5-0.5,0.5-1.2c0-0.6-0.1-1-0.4-1.1c0,0-0.1,0-0.1,0V19.9z"/>
		<rect x="208.8" y="17.4" class="st1" width="0.5" height="2.6"/>
		<rect x="207.2" y="21.5" class="st1" width="0.4" height="2.6"/>
		<path class="st1" d="M205.9,25.5h-0.7V24h0.7v-2.6h-0.7V20h0.7v-2.6h-2c-0.5,0-0.9,0.1-1,0.3c-0.2,0.2-0.3,0.5-0.3,1v8
			c0,0.3,0,0.6,0.1,0.7c0.1,0.4,0.5,0.5,1.2,0.5h2V25.5z"/>
		<rect x="208.8" y="25.5" class="st1" width="0.5" height="2.6"/>
		<path class="st1" d="M209.6,20c0.2,0,0.4,0,0.6,0v-2.5c0,0,0,0-0.1,0c-0.1,0-0.3,0-0.5,0h0V20z"/>
		<path class="st1" d="M210.5,25.6C210.5,25.6,210.5,25.6,210.5,25.6l-0.1,2.3c0.3-0.1,0.5-0.5,0.5-1.2
			C210.9,26.1,210.8,25.8,210.5,25.6z"/>
		<rect x="206.4" y="25.5" class="st1" width="0.4" height="2.6"/>
		<rect x="206.4" y="21.5" class="st1" width="0.4" height="2.6"/>
		<rect x="208" y="25.5" class="st1" width="0.5" height="2.6"/>
		<rect x="207.2" y="25.5" class="st1" width="0.4" height="2.6"/>
	</g>
	<g>
		<path class="st1" d="M152.3,21.2c-0.2,0.3-0.4,0.6-0.7,0.9l-3.3-4.3l-0.1-0.1c-0.1-0.1-0.2-0.1-0.4-0.2c-0.2-0.1-0.4-0.1-0.7-0.1
			c-0.6,0-1,0.1-1.1,0.4c-0.1,0.1-0.1,0.3-0.1,0.4c0,0.1,0,0.3,0,0.5v8c0,0.2,0,0.4,0,0.5c0,0.1,0.1,0.2,0.1,0.4
			c0.1,0.3,0.5,0.4,1.1,0.4c0.6,0,1-0.1,1.1-0.4c0.1-0.1,0.1-0.3,0.1-0.4c0-0.1,0-0.3,0-0.5v-4.9c0,0.1,0.4,0.5,0.9,1.3
			c0.6,0.8,0.9,1.3,1.1,1.5l0.1,0.2c0.1,0.1,0.2,0.2,0.4,0.3c0.2,0.1,0.4,0.2,0.6,0.2c0.2,0,0.4-0.1,0.6-0.2c0,0,0.1,0,0.1,0V21.2z"
			/>
		<path class="st1" d="M154.8,17.9c-0.1,0.2-0.3,0.4-0.5,0.6v3.9c0.1-0.2,0.3-0.4,0.4-0.5v4.8c0,0.3,0,0.6,0.1,0.8c0,0,0,0,0,0V17.9
			z"/>
		<path class="st1" d="M153.1,20.1c-0.1,0.2-0.2,0.3-0.4,0.5v4c0,0,0,0,0.1-0.1c0.1-0.1,0.2-0.2,0.3-0.4V20.1z"/>
		<path class="st1" d="M154,19c-0.1,0.2-0.3,0.4-0.4,0.5v4c0-0.1,0.1-0.1,0.1-0.2c0.1-0.1,0.2-0.3,0.3-0.4V19z"/>
		<path class="st1" d="M157.3,18.2c0-0.1-0.1-0.2-0.1-0.4c-0.1-0.1-0.2-0.2-0.4-0.3v10.3c0.3-0.1,0.5-0.5,0.5-1.2v-8
			C157.3,18.5,157.3,18.3,157.3,18.2z"/>
		<path class="st1" d="M156.6,17.5c-0.1,0-0.3,0-0.5,0c0,0,0,0,0,0V28c0,0,0.1,0,0.1,0c0.2,0,0.3,0,0.5,0V17.5z"/>
		<path class="st1" d="M155.7,17.5c-0.2,0-0.4,0.1-0.5,0.1v10.3c0.1,0,0.1,0.1,0.2,0.1c0.1,0,0.2,0,0.3,0.1V17.5z"/>
	</g>
	<g>
		<path class="st1" d="M161,17.5c-0.1,0-0.2,0-0.4,0V28c0.1,0,0.3,0,0.4,0V17.5z"/>
		<path class="st1" d="M161.4,17.6v10.2c0.1-0.1,0.1-0.1,0.2-0.2c0.1-0.1,0.1-0.3,0.1-0.4c0-0.1,0-0.3,0-0.5v-8c0-0.3,0-0.6-0.1-0.8
			C161.6,17.8,161.5,17.7,161.4,17.6z"/>
		<path class="st1" d="M160.1,17.5c-0.4,0-0.7,0.2-0.8,0.4c-0.1,0.1-0.1,0.3-0.1,0.4c0,0.1,0,0.3,0,0.5v8c0,0.3,0,0.6,0.1,0.7
			c0.1,0.3,0.4,0.5,0.8,0.5V17.5z"/>
	</g>
	<g>
		<rect x="179.5" y="17.4" class="st1" width="0.4" height="2.1"/>
		<path class="st1" d="M179,17.4h-5.6h-0.7c0,0-0.1,0-0.1,0c-0.2,0-0.6,0-0.9,0.3l-2.7,3.1l-2.7-3.1c-0.3-0.4-0.6-0.6-0.9-0.6
			c-0.3,0-0.6,0.2-0.9,0.5c-0.4,0.3-0.6,0.6-0.6,0.9c0,0.3,0.2,0.6,0.5,0.9l2.9,3.2l-2.9,3.2c-0.3,0.4-0.5,0.7-0.5,0.9
			c0,0.2,0.2,0.5,0.6,0.9c0.4,0.3,0.7,0.5,0.9,0.5c0.2,0,0.5-0.2,0.9-0.6l2.7-3.1l2.7,3.1c0.3,0.4,0.6,0.6,0.9,0.6
			c0.3,0,0.6-0.2,0.9-0.5c0.4-0.3,0.6-0.6,0.6-0.9c0-0.3-0.2-0.6-0.5-0.9l-2.9-3.2l2.9-3.1h2.6v7.2c0,0.2,0,0.4,0,0.5
			c0,0.1,0.1,0.2,0.1,0.4c0.1,0.1,0.2,0.2,0.4,0.3c0.2,0.1,0.4,0.1,0.7,0.1c0.3,0,0.5,0,0.7-0.1c0.2-0.1,0.3-0.2,0.4-0.3
			c0.1-0.1,0.1-0.3,0.1-0.4c0-0.1,0-0.3,0-0.5v-7.3h0.5V17.4z"/>
		<rect x="180.3" y="17.4" class="st1" width="0.4" height="2.1"/>
		<path class="st1" d="M181.5,17.4c-0.1,0-0.2,0-0.2,0h-0.2v2.1h0.2c0.1,0,0.2,0,0.3,0V17.4z"/>
		<path class="st1" d="M182,17.5C181.9,17.5,181.9,17.5,182,17.5l-0.1,1.9c0.1,0,0.1,0,0.1-0.1c0.1-0.1,0.2-0.2,0.2-0.3
			c0-0.1,0.1-0.3,0.1-0.6c0-0.3,0-0.5-0.1-0.6C182.2,17.7,182.1,17.6,182,17.5z"/>
	</g>
	<g>
		<path class="st1" d="M188.8,21.7l-0.4-0.9v5.9l0.3,0.7c0,0.1,0.1,0.1,0.1,0.2V21.7z"/>
		<polygon class="st1" points="187.9,19.9 187.5,19.2 187.5,25.8 187.9,25.8 187.9,25.8 		"/>
		<path class="st1" d="M187.1,18.2c-0.3-0.5-0.6-0.7-1.1-0.7c-0.2,0-0.5,0.1-0.7,0.2c-0.2,0.1-0.4,0.3-0.5,0.5l-3.9,8.1
			c-0.2,0.3-0.2,0.6-0.2,0.7c0,0.3,0.3,0.7,0.8,0.9c0.3,0.2,0.6,0.2,0.8,0.2c0.2,0,0.3,0,0.5-0.1c0.1-0.1,0.2-0.2,0.3-0.3
			c0.1-0.1,0.1-0.2,0.2-0.4l0.8-1.6h3.1V18.2z M185.9,21.7l1,2h-1.9L185.9,21.7z"/>
		<path class="st1" d="M191,26.2l-0.2-0.4v1.9c0.3-0.2,0.5-0.5,0.5-0.7C191.2,26.8,191.1,26.6,191,26.2z"/>
		<path class="st1" d="M190.5,25.2l-0.5-1.1v3.9c0.1,0,0.3-0.1,0.4-0.2c0,0,0.1,0,0.1,0V25.2z"/>
		<path class="st1" d="M189.6,23.5l-0.5-1V28c0.1,0.1,0.3,0.1,0.5,0.1c0,0,0,0,0,0V23.5z"/>
	</g>
</g>
</svg>
