<?xml version="1.0" encoding="utf-8"?>
<!-- Generator: Adobe Illustrator 24.0.1, SVG Export Plug-In . SVG Version: 6.00 Build 0)  -->
<svg version="1.1" id="Camada_1" xmlns="http://www.w3.org/2000/svg" xmlns:xlink="http://www.w3.org/1999/xlink" x="0px" y="0px"
	 viewBox="0 0 219 219" style="enable-background:new 0 0 219 219;" xml:space="preserve">
<style type="text/css">
	.st0{fill:#BE1B2E;}
	.st1{fill:#FFFFFF;}
</style>
<path class="st0" d="M208.9,0H10.1C4.5,0,0,4.5,0,10.1V209c0,5.5,4.5,10,10.1,10H209c5.6,0,10.1-4.5,10.1-10.1V10.1
	C219,4.5,214.5,0,208.9,0z M215,208.9c0,3.3-2.7,6-6,6h-142l-13-20.2c-1.6-2.5-4.1-4.3-7-5L4,179.7V10.1c0-3.3,2.7-6,6-6h114.3
	l19.2,29.9c2.3,3.5,5.8,6,9.9,7L215,55.3L215,208.9L215,208.9z"/>
<g>
	<path class="st1" d="M170.6,21.7c-0.1,0-0.1-0.1-0.2-0.1c-0.1,0-0.2,0-0.2,0c-0.1,0-0.1,0-0.2-0.1c0,0,0-0.1,0-0.3
		c0-0.2,0-0.4,0-0.7c0-0.2,0-0.5,0-0.7c0-0.2,0-0.4,0-0.4c0-0.2,0.1-0.3,0.2-0.5c0,0,0.1-0.1,0.1-0.1c0,0,0.1-0.1,0.1-0.1
		c0.1-0.1,0.1-0.3,0-0.4c0-0.1,0-0.1-0.1-0.2c-0.1,0-0.1-0.1-0.2-0.1h-0.5c-0.3,0-0.5,0-0.8,0c-0.3,0-0.6,0-0.8,0
		c-0.1,0-0.1,0-0.2,0.1c-0.1,0.1-0.1,0.1-0.1,0.2v0.2c0,0.1,0,0.1,0.1,0.2c0,0,0.1,0.1,0.1,0.1c0,0,0.1,0.1,0.1,0.1
		c0,0,0.1,0.1,0.1,0.2c0,0.1,0,0.1,0.1,0.2c0,0,0,0.1,0,0.2c0,0.5,0,0.9,0,1.4c0,0.5,0,0.9,0,1.4c0,0.1,0,0.2-0.1,0.3
		c-0.1,0.1-0.1,0.1-0.2,0.2l-0.6,0.4l-0.5,0.2l-0.1,0.1c-0.1,0-0.1,0-0.2,0c0,0-0.1-0.1-0.1-0.2v-3.8c0-0.2,0.1-0.4,0.2-0.5
		c0,0,0.1-0.1,0.1-0.1c0,0,0.1-0.1,0.1-0.1c0,0,0-0.1,0-0.1c0,0,0-0.1,0-0.1v-0.2c0-0.2-0.1-0.3-0.3-0.3c-0.4,0-0.7,0-1.1,0
		c-0.4,0-0.7,0-1.1,0h0c-0.1,0-0.1,0-0.2,0.1c-0.1,0.1-0.1,0.1-0.1,0.2c0,0.1,0,0.1,0,0.2c0,0,0,0.1,0,0.2c0,0.1,0,0.1,0.1,0.1
		c0,0,0.1,0.1,0.1,0.1c0.1,0.1,0.1,0.1,0.2,0.2c0,0.1,0.1,0.1,0.1,0.2c0,0.1,0,0.2,0,0.2v4.2c0,0.1-0.1,0.2-0.2,0.2h-0.4
		c-0.1,0-0.1,0.1-0.2,0.1c0,0.1,0,0.1,0,0.2c0,0.3,0,0.5,0,0.7c0,0.1,0,0.3,0,0.3c0,0.1,0.1,0.1,0.2,0.2c0.1,0,0.2,0.1,0.3,0.1
		c0.1,0,0.1,0,0.2,0c0,0,0.1,0.1,0.1,0.1c0,0.1,0,0.2,0,0.3c0,0.1,0,0.1,0,0.2c0,0,0,0.1,0,0.2v1c0,0.1,0,0.1,0,0.3
		c0,0.1,0,0.2,0,0.4c0,0.1,0,0.2,0,0.4c0,0.1,0,0.2,0,0.2c0,0.1,0,0.2-0.1,0.2c0,0.1-0.1,0.1-0.1,0.1c0,0-0.1,0.1-0.1,0.1
		c0,0-0.1,0.1-0.1,0.2c-0.1,0.1-0.1,0.2-0.1,0.4c0,0.1,0.1,0.2,0.2,0.3c0,0,0.1,0,0.2,0c0.1,0,0.2,0,0.3,0c0.1,0,0.2,0,0.3,0
		c0.1,0,0.2,0,0.2,0c0.1,0,0.1,0,0.2,0c0.1,0,0.1,0,0.2,0h0.5c0.2,0,0.3,0,0.4,0c0.1,0,0.2-0.1,0.2-0.3c0-0.1,0-0.2,0-0.2
		c0-0.1-0.1-0.1-0.1-0.2c-0.1-0.1-0.2-0.2-0.3-0.3c-0.1-0.1-0.1-0.2-0.1-0.4c0-0.2,0-0.4,0-0.6c0-0.2,0-0.4,0-0.6v-0.4
		c0,0,0-0.1,0-0.1c0,0,0-0.1,0-0.1c0,0,0,0,0-0.1c0,0,0,0,0-0.1v-1.1c0-0.1,0-0.2,0.1-0.2c0,0,0.1-0.1,0.2-0.1
		c0.1-0.1,0.3-0.1,0.4-0.2c0.1-0.1,0.2-0.1,0.4-0.2c0,0,0.1,0,0.1-0.1c0,0,0.1-0.1,0.1-0.1l0.3-0.1c0.1,0,0.1,0,0.2,0
		c0,0,0.1,0.1,0.1,0.2V31c0,0.1,0,0.2,0,0.2c0,0-0.1,0.1-0.1,0.2c0,0.1-0.1,0.1-0.1,0.1c0,0-0.1,0.1-0.1,0.1
		c-0.1,0.1-0.1,0.2-0.1,0.3c0,0.1,0,0.3,0.1,0.3l0.1,0.1c0.1,0,0.3,0,0.4,0c0.2,0,0.3,0,0.5,0c0.1,0,0.3,0,0.4,0c0.1,0,0.3,0,0.4,0
		c0.1,0,0.2,0,0.2,0c0.1,0,0.2,0,0.2,0c0.1,0,0.1-0.1,0.2-0.1c0.1,0,0.1-0.1,0.1-0.2c0-0.2,0-0.3-0.1-0.4c-0.1-0.1-0.2-0.2-0.3-0.3
		c0-0.1-0.1-0.2-0.1-0.3c0-0.2,0-0.3,0-0.4v-7.1c0-0.1,0-0.1,0.1-0.2c0-0.1,0.1-0.1,0.2-0.1c0.1,0,0.2-0.1,0.3-0.1
		c0.1-0.1,0.2-0.1,0.2-0.2c0,0,0-0.1,0-0.2c0-0.1,0-0.2,0-0.3c0-0.1,0-0.2,0-0.3c0-0.1,0-0.2,0-0.2
		C170.7,21.8,170.6,21.7,170.6,21.7z"/>
	<path class="st1" d="M177,23.6c0-0.2,0-0.4,0-0.6c0-0.2,0-0.4-0.1-0.6c0-0.4-0.1-0.9-0.2-1.4c-0.1-0.5-0.3-0.9-0.5-1.3
		c-0.1-0.1-0.1-0.2-0.2-0.3c-0.1-0.1-0.1-0.2-0.2-0.3c0-0.1-0.1-0.2-0.2-0.2c-0.1-0.1-0.1-0.1-0.2-0.2c-0.2-0.2-0.3-0.3-0.5-0.4
		c-0.2-0.1-0.4-0.2-0.6-0.2c-0.2-0.1-0.5-0.1-0.6,0c-0.3,0.1-0.6,0.1-0.8,0.2c-0.2,0.1-0.4,0.2-0.6,0.5c-0.1,0.1-0.3,0.3-0.4,0.5
		c-0.2,0.2-0.3,0.5-0.4,0.7l-0.1,0.4c0,0.1-0.1,0.3-0.2,0.5c-0.1,0.2-0.1,0.4-0.1,0.5l-0.1,0.7c0,0.3-0.1,0.6-0.1,0.8
		c0,0.2,0,0.5,0,0.8c0,0.2,0,0.5,0,0.7c0,0.2,0,0.5,0,0.7c0,0.2,0,0.4,0,0.7c0,0.2,0,0.5,0.1,0.7l0.1,0.5c0,0,0,0.1,0,0.1
		c0,0,0,0.1,0,0.1l0.2,0.6c0,0.1,0.1,0.2,0.1,0.3c0,0.1,0.1,0.2,0.1,0.3c0.1,0.1,0.2,0.3,0.3,0.5c0.1,0.2,0.2,0.3,0.3,0.4
		c0.2,0.2,0.6,0.4,0.9,0.6c0.3,0.1,0.7,0.1,1,0.1c0.3,0,0.6-0.1,0.9-0.3c0.1,0,0.1-0.1,0.2-0.1c0,0,0.1-0.1,0.2-0.1
		c0.1-0.1,0.2-0.2,0.3-0.3c0.1-0.1,0.1-0.2,0.2-0.3c0.1-0.1,0.1-0.2,0.1-0.2c0,0,0.1-0.1,0.1-0.2l0.2-0.3l0-0.1
		c0.1-0.2,0.1-0.3,0.1-0.4c0-0.1,0.1-0.3,0.1-0.4l0-0.2c0-0.2,0.1-0.3,0.1-0.5c0-0.2,0-0.3,0.1-0.5c0-0.2,0-0.4,0-0.6
		c0-0.2,0-0.4,0-0.6c0-0.2,0-0.4,0-0.5C177,23.9,177,23.8,177,23.6z M175.1,23.5c0,0.1,0,0.3,0,0.4c0,0.1,0,0.3,0,0.4
		c0,0.1,0,0.3,0,0.4l0,0.6l0,0.7l0,0.5c0,0.1,0,0.3,0,0.4c0,0.1,0,0.3-0.1,0.4l-0.1,0.3c0,0.1,0,0.2-0.1,0.3c0,0.1-0.1,0.2-0.1,0.3
		c0,0.1-0.1,0.2-0.1,0.3c0,0.1-0.1,0.1-0.2,0.2l0,0c-0.1,0.1-0.2,0.2-0.4,0.2c-0.1,0.1-0.3,0.1-0.4,0l-0.2-0.2
		c-0.1,0-0.1-0.1-0.2-0.1c0,0-0.1-0.1-0.1-0.2c-0.2-0.2-0.3-0.5-0.3-0.7c-0.1-0.2-0.1-0.5-0.1-0.8c0,0,0-0.1,0-0.1
		c0-0.2,0-0.4-0.1-0.6c0-0.2,0-0.4,0-0.6v-1.1c0-0.1,0-0.2,0-0.4c0-0.1,0-0.2,0-0.4c0-0.2,0-0.3,0-0.4c0-0.1,0-0.3,0-0.5l0.1-0.6
		v-0.4l0.1-0.6l0.1-0.4l0.1-0.5l0-0.2l0.1-0.4c0-0.1,0.1-0.2,0.1-0.3c0-0.1,0.1-0.2,0.2-0.2l0,0c0.2-0.2,0.4-0.3,0.6-0.3
		c0.2,0,0.4,0,0.6,0.2c0.1,0.1,0.2,0.2,0.2,0.3c0.1,0.1,0.1,0.3,0.2,0.4c0,0.1,0.1,0.3,0.1,0.5l0.1,0.5c0,0.1,0,0.1,0,0.2
		c0,0.1,0,0.1,0,0.2l0.1,0.7v0c0,0.2,0,0.4,0,0.6c0,0.2,0,0.4,0,0.6C175.1,23.2,175.1,23.4,175.1,23.5z"/>
	<path class="st1" d="M183.3,30.7c0-0.1-0.1-0.1-0.2-0.2c-0.1-0.1-0.1-0.1-0.2-0.2c0-0.1-0.1-0.1-0.1-0.2c0,0,0-0.1-0.1-0.2
		l-0.2-0.8l-0.3-1.5c0-0.1,0-0.3-0.1-0.4l-0.1-0.5l0-0.2c0-0.1,0-0.1,0-0.2c0-0.1,0-0.1-0.1-0.2c0-0.1,0-0.2-0.1-0.3
		c0-0.1-0.1-0.2-0.1-0.3c0-0.1-0.1-0.2-0.1-0.2c0-0.1-0.1-0.1-0.1-0.2c0-0.1,0-0.1,0-0.2c0-0.1,0.1-0.1,0.1-0.2
		c0.2-0.2,0.4-0.5,0.5-0.7c0.1-0.1,0.1-0.2,0.2-0.3c0-0.1,0.1-0.2,0.1-0.3l0.1-0.4l0.1-0.5c0-0.3,0.1-0.6,0.1-1c0-0.1,0-0.2,0-0.3
		c0-0.1,0-0.2,0-0.3c0-0.1,0-0.2-0.1-0.3c0-0.1,0-0.2-0.1-0.3l-0.2-0.5c0-0.1-0.1-0.2-0.1-0.3c0-0.1-0.1-0.2-0.2-0.3
		c-0.1-0.2-0.3-0.3-0.4-0.5c-0.2-0.2-0.4-0.3-0.6-0.4c-0.3-0.1-0.5-0.2-0.8-0.3c-0.2-0.1-0.5-0.1-0.7-0.1c-0.2,0-0.5,0-0.7,0
		c-0.3,0-0.5,0-0.8,0c-0.1,0-0.2,0-0.3,0c-0.1,0-0.2,0-0.3,0c-0.1,0-0.2,0-0.2,0.1c-0.1,0.1-0.1,0.1-0.1,0.2c0,0.1,0,0.2,0,0.2
		c0,0.1,0.1,0.2,0.1,0.2c0.1,0.1,0.2,0.2,0.2,0.3c0,0.1,0.1,0.2,0.1,0.4v6c0,0.1,0,0.2,0,0.2c0,0.1,0,0.2,0,0.3v2.2
		c0,0.1,0,0.2,0,0.3c0,0.1,0,0.1-0.1,0.2s-0.1,0.1-0.1,0.2c0,0.1-0.1,0.1-0.2,0.2c-0.1,0.1-0.1,0.2-0.1,0.4c0,0.2,0.1,0.2,0.2,0.3
		c0,0,0.1,0,0.2,0c0.1,0,0.2,0,0.2,0h0.1c0.2,0,0.3,0,0.5,0c0.1,0,0.3,0,0.4,0c0.1,0,0.3,0,0.4,0c0.1,0,0.3,0,0.4,0
		c0.2,0,0.2-0.1,0.3-0.3c0-0.1,0-0.2,0-0.3c0-0.1-0.1-0.1-0.2-0.2c-0.1-0.1-0.1-0.1-0.2-0.2c-0.1-0.1-0.1-0.2-0.1-0.3
		c0-0.2,0-0.5,0-0.7c0-0.2,0-0.5,0-0.7v-1c0,0,0-0.1,0-0.2c0-0.1,0-0.2,0-0.2c0-0.1,0-0.1,0.1-0.2c0,0,0.1,0,0.2,0
		c0.2,0.1,0.4,0.2,0.5,0.4c0.1,0.2,0.3,0.4,0.4,0.6l0,0c0.1,0.3,0.2,0.5,0.3,0.8c0.1,0.3,0.1,0.6,0.1,0.9c0,0.3,0,0.5,0.1,0.8
		c0,0.3,0.1,0.5,0.1,0.8c0,0.2,0,0.3,0.1,0.5c0,0.2,0,0.3,0.1,0.5c0,0.2,0.1,0.3,0.1,0.4c0,0.1,0.2,0.2,0.4,0.2c0.2,0,0.4,0,0.6,0
		c0.2,0,0.4,0,0.6,0c0.1,0,0.2,0,0.3,0c0.1,0,0.1-0.1,0.2-0.2c0-0.1,0-0.2,0-0.3C183.3,30.9,183.3,30.8,183.3,30.7z M181.1,22.4
		c0,0.1,0,0.2,0,0.3c0,0.2-0.1,0.5-0.2,0.7c-0.1,0.2-0.2,0.3-0.3,0.4c-0.1,0.1-0.2,0.2-0.3,0.3c-0.1,0.1-0.2,0.1-0.3,0.2
		c-0.2,0.1-0.3,0.1-0.5,0.1c-0.1,0-0.2-0.1-0.2-0.4v-3.8c0-0.1,0-0.1,0-0.2c0-0.1,0-0.1,0-0.2c0-0.1,0-0.1,0.1-0.2c0,0,0.1,0,0.2,0
		c0.2,0,0.4,0.1,0.5,0.2c0.1,0.1,0.3,0.2,0.4,0.4c0.1,0.1,0.2,0.2,0.2,0.3c0.1,0.1,0.1,0.3,0.2,0.4c0,0.1,0,0.2,0.1,0.3
		c0,0.1,0,0.2,0.1,0.3c0,0.1,0,0.2,0,0.3c0,0.1,0,0.2,0,0.3C181.2,22.2,181.1,22.3,181.1,22.4z"/>
	<path class="st1" d="M185.5,25.6c0,0,0-0.1,0-0.2v-6.1c0-0.1,0-0.3,0.1-0.3c0-0.1,0.1-0.2,0.2-0.2c0.1-0.1,0.1-0.1,0.2-0.2
		c0-0.1,0.1-0.2,0.1-0.3c0-0.2,0-0.3-0.1-0.4c-0.1,0-0.2-0.1-0.4-0.1H184c-0.1,0-0.2,0-0.3,0c-0.1,0-0.2,0-0.3,0
		c-0.1,0-0.1,0.1-0.2,0.1c-0.1,0.1-0.1,0.1-0.1,0.3c0,0.1,0,0.2,0.1,0.3c0,0.1,0.1,0.1,0.1,0.2c0.1,0.1,0.1,0.1,0.2,0.2
		c0,0.1,0.1,0.2,0.1,0.3v1.2c0,0.1,0,0.3,0,0.4c0,0.1,0,0.3,0,0.4c0,0,0,0,0,0c0,0,0,0,0,0v1.5c0,0.3,0,0.5,0,0.8c0,0.3,0,0.5,0,0.8
		V25c0,0.1,0,0.3,0,0.4c0,0.1,0,0.3,0,0.4c0,0.3,0,0.5,0,0.8c0,0.2,0,0.5,0,0.7c0,0.2,0,0.5,0,0.7c0,0.3,0,0.5-0.1,0.7
		c0,0.1-0.1,0.2-0.1,0.2c0,0.1-0.1,0.1-0.2,0.2c-0.1,0.1-0.1,0.2-0.1,0.4c0,0.1,0.1,0.2,0.3,0.2c0,0,0.1,0,0.3,0c0.2,0,0.3,0,0.3,0
		c0.1,0,0.3,0,0.4,0c0.1,0,0.2,0,0.4,0c0.1,0,0.2,0,0.3,0c0.1,0,0.2,0,0.3,0c0.2,0,0.3-0.1,0.4-0.2c0.1-0.1,0.1-0.2,0-0.4
		c0-0.1-0.1-0.2-0.1-0.2c-0.1-0.1-0.1-0.1-0.2-0.2c0-0.1-0.1-0.1-0.1-0.2c0-0.1,0-0.2,0-0.3c0-0.2,0-0.3,0-0.5c0-0.2,0-0.3,0-0.5
		v-1.6C185.4,25.7,185.4,25.7,185.5,25.6z"/>
	<path class="st1" d="M192.1,16.4c0.1-0.1,0.2-0.2,0.3-0.3c0.1-0.1,0.1-0.2,0.1-0.4c0-0.2-0.1-0.3-0.2-0.3c0,0-0.1,0-0.2,0
		c-0.1,0-0.2,0-0.3,0c-0.1,0-0.2,0-0.3,0c-0.1,0-0.2,0-0.3,0h-0.5c-0.2,0-0.3,0-0.4,0c-0.1,0-0.2,0.1-0.2,0.3c0,0.2,0,0.3,0.1,0.4
		c0.1,0.1,0.2,0.2,0.2,0.3c0,0,0,0,0,0.1c0,0.1,0,0.1,0,0.2c0,0.1,0,0.1,0,0.2c0,0.1,0,0.1,0,0.1v4c0,0.1,0,0.2,0,0.3
		c0,0.1,0,0.2,0,0.3c0,0,0,0.1,0,0.1c0,0,0,0.1,0,0.1c0,0,0,0.1-0.1,0.1c0,0-0.1,0-0.1,0c0,0-0.1-0.1-0.1-0.2
		c-0.1-0.1-0.1-0.2-0.2-0.3c-0.1-0.1-0.1-0.2-0.2-0.4c0-0.1-0.1-0.2-0.1-0.2l-0.4-0.8l-0.3-0.8l-0.3-0.5c0-0.1-0.1-0.1-0.1-0.2
		c0-0.1-0.1-0.1-0.1-0.2c-0.1-0.1-0.2-0.2-0.3-0.2h-0.7c-0.1,0-0.3,0-0.4,0c-0.1,0-0.3,0-0.4,0c-0.2,0-0.3,0.1-0.3,0.3
		c0,0.1,0,0.3,0.1,0.5c0,0.1,0.1,0.2,0.1,0.2c0,0,0.1,0.1,0.1,0.1c0,0,0.1,0.1,0.1,0.1c0,0.1,0,0.2,0.1,0.3v4.8c0,0.2,0,0.3,0,0.5
		c0,0.1,0,0.3,0,0.5c0,0.2,0,0.4,0,0.6c0,0.2,0,0.4,0,0.6c0,0.1,0,0.2,0,0.3c0,0.1,0,0.2,0,0.3v1.5c0,0.2-0.1,0.3-0.2,0.4
		c-0.1,0.1-0.2,0.2-0.2,0.3c0,0.1-0.1,0.2-0.1,0.3c0,0.1,0,0.2,0,0.3c0,0.1,0.1,0.1,0.3,0.1c0.1,0,0.2,0,0.3,0c0.2,0,0.3,0,0.5,0
		c0.2,0,0.3,0,0.5,0c0.1,0,0.2,0,0.3,0c0.1,0,0.1-0.1,0.1-0.2c0-0.1,0-0.3,0-0.3c0-0.1-0.1-0.2-0.1-0.2c-0.1-0.1-0.1-0.1-0.2-0.2
		c-0.1-0.1-0.1-0.1-0.1-0.2c0,0,0-0.1,0-0.1c0,0,0-0.1,0-0.2c0-0.3,0-0.5,0-0.8c0-0.3,0-0.5,0-0.8c0-0.2,0-0.4,0-0.6
		c0-0.2,0-0.4,0-0.6c0-0.4,0-0.7,0-1c0-0.3,0-0.7,0-1c0-0.1,0-0.1,0-0.2c0,0,0-0.1,0-0.1c0-0.1,0-0.1,0-0.2c0,0,0-0.1,0-0.1
		c0-0.1,0-0.2,0-0.3c0-0.1,0-0.2,0-0.3v-0.5c0,0,0-0.1,0-0.1c0,0,0,0,0.1,0c0,0,0.1,0,0.1,0.1c0,0.1,0.1,0.2,0.1,0.2
		c0,0.1,0.1,0.2,0.1,0.3l0.2,0.4l0.1,0.3l0.3,0.5l0.3,0.5l0.2,0.5l0.1,0.2c0,0,0.1,0.1,0.1,0.2l0.2,0.4c0,0,0,0.1,0.1,0.1
		c0,0,0,0.1,0.1,0.1c0,0.1,0.1,0.1,0.1,0.2c0,0.1,0.1,0.1,0.1,0.2c0.1,0.2,0.1,0.4,0.1,0.7c0,0.2,0,0.5,0,0.7c0,0.2,0,0.4,0,0.6
		c0,0.2,0,0.4,0,0.6c0,0.1,0,0.2-0.1,0.2c-0.1,0.1-0.1,0.1-0.2,0.2c-0.1,0.1-0.1,0.1-0.2,0.2c0,0.1-0.1,0.2,0,0.3
		c0,0.2,0.2,0.3,0.4,0.3c0.1,0,0.3,0,0.4,0c0.1,0,0.3,0,0.4,0h0.1c0.1,0,0.2,0,0.3,0c0.1,0,0.2,0,0.3,0c0.1,0,0.2,0,0.4,0
		c0.2,0,0.3,0,0.3-0.1c0,0,0-0.1,0.1-0.1c0-0.1,0-0.1,0-0.2c0-0.1-0.1-0.2-0.1-0.3c-0.1-0.1-0.1-0.2-0.2-0.2
		c-0.1-0.1-0.1-0.1-0.2-0.2c0-0.1-0.1-0.2-0.1-0.3v-3.4c0-0.1,0-0.2,0-0.2c0-0.1,0-0.2,0-0.2c0-0.3,0-0.5,0-0.8c0-0.3,0-0.5,0-0.8
		v-3.4c0-0.1,0-0.2,0-0.3c0-0.1,0-0.2,0-0.4c0-0.2,0-0.4,0-0.5c0-0.2,0-0.4,0-0.6v-0.3c0-0.1,0-0.1,0-0.2c0-0.1,0-0.2,0-0.2
		C192,16.7,192.1,16.5,192.1,16.4z"/>
	<path class="st1" d="M199.3,21.7c-0.1,0-0.1-0.1-0.2-0.1c-0.1,0-0.2,0-0.2,0c-0.1,0-0.1,0-0.2-0.1c0,0,0-0.1,0-0.3
		c0-0.2,0-0.4,0-0.7c0-0.2,0-0.5,0-0.7c0-0.2,0-0.4,0-0.4c0-0.2,0.1-0.3,0.2-0.5c0,0,0.1-0.1,0.1-0.1c0,0,0.1-0.1,0.1-0.1
		c0.1-0.1,0.1-0.3,0-0.4c0-0.1,0-0.1-0.1-0.2c-0.1,0-0.1-0.1-0.2-0.1h-0.5c-0.3,0-0.5,0-0.8,0c-0.3,0-0.6,0-0.8,0
		c-0.1,0-0.1,0-0.2,0.1c-0.1,0.1-0.1,0.1-0.1,0.2v0.2c0,0.1,0,0.1,0.1,0.2c0,0,0.1,0.1,0.1,0.1c0,0,0.1,0.1,0.1,0.1
		c0,0,0.1,0.1,0.1,0.2c0,0.1,0,0.1,0.1,0.2c0,0,0,0.1,0,0.2c0,0.5,0,0.9,0,1.4c0,0.5,0,0.9,0,1.4c0,0.1,0,0.2-0.1,0.3
		c-0.1,0.1-0.1,0.1-0.2,0.2l-0.6,0.4l-0.5,0.2l-0.1,0.1c-0.1,0-0.1,0-0.2,0c0,0-0.1-0.1-0.1-0.2v-3.8c0-0.2,0.1-0.4,0.2-0.5
		c0,0,0.1-0.1,0.1-0.1c0,0,0.1-0.1,0.1-0.1c0,0,0-0.1,0-0.1c0,0,0-0.1,0-0.1v-0.2c0-0.2-0.1-0.3-0.3-0.3c-0.4,0-0.7,0-1.1,0
		c-0.4,0-0.7,0-1.1,0h0c-0.1,0-0.1,0-0.2,0.1c-0.1,0.1-0.1,0.1-0.1,0.2c0,0.1,0,0.1,0,0.2c0,0,0,0.1,0,0.2c0,0.1,0,0.1,0.1,0.1
		c0,0,0.1,0.1,0.1,0.1c0.1,0.1,0.1,0.1,0.2,0.2c0,0.1,0.1,0.1,0.1,0.2c0,0.1,0,0.2,0,0.2v4.2c0,0.1-0.1,0.2-0.2,0.2h-0.4
		c-0.1,0-0.1,0.1-0.2,0.1c0,0.1,0,0.1,0,0.2c0,0.3,0,0.5,0,0.7c0,0.1,0,0.3,0,0.3c0,0.1,0.1,0.1,0.2,0.2c0.1,0,0.2,0.1,0.3,0.1
		c0.1,0,0.1,0,0.2,0c0,0,0.1,0.1,0.1,0.1c0,0.1,0,0.2,0,0.3c0,0.1,0,0.1,0,0.2c0,0,0,0.1,0,0.2v1c0,0.1,0,0.1,0,0.3
		c0,0.1,0,0.2,0,0.4c0,0.1,0,0.2,0,0.4c0,0.1,0,0.2,0,0.2c0,0.1,0,0.2-0.1,0.2c0,0.1-0.1,0.1-0.1,0.1c0,0-0.1,0.1-0.1,0.1
		c0,0-0.1,0.1-0.1,0.2c-0.1,0.1-0.1,0.2-0.1,0.4c0,0.1,0.1,0.2,0.2,0.3c0,0,0.1,0,0.2,0s0.2,0,0.3,0c0.1,0,0.2,0,0.3,0
		c0.1,0,0.2,0,0.2,0c0.1,0,0.1,0,0.2,0c0.1,0,0.1,0,0.2,0h0.5c0.2,0,0.3,0,0.4,0c0.1,0,0.2-0.1,0.2-0.3c0-0.1,0-0.2,0-0.2
		c0-0.1-0.1-0.1-0.1-0.2c-0.1-0.1-0.2-0.2-0.3-0.3c-0.1-0.1-0.1-0.2-0.1-0.4c0-0.2,0-0.4,0-0.6c0-0.2,0-0.4,0-0.6v-0.4
		c0,0,0-0.1,0-0.1c0,0,0-0.1,0-0.1c0,0,0,0,0-0.1c0,0,0,0,0-0.1v-1.1c0-0.1,0-0.2,0.1-0.2c0,0,0.1-0.1,0.2-0.1
		c0.1-0.1,0.3-0.1,0.4-0.2c0.1-0.1,0.2-0.1,0.4-0.2c0,0,0.1,0,0.1-0.1c0,0,0.1-0.1,0.1-0.1l0.3-0.1c0.1,0,0.1,0,0.2,0
		c0,0,0.1,0.1,0.1,0.2V31c0,0.1,0,0.2,0,0.2c0,0-0.1,0.1-0.1,0.2c0,0.1-0.1,0.1-0.1,0.1c0,0-0.1,0.1-0.1,0.1
		c-0.1,0.1-0.1,0.2-0.1,0.3c0,0.1,0,0.3,0.1,0.3l0.1,0.1c0.1,0,0.3,0,0.4,0c0.2,0,0.3,0,0.5,0c0.1,0,0.3,0,0.4,0c0.1,0,0.3,0,0.4,0
		c0.1,0,0.2,0,0.2,0c0.1,0,0.2,0,0.2,0c0.1,0,0.1-0.1,0.2-0.1c0.1,0,0.1-0.1,0.1-0.2c0-0.2,0-0.3-0.1-0.4c-0.1-0.1-0.2-0.2-0.3-0.3
		c0-0.1-0.1-0.2-0.1-0.3c0-0.2,0-0.3,0-0.4v-7.1c0-0.1,0-0.1,0.1-0.2c0-0.1,0.1-0.1,0.2-0.1c0.1,0,0.2-0.1,0.3-0.1
		c0.1-0.1,0.2-0.1,0.2-0.2c0,0,0-0.1,0-0.2c0-0.1,0-0.2,0-0.3c0-0.1,0-0.2,0-0.3c0-0.1,0-0.2,0-0.2
		C199.4,21.8,199.4,21.7,199.3,21.7z"/>
	<path class="st1" d="M214.2,23.5c0,0,0-1.2-0.8-1.2c-0.5,0-0.9,0.3-0.9,0.3s-0.2,0-0.5-0.1l0-0.4l0.2,0c0.1,0,0.2-0.1,0.2-0.2
		c0-0.1-0.1-0.2-0.2-0.2l-0.5,0c-0.1,0-0.2,0.1-0.2,0.2c0,0.1,0.1,0.2,0.2,0.2l0.2,0l0,0.3c-0.2-0.1-0.5-0.1-0.9-0.2l0-0.5l0.2,0
		c0.1,0,0.2-0.1,0.2-0.2c0-0.1-0.1-0.2-0.2-0.2l-0.5,0c-0.1,0-0.2,0.1-0.2,0.2c0,0.1,0.1,0.2,0.2,0.2l0.2,0l0,0.5
		c-0.3-0.1-0.7-0.1-1-0.2l0-0.4l0.2,0c0.1,0,0.2-0.1,0.2-0.2c0-0.1-0.1-0.2-0.2-0.2l-0.5,0c-0.1,0-0.2,0.1-0.2,0.2
		c0,0.1,0.1,0.2,0.2,0.2l0.2,0l0,0.4c-0.3-0.1-0.6-0.1-0.9-0.1l0-0.5l0.2,0c0.1,0,0.2-0.1,0.2-0.2c0-0.1-0.1-0.2-0.2-0.2l-0.5,0
		c-0.1,0-0.2,0.1-0.2,0.2c0,0.1,0.1,0.2,0.2,0.2l0.2,0l0,0.5c-0.2,0-0.4,0-0.5,0c-0.3,0-0.4,0.4-0.4,0.6l-1.8-0.2
		c0-0.4-0.1-0.9-0.2-1.3c-0.1-0.5-0.3-0.9-0.5-1.3c-0.1-0.1-0.1-0.2-0.2-0.3c-0.1-0.1-0.1-0.2-0.2-0.3c0-0.1-0.1-0.2-0.2-0.2
		c-0.1-0.1-0.1-0.1-0.2-0.2c-0.2-0.2-0.3-0.3-0.5-0.4c-0.2-0.1-0.4-0.2-0.6-0.2c-0.2-0.1-0.5-0.1-0.6,0c-0.3,0.1-0.6,0.1-0.8,0.2
		c-0.2,0.1-0.4,0.2-0.6,0.5c-0.1,0.1-0.3,0.3-0.4,0.5c-0.2,0.2-0.3,0.5-0.4,0.7l-0.1,0.4c0,0.1-0.1,0.3-0.2,0.5
		c-0.1,0.2-0.1,0.4-0.1,0.5l-0.1,0.7c0,0.3-0.1,0.6-0.1,0.8c0,0.2,0,0.5,0,0.8c0,0.2,0,0.5,0,0.7c0,0.2,0,0.5,0,0.7
		c0,0.2,0,0.4,0,0.7c0,0.2,0,0.5,0.1,0.7l0.1,0.5c0,0,0,0.1,0,0.1c0,0,0,0.1,0,0.1l0.2,0.6c0,0.1,0.1,0.2,0.1,0.3
		c0,0.1,0.1,0.2,0.1,0.3c0.1,0.1,0.2,0.3,0.3,0.5c0.1,0.2,0.2,0.3,0.3,0.4c0.2,0.2,0.6,0.4,0.9,0.6c0.3,0.1,0.7,0.1,1,0.1
		c0.3,0,0.6-0.1,0.9-0.3c0.1,0,0.1-0.1,0.2-0.1c0,0,0.1-0.1,0.2-0.1c0.1-0.1,0.2-0.2,0.3-0.3c0.1-0.1,0.1-0.2,0.2-0.3
		c0.1-0.1,0.1-0.2,0.1-0.2c0,0,0.1-0.1,0.1-0.2l0.2-0.3l0-0.1c0.1-0.2,0.1-0.3,0.1-0.4c0-0.1,0.1-0.3,0.1-0.4l0-0.2
		c0-0.2,0.1-0.3,0.1-0.5c0-0.2,0-0.3,0.1-0.5c0-0.2,0-0.4,0-0.6c0-0.1,0-0.2,0-0.2l1.8-0.2c0,0.2,0.2,0.6,0.5,0.6c0.1,0,0.2,0,0.4,0
		l0,0.6l-0.2,0c-0.1,0-0.2,0.1-0.2,0.2c0,0.1,0.1,0.2,0.2,0.2l0.5,0c0.1,0,0.2-0.1,0.2-0.2c0-0.1-0.1-0.2-0.2-0.2l-0.2,0l0-0.6
		c0.2,0,0.5-0.1,0.9-0.2l0,0.5l-0.2,0c-0.1,0-0.2,0.1-0.2,0.2c0,0.1,0.1,0.2,0.2,0.2l0.5,0c0.1,0,0.2-0.1,0.2-0.2
		c0-0.1-0.1-0.2-0.2-0.2l-0.2,0l0-0.6c0.3-0.1,0.6-0.2,1-0.2l0,0.6l-0.2,0c-0.1,0-0.2,0.1-0.2,0.2c0,0.1,0.1,0.2,0.2,0.2l0.5,0
		c0.1,0,0.2-0.1,0.2-0.2c0-0.1-0.1-0.2-0.2-0.2l-0.2,0l0-0.6c0.3-0.1,0.6-0.2,0.9-0.2l0,0.5l-0.2,0c-0.1,0-0.2,0.1-0.2,0.2
		c0,0.1,0.1,0.2,0.2,0.2l0.5,0c0.1,0,0.2-0.1,0.2-0.2c0-0.1-0.1-0.2-0.2-0.2l-0.2,0l0-0.5c0.3-0.1,0.6-0.1,0.6-0.1s0.4,0.3,0.9,0.3
		C214.2,24.7,214.2,23.5,214.2,23.5z M204.1,23.5c0,0.1,0,0.3,0,0.4c0,0.1,0,0.3,0,0.4c0,0.1,0,0.3,0,0.4l0,0.6l0,0.7l0,0.5
		c0,0.1,0,0.3,0,0.4c0,0.1,0,0.3-0.1,0.4l-0.1,0.3c0,0.1,0,0.2-0.1,0.3c0,0.1-0.1,0.2-0.1,0.3c0,0.1-0.1,0.2-0.1,0.3
		c0,0.1-0.1,0.1-0.2,0.2l0,0c-0.1,0.1-0.2,0.2-0.4,0.2c-0.1,0.1-0.3,0.1-0.4,0l-0.2-0.2c-0.1,0-0.1-0.1-0.2-0.1c0,0-0.1-0.1-0.1-0.2
		c-0.2-0.2-0.3-0.5-0.3-0.7c-0.1-0.2-0.1-0.5-0.1-0.8c0,0,0-0.1,0-0.1c0-0.2,0-0.4-0.1-0.6c0-0.2,0-0.4,0-0.6v-1.1
		c0-0.1,0-0.2,0-0.4c0-0.1,0-0.2,0-0.4c0-0.2,0-0.3,0-0.4c0-0.1,0-0.3,0-0.5l0.1-0.6v-0.4l0.1-0.6l0.1-0.4l0.1-0.5l0-0.2l0.1-0.4
		c0-0.1,0.1-0.2,0.1-0.3c0-0.1,0.1-0.2,0.2-0.2l0,0c0.2-0.2,0.4-0.3,0.6-0.3c0.2,0,0.4,0,0.6,0.2c0.1,0.1,0.2,0.2,0.2,0.3
		c0.1,0.1,0.1,0.3,0.2,0.4c0,0.1,0.1,0.3,0.1,0.5l0.1,0.5c0,0.1,0,0.1,0,0.2c0,0.1,0,0.1,0,0.2l0.1,0.7v0c0,0.2,0,0.4,0,0.6
		c0,0.2,0,0.4,0,0.6C204.1,23.2,204.1,23.4,204.1,23.5z"/>
	<polygon class="st1" points="162.4,16.3 161.2,16.3 161.2,15.1 162.3,15.1 162.3,14.5 161.2,14.5 161.2,13.3 162.4,13.3 
		162.4,12.7 160.6,12.7 160.6,16.9 162.4,16.9 	"/>
	<polygon class="st1" points="163.4,14.4 163.4,14.4 164.3,16.9 164.9,16.9 164.9,12.7 164.3,12.7 164.3,15.2 164.3,15.2 
		163.4,12.7 162.8,12.7 162.8,16.9 163.4,16.9 	"/>
	<path class="st1" d="M165.7,16.7c0.1,0.1,0.2,0.1,0.3,0.2c0.1,0,0.2,0,0.3,0c0.1,0,0.3,0,0.4-0.1c0.1-0.1,0.2-0.1,0.3-0.2
		c0.1-0.1,0.2-0.2,0.2-0.3c0-0.1,0.1-0.2,0.1-0.4v-0.3h-0.6v0.2c0,0.1,0,0.2,0,0.2c0,0.1-0.1,0.1-0.1,0.1c0,0-0.1,0.1-0.1,0.1
		c0,0-0.1,0-0.1,0c-0.1,0-0.2,0-0.3-0.1c-0.1-0.1-0.1-0.2-0.1-0.3v-2.1c0-0.1,0-0.3,0.1-0.4c0-0.1,0.1-0.1,0.3-0.1
		c0.1,0,0.2,0,0.3,0.1c0.1,0.1,0.1,0.2,0.1,0.3v0.2h0.6v-0.2c0-0.1,0-0.3-0.1-0.4c0-0.1-0.1-0.2-0.2-0.3c-0.2-0.2-0.4-0.3-0.7-0.3
		c-0.1,0-0.3,0-0.4,0.1c-0.1,0-0.2,0.1-0.3,0.2c-0.1,0.1-0.2,0.2-0.2,0.3c0,0.1-0.1,0.2-0.1,0.4V16c0,0.2,0,0.4,0.1,0.5
		C165.6,16.6,165.6,16.7,165.7,16.7z"/>
	<path class="st1" d="M168.1,16.7c0.1,0.1,0.2,0.2,0.3,0.2c0.1,0,0.2,0.1,0.4,0.1c0.1,0,0.2,0,0.4-0.1c0.1,0,0.2-0.1,0.3-0.2
		c0.1-0.1,0.2-0.2,0.2-0.3c0.1-0.1,0.1-0.3,0.1-0.5v-2.2c0-0.2,0-0.3-0.1-0.4c-0.1-0.1-0.1-0.2-0.2-0.3c-0.1-0.1-0.2-0.1-0.3-0.2
		c-0.1,0-0.2-0.1-0.4-0.1c-0.1,0-0.2,0-0.4,0.1c-0.1,0-0.2,0.1-0.3,0.2c-0.1,0.1-0.2,0.2-0.2,0.3c-0.1,0.1-0.1,0.3-0.1,0.4v2.2
		c0,0.2,0,0.3,0.1,0.5C167.9,16.5,168,16.6,168.1,16.7z M168.4,13.7c0-0.1,0-0.3,0.1-0.3c0.1-0.1,0.2-0.1,0.3-0.1
		c0.1,0,0.2,0,0.3,0.1c0.1,0.1,0.1,0.2,0.1,0.3v2.2c0,0.1,0,0.3-0.1,0.3c-0.1,0.1-0.2,0.1-0.3,0.1c-0.1,0-0.2,0-0.3-0.1
		c-0.1-0.1-0.1-0.2-0.1-0.3V13.7z"/>
	<polygon class="st1" points="172.4,16.9 172.4,12.7 171.8,12.7 171.8,15.2 171.8,15.2 170.9,12.7 170.3,12.7 170.3,16.9 
		170.9,16.9 170.9,14.4 170.9,14.4 171.9,16.9 	"/>
	<polygon class="st1" points="173.4,16.9 174,16.9 174,13.3 174.7,13.3 174.7,12.7 172.7,12.7 172.7,13.3 173.4,13.3 	"/>
	<path class="st1" d="M176.8,14.6c0.1-0.2,0.1-0.4,0.1-0.6c0-0.8-0.4-1.2-1.1-1.2h-1v4.2h0.6v-1.8h0.4l0.6,1.8h0.6l-0.6-1.9
		C176.6,14.9,176.8,14.7,176.8,14.6z M176.3,14.2c0,0.1,0,0.1-0.1,0.2c0,0.1-0.1,0.1-0.1,0.1c-0.1,0-0.1,0-0.3,0h-0.3v-1.3h0.3
		c0.2,0,0.3,0.1,0.4,0.2c0,0.1,0.1,0.1,0.1,0.2c0,0.1,0,0.2,0,0.3C176.4,14,176.3,14.1,176.3,14.2z"/>
	<path class="st1" d="M177.7,16.7c0.1,0.1,0.2,0.2,0.3,0.2c0.1,0,0.2,0.1,0.4,0.1c0.1,0,0.2,0,0.4-0.1c0.1,0,0.2-0.1,0.3-0.2
		c0.1-0.1,0.2-0.2,0.2-0.3c0.1-0.1,0.1-0.3,0.1-0.5v-2.2c0-0.2,0-0.3-0.1-0.4c-0.1-0.1-0.1-0.2-0.2-0.3c-0.1-0.1-0.2-0.1-0.3-0.2
		c-0.1,0-0.2-0.1-0.4-0.1c-0.1,0-0.2,0-0.4,0.1c-0.1,0-0.2,0.1-0.3,0.2c-0.1,0.1-0.2,0.2-0.2,0.3c-0.1,0.1-0.1,0.3-0.1,0.4v2.2
		c0,0.2,0,0.3,0.1,0.5C177.5,16.5,177.6,16.6,177.7,16.7z M178,13.7c0-0.1,0-0.3,0.1-0.3c0.1-0.1,0.2-0.1,0.3-0.1
		c0.1,0,0.2,0,0.3,0.1c0.1,0.1,0.1,0.2,0.1,0.3v2.2c0,0.1,0,0.3-0.1,0.3c-0.1,0.1-0.2,0.1-0.3,0.1c-0.1,0-0.2,0-0.3-0.1
		c-0.1-0.1-0.1-0.2-0.1-0.3V13.7z"/>
	<path class="st1" d="M181.3,16.7c0.1,0.1,0.2,0.1,0.3,0.2c0.1,0,0.2,0,0.3,0c0.1,0,0.3,0,0.4-0.1c0.1-0.1,0.2-0.1,0.3-0.2
		c0.1-0.1,0.2-0.2,0.2-0.3c0-0.1,0.1-0.2,0.1-0.4v-0.3h-0.6v0.2c0,0.1,0,0.2,0,0.2c0,0.1-0.1,0.1-0.1,0.1c0,0-0.1,0.1-0.1,0.1
		c0,0-0.1,0-0.1,0c-0.1,0-0.2,0-0.3-0.1c-0.1-0.1-0.1-0.2-0.1-0.3v-2.1c0-0.1,0-0.3,0.1-0.4c0-0.1,0.1-0.1,0.3-0.1
		c0.1,0,0.2,0,0.3,0.1c0.1,0.1,0.1,0.2,0.1,0.3v0.2h0.6v-0.2c0-0.1,0-0.3-0.1-0.4c0-0.1-0.1-0.2-0.2-0.3c-0.2-0.2-0.4-0.3-0.7-0.3
		c-0.1,0-0.3,0-0.4,0.1c-0.1,0-0.2,0.1-0.3,0.2c-0.1,0.1-0.2,0.2-0.2,0.3c0,0.1-0.1,0.2-0.1,0.4V16c0,0.2,0,0.4,0.1,0.5
		C181.2,16.6,181.2,16.7,181.3,16.7z"/>
	<path class="st1" d="M183.7,16.7c0.1,0.1,0.2,0.2,0.3,0.2c0.1,0,0.2,0.1,0.4,0.1c0.1,0,0.2,0,0.4-0.1c0.1,0,0.2-0.1,0.3-0.2
		c0.1-0.1,0.2-0.2,0.2-0.3c0.1-0.1,0.1-0.3,0.1-0.5v-2.2c0-0.2,0-0.3-0.1-0.4c-0.1-0.1-0.1-0.2-0.2-0.3c-0.1-0.1-0.2-0.1-0.3-0.2
		c-0.1,0-0.2-0.1-0.4-0.1c-0.1,0-0.2,0-0.4,0.1c-0.1,0-0.2,0.1-0.3,0.2c-0.1,0.1-0.2,0.2-0.2,0.3c-0.1,0.1-0.1,0.3-0.1,0.4v2.2
		c0,0.2,0,0.3,0.1,0.5C183.6,16.5,183.6,16.6,183.7,16.7z M184,13.7c0-0.1,0-0.3,0.1-0.3c0.1-0.1,0.2-0.1,0.3-0.1
		c0.1,0,0.2,0,0.3,0.1c0.1,0.1,0.1,0.2,0.1,0.3v2.2c0,0.1,0,0.3-0.1,0.3c-0.1,0.1-0.2,0.1-0.3,0.1c-0.1,0-0.2,0-0.3-0.1
		c-0.1-0.1-0.1-0.2-0.1-0.3V13.7z"/>
	<polygon class="st1" points="186.6,14.4 186.6,14.4 187.2,16.2 187.5,16.2 188.1,14.4 188.1,14.4 188.1,16.9 188.7,16.9 
		188.7,12.7 188.1,12.7 187.3,14.9 187.3,14.9 186.5,12.7 186,12.7 186,16.9 186.6,16.9 	"/>
	<path class="st1" d="M149.3,23.9C149.3,24,149.3,24,149.3,23.9c0,0.1,0,0.2,0,0.2c0,0,0,0.1-0.1,0.1l-0.2,0.2l1.3,0.1l0.2,0
		c-0.1-0.2-0.1-0.3-0.1-0.5c0-0.2,0-0.5,0.1-0.7c-0.1,0-0.1,0-0.1,0c-0.1,0-0.7,0.1-1.3,0.2L149.3,23.9
		C149.3,23.9,149.3,23.9,149.3,23.9z"/>
	<path class="st1" d="M148.7,23.3l0.2,0.2c0.6-0.1,1.3-0.3,1.5-0.3c0,0,0.1,0,0.2,0c0.2-0.4,0.6-0.7,1.1-0.7c0.6,0,1,0.2,1.3,0.7
		c1.8,0,4.4,0,7.6,0v-0.8c0-0.1,0-0.1,0-0.2c0,0,0,0,0,0l-10.4-0.1l-1.4,0.6C148.8,23,148.7,23.2,148.7,23.3z"/>
	<path class="st1" d="M164.1,30.7c0,0-0.1,0-0.1-0.1c0,0-0.1,0-0.2,0c0,0-0.1,0-0.1,0c0,0-0.1,0-0.1,0c-0.1,0-0.1,0-0.2,0
		c0,0-0.1,0-0.2,0c-0.1,0-0.1,0-0.2,0c-0.1,0-0.1,0-0.2,0c0,0-0.1,0-0.1,0c0,0-0.1,0-0.1,0c0,0-0.1,0-0.1-0.1c0,0-0.1,0-0.1-0.1
		c0,0-0.1-0.1-0.1-0.1c0,0-0.1-0.1-0.1-0.1c-0.1-0.1-0.2-0.2-0.3-0.3l-0.2-0.4c0,0,0,0,0-0.1c0,0,0,0-0.1-0.1c0-0.1,0-0.1-0.1-0.2
		c0,0,0-0.1-0.1-0.2l-0.2-0.4c-0.1-0.2-0.1-0.3-0.2-0.5c0,0,0,0,0-0.1c0,0,0,0,0-0.1c0,0,0-0.1,0-0.1c0,0,0-0.1,0-0.1
		c0-0.1,0-0.1-0.1-0.2c0-0.1,0-0.1,0-0.2c0-0.1,0-0.2-0.1-0.3c0-0.1,0-0.2,0-0.2c0-0.1,0-0.1,0-0.2c0-0.1,0-0.1,0-0.2l0-0.4l0-0.3
		L150.3,26c0,0,0,0,0,0l-1.5-0.5c0,0.1,0,0.2-0.1,0.4c-0.1,0.3-0.5,0.6-0.6,0.6c0,0-0.1,0-0.1,0c0,0,0,0-0.1,0
		c-0.1,0-0.1-0.1-0.1-0.1c0,0-0.3-0.5-1-0.7c-0.3-0.1-0.6-0.1-0.9-0.1c0.7,2.7,3.3,4.6,6.2,4.4c2.4-0.2,4.4-1.7,5.2-3.8l1.8-0.2
		c0,0.1,0,0.2,0.1,0.4c0,0.2,0.1,0.4,0.1,0.5c0.1,0.4,0.2,0.8,0.3,1.2c0.1,0.3,0.2,0.6,0.3,0.9c0.1,0.3,0.2,0.6,0.4,0.8
		c0.1,0.2,0.2,0.3,0.3,0.5c0.1,0.2,0.2,0.3,0.4,0.5l0.2,0.2l0.2,0.2c0.1,0.1,0.2,0.2,0.4,0.3c0.1,0.1,0.3,0.1,0.4,0.2
		c0.4,0.1,0.8,0.1,1.1,0.1c0.1,0,0.2,0,0.3-0.1c0.1,0,0.2,0,0.2-0.1c0.2-0.1,0.3-0.2,0.5-0.3c0-0.1,0-0.1,0-0.1c0,0,0-0.1,0-0.1
		C164.3,30.9,164.2,30.8,164.1,30.7z"/>
	<path class="st1" d="M160.6,24.5c0-0.1,0-0.1,0-0.2c0-0.1,0-0.2,0-0.3c0-0.2,0-0.3,0-0.5v-0.1c-3.1,0-5.7,0-7.5,0
		c0.1,0.1,0.1,0.3,0.1,0.5c0,0.2,0,0.5-0.1,0.7L160.6,24.5z"/>
	<path class="st1" d="M150.2,21.9l10.4,0.1c0-0.1,0-0.2,0-0.2c0-0.1,0-0.2,0-0.3c0-0.1,0-0.2,0-0.2c0-0.1,0-0.2,0-0.2
		c0-0.1,0-0.2,0-0.3c0-0.1,0-0.2,0-0.3c0-0.1,0-0.2,0.1-0.3c0-0.1,0-0.2,0.1-0.3c0-0.1,0-0.2,0.1-0.3c0-0.1,0.1-0.2,0.1-0.2
		c0.1-0.2,0.2-0.4,0.3-0.5c0.1-0.1,0.3-0.2,0.4-0.2c0.2,0,0.3,0.1,0.4,0.2c0.2,0.2,0.3,0.3,0.3,0.5c0,0.1,0.1,0.2,0.1,0.3
		c0,0.1,0.1,0.2,0.1,0.3l0.2,0.6c0,0.1,0.1,0.2,0.2,0.3c0,0,0.1,0,0.1,0c0,0,0.1,0,0.1,0c0.1,0,0.1,0,0.2-0.1
		c0.1-0.1,0.1-0.1,0.1-0.2c0-0.1,0-0.1,0-0.2c0-0.1,0-0.1,0-0.2c0,0,0,0,0-0.1c0,0,0,0,0-0.1c0,0,0-0.1,0-0.1c0,0,0-0.1,0-0.1v-0.4
		c0,0,0-0.1,0-0.1c0,0,0-0.1,0-0.1c0,0,0-0.1,0-0.1c0,0,0-0.1,0-0.1c0,0,0-0.1,0-0.1c0,0,0-0.1,0-0.1c0,0,0-0.1,0-0.1
		c0,0,0-0.1,0-0.1c0,0,0-0.1,0-0.1c0,0,0-0.1,0-0.1c0,0,0-0.1,0-0.1c0,0,0-0.1,0-0.1V18c0-0.1,0-0.1-0.1-0.1c0,0-0.1,0-0.1,0
		c-0.1,0.1-0.1,0.1-0.2,0.2c-0.1,0.1-0.1,0.1-0.2,0.2c-0.1,0.1-0.2,0.1-0.4,0.1c-0.2-0.1-0.3-0.2-0.5-0.2c-0.2-0.1-0.4-0.1-0.7-0.1
		c-0.2,0-0.4,0.1-0.6,0.2c-0.1,0.1-0.3,0.1-0.4,0.2c-0.1,0.1-0.2,0.2-0.3,0.3c-0.2,0.2-0.3,0.5-0.5,0.7c0,0.1-0.1,0.2-0.1,0.3
		c0,0.1-0.1,0.2-0.1,0.3c0,0.1-0.1,0.2-0.1,0.3c0,0.1-0.1,0.2-0.1,0.3c0,0.1,0,0.2-0.1,0.3c0,0.1,0,0.2-0.1,0.3c0,0.1,0,0.1,0,0.2
		c0,0.1,0,0.1,0,0.2l-0.1,0.3c0,0,0,0,0,0l-1.7-0.2c-1-2.3-3.3-3.9-6-3.8c-2.7,0.2-4.9,2.2-5.5,4.7c0.3,0,0.7-0.1,0.9-0.1
		c0.8-0.2,1.1-0.8,1.1-0.8c0-0.1,0.1-0.1,0.1-0.1c0,0,0,0,0.1,0c0,0,0.1,0,0.1,0c0,0,0.4,0.3,0.5,0.6c0,0.1,0,0.2,0.1,0.3
		L150.2,21.9C150.2,21.9,150.2,21.9,150.2,21.9z"/>
	<path class="st1" d="M148.8,25.4l1.5,0.5l10.3-0.3l0-0.2l0-0.4c0-0.1,0-0.2,0-0.2c0-0.1,0-0.1,0-0.2l-7.7,0.1
		c-0.2,0.4-0.6,0.6-1.1,0.7c-0.5,0-1-0.2-1.3-0.6l-0.3,0c0,0,0,0,0,0l-1.4-0.1l-0.2,0.2C148.8,24.9,148.8,25.1,148.8,25.4z"/>
	<path class="st1" d="M148.6,25.3c0-0.4-0.1-0.5-0.1-0.5l0.2-0.2l0.3,0l0.1-0.2l-0.3,0l0.3-0.4l0,0l0,0l0,0l0,0l-0.4-0.4
		c0.1,0,0.2,0,0.2,0l-0.1-0.1c-0.1,0-0.2,0-0.2,0l-0.2-0.2c0,0,0.1-0.1,0.1-0.5l0.2-0.1c0-0.1,0-0.1,0-0.2l-0.2,0.1
		c0-0.1,0-0.2-0.1-0.3c-0.1-0.3-0.4-0.5-0.4-0.5s-0.3,0.6-1.2,0.9c-0.5,0.1-1.5,0.2-1.5,0.2l0,2.4c0,0,1,0.1,1.5,0.2
		c0.9,0.2,1.2,0.8,1.2,0.8s0.4-0.2,0.4-0.5c0-0.1,0.1-0.3,0.1-0.4l0.2,0.1c0-0.1,0-0.1,0-0.2L148.6,25.3z"/>
</g>
</svg>
