<?xml version="1.0" encoding="utf-8"?>
<!-- Generator: Adobe Illustrator 24.0.1, SVG Export Plug-In . SVG Version: 6.00 Build 0)  -->
<svg version="1.1" id="Camada_1" xmlns="http://www.w3.org/2000/svg" xmlns:xlink="http://www.w3.org/1999/xlink" x="0px" y="0px"
	 viewBox="0 0 219 219" style="enable-background:new 0 0 219 219;" xml:space="preserve">
<style type="text/css">
	.st0{fill:#BE1B2E;}
	.st1{fill:#FFFFFF;}
</style>
<path class="st0" d="M208.9,0H10.1C4.5,0,0,4.5,0,10.1V209c0,5.5,4.5,10,10.1,10H209c5.6,0,10.1-4.5,10.1-10.1V10.1
	C219,4.5,214.5,0,208.9,0z M215,208.9c0,3.3-2.7,6-6,6h-142l-13-20.2c-1.6-2.5-4.1-4.3-7-5L4,179.7V10.1c0-3.3,2.7-6,6-6h114.3
	l19.2,29.9c2.3,3.5,5.8,6,9.9,7L215,55.3L215,208.9L215,208.9z"/>
<path class="st1" d="M208,11.1h-1.8c-1.1,0-1.8,0.4-2.2,1.2c0,0,0,0,0.1,0c0,0,0,0,0,0c0.2,0,0.3,0.1,0.5,0.2c0.1,0,0.1,0.1,0.2,0.1
	c0,0,0,0,0,0c-0.1,0-0.3,0-0.4,0c0,0,0-0.1,0-0.1c0,0-0.1,0-0.1,0c0,0-0.1,0-0.1,0c-0.1-0.1-0.2-0.1-0.3-0.1
	c-0.1,0.3-0.2,0.7-0.2,1.1v0.9c0,0,0,0,0,0c0.1,0.1,0.1,0.1,0.2,0c0,0,0.1,0,0.1,0c0.1-0.1,0.2,0,0.3,0c0.1,0,0.1,0.1,0.2,0.1
	c0,0,0,0,0-0.1c0.1,0,0.1-0.1,0.2-0.1c0,0,0-0.1,0-0.1c0.1,0,0.1-0.1,0.2-0.1c0,0,0.1,0,0.1,0c0.1,0,0.2,0,0.2-0.1
	c0.1-0.1,0.1-0.1,0.2,0c0,0-0.1,0-0.1,0.1c0,0,0,0.1,0,0.1c0,0,0,0.1-0.1,0.1c0,0,0.1,0.1,0.1,0.1c0.1,0,0.1-0.1,0.1-0.1
	c0,0,0-0.1-0.1-0.1c0.2-0.1,0.4-0.2,0.5,0c0.1,0,0.1,0,0.2,0c0,0,0.1,0,0.1,0c0.1,0.1,0.2,0.1,0.3,0c0.1,0,0.2-0.1,0.3,0
	c0,0-0.1,0-0.1,0c0.1,0.1,0.2,0.1,0.3,0.1c0,0,0,0.1,0,0.1c0.1,0,0.2,0.1,0.2,0.1c0,0,0.1,0,0.1,0.1c0,0.1,0.1,0.1,0.2,0.2
	c0,0,0,0,0,0.1c0.1,0,0.2,0,0.3,0c0.1,0,0.3,0.1,0.4,0.2c0,0,0.1,0,0.1,0.1c0,0,0,0.1,0.1,0.1c0,0,0,0.1,0,0.1c0,0,0,0.1,0.1,0.1
	c0.1,0.1,0.1,0.1,0,0.2c-0.1,0-0.1,0.1-0.1,0.1c0,0,0,0,0,0c0,0,0,0.1,0,0.1c0,0,0.1,0,0.1,0c0,0,0-0.1,0-0.1c0,0,0.1,0,0.1-0.1
	c0,0,0,0,0,0.1c0,0,0.1,0,0.1,0c0,0,0.1,0,0.1,0c0,0.1,0,0.2-0.1,0.2c0,0,0,0,0,0c0,0,0.1-0.1,0.1-0.1c0.1-0.1,0.1-0.1,0.2-0.1
	c0.1,0,0.2,0.1,0.2,0.1c0.1,0,0.1,0,0.1,0.1c0,0,0,0,0,0.1c0.1-0.1,0.2-0.1,0.3,0c0,0,0.1,0,0.2,0c0.2,0,0.3,0.1,0.5,0.2
	c0,0,0.1,0,0.1,0.1v-3C210.3,12,209.5,11.1,208,11.1z M204.2,12.9c0.1,0,0.2,0,0.3,0C204.3,13,204.3,13,204.2,12.9z M205.5,12.9
	c-0.1,0-0.2,0-0.3,0c0,0-0.1,0-0.1,0.1c0,0,0-0.1,0-0.1c-0.2,0-0.3,0-0.4,0c0,0,0.1,0,0.1,0c0,0,0.1,0,0.1,0c0-0.1-0.1-0.1-0.1-0.2
	c0,0,0,0,0,0c0.1,0,0.2,0,0.4,0c0,0,0.1,0,0.1,0.1c0,0,0,0,0,0C205.5,12.8,205.5,12.9,205.5,12.9C205.5,12.9,205.5,12.9,205.5,12.9z
	 M205.9,13c-0.1,0.1-0.2,0.1-0.2,0C205.8,12.9,205.8,12.9,205.9,13c0-0.1,0-0.1,0-0.2C205.9,12.9,205.9,12.9,205.9,13z M162.7,23.2
	c0.1-0.5,0.3-1,0.4-1.3c0,0,0,0,0,0c0.1-0.2,0.2-0.3,0.2-0.4c0.1-0.1,0.2-0.2,0.4-0.2c0,0,0,0,0,0c0.1-0.1,0.3-0.1,0.4-0.1
	c0.1,0,0.1,0,0.2,0h0c0.1,0,0.2,0,0.4,0.1c0,0,0,0,0.1,0.1c0.1,0,0.1,0.1,0.2,0.1l0.1,0.1c0,0,0,0,0,0l0.1,0.1v-8.2
	c0-1.6-0.8-2.4-2.4-2.4H161c-1.6,0-2.4,0.8-2.4,2.4v8.4c0,1.6,0.8,2.4,2.4,2.4h1.5C162.6,23.9,162.7,23.5,162.7,23.2z M201.3,11.8
	c0,0.1,0.1,0.1,0.1,0.1c0.1,0,0.1,0,0.2,0.1c0,0-0.1,0.1-0.1,0.1c0,0.1,0,0.2,0,0.3c0,0.1,0,0.3,0.1,0.4c0,0,0,0.1,0.1,0.1
	c0,0,0,0.1,0.1,0.1c0.1,0,0.1,0.1,0.2,0.1c0,0,0.1,0,0.1,0c0,0,0,0,0,0c-0.1-0.8-0.4-1.3-1-1.7c0,0,0,0,0,0
	C201.2,11.6,201.2,11.7,201.3,11.8z M200.7,11.4C200.7,11.4,200.7,11.4,200.7,11.4c0.1-0.1,0.1-0.1,0.1-0.1c-0.1,0-0.2-0.1-0.3-0.1
	v0C200.5,11.3,200.6,11.4,200.7,11.4z M180,19.5c0.2-0.1,0.3-0.1,0.5-0.1c0.1,0,0.2,0,0.3,0c0,0,0,0,0.1,0c0.1-0.1,0.2-0.2,0.4-0.3
	c0,0,0.1,0,0.1,0c0.1,0,0.2-0.1,0.3-0.1c0,0,0.1,0,0.1,0h0c0,0,0.1,0,0.1,0v-7.7c0-0.2-0.1-0.3-0.3-0.3h-1.7c-0.2,0-0.3,0.1-0.3,0.3
	v8.4c0,0,0.1-0.1,0.1-0.1C179.8,19.6,179.9,19.6,180,19.5z M154.6,11.1h-1.8c-1.5,0-2.4,0.8-2.4,2.4v3.9c0,0.3,0.1,0.5,0.4,0.6
	l3.9,1.3v2.2c0,0.4-0.2,0.7-0.7,0.7h-0.8c-0.4,0-0.7-0.2-0.7-0.7v-1.3c0-0.2-0.1-0.3-0.3-0.3h-1.7c-0.2,0-0.3,0.1-0.3,0.3v1.7
	c0,1.6,0.8,2.4,2.4,2.4h1.8c1.6,0,2.4-0.8,2.4-2.4v-3.8c0-0.3-0.1-0.5-0.4-0.6l-3.9-1.3V14c0-0.4,0.2-0.7,0.7-0.7h0.8
	c0.4,0,0.7,0.2,0.7,0.7v1.3c0,0.2,0.1,0.3,0.3,0.3h1.7c0.2,0,0.3-0.1,0.3-0.3v-1.7C157,12,156.1,11.1,154.6,11.1z M187.8,15.6
	c0.1,0,0.2,0,0.3,0.1c0.1,0,0.3,0.1,0.4,0.2c0,0,0,0,0,0l0,0c0,0,0.1,0,0.1,0.1l0.1,0.1c0,0,0,0,0,0c0.2,0.2,0.3,0.4,0.4,0.6
	c0.1,0.2,0.1,0.5,0.1,0.9c0,0,0,0,0,0c0,0.2,0,0.6,0,0.9c0,0.4,0,0.7-0.1,1c0,0,0.1,0,0.1,0c0,0,0.1,0,0.1,0c0.1,0,0.2,0,0.2,0
	c0.3,0,0.5,0,0.6,0.1c0,0,0.1,0,0.1,0c0-0.1,0-0.1,0-0.2c0-0.1,0-0.3,0.3-0.5c0,0,0,0,0,0c0.2-0.1,0.3-0.1,0.5-0.1
	c0.1,0,0.2,0,0.3,0c0.3,0.1,0.6,0.2,0.9,0.5c0,0,0,0,0,0c0.2,0.2,0.4,0.5,0.4,0.7c0.1,0.2,0,0.5-0.1,0.8c-0.2,0.6-0.5,0.9-0.9,0.9
	c0,0,0.1,0.1,0.1,0.1c0.1,0.1,0.2,0.2,0.3,0.4c0.1,0.2,0.2,0.3,0.2,0.5c0,0.2,0.1,0.3,0.1,0.3c0,0.1,0,0.2,0,0.3c0,0.1,0,0.3,0,0.6
	c1-0.3,1.5-1,1.5-2.3v-8.4c0-1.6-0.8-2.4-2.4-2.4h-1.8c-1.6,0-2.4,0.8-2.4,2.4v2.2c0.1,0,0.1-0.1,0.2-0.1
	C187.6,15.6,187.7,15.6,187.8,15.6z M203.2,14c0,0.1,0,0.1,0,0.1c0,0,0.1,0,0.1,0C203.4,14.1,203.3,14,203.2,14z M190.1,20.9
	L190.1,20.9c-0.1,0-0.1,0-0.2,0.1c-0.1,0.1-0.3,0.1-0.5,0.2c-0.2,0-0.3,0.1-0.4,0.1c-0.1,0-0.2,0-0.2,0.1c0,0,0,0,0,0.1c0,0,0,0,0,0
	c0,0,0,0.1,0,0.2c0,0.1,0,0.3,0,0.4c0,0,0,0,0,0c-0.1,0.3-0.1,0.6-0.2,0.9c0,0.3-0.1,0.5-0.1,0.7c0,0.1,0,0.2,0,0.3c0,0,0,0.1,0,0.1
	c0.3,0.2,0.8,0.2,1.2,0.2h0.1c0-0.1,0-0.1,0-0.2c0-0.2,0.1-0.5,0.1-0.7c0-0.2,0.1-0.5,0.1-0.8v0c0.1-0.3,0.1-0.5,0.2-0.7
	c0.1-0.1,0.2-0.3,0.5-0.4c-0.2-0.1-0.2-0.1-0.3-0.2C190.2,21.3,190.1,21.2,190.1,20.9z M196,23.8C196,23.8,196,23.8,196,23.8
	c0,0,0-0.1,0-0.2v-0.2l0,0.1c0,0-0.1,0.1-0.1,0.2c0,0.1-0.1,0.3-0.2,0.6c-0.1,0.3-0.2,0.5-0.3,0.8c-0.1,0.2-0.2,0.5-0.3,0.7
	c-0.1,0.2-0.2,0.5-0.4,0.8c-0.1,0.3-0.3,0.6-0.4,0.9c-0.4,0.7-0.7,1.3-0.9,1.7c-0.3,0.4-0.5,0.7-0.7,1c-0.2,0.2-0.4,0.3-0.5,0.2
	c0,0-0.1-0.1-0.1-0.2c0-0.1-0.1-0.3-0.1-0.4c0-0.1,0-0.1,0-0.2c0-0.1,0-0.1,0-0.3c0-0.1,0-0.3,0-0.4c0-0.2,0-0.4,0-0.7
	c0-0.2,0-0.4,0-0.6s0-0.5,0-0.7c0-0.2,0-0.4,0-0.7c0-0.2,0-0.4,0-0.6c0-0.6,0.1-1.1,0.1-1.3c0-0.3,0-0.5,0-0.6c0-0.1,0-0.2,0-0.3
	s0-0.2-0.1-0.3c0-0.1-0.1-0.3-0.2-0.4c-0.1-0.1-0.1-0.2-0.2-0.3c0,0-0.1-0.1-0.1-0.1c0,0-0.1-0.1-0.1-0.1c0,0-0.1-0.1-0.2-0.1
	c0,0-0.1,0-0.1,0c0,0-0.1,0-0.2,0c-0.1,0-0.2,0.1-0.3,0.2c0,0.1-0.1,0.3-0.1,0.5c0,0.3-0.1,0.6-0.1,0.8c0,0.2-0.1,0.4-0.1,0.7
	S190,24.7,190,25c0,0.3,0,0.7,0,1.2c0,0,0,0.1,0,0.1c-0.3,0.6-0.6,1.2-1,1.7c-0.4,0.6-0.7,1.1-0.9,1.4c-0.1,0.1-0.2,0.2-0.3,0.4
	c-0.1,0.1-0.2,0.2-0.2,0.2c0,0,0,0,0,0c0,0,0-0.1,0-0.3c0-0.1,0-0.2,0-0.4s0-0.4,0-0.7c0-0.2,0-0.4,0-0.7c0-0.2,0-0.4,0-0.4
	c0-0.3,0.1-0.5,0.1-0.8c0-0.3,0.1-0.6,0.1-0.9c0-0.3,0.1-0.6,0.1-0.8c0-0.3,0.1-0.5,0.1-0.6c0-0.1,0-0.3,0-0.4c0-0.1,0-0.3,0-0.4
	c0-0.2,0.1-0.4,0.1-0.7c0-0.3,0.1-0.6,0.2-0.9c0-0.1,0-0.2,0-0.4c0-0.1,0-0.2,0-0.3c0-0.2,0.1-0.3,0.1-0.3c0,0,0.2-0.1,0.4-0.2
	c0.1,0,0.2-0.1,0.4-0.1c0.1,0,0.3-0.1,0.4-0.1c0.4-0.2,0.7-0.2,0.7-0.2c0,0,0,0,0,0c0,0.1,0,0.2,0,0.3c0,0.2,0.1,0.3,0.2,0.3
	c0.1,0,0.2,0.1,0.5,0.2c0.1,0,0.2,0.1,0.3,0.1c0,0,0.1,0,0.2,0c0.2,0,0.4-0.2,0.6-0.6c0.1-0.2,0.1-0.4,0.1-0.6
	c0-0.2-0.1-0.4-0.3-0.5c-0.2-0.2-0.5-0.3-0.7-0.4c-0.2,0-0.4,0-0.5,0c-0.1,0-0.1,0.1-0.1,0.1c0,0,0,0.1,0.1,0.1c0.1,0,0.1,0.1,0,0.2
	c-0.1,0.1-0.2,0.2-0.2,0.4c0,0.1,0,0.1,0,0.2c0,0,0,0,0-0.1c0-0.1-0.1-0.1-0.1-0.2c-0.1-0.1-0.2-0.1-0.3-0.2c-0.1,0-0.3-0.1-0.5-0.1
	c-0.1,0-0.2,0-0.3,0c-0.1,0-0.2,0-0.3,0c-0.2,0-0.3,0-0.3,0c0,0,0,0,0-0.1s0-0.1,0-0.3c0-0.3,0.1-0.6,0.1-1s0-0.7,0-0.9
	c0-0.4,0-0.6-0.1-0.8c0-0.1-0.1-0.3-0.3-0.5l-0.1-0.1l0,0c0,0-0.1,0-0.1-0.1c0-0.1-0.1-0.1-0.2-0.1c-0.1,0-0.1,0-0.1,0
	c0,0-0.1,0-0.3,0c-0.1,0-0.2,0.1-0.2,0.1s-0.1,0.2-0.1,0.5c0,0.1,0,0.3-0.1,0.6c0,0.2-0.1,0.5-0.1,0.7c0,0.1,0,0.2-0.1,0.4
	c0,0.2,0,0.4-0.1,0.6s0,0.4-0.1,0.6c0,0.2,0,0.3,0,0.4c0,0.2-0.1,0.3-0.1,0.4c0,0.1,0,0.2-0.1,0.2c0,0-0.1,0.1-0.3,0.1
	c-0.1,0-0.2,0.1-0.4,0.1c-0.2,0.1-0.3,0.1-0.5,0.2c-0.1,0-0.3,0.1-0.4,0.1c-0.1,0-0.2,0.1-0.2,0.1c0,0-0.1,0.1,0,0.1
	c0,0,0.1,0.1,0.1,0.2l0.1,0.2c0,0,0,0.1,0.1,0.1c0,0,0.1,0,0.1,0.1c0.1,0,0.2,0,0.4,0c0.1,0,0.3,0,0.5,0c0.1,0,0.2,0,0.2,0
	c0,0,0.1,0,0,0.1c0,0,0,0.2-0.1,0.4c0,0.2-0.1,0.4-0.1,0.6c0,0.2-0.1,0.5-0.1,0.7c0,0.2-0.1,0.4-0.1,0.5c0,0.1,0,0.2,0,0.4
	c0,0.2,0,0.3,0,0.5s0,0.4,0,0.5s0,0.3,0,0.4c0,0.1,0,0.3,0,0.5s0,0.5,0,0.7c0,0.2,0,0.5,0,0.7c0,0.2,0,0.4,0,0.5
	c0.1,0.8,0.2,1.3,0.4,1.8c0.1,0.2,0.2,0.3,0.3,0.4c0.1,0.1,0.2,0.2,0.4,0.2c0,0,0.1,0,0.2,0.1c0.1,0,0.1,0,0.2,0.1
	c0,0,0.1,0.1,0.1,0.1c0,0,0.1,0,0.1,0c0.1,0.1,0.3,0,0.5,0c0.2-0.1,0.5-0.4,0.8-0.9c0.4-0.6,0.8-1.3,1.1-2.1c0,0.2,0,0.3,0,0.4
	c0,0.2,0,0.4,0.1,0.6c0,0.2,0.1,0.3,0.1,0.5c0.3,0.8,0.7,1.3,1.4,1.4c0.1,0,0.1,0,0.2,0c0.1,0,0.2,0,0.2,0c0.1,0,0.2,0.1,0.3,0.1
	c0.1,0,0.2,0,0.4,0c0.1,0,0.3-0.1,0.4-0.2c0.2-0.1,0.4-0.4,0.6-0.7c0.2-0.3,0.5-0.8,0.8-1.5c0.3-0.6,0.5-1.1,0.7-1.6
	c0.2-0.5,0.4-1,0.5-1.6c0.1-0.3,0.1-0.6,0.2-1C196,24.1,196.1,23.9,196,23.8C196.1,23.8,196.1,23.8,196,23.8z M191.8,20.7
	c0,0,0-0.1,0-0.1c0,0,0-0.1,0-0.1c0-0.2,0.1-0.3,0.1-0.3c0.1,0,0.1,0.1,0,0.4C191.8,20.8,191.8,20.8,191.8,20.7L191.8,20.7z
	 M187.9,19.6c0-0.2,0.1-0.4,0.1-0.6c0-0.2,0-0.5,0.1-0.7c0-0.2,0-0.4,0-0.6c0-0.2,0-0.3,0-0.4c0-0.1,0-0.2,0-0.3c0-0.1,0-0.1,0-0.1
	c0,0,0.1,0.1,0.1,0.3c0,0.2,0,0.5-0.1,0.9c0,0.2,0,0.4-0.1,0.6c0,0.2,0,0.5-0.1,0.7c0,0.2,0,0.4-0.1,0.5c0,0.1,0,0.2,0,0.2
	c-0.1,0-0.1,0-0.1,0C187.9,20,187.9,19.9,187.9,19.6z M187.3,25.1c-0.1,0.9-0.2,1.7-0.2,2.4c0,0.3,0,0.6,0,0.7c0,0.1,0,0.2,0,0.1
	c0,0,0-0.1,0-0.3c0-0.2,0-0.4,0-0.6c0-0.2,0-0.5,0-0.7c0-0.3,0-0.5,0-0.7c0-0.2,0-0.5,0.1-0.7c0-0.3,0.1-0.5,0.1-0.8
	s0.1-0.6,0.1-0.8c0-0.3,0.1-0.5,0.1-0.7c0.1-0.7,0.2-1.1,0.2-1.3s0.1-0.3,0.1-0.3c0.1,0,0.1,0,0.1,0c0,0,0,0.1,0,0.2
	c0,0.1-0.1,0.3-0.1,0.5C187.5,23.1,187.4,24.2,187.3,25.1z M190,27.3c0,0.1-0.1,0.1-0.1,0.2c-0.1,0.2-0.2,0.4-0.2,0.5
	c-0.1,0.2-0.1,0.2-0.1,0.2c0,0,0,0,0-0.1c0,0,0-0.1,0-0.1c0.1-0.2,0.1-0.3,0.2-0.5c0.1-0.1,0.1-0.3,0.2-0.4c0,0,0,0,0,0
	C190,27.2,190,27.3,190,27.3z M191.5,23.5c0,0.2,0,0.4-0.1,0.8c0,0.7-0.1,1.3-0.1,2c0,0.7,0,1.3,0,1.8c0,0.3,0,0.6,0,0.8
	c0,0.2,0,0.3,0,0.3c0,0-0.1-0.1-0.1-0.4c0-0.1,0-0.2,0-0.5s0-0.5,0-0.8c0-0.3,0-0.6,0-0.9s0-0.6,0-0.8c0-0.7,0.1-1.2,0.1-1.6
	C191.3,23.8,191.4,23.6,191.5,23.5l0-0.2c0,0,0,0,0-0.1c0,0,0-0.1,0,0C191.5,23.2,191.5,23.3,191.5,23.5z M185.9,22.2
	c0,0-0.1,0-0.1,0h-3.4c0,0.1,0,0.2,0,0.3c0,0.1,0,0.1,0,0.1c0.1,0.1,0.2,0.3,0.2,0.4c0,0.1-0.1,0.3-0.2,0.3c-0.1,0-0.2,0.1-0.3,0.1
	c-0.1,0-0.2,0-0.3,0c0,0,0,0-0.1,0s0,0-0.1,0c0,0,0,0-0.1,0c-0.1,0-0.2-0.1-0.3-0.1c-0.1-0.1-0.2-0.1-0.3-0.2
	c-0.2-0.2-0.3-0.4-0.4-0.6c0,0.1-0.1,0.1-0.1,0.2c-0.1,0.3-0.2,0.6-0.4,1c-0.1,0.3-0.2,0.6-0.3,0.9c0,0,0,0,0,0h5.7c0,0,0,0,0-0.1
	c0-0.2,0-0.3,0-0.4c0-0.1,0-0.3,0.1-0.5c0-0.2,0.1-0.4,0.1-0.7C185.9,22.5,185.9,22.3,185.9,22.2z M180.5,21.6
	c0.1-0.2,0.1-0.3,0.2-0.3c0,0,0-0.1,0.1,0l0,0.2c0,0.2,0.1,0.5,0.2,0.7c0.1,0.2,0.2,0.4,0.4,0.6c0,0,0.1,0.1,0.2,0.1
	c0.1,0,0.2,0.1,0.2,0.1c0,0,0.1,0,0.1,0c0,0,0.1,0,0.1,0c0.1,0,0.2,0,0.2,0c0,0,0-0.1,0-0.1c0,0-0.1-0.1-0.1-0.3
	c0-0.1-0.1-0.3-0.1-0.4c0-0.1,0-0.3,0.1-0.7c0-0.4,0.1-0.7,0.2-1.1c0-0.1,0-0.2,0-0.3c0-0.1,0-0.1,0-0.1c0,0,0-0.1-0.1-0.2l-0.1-0.1
	c0,0,0,0,0,0c0,0.1-0.1,0-0.1,0c0-0.1,0-0.1-0.1-0.1h-0.1c0,0-0.1,0-0.3,0c-0.2,0.1-0.3,0.2-0.4,0.3c0,0.1-0.1,0.1-0.1,0.1
	c0,0-0.1-0.1-0.2-0.1c-0.1,0-0.2,0-0.2,0c-0.1,0-0.2,0-0.3,0.1c-0.1,0-0.1,0.1-0.2,0.1c0,0-0.1,0.1-0.2,0.2
	c-0.1,0.1-0.2,0.2-0.3,0.4c-0.1,0.1-0.2,0.4-0.4,0.7c-0.2,0.4-0.3,0.7-0.5,1.1c-0.1,0.4-0.3,0.8-0.5,1.3c0,0.1-0.1,0.1-0.1,0.2
	c0,0.1,0,0.1,0,0.2c0,0.1-0.1,0.1-0.1,0.2h0c0,0,0-0.1,0-0.2c0-0.1,0-0.4,0-0.8v-1c0,0-0.1-0.1-0.2-0.2c-0.1-0.1-0.2-0.2-0.2-0.2
	l0,0c0,0,0,0,0,0c0,0,0-0.1,0-0.1c0,0,0-0.1-0.1-0.1c0,0-0.1,0-0.1,0c-0.1,0.1-0.1,0.1-0.1,0c0-0.1-0.1,0-0.3,0
	c-0.1,0.1-0.2,0.1-0.3,0.2c-0.1,0.2-0.2,0.5-0.2,0.9c-0.1,0.4-0.1,0.9-0.1,1.4c0,0.3,0,0.6,0,1c0,0.2,0,0.4,0,0.5
	c-0.1,0-0.3,0.1-0.4,0.1c-0.3,0.1-0.5,0.1-0.6,0.1c0,0,0,0,0,0s0,0,0-0.1c0-0.1,0-0.2,0-0.3s0-0.4,0-0.6c0-0.4,0-0.7,0-0.9
	s0-0.3,0-0.4c-0.1-0.5-0.2-0.8-0.4-1.1c-0.2-0.4-0.5-0.7-1-0.9c-0.4-0.2-0.8-0.3-1.2-0.2c-0.1,0-0.3,0.1-0.5,0.1
	c-0.2,0.1-0.3,0.2-0.4,0.3c-0.2,0.1-0.3,0.3-0.4,0.5c-0.1,0.2-0.2,0.4-0.3,0.6c-0.1,0.2-0.1,0.4-0.1,0.5c0,0.1,0,0.3,0,0.6l0,0.6
	l-0.1,0.1c-0.2,0.1-0.3,0.3-0.4,0.5c-0.1,0.2-0.2,0.4-0.3,0.7c-0.3,1.1-0.4,2-0.1,2.9c0.1,0.4,0.3,0.8,0.6,1.1
	c0.3,0.3,0.5,0.5,0.9,0.6c0,0,0.1,0.1,0.2,0.1c0.1,0,0.2,0,0.2,0c0.1,0,0.2,0,0.3,0c0.1,0,0.2,0,0.2,0.1c0,0,0.1,0,0.1,0
	c0,0,0.1,0,0.1,0c0,0,0.1,0,0.2,0c0.1,0,0.2,0,0.3,0c0.3-0.1,0.6-0.4,1-0.9c0.2-0.4,0.4-0.8,0.6-1.3c0.2-0.5,0.3-1,0.4-1.6
	c0.1-0.3,0.1-0.5,0.1-0.5c0,0,0.1-0.1,0.2-0.1c0.3-0.1,0.6-0.2,0.9-0.3l0,0c0,0,0,0.1,0,0.1c0,0.2,0,0.5,0.1,0.8s0.1,0.6,0.1,0.9
	c0,0.3,0.1,0.6,0.1,0.8c0,0.2,0.1,0.4,0.1,0.6c0.1,0.4,0.2,0.7,0.4,1c0.2,0.3,0.4,0.4,0.6,0.5c0.1,0,0.1,0,0.2,0c0,0,0,0,0-0.1v-0.1
	c0,0,0-0.1,0.1,0c0.1,0,0.1,0,0.1,0c0,0,0,0,0-0.1c0,0,0-0.1,0-0.3c0-0.2,0-0.4,0.1-0.7c0-0.3,0.1-0.6,0.1-0.8
	c0.1-0.5,0.2-1,0.3-1.6c0.1-0.6,0.3-1.1,0.4-1.6c0.1-0.3,0.2-0.6,0.3-1c0.1-0.3,0.2-0.7,0.4-1c0.1-0.3,0.2-0.7,0.4-1
	C180.3,22,180.4,21.8,180.5,21.6z M181.7,20.4c0-0.1,0-0.1,0.1-0.1c0,0,0,0,0,0.1c0,0,0,0.1,0,0.1c0,0,0,0.1,0,0.1
	c0,0.1-0.1,0.3-0.1,0.5c0,0.2,0,0.3,0,0.5c0,0.3,0,0.4-0.1,0.3c0,0,0-0.1,0-0.4C181.5,21.1,181.6,20.8,181.7,20.4z M171.2,26.1
	c0,0.3-0.1,0.5-0.1,0.7c0,0.2,0,0.4,0,0.8V28c0,0.1,0,0.2,0,0.2c0,0-0.1,0-0.1-0.2s0-0.3,0-0.5c0-0.2,0-0.4,0-0.7s0-0.4,0-0.6
	c0-0.2,0.1-0.4,0.1-0.5c0-0.1,0.1-0.1,0.1-0.1C171.3,25.7,171.3,25.8,171.2,26.1z M171.5,23.8c0,0.1,0,0.2,0,0.3c0,0.1,0,0.2,0,0.2
	c0,0-0.1,0-0.1-0.2c0-0.2,0-0.4,0-0.6c0-0.2,0.1-0.5,0.1-0.7c0.1-0.2,0.1-0.4,0.2-0.5c0.1-0.1,0.1,0,0,0.3c-0.1,0.2-0.1,0.4-0.2,0.6
	C171.6,23.3,171.5,23.5,171.5,23.8z M172.8,29.8C172.8,29.8,172.8,29.9,172.8,29.8L172.8,29.8C172.9,29.8,172.9,29.8,172.8,29.8z
	 M174.3,26.7c0,0.1-0.1,0.2-0.1,0.4s-0.1,0.3-0.2,0.4c-0.1,0.1-0.1,0.3-0.2,0.4c-0.2,0.4-0.4,0.8-0.7,1.1s-0.5,0.7-0.7,0.8
	c-0.1,0.1-0.2,0.1-0.2,0.1c0,0-0.1-0.2-0.3-0.5c-0.1-0.2-0.1-0.3-0.1-0.5c0-0.1-0.1-0.3-0.1-0.6c0-0.2,0-0.4,0-0.5
	c0-0.1,0-0.4,0-0.7c0-0.5,0-0.8,0-0.9s0-0.2,0.1-0.2c0,0,0.1,0,0.2,0c0,0,0.1,0.1,0.2,0.1c0.1,0,0.2,0,0.3,0c0.1,0,0.2,0,0.3,0
	c0.1,0,0.2,0,0.3,0c0.1,0,0.2,0,0.3,0c0.1,0,0.2,0,0.4,0c0.3,0,0.4,0,0.5,0s0,0,0,0C174.3,26.5,174.3,26.6,174.3,26.7z M174.5,25.6
	c0,0.2-0.1,0.3-0.1,0.3c0,0-0.1,0.1-0.2,0.1c-0.1,0-0.2,0-0.3,0s-0.3,0-0.4,0c-0.1,0-0.3,0-0.4,0c-0.1,0-0.2,0-0.2,0
	c-0.3,0-0.5-0.2-0.7-0.5c-0.1-0.3-0.2-0.5-0.2-0.7c0-0.1,0-0.2,0-0.2c0,0,0-0.1-0.1-0.1l-0.1-0.1V24c0-0.4,0-0.6,0-0.8
	s0.1-0.4,0.2-0.7c0.1-0.3,0.3-0.5,0.5-0.7c0.3-0.3,0.6-0.3,0.9-0.2c0.1,0,0.2,0.1,0.3,0.2c0.1,0.1,0.2,0.2,0.3,0.3
	c0.2,0.3,0.4,0.6,0.5,1.1c0,0.1,0,0.2,0,0.4c0,0.2,0,0.4,0,0.5s0,0.4,0,0.6s0,0.3,0,0.4C174.6,25.2,174.6,25.4,174.5,25.6z
	 M174.7,27.2c0,0.1,0,0.2,0,0.2l0,0.1l0-0.1C174.6,27.3,174.6,27.2,174.7,27.2l0-0.1L174.7,27.2z M174.8,26.5c0,0,0,0.1,0,0.2l0,0.1
	l0-0.1c0-0.2,0-0.3,0.1-0.3C174.9,26.4,174.9,26.5,174.8,26.5z M175.1,24.9c0,0.2,0,0.4,0,0.5c0,0.1,0,0.2,0,0.3c0,0,0,0.1,0,0.1
	c0,0,0,0-0.1,0v-0.2c0-0.2,0.1-0.4,0.1-0.8c0-0.3,0-0.7,0-0.9c0-0.3,0-0.4,0-0.4c0,0,0,0,0,0c0,0,0,0.1,0,0.3c0,0.1,0,0.3,0,0.5
	C175.1,24.5,175.1,24.7,175.1,24.9z M177.6,22.4c0,0.2,0,0.4-0.1,0.6c0,0.4,0,0.7,0,1c0,0.3,0,0.5,0,0.7c0,0.2,0,0.4,0,0.6
	c0,0.2,0,0.4,0,0.6c0,0.6,0,0.9,0,1c0,0,0,0.1,0,0.1c0,0,0,0,0,0c0,0,0-0.1,0-0.2c0-0.1,0-0.1,0-0.2c0-0.1,0-0.1,0-0.2
	c0-0.2,0-0.4,0-0.6s0-0.5,0-0.7s0-0.6,0-0.9c0-0.3,0-0.7,0.1-1.2c0-0.6,0.1-0.9,0.1-0.9c0,0,0-0.1,0.1-0.1c0,0,0,0,0,0
	C177.6,22.1,177.6,22.2,177.6,22.4z M178.7,25.1c0,0.1,0,0.1,0,0.2c0,0.1,0,0.2-0.1,0.2c-0.2,0.6-0.3,1.2-0.4,1.6
	c-0.1,0.5-0.2,0.9-0.2,1.3c0,0.1,0,0.2,0,0.2c0,0.1,0,0.1,0,0.1c0,0,0,0-0.1,0c0-0.1,0-0.2,0-0.3c0-0.1,0.1-0.4,0.1-0.7
	c0.1-0.4,0.1-0.8,0.3-1.3c0.1-0.5,0.2-0.9,0.3-1.2c0-0.1,0.1-0.3,0.1-0.4c0-0.1,0-0.1,0-0.1C178.7,24.9,178.7,25,178.7,25.1z
	 M202.1,13.4c-0.1-0.1-0.1-0.1-0.2,0c-0.1,0.1-0.2,0-0.4,0c-0.1-0.1-0.3-0.1-0.4-0.2c0,0-0.1-0.1-0.1-0.1c0,0-0.1,0-0.1,0
	c-0.1,0-0.2,0-0.2-0.1c0,0-0.1,0-0.1-0.1c0,0-0.1-0.1-0.1-0.1c0,0,0-0.1,0-0.1c0,0,0-0.1,0-0.2c0-0.2-0.2-0.2-0.3-0.4
	c-0.1-0.1-0.2-0.2-0.3-0.3c0,0,0-0.1,0-0.1c0,0-0.1-0.1-0.1-0.1c0,0-0.1-0.1-0.1-0.1c0,0,0,0,0,0c-0.1-0.1-0.2-0.3-0.3-0.5l0,0
	c0-0.1-0.1-0.1-0.1-0.1c0,0-0.1,0-0.1,0c0,0,0,0.1,0,0.1c0,0.1,0,0.1,0.1,0.2c0.1,0.1,0.2,0.2,0.2,0.3c0,0,0,0.1,0.1,0.1
	c0.1,0.1,0.2,0.3,0.2,0.4c0.1,0,0.1,0.1,0.2,0.2c0,0,0,0-0.1,0.1c-0.1-0.1-0.2-0.2-0.3-0.3c0,0,0,0,0-0.1c0-0.1-0.1-0.2-0.2-0.2
	c-0.1,0-0.1-0.1-0.2-0.2c0,0,0.1,0,0.1,0c0,0,0,0,0-0.1c0-0.1-0.1-0.2-0.1-0.2c-0.1,0-0.1-0.1-0.1-0.1c0,0,0-0.1,0-0.1h-0.9
	c-1.6,0-2.4,0.8-2.4,2.4V22c0,0.5,0.1,0.9,0.2,1.2c0.1-0.1,0.2-0.1,0.3-0.1c0,0,0.1,0,0.1,0c0.2,0.1,0.3,0.2,0.3,0.4v0.1
	c0.1,0.1,0.1,0.2,0.1,0.3c0,0,0,0.1,0,0.2c0.4,0.2,0.8,0.3,1.4,0.3h1.8c1.5,0,2.4-0.8,2.4-2.4v-1.8c0-0.2-0.1-0.3-0.3-0.3h-1.7
	c-0.2,0-0.3,0.1-0.3,0.3v1.3c0,0.4-0.2,0.7-0.7,0.7h-0.9c-0.4,0-0.7-0.2-0.7-0.7V14c0-0.4,0.2-0.7,0.7-0.7h0.9
	c0.4,0,0.7,0.2,0.7,0.7v1.3c0,0.2,0.1,0.3,0.3,0.3h1.7c0.2,0,0.3-0.1,0.3-0.3L202.1,13.4C202.1,13.5,202.1,13.5,202.1,13.4
	C202.1,13.5,202.1,13.4,202.1,13.4z M210.2,17.7c0,0.1,0,0.1,0,0.2c0,0.2,0,0.3,0,0.5c0,0.1,0,0.1-0.1,0.2c0,0,0,0,0,0
	c0,0.1-0.1,0.2-0.1,0.3c0,0,0,0.1,0,0.1c0,0.1,0,0.1-0.1,0.1c-0.1,0,0,0.1-0.1,0.1c-0.1,0-0.1,0-0.2,0c0,0-0.1,0-0.1,0h0
	c-0.1,0.1-0.3,0.2-0.4,0.2c-0.1,0-0.1,0.1-0.2,0.1c0,0.1,0,0.3,0,0.4c0,0.1,0,0.1-0.1,0.1c-0.1,0.1-0.1,0.1-0.2,0.2
	c0,0.1-0.1,0.1-0.1,0.2c0,0,0,0.1-0.1,0.1c0,0,0,0,0,0c0-0.1,0.1-0.1,0.1-0.2c0,0,0,0-0.1,0c0,0,0,0,0,0c0,0,0,0,0,0
	c0,0.1-0.1,0.1-0.1,0.2s0,0.1-0.1,0.2c0,0,0,0.1-0.1,0.1c0,0-0.1,0.1-0.1,0.1c0,0,0.1,0.1,0.1,0.1l0,0c0,0-0.1-0.1-0.1-0.1
	c0,0,0,0,0,0c-0.1,0.1-0.2,0.1-0.3,0c0,0-0.1,0-0.1,0c-0.1,0-0.1,0-0.1-0.1c0,0.1,0,0.1,0,0.1c0,0,0,0,0.1,0c0,0,0.1,0.1,0.1,0.1
	c0,0.1,0,0.1,0,0.1s0.1,0.1,0,0.1c-0.1,0.1-0.2,0.2-0.3,0.3c-0.1,0-0.3,0.1-0.5,0c0,0,0,0,0,0c0,0.1,0,0.1,0,0.2c0,0,0,0.1,0,0.1
	c0,0.1-0.1,0.1-0.2,0.1c-0.1,0-0.1,0-0.2-0.1c0,0.1,0,0.2,0.1,0.3c0,0,0-0.1,0.1,0c0,0,0,0.1,0,0.1c-0.1,0-0.1-0.1-0.2,0
	c0,0,0,0,0.1,0c0,0,0,0,0,0c-0.1,0-0.1,0.1-0.1,0.2c0,0.1,0,0.1-0.1,0.2c-0.1,0-0.2,0-0.2,0.1c-0.1,0.1,0,0.2,0.1,0.2
	c0,0,0.1,0,0.1,0c0,0,0,0,0.1,0c0,0.1,0,0.2-0.1,0.2c-0.1,0-0.1,0.1-0.1,0.2c0,0,0,0.1-0.1,0.1c-0.2,0.1-0.2,0.2-0.1,0.3
	c0,0,0,0.1,0.1,0.1c-0.1,0-0.1,0-0.1,0c0.1,0,0.3,0,0.5,0h1.8c1.6,0,2.4-0.8,2.4-2.4v-4.4c0,0.1-0.1,0.1-0.1,0.2
	C210.2,17.7,210.2,17.7,210.2,17.7z M207.1,24.3C207.1,24.2,207.1,24.2,207.1,24.3c-0.1-0.1-0.1,0-0.1,0c0,0,0,0-0.1,0
	c0,0,0.1-0.1,0.1-0.1c0,0,0.1,0,0.1,0C207.1,24.1,207.1,24.2,207.1,24.3c0-0.1,0.1-0.1,0.1-0.2c0,0,0.1,0,0.1,0c0,0,0,0,0,0
	C207.3,24.2,207.2,24.2,207.1,24.3z M169.9,24.9c0.1-0.2,0.3-0.4,0.5-0.6c0,0,0,0,0,0l0,0l0-0.4c0-0.3,0-0.5,0-0.7s0.1-0.4,0.1-0.6
	c0,0,0,0,0,0c0.1-0.2,0.2-0.5,0.4-0.7c0.1-0.2,0.3-0.4,0.4-0.5v-2.5l3-7.3c0.1-0.2,0-0.4-0.3-0.4h-1.7c-0.2,0-0.3,0.1-0.4,0.3
	l-1.8,4.7l-1.8-4.7c-0.1-0.2-0.2-0.3-0.4-0.3h-1.7c-0.2,0-0.4,0.1-0.3,0.4l3,7.3v3.4c0.1,0.1,0.1,0.2,0.2,0.3c0.1,0.3,0.2,0.6,0.3,1
	c0,0.2,0.1,0.5,0.1,0.8c0,0.2,0,0.4,0,0.5c0,0.2,0,0.3,0,0.5C169.7,25.2,169.8,25,169.9,24.9z M168.9,22.7c-0.1-0.2-0.2-0.4-0.5-0.6
	c-0.2-0.2-0.4-0.3-0.6-0.4c-0.1,0-0.2,0-0.3,0c-0.1,0-0.1,0-0.2,0c0,0-0.1,0-0.1,0.1c-0.2,0.1-0.4,0.2-0.6,0.3
	c-0.3,0.3-0.6,0.8-0.9,1.6c-0.3,0.8-0.7,1.6-1,2.6c-0.1,0.3-0.2,0.5-0.2,0.5v0c0,0,0,0,0,0c0,0,0-0.1,0-0.1c0,0,0-0.1,0-0.2
	c0-0.1,0-0.2,0-0.4s0-0.4,0.1-0.7c0-0.2,0.1-0.4,0.1-0.7c0-0.2,0-0.5,0.1-0.6c0-0.1,0-0.3,0.1-0.5c0-0.2,0-0.3,0.1-0.5
	c0-0.1,0-0.3,0-0.4c0-0.1,0-0.2,0-0.3V22l-0.1-0.1l-0.1-0.1c0,0,0,0,0,0.1c0,0.1,0,0.1-0.1,0.1c0,0,0-0.1,0-0.1c0-0.1,0-0.1,0-0.1
	c-0.1,0-0.2-0.1-0.2,0c0,0,0,0,0,0c0,0-0.1,0-0.3,0c-0.1,0-0.1,0.1-0.2,0.1s-0.1,0.2-0.2,0.3c-0.1,0.3-0.3,0.7-0.4,1.2
	c-0.1,0.5-0.3,1.2-0.4,2c-0.1,0.3-0.1,0.7-0.2,1.2c-0.1,0.5-0.1,1-0.1,1.4c0,0.1,0,0.3,0,0.5c0,0.2,0,0.4,0,0.6c0,0.2,0,0.4,0,0.6
	s0,0.4,0,0.5c0.1,1.1,0.1,2,0.2,2.9c0.1,0.8,0.2,1.5,0.4,1.9c0,0,0.1,0.1,0.1,0.2s0,0.1,0.1,0.2c0,0,0,0.1,0,0.2s0,0.1,0,0.2
	c0,0.2,0.1,0.3,0.1,0.3c0,0,0.1,0.1,0.1,0.1h0.2h0.3h0.2c0.1,0,0.1,0,0.1,0c0,0,0.1-0.1,0-0.2c0,0,0-0.1,0-0.3c0-0.1,0-0.4,0-0.7
	c0-0.3,0-0.6-0.1-0.9c0-0.4,0-0.7,0-0.9s0-0.4,0-0.5c0-0.3,0.1-0.7,0.2-1.2c0.1-0.4,0.2-0.9,0.3-1.3c0-0.2,0.1-0.4,0.1-0.4
	c0-0.1,0-0.1,0.1-0.1l0.2,0.2c0.5,0.5,0.9,0.7,1.3,0.7c0,0,0.1,0,0.2,0c0.1,0,0.1,0,0.2,0.1c0.1,0,0.2,0.1,0.2,0.1c0,0,0.1,0,0.2,0
	c0.1,0,0.2,0,0.2,0c0,0,0.1,0,0.2,0c0.4-0.1,0.7-0.4,0.9-0.8c0.1-0.2,0.2-0.5,0.3-0.8c0.1-0.4,0.2-0.8,0.3-1.2
	c0.1-0.4,0.1-0.9,0.2-1.4c0-0.5,0-1,0-1.5c0-0.5,0-0.9-0.1-1.2C169.1,23.3,169,23,168.9,22.7z M163.9,35.6c0,0-0.1-0.1-0.1-0.2
	c0-0.1,0-0.2,0-0.2c0,0,0.1,0.1,0.1,0.2C164,35.5,164,35.6,163.9,35.6z M164.1,24.5c-0.1,0.6-0.2,1.2-0.2,1.8
	c-0.1,0.6-0.1,1.2-0.2,1.8c0,0.6-0.1,1.1-0.1,1.6c0,0.7,0,1.1-0.1,1.1c0,0,0,0.1,0,0.1c0,0,0,0,0,0c0,0,0-0.1,0-0.3s0-0.4,0-0.6
	s0-0.5,0-0.7c0-0.3,0-0.5,0-0.8c0-0.1,0-0.3,0-0.5s0-0.5,0.1-0.7c0-0.2,0-0.5,0.1-0.7s0-0.4,0.1-0.5c0-0.3,0.1-0.7,0.1-1.1
	c0.1-0.4,0.1-0.8,0.2-1.2c0.1-0.4,0.1-0.7,0.2-0.9c0-0.3,0.1-0.4,0.1-0.4c0.1,0,0.1,0,0.1,0c0,0,0,0.1,0,0.1c0,0,0,0.1,0,0.3
	C164.3,23.4,164.2,23.9,164.1,24.5z M166.9,22.1C167,22.1,167,22.1,166.9,22.1C167,22.1,167,22.1,166.9,22.1L166.9,22.1
	C167,22.1,167,22.2,166.9,22.1C166.9,22.2,166.9,22.2,166.9,22.1C166.9,22.2,166.9,22.2,166.9,22.1z M167.6,24.3
	c0,0.4,0,0.7-0.1,1.1c0,0.4-0.1,0.8-0.1,1.2c0,0.4-0.1,0.8-0.1,1.1c-0.2,1.2-0.4,1.9-0.7,2.2c-0.1,0.1-0.2,0.1-0.2,0.1
	c-0.1,0-0.3-0.1-0.4-0.3c-0.2-0.1-0.3-0.3-0.5-0.5c-0.1-0.1-0.2-0.2-0.2-0.3c-0.1-0.1-0.1-0.2-0.2-0.3c0,0,0-0.1,0.1-0.3
	c0-0.2,0.1-0.4,0.2-0.6c0.1-0.2,0.1-0.5,0.2-0.7c0.1-0.2,0.1-0.5,0.2-0.6c0.3-0.8,0.5-1.4,0.7-1.9c0.2-0.5,0.4-1,0.7-1.4
	c0.1-0.1,0.2-0.2,0.2-0.4c0.1-0.1,0.1-0.2,0.2-0.2c0,0,0.1,0,0.1,0.1c0,0.1,0,0.3,0.1,0.6C167.6,23.7,167.6,24,167.6,24.3z
	 M168.7,25.7c0,0.4-0.1,0.8-0.1,1.2c0,0.4-0.1,0.8-0.2,1.1c-0.1,0.4-0.1,0.6-0.2,0.8c-0.1,0.2-0.1,0.2-0.1,0.1c0,0,0-0.1,0-0.2
	c0.1-0.3,0.1-0.7,0.2-1.2c0.1-0.5,0.1-0.9,0.2-1.4c0-0.2,0-0.3,0-0.5s0-0.3,0-0.4s0-0.2,0-0.4s0-0.3,0-0.5c0-0.1,0-0.2,0-0.3
	c0-0.1,0-0.1,0-0.2c0-0.1,0-0.1,0-0.2c0,0,0.1,0.3,0.1,0.8C168.8,24.9,168.8,25.3,168.7,25.7z M203.3,14.2L203.3,14.2L203.3,14.2
	L203.3,14.2L203.3,14.2z M205.4,18.5c-0.1-0.1-0.1-0.1-0.2-0.2c-0.1,0-0.1-0.1-0.2-0.1c-0.1-0.1-0.2-0.2-0.3-0.3
	c0-0.1,0-0.1-0.1-0.2c-0.1-0.1-0.1-0.2-0.1-0.2c-0.1-0.2-0.2-0.3-0.3-0.5c-0.1-0.1-0.1-0.1-0.2-0.2c0,0,0-0.1,0-0.1
	c0-0.1,0-0.2,0.1-0.2c0.1,0,0.1-0.1,0.1-0.1c-0.1,0-0.1,0-0.1-0.1c0,0,0-0.1,0-0.1c0.1-0.1,0.1-0.2,0.1-0.3c0.1,0,0.2-0.1,0.2-0.2
	c0,0,0.1,0,0.1-0.1c0-0.1,0.1-0.1,0.1-0.2c0-0.1,0-0.2,0-0.3c-0.1-0.1-0.2-0.1-0.1-0.3c0,0,0,0-0.1,0c-0.1,0-0.1,0-0.2,0
	c0,0-0.1,0-0.1,0.1c0,0,0,0.1,0.1,0.1c0,0-0.1,0-0.1,0c-0.1,0-0.1-0.1-0.2-0.1c0,0,0,0-0.1,0V22c0,1.1,0.4,1.9,1.3,2.2
	c0,0,0-0.1-0.1-0.1c0,0,0,0,0,0c0,0-0.1-0.1-0.1-0.1c0-0.1,0-0.1,0.1-0.2c0,0,0,0-0.1,0c0,0,0,0.1,0,0.1c0,0,0-0.1,0-0.1
	c0,0-0.1,0-0.1,0c0-0.1,0-0.1,0.1-0.1c0,0,0-0.1,0-0.1c0.1,0,0.1,0,0.1-0.1c0,0,0,0-0.1-0.1c0.1,0,0.1,0,0.1,0c0-0.1-0.1,0-0.1-0.1
	c0-0.1,0.1-0.1,0.1-0.1c-0.1,0-0.1-0.1-0.2-0.1c0-0.1,0.1-0.1,0.1-0.1c0,0,0,0,0-0.1c0,0,0.1,0,0.1,0c0,0,0,0,0.1,0.1
	c0-0.1,0.1-0.1,0.1-0.2c0-0.1,0-0.1,0.1-0.1c0,0,0,0,0-0.1c0-0.1,0-0.2,0-0.3c0,0,0,0,0-0.1c0,0,0-0.1,0-0.1c0,0-0.1,0-0.1,0
	c-0.1-0.1-0.1-0.2,0-0.3c0,0,0-0.1,0-0.1c0-0.1,0-0.1,0-0.2c0,0,0-0.1,0-0.2c0.1-0.1,0.1-0.1,0.1-0.2c0-0.1,0.1-0.2,0.1-0.3
	c0,0,0-0.1,0-0.1c0.1-0.1,0-0.2,0-0.4c0,0,0-0.1,0-0.1c0,0,0-0.1,0-0.1c0-0.1,0-0.2,0.1-0.3c0-0.1,0-0.2,0-0.3v0
	c0.1-0.1,0-0.2,0-0.3c0-0.1,0-0.2,0.1-0.3c0-0.1,0-0.2,0-0.3c0-0.1,0-0.2,0-0.2C205.5,18.6,205.5,18.5,205.4,18.5z M205,22.4
	c0,0.1,0,0.1,0,0.1c0,0.1,0,0.1-0.1,0.1C204.9,22.5,204.9,22.5,205,22.4C205,22.3,205,22.3,205,22.4z M205.4,24.4
	c-0.1,0-0.1,0-0.1,0.1C205.3,24.5,205.3,24.5,205.4,24.4z"/>
</svg>
