<?xml version="1.0" encoding="utf-8"?>
<!-- Generator: Adobe Illustrator 24.0.1, SVG Export Plug-In . SVG Version: 6.00 Build 0)  -->
<svg version="1.1" id="Camada_1" xmlns="http://www.w3.org/2000/svg" xmlns:xlink="http://www.w3.org/1999/xlink" x="0px" y="0px"
	 viewBox="0 0 219 219" style="enable-background:new 0 0 219 219;" xml:space="preserve">
<style type="text/css">
	.st0{fill:#BE1B2E;}
	.st1{fill:#FFFFFF;}
</style>
<path class="st0" d="M208.9,0H10.1C4.5,0,0,4.5,0,10.1V209c0,5.5,4.5,10,10.1,10H209c5.6,0,10.1-4.5,10.1-10.1V10.1
	C219,4.5,214.5,0,208.9,0z M215,208.9c0,3.3-2.7,6-6,6h-142l-13-20.2c-1.6-2.5-4.1-4.3-7-5L4,179.7V10.1c0-3.3,2.7-6,6-6h114.3
	l19.2,29.9c2.3,3.5,5.8,6,9.9,7L215,55.3L215,208.9L215,208.9z"/>
<g>
	<g id="XMLID_125_">
		
			<rect x="206.6" y="27.4" transform="matrix(0.9454 0.3259 -0.3259 0.9454 20.5263 -66.6028)" class="st1" width="4.8" height="1.1"/>
	</g>
	<g id="XMLID_124_">
		
			<rect x="205.9" y="29.4" transform="matrix(0.9454 0.3259 -0.3259 0.9454 21.1516 -66.263)" class="st1" width="4.8" height="1.1"/>
	</g>
	<g id="XMLID_123_">
		<rect x="171.6" y="27.6" transform="matrix(0.9299 -0.3679 0.3679 0.9299 1.8318 66.017)" class="st1" width="4.8" height="1.1"/>
	</g>
	<g id="XMLID_122_">
		
			<rect x="172.4" y="29.6" transform="matrix(0.9299 -0.3679 0.3679 0.9299 1.1506 66.4489)" class="st1" width="4.8" height="1.1"/>
	</g>
	<g>
		<path class="st1" d="M191.6,38.7c-7.6,0-13.8-6.2-13.8-13.8c0-7.6,6.2-13.8,13.8-13.8c7.6,0,13.8,6.2,13.8,13.8
			C205.4,32.5,199.2,38.7,191.6,38.7z M191.6,11.3c-7.5,0-13.5,6.1-13.5,13.5s6.1,13.5,13.5,13.5c7.5,0,13.5-6.1,13.5-13.5
			S199.1,11.3,191.6,11.3z"/>
	</g>
	<g>
		<g>
			<path class="st1" d="M194.5,12.4l0.2,0.3l-1.9,1.3L192,17l0.1,0c0.2-0.2,0.4-0.2,0.6-0.2l1-2.5l2.4-1.3l0.3,0.5l-2.2,1.2
				l-0.9,2.3l0.4,0.2l2.1-2.5l2.4-0.7C197,13.2,195.8,12.7,194.5,12.4z"/>
		</g>
		<g>
			<path class="st1" d="M189.6,14.2l1,2.5c0.2,0,0.4,0,0.6,0.2l-0.7-2.8l-1.9-1.3l0.2-0.3c-0.5,0.1-1,0.3-1.5,0.4L189.6,14.2z"/>
		</g>
		<g>
			<path class="st1" d="M187.6,14.4l2.1,2.6l0.4-0.2l-0.9-2.3l-2.2-1.2l0.2-0.4c-0.7,0.2-1.3,0.6-1.9,0.9L187.6,14.4z"/>
		</g>
		<g>
			<path class="st1" d="M186,24.1l-0.6,1.2l-1.9,9.3c1,0.9,2.2,1.6,3.4,2.1L186,24.1z"/>
		</g>
		<g>
			<path class="st1" d="M183.6,24.4l2.5-2.5l-3.5,1l-2.9,6.4c0.4,1,0.9,2,1.5,2.9L183.6,24.4z"/>
		</g>
		<g>
			<path class="st1" d="M180.8,20.9l3.8-0.8c-0.2-0.3-0.3-0.7-0.2-1.1c0.1-0.5,0.3-1,0.8-1.3c0.4-0.3,1-0.4,1.5-0.4
				c0.3,0,0.6,0.1,0.8,0.3l-1.5-1.2l-2.6,0.3l-2.7,2.2l-0.2-0.2c-0.6,1-1,2.1-1.3,3.3L180.8,20.9z"/>
		</g>
		<g>
			<polygon class="st1" points="191.7,24.8 191.7,24.8 191.7,24.8 191.7,24.8 191.7,24.8 			"/>
		</g>
		<g>
			<path class="st1" d="M199.1,24.7l-1.9-1.9l0,0.4l1,2l0,0l1.9,9.2c0.5-0.4,0.9-0.9,1.4-1.4L199.1,24.7z"/>
		</g>
		<g>
			<path class="st1" d="M198,20c0.2-0.3,0.3-0.7,0.3-1c0-0.4-0.2-0.7-0.6-0.9c-0.3-0.2-0.7-0.3-1.1-0.3c-0.4,0-0.7,0.2-0.9,0.5
				l1.2,2.3c0.1,0,0.1,0,0.2,0C197.4,20.5,197.8,20.3,198,20z"/>
		</g>
		<g>
			<path class="st1" d="M193.2,32.1c-0.3,0.2-0.6,0.4-0.8,0.5c-0.1,0-0.2,0.1-0.4,0.1h-0.7c-0.1,0-0.2,0-0.4-0.1
				c-0.3-0.1-0.6-0.3-0.9-0.5l1.6,3.3L193.2,32.1z"/>
		</g>
		<g>
			<path class="st1" d="M186.6,17.8c-0.4-0.1-0.8,0-1.1,0.3c-0.3,0.2-0.5,0.6-0.6,0.9c-0.1,0.8,0.5,1.5,1.3,1.6c0.1,0,0.1,0,0.2,0
				l1.1-2.3C187.3,18,187,17.8,186.6,17.8z"/>
		</g>
		<g>
			<path class="st1" d="M196.6,22.1L196.6,22.1L196.6,22.1l-0.1-0.4l0,0l0,0l-0.1-0.7c0,0,0-0.1,0-0.1l-1.3-2.7
				c0-0.1-0.1-0.1-0.2-0.2l-2.1-0.9c-0.1-0.1-0.3,0-0.4,0.1l-0.7,0.6h-0.2l-0.1-0.1l0,0l0,0l-0.5-0.5c-0.1-0.1-0.2-0.1-0.2-0.1
				c0,0-0.1,0-0.1,0l-2.1,0.9c-0.1,0-0.1,0.1-0.2,0.2l-1.3,2.7c0,0,0,0.1,0,0.1l-0.3,2l0,0l0,0l-0.1,0.5c0,0.1,0,0.1,0,0.2l0,0l0,0
				l0,0l1.4,3c0,0.1,0.1,0.1,0.1,0.2l0.5,2.8c0,0.1,0,0.1,0.1,0.2c0,0,0,0,0,0l0,0l0,0c0.4,0.4,1.5,1.6,2.5,2.1c0,0,0.1,0,0.1,0h0.7
				c0.1,0,0.1,0,0.1,0c0.5-0.2,1.1-0.7,1.6-1.1l0,0l0,0c0.4-0.4,0.8-0.8,0.9-1c0,0,0.1-0.1,0.1-0.2l0.5-2.8c0-0.1,0-0.1,0.1-0.2
				l1.4-3.1c0-0.1,0-0.1,0-0.2L196.6,22.1z M188.1,21.9c-0.3-0.3-0.7-0.4-0.7-0.4l-0.3-0.1l0.3-0.1c0.1,0,0.3-0.1,0.4-0.2
				c0.2-0.1,0.5-0.3,0.9-0.3c0.5,0.1,0.8,0.3,0.9,0.4l0.1,0l0.4,1.1l-0.5,2.3l-0.1,0l0,0l0,0l-0.1,0l0.1-0.4l0.1-2.2
				c-0.2,0.1-0.5,0.1-0.8,0.1C188.6,22.1,188.3,22,188.1,21.9z M194.4,29.1L194.4,29.1c-0.1,0.1-0.2,0.2-0.3,0.3c0,0,0,0,0,0
				c-0.1,0-0.2-0.1-0.3-0.2c-0.8-0.8-1.8-1.1-2.9-0.7c-0.4,0.1-0.8,0.4-1.2,0.7c-0.1,0.1-0.3,0.2-0.4,0.1c-0.1,0-0.2-0.1-0.3-0.2
				c-0.1-0.1-0.2-0.3-0.2-0.5c0-0.2,0-0.4,0.1-0.5c0.1-0.1,0.3,0,0.5,0l0,0c0.2,0.1,0.7,0.2,1.5-0.3c0,0,0,0,0.1,0
				c0.5-0.2,0.6-0.6,0.5-1.2l-0.7-0.7c0,0-0.1-0.1-0.1-0.1l-0.6-0.3c-0.1-0.1-0.2-0.2-0.2-0.3l-0.1-0.2c-0.1-0.2,0.1-0.5,0.3-0.5
				l0.1,0c0.1,0,0.2,0,0.3,0l1.2,0.3l1.2-0.3c0.1,0,0.2,0,0.3,0l0.1,0c0.2,0.1,0.4,0.3,0.3,0.5l-0.1,0.2c0,0.1-0.1,0.2-0.2,0.3
				l-0.6,0.3c0,0-0.1,0-0.1,0.1l-0.5,0.6c0.1,0.5,0.2,1,0.5,1.2l0,0c0.5,0.3,0.9,0.6,1.5,0.4c0,0,0,0,0.1,0c0.1,0,0.2-0.1,0.4,0
				c0.1,0.1,0.2,0.3,0.2,0.7C194.6,28.9,194.5,29,194.4,29.1z M195.8,21.4c0,0-0.3,0.1-0.7,0.4c-0.2,0.2-0.4,0.2-0.7,0.2
				c-0.3,0-0.6-0.1-0.8-0.1l0.1,2.2l0.1,0.4l-0.1,0l0,0l0,0l-0.1,0l-0.5-2.3l0.4-1.1l0.1,0c0.1-0.1,0.4-0.3,0.9-0.4
				c0.4,0,0.7,0.1,0.9,0.3c0.1,0.1,0.3,0.2,0.4,0.2l0.3,0.1L195.8,21.4z"/>
		</g>
		<g>
			<path class="st1" d="M183.1,16.2l3-0.4l2.2,1.7l0.8-0.3l-1.9-2.3l-2.3-0.6l0.1-0.3c-1.7,1-3.1,2.4-4.1,4.1L183.1,16.2z"/>
		</g>
		<g>
			<path class="st1" d="M182.3,22.5l4-1.2l0-0.2c0,0-0.1,0-0.1,0c-0.5-0.1-0.9-0.3-1.2-0.6l-3.9,0.9l-1.9,1.3
				c-0.1,0.7-0.2,1.4-0.2,2.1c0,1.3,0.2,2.6,0.6,3.7L182.3,22.5z"/>
		</g>
		<g>
			<path class="st1" d="M194.5,31c-0.1,0.1-0.2,0.2-0.4,0.3l-2.5,5.4l-2.6-5.4c-0.1-0.1-0.2-0.2-0.2-0.2l1.2,6.5
				c0.5,0.1,1.1,0.1,1.7,0.1c0.5,0,1.1,0,1.6-0.1L194.5,31z"/>
		</g>
		<g>
			<path class="st1" d="M184.9,25.1l1.2-2.2l0-0.2l-1.9,2l-2.5,8c0.4,0.5,0.9,1,1.3,1.5L184.9,25.1z"/>
		</g>
		<g>
			<path class="st1" d="M190.9,13.7l0.7,2.7l0.7-2.7l2-1.4c-0.8-0.2-1.7-0.3-2.6-0.3c-0.9,0-1.9,0.1-2.7,0.3L190.9,13.7z"/>
		</g>
		<g>
			<path class="st1" d="M204.2,22.3l-0.2,0.3l-1.8-1.3l-3.9-0.8c-0.3,0.3-0.7,0.5-1.2,0.6c0,0-0.1,0-0.1,0l0,0.2l3.9,1.1l2.9,6.3
				c0.4-1.3,0.6-2.6,0.6-4C204.5,24,204.4,23.2,204.2,22.3z"/>
		</g>
		<g>
			<path class="st1" d="M199.8,34.7l-2-9.4l-0.6-1.2l0,0.1l0,0l-0.8,12.5C197.6,36.3,198.8,35.6,199.8,34.7z"/>
		</g>
		<g>
			<path class="st1" d="M198.3,14.3l-2.3,0.6l-1.9,2.3l0.9,0.3l2.1-1.7l3,0.4l2.6,2.1l-0.3,0.4l-2.4-2l-2.6-0.3l-1.8,1.4
				c0,0,0,0,0,0c0.3-0.3,0.7-0.5,1.1-0.5c0.5-0.1,1.1,0.1,1.5,0.4c0.4,0.3,0.7,0.8,0.8,1.3c0.1,0.4,0,0.8-0.2,1.1l3.7,0.8l1.8,1.2
				c-0.8-3.5-3-6.5-6.1-8.3L198.3,14.3z"/>
		</g>
		<g>
			<path class="st1" d="M196.6,25.5l-0.7,1.6c0,0,0,0.1,0,0.1l-0.5,2.8c0,0.1,0,0.2-0.1,0.2l-1.4,7.3c0.7-0.1,1.3-0.3,2-0.5
				L196.6,25.5z"/>
		</g>
		<g>
			<path class="st1" d="M188.2,30.3c-0.1-0.1-0.1-0.2-0.2-0.3l-0.5-2.8c0,0,0-0.1,0-0.1l-0.8-1.8l0.8,11.6c0.7,0.2,1.4,0.4,2.1,0.6
				L188.2,30.3z"/>
		</g>
		<g>
			<path class="st1" d="M203.4,29.2l-2.9-6.2l-3.4-1l2.4,2.5l0,0l2.4,7.9c0.7-1,1.3-2.1,1.7-3.3L203.4,29.2z"/>
		</g>
	</g>
	<g>
		<g>
			<path class="st1" d="M175.8,38.3c0,0,0.1-0.1,0.1-0.1c0,0,0.1-0.1,0.2-0.2c0.1-0.1,0.2-0.2,0.3-0.3c0.1-0.1,0.3-0.3,0.6-0.5
				c0.1-0.1,0.2-0.2,0.2-0.2c0.1-0.1,0.1-0.1,0.1-0.2c0,0,0-0.1,0-0.1c0,0,0-0.1,0-0.1l-0.1-0.2l-1.8,1.2l-0.8-1.2l4.6-3l1.1,1.7
				c0.2,0.3,0.3,0.5,0.3,0.7c0.1,0.2,0.1,0.4,0,0.5c0,0.2-0.1,0.3-0.3,0.5c-0.1,0.1-0.3,0.3-0.5,0.4c-0.2,0.2-0.4,0.3-0.6,0.3
				c-0.2,0.1-0.3,0.1-0.4,0.1c-0.1,0-0.2,0-0.3,0c-0.1,0-0.2-0.1-0.3-0.1l0,0c0,0,0,0.1,0,0.1c0,0,0,0.1-0.1,0.2
				c0,0.1-0.1,0.2-0.3,0.3c-0.1,0.1-0.3,0.3-0.5,0.5c-0.2,0.2-0.3,0.3-0.4,0.4c-0.1,0.1-0.2,0.2-0.2,0.2c-0.1,0.1-0.1,0.1-0.1,0.1
				c0,0-0.1,0.1-0.1,0.1l0,0L175.8,38.3z M178.2,36.1c0.1,0.1,0.2,0.2,0.3,0.2s0.3-0.1,0.5-0.2c0.2-0.1,0.3-0.2,0.3-0.3
				c0-0.1,0-0.2-0.1-0.3l-0.2-0.3l-1,0.7L178.2,36.1z"/>
		</g>
		<g>
			<path class="st1" d="M179.9,42.3l2.7-4.8l2.7,1.5l-0.6,1l-1.4-0.8l-0.5,0.8l1.4,0.8l-0.6,1l-1.4-0.8l-0.5,0.9l1.4,0.8l-0.6,1.1
				L179.9,42.3z"/>
		</g>
		<g>
			<path class="st1" d="M189,43.4l-0.7-0.1l0.2-1.1l1.9,0.3c0,0.1,0,0.2-0.1,0.4c0,0.2-0.1,0.4-0.1,0.7c0,0.3-0.1,0.5-0.1,0.7
				c0,0.2-0.1,0.4-0.1,0.5c0,0.1-0.1,0.2-0.1,0.3c-0.1,0.1-0.1,0.1-0.2,0.2c-0.1,0.1-0.2,0.1-0.2,0.2c-0.1,0-0.2,0.1-0.3,0.1
				c-0.1,0-0.3,0-0.4,0c-0.2,0-0.4,0-0.6-0.1c-0.4-0.1-0.8-0.2-1-0.3c-0.2-0.1-0.4-0.2-0.5-0.4c0-0.1-0.1-0.2-0.1-0.3
				c0-0.1,0-0.2,0-0.4c0-0.2,0-0.4,0-0.7c0-0.3,0.1-0.6,0.2-1.1c0.1-0.4,0.1-0.8,0.2-1c0.1-0.3,0.1-0.5,0.2-0.6
				c0.1-0.2,0.1-0.3,0.2-0.4c0.1-0.1,0.1-0.2,0.2-0.2c0.1-0.1,0.3-0.2,0.6-0.3c0.2,0,0.6,0,1,0.1c0.5,0.1,0.9,0.2,1.1,0.3
				c0.2,0.1,0.4,0.3,0.4,0.6c0,0.2,0,0.5,0,0.8c0,0.1,0,0.1,0,0.2c0,0,0,0.1,0,0.1l-1.3-0.2c0,0,0,0,0,0c0,0,0,0,0,0
				c0-0.1,0-0.2,0-0.3c0-0.1,0-0.1,0-0.2c0-0.1-0.1-0.2-0.4-0.2c-0.1,0-0.2,0-0.3,0c-0.1,0-0.1,0-0.1,0.1c0,0,0,0.1-0.1,0.1
				c0,0,0,0.1-0.1,0.2c0,0.1-0.1,0.2-0.1,0.4c0,0.2-0.1,0.4-0.1,0.7c-0.1,0.3-0.1,0.6-0.1,0.7c0,0.2,0,0.3-0.1,0.4
				c0,0.1,0,0.2,0,0.2c0,0,0,0.1,0,0.1c0,0.1,0.2,0.2,0.4,0.2c0.1,0,0.2,0,0.3,0c0.1,0,0.1,0,0.2-0.1c0,0,0,0,0.1-0.1
				c0,0,0-0.1,0-0.1c0,0,0-0.1,0-0.2c0-0.1,0-0.2,0-0.3L189,43.4z"/>
		</g>
		<g>
			<path class="st1" d="M195.7,43.2l-0.7,0.1l-0.2-1.1l1.9-0.3c0,0.1,0.1,0.2,0.1,0.4c0,0.2,0.1,0.4,0.1,0.7
				c0.1,0.3,0.1,0.5,0.1,0.7c0,0.2,0,0.4,0,0.5c0,0.1,0,0.2,0,0.3c0,0.1-0.1,0.2-0.1,0.3c0,0.1-0.1,0.2-0.2,0.2
				c-0.1,0.1-0.2,0.1-0.3,0.2c-0.1,0.1-0.2,0.1-0.4,0.1c-0.2,0-0.3,0.1-0.6,0.1c-0.4,0.1-0.8,0.1-1,0.1c-0.2,0-0.4-0.1-0.6-0.3
				c-0.1-0.1-0.1-0.2-0.2-0.2c-0.1-0.1-0.1-0.2-0.2-0.4c-0.1-0.2-0.1-0.4-0.2-0.7c-0.1-0.3-0.1-0.6-0.2-1.1c-0.1-0.4-0.1-0.8-0.2-1
				c0-0.3-0.1-0.5-0.1-0.7c0-0.2,0-0.3,0-0.4c0-0.1,0.1-0.2,0.1-0.3c0.1-0.2,0.2-0.3,0.5-0.4c0.2-0.1,0.5-0.2,1-0.3
				c0.5-0.1,0.9-0.1,1.1,0c0.3,0.1,0.5,0.2,0.6,0.4c0.1,0.2,0.2,0.4,0.3,0.8c0,0.1,0,0.1,0,0.2c0,0,0,0.1,0,0.1l-1.3,0.2
				c0,0,0,0,0,0c0,0,0,0,0,0c0-0.1,0-0.2-0.1-0.3c0-0.1,0-0.1-0.1-0.1c0-0.1-0.2-0.1-0.4-0.1c-0.1,0-0.2,0-0.3,0.1
				c-0.1,0-0.1,0.1-0.1,0.1c0,0,0,0.1,0,0.1c0,0.1,0,0.1,0,0.2c0,0.1,0,0.2,0.1,0.4c0,0.2,0.1,0.4,0.1,0.7c0.1,0.3,0.1,0.6,0.1,0.7
				c0,0.2,0.1,0.3,0.1,0.4c0,0.1,0,0.2,0.1,0.2c0,0,0,0.1,0.1,0.1c0.1,0.1,0.2,0.1,0.5,0.1c0.1,0,0.2,0,0.3-0.1
				c0.1,0,0.1-0.1,0.1-0.1c0,0,0-0.1,0-0.1c0,0,0-0.1,0-0.1c0,0,0-0.1,0-0.2c0-0.1,0-0.2,0-0.3L195.7,43.2z"/>
		</g>
		<g>
			<path class="st1" d="M202.9,42.6l-0.8-1l-0.6,0.4l0.6,1.2l-1.2,0.7l-2.2-5.1l2.1-1.2l3.4,4.4L202.9,42.6z M200.2,39L200.2,39
				l0.7,1.9l0.5-0.3L200.2,39z"/>
		</g>
		<g>
			<path class="st1" d="M207.2,38.8l-4.7-2.9l1.6-2.6l1,0.6l-0.8,1.4l0.8,0.5l0.8-1.4l1,0.6l-0.8,1.4l0.9,0.5l0.8-1.4l1,0.6
				L207.2,38.8z"/>
		</g>
	</g>
	<g>
		<g>
			<path class="st1" d="M177,21.6l-2.9,0.9l0,0l2.8,0.3l-0.1,1l-5.2-0.6l0.1-1.1l1.9-0.5l0,0l-1.8-0.2l0.1-1l5.2,0.6L177,21.6z"/>
		</g>
		<g>
			<path class="st1" d="M178,17.4c0.1,0.1,0.1,0.1,0.1,0.2c0,0.1,0,0.2,0,0.3c0,0.1,0,0.2-0.1,0.3c0,0.1-0.1,0.3-0.1,0.4
				c-0.1,0.3-0.3,0.5-0.4,0.7c-0.1,0.1-0.3,0.2-0.5,0.2c-0.1,0-0.2,0-0.3,0c-0.1,0-0.2,0-0.4-0.1c-0.2,0-0.4-0.1-0.6-0.2
				c-0.2-0.1-0.6-0.2-0.9-0.4c-0.4-0.2-0.7-0.3-0.9-0.4c-0.2-0.1-0.4-0.2-0.6-0.3c-0.1-0.1-0.2-0.2-0.3-0.2
				c-0.1-0.1-0.1-0.1-0.2-0.2c-0.1-0.1-0.1-0.1-0.1-0.2c0-0.1,0-0.2,0-0.3c0-0.1,0-0.2,0.1-0.3c0-0.1,0.1-0.3,0.1-0.4
				c0.1-0.3,0.3-0.5,0.4-0.7c0.1-0.1,0.3-0.2,0.5-0.2c0.1,0,0.2,0,0.3,0c0.1,0,0.2,0,0.4,0.1c0.2,0,0.4,0.1,0.6,0.2
				c0.2,0.1,0.6,0.2,0.9,0.4c0.4,0.2,0.7,0.3,0.9,0.4c0.2,0.1,0.4,0.2,0.6,0.3c0.1,0.1,0.2,0.2,0.3,0.2
				C177.9,17.3,178,17.4,178,17.4z M176.9,17.9c0,0-0.1,0-0.1-0.1c0,0-0.1-0.1-0.2-0.1c-0.1,0-0.2-0.1-0.4-0.2
				c-0.2-0.1-0.4-0.2-0.6-0.3c-0.3-0.1-0.5-0.2-0.6-0.3c-0.2-0.1-0.3-0.1-0.4-0.1c-0.1,0-0.2-0.1-0.2-0.1c-0.1,0-0.1,0-0.1,0
				c0,0-0.1,0-0.1,0c0,0-0.1,0.1-0.1,0.2c0,0.1,0,0.1,0,0.2c0,0,0,0.1,0.1,0.1c0,0,0.1,0.1,0.1,0.1c0,0,0.1,0.1,0.2,0.1
				c0.1,0,0.2,0.1,0.4,0.2c0.2,0.1,0.4,0.2,0.6,0.3c0.3,0.1,0.5,0.2,0.6,0.3c0.2,0.1,0.3,0.1,0.4,0.1c0.1,0,0.2,0.1,0.2,0.1
				c0,0,0.1,0,0.1,0c0,0,0.1,0,0.1,0c0,0,0.1-0.1,0.1-0.2c0-0.1,0-0.1,0-0.2C176.9,18,176.9,18,176.9,17.9z"/>
		</g>
		<g>
			<path class="st1" d="M180.3,14.6l-3.6-3.8l1.1-1.1c0.2-0.2,0.3-0.3,0.5-0.3c0.1-0.1,0.3-0.1,0.4-0.1c0.1,0,0.3,0.1,0.4,0.2
				c0.2,0.1,0.3,0.2,0.5,0.4c0.1,0.1,0.2,0.3,0.3,0.3c0.1,0.1,0.1,0.2,0.2,0.3c0,0.1,0.1,0.1,0.1,0.2c0,0.1,0,0.1,0,0.2l0,0
				c0.1,0,0.1,0,0.2,0c0.1,0,0.1,0,0.2,0c0.1,0,0.2,0.1,0.3,0.2c0.1,0.1,0.3,0.2,0.5,0.4c0.2,0.2,0.3,0.3,0.4,0.5
				c0.1,0.2,0.2,0.3,0.2,0.4c0,0.1,0,0.3-0.1,0.4c-0.1,0.1-0.2,0.3-0.4,0.5L180.3,14.6z M179.2,11.4c0.1-0.1,0.1-0.2,0.1-0.2
				c0-0.1-0.1-0.2-0.3-0.4c-0.1-0.1-0.3-0.2-0.3-0.2c-0.1,0-0.2,0-0.2,0.1l-0.2,0.2l0.8,0.8L179.2,11.4z M180.6,12.8
				c0.1-0.1,0.1-0.2,0.1-0.2c0-0.1-0.1-0.2-0.2-0.3c-0.2-0.2-0.3-0.3-0.4-0.3c-0.1,0-0.2,0-0.3,0l-0.3,0.3l0.8,0.8L180.6,12.8z"/>
		</g>
		<g>
			<path class="st1" d="M184.6,11.2l-0.7-1l-0.5,0.3l0.5,1.1l-1,0.5L181,7.2l1.6-0.9l3,4.3L184.6,11.2z M182.3,7.7L182.3,7.7
				l0.7,1.8l0.4-0.2L182.3,7.7z"/>
		</g>
		<g>
			<path class="st1" d="M186.6,10.2l-1.4-5l1-0.3l1.1,3.9l1.1-0.3l0.3,1.1L186.6,10.2z"/>
		</g>
		<g>
			<path class="st1" d="M191.4,9.4l-0.1-1.2l-0.5,0l0,1.2l-1.1,0l0.4-5.2l1.8-0.1l0.7,5.2L191.4,9.4z M191,5.3L191,5.3l-0.2,1.9
				l0.4,0L191,5.3z"/>
		</g>
		<g>
			<path class="st1" d="M195.8,10l-0.6-3l0,0l-0.6,2.7l-1-0.2l1.2-5.1l1,0.2l0.3,1.9l0,0l0.4-1.8l1,0.2l-1.2,5.1L195.8,10z"/>
		</g>
		<g>
			<polygon class="st1" points="197.3,11.7 197.8,11.2 198.8,11.8 198.3,12.2 			"/>
		</g>
		<g>
			<path class="st1" d="M200.8,10.1c-0.1,0.2-0.1,0.3-0.2,0.4c-0.1,0.2-0.3,0.4-0.4,0.6c-0.1,0.2-0.3,0.3-0.4,0.4
				c-0.1,0.1-0.3,0.1-0.5,0.1c-0.2,0-0.4-0.1-0.7-0.3c-0.3-0.2-0.5-0.3-0.7-0.5c-0.1-0.1-0.2-0.3-0.2-0.5c0-0.1,0-0.2,0-0.3
				c0-0.1,0.1-0.2,0.1-0.4c0.1-0.2,0.2-0.4,0.3-0.6c0.1-0.2,0.3-0.5,0.5-0.9c0.2-0.4,0.4-0.6,0.5-0.9c0.1-0.2,0.2-0.4,0.3-0.5
				c0.1-0.1,0.2-0.2,0.3-0.3c0.1-0.1,0.1-0.1,0.2-0.2c0.2-0.1,0.3-0.1,0.5-0.1c0.2,0,0.4,0.1,0.7,0.3c0.3,0.1,0.5,0.3,0.6,0.4
				c0.1,0.1,0.2,0.3,0.2,0.4c0,0.2,0,0.3-0.1,0.5c-0.1,0.2-0.2,0.4-0.3,0.6c0,0.1-0.1,0.1-0.1,0.2c0,0.1-0.1,0.1-0.1,0.2l-0.9-0.5
				c0.1-0.1,0.1-0.2,0.2-0.3c0-0.1,0.1-0.2,0.1-0.2c0-0.1,0-0.1,0.1-0.1c0,0,0-0.1,0-0.1c0-0.1,0-0.2-0.2-0.3
				c-0.1,0-0.1-0.1-0.2-0.1c0,0-0.1,0-0.1,0.1c0,0-0.1,0.1-0.1,0.1c0,0-0.1,0.1-0.1,0.2c-0.1,0.1-0.1,0.2-0.2,0.4
				c-0.1,0.2-0.2,0.4-0.3,0.6c-0.1,0.3-0.2,0.5-0.3,0.6c-0.1,0.2-0.1,0.3-0.2,0.4c0,0.1-0.1,0.2-0.1,0.2c0,0,0,0.1,0,0.1
				c0,0,0,0.1,0,0.1c0,0,0.1,0.1,0.2,0.1c0.1,0.1,0.2,0.1,0.3,0c0,0,0.1-0.1,0.1-0.1c0,0,0.1-0.1,0.1-0.1c0-0.1,0.1-0.1,0.1-0.2
				c0-0.1,0.1-0.2,0.1-0.2L200.8,10.1z"/>
		</g>
		<g>
			<path class="st1" d="M202.8,14c-0.1,0-0.2,0-0.3,0c-0.1,0-0.2,0-0.3-0.1c-0.1,0-0.2-0.1-0.3-0.2c-0.1-0.1-0.2-0.2-0.3-0.3
				c-0.2-0.2-0.4-0.4-0.5-0.6s-0.1-0.3-0.1-0.5c0-0.1,0.1-0.2,0.1-0.3c0-0.1,0.1-0.2,0.2-0.3c0.1-0.1,0.2-0.3,0.4-0.5
				c0.2-0.2,0.4-0.4,0.7-0.7c0.3-0.3,0.5-0.5,0.7-0.7c0.2-0.2,0.3-0.3,0.5-0.4c0.1-0.1,0.2-0.2,0.3-0.2c0.1,0,0.2-0.1,0.3-0.1
				c0.1,0,0.2,0,0.3,0c0.1,0,0.2,0,0.3,0.1c0.1,0,0.2,0.1,0.3,0.2c0.1,0.1,0.2,0.2,0.3,0.3c0.2,0.2,0.4,0.4,0.5,0.6
				c0.1,0.2,0.1,0.3,0.1,0.5c0,0.1-0.1,0.2-0.1,0.3c0,0.1-0.1,0.2-0.2,0.3c-0.1,0.1-0.2,0.3-0.4,0.5c-0.2,0.2-0.4,0.4-0.7,0.7
				c-0.3,0.3-0.5,0.5-0.7,0.7c-0.2,0.2-0.3,0.3-0.5,0.4c-0.1,0.1-0.2,0.2-0.3,0.2C203,14,202.9,14,202.8,14z M202.7,12.8
				c0,0,0.1,0,0.1-0.1c0,0,0.1-0.1,0.2-0.2c0.1-0.1,0.2-0.2,0.3-0.3c0.1-0.1,0.3-0.3,0.5-0.5c0.2-0.2,0.4-0.4,0.5-0.5
				c0.1-0.1,0.2-0.2,0.3-0.3c0.1-0.1,0.1-0.1,0.1-0.2c0,0,0-0.1,0.1-0.1c0,0,0-0.1,0-0.1c0,0-0.1-0.1-0.1-0.2
				c-0.1-0.1-0.1-0.1-0.2-0.1c0,0-0.1,0-0.1,0c0,0-0.1,0-0.1,0.1c0,0-0.1,0.1-0.2,0.2c-0.1,0.1-0.2,0.2-0.3,0.3
				c-0.1,0.1-0.3,0.3-0.5,0.5c-0.2,0.2-0.3,0.4-0.5,0.5c-0.1,0.1-0.2,0.2-0.3,0.3c-0.1,0.1-0.1,0.1-0.1,0.2c0,0-0.1,0.1-0.1,0.1
				c0,0,0,0.1,0,0.1c0,0,0.1,0.1,0.1,0.2c0.1,0.1,0.1,0.1,0.2,0.1C202.7,12.8,202.7,12.8,202.7,12.8z"/>
		</g>
		<g>
			<path class="st1" d="M204.7,17.2l4.8-2l0.6,1.3c0.1,0.3,0.2,0.6,0.2,0.7c0,0.2,0,0.4-0.1,0.5c-0.1,0.1-0.1,0.1-0.2,0.2
				c-0.1,0.1-0.2,0.1-0.3,0.2c-0.1,0.1-0.3,0.2-0.5,0.3c-0.2,0.1-0.5,0.2-0.9,0.4c-0.4,0.2-0.7,0.3-0.9,0.4
				c-0.2,0.1-0.4,0.2-0.6,0.2c-0.2,0-0.3,0.1-0.4,0.1c-0.1,0-0.2,0-0.3,0c-0.1,0-0.2,0-0.2-0.1c-0.1,0-0.1-0.1-0.2-0.2
				c-0.1-0.1-0.1-0.2-0.2-0.3c-0.1-0.1-0.1-0.2-0.2-0.4L204.7,17.2z M206.3,18.1c0,0.1,0.1,0.1,0.1,0.2c0,0,0.1,0,0.1,0
				c0,0,0.1,0,0.1,0c0,0,0.1,0,0.2-0.1c0.1,0,0.2-0.1,0.4-0.1c0.2-0.1,0.4-0.1,0.6-0.2c0.2-0.1,0.4-0.2,0.6-0.3
				c0.2-0.1,0.3-0.1,0.4-0.2c0.1,0,0.2-0.1,0.2-0.1c0,0,0.1-0.1,0.1-0.1c0,0,0-0.1,0-0.1c0,0,0-0.1,0-0.2l-0.1-0.3l-2.7,1.2
				L206.3,18.1z"/>
		</g>
		<g>
			<path class="st1" d="M206.7,23.3c-0.1,0-0.2-0.1-0.2-0.1c-0.1-0.1-0.1-0.1-0.2-0.2c0-0.1-0.1-0.2-0.1-0.3c0-0.1-0.1-0.3-0.1-0.4
				c0-0.3,0-0.6,0-0.8c0-0.2,0.1-0.3,0.3-0.4c0.1-0.1,0.2-0.1,0.2-0.2c0.1,0,0.2-0.1,0.4-0.1c0.2,0,0.4-0.1,0.6-0.1
				c0.3,0,0.6-0.1,1-0.1c0.4-0.1,0.7-0.1,1-0.1c0.3,0,0.5,0,0.6,0c0.2,0,0.3,0,0.4,0c0.1,0,0.2,0,0.3,0.1c0.1,0,0.2,0.1,0.2,0.1
				c0.1,0.1,0.1,0.1,0.2,0.2c0,0.1,0.1,0.2,0.1,0.3c0,0.1,0.1,0.3,0.1,0.4c0,0.3,0,0.6,0,0.8c0,0.2-0.1,0.3-0.3,0.4
				c-0.1,0.1-0.2,0.1-0.2,0.2c-0.1,0-0.2,0.1-0.4,0.1c-0.2,0-0.4,0.1-0.6,0.1c-0.3,0-0.6,0.1-1,0.1c-0.4,0.1-0.7,0.1-1,0.1
				c-0.3,0-0.5,0-0.6,0c-0.2,0-0.3,0-0.4,0C206.9,23.4,206.8,23.4,206.7,23.3z M207.5,22.3c0,0,0.1,0,0.1,0c0.1,0,0.1,0,0.2,0
				c0.1,0,0.2,0,0.4,0c0.2,0,0.4,0,0.7-0.1c0.3,0,0.5-0.1,0.7-0.1c0.2,0,0.3,0,0.4-0.1c0.1,0,0.2,0,0.2-0.1c0,0,0.1,0,0.1,0
				c0,0,0.1-0.1,0.1-0.1c0,0,0-0.1,0-0.2c0-0.1,0-0.1-0.1-0.2c0,0-0.1-0.1-0.1-0.1c0,0-0.1,0-0.1,0c-0.1,0-0.1,0-0.2,0
				c-0.1,0-0.2,0-0.4,0c-0.2,0-0.4,0.1-0.7,0.1c-0.3,0-0.5,0.1-0.7,0.1c-0.2,0-0.3,0-0.4,0.1c-0.1,0-0.2,0-0.2,0.1c0,0-0.1,0-0.1,0
				c0,0-0.1,0.1-0.1,0.1c0,0,0,0.1,0,0.2c0,0.1,0,0.1,0.1,0.2C207.4,22.3,207.4,22.3,207.5,22.3z"/>
		</g>
	</g>
</g>
</svg>
