<?xml version="1.0" encoding="utf-8"?>
<!-- Generator: Adobe Illustrator 24.0.1, SVG Export Plug-In . SVG Version: 6.00 Build 0)  -->
<svg version="1.1" id="Camada_1" xmlns="http://www.w3.org/2000/svg" xmlns:xlink="http://www.w3.org/1999/xlink" x="0px" y="0px"
	 viewBox="0 0 219 219" style="enable-background:new 0 0 219 219;" xml:space="preserve">
<style type="text/css">
	.st0{fill:#BE1B2E;}
	.st1{fill:#FFFFFF;}
</style>
<path class="st0" d="M208.9,0H10.1C4.5,0,0,4.5,0,10.1V209c0,5.5,4.5,10,10.1,10H209c5.6,0,10.1-4.5,10.1-10.1V10.1
	C219,4.5,214.5,0,208.9,0z M215,208.9c0,3.3-2.7,6-6,6h-142l-13-20.2c-1.6-2.5-4.1-4.3-7-5L4,179.7V10.1c0-3.3,2.7-6,6-6h114.3
	l19.2,29.9c2.3,3.5,5.8,6,9.9,7L215,55.3L215,208.9L215,208.9z"/>
<g>
	<path class="st1" d="M204,14.7c0.1,0,0.5,0.2,1.2,0.7l0.5,0.4h0c0.7-0.8,1.2-1.2,1.5-1.2c0.3,0,0.5,0.2,0.5,0.4v0.1
		c0,0.2-0.2,0.4-0.7,0.8l-0.6,0.7v0c0.2,0.1,0.4,0.5,0.6,1c0.5,0.6,0.8,1.1,1,1.5c0.4,0.9,0.6,1.5,0.6,1.7c0.1,0,0.2,0.4,0.3,1.2
		c0,0,0.1,0.1,0.2,0.4c0,0.1,0,0.1,0,0.2c0,0.1,0.1,0.4,0.2,1l0.1,0.5v0.3c0,0.2,0,0.4,0.1,0.6c-0.1,0.1-0.1,0.3-0.1,0.5v0.2
		c0.1,0.3,0.1,0.4,0.1,0.5v0.1c0,0.1,0,0.3,0,0.4c0,0.1,0,0.2,0,0.4v0c-0.1,0.4-0.3,0.5-0.5,0.5h-0.2c-0.2-0.1-0.3-0.3-0.3-0.4v-0.5
		l0-0.5h-0.4c-0.3,0-0.5,0-0.7,0c-0.2,0-0.4,0-0.6,0c-0.1,0-0.3,0-0.5,0l-0.2,0c-0.4,0-0.6,0-0.6-0.1l-0.2,0h-0.5
		c-0.1,0-0.2,0-0.4,0c0,0-0.1,0-0.2,0l-0.2,0c-0.2,0.1-0.3,0.1-0.3,0.1l-0.3,0v0.1c-0.1,0.8-0.2,1.2-0.4,1.2c0,0-0.1,0-0.2,0
		c-0.4-0.1-0.5-0.3-0.5-0.5c0.1-0.5,0.1-1.1,0.1-1.8l0-0.1c0.1-0.3,0.1-0.9,0.2-1.7v-0.5c0.2-1.1,0.3-1.8,0.3-1.9
		c0.2-0.6,0.3-1.1,0.5-1.4c0-0.2,0.1-0.4,0.3-0.7c0.1-0.4,0.3-0.9,0.7-1.5c0-0.1,0.2-0.4,0.5-0.7c0-0.1,0.1-0.2,0.2-0.4
		c-0.9-0.7-1.3-1-1.4-1c-0.1-0.1-0.2-0.3-0.2-0.4v-0.2C203.5,14.8,203.7,14.7,204,14.7z M204.7,24.7h-0.9l-0.2,0v0.5h0
		c0.6,0,1.1,0,1.5,0.1c0,0,0.2-0.1,0.4-0.1l0.4,0c0.2,0,0.4,0,0.5,0c0.2,0.1,0.3,0.1,0.4,0.1c0,0,0.2,0,0.5-0.1h0.2
		c0.2,0.1,0.3,0.1,0.3,0.1c0.2,0,0.4,0,0.4,0c0,0,0,0,0,0c0.1-0.1,0.1-0.3,0.1-0.5c0-0.1,0-0.1,0-0.1h-1.1c-0.2,0-0.4,0-0.5,0
		l-0.3,0c-0.3,0-0.6,0-0.8,0v0c-0.1,0.1-0.3,0.1-0.5,0.1C204.8,24.7,204.7,24.7,204.7,24.7L204.7,24.7z M205.7,17.5
		c-0.5,0.7-0.9,1.6-1.3,2.6c-0.2,0.5-0.5,1.5-0.7,2.8c-0.1,0-0.1,0.1-0.1,0.2l0,0.2l0,0.3c0,0.1,0.1,0.1,0.1,0.1c0.5,0,1,0,1.3,0.1
		c0.3-0.1,0.6-0.1,0.7-0.1l0.4,0.1c0.1-0.1,0.2-0.1,0.3-0.1c0.1,0,0.2,0,0.4,0.1l0.2,0c0.3,0,0.6,0,0.8,0c0.2,0,0.3,0,0.3,0v-0.3
		c-0.5-2.4-1.1-4-1.6-4.8C206.2,18.2,206,17.9,205.7,17.5L205.7,17.5z M205.8,19.7c0.3,0.1,0.4,0.2,0.4,0.4v0c0,0.2-0.2,0.4-0.5,0.4
		c-0.1,0-0.2-0.1-0.4-0.3V20C205.4,19.8,205.5,19.7,205.8,19.7z M205.8,21.8L205.8,21.8c0.3,0,0.5,0.2,0.5,0.5
		c-0.1,0.2-0.2,0.4-0.4,0.4h0c-0.3-0.1-0.4-0.2-0.4-0.4C205.4,21.9,205.6,21.8,205.8,21.8z"/>
	<path class="st1" d="M170.9,16.7l0.4,0c0.1,0,0.1,0,0.1,0l0.5,0h1.8c0.3,0,0.5,0,0.7,0c0.2,0,0.4,0,0.7,0h1c0.1,0,0.2,0,0.2,0
		l0.2,0h0.6c0.6,0,0.9,0.2,0.9,0.6c0,0.3-0.2,0.4-0.7,0.4h-1.2c-0.1,0-0.3,0-0.5,0l-0.3-0.1l-0.2,0l-0.5,0c-0.2,0-0.3,0-0.3,0
		l-0.1,0c-0.2,0-0.3,0.1-0.4,0.1c-0.2-0.1-0.4-0.1-0.5-0.1l0,0.1v0.6c0,0.1,0,0.3,0,0.6c0,0.2,0.1,0.2,0.1,0.2
		c0,0.6-0.1,0.9-0.1,0.9l0,0.3v1.8c0,0.1,0,0.1,0,0.2c0,0.1,0,0.1,0,0.2v0.2h0.3c0.1,0,0.1,0,0.1,0l0.2,0h0.2c0.2,0,0.5,0,0.9,0
		l0.1,0c0.5,0,0.7,0.2,0.7,0.5v0.1c0,0.2-0.2,0.4-0.5,0.5c-0.2,0-0.4,0-0.7,0l-0.1,0c0,0-0.2-0.1-0.4-0.1c0,0-0.1,0-0.1,0l-0.2,0
		l-0.5,0.1v0.3l0,0.1l0.1,0l0.2-0.1c0.5,0,1,0,1.2,0c0.1,0,0.2,0,0.5,0c0.3,0.1,0.5,0.2,0.5,0.5c0,0.3-0.3,0.5-1,0.5
		c-0.1,0-0.2,0-0.3,0l-0.3,0c-0.3,0-0.6,0-0.7,0c0,0,0,0,0,0c0,0.1,0,0.2,0,0.3c-0.1,0.3-0.1,0.6-0.1,0.9c0,0.5,0,0.9,0.1,1.2
		c-0.1,0.3-0.2,0.5-0.4,0.5h-0.2c-0.2,0-0.4-0.2-0.4-0.4c0-0.2,0-0.6,0-1l0-0.2c0-0.2,0-0.4,0-0.6v-0.9l0-0.3
		c-0.1-0.1-0.1-0.2-0.1-0.3c0,0,0-0.1,0-0.1l0-0.2c0-0.2,0-0.5,0-0.9c0,0,0-0.2,0-0.5l0-0.4c0-0.2,0-0.4,0-0.6c0,0,0-0.1,0-0.1
		l0-0.2v-0.1c0-0.3,0-0.6,0-0.9c0-0.2,0-0.4,0-0.5l0-0.2c0-0.1,0-0.2,0-0.3c0-0.2,0-0.3,0-0.3c0-0.1,0-0.3,0-0.4v-0.5
		c-0.1,0-0.1,0-0.1,0l-0.1,0h-0.3c0,0.2,0,0.3,0.1,0.3l0,0.5v0.4c0,0.7,0,1.6,0.1,2.7c0,0,0,0.1,0,0.1c0,0.1,0,0.3,0,0.4v0.5
		c0,0.1,0,0.1,0,0.2c0,0-0.1,0.2-0.1,0.6c0,0.1,0,0.4,0.1,0.7l0,0.2l0,0.2c0,0,0,0,0,0l0,0.3c0,0.2,0,0.3,0,0.3c0,0.1,0,0.3,0,0.4
		c0,0.1,0,0.3,0,0.4c0,0.1,0,0.3,0,0.4v0.2c0,0,0,0,0,0l0.1,0.3c0,0.1,0,0.1,0,0.1l0,0.5c-0.1,0.2-0.2,0.3-0.4,0.3h-0.1
		c-0.4,0-0.5-0.4-0.5-1.2c0-0.1,0-0.3,0-0.4v-0.7c0-0.1,0-0.2-0.1-0.4c0.1-0.1,0.1-0.2,0.1-0.4c0-0.1,0-0.2-0.1-0.2
		c0-0.1,0-0.2,0-0.2c0-0.6,0-1,0-1.4v-1.1c0-0.5,0-0.9-0.1-1.2c0-0.1,0-0.1,0-0.1c0-0.1,0-0.2,0-0.2c0-0.3,0-0.6,0-0.8v-0.2
		c0-0.2,0-0.5,0-0.8c0-0.1,0-0.1,0-0.1c0-0.1,0-0.3,0-0.4v-0.2c-0.7,0-1-0.2-1-0.5v-0.1C169.9,16.9,170.2,16.7,170.9,16.7z
		 M174.1,18.1c0.2,0,0.4,0.2,0.4,0.4v0.1c-0.1,0.3-0.2,0.4-0.4,0.4c-0.2,0-0.3-0.1-0.4-0.3v-0.2C173.7,18.3,173.8,18.2,174.1,18.1z
		 M175.5,18.1c0.2,0,0.4,0.2,0.4,0.4v0.1c0,0.2-0.1,0.3-0.3,0.4h-0.1c-0.3-0.1-0.4-0.2-0.4-0.4C175,18.3,175.2,18.2,175.5,18.1z
		 M176.6,18.2h0.1c0.2,0,0.4,0.2,0.4,0.5c0,0.2-0.2,0.3-0.5,0.4c-0.2,0-0.4-0.2-0.4-0.4C176.3,18.4,176.4,18.3,176.6,18.2z"/>
	<path class="st1" d="M157.5,15.2c0.1,0.1,0.2,0.1,0.3,0.1c0.2,0,0.3,0,0.3-0.1l0.2,0h0.3c0.1,0,0.2,0,0.3,0c0.1,0,0.2,0,0.3,0h0
		c0.2,0,0.4,0.2,0.5,0.5c0,0.4-0.3,0.6-1,0.6c-0.3-0.1-0.6-0.1-0.7-0.1l-0.4,0.1c-0.6-0.1-0.9-0.3-0.9-0.5v-0.3
		C156.7,15.3,157,15.2,157.5,15.2z M157.8,16.8c0.1,0.1,0.2,0.1,0.3,0.1c0.2,0,0.5,0,1.1,0c0.3,0.1,0.5,0.3,0.5,0.5v0.1
		c0,0.3-0.3,0.5-0.8,0.5c0,0,0,0,0,0c0,0,0,0,0,0l0,0.4c0,0.8-0.1,1.2-0.1,1.3c0,0.1,0.1,0.2,0.1,0.5l0,0.2c0,0.2,0,0.3,0,0.3
		c0,0.1,0,0.1-0.1,0.3c0,0.1,0,0.1,0,0.1l0,0.3c0,0.2,0,0.4,0,0.5c0,0.2,0,0.4,0,0.4c0.1,0.1,0.1,0.2,0.1,0.2c0,0.1,0,0.3-0.1,0.5
		c0.1,0.1,0.1,0.2,0.1,0.3c-0.1,0.2-0.1,0.4-0.1,0.5c0,0.2,0,0.4,0,0.7l0,0.4l0,0.4c0,0.3,0,0.5,0,0.7c0,0.4,0,0.6,0,0.7
		c0,0.1,0,0.1,0,0.2h0.3c0.4,0,0.6,0.2,0.7,0.5v0c0,0.3-0.2,0.4-0.6,0.5c-0.3,0-0.5,0-0.7,0h-0.5c-0.1,0-0.2,0-0.4,0
		c-0.4-0.1-0.6-0.3-0.6-0.6c0-0.3,0.3-0.5,0.8-0.5h0.1c0-0.1,0-0.5,0-1.3c0-0.9,0.1-1.4,0.1-1.4c0-0.1-0.1-0.4-0.1-1h0l0-0.1v-0.1
		c0-0.2,0-0.4,0-0.5l0-0.2l0-0.3l0-0.7c0-0.2,0.1-0.3,0.1-0.3l0-0.2v-0.1c0-0.2,0-0.4,0.1-0.6c0-0.3-0.1-0.5-0.1-0.5l0-0.3v0
		c0-0.1,0-0.3,0-0.4l0-0.2c0-0.2,0-0.5,0-0.6v-0.1c-0.6,0-0.9-0.2-0.9-0.5v-0.1C156.8,16.9,157.1,16.8,157.8,16.8L157.8,16.8z"/>
	<path class="st1" d="M198.8,15.2c0.1,0.1,0.2,0.1,0.3,0.1c0.2,0,0.3,0,0.3-0.1l0.2,0h0.3c0.1,0,0.2,0,0.3,0c0.1,0,0.2,0,0.3,0h0
		c0.2,0,0.4,0.2,0.5,0.5c0,0.4-0.3,0.6-1,0.6c-0.3-0.1-0.6-0.1-0.7-0.1l-0.4,0.1c-0.6-0.1-0.9-0.3-0.9-0.5v-0.3
		C198,15.3,198.3,15.2,198.8,15.2z M199.1,16.8c0.1,0.1,0.2,0.1,0.3,0.1c0.2,0,0.5,0,1.1,0c0.3,0.1,0.5,0.3,0.5,0.5v0.1
		c0,0.3-0.3,0.5-0.8,0.5c0,0,0,0,0,0c0,0,0,0,0,0l0,0.4c0,0.8-0.1,1.2-0.1,1.3c0,0.1,0.1,0.2,0.1,0.5l0,0.2c0,0.2,0,0.3,0,0.3
		c0,0.1,0,0.1-0.1,0.3c0,0.1,0,0.1,0,0.1l0,0.3c0,0.2,0,0.4,0,0.5c0,0.2,0,0.4,0,0.4c0.1,0.1,0.1,0.2,0.1,0.2c0,0.1,0,0.3-0.1,0.5
		c0.1,0.1,0.1,0.2,0.1,0.3c-0.1,0.2-0.1,0.4-0.1,0.5c0,0.2,0,0.4,0,0.7l0,0.4l0,0.4c0,0.3,0,0.5,0,0.7c0,0.4,0,0.6,0,0.7
		c0,0.1,0,0.1,0,0.2h0.3c0.4,0,0.6,0.2,0.7,0.5v0c0,0.3-0.2,0.4-0.6,0.5c-0.3,0-0.5,0-0.7,0h-0.5c-0.1,0-0.2,0-0.4,0
		c-0.4-0.1-0.6-0.3-0.6-0.6c0-0.3,0.3-0.5,0.8-0.5h0.1c0-0.1,0-0.5,0-1.3c0-0.9,0.1-1.4,0.1-1.4c0-0.1-0.1-0.4-0.1-1h0l0-0.1v-0.1
		c0-0.2,0-0.4,0-0.5l0-0.2l0-0.3l0-0.7c0-0.2,0.1-0.3,0.1-0.3l0-0.2v-0.1c0-0.2,0-0.4,0.1-0.6c0-0.3-0.1-0.5-0.1-0.5l0-0.3v0
		c0-0.1,0-0.3,0-0.4l0-0.2c0-0.2,0-0.5,0-0.6v-0.1c-0.6,0-0.9-0.2-0.9-0.5v-0.1C198.1,16.9,198.4,16.8,199.1,16.8L199.1,16.8z"/>
	<path class="st1" d="M168.4,16.6c0.3,0,0.5,0.3,0.5,1v0.3c0,0,0,0,0,0l0,0.1c0,0.4-0.1,0.6-0.1,0.6c0,0.3,0.1,0.8,0.1,1.6l0,0.1
		l0,0.2c0,0.3,0,0.6-0.1,0.9c0,0.2,0,0.3,0,0.4v0.2c0,0.4,0,0.9,0,1.5l0,0.2c0,0,0,0,0,0l0,0.3v0.5c0,0.2,0,0.4,0,0.6
		c0,0.3,0.1,0.4,0.1,0.4l0,0.2v0.1c0,0.1,0,0.2,0,0.4c-0.1,0.1-0.1,0.2-0.1,0.3l0.1,0.2c0,0.7-0.2,1.1-0.6,1.1h0
		c-0.2,0-0.3-0.1-0.5-0.4c-0.2,0-0.6-0.4-1.2-1.2c-0.1,0-0.3-0.3-0.9-1c-1.1-1.2-1.7-1.9-1.7-2c-0.8-0.9-1.5-1.7-2.1-2.4V21
		c0,0.1,0,0.3,0,0.4l-0.1,0.5c0.1,0.5,0.1,1,0.1,1.2h0c0,0,0,0,0,0l0,0.6c0,0.2,0,0.7,0.1,1.4l0,0.3c0,0.2,0,0.5,0,0.6l-0.1,0
		c0.1,0.5,0.1,0.9,0.1,1.2c-0.2,0.2-0.3,0.3-0.5,0.3c-0.3,0-0.5-0.3-0.6-0.8v-0.3c0,0,0,0,0,0c0,0-0.1-0.2-0.1-0.4
		c0.1-0.1,0.1-0.2,0.1-0.3s0-0.2-0.1-0.3l0.1-0.7c-0.1-0.5-0.1-0.9-0.1-1.1c0,0,0-0.1,0.1-0.3l0-0.2c0,0,0-0.1,0-0.3
		c-0.1-0.2-0.1-0.4-0.1-0.6V21c0-0.3,0-0.5,0-0.7c0-0.2,0-0.4,0-0.7v-1.3c0-0.1,0-0.2,0-0.4c0-0.1,0-0.1,0-0.1c0-0.2,0-0.3,0-0.5
		c0.2-0.4,0.4-0.6,0.6-0.6h0c0.2,0,0.5,0.2,0.8,0.7c0.1,0,0.3,0.3,0.7,0.8c0.4,0.3,0.7,0.7,0.9,1.1c0.1,0,0.3,0.2,0.6,0.5
		c0.7,0.8,1.1,1.2,1.1,1.3c0.6,0.6,0.9,0.9,1,0.9c0.4,0.6,0.8,1,1.2,1.4h0v-1.1c0-0.1,0-0.1,0-0.2l0.1-0.5c0-0.2,0-0.3,0-0.4V21
		c0-0.3,0-0.4,0.1-0.4l0-0.2v0c0-0.1,0-0.2,0-0.2l0-0.3c0-0.5,0-1,0-1.5c0-0.4,0-0.8,0-1.2C167.9,16.9,168,16.7,168.4,16.6
		L168.4,16.6z M161.9,18.5c0,0.1,0,0.2,0,0.2c0,0.5,0.3,1,0.8,1.4c0,0.2,0.3,0.5,0.9,1c0.4,0.6,0.9,1.1,1.3,1.5c0,0.1,0.3,0.5,1,1.2
		c0,0.1,0.3,0.4,0.8,1c0.7,0.8,1.1,1.3,1.1,1.4h0.1v-0.5c0-0.1,0-0.1,0-0.2c-0.1-0.2-0.1-0.3-0.1-0.3c0-0.1,0-0.1,0-0.2
		c-0.1,0-0.5-0.5-1.4-1.5c-0.1,0-0.4-0.4-1.1-1.2c-0.3-0.3-0.6-0.6-0.8-0.9l-1-1.1c-0.2-0.1-0.6-0.5-1-1.1
		C162.6,19.2,162.3,18.9,161.9,18.5z M162.8,23.2c0.3,0,0.4,0.2,0.5,0.6c0,0.3-0.2,0.4-0.4,0.4h-0.1c-0.4-0.1-0.6-0.2-0.6-0.5v0
		C162.3,23.5,162.5,23.3,162.8,23.2z M163,25.2c0.2,0.1,0.3,0.2,0.3,0.4c0,0.3-0.2,0.5-0.5,0.5h-0.3c0,0-0.1-0.1-0.3-0.3v-0.2
		C162.4,25.4,162.6,25.3,163,25.2z M166.5,19.3h0.2c0.3,0,0.5,0.2,0.5,0.6c-0.1,0.2-0.3,0.3-0.5,0.3c-0.4-0.1-0.5-0.2-0.5-0.5
		C166.1,19.5,166.2,19.3,166.5,19.3z M166.5,17.5h0.2c0.2,0.1,0.3,0.3,0.3,0.5V18c0,0.2-0.2,0.4-0.5,0.4c-0.3,0-0.4-0.2-0.4-0.5
		v-0.1C166.1,17.6,166.3,17.5,166.5,17.5z"/>
	<path class="st1" d="M195.8,16.6c0.3,0,0.5,0.3,0.5,1v0.3c0,0,0,0,0,0l0,0.1c0,0.4-0.1,0.6-0.1,0.6c0,0.3,0.1,0.8,0.1,1.6l0,0.1
		l0,0.2c0,0.3,0,0.6-0.1,0.9c0,0.2,0,0.3,0,0.4v0.2c0,0.4,0,0.9,0,1.5l0,0.2c0,0,0,0,0,0l0,0.3v0.5c0,0.2,0,0.4,0,0.6
		c0,0.3,0.1,0.4,0.1,0.4l0,0.2v0.1c0,0.1,0,0.2,0,0.4c-0.1,0.1-0.1,0.2-0.1,0.3l0.1,0.2c0,0.7-0.2,1.1-0.6,1.1h0
		c-0.2,0-0.3-0.1-0.5-0.4c-0.2,0-0.6-0.4-1.2-1.2c-0.1,0-0.3-0.3-0.9-1c-1.1-1.2-1.7-1.9-1.7-2c-0.8-0.9-1.5-1.7-2.1-2.4V21
		c0,0.1,0,0.3,0,0.4l-0.1,0.5c0.1,0.5,0.1,1,0.1,1.2h0c0,0,0,0,0,0l0,0.6c0,0.2,0,0.7,0.1,1.4l0,0.3c0,0.2,0,0.5,0,0.6l-0.1,0
		c0.1,0.5,0.1,0.9,0.1,1.2c-0.2,0.2-0.3,0.3-0.5,0.3c-0.3,0-0.5-0.3-0.6-0.8v-0.3c0,0,0,0,0,0c0,0-0.1-0.2-0.1-0.4
		c0.1-0.1,0.1-0.2,0.1-0.3s0-0.2-0.1-0.3l0.1-0.7c-0.1-0.5-0.1-0.9-0.1-1.1c0,0,0-0.1,0.1-0.3l0-0.2c0,0,0-0.1,0-0.3
		c-0.1-0.2-0.1-0.4-0.1-0.6V21c0-0.3,0-0.5,0-0.7c0-0.2,0-0.4,0-0.7v-1.3c0-0.1,0-0.2,0-0.4c0-0.1,0-0.1,0-0.1c0-0.2,0-0.3,0-0.5
		c0.2-0.4,0.4-0.6,0.6-0.6h0c0.2,0,0.5,0.2,0.8,0.7c0.1,0,0.3,0.3,0.7,0.8c0.4,0.3,0.7,0.7,0.9,1.1c0.1,0,0.3,0.2,0.6,0.5
		c0.7,0.8,1.1,1.2,1.1,1.3c0.6,0.6,0.9,0.9,1,0.9c0.4,0.6,0.8,1,1.2,1.4h0v-1.1c0-0.1,0-0.1,0-0.2l0.1-0.5c0-0.2,0-0.3,0-0.4V21
		c0-0.3,0-0.4,0.1-0.4l0-0.2v0c0-0.1,0-0.2,0-0.2l0-0.3c0-0.5,0-1,0-1.5c0-0.4,0-0.8,0-1.2C195.3,16.9,195.4,16.7,195.8,16.6
		L195.8,16.6z M189.3,18.5c0,0.1,0,0.2,0,0.2c0,0.5,0.3,1,0.8,1.4c0,0.2,0.3,0.5,0.9,1c0.4,0.6,0.9,1.1,1.3,1.5c0,0.1,0.3,0.5,1,1.2
		c0,0.1,0.3,0.4,0.8,1c0.7,0.8,1.1,1.3,1.1,1.4h0.1v-0.5c0-0.1,0-0.1,0-0.2c-0.1-0.2-0.1-0.3-0.1-0.3c0-0.1,0-0.1,0-0.2
		c-0.1,0-0.5-0.5-1.4-1.5c-0.1,0-0.4-0.4-1.1-1.2c-0.3-0.3-0.6-0.6-0.8-0.9l-1-1.1c-0.2-0.1-0.6-0.5-1-1.1
		C190,19.2,189.7,18.9,189.3,18.5z M190.2,23.2c0.3,0,0.4,0.2,0.5,0.6c0,0.3-0.2,0.4-0.4,0.4h-0.1c-0.4-0.1-0.6-0.2-0.6-0.5v0
		C189.7,23.5,189.9,23.3,190.2,23.2z M190.4,25.2c0.2,0.1,0.3,0.2,0.3,0.4c0,0.3-0.2,0.5-0.5,0.5H190c0,0-0.1-0.1-0.3-0.3v-0.2
		C189.8,25.4,190,25.3,190.4,25.2z M193.9,19.3h0.2c0.3,0,0.5,0.2,0.5,0.6c-0.1,0.2-0.3,0.3-0.5,0.3c-0.4-0.1-0.5-0.2-0.5-0.5
		C193.5,19.5,193.6,19.3,193.9,19.3z M193.9,17.5h0.2c0.2,0.1,0.3,0.3,0.3,0.5V18c0,0.2-0.2,0.4-0.5,0.4c-0.3,0-0.4-0.2-0.4-0.5
		v-0.1C193.5,17.6,193.7,17.5,193.9,17.5z"/>
	<path class="st1" d="M182.5,16.8c0.5,0,1.2,0.1,2,0.4c0.1,0.1,0.4,0.3,0.8,0.5c0.3,0.3,0.7,0.6,1,1.1c0.1,0,0.3,0.5,0.8,1.5
		c0.2,0.8,0.3,1.4,0.3,1.8l0,0.1l0,0.2c0,1.2-0.3,2.3-1,3.3c0,0.1-0.4,0.6-1.3,1.3c-0.8,0.5-1.5,0.7-1.9,0.7c0,0-0.1,0.1-0.4,0.1
		c-0.1-0.1-0.2-0.1-0.3-0.1c0,0-0.1,0-0.3,0c-0.8-0.2-1.4-0.4-1.8-0.7c-0.9-0.8-1.5-1.5-1.7-2.1c-0.1,0-0.3-0.4-0.5-1.3
		c-0.1-0.5-0.1-0.7-0.1-0.8c0-0.1,0-0.1,0-0.1c-0.1-0.4-0.1-0.6-0.1-0.6c0-0.8,0.3-1.7,0.7-2.5c0.1-0.2,0.4-0.7,0.9-1.3l0.5-0.5
		c0.8-0.5,1.5-0.8,1.9-0.8C181.9,16.8,182.1,16.8,182.5,16.8z M178.9,21.9c0,1.9,0.6,3.3,1.9,4.2c0.3,0.2,0.8,0.4,1.5,0.6l0.1,0
		c0.2,0,0.4,0,0.4,0c0.4-0.1,0.9-0.2,1.3-0.5c0.9-0.7,1.5-1.5,1.9-2.5c0.1-0.5,0.2-0.9,0.2-1.2c0-0.3,0-0.5,0-0.5l0-0.2
		c-0.1-0.9-0.3-1.5-0.5-1.9c-0.3-0.6-0.6-1-1-1.3c-0.8-0.6-1.5-0.8-1.9-0.8c-0.1,0-0.2,0-0.2,0l-0.4,0c-0.5,0.1-1.1,0.3-1.5,0.6
		c-0.7,0.7-1.2,1.3-1.4,1.9c-0.2,0.5-0.3,0.8-0.3,1C179,21.3,179,21.5,178.9,21.9z M182.6,19.1c0.1,0,0.2,0.1,0.4,0.3v0.2
		c0,0.3-0.2,0.4-0.4,0.4h-0.1c-0.2,0-0.4-0.2-0.4-0.4v-0.2C182.3,19.2,182.4,19.1,182.6,19.1z M182.5,21.7L182.5,21.7
		c0.3,0,0.4,0.2,0.5,0.5c0,0.2-0.2,0.3-0.5,0.4c-0.2-0.1-0.3-0.2-0.3-0.3v-0.2C182.2,21.8,182.3,21.7,182.5,21.7z M182.5,24.5h0.2
		c0.2,0,0.3,0.1,0.3,0.3V25c-0.1,0.2-0.2,0.3-0.4,0.3h0c-0.3,0-0.4-0.2-0.4-0.4v-0.2C182.2,24.7,182.3,24.6,182.5,24.5z"/>
	<path class="st1" d="M153,16.8c0.6,0,0.9,0,1.1,0c0.2,0.2,0.4,0.5,0.5,0.8c0,0.1,0,0.2,0,0.3c0,0.1,0,0.3,0,0.4
		c0,0.4-0.2,0.7-0.5,0.7c-0.4-0.1-0.6-0.3-0.6-0.6c0.1-0.2,0.1-0.3,0.1-0.4c0,0,0-0.1,0-0.2c0,0,0,0,0,0c-0.1,0-0.2-0.1-0.4-0.1
		c-1,0.3-1.7,0.5-1.9,0.8c-0.1,0.2-0.1,0.3-0.1,0.4c0,0.4,0.2,0.7,0.6,0.9c0.5,0.2,1,0.4,1.6,0.4c0.6,0.2,1,0.4,1.2,0.7
		c0.5,0.4,0.8,0.9,1,1.5c0,0.1,0.1,0.2,0.2,0.4c0.1,0.4,0.2,0.8,0.2,1.4l0,0.3l0,0.2c-0.1,0.9-0.4,1.6-0.8,2.1c-0.4,0.3-1,0.6-2,0.8
		c0,0-0.1,0-0.3,0c0,0-0.1,0-0.1,0c-0.1,0-0.2,0-0.2,0c-0.3,0.1-0.5,0.1-0.5,0.1l-1.2-0.3c-0.4-0.1-0.8-0.3-1.2-0.7
		c-0.2-0.1-0.3-0.2-0.3-0.4c0-0.2,0.1-0.3,0.3-0.5h0.1c0.4,0,0.8,0.2,1.3,0.6l0.3,0.1c0,0,0.1,0,0.2,0c0.4,0.1,0.7,0.1,0.8,0.1
		c1.4,0,2.2-0.3,2.5-0.9c0-0.2,0.1-0.4,0.2-0.6l0-0.2c0.1-0.1,0.1-0.2,0.1-0.3v-0.8c-0.4-1.7-1.2-2.6-2.4-2.6
		c-1.6-0.3-2.4-1.1-2.4-2.6c0.4-0.8,0.8-1.2,1.1-1.2C151.5,17.2,152.1,17,153,16.8z M150.6,23.8h0.2c0.2,0.1,0.3,0.3,0.3,0.4
		c-0.1,0.2-0.2,0.4-0.4,0.4h-0.1c-0.2,0-0.4-0.2-0.4-0.4v0C150.3,24,150.4,23.8,150.6,23.8z M151.9,23.8h0.2c0.3,0,0.4,0.2,0.4,0.4
		v0c0,0.2-0.1,0.3-0.3,0.4H152c-0.2,0-0.4-0.2-0.4-0.4C151.6,24.1,151.7,23.9,151.9,23.8z M153.2,23.8h0.2c0.3,0,0.4,0.2,0.4,0.4v0
		c0,0.2-0.1,0.3-0.3,0.4h-0.2c-0.2,0-0.4-0.2-0.4-0.4C152.9,24.1,153,23.9,153.2,23.8z"/>
</g>
</svg>
