<?xml version="1.0" encoding="utf-8"?>
<!-- Generator: Adobe Illustrator 24.0.1, SVG Export Plug-In . SVG Version: 6.00 Build 0)  -->
<svg version="1.1" id="Camada_1" xmlns="http://www.w3.org/2000/svg" xmlns:xlink="http://www.w3.org/1999/xlink" x="0px" y="0px"
	 viewBox="0 0 219 219" style="enable-background:new 0 0 219 219;" xml:space="preserve">
<style type="text/css">
	.st0{fill:#BE1B2E;}
	.st1{fill-rule:evenodd;clip-rule:evenodd;fill:#FFFFFF;}
	.st2{fill:#FFFFFF;}
</style>
<path class="st0" d="M208.9,0H10.1C4.5,0,0,4.5,0,10.1V209c0,5.5,4.5,10,10.1,10H209c5.6,0,10.1-4.5,10.1-10.1V10.1
	C219,4.5,214.5,0,208.9,0z M215,208.9c0,3.3-2.7,6-6,6h-142l-13-20.2c-1.6-2.5-4.1-4.3-7-5L4,179.7V10.1c0-3.3,2.7-6,6-6h114.3
	l19.2,29.9c2.3,3.5,5.8,6,9.9,7L215,55.3L215,208.9L215,208.9z"/>
<g>
	<g>
		<path class="st1" d="M165.4,9.6c2.1,1.7,3.7,3.6,4.7,5.9c-3.5-0.6-6.8-0.1-9.5,1.4L165.4,9.6z M165.6,9.3c2.9,0.2,5.5,1.9,6,6
			c1.1-2.2,1.5-4.3,1.3-6.4L168,5.7L165.6,9.3z M174.4,9.9c0.5,1.7,0.3,3.5-0.9,5.4c1.6-0.9,2.8-2.1,3.6-3.6l-1.7-1.1
			c-0.4-1.5-1.7-2.8-2.8-3.4C173.5,8,174.1,8.9,174.4,9.9L174.4,9.9z"/>
		<path class="st1" d="M170.5,17c0.2,0,0.4,0,0.6,0.1c-0.3,3.5-2.3,6-5.6,7.4C167.9,22.4,169.6,19.8,170.5,17L170.5,17z M171.7,18
			c1.6,2.7,1.9,5.5,1.4,8.1c1.6-3.1,1.1-6.6-1.4-8.9C171.8,17.5,171.8,17.8,171.7,18L171.7,18z M173.5,18c2.5,1.2,4.1,3.2,4.9,5.9
			c0.1-3.9-1.9-6-5.5-6.7C173.1,17.4,173.3,17.7,173.5,18L173.5,18z"/>
		<path class="st1" d="M174.5,19.7c-0.2-0.6-0.6-1.2-1-1.7c2.5,1.2,4.1,3.2,4.9,5.9C177.4,22.1,176.1,20.7,174.5,19.7L174.5,19.7z
			 M171.3,20.3c1.2,1.8,1.7,3.8,1.9,5.9c0.5-2.6,0.2-5.4-1.4-8.1C171.7,18.9,171.5,19.6,171.3,20.3L171.3,20.3z"/>
		<path class="st1" d="M170.2,16.8c-14-2.1-19,14.1-11.5,19.1c5.2,3.5,10.5,0.4,11.3-2.3c0.5-1.9-0.2-4-2.2-4.9
			c-0.8,0.2-1.5,0.5-2.1,1c2.5,0.6,2.3,3.6,0.6,4.3c-4.4,1.8-8.2-4-6.7-8.7c1.2-3.9,5-6.8,9.2-7.3c-0.4,1.9-1.7,4.2-3.3,6.3
			c2.4-2.1,4.1-4.7,5-7.5L170.2,16.8z"/>
	</g>
	<g>
		<path class="st2" d="M183.3,18.4c-0.9,0-1.7,0-2.3,0c-0.6,0-1.1-0.1-1.4-0.3c-0.3-0.2-0.5-0.4-0.5-0.5l-0.3-0.7
			c-0.2-0.4-0.3-0.6-0.3-0.7c0-0.1,0.1-0.3,0.3-0.4c0.2-0.1,0.6-0.2,1.3-0.4c0.8-0.2,2.1-0.4,3.7-0.5c0.3,0,0.4,0,0.5-0.1l0.1-0.4
			c0-0.2,0.1-0.6,0.2-1.1c0.1-0.5,0.2-0.8,0.3-1.1c0.1-0.4,0.3-0.7,0.5-1.1c0.2-0.4,0.3-0.6,0.4-0.7c0.2-0.3,0.5-0.5,0.9-0.6
			c0.3,0,0.4,0,0.3,0.1c-0.1,0.1-0.1,0.1,0,0.1s0.1,0,0.2-0.1c0,0,0.1-0.1,0.3-0.1c0.1,0.1,0.1,0.2,0.1,0.2c0,0.1-0.1,0.4-0.2,1
			c0,0.1-0.1,0.4-0.2,0.7c-0.1,0.4-0.1,0.7-0.2,1.1c-0.1,0.4-0.1,0.7-0.2,1c0,0.3-0.1,0.5-0.1,0.6c0,0.1,0,0.2,0.1,0.2
			c0.1,0,0.1-0.1,0.2-0.2c0-0.1,0.1-0.4,0.2-0.9c0-0.2,0.1-0.5,0.1-0.9c0-0.4,0.1-0.7,0.2-0.9c0-0.3,0.1-0.5,0.1-0.7
			c0-0.2,0-0.3,0-0.4c0-0.1,0-0.2,0.1-0.3c0-0.1,0.1-0.2,0.1-0.2c0,0,0.1,0.1,0.2,0.3c0.1,0.2,0.2,0.3,0.2,0.5c0,0.2,0.1,0.5,0.1,1
			c0,0.5,0,0.9-0.1,1.1c0,0.1,0,0.2,0,0.4c0,0.2,0,0.4,0,0.5c0,0.4-0.1,0.6,0,0.6c0,0.1,0.1,0.1,0.4,0.1c0.4,0,0.9,0.1,1.6,0.2
			c0.7,0.1,1.2,0.3,1.7,0.4c0.5,0.2,1,0.4,1.5,0.6c0.5,0.2,0.7,0.5,0.8,0.6c0.1,0.2,0,0.4-0.1,0.5c0,0-0.2,0-0.5,0.1
			c-0.3,0-0.7,0.1-1.1,0.2c-0.9,0.2-1.6,0.4-2,0.4c-0.4,0-1,0.1-1.7,0.2c-0.6,0-1,0.1-1,0.1c-0.1,0.2-0.1,1.2-0.1,2.8
			c0,0.4,0.1,0.9,0.1,1.3c0,0.4,0,0.7,0,0.9c0,0.4-0.1,0.7-0.1,1.1c0,0.4-0.1,0.5-0.1,0.5c-0.1,0-0.2,0-0.3-0.1
			c-0.3,0-0.6-0.2-1-0.6c-0.5-0.5-0.9-1.1-1.1-1.8c-0.2-0.7-0.5-1.8-0.7-3.2l-0.1-0.7c0,0-0.1-0.1-0.3-0.1
			C184.1,18.3,183.8,18.4,183.3,18.4z M186.7,18.3c0,0.1,0,0.4,0,1c0,0.6,0.1,1.2,0.2,1.8c0.1,0.6,0.2,1.3,0.3,1.8
			c0.1,0.6,0.2,0.9,0.2,1.1l0.1,0.2v-0.3c0-0.1,0-0.3,0-0.6c0-0.3-0.1-0.7-0.1-1.1c-0.1-0.4-0.1-0.9-0.2-1.4c0-0.5-0.1-0.9-0.1-1.2
			v-0.9c0-0.1-0.1-0.3-0.1-0.4c0-0.1,0-0.1-0.1-0.1C186.8,18.1,186.8,18.2,186.7,18.3z"/>
	</g>
	<path class="st2" d="M179.1,32.2c0.2,0.3-0.5,0.8-0.7,1.1c0.2,1,0.6,2.6,0,3.1c-0.7,0.5-0.8-0.6-1.7-2.8c0-0.2-2.4,0.2-3.6,0.3
		c-0.2,0-0.5,0.5-0.8,0.8c-0.7,0.9-2,2.9-2.6,2.5c-0.4-0.2,0.1-1.1,0.3-1.8c0.4-1.1,1.2-2.2,1.7-3.1c0.5-0.9,2.5-3.8,2.6-3.9
		c0.2-0.5,0-1.1,0.5-1.2c0.5-0.2,1.3,0.8,1.5,1.2c0.7,1,1.2,2.2,1.6,3.6C178.5,32,178.9,32,179.1,32.2z M176.3,32.2
		c-0.1-0.8-0.8-2.6-0.9-2.5c-0.3,0-1.4,2.3-1.5,2.8C174.7,32.4,175.5,32.3,176.3,32.2z"/>
	<path class="st2" d="M182.1,28.6c0.2-0.1,0.4,0,0.3,0.3c-0.3,2.9-1.4,4.4-1.8,7.4c-0.1,0.7-0.9,0.7-0.9-0.2
		C179.8,33.3,179.7,29.8,182.1,28.6z M183.4,34.6c-1.7-0.9-0.3-2.4,0.7-3.5c0.9-1,1.9-1.9,1.5-2.4c-0.7-0.9-5.4,0.3-5.3-0.5
		c0.2-1.2,3.2-1,4.7-1c1.4,0.1,2.5,0.4,2.7,1.1c0.4,1.1-3,3.6-3.3,4.6c-0.4,1.1,1.2,1.6,1.9,1.9c1.6,0.7,2,1.8,2.2,2.3
		c0.5,1.3-1,0.3-1.5-0.1C186.7,36.6,185,35.5,183.4,34.6z"/>
	<path class="st2" d="M191.6,29c0.2,0.6-0.1,2.3-0.3,3.1c-0.2,1.3-0.6,2.8-0.9,4c-0.1,0.4-0.5,1.3-1,0.9c-0.4-0.3-0.2-3.2-0.1-4.9
		c0.1-1.2,0.8-4.4,1.4-4.4C191.4,27.9,191.4,28.5,191.6,29z"/>
	<path class="st2" d="M192.8,32.7c-0.5-0.4-0.8-1.3-0.1-1.7c1.8-0.9,5.9-1,5.7-2c-0.4-0.9-4.4-0.5-4-2c0.2-0.7,4.6,0.4,5.7,1.5
		c0.4,0.4,0.8,0.9,0.2,1.6c-0.8,0.6-5.1,0.9-5.4,1.3c-0.4,0.8,2.3,0.7,3.8,1.2c0.6,0.2,1.6,0.6,1.4,1.3c-0.1,0.5-1.4,1.3-1.9,1.5
		c-1.4,0.6-2.3,1.1-3.8,1.7c-0.8,0.4-1.9,0.8-2.7,0.3c-0.1-0.1-0.1-0.3,0-0.4c0.8-0.6,1.8-1.1,3-1.6c1.2-0.5,3.6-1.1,3.2-1.6
		C197.1,32.9,193.9,33.6,192.8,32.7z"/>
	<path class="st2" d="M205.7,36.4c-0.5,0.2-1.5,0.5-2.1,0.7c-1.1,0.3-1.9,0.1-2.5-0.2c-0.7-0.4-0.7-1.5-0.5-2c0.2-0.7,1-1.2,1.6-1.4
		c0.2-0.1,0.5-0.1,0.6,0c0.2,0.2,0.1,0.4-0.2,0.6c-0.5,0.4-0.9,0.7-0.8,1.1c0.2,1.2,2.3,0.4,3.1,0.1c1-0.4,2.3-1,2.8-1.2
		c2.7-1.5,3-0.6,1.8,0.3C209,34.7,206.5,36,205.7,36.4z M204.7,27.7c1.4-0.2,5.1-0.5,5.3-0.1c0.3,0.5-0.5,0.6-1,0.8
		c-1.2,0.4-2.8,0.8-4.3,0.8c-0.8,0.1-1.8,0.2-2.5,0c-0.6-0.2-1.2-0.7-1.2-1C201.1,27.9,203.4,27.8,204.7,27.7z M207.9,31.7
		c-0.4,0.2-1.6,0.7-2.8,0.7c-0.2,0-2.3-0.1-2.9-0.5c-0.3-0.2-0.4-0.6-0.2-1c0.4-0.4,0.9-0.1,1.6,0c1.3,0.2,2.9-0.1,3.2-0.1
		c0.5-0.1,1.5-0.2,1.6-0.1C208.6,30.8,208.6,31.3,207.9,31.7z"/>
	<g>
		<path class="st2" d="M192.9,25.3C192.9,25.3,192.9,25.2,192.9,25.3C192.9,25.2,192.9,25.2,192.9,25.3c0-0.2-0.1-0.3-0.1-0.4
			c0,0,0,0,0,0c0,0,0,0,0,0c-0.1-0.2-0.2-0.4-0.4-0.6c-0.4-0.4-1.1-0.6-1.7-0.4c0,0,0,0-0.1,0c-0.2,0.1-0.3,0.3-0.4,0.5
			c-0.2,0.3-0.2,0.7-0.1,1c0.1,0.4,0.5,0.6,0.9,0.6c0.1,0,0.2,0,0.3-0.1c0.1-0.1,0.3-0.2,0.3-0.3c0.1-0.1,0.1-0.3,0-0.4
			c0-0.1-0.2-0.2-0.3-0.2c0,0-0.1,0-0.1,0c0,0,0,0,0,0c0,0.1,0,0.2,0,0.2c0,0.1,0,0.1,0,0.2c0,0,0,0.1-0.1,0.1
			c-0.1,0.1-0.1,0.1-0.2,0.2c0,0-0.1,0-0.1,0c-0.2,0-0.3-0.1-0.4-0.3c-0.1-0.3-0.1-0.5,0-0.8c0.1-0.2,0.3-0.4,0.6-0.5
			c0.1,0,0.3-0.1,0.4-0.1c0.2,0,0.3,0,0.5,0.1c0.3,0.1,0.5,0.4,0.6,0.7c0.1,0.4,0.1,0.7-0.1,1.1c-0.1,0.3-0.4,0.6-0.7,0.7
			c-0.1,0.1-0.2,0.2-0.4,0.2c-0.3,0.1-0.7,0.1-1,0.1c0.7,0.4,1.5,0.3,2.1-0.3C192.8,26.4,193,25.8,192.9,25.3z"/>
		<path class="st2" d="M191.6,26.7c0.3-0.1,0.6-0.4,0.7-0.7c0.2-0.3,0.2-0.7,0.1-1c-0.1-0.3-0.3-0.5-0.5-0.6c-0.3-0.1-0.5-0.1-0.8,0
			c-0.2,0.1-0.4,0.2-0.5,0.5c-0.1,0.2-0.1,0.5,0,0.7c0.1,0.2,0.2,0.2,0.4,0.2c0.2-0.1,0.2-0.2,0.2-0.4c0-0.1,0-0.1,0-0.2
			c0-0.1,0.1-0.1,0.2-0.1c0.2-0.1,0.5,0,0.6,0.3c0.1,0.2,0.1,0.4,0,0.5c-0.1,0.2-0.2,0.3-0.4,0.4c-0.5,0.2-1.1-0.1-1.3-0.6
			c-0.1-0.4-0.1-0.8,0.1-1.1c0.2-0.4,0.5-0.6,0.8-0.7c0.3-0.1,0.7-0.1,1-0.1c-0.7-0.4-1.5-0.3-2.1,0.3c-0.4,0.4-0.6,1-0.5,1.5
			c0,0,0,0,0,0.1c0,0,0,0,0,0c0,0.1,0,0.2,0.1,0.3c0,0,0,0,0,0c0,0,0,0,0,0c0.1,0.2,0.2,0.4,0.4,0.6C190.3,26.8,191,26.9,191.6,26.7
			z"/>
	</g>
</g>
</svg>
