<?xml version="1.0" encoding="utf-8"?>
<!-- Generator: Adobe Illustrator 24.0.1, SVG Export Plug-In . SVG Version: 6.00 Build 0)  -->
<svg version="1.1" id="Camada_1" xmlns="http://www.w3.org/2000/svg" xmlns:xlink="http://www.w3.org/1999/xlink" x="0px" y="0px"
	 viewBox="0 0 219 219" style="enable-background:new 0 0 219 219;" xml:space="preserve">
<style type="text/css">
	.st0{fill:#BE1B2E;}
	.st1{fill:#FFFFFF;}
</style>
<path class="st0" d="M208.9,0H10.1C4.5,0,0,4.5,0,10.1V209c0,5.5,4.5,10,10.1,10H209c5.6,0,10.1-4.5,10.1-10.1V10.1
	C219,4.5,214.5,0,208.9,0z M215,208.9c0,3.3-2.7,6-6,6h-142l-13-20.2c-1.6-2.5-4.1-4.3-7-5L4,179.7V10.1c0-3.3,2.7-6,6-6h114.3
	l19.2,29.9c2.3,3.5,5.8,6,9.9,7L215,55.3L215,208.9L215,208.9z"/>
<g>
	<g>
		<path class="st1" d="M167.7,8.4v10.2h-2.5v-4.5l-2.6,2.6l-2.6-2.6l-2.5-2.5V8.4h0.4l4.7,4.7l4.7-4.7H167.7z M157.6,12.7l2.5,2.5
			v3.3h-2.5V12.7z"/>
		<path class="st1" d="M171.7,12l-2.5-2.5V8.4h2.5V12z M174.5,16l2,2l-0.3,0.1c-0.6,0.3-1.3,0.4-2,0.4c-1,0-2-0.3-2.9-0.9
			c-1.4-0.9-2.2-2.5-2.2-4.2v-2.8l2.5,2.5v0.3c0,0.7,0.3,1.3,0.8,1.8c0.5,0.5,1.1,0.8,1.8,0.8C174.3,16,174.4,16,174.5,16L174.5,16z
			 M179.4,8.4v5.1c0,0.8-0.2,1.6-0.5,2.3c-0.3,0.7-0.8,1.3-1.4,1.7l-0.1,0.1l-1.8-1.8l0.2-0.1c0.2-0.1,0.3-0.2,0.4-0.4
			c0.5-0.5,0.8-1.1,0.8-1.8V8.4H179.4z"/>
		<path class="st1" d="M183.8,16.1l2.5,2.4h-5.4V8.4h2.5v7.6L183.8,16.1L183.8,16.1z M187.9,16.1v2.5h-0.5l-2.5-2.5H187.9z"/>
		<path class="st1" d="M197.9,8.4v2.5h-3.8v3.7l-2.5-2.5v-1.2h-3.8V8.4H197.9z M191.6,13.3l2.5,2.5v2.7h-2.5V13.3z"/>
		<path class="st1" d="M201.9,8.4v3.8l-2.5-2.5V8.4H201.9z M199.4,10.8l2.5,2.5v5.2h-2.5V10.8z"/>
	</g>
	<g>
		<path class="st1" d="M169.1,26.2h2.7l-0.1,0.3c-0.2,0.7-0.5,1.4-1,2.1c-0.5,0.6-1.1,1.1-1.7,1.4c-0.1,0.1-0.2,0.1-0.4,0.2
			c-0.7,0.3-1.3,0.4-2,0.4c-1.4,0-2.7-0.5-3.7-1.5c-1-1-1.5-2.3-1.5-3.7c0-0.6,0.1-1.2,0.3-1.7l0.1-0.3l2.2,2.2v0.1
			c0,0.6,0.3,1.2,0.8,1.7c0.4,0.4,1,0.7,1.7,0.8c0.1,0,0.3,0,0.4,0c0.3,0,0.5-0.1,0.8-0.2c0.1,0,0.2-0.1,0.2-0.1
			c0.3-0.1,0.5-0.3,0.7-0.5C168.7,26.9,168.9,26.6,169.1,26.2L169.1,26.2z M164.1,24.4l-1.9-1.9l0.1-0.1c1-1.4,2.6-2.2,4.3-2.2
			c1.2,0,2.4,0.4,3.3,1.2c0.9,0.7,1.6,1.8,1.8,2.9l0.1,0.3h-2.7l-0.1-0.1c-0.1-0.3-0.3-0.6-0.6-0.9c-0.5-0.5-1.2-0.8-1.9-0.8
			c-0.7,0-1.4,0.3-1.9,0.8c-0.2,0.2-0.4,0.4-0.5,0.7L164.1,24.4z"/>
		<path class="st1" d="M175.7,24l-2.5-2.5v-1.2h2.5V24z M178.5,27.9l2,2l-0.3,0.1c-0.6,0.3-1.3,0.4-2,0.4c-1,0-2-0.3-2.9-0.9
			c-1.4-0.9-2.2-2.5-2.2-4.2v-2.8l2.5,2.5v0.3c0,0.7,0.3,1.3,0.8,1.8c0.5,0.5,1.1,0.8,1.8,0.8C178.3,28,178.4,28,178.5,27.9
			L178.5,27.9z M183.4,20.3v5.1c0,0.8-0.2,1.6-0.5,2.3c-0.3,0.7-0.8,1.3-1.4,1.7l-0.1,0.1l-1.8-1.8l0.2-0.1c0.2-0.1,0.3-0.2,0.4-0.4
			c0.5-0.5,0.8-1.1,0.8-1.8v-5.2H183.4z"/>
		<path class="st1" d="M187.8,28.1l2.5,2.5h-5.4V20.3h2.5V28L187.8,28.1L187.8,28.1z M191.9,28v2.5h-0.5l-2.5-2.5H191.9z"/>
		<path class="st1" d="M201.9,20.3l0,2.6h-3.8v3.7l-2.5-2.5v-1.2h-3.8l0-2.6H201.9z M195.6,25.3l2.5,2.5v2.7h-2.5V25.3z"/>
	</g>
	<g>
		<path class="st1" d="M174.6,35.6l-2.5-2.5v-1.1h2.5V35.6z M177.4,39.5l2,2l-0.3,0.1c-0.6,0.3-1.3,0.4-2,0.4c-1,0-2-0.3-2.9-0.9
			c-1.4-0.9-2.2-2.5-2.2-4.2v-2.8l2.5,2.5V37c0,0.7,0.3,1.3,0.8,1.8c0.5,0.5,1.1,0.8,1.8,0.8C177.2,39.5,177.3,39.5,177.4,39.5
			L177.4,39.5z M182.3,31.9V37c0,0.8-0.2,1.6-0.5,2.3c-0.3,0.7-0.8,1.3-1.4,1.7l-0.1,0.1l-1.8-1.8l0.2-0.1c0.2-0.1,0.3-0.2,0.4-0.4
			c0.5-0.5,0.8-1.1,0.8-1.8v-5.1L182.3,31.9z"/>
		<path class="st1" d="M194.1,42.1h-3.9l0,0l-3.9-3.9v0l-2.5-2.5v-3.7h6.8c0.2,0,0.4,0,0.6,0.1c0.6,0.1,1.1,0.4,1.5,0.8
			c0.4,0.4,0.7,0.9,0.8,1.4c0.1,0.2,0.1,0.5,0.1,0.7c0,0.1,0,0.2,0,0.3c0,0.8-0.4,1.6-0.9,2.1c-0.6,0.6-1.3,0.9-2.2,0.9h0
			c0,0-0.1,0-0.1,0L194.1,42.1z M183.8,36.8l2.5,2.5v2.8h-2.5V36.8z M190.1,35.7c0.1,0,0.1,0,0.2,0c0,0,0.1,0,0.1,0
			c0.1,0,0.2-0.1,0.3-0.2c0,0,0,0,0,0c0,0,0,0,0,0c0,0,0,0,0,0c0,0,0-0.1,0-0.1c0-0.1,0.1-0.2,0.1-0.4c0,0,0,0,0,0c0,0,0,0,0,0
			c0,0,0-0.1,0-0.1c0,0,0-0.1,0-0.1h-4.4l1.2,1.2L190.1,35.7L190.1,35.7z"/>
		<path class="st1" d="M199.3,35l1.5,2.4l-2.9,4.7H195L199.3,35z M207.6,42.1h-2.9l-0.6-1l-4.2-6.9l1.5-2.4L207.6,42.1z"/>
	</g>
</g>
</svg>
