<?xml version="1.0" encoding="utf-8"?>
<!-- Generator: Adobe Illustrator 24.0.1, SVG Export Plug-In . SVG Version: 6.00 Build 0)  -->
<svg version="1.1" id="Camada_1" xmlns="http://www.w3.org/2000/svg" xmlns:xlink="http://www.w3.org/1999/xlink" x="0px" y="0px"
	 viewBox="0 0 219 219" style="enable-background:new 0 0 219 219;" xml:space="preserve">
<style type="text/css">
	.st0{fill:#BE1B2E;}
	.st1{fill:#FFFFFF;}
</style>
<path class="st0" d="M208.9,0H10.1C4.5,0,0,4.5,0,10.1V209c0,5.5,4.5,10,10.1,10H209c5.6,0,10.1-4.5,10.1-10.1V10.1
	C219,4.5,214.5,0,208.9,0z M215,208.9c0,3.3-2.7,6-6,6h-142l-13-20.2c-1.6-2.5-4.1-4.3-7-5L4,179.7V10.1c0-3.3,2.7-6,6-6h114.3
	l19.2,29.9c2.3,3.5,5.8,6,9.9,7L215,55.3L215,208.9L215,208.9z"/>
<g>
	<g>
		<path class="st1" d="M171,11.7h4.8V26H171V11.7z"/>
		<path class="st1" d="M177.5,11.7h7c2.5,0,4.2,0.6,5.2,1.6c0.9,0.9,1.3,1.9,1.3,3.4v0c0,2.1-1.1,3.5-2.8,4.4l3.3,4.9H186l-2.7-4.1
			h-1V26h-4.8V11.7z M184.4,18.5c1.1,0,1.8-0.5,1.8-1.4v0c0-0.9-0.7-1.4-1.8-1.4h-2.1v2.8H184.4z"/>
		<path class="st1" d="M191.8,18.9L191.8,18.9c0-4.2,3.4-7.5,7.8-7.5c4.4,0,7.8,3.3,7.8,7.4v0c0,4.2-3.4,7.5-7.8,7.5
			C195.2,26.3,191.8,23,191.8,18.9z M202.6,18.9L202.6,18.9c0-1.7-1.2-3.3-3-3.3c-1.8,0-3,1.5-3,3.2v0c0,1.7,1.2,3.2,3,3.2
			C201.5,22.1,202.6,20.6,202.6,18.9z"/>
	</g>
	<g>
		<g>
			<path class="st1" d="M171.9,34.8v-5h1.1l1.9,4.4l2-4.4h1.1v5h-0.7l0-4.5l-2,4.5h-0.7l-2-4.5l0,4.5H171.9z"/>
			<path class="st1" d="M179.2,34.8l2.4-5h0.7l2.2,5h-0.7l-0.6-1.4h-2.6l-0.7,1.4H179.2z M180.9,32.7h2l-1-2.1L180.9,32.7z"/>
			<path class="st1" d="M185.8,34.8v-5h1l3.2,4.3v-4.3h0.7v5h-1l-3.2-4.3v4.3H185.8z"/>
			<path class="st1" d="M192.5,34.8v-5h0.7v2h3.1v-2h0.7v5h-0.7v-2.3h-3.1v2.3H192.5z"/>
			<path class="st1" d="M198.2,34.8l2.4-5h0.7l2.2,5h-0.7l-0.6-1.4h-2.6l-0.7,1.4H198.2z M199.6,29.2c0-0.3,0.1-0.5,0.2-0.6
				c0.1-0.2,0.3-0.2,0.5-0.2c0.1,0,0.1,0,0.2,0c0.1,0,0.2,0,0.3,0.1l0.3,0.1c0,0,0,0,0.1,0c0.1,0.1,0.2,0.1,0.3,0.1
				c0.1,0,0.2,0,0.2-0.1c0.1-0.1,0.1-0.2,0.1-0.3h0.4c0,0.3-0.1,0.5-0.2,0.6c-0.1,0.2-0.3,0.2-0.5,0.2c-0.1,0-0.1,0-0.2,0
				c-0.1,0-0.2,0-0.3-0.1l-0.3-0.1c0,0-0.1,0-0.1,0c-0.1-0.1-0.2-0.1-0.3-0.1c-0.1,0-0.2,0-0.2,0.1c-0.1,0.1-0.1,0.2-0.1,0.3H199.6z
				 M199.9,32.7h2l-1-2.1L199.9,32.7z"/>
		</g>
	</g>
	<path class="st1" d="M158.1,19.6c0.1-0.4,0.2-0.7,0.4-1c0.1-0.2,0.2-0.4,0.4-0.5c0.6-0.6,1.3-0.8,2-0.8c0.5,0,1,0,1.5,0
		c0,0,0,0,0,0c2.3,0,4.6,0,6.8,0c0-1.9,0.1-3.7,0.1-5.6c-2.8,0-5.6,0.1-8.3,0.1c-1,0-1.9,0.2-2.9,0.5c-1.1,0.4-2.2,1.1-3.1,2
		c-2.8,2.8-3.2,7.1-1.2,10.3c0,0,0,0,0,0c0,0,0.1,0.1,0.1,0.1c0,0,0,0.1,0.1,0.1c0.1,0.2,0.3,0.4,0.4,0.6c0,0,0,0.1,0.1,0.1
		c0.2,0.2,0.3,0.4,0.5,0.6c0.3,0.3,0.6,0.5,0.9,0.8v0c0.1,0.1,0.2,0.1,0.3,0.2c0,0,0,0,0.1,0h0c0.1,0.1,0.2,0.2,0.4,0.2v0
		c0,0,0,0,0.1,0c0,0,0,0,0,0c0,0,0,0,0,0c0.1,0.1,0.2,0.1,0.3,0.2c0.1,0,0.1,0.1,0.2,0.1c0,0,0,0,0,0c0,0,0,0,0,0c0,0,0.1,0,0.1,0
		c0.1,0.1,0.2,0.1,0.3,0.2c0,0,0,0,0,0c0.1,0,0.1,0.1,0.2,0.1c0.1,0,0.2,0.1,0.3,0.1c0.1,0,0.3,0.1,0.4,0.1c0.1,0,0.2,0,0.3,0.1
		c0.1,0,0.2,0,0.3,0.1c0,0,0.1,0,0.1,0c0.1,0,0.2,0,0.3,0.1c0.1,0,0.2,0,0.4,0.1c0.1,0,0.2,0,0.3,0c0.1,0,0.2,0,0.4,0
		c0.1,0,0.2,0,0.3,0c0.1,0,0.2,0,0.4,0c0.1,0,0.2,0,0.3,0c0.1,0,0.2,0,0.4,0c0.1,0,0.2,0,0.3,0c0.1,0,0.2,0,0.4-0.1
		c0.1,0,0.2,0,0.2-0.1c0,0,0,0,0.1,0c0.1,0,0.2-0.1,0.3-0.1c0.1,0,0.2-0.1,0.3-0.1c0.1,0,0.2-0.1,0.3-0.1c0.1,0,0.2-0.1,0.3-0.1
		c0.1,0,0.2-0.1,0.3-0.1c0,0,0,0,0,0c0.1,0,0.2-0.1,0.3-0.1c0.1-0.1,0.2-0.1,0.3-0.2c0.1-0.1,0.2-0.1,0.3-0.2c0.1,0,0.2-0.1,0.2-0.1
		c0,0,0.1,0,0.1-0.1c0.1-0.1,0.2-0.1,0.3-0.2c0.1-0.1,0.2-0.1,0.3-0.2c0.1-0.1,0.2-0.1,0.3-0.2c0.1-0.1,0.1-0.1,0.2-0.2
		c0,0,0.1-0.1,0.1-0.1c0,0,0,0,0.1-0.1c0,0,0,0,0,0c0.2-0.2,0.3-0.3,0.5-0.5c0,0,0.1-0.1,0.1-0.1c0.2-0.2,0.3-0.4,0.4-0.6
		c0,0.5,0.1,1,0.3,1.4c0.1,0.1,0.2,0.2,0.3,0.3c0.1,0.1,0.2,0.1,0.3,0.1c0.1,0,0.2,0,0.4,0c0-1.9,0-3.7,0-5.6l0,0c0-0.2,0-0.4,0-0.7
		c0-0.1,0-0.1,0-0.2c0,0,0-0.1,0-0.1c0-0.1,0-0.2,0-0.4c0-0.1,0-0.2,0-0.3v-0.7h0c-2.6,0-5.1,0-7.7,0c0,0.4,0.2,0.8,0.5,1
		c0.2,0.1,0.4,0.2,0.7,0.2h1.2c0,0,0,0.1-0.1,0.1c-0.1,0.2-0.1,0.4-0.2,0.6c0,0,0,0,0,0c-0.1,0.5-0.4,1-0.8,1.4
		c-0.1,0.1-0.1,0.1-0.2,0.2c0,0-0.1,0-0.1,0.1c-0.1,0-0.1,0.1-0.2,0.1c0,0-0.1,0-0.1,0.1c0,0-0.1,0.1-0.1,0.1c0,0-0.1,0-0.1,0
		c0,0-0.1,0-0.2,0.1c0,0-0.1,0-0.1,0c-0.1,0-0.1,0-0.2,0c0,0-0.1,0-0.1,0c-0.1,0-0.1,0-0.2,0c0,0-0.1,0-0.1,0c-0.1,0-0.1,0-0.2,0
		c0,0-0.1,0-0.1,0c-0.1,0-0.1,0-0.2,0c-0.7,0-1.4-0.3-1.9-0.8c-0.6-0.6-0.8-1.3-0.8-2h0C158,19.9,158.1,19.8,158.1,19.6
		C158.1,19.6,158.1,19.6,158.1,19.6z"/>
	<g>
		<g>
			<path class="st1" d="M159.8,29.9c0.6,0,1,0,1.3,0.1c0.3,0.1,0.5,0.2,0.7,0.4c0.3,0.2,0.5,0.5,0.6,0.8c0.1,0.3,0.2,0.7,0.2,1.2
				c0,0.5-0.1,0.9-0.2,1.2c-0.1,0.3-0.3,0.6-0.6,0.8c-0.2,0.2-0.5,0.3-0.7,0.4c-0.3,0.1-0.7,0.1-1.3,0.1h-2.2v-5H159.8z M160.1,30.6
				h-1.7v3.8h1.7c0.3,0,0.6,0,0.8-0.1c0.2-0.1,0.4-0.1,0.5-0.3c0.2-0.1,0.3-0.4,0.4-0.6c0.1-0.3,0.2-0.6,0.2-0.9
				c0-0.3-0.1-0.6-0.2-0.9c-0.1-0.3-0.2-0.5-0.4-0.6c-0.1-0.1-0.3-0.2-0.5-0.3C160.7,30.6,160.4,30.6,160.1,30.6z"/>
			<path class="st1" d="M163.1,35l2.4-5h0.7l2.2,5h-0.7l-0.6-1.4h-2.6l-0.7,1.4H163.1z M164.8,32.9h2l-1-2.1L164.8,32.9z"/>
		</g>
	</g>
</g>
</svg>
